<svg xmlns="http://www.w3.org/2000/svg" viewBox="0 0 800 800" width="200" height="200"><circle cx="398.24" cy="399.65" r="362.01" fill="#f0ece3"/><path d="M 329.25 761.18 C 326.26 760.76 324.77 757.74 325.53 753.67 C 326.55 748.24 325.18 747.81 306.81 747.84 C 289.83 747.86 288.00 747.45 288.00 743.57 C 288.00 738.48 286.28 737.79 273.65 737.79 C 260.94 737.79 259.00 737.07 259.00 732.41 C 259.00 729.89 257.27 728.73 251.75 727.55 C 249.53 727.07 249.00 726.41 249.00 724.10 C 249.00 720.87 247.59 719.35 244.10 718.85 C 241.59 718.48 240.81 717.44 239.35 712.50 L 238.46 709.50 L 225.77 709.00 C 218.80 708.73 212.66 708.05 212.12 707.50 C 211.59 706.95 211.01 705.15 210.83 703.50 L 210.50 700.50 L 202.10 700.00 C 193.21 699.47 193.09 699.40 191.35 693.50 C 190.72 691.38 189.73 690.40 187.98 690.16 C 184.61 689.70 182.00 687.17 182.00 684.38 C 182.00 681.18 179.22 680.00 171.69 680.00 C 164.86 680.00 163.44 679.21 162.85 675.10 C 162.47 672.51 161.04 671.44 156.77 670.54 C 154.81 670.13 153.87 669.19 153.46 667.23 C 152.54 662.87 151.47 661.53 148.50 661.00 C 145.54 660.47 144.46 659.12 143.57 654.88 C 143.13 652.73 142.31 652.14 139.03 651.62 C 135.70 651.09 134.94 650.52 134.46 648.24 C 133.52 643.78 132.49 642.58 129.03 641.87 C 124.59 640.97 123.96 639.64 124.20 631.75 C 124.42 624.31 123.90 623.31 119.53 622.83 C 117.02 622.55 116.38 621.88 115.45 618.56 C 114.32 614.50 113.60 613.85 108.50 612.35 C 106.07 611.63 105.40 610.79 105.00 607.98 C 104.56 604.93 104.11 604.46 101.32 604.19 C 99.58 604.02 97.69 603.33 97.12 602.64 C 96.55 601.96 95.96 597.84 95.80 593.47 C 95.50 585.62 95.47 585.53 92.50 584.65 C 86.62 582.91 86.50 582.74 86.46 575.24 C 86.41 567.28 85.18 565.00 80.94 565.00 C 77.79 565.00 76.97 564.09 76.06 559.59 C 75.53 557.00 74.91 556.45 72.22 556.19 C 67.52 555.73 66.80 553.50 67.14 540.37 C 67.45 528.10 67.07 527.05 62.32 527.02 C 57.79 526.98 57.00 524.75 57.00 511.96 C 57.00 501.23 56.81 499.97 55.07 499.04 C 54.00 498.47 52.21 498.00 51.08 498.00 C 48.19 498.00 47.89 495.83 48.21 477.01 C 48.48 461.40 48.61 460.51 50.50 460.22 C 57.33 459.19 57.00 459.69 57.00 450.54 C 57.00 441.56 56.77 441.10 51.59 440.05 C 49.09 439.55 48.44 438.87 48.16 436.46 C 47.73 432.64 46.62 431.37 43.11 430.67 C 37.87 429.62 38.86 423.01 44.46 421.60 C 47.06 420.95 48.71 417.29 47.65 414.53 C 47.34 413.72 45.49 412.39 43.53 411.58 L 39.97 410.09 L 40.24 378.40 C 40.52 344.00 40.05 346.92 45.75 344.15 C 47.13 343.47 47.61 341.59 48.00 335.23 C 48.27 330.79 48.73 326.97 49.00 326.75 C 49.27 326.52 51.08 325.91 53.00 325.38 L 56.50 324.43 L 56.79 316.24 L 57.08 308.06 L 54.29 307.47 C 49.40 306.44 48.50 305.50 48.50 301.43 C 48.50 297.93 48.78 297.52 51.59 296.95 C 56.93 295.86 57.00 295.69 57.00 283.01 C 57.00 269.87 57.75 268.00 63.01 268.00 C 66.84 268.00 67.48 266.64 67.15 259.30 C 66.83 252.20 68.11 249.01 71.29 248.98 C 74.54 248.96 75.78 247.85 76.16 244.60 C 76.51 241.60 77.42 240.85 82.50 239.35 L 85.50 238.46 L 86.00 225.69 C 86.53 212.21 86.97 211.05 91.63 211.02 C 95.00 210.99 95.89 208.95 96.20 200.45 L 96.50 192.50 L 99.90 192.00 C 103.45 191.48 104.50 190.30 105.46 185.77 C 105.87 183.81 106.81 182.87 108.77 182.46 C 113.20 181.52 114.42 180.49 115.11 177.10 C 115.92 173.13 116.14 172.92 120.17 172.10 C 122.79 171.56 123.56 170.83 124.06 168.38 C 124.97 163.91 125.80 163.00 128.94 163.00 C 132.25 163.00 133.52 161.68 134.46 157.25 C 134.99 154.79 135.81 153.86 137.83 153.44 C 142.29 152.51 143.48 151.44 144.00 147.90 C 144.44 144.94 144.91 144.46 147.68 144.19 C 151.45 143.83 152.71 142.53 153.16 138.52 C 153.42 136.20 154.17 135.34 156.50 134.65 C 161.56 133.16 162.43 132.43 163.11 129.10 C 163.93 125.13 164.13 124.92 168.20 124.10 C 170.93 123.55 171.56 122.91 171.84 120.46 C 172.29 116.50 173.55 115.18 177.22 114.81 C 180.46 114.48 181.51 113.27 182.46 108.77 C 182.87 106.81 183.81 105.87 185.77 105.46 C 190.30 104.50 191.48 103.45 192.00 99.90 L 192.50 96.50 L 200.50 96.00 C 209.60 95.43 211.00 94.83 211.00 91.51 C 211.00 87.35 213.46 86.00 221.04 86.00 C 228.38 86.00 230.00 84.92 230.00 80.04 C 230.00 77.25 233.56 76.00 241.46 76.00 C 248.03 76.00 249.00 75.35 249.00 70.98 C 249.00 68.20 250.71 67.55 259.49 67.00 L 267.47 66.50 L 268.10 62.65 C 268.44 60.53 269.34 58.40 270.11 57.91 C 270.87 57.43 276.70 57.02 283.05 57.02 C 295.53 57.00 297.00 56.46 297.00 51.91 C 297.00 50.37 297.68 48.95 298.58 48.61 C 299.45 48.27 307.76 48.00 317.05 48.00 C 332.71 48.00 334.00 47.86 334.96 46.07 C 335.53 45.00 336.00 43.22 336.00 42.10 C 336.00 40.98 336.91 39.59 338.01 38.99 C 340.55 37.64 407.69 37.76 410.25 39.13 C 411.27 39.68 412.00 41.22 412.00 42.84 C 412.00 46.13 413.63 48.00 416.50 48.00 C 419.21 48.00 421.00 46.17 421.00 43.42 C 421.00 39.03 423.17 38.50 441.19 38.50 C 459.50 38.50 459.95 38.64 459.98 44.14 C 459.99 45.62 460.70 47.05 461.58 47.39 C 462.45 47.73 470.29 48.00 479.00 48.00 C 487.71 48.00 495.55 48.27 496.42 48.61 C 497.29 48.94 498.00 50.10 498.00 51.17 C 498.00 52.25 498.47 54.00 499.04 55.07 C 499.97 56.81 501.22 57.00 511.60 57.00 C 523.86 57.00 527.00 57.84 527.00 61.10 C 527.00 65.85 528.67 67.00 535.60 67.00 C 542.92 67.00 546.00 68.17 546.00 70.95 C 546.00 75.47 546.89 76.00 554.54 76.00 C 562.53 76.00 565.00 77.29 565.00 81.45 C 565.00 84.96 566.92 85.88 574.94 86.20 C 582.73 86.52 582.92 86.64 584.65 92.50 C 585.53 95.47 585.62 95.50 593.47 95.80 C 597.84 95.96 601.96 96.55 602.64 97.12 C 603.33 97.69 604.02 99.56 604.19 101.29 C 604.45 103.95 605.01 104.53 607.80 105.10 C 611.87 105.92 612.07 106.13 612.89 110.10 C 613.57 113.42 614.44 114.16 619.50 115.65 C 621.93 116.37 622.60 117.21 623.00 120.02 L 623.50 123.50 L 631.81 124.04 C 640.45 124.60 641.95 125.41 641.98 129.55 C 642.00 132.23 643.85 134.00 646.63 134.00 C 649.71 134.00 652.00 136.58 652.00 140.05 C 652.00 142.42 652.51 143.07 654.75 143.54 C 659.29 144.49 660.48 145.54 660.81 148.85 C 661.06 151.34 661.69 152.11 663.81 152.57 C 670.76 154.05 670.89 154.23 671.21 163.21 L 671.50 171.50 L 674.50 171.84 C 678.49 172.29 680.00 173.69 680.00 176.92 C 680.00 180.18 681.66 182.00 684.63 182.00 C 689.19 182.00 690.00 184.23 690.00 196.87 C 690.00 209.58 690.52 211.00 695.16 211.00 C 696.87 211.00 698.32 211.74 698.96 212.93 C 699.55 214.03 700.00 221.59 700.00 230.36 C 700.00 247.75 699.56 249.00 693.37 249.00 C 689.89 249.00 689.89 249.01 690.19 253.23 C 690.46 256.96 690.86 257.57 693.50 258.35 C 698.65 259.87 699.49 260.61 700.00 264.10 L 700.50 267.50 L 708.34 267.79 C 716.79 268.11 719.00 267.24 719.00 263.58 C 719.00 262.38 719.54 260.86 720.20 260.20 C 721.94 258.46 726.68 258.71 727.39 260.58 C 728.56 263.62 728.06 285.54 726.80 286.80 C 726.07 287.53 722.55 288.00 717.86 288.00 C 713.32 288.00 709.84 288.45 709.44 289.10 C 709.07 289.70 708.70 293.49 708.63 297.51 C 708.56 301.54 708.19 305.15 707.80 305.53 C 707.42 305.92 705.63 306.53 703.83 306.90 C 701.21 307.44 700.44 308.17 699.94 310.62 C 698.99 315.28 698.20 316.00 694.06 316.00 C 690.68 316.00 690.17 316.32 689.71 318.74 C 688.96 322.65 690.49 324.81 694.54 325.57 C 696.47 325.94 698.51 327.08 699.06 328.11 C 699.62 329.16 699.94 335.36 699.78 342.24 L 699.50 354.50 L 691.05 354.79 C 682.04 355.11 680.00 355.96 680.00 359.42 C 680.00 362.33 681.83 364.00 685.00 364.00 C 688.33 364.00 690.00 365.70 690.00 369.09 C 690.00 371.89 691.53 373.00 695.38 373.00 C 699.14 373.00 700.00 371.09 700.00 362.80 L 700.00 355.00 L 707.28 355.00 C 717.81 355.00 719.00 353.92 719.00 344.41 C 719.00 339.28 719.39 336.83 720.25 336.61 C 725.99 335.08 727.51 334.25 727.78 332.48 C 728.64 326.76 729.01 326.22 732.48 325.57 C 736.06 324.90 738.00 322.65 738.00 319.17 C 738.00 316.60 739.83 316.00 747.65 316.00 C 758.60 316.00 758.00 314.58 758.00 340.43 C 758.00 359.89 757.80 362.86 756.42 363.39 C 755.55 363.73 751.53 364.00 747.49 364.00 C 738.17 364.00 735.37 366.09 738.04 371.07 C 738.91 372.70 740.18 373.00 746.31 373.00 C 757.60 373.00 758.00 373.51 758.00 387.93 C 758.00 402.29 757.86 402.48 747.37 402.53 C 743.02 402.55 739.55 403.05 738.83 403.77 C 737.42 405.18 736.97 416.69 738.22 419.25 C 738.91 420.68 740.41 421.00 746.42 421.00 C 758.27 421.00 757.96 420.36 758.06 445.31 C 758.13 460.11 757.80 466.53 756.95 467.56 C 756.02 468.68 752.90 469.00 743.08 469.00 C 729.69 469.00 728.00 469.52 728.00 473.62 C 728.00 478.87 728.34 479.00 741.67 479.00 C 748.53 479.00 755.00 479.47 756.07 480.04 C 757.82 480.97 758.00 482.23 758.00 493.50 C 758.00 508.21 758.16 508.00 746.53 508.00 C 740.28 508.00 738.82 508.30 738.28 509.72 C 737.92 510.66 737.59 516.57 737.56 522.85 C 737.50 535.16 737.64 534.84 731.50 536.65 C 728.53 537.53 728.50 537.62 728.20 545.47 C 728.04 549.84 727.45 553.96 726.88 554.64 C 726.31 555.33 724.42 556.02 722.68 556.19 L 719.50 556.50 L 719.00 564.79 C 718.48 573.44 717.65 574.95 713.45 574.98 C 710.00 575.01 709.00 577.04 709.00 584.01 C 709.00 591.53 707.81 593.74 703.53 594.19 C 700.90 594.46 700.45 595.00 699.72 598.75 C 698.87 603.04 698.50 603.33 692.50 604.22 C 690.73 604.48 690.44 605.49 690.00 612.80 C 689.48 621.47 688.66 622.95 684.37 622.98 C 681.67 623.00 680.27 624.71 679.84 628.50 C 679.55 631.06 679.00 631.57 676.10 632.00 C 672.55 632.52 671.50 633.70 670.54 638.23 C 670.13 640.19 669.19 641.13 667.23 641.54 C 662.80 642.48 661.58 643.51 660.89 646.90 C 660.08 650.87 659.86 651.08 655.83 651.90 C 653.21 652.44 652.44 653.17 651.94 655.62 C 651.08 659.85 650.21 661.00 647.88 661.00 C 644.23 661.00 642.00 659.10 642.00 655.98 C 642.00 653.59 641.49 652.92 639.25 652.43 C 633.57 651.16 632.99 650.80 632.41 648.18 C 631.10 642.28 630.90 642.00 627.97 642.00 C 624.90 642.00 623.00 644.25 623.00 647.88 C 623.00 650.30 621.68 651.21 617.03 651.95 C 614.05 652.43 613.45 652.97 613.17 655.38 C 612.99 656.96 613.35 658.75 613.97 659.37 C 614.59 659.99 618.78 660.73 623.30 661.00 L 631.50 661.50 L 631.50 670.50 L 631.50 679.50 L 623.50 680.00 C 614.40 680.57 613.00 681.17 613.00 684.49 C 613.00 687.50 610.52 690.00 607.54 690.00 C 605.23 690.00 604.01 691.65 603.98 694.83 C 603.96 697.78 602.30 699.27 598.35 699.90 C 594.98 700.45 594.46 700.90 594.19 703.51 C 593.74 707.84 591.55 709.00 583.84 709.00 C 576.66 709.00 575.00 710.10 575.00 714.88 C 575.00 717.81 573.39 718.44 564.50 719.00 L 556.50 719.50 L 556.19 722.68 C 556.02 724.42 555.33 726.31 554.64 726.88 C 553.96 727.45 549.84 728.04 545.47 728.20 C 537.62 728.50 537.53 728.53 536.65 731.50 C 534.83 737.66 535.23 737.49 522.03 737.62 C 509.18 737.74 508.07 738.13 508.00 742.50 C 507.98 743.60 507.56 745.14 507.07 745.92 C 506.07 747.50 497.47 748.41 492.25 747.49 C 489.38 746.98 488.94 746.46 488.37 742.92 C 487.21 735.63 481.03 735.47 479.33 742.67 C 478.59 745.79 477.90 746.53 474.98 747.28 C 469.84 748.61 469.00 749.72 469.00 755.22 C 469.00 759.11 468.62 760.28 467.25 760.64 C 465.26 761.15 332.70 761.67 329.25 761.18 Z M 448.78 707.44 C 452.96 704.51 450.98 700.00 445.50 700.00 C 440.36 700.00 438.21 704.07 441.57 707.43 C 443.56 709.42 445.95 709.43 448.78 707.44 Z M 363.82 676.69 C 364.22 673.23 362.50 671.00 359.43 671.00 C 357.39 671.00 354.00 674.21 354.00 676.15 C 354.00 678.07 357.51 680.08 360.38 679.80 C 362.97 679.55 363.55 679.02 363.82 676.69 Z M 383.07 677.87 C 383.89 676.33 383.91 675.10 383.12 673.37 C 381.11 668.95 373.00 671.07 373.00 676.02 C 373.00 680.07 381.09 681.56 383.07 677.87 Z M 468.79 671.66 C 468.98 666.73 468.65 663.29 467.92 662.41 C 467.11 661.43 464.50 661.00 459.41 661.00 C 453.32 661.00 451.90 661.31 451.09 662.83 C 449.81 665.23 449.95 677.13 451.28 678.79 C 452.00 679.69 454.71 679.99 460.40 679.79 L 468.50 679.50 L 468.79 671.66 Z M 582.92 669.59 C 583.65 668.71 583.98 665.27 583.79 660.34 L 583.50 652.50 L 574.50 652.50 L 565.50 652.50 L 565.20 660.48 C 564.96 667.13 565.20 668.67 566.64 669.73 C 569.09 671.52 581.41 671.41 582.92 669.59 Z M 429.67 641.22 C 431.98 639.75 432.24 635.52 430.12 633.61 C 427.26 631.02 422.23 632.25 421.35 635.75 C 420.33 639.82 426.00 643.56 429.67 641.22 Z M 478.59 639.50 C 480.11 637.18 480.11 636.82 478.59 634.50 C 476.81 631.78 475.48 631.49 471.57 632.98 C 469.77 633.66 469.00 634.69 469.00 636.40 C 469.00 641.87 475.63 644.01 478.59 639.50 Z M 151.96 573.07 C 152.53 572.00 153.00 570.22 153.00 569.10 C 153.00 567.98 153.87 566.60 154.93 566.04 C 156.16 565.38 169.65 565.00 191.86 565.00 C 229.71 565.00 230.00 565.04 230.00 570.37 C 230.00 573.38 231.82 575.00 235.22 575.00 C 238.14 575.00 239.22 573.51 240.45 567.75 C 240.92 565.55 241.59 565.00 243.82 565.00 C 248.02 565.00 249.00 563.30 248.98 556.05 C 248.97 548.26 248.33 547.02 243.88 546.11 L 240.50 545.43 L 240.00 537.17 C 239.48 528.57 238.65 527.05 234.45 527.02 C 230.94 526.99 230.00 524.97 230.00 517.50 C 230.00 509.75 229.08 508.00 225.00 508.00 C 221.70 508.00 220.00 506.30 220.00 503.00 C 220.00 499.83 218.33 498.00 215.42 498.00 C 212.04 498.00 211.12 496.01 210.80 487.98 L 210.50 480.56 L 207.00 479.53 C 201.23 477.83 201.00 477.45 201.00 469.64 C 201.00 465.34 200.51 461.91 199.80 461.20 C 199.09 460.49 195.69 460.00 191.50 460.00 C 183.99 460.00 182.00 460.94 182.00 464.50 C 182.00 467.16 180.19 469.00 177.55 469.02 C 174.23 469.04 172.76 470.55 172.10 474.61 C 171.57 477.87 171.03 478.51 168.40 479.05 C 163.31 480.09 163.00 480.64 163.00 488.50 C 163.00 496.46 162.78 496.83 157.00 498.53 L 153.50 499.56 L 153.20 506.98 C 152.88 515.01 151.96 517.00 148.58 517.00 C 144.95 517.00 144.00 518.96 143.98 526.45 C 143.98 530.33 143.64 534.00 143.23 534.61 C 142.83 535.21 140.82 536.02 138.76 536.40 C 134.49 537.18 134.15 537.97 133.76 547.98 C 133.51 554.23 133.39 554.49 130.50 555.35 C 125.62 556.79 124.52 557.58 124.17 559.91 C 123.73 562.90 125.69 565.00 128.92 565.00 C 132.18 565.00 134.00 566.66 134.00 569.63 C 134.00 573.64 136.53 575.00 144.04 575.00 C 149.83 575.00 151.10 574.69 151.96 573.07 Z M 287.78 569.75 L 289.12 565.00 L 325.36 565.00 C 352.21 565.00 361.91 565.31 362.80 566.20 C 363.46 566.86 364.00 568.60 364.00 570.08 C 364.00 574.25 365.95 575.12 374.61 574.79 L 382.41 574.50 L 383.50 570.00 C 384.49 565.92 384.91 565.45 388.02 565.00 C 394.60 564.04 394.50 556.00 387.91 556.00 C 383.91 556.00 382.67 553.17 383.50 545.99 C 384.09 540.90 383.91 539.91 382.09 538.09 C 380.94 536.94 378.90 536.00 377.56 536.00 C 374.82 536.00 374.08 535.17 373.37 531.25 C 372.79 528.04 371.46 527.04 367.77 527.02 C 364.56 527.00 364.13 525.77 363.75 515.50 C 363.50 508.53 363.49 508.50 360.50 508.16 C 355.68 507.62 355.00 506.42 355.00 498.50 C 355.00 490.54 354.50 489.69 349.00 488.28 L 345.50 487.38 L 345.00 479.84 C 344.45 471.60 343.24 469.28 339.21 468.81 C 337.16 468.57 336.43 467.81 335.95 465.41 C 334.90 460.28 334.40 460.00 326.06 460.00 C 317.55 460.00 316.39 460.62 315.84 465.46 C 315.56 467.87 314.91 468.55 312.41 469.05 C 307.31 470.09 307.00 470.63 307.00 478.50 C 307.00 486.46 306.78 486.83 301.00 488.53 L 297.50 489.56 L 297.20 497.48 C 297.04 501.84 296.45 505.96 295.88 506.64 C 295.31 507.33 293.42 508.02 291.68 508.19 L 288.50 508.50 L 288.00 516.50 C 287.44 525.39 286.81 527.00 283.88 527.00 C 279.15 527.00 278.00 528.68 278.00 535.60 C 278.00 543.28 276.83 546.00 273.54 546.00 C 270.31 546.00 268.00 548.52 268.00 552.05 C 268.00 554.99 267.47 555.33 261.50 556.22 C 260.15 556.42 259.40 557.42 259.18 559.32 C 258.79 562.72 260.49 565.00 263.42 565.00 C 266.09 565.00 268.00 566.78 268.00 569.27 C 268.00 570.29 268.48 572.02 269.06 573.11 C 270.00 574.86 271.01 575.05 278.28 574.79 L 286.44 574.50 L 287.78 569.75 Z M 440.42 570.00 L 441.50 565.50 L 473.77 565.24 L 506.03 564.97 L 506.95 567.24 C 507.45 568.48 508.13 570.74 508.45 572.25 C 509.03 574.97 509.13 575.00 516.90 575.00 C 525.48 575.00 526.34 574.53 527.48 569.18 C 528.20 565.82 528.45 565.61 533.13 564.59 C 538.34 563.46 537.43 556.00 532.09 556.00 C 527.96 556.00 527.13 554.33 526.80 545.48 L 526.50 537.56 L 522.79 536.52 C 518.34 535.28 517.28 534.29 516.83 531.02 C 516.52 528.68 515.49 528.05 509.25 526.39 C 508.38 526.16 508.00 523.65 508.00 518.23 C 508.00 510.00 507.14 508.01 503.55 507.98 C 499.35 507.95 498.52 506.44 498.00 497.79 L 497.50 489.50 L 493.50 488.54 C 491.30 488.02 489.17 487.12 488.77 486.54 C 488.36 485.97 488.02 482.29 488.02 478.37 C 488.00 470.80 487.29 469.44 483.02 468.85 C 480.68 468.52 480.09 467.55 478.38 461.21 C 478.12 460.25 475.77 460.00 469.28 460.21 C 461.40 460.47 460.49 460.70 460.22 462.50 C 459.32 468.50 459.00 469.00 456.00 469.00 C 451.45 469.00 449.57 472.62 450.34 479.94 C 451.02 486.46 450.49 487.34 445.24 488.47 C 440.93 489.39 439.88 491.68 440.17 499.56 C 440.43 506.54 439.62 507.95 435.37 507.98 C 431.94 508.01 430.99 510.20 431.21 517.60 C 431.33 521.40 431.11 525.01 430.73 525.62 C 430.35 526.24 428.24 527.03 426.04 527.38 C 422.71 527.91 421.93 528.48 421.43 530.76 C 420.36 535.68 420.10 536.00 417.23 536.00 C 412.29 536.00 412.00 537.06 412.00 555.12 C 412.00 564.31 412.28 572.56 412.62 573.45 C 413.15 574.83 415.05 575.02 426.28 574.78 L 439.33 574.50 L 440.42 570.00 Z M 564.35 571.50 C 566.25 565.06 563.40 565.52 602.77 565.24 C 641.94 564.95 642.00 564.96 642.00 570.45 C 642.00 574.19 644.16 575.12 652.14 574.80 C 659.31 574.51 659.48 574.44 660.35 571.50 C 661.86 566.37 662.61 565.51 665.78 565.19 C 670.33 564.74 671.13 563.10 670.80 554.86 C 670.51 547.69 670.44 547.52 667.50 546.65 C 662.21 545.09 661.50 544.41 661.50 540.92 C 661.50 537.77 661.79 537.48 666.25 536.23 L 671.00 534.88 L 671.00 527.51 C 671.00 517.20 670.71 517.00 656.05 517.00 C 647.62 517.00 643.94 516.63 643.17 515.71 C 642.58 515.00 641.97 511.33 641.80 507.56 C 641.49 500.38 641.51 500.42 635.50 497.79 C 632.60 496.53 632.48 496.22 632.00 488.49 L 631.50 480.50 L 628.03 479.38 C 624.35 478.19 623.46 477.12 622.56 472.82 C 622.01 470.20 621.43 469.84 615.75 468.57 C 613.56 468.09 613.00 467.40 613.00 465.18 C 613.00 463.65 612.46 461.86 611.80 461.20 C 610.21 459.61 596.79 459.61 595.20 461.20 C 594.49 461.91 594.00 465.33 594.00 469.58 C 594.00 477.41 593.45 478.35 588.25 479.46 C 584.54 480.26 584.14 481.29 583.76 490.96 C 583.50 497.40 583.49 497.43 580.20 498.10 C 578.38 498.47 576.58 499.08 576.20 499.46 C 575.81 499.85 575.27 503.56 575.00 507.73 C 574.47 515.70 574.06 516.34 568.77 517.46 C 566.81 517.87 565.87 518.81 565.46 520.77 C 564.56 525.04 563.49 526.47 560.90 526.85 C 556.70 527.45 556.00 528.83 556.00 536.42 C 556.00 544.08 555.07 546.00 551.37 546.00 C 547.38 546.00 546.00 548.54 546.00 555.87 C 546.00 563.33 546.96 565.00 551.22 565.00 C 554.15 565.00 555.21 566.48 556.47 572.31 C 556.99 574.77 557.47 575.08 560.27 574.81 C 562.84 574.56 563.64 573.91 564.35 571.50 Z M 698.99 534.51 C 700.66 532.50 699.47 528.28 697.00 527.50 C 692.35 526.03 687.93 530.13 690.00 534.00 C 691.30 536.43 697.13 536.76 698.99 534.51 Z M 563.80 467.80 C 565.44 466.16 565.31 462.50 563.56 461.05 C 562.77 460.39 560.86 460.00 559.31 460.18 C 557.06 460.44 556.44 461.07 556.18 463.33 C 556.00 464.89 556.10 466.81 556.39 467.58 C 557.06 469.31 562.14 469.46 563.80 467.80 Z M 315.17 448.76 C 316.48 446.70 316.18 423.23 314.84 422.40 C 314.20 422.00 312.29 421.40 310.59 421.05 C 307.50 420.43 307.50 420.41 307.20 412.96 C 307.04 408.86 306.46 405.06 305.91 404.51 C 305.36 403.96 303.25 403.05 301.21 402.48 L 297.50 401.44 L 297.24 394.97 C 296.88 385.84 296.32 384.00 293.92 384.00 C 289.06 384.00 288.00 382.38 288.00 374.90 C 288.00 366.38 286.93 364.00 283.09 364.00 C 279.01 364.00 278.13 362.34 277.80 354.06 C 277.48 346.27 277.36 346.08 271.50 344.35 C 269.07 343.63 268.40 342.79 268.00 339.98 L 267.50 336.50 L 258.50 336.50 L 249.50 336.50 L 249.00 339.96 C 248.58 342.87 248.01 343.52 245.41 344.05 C 240.28 345.10 240.00 345.61 240.00 353.86 C 240.00 362.28 239.15 364.00 235.00 364.00 C 230.91 364.00 230.00 365.75 230.00 373.58 C 230.00 381.32 229.43 382.36 224.49 383.57 C 220.40 384.58 220.03 385.42 220.02 393.77 C 220.00 400.77 219.90 401.08 217.25 402.13 C 212.20 404.12 211.50 404.69 211.15 407.10 C 210.66 410.54 209.14 412.00 206.08 412.00 C 201.93 412.00 201.00 413.72 200.98 421.45 C 200.97 429.76 200.37 430.97 195.88 431.89 C 192.83 432.51 192.50 432.92 192.50 436.00 C 192.50 439.06 192.84 439.49 195.80 440.09 C 199.88 440.93 200.07 441.12 200.90 445.19 C 201.28 447.01 202.48 448.93 203.60 449.49 C 206.81 451.09 314.14 450.39 315.17 448.76 Z M 459.19 448.72 C 460.48 446.69 460.17 423.22 458.84 422.40 C 458.20 422.00 456.30 421.40 454.61 421.06 C 452.19 420.56 451.35 419.71 450.59 416.96 C 449.45 412.89 448.45 412.04 444.79 412.02 C 441.08 411.99 440.03 409.56 440.29 401.56 C 440.52 394.25 439.12 392.00 434.33 392.00 C 431.56 392.00 430.50 388.78 431.30 382.80 C 432.07 377.03 430.77 374.33 426.81 373.48 C 421.48 372.34 420.91 371.38 421.16 364.07 C 421.43 356.28 420.85 355.00 417.06 355.00 C 412.96 355.00 412.13 353.32 411.80 344.45 L 411.50 336.50 L 402.54 336.50 L 393.58 336.50 L 392.91 339.80 C 392.07 343.87 391.88 344.07 387.83 344.90 C 385.12 345.46 384.45 346.14 383.87 348.99 C 383.08 352.83 380.72 355.00 377.34 355.00 C 374.10 355.00 372.65 358.37 373.35 364.29 C 374.03 370.08 372.82 372.99 369.71 373.02 C 365.35 373.05 364.53 374.50 364.00 383.13 L 363.50 391.33 L 359.50 392.44 L 355.50 393.56 L 355.21 401.82 C 354.89 410.78 354.77 410.95 347.75 412.45 C 345.84 412.86 345.00 413.66 345.00 415.08 C 345.00 418.44 343.09 421.00 340.59 421.00 C 336.48 421.00 335.81 423.09 335.76 436.13 C 335.72 445.83 336.01 448.54 337.20 449.41 C 339.45 451.05 458.14 450.38 459.19 448.72 Z M 592.59 448.92 C 593.37 448.28 594.01 446.80 594.02 445.63 C 594.04 442.45 595.13 441.33 599.00 440.50 C 600.92 440.09 602.83 439.24 603.23 438.62 C 603.64 438.01 603.98 434.49 603.98 430.82 C 604.00 423.54 602.62 421.00 598.63 421.00 C 595.83 421.00 594.00 419.22 594.00 416.50 C 594.00 413.67 592.14 412.00 589.00 412.00 C 584.85 412.00 584.00 410.28 584.00 401.86 C 584.00 393.61 583.72 393.10 578.59 392.05 C 575.85 391.49 575.50 391.02 575.50 387.96 C 575.50 384.86 575.81 384.47 578.50 384.16 C 582.36 383.73 584.00 382.33 584.00 379.46 C 584.00 375.51 585.08 374.08 588.56 373.42 C 592.61 372.66 594.27 370.90 593.83 367.83 C 593.61 366.29 592.52 365.25 590.50 364.65 C 585.37 363.14 584.52 362.39 584.00 359.01 C 583.03 352.64 575.00 353.56 575.00 360.04 C 575.00 363.64 573.21 364.22 563.48 363.80 L 556.50 363.50 L 556.20 355.55 C 556.04 351.17 555.46 347.06 554.92 346.40 C 554.37 345.75 552.37 344.92 550.47 344.56 C 547.77 344.05 546.89 343.33 546.42 341.21 C 545.16 335.42 545.98 335.78 534.14 335.86 C 531.19 335.87 528.55 336.12 528.27 336.39 C 528.00 336.67 527.47 338.37 527.10 340.18 C 526.56 342.82 525.76 343.65 522.96 344.48 C 517.18 346.19 517.00 346.50 517.00 355.04 C 517.00 363.62 517.30 363.20 510.50 364.22 C 508.75 364.48 508.47 365.39 508.25 371.51 C 507.87 381.73 507.50 382.73 503.75 383.54 C 498.51 384.66 497.92 385.64 498.18 392.77 C 498.39 398.49 498.15 399.46 496.10 401.12 C 494.82 402.15 492.98 403.00 492.01 403.00 C 488.96 403.00 487.91 405.49 488.16 412.17 C 488.43 419.41 487.81 420.99 484.69 421.02 C 479.98 421.05 479.52 422.20 479.17 434.88 C 478.88 445.41 479.06 447.06 480.67 448.67 C 482.40 450.40 485.34 450.49 536.84 450.30 C 576.56 450.15 591.56 449.78 592.59 448.92 Z M 621.80 448.80 C 622.52 448.08 623.00 444.64 623.00 440.27 C 623.00 435.25 623.39 432.83 624.25 432.61 C 624.94 432.42 626.85 431.86 628.50 431.36 L 631.50 430.45 L 631.50 421.48 L 631.50 412.50 L 623.66 412.21 C 618.73 412.02 615.29 412.35 614.41 413.08 C 613.30 414.00 613.00 417.82 613.00 430.92 C 613.00 448.79 613.32 450.00 618.00 450.00 C 619.43 450.00 621.14 449.46 621.80 448.80 Z M 670.79 431.80 C 671.07 424.48 670.96 424.02 668.50 422.41 C 666.43 421.05 665.43 420.94 663.46 421.84 C 661.15 422.89 661.00 423.44 661.00 430.81 C 661.00 435.13 661.32 438.99 661.71 439.38 C 662.11 439.77 664.24 439.96 666.46 439.80 L 670.50 439.50 L 670.79 431.80 Z M 736.00 353.00 C 738.27 350.73 738.44 349.68 736.96 346.93 C 735.65 344.48 729.51 344.22 728.61 346.58 C 726.07 353.18 731.29 357.71 736.00 353.00 Z M 622.39 333.42 C 622.73 332.55 623.00 328.78 623.00 325.04 C 623.00 317.43 624.14 315.66 628.68 316.18 C 630.58 316.40 631.58 317.15 631.78 318.50 C 632.54 323.61 633.15 324.91 635.05 325.52 C 636.25 325.90 638.11 325.50 639.55 324.56 C 641.75 323.12 642.00 322.27 642.00 316.18 C 642.00 309.04 642.98 307.01 646.45 306.98 C 649.78 306.96 651.24 305.45 651.91 301.35 L 652.53 297.50 L 660.91 297.50 C 669.88 297.50 669.88 297.50 671.65 303.50 C 672.37 305.93 673.21 306.60 676.02 307.00 C 679.31 307.47 679.52 307.74 679.81 311.75 L 680.11 316.00 L 671.61 316.00 C 664.16 316.00 662.94 316.25 661.67 318.06 C 658.36 322.78 662.21 326.00 671.13 326.00 C 678.23 326.00 680.00 324.79 680.00 319.96 L 680.00 316.00 L 685.04 316.00 L 690.08 316.00 L 689.91 308.01 C 689.72 299.32 690.70 297.00 694.55 297.00 C 697.52 297.00 700.19 294.32 699.80 291.73 C 699.48 289.58 698.32 288.77 693.50 287.35 C 690.54 286.47 690.49 286.35 690.00 278.19 C 689.65 272.35 689.06 269.64 688.00 268.97 C 687.12 268.41 675.39 268.11 659.50 268.26 L 632.50 268.50 L 632.20 271.62 C 631.84 275.32 634.08 278.00 637.54 278.00 C 640.95 278.00 642.14 281.00 641.80 288.75 C 641.51 295.24 641.40 295.49 638.50 296.35 C 633.42 297.85 632.51 298.60 632.16 301.60 C 631.72 305.38 630.30 307.00 627.44 307.00 C 624.17 307.00 623.57 305.57 623.00 296.50 L 622.50 288.50 L 613.50 288.50 L 604.50 288.50 L 604.50 302.00 L 604.50 315.50 L 607.50 315.84 C 612.37 316.39 613.00 317.55 613.00 325.96 C 613.00 330.20 613.30 333.97 613.67 334.33 C 615.06 335.72 621.78 335.02 622.39 333.42 Z M 391.43 323.79 C 393.23 321.23 393.56 311.92 391.96 308.93 C 391.40 307.87 389.93 306.99 388.71 306.98 C 384.34 306.95 383.55 305.55 383.43 297.54 C 383.36 293.38 382.98 289.64 382.57 289.24 C 382.17 288.83 380.22 288.05 378.25 287.49 C 375.56 286.73 374.42 285.73 373.70 283.49 C 372.35 279.31 371.11 278.00 368.50 278.00 C 364.99 278.00 364.11 276.03 363.80 267.45 L 363.50 259.50 L 360.32 259.19 C 355.87 258.76 355.14 257.42 354.80 249.06 C 354.48 241.27 354.36 241.08 348.50 239.35 C 345.54 238.47 345.49 238.34 345.00 230.31 C 344.73 225.83 344.19 221.85 343.80 221.46 C 343.42 221.08 341.63 220.47 339.83 220.10 C 337.21 219.56 336.44 218.83 335.94 216.38 C 335.60 214.70 335.00 212.80 334.60 212.16 C 333.62 210.58 318.79 210.61 317.20 212.20 C 316.49 212.91 316.00 216.31 316.00 220.50 C 316.00 228.05 315.06 230.00 311.42 230.00 C 308.04 230.00 307.12 231.99 306.80 240.02 C 306.51 247.32 306.45 247.47 303.50 248.35 C 297.65 250.08 297.53 250.27 297.00 258.50 C 296.47 266.73 296.09 267.34 290.75 268.46 C 288.51 268.93 288.00 269.58 288.00 271.95 C 288.00 275.45 285.70 278.00 282.55 278.00 C 278.95 278.00 277.81 280.35 277.65 288.20 C 277.50 295.34 277.46 295.46 274.50 296.34 C 268.37 298.17 268.52 297.81 268.22 310.76 C 267.99 320.63 268.22 323.08 269.51 324.37 C 270.91 325.76 277.84 325.95 330.48 325.98 L 389.87 326.03 L 391.43 323.79 Z M 524.43 325.02 L 527.00 324.05 L 527.00 311.04 L 527.00 298.04 L 524.25 297.45 C 517.20 295.94 517.00 295.67 517.00 287.72 C 517.00 279.99 516.08 278.00 512.50 278.00 C 508.94 278.00 508.00 276.01 508.00 268.42 C 508.00 260.80 507.30 259.44 503.03 258.85 C 500.76 258.53 500.02 257.57 496.99 251.02 C 496.62 250.21 494.83 249.24 493.03 248.87 C 488.62 247.97 487.84 246.49 488.32 240.00 C 488.85 232.88 487.78 230.00 484.60 230.00 C 480.23 230.00 478.91 227.55 479.11 219.79 C 479.24 214.76 478.90 212.54 477.89 211.89 C 477.13 211.39 473.17 211.10 469.11 211.24 C 461.26 211.52 460.67 211.89 459.54 217.25 C 459.07 219.49 458.42 220.00 456.05 220.00 C 451.14 220.00 449.74 222.37 450.28 229.79 C 450.80 237.04 449.14 240.00 444.56 240.00 C 441.20 240.00 440.70 241.21 440.57 249.71 C 440.45 257.54 439.64 258.95 435.29 258.98 C 432.03 259.01 430.66 262.41 431.39 268.65 C 431.92 273.17 431.71 274.29 430.01 275.99 C 428.90 277.10 427.13 278.00 426.07 278.00 C 423.44 278.00 421.00 280.65 421.00 283.51 C 421.00 286.21 419.97 287.06 415.59 287.95 L 412.50 288.57 L 412.00 296.93 C 411.47 305.76 411.14 306.33 405.82 307.44 C 400.55 308.55 401.44 316.00 406.84 316.00 C 410.30 316.00 412.00 317.65 412.00 321.00 C 412.00 322.43 412.54 324.14 413.20 324.80 C 414.73 326.33 520.45 326.54 524.43 325.02 Z M 266.80 276.80 C 268.37 275.23 268.34 270.53 266.75 269.21 C 266.06 268.64 264.15 268.02 262.50 267.84 C 260.00 267.56 259.44 267.00 259.16 264.50 C 258.71 260.50 257.46 259.18 253.78 258.81 C 250.61 258.49 249.87 257.63 248.34 252.50 L 247.45 249.50 L 239.58 249.50 C 231.18 249.50 230.69 249.78 229.54 255.23 C 229.13 257.19 228.19 258.13 226.23 258.54 C 221.70 259.50 220.52 260.55 220.00 264.10 L 219.50 267.50 L 210.50 267.50 L 201.50 267.50 L 201.16 264.50 C 200.98 262.85 200.36 260.94 199.79 260.25 C 198.31 258.46 193.33 258.69 192.61 260.58 C 191.51 263.44 191.95 275.55 193.20 276.80 C 194.92 278.52 265.08 278.52 266.80 276.80 Z M 411.79 259.66 C 412.11 251.16 411.24 249.00 407.50 249.00 C 404.21 249.00 403.32 250.72 402.76 258.10 C 402.12 266.49 403.02 268.21 407.83 267.81 L 411.50 267.50 L 411.79 259.66 Z M 573.83 267.13 C 575.55 266.04 574.96 260.93 573.00 259.97 C 572.17 259.56 570.15 258.83 568.50 258.34 C 565.94 257.58 565.50 256.96 565.50 254.08 C 565.50 250.55 566.56 249.53 571.22 248.55 C 574.55 247.85 576.06 245.28 574.91 242.25 C 574.07 240.01 573.97 240.00 551.73 240.00 C 535.70 240.00 529.06 240.34 528.20 241.20 C 526.72 242.68 526.60 254.39 528.04 257.07 C 528.91 258.71 530.18 259.00 536.34 259.00 C 544.01 259.00 546.00 259.93 546.00 263.50 C 546.00 267.44 547.79 268.00 560.45 267.98 C 567.08 267.98 573.10 267.59 573.83 267.13 Z M 632.00 264.70 C 632.00 260.90 630.50 259.00 627.50 259.00 C 626.35 259.00 624.86 259.54 624.20 260.20 C 623.54 260.86 623.00 262.34 623.00 263.50 C 623.00 266.50 624.90 268.00 628.70 268.00 C 631.77 268.00 632.00 267.77 632.00 264.70 Z M 678.80 257.80 C 679.46 257.14 680.00 255.40 680.00 253.92 C 680.00 250.57 681.55 249.25 686.00 248.83 L 689.50 248.50 L 689.79 240.86 C 690.17 230.97 689.30 230.00 680.13 230.00 C 672.70 230.00 671.00 229.04 671.00 224.84 C 671.00 221.08 668.56 220.00 660.03 220.00 C 655.20 220.00 652.83 219.60 652.61 218.75 C 650.56 211.06 648.63 209.52 644.05 211.97 C 642.11 213.01 642.00 213.95 642.00 230.00 C 642.00 249.55 641.72 249.00 651.74 249.00 C 658.52 249.00 660.75 247.70 661.19 243.50 C 661.46 240.91 661.95 240.46 664.82 240.18 C 669.97 239.69 671.00 241.23 671.00 249.42 C 671.00 257.01 671.94 259.00 675.50 259.00 C 676.65 259.00 678.14 258.46 678.80 257.80 Z M 382.33 247.53 C 383.41 246.45 383.72 244.20 383.51 239.11 C 383.17 230.83 382.76 230.00 378.96 230.00 C 374.97 230.00 373.20 233.14 373.18 240.25 C 373.17 245.00 373.54 246.26 375.30 247.50 C 378.01 249.40 380.45 249.41 382.33 247.53 Z M 709.95 237.95 C 705.41 233.41 711.13 227.86 717.07 231.04 C 720.08 232.65 719.68 237.79 716.43 239.02 C 712.87 240.38 712.28 240.28 709.95 237.95 Z M 266.95 228.56 C 268.56 226.62 267.90 221.95 265.83 220.65 C 263.05 218.92 259.00 221.37 259.00 224.78 C 259.00 226.33 259.54 228.14 260.20 228.80 C 261.84 230.44 265.50 230.31 266.95 228.56 Z M 219.84 216.50 C 220.43 211.30 221.22 211.00 234.59 211.00 C 245.77 211.00 247.03 210.82 247.96 209.07 C 248.53 208.00 249.00 202.35 249.00 196.50 C 249.00 190.65 248.53 185.00 247.96 183.93 C 245.98 180.22 240.02 182.09 239.98 186.45 C 239.95 191.05 238.79 191.47 224.79 192.00 L 211.50 192.50 L 211.16 195.50 C 210.71 199.49 209.31 201.00 206.08 201.00 C 204.60 201.00 202.86 201.54 202.20 202.20 C 200.63 203.77 200.66 208.47 202.25 209.79 C 202.94 210.36 204.80 210.98 206.40 211.16 C 209.48 211.52 210.52 212.78 211.47 217.31 C 212.01 219.85 212.42 220.09 215.78 219.81 C 219.09 219.53 219.54 219.17 219.84 216.50 Z M 286.80 218.80 C 289.68 215.92 287.47 211.00 283.30 211.00 C 281.02 211.00 277.00 214.14 277.00 215.93 C 277.00 219.25 284.23 221.37 286.80 218.80 Z M 545.43 218.43 C 547.49 216.37 547.41 215.41 545.00 213.00 C 541.42 209.42 536.00 210.93 536.00 215.50 C 536.00 216.66 536.54 218.14 537.20 218.80 C 538.90 220.50 543.57 220.29 545.43 218.43 Z M 458.80 199.80 C 459.51 199.09 460.00 195.69 460.00 191.50 C 460.00 183.90 459.06 182.00 455.32 182.00 C 451.67 182.00 449.62 177.86 450.32 171.93 C 450.81 167.78 450.58 166.58 448.96 164.96 C 447.88 163.88 445.86 163.00 444.48 163.00 C 441.16 163.00 439.65 159.16 440.31 152.46 C 440.89 146.60 439.79 144.01 436.70 143.98 C 432.34 143.95 431.53 142.50 431.00 133.81 C 430.51 125.65 430.46 125.53 427.50 124.65 C 421.62 122.91 421.50 122.73 421.48 115.26 C 421.46 107.31 420.21 105.00 415.90 105.00 C 413.02 105.00 412.68 104.46 411.78 98.51 C 411.61 97.42 410.58 96.39 409.49 96.22 C 403.72 95.35 403.00 94.94 403.00 92.48 C 403.00 89.83 399.86 86.00 397.69 86.00 C 395.22 86.00 392.83 88.60 392.13 92.05 C 391.53 95.03 390.99 95.54 388.22 95.81 C 384.01 96.22 382.60 98.92 383.41 105.02 C 384.34 112.01 383.02 114.58 378.09 115.37 C 374.71 115.91 373.93 116.47 373.43 118.76 C 372.38 123.58 372.10 124.00 369.97 124.00 C 364.94 124.00 364.00 125.54 364.00 133.84 C 364.00 142.35 363.16 144.00 358.86 144.00 C 355.20 144.00 354.66 145.18 354.90 152.62 C 355.15 160.40 353.93 163.00 350.04 163.00 C 345.36 163.00 344.11 165.08 344.72 171.81 C 345.38 179.11 344.05 182.00 340.02 182.00 C 338.43 182.00 336.83 182.46 336.48 183.03 C 336.13 183.60 335.80 187.46 335.75 191.61 C 335.68 197.14 336.03 199.41 337.08 200.07 C 339.38 201.52 457.34 201.26 458.80 199.80 Z M 554.07 190.96 C 556.26 189.79 556.70 185.10 554.80 183.20 C 554.07 182.47 550.54 182.00 545.84 182.00 C 539.18 182.00 537.92 182.28 537.04 183.93 C 534.16 189.31 537.03 192.00 545.64 192.00 C 549.21 192.00 553.00 191.53 554.07 190.96 Z M 296.05 179.91 C 298.46 175.40 294.84 170.96 290.00 172.50 C 288.47 172.99 288.00 174.01 288.00 176.90 C 288.00 181.41 288.48 182.00 292.13 182.00 C 293.95 182.00 295.32 181.27 296.05 179.91 Z M 180.83 171.13 C 181.58 170.65 182.02 169.04 181.83 167.41 C 181.20 161.93 172.97 161.50 172.17 166.91 C 171.99 168.12 172.39 169.76 173.05 170.56 C 174.36 172.14 178.73 172.46 180.83 171.13 Z M 257.80 161.80 C 259.74 159.86 259.25 155.21 256.98 153.99 C 255.88 153.40 251.71 153.05 247.73 153.21 L 240.50 153.50 L 240.18 156.85 C 239.63 162.62 240.15 163.00 248.77 163.00 C 253.53 163.00 257.07 162.53 257.80 161.80 Z" fill="#000" fill-rule="evenodd"/></svg>
