<svg xmlns="http://www.w3.org/2000/svg" viewBox="0 0 1600 1600" width="200" height="200"><defs><clipPath id="rim"><circle cx="798.05" cy="799.51" r="712.62"/></clipPath></defs><circle cx="798.05" cy="799.51" r="723.47" fill="#f0ece3"/><path d="M 673.25 1522.93 C 664.22 1521.76 657.91 1517.94 651.11 1509.54 C 641.36 1497.49 638.30 1496.46 608.50 1495.10 C 587.97 1494.16 587.39 1493.99 573.99 1485.10 C 563.43 1478.09 561.13 1477.31 547.03 1475.94 C 526.07 1473.89 523.62 1472.42 495.36 1444.79 C 471.94 1421.90 469.47 1420.24 456.66 1418.84 C 434.98 1416.47 432.17 1415.59 418.98 1407.06 C 415.63 1404.90 408.70 1401.73 403.58 1400.03 C 391.41 1395.97 387.08 1393.10 373.43 1380.02 C 360.55 1367.67 357.22 1365.47 344.01 1360.56 C 330.04 1355.36 326.58 1352.50 290.22 1316.00 C 254.48 1280.11 253.88 1279.37 248.06 1264.05 C 242.88 1250.37 241.47 1248.52 218.39 1225.00 C 196.99 1203.20 195.45 1201.06 190.63 1186.50 C 188.98 1181.49 185.57 1174.77 181.51 1168.54 C 177.68 1162.66 173.99 1155.48 172.50 1151.04 C 168.73 1139.77 165.18 1134.38 153.24 1121.80 C 137.18 1104.88 135.68 1101.84 134.04 1083.00 C 132.81 1068.82 131.23 1064.26 123.80 1053.40 C 116.93 1043.36 115.29 1038.47 114.07 1024.40 C 112.94 1011.38 111.21 1006.34 104.15 995.60 C 91.73 976.66 91.46 939.60 103.61 921.50 C 115.87 903.25 115.21 893.68 100.58 877.28 C 87.14 862.22 85.01 857.25 86.84 845.22 C 88.65 833.30 88.32 829.76 84.47 819.79 C 79.43 806.74 79.04 802.19 79.03 756.50 C 79.01 707.37 79.15 706.25 86.97 690.50 C 90.24 683.90 93.90 675.35 95.10 671.50 C 97.65 663.30 100.50 657.39 105.94 648.96 C 113.48 637.31 113.79 630.83 107.49 617.00 C 102.24 605.48 102.27 601.34 107.73 589.77 C 112.11 580.48 113.49 575.01 114.48 563.00 C 115.37 552.03 117.34 546.25 122.84 538.42 C 128.78 529.97 132.26 523.25 134.34 516.23 C 137.23 506.50 141.78 499.70 154.49 486.13 C 169.14 470.49 170.60 467.54 172.07 450.56 C 173.24 437.08 174.93 431.69 180.57 423.45 C 186.22 415.20 189.12 409.30 192.37 399.50 C 196.50 387.03 198.83 384.51 294.18 289.42 C 387.97 195.89 387.57 196.25 402.24 191.12 C 412.57 187.51 414.77 186.42 424.36 180.15 C 428.37 177.54 435.66 173.90 440.57 172.06 C 445.48 170.23 453.20 166.33 457.73 163.40 C 468.18 156.64 470.00 155.71 480.12 152.01 C 484.70 150.34 492.41 146.46 497.26 143.39 C 502.15 140.29 510.24 136.33 515.39 134.51 C 526.49 130.60 527.28 130.19 537.28 123.36 C 546.50 117.06 551.67 115.43 566.80 114.07 C 579.52 112.92 582.77 111.75 594.40 104.14 C 605.49 96.88 609.46 95.97 633.81 95.03 C 656.82 94.15 659.55 93.53 668.99 87.09 C 685.00 76.16 685.83 76.04 747.50 76.04 C 802.41 76.04 806.45 76.37 819.67 82.02 C 831.84 87.22 835.25 87.21 847.60 81.96 C 870.55 72.19 901.03 73.84 919.79 85.86 C 931.90 93.63 936.72 94.79 959.50 95.39 C 980.85 95.96 984.10 96.77 996.35 104.54 C 1007.57 111.66 1011.09 112.87 1024.00 114.05 C 1039.79 115.49 1043.15 116.56 1053.35 123.37 C 1062.67 129.59 1065.02 130.78 1077.50 135.61 C 1081.35 137.10 1088.07 140.55 1092.43 143.28 C 1096.79 146.01 1105.08 149.99 1110.86 152.13 C 1116.97 154.40 1124.44 158.11 1128.70 161.01 C 1137.75 167.15 1143.52 170.07 1152.25 172.94 C 1156.05 174.19 1163.27 177.98 1168.73 181.58 C 1174.94 185.67 1181.35 188.94 1186.48 190.63 C 1200.93 195.40 1203.16 197.00 1224.57 218.05 C 1246.27 239.37 1251.61 243.43 1263.95 247.98 C 1280.05 253.92 1282.82 256.15 1314.31 288.61 C 1335.36 310.30 1342.00 319.07 1342.00 325.17 C 1342.00 329.38 1349.33 341.20 1357.60 350.30 C 1376.99 371.65 1378.34 374.20 1380.06 392.68 C 1381.34 406.45 1382.87 410.94 1389.79 421.20 C 1405.17 443.98 1402.92 489.00 1386.42 489.00 C 1383.78 489.00 1383.62 488.73 1379.51 477.57 C 1376.67 469.85 1371.13 465.10 1359.44 460.37 C 1353.92 458.14 1345.77 453.83 1341.34 450.79 C 1336.91 447.76 1331.30 444.55 1328.89 443.67 C 1326.47 442.79 1318.96 440.03 1312.18 437.53 C 1291.20 429.81 1286.96 432.33 1284.93 453.75 C 1281.62 488.49 1292.77 501.46 1317.33 491.43 C 1329.97 486.27 1334.21 487.26 1342.05 497.19 C 1349.93 507.17 1353.71 507.96 1368.65 502.75 C 1379.90 498.82 1379.71 498.74 1386.41 510.09 C 1398.93 531.31 1412.01 537.52 1430.68 531.11 C 1445.95 525.87 1451.24 527.51 1454.56 538.52 C 1459.33 554.39 1454.22 567.73 1441.09 573.70 C 1428.20 579.55 1426.69 580.40 1423.43 583.65 C 1421.67 585.40 1418.87 590.27 1417.11 594.65 C 1410.49 611.10 1404.79 618.06 1391.85 625.53 C 1381.33 631.59 1381.29 632.82 1391.04 651.79 C 1398.91 667.09 1399.91 671.46 1399.97 690.60 C 1400.02 707.13 1401.66 709.04 1414.72 707.69 C 1427.47 706.37 1432.54 701.93 1439.46 685.99 C 1450.13 661.41 1479.54 633.67 1494.94 633.67 C 1513.43 633.67 1516.90 640.99 1517.07 680.33 C 1517.23 716.26 1516.55 718.40 1501.40 729.61 C 1491.24 737.12 1491.48 738.94 1503.74 747.67 C 1525.39 763.10 1521.44 796.15 1496.87 805.10 C 1471.36 814.40 1471.33 832.83 1496.82 842.61 C 1515.69 849.86 1517.00 853.00 1517.00 891.00 C 1517.00 931.74 1513.35 938.23 1488.00 942.54 C 1468.95 945.78 1468.86 951.20 1487.80 954.43 C 1508.44 957.95 1517.00 967.50 1517.00 987.00 C 1517.00 1004.65 1512.52 1010.28 1492.81 1017.42 C 1480.89 1021.74 1477.50 1026.99 1475.97 1043.50 C 1474.59 1058.37 1473.06 1062.98 1466.06 1073.38 C 1462.21 1079.09 1459.12 1085.16 1457.40 1090.38 C 1454.20 1100.09 1451.09 1106.48 1445.75 1114.36 C 1443.57 1117.58 1440.06 1124.96 1437.95 1130.76 C 1435.29 1138.10 1432.26 1144.00 1428.01 1150.15 C 1423.99 1155.95 1420.66 1162.33 1418.30 1168.74 C 1413.61 1181.46 1410.36 1186.40 1398.09 1199.45 C 1386.50 1211.78 1383.96 1215.70 1379.44 1228.16 C 1374.76 1241.09 1373.68 1242.40 1339.05 1277.14 C 1295.76 1320.54 1293.75 1321.35 1272.53 1303.65 C 1258.83 1292.21 1252.34 1291.38 1243.77 1299.95 C 1234.90 1308.81 1236.47 1313.27 1252.00 1323.30 C 1270.19 1335.05 1266.35 1352.62 1243.68 1361.41 C 1231.30 1366.20 1229.96 1367.25 1207.00 1390.14 C 1186.21 1410.86 1183.06 1413.16 1167.97 1418.56 C 1163.82 1420.05 1156.03 1424.21 1150.44 1427.93 C 1143.66 1432.43 1137.34 1435.68 1131.05 1437.87 C 1125.52 1439.81 1117.89 1443.57 1112.32 1447.11 C 1106.35 1450.92 1099.21 1454.38 1092.71 1456.63 C 1086.16 1458.90 1079.26 1462.25 1073.47 1465.99 C 1062.48 1473.09 1057.81 1474.62 1043.00 1476.01 C 1030.46 1477.19 1025.18 1479.03 1016.47 1485.22 C 1002.79 1494.96 995.03 1495.90 981.00 1489.51 C 964.20 1481.86 955.02 1486.07 938.77 1508.91 C 932.19 1518.16 926.62 1521.59 915.91 1522.98 C 906.88 1524.15 682.28 1524.11 673.25 1522.93 Z M 926.93 1355.54 C 941.02 1348.25 937.03 1326.71 921.32 1325.28 C 904.24 1323.72 896.97 1347.08 912.02 1355.15 C 916.16 1357.37 923.04 1357.55 926.93 1355.54 Z M 1158.50 1335.95 C 1162.90 1333.29 1165.42 1328.39 1165.42 1322.46 C 1165.44 1305.50 1142.85 1299.89 1135.25 1314.96 C 1127.65 1330.03 1143.94 1344.73 1158.50 1335.95 Z M 866.07 1147.39 C 869.06 1146.51 875.84 1142.91 881.13 1139.40 C 895.85 1129.65 894.27 1129.86 951.20 1130.21 C 1006.16 1130.54 1000.91 1129.75 1016.53 1140.03 C 1044.22 1158.26 1072.59 1135.84 1059.21 1106.32 C 1057.01 1101.47 1054.25 1094.53 1053.07 1090.89 C 1050.02 1081.49 1046.48 1076.43 1033.61 1063.15 C 1022.11 1051.29 1018.87 1046.44 1015.50 1036.00 C 1013.18 1028.81 1010.09 1022.73 1004.09 1013.54 C 1001.22 1009.14 997.90 1002.20 996.08 996.77 C 993.89 990.21 991.04 984.62 986.37 977.67 C 981.88 970.98 978.69 964.79 976.40 958.28 C 959.48 910.33 919.43 910.64 901.05 958.86 C 898.66 965.15 895.09 971.88 891.20 977.46 C 887.05 983.41 884.24 988.81 882.41 994.35 C 879.49 1003.20 876.21 1009.98 870.05 1019.85 C 867.88 1023.34 864.90 1029.87 863.43 1034.35 C 859.53 1046.32 856.93 1050.17 843.30 1064.17 C 825.75 1082.20 822.95 1090.13 824.49 1117.50 C 826.03 1144.95 840.11 1155.07 866.07 1147.39 Z M 561.58 1146.70 C 564.35 1145.98 569.94 1143.09 574.05 1140.25 C 589.25 1129.75 583.37 1130.54 648.82 1130.21 C 715.21 1129.88 713.54 1129.70 726.50 1138.43 C 745.00 1150.88 756.31 1150.55 768.06 1137.20 C 776.74 1127.34 777.79 1120.43 772.44 1108.50 C 770.96 1105.20 768.27 1098.15 766.47 1092.84 C 762.38 1080.80 760.96 1078.71 746.89 1064.19 C 734.60 1051.50 730.82 1045.61 726.92 1033.09 C 725.65 1029.00 722.46 1022.37 719.81 1018.31 C 713.70 1008.95 710.84 1003.21 708.04 994.70 C 706.71 990.67 703.03 983.74 699.00 977.70 C 694.36 970.74 691.17 964.53 688.94 958.17 C 672.53 911.08 630.88 910.97 614.06 957.98 C 612.02 963.67 608.61 970.44 605.34 975.23 C 598.90 984.69 595.62 991.00 594.00 997.01 C 592.55 1002.39 590.32 1006.90 583.87 1017.50 C 581.19 1021.90 577.42 1030.00 575.49 1035.50 C 573.24 1041.90 570.04 1048.38 566.58 1053.50 C 560.17 1063.00 558.81 1065.64 555.36 1075.19 C 552.01 1084.49 550.00 1087.60 539.56 1099.62 C 525.45 1115.85 524.02 1121.71 531.53 1132.60 C 539.72 1144.50 550.53 1149.57 561.58 1146.70 Z M 296.92 1144.95 C 299.34 1143.85 303.47 1141.42 306.08 1139.54 C 319.40 1129.97 319.16 1130.00 383.80 1130.02 C 443.52 1130.05 442.95 1130.00 455.97 1136.11 C 469.96 1142.67 477.17 1141.28 487.25 1130.07 C 498.65 1117.39 498.60 1108.83 487.02 1090.91 C 484.84 1087.54 481.68 1081.12 480.00 1076.64 C 475.27 1064.10 473.85 1061.12 469.98 1055.59 C 464.79 1048.19 462.37 1043.46 459.42 1035.00 C 455.63 1024.12 453.14 1020.35 441.85 1008.30 C 429.60 995.24 424.95 988.34 421.55 978.19 C 418.78 969.94 417.14 966.88 409.77 956.14 C 407.17 952.35 403.66 945.49 401.96 940.89 C 391.90 913.61 374.78 916.20 344.61 949.56 C 333.34 962.02 331.21 965.39 326.14 978.75 C 323.75 985.06 320.29 991.63 316.57 996.90 C 312.83 1002.21 309.37 1008.78 306.88 1015.31 C 304.75 1020.89 301.58 1027.72 299.83 1030.48 C 294.14 1039.46 290.98 1045.72 288.60 1052.69 C 285.74 1061.10 282.76 1067.11 278.50 1073.00 C 274.38 1078.69 270.77 1085.95 268.53 1093.00 C 267.57 1096.03 264.97 1102.52 262.74 1107.44 C 252.25 1130.56 274.59 1155.08 296.92 1144.95 Z M 1312.67 1145.06 C 1317.97 1142.66 1332.32 1129.01 1335.83 1123.04 C 1340.19 1115.63 1339.70 1107.06 1334.25 1095.41 C 1328.84 1083.84 1328.83 1081.21 1334.19 1069.59 C 1344.26 1047.72 1337.74 1037.30 1312.50 1034.94 C 1294.09 1033.22 1288.72 1029.51 1282.95 1014.55 C 1281.34 1010.36 1277.11 1002.40 1273.56 996.87 C 1270.01 991.34 1266.12 983.81 1264.93 980.15 C 1257.06 956.06 1223.85 922.58 1207.98 922.73 C 1197.65 922.83 1193.40 926.76 1188.02 941.18 C 1186.21 946.04 1182.22 953.66 1178.93 958.52 C 1175.71 963.28 1171.69 970.85 1169.99 975.34 C 1168.30 979.83 1166.41 984.78 1165.79 986.34 C 1165.18 987.90 1162.96 991.85 1160.86 995.10 C 1155.71 1003.06 1153.56 1007.41 1150.16 1016.72 C 1146.26 1027.41 1144.03 1030.66 1131.25 1044.24 C 1118.62 1057.65 1116.36 1061.12 1111.68 1074.21 C 1109.57 1080.11 1106.04 1087.08 1102.27 1092.76 C 1090.96 1109.81 1091.71 1119.22 1105.37 1131.71 C 1115.68 1141.13 1121.22 1142.08 1133.01 1136.43 C 1146.57 1129.93 1145.75 1130.00 1206.16 1130.00 C 1270.84 1130.00 1270.60 1129.97 1283.92 1139.54 C 1294.46 1147.11 1304.09 1148.96 1312.67 1145.06 Z M 1152.18 900.07 C 1176.95 898.99 1178.93 898.24 1192.74 884.74 C 1213.36 864.56 1212.93 859.03 1188.78 834.63 C 1174.05 819.74 1172.27 817.11 1167.58 803.37 C 1165.74 797.94 1163.06 791.03 1161.64 788.01 C 1156.11 776.27 1157.44 770.05 1168.37 756.50 C 1187.88 732.33 1173.03 711.12 1145.00 723.12 C 1128.14 730.34 1116.68 725.76 1111.42 709.68 C 1096.18 663.16 1049.40 663.36 1034.49 710.00 C 1032.23 717.05 1030.09 721.27 1024.15 730.38 C 1021.50 734.43 1018.28 741.07 1017.00 745.12 C 1014.15 754.17 1011.42 759.77 1005.20 769.30 C 1002.56 773.34 998.91 780.80 997.09 785.89 C 994.98 791.79 991.50 798.55 987.47 804.58 C 984.00 809.78 980.45 815.93 979.60 818.26 C 978.74 820.59 977.13 825.01 976.01 828.09 C 974.89 831.16 972.17 836.56 969.95 840.09 C 958.71 857.99 956.19 873.27 962.18 887.19 C 967.65 899.91 968.03 899.97 1038.43 900.13 C 1070.37 900.20 1101.67 900.56 1108.00 900.92 C 1114.33 901.28 1122.42 901.43 1126.00 901.25 C 1129.58 901.08 1141.35 900.55 1152.18 900.07 Z M 614.00 898.93 C 632.02 894.82 637.41 867.64 624.38 846.50 C 617.83 835.87 615.20 830.67 612.19 822.37 C 610.41 817.48 606.64 810.45 602.73 804.73 C 598.74 798.88 595.37 792.57 594.00 788.35 C 591.31 780.10 587.68 772.66 582.20 764.19 C 579.96 760.72 576.91 754.20 575.42 749.69 C 572.05 739.45 570.34 736.04 563.63 726.19 C 560.67 721.84 557.25 715.22 555.99 711.41 C 540.16 663.32 495.90 661.46 480.09 708.23 C 476.57 718.65 476.12 719.55 469.41 729.50 C 466.05 734.49 462.57 741.46 460.19 748.00 C 457.72 754.76 454.19 761.78 450.27 767.72 C 446.88 772.85 443.20 779.95 441.97 783.72 C 437.82 796.41 433.59 803.00 421.17 816.12 C 407.92 830.12 406.16 832.68 402.99 842.50 C 401.75 846.35 398.99 853.60 396.87 858.62 C 391.24 871.89 391.73 876.48 399.84 886.70 C 404.39 892.43 410.93 896.75 417.93 898.63 C 423.87 900.23 607.05 900.51 614.00 898.93 Z M 902.20 898.87 C 915.87 895.95 922.59 878.19 917.46 858.52 C 915.31 850.26 913.15 847.17 899.91 833.42 C 886.89 819.89 884.42 816.18 880.36 804.04 C 878.80 799.39 875.83 792.86 873.75 789.54 C 868.86 781.72 863.71 771.15 860.90 763.13 C 859.67 759.63 855.86 752.56 852.42 747.42 C 848.99 742.28 844.74 734.35 842.98 729.79 C 838.97 719.39 837.02 715.58 831.61 707.50 C 829.23 703.95 825.85 697.25 824.10 692.61 C 815.19 669.01 800.85 666.70 780.94 685.65 C 759.68 705.90 752.37 715.44 747.11 729.87 C 745.50 734.27 741.48 742.06 738.18 747.18 C 734.49 752.90 730.92 760.09 728.95 765.79 C 727.17 770.90 724.21 777.54 722.36 780.54 C 720.51 783.54 717.50 788.44 715.66 791.42 C 713.82 794.41 711.51 799.47 710.52 802.67 C 707.11 813.69 703.31 819.67 692.64 830.86 C 665.59 859.21 663.54 893.02 688.51 898.87 C 694.57 900.28 895.55 900.29 902.20 898.87 Z M 1239.79 882.69 C 1240.49 882.14 1243.64 877.88 1246.79 873.21 C 1249.93 868.55 1254.18 862.25 1256.24 859.22 C 1262.46 850.06 1263.48 843.32 1259.75 836.02 C 1253.56 823.91 1237.24 824.00 1229.69 836.19 C 1218.89 853.62 1227.30 892.37 1239.79 882.69 Z M 1391.70 732.75 C 1396.38 727.61 1398.29 718.62 1395.59 714.50 C 1391.24 707.85 1372.99 713.44 1373.00 721.42 C 1373.02 730.92 1386.13 738.86 1391.70 732.75 Z M 1244.89 649.53 C 1252.02 642.73 1256.03 641.00 1264.73 641.00 C 1274.75 641.00 1277.40 639.22 1283.15 628.64 C 1305.01 588.35 1334.55 584.23 1353.03 618.90 C 1357.36 627.03 1359.78 629.09 1365.13 629.24 C 1376.58 629.56 1378.11 628.19 1379.96 616.00 C 1380.68 611.25 1382.59 605.24 1385.19 599.61 C 1391.12 586.70 1391.18 584.30 1385.77 572.36 C 1383.31 566.94 1380.23 559.41 1378.92 555.63 C 1372.23 536.29 1366.98 534.75 1314.50 536.84 C 1271.43 538.54 1269.27 539.78 1277.50 558.01 C 1286.00 576.82 1282.66 590.26 1267.05 600.18 C 1258.28 605.75 1252.25 603.71 1246.02 593.04 C 1229.41 564.60 1202.01 579.74 1208.99 613.50 C 1210.69 621.70 1229.07 652.65 1233.26 654.34 C 1236.87 655.80 1239.42 654.74 1244.89 649.53 Z M 770.50 648.70 C 784.61 642.34 786.93 629.38 776.54 614.93 C 772.24 608.93 768.79 602.10 766.50 595.00 C 763.24 584.92 759.99 579.98 748.87 568.19 C 734.71 553.19 732.42 549.81 727.79 537.04 C 725.68 531.24 721.99 523.53 719.58 519.91 C 713.95 511.45 710.83 505.17 708.07 496.79 C 706.78 492.87 703.02 485.79 699.03 479.79 C 694.61 473.13 691.12 466.43 689.14 460.80 C 679.75 434.03 659.54 418.76 643.66 426.45 C 638.94 428.74 636.05 432.99 631.71 444.01 C 629.87 448.68 625.88 456.42 622.84 461.20 C 619.80 465.99 615.82 474.06 614.01 479.13 C 612.03 484.67 608.58 491.48 605.36 496.21 C 598.78 505.86 596.40 510.47 593.37 519.37 C 589.91 529.55 587.17 533.61 574.93 546.68 C 562.55 559.89 559.19 564.99 555.43 576.24 C 554.00 580.50 550.55 587.48 547.76 591.74 C 529.89 619.04 534.42 646.59 557.33 650.01 C 569.61 651.84 766.21 650.63 770.50 648.70 Z M 1039.50 648.70 C 1057.35 640.65 1058.68 615.54 1042.52 591.94 C 1039.58 587.65 1035.94 580.54 1034.16 575.62 C 1030.43 565.32 1029.35 563.16 1023.35 553.88 C 1020.85 550.00 1017.13 542.24 1015.09 536.63 C 1010.58 524.19 1008.25 520.77 994.07 505.67 C 982.20 493.03 980.70 490.72 976.02 477.90 C 974.37 473.37 970.54 465.57 967.52 460.58 C 964.50 455.59 960.45 447.68 958.51 443.00 C 954.47 433.25 952.56 430.35 948.21 427.39 C 933.65 417.47 910.87 433.43 901.08 460.39 C 898.81 466.67 895.47 473.41 892.63 477.47 C 887.06 485.44 883.91 491.53 881.50 499.00 C 879.32 505.76 876.58 511.28 870.63 520.90 C 868.12 524.98 864.92 531.73 863.52 535.90 C 859.72 547.26 856.37 552.30 843.76 565.57 C 830.86 579.15 828.19 583.16 824.08 595.12 C 822.50 599.73 819.73 606.65 817.93 610.50 C 809.66 628.17 821.65 646.69 843.50 650.02 C 855.44 651.84 1035.22 650.63 1039.50 648.70 Z M 515.42 553.06 C 530.48 548.26 527.62 537.29 505.91 516.64 C 482.53 494.39 474.73 494.68 449.84 518.69 C 427.55 540.19 424.00 541.49 408.00 534.00 C 394.87 527.85 386.99 530.71 389.45 540.73 C 391.70 549.88 395.18 551.25 418.50 552.24 C 428.95 552.68 440.20 553.44 443.50 553.92 C 452.75 555.26 510.69 554.57 515.42 553.06 Z M 1131.47 532.45 C 1137.83 529.33 1139.32 525.70 1138.32 515.78 C 1137.86 511.22 1137.82 504.20 1138.23 500.17 C 1139.94 483.10 1133.92 480.06 1098.30 480.02 C 1070.03 479.99 1063.93 481.70 1059.25 490.97 C 1053.56 502.23 1059.01 511.39 1075.03 517.51 C 1078.85 518.97 1086.14 522.69 1091.24 525.79 C 1107.15 535.45 1120.78 537.71 1131.47 532.45 Z M 441.50 428.41 C 453.12 423.50 455.62 422.85 468.32 421.42 C 490.01 418.97 496.27 413.28 496.24 396.00 C 496.21 377.36 490.38 373.28 472.68 379.49 C 465.16 382.13 460.10 383.17 450.98 383.96 C 415.46 387.05 398.37 415.51 423.93 429.02 C 428.83 431.61 434.39 431.42 441.50 428.41 Z M 908.00 398.00 C 919.78 391.46 919.96 379.77 908.55 362.17 C 905.94 358.14 902.49 351.24 900.88 346.82 C 897.20 336.74 895.78 333.96 890.52 326.50 C 884.99 318.66 883.31 315.30 879.90 305.20 C 878.34 300.58 874.52 292.79 871.40 287.85 C 868.24 282.83 864.52 275.21 862.97 270.59 C 859.61 260.50 858.16 257.64 851.48 247.89 C 848.62 243.70 845.47 238.08 844.48 235.39 C 837.40 216.05 829.70 205.26 812.86 191.09 C 793.99 175.21 776.54 182.36 767.94 209.50 C 764.10 221.60 761.39 225.72 748.57 238.91 C 735.33 252.55 732.42 256.78 728.98 267.50 C 726.24 276.02 724.35 279.85 718.27 289.24 C 715.70 293.22 711.92 301.10 709.87 306.74 C 707.82 312.38 704.84 318.91 703.24 321.25 C 701.64 323.59 698.85 327.69 697.03 330.36 C 695.20 333.03 692.20 339.28 690.35 344.25 C 688.51 349.22 685.57 355.81 683.83 358.89 C 675.69 373.30 674.00 377.25 674.00 381.80 C 674.00 390.42 679.31 397.44 687.76 400.01 C 695.78 402.45 903.40 400.56 908.00 398.00 Z" fill="#000" fill-rule="evenodd" clip-path="url(#rim)"/></svg>
