<svg xmlns="http://www.w3.org/2000/svg" viewBox="0 0 1600 1600" width="200" height="200"><defs><clipPath id="rim"><circle cx="797.35" cy="799.61" r="712.53"/></clipPath></defs><circle cx="797.35" cy="799.61" r="723.38" fill="#f0ece3"/><path d="M 653.31 1522.99 C 645.60 1521.87 639.49 1518.47 634.71 1512.67 C 621.92 1497.13 620.24 1496.45 591.42 1495.19 C 569.25 1494.21 565.61 1493.26 555.14 1485.63 C 549.78 1481.72 542.24 1477.83 536.50 1476.00 C 530.76 1474.17 523.22 1470.28 517.87 1466.38 C 513.16 1462.95 504.44 1458.68 495.60 1455.49 C 492.90 1454.51 489.03 1452.21 486.99 1450.37 C 483.63 1447.33 482.20 1444.71 476.26 1430.70 C 472.12 1420.92 466.80 1419.06 440.00 1418.05 C 411.89 1416.98 410.04 1416.22 390.17 1397.55 C 376.48 1384.69 376.08 1384.43 362.58 1379.60 C 349.53 1374.94 347.30 1373.10 314.24 1339.75 C 298.29 1323.66 270.32 1295.65 252.08 1277.50 C 217.20 1242.80 214.41 1239.49 210.63 1228.40 C 206.03 1214.86 203.24 1210.72 187.46 1194.00 C 179.21 1185.25 176.65 1181.13 172.20 1169.44 C 170.12 1163.97 166.15 1156.12 163.36 1152.00 C 156.92 1142.46 155.60 1139.87 151.93 1129.47 C 150.28 1124.79 146.26 1116.62 142.99 1111.31 C 139.64 1105.89 135.90 1098.14 134.44 1093.62 C 131.29 1083.89 129.99 1081.25 124.51 1073.50 C 117.31 1063.30 115.87 1059.60 114.81 1048.58 C 113.24 1032.21 111.59 1026.51 105.89 1017.83 C 95.88 1002.59 95.75 1001.96 94.96 966.50 C 94.22 932.81 94.23 932.89 87.71 920.63 C 78.77 903.83 79.57 914.32 79.23 809.51 C 78.88 702.99 78.60 707.40 86.63 691.04 C 94.50 675.02 94.20 676.75 95.02 643.00 C 95.88 608.02 96.15 606.60 104.17 594.38 C 111.20 583.66 112.78 579.02 114.05 565.39 C 115.32 551.73 117.34 545.68 123.40 537.35 C 131.51 526.21 133.23 521.04 134.45 504.18 C 135.50 489.84 138.28 484.85 156.18 465.33 C 166.14 454.46 168.26 451.06 172.99 438.43 C 174.65 434.00 178.01 427.37 180.47 423.71 C 186.24 415.10 188.15 411.24 191.46 401.50 C 192.95 397.10 195.57 391.25 197.27 388.50 C 200.70 382.96 293.76 288.84 303.66 280.91 C 312.80 273.58 327.36 267.75 330.96 269.98 C 333.16 271.34 337.26 292.94 336.57 299.48 C 334.17 322.01 334.45 323.11 346.27 336.62 C 349.70 340.53 354.92 346.53 357.88 349.95 C 365.71 358.99 369.69 359.53 375.95 352.41 C 381.83 345.71 382.50 341.01 382.50 306.50 C 382.50 265.99 380.72 260.00 366.94 254.07 C 360.40 251.26 360.40 251.28 363.33 236.50 C 366.87 218.57 369.19 215.72 385.50 209.15 C 394.60 205.48 400.66 201.22 414.53 188.71 C 425.92 178.44 429.46 176.22 441.55 171.72 C 446.48 169.89 454.04 166.01 458.34 163.11 C 482.08 147.09 498.98 154.77 498.99 181.57 C 499.01 204.26 505.40 209.15 535.91 209.80 C 564.14 210.41 571.89 206.52 571.98 191.72 C 572.05 179.72 565.21 174.99 544.92 172.98 C 514.08 169.94 509.48 151.21 533.70 127.34 C 542.31 118.86 548.72 115.89 560.87 114.75 C 574.47 113.49 582.75 111.44 588.25 107.98 C 590.86 106.34 595.18 103.63 597.84 101.95 C 606.41 96.55 610.77 95.88 643.00 95.05 C 676.48 94.18 676.13 94.25 689.04 85.98 C 704.70 75.94 698.38 76.62 779.50 76.23 C 870.02 75.79 870.39 75.84 878.71 88.81 C 880.71 91.94 883.27 95.92 884.38 97.66 C 889.01 104.86 893.37 105.43 906.14 100.50 C 917.21 96.22 926.62 95.02 949.03 95.01 C 977.06 94.99 983.51 96.32 996.95 104.86 C 1007.40 111.50 1011.19 112.77 1024.18 114.00 C 1039.08 115.41 1043.76 116.98 1054.37 124.17 C 1059.26 127.48 1066.23 131.28 1069.87 132.62 C 1080.89 136.66 1084.14 138.21 1093.00 143.66 C 1097.67 146.53 1105.21 150.24 1109.75 151.91 C 1120.00 155.69 1122.63 157.03 1131.88 163.27 C 1136.25 166.21 1143.51 169.78 1149.68 172.02 C 1156.26 174.41 1163.50 178.03 1169.30 181.82 C 1174.81 185.42 1181.99 189.06 1187.20 190.87 C 1204.52 196.91 1196.35 189.39 1320.21 313.36 C 1393.32 386.54 1395.02 388.45 1399.55 402.31 C 1403.41 414.10 1405.99 418.03 1418.69 431.33 C 1431.57 444.82 1433.62 447.91 1438.06 460.50 C 1439.80 465.45 1443.19 472.54 1445.59 476.25 C 1454.18 489.53 1455.32 492.84 1456.91 509.17 C 1458.16 521.98 1459.96 527.07 1466.89 537.34 C 1469.79 541.63 1473.68 549.27 1475.55 554.32 C 1480.09 566.58 1483.96 570.32 1496.88 574.92 C 1508.36 579.00 1513.13 583.20 1515.47 591.25 C 1518.51 601.70 1517.20 997.08 1514.11 1003.36 C 1511.28 1009.10 1505.96 1012.86 1496.11 1016.10 C 1481.28 1020.98 1477.59 1026.07 1475.92 1043.94 C 1473.46 1070.32 1457.19 1088.99 1433.94 1092.13 C 1411.61 1095.14 1392.51 1092.21 1380.50 1083.93 C 1363.86 1072.45 1353.00 1072.98 1340.72 1085.85 C 1327.88 1099.32 1331.66 1107.17 1352.60 1110.54 C 1370.56 1113.43 1374.82 1116.64 1380.16 1131.30 C 1384.07 1142.01 1385.47 1144.16 1396.10 1155.72 C 1414.12 1175.32 1414.19 1181.82 1396.58 1201.00 C 1386.30 1212.20 1383.77 1216.20 1379.44 1228.16 C 1375.28 1239.66 1372.84 1243.14 1359.51 1256.64 C 1337.81 1278.61 1330.18 1279.65 1320.48 1261.96 C 1314.39 1250.86 1309.16 1247.81 1293.98 1246.53 C 1281.94 1245.52 1277.67 1244.43 1267.66 1239.83 C 1247.90 1230.75 1228.50 1239.72 1226.86 1258.71 C 1223.05 1302.82 1246.97 1324.97 1274.53 1302.84 C 1286.72 1293.06 1291.87 1291.71 1297.08 1296.92 C 1305.34 1305.19 1300.83 1313.83 1273.29 1342.50 C 1244.21 1372.77 1242.12 1374.46 1227.14 1379.91 C 1215.53 1384.12 1212.08 1386.39 1199.50 1398.10 C 1186.31 1410.37 1181.33 1413.67 1169.50 1418.01 C 1158.00 1422.22 1154.97 1424.18 1143.73 1434.65 C 1123.89 1453.13 1121.15 1454.59 1102.42 1456.58 C 1086.58 1458.26 1083.22 1459.38 1072.69 1466.46 C 1068.18 1469.48 1060.76 1473.33 1056.18 1474.99 C 1045.92 1478.74 1040.85 1481.27 1034.86 1485.63 C 1024.51 1493.16 1020.67 1494.20 999.59 1495.15 C 971.59 1496.40 968.46 1497.51 958.72 1509.73 C 952.15 1517.96 946.07 1521.57 936.39 1522.96 C 928.27 1524.14 661.33 1524.16 653.31 1522.99 Z M 886.50 1472.74 C 889.25 1471.80 895.10 1468.69 899.50 1465.83 C 913.50 1456.72 913.41 1456.74 947.00 1455.93 C 981.16 1455.11 982.75 1454.80 996.33 1446.27 C 1001.19 1443.22 1009.57 1439.01 1014.96 1436.92 C 1020.35 1434.83 1028.86 1430.43 1033.86 1427.15 C 1045.02 1419.82 1049.39 1418.33 1063.80 1417.00 C 1077.56 1415.73 1080.40 1414.79 1092.23 1407.65 C 1097.33 1404.58 1105.72 1400.50 1110.88 1398.58 C 1123.50 1393.91 1128.15 1390.58 1144.15 1374.70 C 1168.12 1350.91 1167.48 1352.64 1167.47 1312.50 C 1167.46 1278.32 1168.04 1282.30 1160.45 1264.08 C 1157.05 1255.91 1157.43 1252.13 1162.78 1240.39 C 1171.85 1220.51 1171.25 1207.51 1160.47 1190.85 C 1148.95 1173.04 1148.65 1166.87 1158.49 1150.50 C 1163.87 1141.56 1166.06 1137.00 1169.49 1127.60 C 1172.40 1119.62 1176.71 1115.76 1188.05 1110.98 C 1201.66 1105.24 1206.00 1099.56 1206.00 1087.53 C 1206.00 1076.76 1202.16 1074.49 1181.66 1073.14 C 1159.56 1071.69 1156.91 1070.00 1149.16 1052.42 C 1146.51 1046.41 1141.86 1037.87 1138.83 1033.44 C 1135.79 1029.00 1132.50 1023.15 1131.51 1020.44 C 1126.82 1007.60 1124.84 1003.37 1120.10 996.16 C 1117.12 991.61 1113.75 984.69 1111.98 979.45 C 1110.32 974.53 1107.39 966.85 1105.48 962.39 C 1096.43 941.30 1109.50 935.22 1132.45 949.85 C 1150.94 961.63 1169.37 960.65 1189.69 946.80 C 1193.65 944.11 1200.53 940.57 1204.99 938.95 C 1214.69 935.40 1220.47 932.48 1228.50 927.05 C 1231.80 924.82 1238.55 921.55 1243.50 919.77 C 1258.99 914.22 1262.23 909.50 1264.02 889.90 C 1265.22 876.66 1266.60 872.75 1274.00 861.50 C 1288.90 838.86 1284.63 810.01 1264.89 799.94 C 1254.45 794.62 1249.52 799.37 1246.66 817.53 C 1244.73 829.77 1243.31 833.32 1236.31 843.26 C 1233.31 847.52 1229.12 855.34 1227.00 860.63 C 1219.44 879.50 1208.06 884.12 1176.30 881.23 C 1151.76 879.00 1120.55 851.64 1111.03 824.00 C 1108.85 817.68 1105.45 811.21 1098.44 800.06 C 1096.56 797.07 1094.29 792.57 1093.39 790.06 C 1087.63 773.98 1084.55 769.66 1063.57 748.21 C 1051.61 735.99 1047.16 732.94 1035.51 729.00 C 995.21 715.38 994.67 684.53 1034.49 670.52 C 1053.91 663.69 1064.84 652.84 1071.85 633.41 C 1076.43 620.73 1078.35 617.77 1090.13 605.30 C 1103.29 591.37 1107.11 585.93 1110.37 576.50 C 1116.40 559.10 1122.21 551.62 1146.39 530.12 C 1158.53 519.33 1170.14 516.21 1194.00 517.31 C 1215.11 518.29 1220.06 521.30 1226.60 537.16 C 1228.73 542.30 1232.89 550.06 1235.85 554.40 C 1243.12 565.04 1244.60 568.73 1246.55 581.01 C 1249.50 599.58 1254.02 604.07 1264.59 598.96 C 1285.37 588.90 1289.19 559.36 1272.81 535.41 C 1269.02 529.88 1266.27 524.32 1264.10 517.80 C 1259.06 502.68 1255.27 497.68 1234.51 478.74 C 1220.93 466.35 1217.93 464.38 1206.00 460.00 C 1201.33 458.28 1193.45 454.25 1188.50 451.05 C 1168.74 438.28 1150.11 437.91 1131.69 449.94 C 1121.96 456.29 1119.95 457.31 1109.89 460.98 C 1105.32 462.65 1097.44 466.74 1092.39 470.07 C 1087.28 473.45 1079.24 477.60 1074.27 479.45 C 1057.91 485.54 1059.04 484.64 1023.50 519.88 C 998.80 544.38 994.68 548.06 988.53 551.08 C 960.97 564.61 949.47 546.80 967.13 517.95 C 979.88 497.12 980.23 460.85 967.86 441.86 C 961.02 431.34 959.18 425.90 958.01 412.75 C 956.61 396.85 955.79 394.52 947.38 382.48 C 939.07 370.59 938.71 368.96 938.22 340.44 C 937.56 302.64 939.13 296.63 953.18 282.84 C 968.48 267.83 980.04 266.18 995.68 276.77 C 1003.31 281.94 1008.40 284.49 1017.79 287.81 C 1022.04 289.31 1029.57 293.11 1034.53 296.26 C 1050.54 306.41 1062.57 305.72 1068.07 294.35 C 1075.50 279.01 1059.39 258.00 1033.20 248.88 C 1028.42 247.21 1020.61 243.40 1015.86 240.42 C 1000.91 231.02 1003.98 231.50 958.50 231.50 C 912.15 231.50 912.95 231.36 899.70 241.92 C 880.47 257.25 867.31 274.14 862.05 290.23 C 860.77 294.15 857.16 300.99 853.43 306.57 C 844.86 319.38 844.03 322.65 843.14 347.21 C 842.31 369.99 841.73 372.14 832.93 385.10 C 824.52 397.49 824.71 395.82 824.03 462.00 C 823.36 527.29 823.67 524.46 816.10 534.48 C 804.04 550.46 789.98 551.62 777.39 537.70 C 767.62 526.88 766.05 519.60 766.02 484.84 C 766.00 457.06 765.28 453.57 757.19 441.87 C 747.16 427.35 747.64 429.97 746.89 385.00 C 746.15 340.18 746.19 340.49 738.12 328.17 C 730.34 316.29 729.02 312.52 727.51 297.69 C 724.86 271.78 713.43 256.99 690.31 249.53 C 685.80 248.08 677.92 244.36 672.81 241.28 C 654.20 230.06 650.98 229.55 604.50 230.46 C 563.12 231.27 565.61 230.39 543.98 251.89 C 523.57 272.19 518.99 279.92 521.20 290.35 C 524.11 304.14 538.02 307.13 553.69 297.34 C 561.29 292.59 566.42 290.12 575.98 286.56 C 580.68 284.81 588.34 280.89 593.01 277.84 C 613.70 264.33 635.11 271.34 647.32 295.61 C 655.72 312.31 653.46 348.62 643.11 363.12 C 635.57 373.69 633.74 379.33 632.56 395.61 C 631.76 406.69 629.93 412.13 623.83 421.50 C 614.27 436.19 614.58 434.44 614.20 475.66 C 613.76 523.63 614.29 526.13 628.10 541.50 C 643.78 558.94 645.37 569.15 632.77 571.52 C 622.63 573.42 618.22 570.04 574.11 526.56 C 533.55 486.59 531.49 484.91 516.61 479.61 C 510.31 477.36 503.40 473.89 497.57 470.05 C 492.54 466.73 484.68 462.65 480.11 460.98 C 470.07 457.32 468.03 456.29 458.45 450.03 C 439.84 437.88 421.26 438.14 402.00 450.83 C 397.32 453.91 389.03 458.12 383.56 460.20 C 369.38 465.60 368.28 466.47 339.30 495.37 C 305.71 528.87 307.50 525.55 307.50 554.50 C 307.50 579.43 308.31 582.89 316.12 591.44 C 330.28 606.93 340.01 603.88 343.54 582.82 C 345.79 569.41 347.45 565.03 354.15 554.94 C 357.42 550.00 361.24 542.93 362.63 539.23 C 369.45 521.08 374.13 518.13 397.50 517.29 C 431.82 516.05 450.26 527.04 459.95 554.52 C 464.36 567.03 466.50 570.29 478.93 583.38 C 491.09 596.19 493.69 600.07 497.85 611.59 C 502.69 624.99 504.31 627.19 526.06 649.78 C 549.66 674.29 557.34 681.19 569.28 688.60 C 582.47 696.78 583.35 701.39 572.93 707.80 C 557.60 717.24 548.85 724.98 523.63 751.43 C 504.28 771.72 501.89 775.09 497.33 788.50 C 494.19 797.74 490.04 803.79 478.41 816.10 C 467.15 828.01 463.86 832.86 460.91 841.89 C 450.94 872.42 429.64 884.45 391.37 881.16 C 374.15 879.68 368.80 875.86 363.12 861.00 C 361.39 856.48 357.43 848.90 354.31 844.17 C 347.48 833.80 345.57 829.02 344.05 818.50 C 340.79 796.08 331.66 791.64 317.65 805.65 C 308.46 814.85 306.64 822.04 307.15 847.13 C 307.65 872.11 306.82 870.67 340.32 904.35 C 368.37 932.55 370.40 934.11 385.41 939.01 C 389.27 940.27 395.80 943.64 400.19 946.63 C 415.07 956.76 424.10 959.27 438.21 957.17 C 445.28 956.12 446.88 955.44 465.50 945.55 C 483.40 936.04 492.51 944.94 484.62 964.24 C 482.77 968.78 480.27 975.48 479.08 979.13 C 477.89 982.77 475.36 988.28 473.46 991.38 C 471.56 994.47 468.44 999.54 466.53 1002.65 C 464.62 1005.75 462.31 1010.37 461.40 1012.90 C 458.28 1021.55 454.32 1029.50 450.18 1035.39 C 441.65 1047.51 441.69 1047.27 440.99 1093.00 C 440.28 1138.88 440.72 1136.19 431.54 1150.65 C 419.31 1169.94 417.29 1235.62 428.20 1259.39 C 434.41 1272.93 434.37 1274.62 427.45 1291.00 C 423.37 1300.64 423.70 1306.36 429.02 1318.13 C 433.25 1327.50 433.25 1327.50 432.45 1336.50 C 431.11 1351.81 431.37 1355.25 434.25 1360.17 C 439.34 1368.85 448.49 1375.46 461.00 1379.50 C 470.75 1382.65 474.28 1385.06 486.50 1396.95 C 503.56 1413.55 506.98 1415.31 525.35 1417.01 C 539.88 1418.36 545.41 1420.03 553.69 1425.60 C 567.05 1434.60 569.66 1435.52 585.71 1436.93 C 598.47 1438.05 603.84 1439.86 614.07 1446.47 C 625.77 1454.04 629.72 1455.05 650.00 1455.63 C 674.46 1456.32 677.79 1457.20 691.78 1466.58 C 698.09 1470.81 704.56 1473.35 711.50 1474.32 C 722.11 1475.81 881.75 1474.36 886.50 1472.74 Z M 296.57 1162.55 C 300.57 1159.93 302.99 1155.08 303.00 1149.70 C 303.01 1129.62 275.14 1127.49 271.46 1147.29 C 268.99 1160.65 284.80 1170.26 296.57 1162.55 Z M 232.91 830.09 C 237.63 827.94 245.10 824.71 249.50 822.93 C 258.86 819.12 263.94 814.47 266.53 807.32 C 271.64 793.23 273.66 790.06 286.48 776.09 C 305.15 755.75 298.02 738.65 266.39 727.96 C 261.65 726.36 254.20 722.76 249.82 719.95 C 229.15 706.69 218.36 709.43 210.53 729.92 C 209.10 733.67 206.29 739.39 204.30 742.62 C 197.64 753.45 195.16 758.44 191.67 768.00 C 189.77 773.23 186.81 780.42 185.11 784.00 C 179.10 796.57 181.49 803.47 197.38 819.35 C 212.82 834.80 218.68 836.57 232.91 830.09 Z M 280.00 503.00 C 283.03 499.97 282.73 493.02 279.39 489.05 C 275.33 484.23 273.40 483.65 259.46 483.05 C 246.42 482.49 246.42 482.49 237.46 477.34 C 229.17 472.57 226.37 471.60 221.75 471.89 C 215.85 472.26 213.88 482.33 218.61 487.95 C 222.69 492.80 224.64 493.39 238.50 494.00 C 251.50 494.58 251.50 494.58 261.00 499.76 C 271.64 505.57 276.58 506.42 280.00 503.00 Z M 1128.50 333.11 C 1150.48 322.98 1153.56 293.97 1133.01 290.50 C 1118.72 288.09 1098.00 307.39 1101.97 319.42 C 1106.02 331.68 1118.09 337.91 1128.50 333.11 Z M 335.55 266.22 C 332.72 263.39 338.84 255.66 345.28 253.92 C 356.62 250.87 358.51 257.64 347.84 263.08 C 343.72 265.18 336.39 267.05 335.55 266.22 Z M 728.08 215.96 C 755.86 201.79 744.91 166.65 709.21 155.34 C 702.89 153.34 697.89 150.80 691.01 146.12 C 672.02 133.20 656.86 135.39 654.46 151.41 C 652.64 163.53 660.47 169.74 679.33 171.13 C 701.69 172.78 707.17 177.49 709.93 197.44 C 712.52 216.09 717.62 221.30 728.08 215.96 Z" fill="#000" fill-rule="evenodd" clip-path="url(#rim)"/></svg>
