<svg xmlns="http://www.w3.org/2000/svg" viewBox="0 0 800 800" width="200" height="200"><circle cx="399.00" cy="399.93" r="361.95" fill="#f0ece3"/><path d="M 318.02 761.03 C 317.10 760.45 316.33 757.87 316.02 754.30 L 315.50 748.50 L 298.00 748.00 C 288.38 747.73 279.94 747.14 279.25 746.69 C 278.56 746.25 278.00 744.98 278.00 743.88 C 278.00 739.32 276.26 738.00 270.21 737.99 C 262.17 737.97 260.07 737.22 259.43 734.13 C 258.33 728.87 257.75 728.53 248.90 728.00 L 240.50 727.50 L 240.20 719.55 C 240.04 715.17 239.42 711.01 238.83 710.30 C 238.03 709.33 233.52 709.00 221.07 709.00 C 202.81 709.00 201.34 708.60 200.81 703.50 C 200.55 700.94 200.01 700.43 197.10 700.00 C 193.61 699.49 192.87 698.65 191.35 693.50 C 190.47 690.54 190.34 690.49 182.31 690.00 C 177.83 689.73 173.83 689.17 173.42 688.76 C 173.02 688.35 172.42 686.33 172.08 684.26 C 171.56 680.99 171.08 680.46 168.49 680.16 C 164.46 679.70 163.00 678.31 163.00 674.90 C 163.00 672.59 162.47 671.92 160.25 671.43 C 154.57 670.16 153.99 669.80 153.44 667.18 C 152.54 662.88 151.47 661.52 148.72 661.19 C 145.53 660.81 144.27 659.35 143.84 655.53 C 143.54 652.91 142.99 652.45 139.25 651.72 C 135.75 651.03 134.91 650.42 134.44 648.19 C 133.52 643.79 132.48 642.58 129.03 641.87 C 125.25 641.10 124.04 639.62 124.02 635.77 C 124.00 633.60 123.43 632.92 121.25 632.46 C 116.79 631.52 115.52 630.47 115.16 627.40 C 114.79 624.22 113.54 623.05 110.50 623.00 C 106.34 622.94 105.52 621.41 105.00 612.79 L 104.50 604.50 L 101.50 604.16 C 97.51 603.71 96.00 602.31 96.00 599.08 C 96.00 595.82 94.34 594.00 91.37 594.00 C 87.20 594.00 85.70 591.26 86.29 584.72 C 86.74 579.80 86.51 578.51 84.91 576.91 C 83.86 575.86 81.89 575.00 80.54 575.00 C 77.03 575.00 75.65 571.78 76.27 565.01 C 76.89 558.17 75.86 556.00 72.01 556.00 C 70.42 556.00 68.75 555.44 68.31 554.75 C 67.86 554.06 67.28 549.91 67.00 545.52 C 66.51 537.68 66.45 537.52 63.50 536.65 C 57.37 534.84 57.54 535.23 57.00 521.39 L 56.50 508.50 L 53.50 508.16 C 48.01 507.54 48.00 507.50 47.98 484.13 C 47.98 472.23 47.64 462.04 47.23 461.49 C 46.83 460.93 45.15 460.02 43.50 459.46 L 40.50 458.45 L 40.50 402.58 C 40.50 341.53 40.01 346.95 45.75 344.14 C 47.32 343.38 47.56 340.88 48.05 320.39 C 48.35 307.80 48.69 297.39 48.80 297.25 C 48.91 297.11 49.93 297.00 51.07 297.00 C 52.20 297.00 54.00 296.53 55.07 295.96 C 56.81 295.03 57.00 293.77 57.00 283.04 C 57.00 269.82 57.74 268.00 63.10 268.00 C 64.89 268.00 66.31 267.37 66.67 266.41 C 67.01 265.53 67.33 259.62 67.39 253.27 C 67.51 240.87 67.56 240.74 73.25 239.54 C 75.38 239.09 76.00 238.39 76.00 236.42 C 76.00 232.27 77.76 230.00 80.98 230.00 C 85.33 230.00 86.91 227.06 86.28 220.12 C 85.70 213.72 87.24 211.00 91.45 211.00 C 95.01 211.00 95.88 209.06 96.20 200.45 L 96.50 192.50 L 99.90 192.00 C 103.45 191.48 104.50 190.30 105.46 185.77 C 105.87 183.81 106.81 182.87 108.77 182.46 C 113.20 181.52 114.42 180.49 115.11 177.10 C 115.92 173.13 116.14 172.92 120.17 172.10 C 122.84 171.55 123.55 170.84 124.10 168.17 C 124.92 164.14 125.13 163.92 129.10 163.11 C 130.87 162.75 132.62 161.79 132.99 160.98 C 136.11 154.24 136.72 153.48 139.21 153.19 C 142.48 152.81 143.72 151.38 144.16 147.50 C 144.44 145.00 145.00 144.44 147.50 144.16 C 151.54 143.71 153.00 142.31 153.00 138.91 C 153.00 135.60 155.71 133.72 159.80 134.19 C 162.08 134.45 162.55 135.04 162.83 138.00 C 163.26 142.50 164.42 143.81 168.32 144.19 C 171.20 144.47 171.53 144.85 171.81 148.22 C 172.09 151.58 171.85 151.99 169.31 152.55 C 167.76 152.89 165.95 153.34 165.28 153.54 C 163.78 154.00 162.57 158.44 163.37 160.52 C 163.98 162.10 164.62 162.42 169.25 163.44 C 171.43 163.91 172.00 164.61 172.02 166.77 C 172.04 170.54 172.89 171.44 177.50 172.54 C 181.21 173.43 181.54 173.79 182.00 177.50 C 182.46 181.22 182.75 181.52 185.96 181.83 C 191.85 182.39 192.00 181.66 192.00 152.88 C 192.00 124.26 191.85 123.59 185.62 124.20 C 182.81 124.47 182.47 124.87 182.19 128.17 C 181.76 133.41 180.36 134.13 171.34 133.79 L 163.50 133.50 L 163.20 130.38 C 162.70 125.29 164.90 124.00 174.07 124.00 L 182.00 124.00 L 182.00 115.54 C 182.00 105.49 182.48 105.00 192.23 105.00 C 199.29 105.00 201.00 103.99 201.00 99.82 C 201.00 97.59 201.55 96.92 203.75 96.45 C 209.27 95.27 211.00 94.11 211.00 91.59 C 211.00 87.35 213.49 85.91 220.38 86.17 C 223.77 86.29 227.09 86.06 227.75 85.66 C 228.41 85.25 229.41 83.19 229.98 81.07 C 231.15 76.72 232.61 76.03 240.68 76.01 C 248.55 75.99 249.00 76.83 249.00 91.46 C 249.00 101.78 249.26 103.88 250.58 104.39 C 253.69 105.59 285.53 105.07 286.80 103.80 C 287.50 103.10 288.00 99.77 288.00 95.87 C 288.00 86.30 287.55 86.00 273.13 86.00 C 265.34 86.00 261.00 85.60 260.20 84.80 C 258.62 83.22 258.59 69.37 260.16 68.40 C 260.80 68.00 262.71 67.40 264.40 67.05 C 267.03 66.51 267.57 65.87 268.10 62.61 C 268.44 60.51 269.34 58.40 270.11 57.91 C 270.87 57.43 276.70 57.02 283.05 57.02 C 295.53 57.00 297.00 56.46 297.00 51.91 C 297.00 50.37 297.68 48.95 298.58 48.61 C 299.45 48.27 309.79 48.00 321.55 48.00 C 341.66 48.00 342.99 47.89 343.96 46.07 C 344.53 45.00 345.00 43.19 345.00 42.04 C 345.00 40.70 345.95 39.59 347.65 38.94 C 349.31 38.31 366.66 37.97 393.73 38.04 C 436.10 38.15 437.20 38.20 439.20 40.20 C 440.95 41.95 441.17 43.08 440.68 47.80 C 440.37 50.84 440.55 54.16 441.09 55.17 C 442.80 58.36 450.00 57.28 450.00 53.83 C 450.00 52.75 450.47 51.00 451.04 49.93 C 452.01 48.11 453.34 48.00 473.45 48.00 C 485.21 48.00 495.55 48.27 496.42 48.61 C 497.29 48.94 498.00 50.10 498.00 51.17 C 498.00 52.25 498.47 54.00 499.04 55.07 C 499.97 56.81 501.22 57.00 511.60 57.00 C 523.86 57.00 527.00 57.84 527.00 61.10 C 527.00 65.85 528.67 67.00 535.60 67.00 C 543.19 67.00 546.00 68.17 546.00 71.34 C 546.00 74.97 547.93 76.00 554.77 76.00 C 562.57 76.00 565.00 77.15 565.00 80.84 C 565.00 85.09 566.68 86.00 574.50 86.00 C 582.25 86.00 584.00 86.92 584.00 91.00 C 584.00 95.15 585.72 96.00 594.08 96.00 C 602.44 96.00 603.61 96.64 604.16 101.46 C 604.44 103.91 605.07 104.55 607.80 105.10 C 611.87 105.92 612.07 106.13 612.89 110.10 C 613.57 113.42 614.44 114.16 619.50 115.65 C 621.93 116.37 622.60 117.21 623.00 120.02 C 623.43 123.01 623.93 123.55 626.50 123.84 C 630.49 124.29 632.00 125.69 632.00 128.92 C 632.00 132.12 633.64 133.99 636.45 134.02 C 639.64 134.04 641.14 135.45 641.89 139.11 C 642.42 141.71 643.25 142.68 645.54 143.36 C 650.65 144.87 651.49 145.61 652.00 149.10 C 652.44 152.09 652.92 152.56 655.98 153.00 C 659.44 153.50 659.80 153.99 661.61 160.77 C 661.80 161.47 662.53 162.20 663.23 162.39 C 670.01 164.20 670.50 164.56 671.00 168.02 C 671.43 171.01 671.93 171.55 674.50 171.84 C 678.49 172.29 680.00 173.69 680.00 176.92 C 680.00 180.12 681.64 181.99 684.45 182.02 C 687.64 182.04 689.14 183.45 689.89 187.11 C 690.42 189.71 691.25 190.68 693.54 191.36 C 699.39 193.09 699.47 193.22 700.00 202.10 L 700.50 210.50 L 703.98 211.00 C 707.40 211.49 707.96 212.24 709.55 218.61 C 709.70 219.22 711.66 220.01 713.90 220.37 C 718.54 221.11 718.84 221.76 719.24 231.98 C 719.52 238.94 719.23 238.61 726.75 240.61 C 727.66 240.85 728.00 244.17 728.00 252.89 C 728.00 259.46 728.27 265.55 728.61 266.42 C 728.96 267.34 730.39 268.00 732.04 268.00 C 736.77 268.00 738.09 270.29 737.89 278.16 C 737.78 282.42 738.18 285.58 738.90 286.31 C 739.56 286.96 744.01 287.73 748.80 288.00 L 757.50 288.50 L 757.76 397.00 C 758.00 498.12 757.90 505.59 756.32 506.75 C 755.30 507.50 751.48 508.00 746.78 508.00 C 740.29 508.00 738.82 508.30 738.28 509.72 C 737.92 510.66 737.59 516.57 737.56 522.85 C 737.50 535.15 737.64 534.84 731.51 536.65 C 729.69 537.19 728.40 538.32 728.22 539.52 C 727.16 546.58 728.83 546.00 709.68 546.00 C 691.59 546.00 690.02 545.64 689.98 541.55 C 689.96 537.64 688.38 536.62 681.70 536.19 C 673.92 535.70 671.00 536.97 671.00 540.84 C 671.00 544.20 669.36 546.00 666.30 546.00 C 663.98 546.00 660.00 549.16 660.00 551.00 C 660.00 551.55 660.90 552.90 662.00 554.00 C 663.77 555.77 665.33 556.00 675.80 556.00 C 683.64 556.00 688.00 556.40 688.80 557.20 C 689.51 557.91 690.00 561.31 690.00 565.50 C 690.00 573.07 690.94 575.00 694.63 575.00 C 697.56 575.00 700.00 577.54 700.00 580.60 C 700.00 583.10 700.37 583.37 705.23 584.43 C 710.26 585.53 709.75 594.00 704.66 594.00 C 701.85 594.00 700.00 595.76 699.98 598.45 C 699.96 601.78 698.45 603.24 694.35 603.90 L 690.50 604.53 L 690.00 612.80 C 689.48 621.47 688.66 622.95 684.37 622.98 C 681.67 623.00 680.27 624.71 679.84 628.50 C 679.55 631.06 679.00 631.57 676.10 632.00 C 672.55 632.52 671.50 633.70 670.54 638.23 C 669.87 641.42 666.31 642.77 663.09 641.05 C 661.26 640.07 661.00 639.01 661.00 632.66 C 661.00 628.35 660.51 624.91 659.80 624.20 C 659.00 623.40 654.53 623.00 646.28 623.00 C 632.68 623.00 633.16 623.24 631.53 615.69 C 631.01 613.23 630.53 612.92 627.73 613.19 C 625.16 613.44 624.36 614.09 623.65 616.50 C 622.07 621.87 621.43 622.49 617.12 622.81 L 612.94 623.12 L 613.22 636.81 L 613.50 650.50 L 618.00 651.58 C 622.07 652.56 622.55 652.98 623.00 656.06 C 623.89 662.10 631.97 662.61 632.02 656.63 C 632.04 653.41 633.14 652.36 637.24 651.60 C 640.26 651.05 641.09 650.39 641.55 648.21 C 642.47 643.80 643.54 642.52 646.55 642.16 C 650.64 641.68 652.00 644.15 652.00 652.07 C 652.00 659.35 651.25 660.62 646.60 661.16 C 643.54 661.52 642.48 662.79 641.54 667.23 C 641.13 669.19 640.19 670.13 638.23 670.54 C 633.70 671.50 632.52 672.55 632.00 676.10 C 631.57 679.00 631.06 679.55 628.50 679.84 C 624.47 680.29 623.00 681.69 623.00 685.06 C 623.00 688.83 621.88 689.35 612.51 689.97 L 604.53 690.50 L 603.90 694.35 C 603.24 698.45 601.78 699.96 598.45 699.98 C 595.76 700.00 594.00 701.85 594.00 704.66 C 594.00 707.83 591.19 709.00 583.62 709.00 C 576.70 709.00 576.08 709.39 575.05 714.40 C 574.58 716.70 573.67 717.70 571.46 718.36 C 566.49 719.83 565.51 720.60 565.19 723.28 C 565.02 724.69 564.32 726.32 563.63 726.89 C 562.94 727.47 556.79 728.06 549.96 728.22 L 537.54 728.50 L 536.66 731.50 C 534.92 737.36 534.73 737.48 526.94 737.80 C 518.63 738.13 517.00 739.01 517.00 743.15 C 517.00 747.30 514.81 747.80 496.52 747.86 C 478.98 747.92 478.58 748.07 479.45 754.08 C 479.78 756.32 479.45 758.38 478.57 759.58 C 477.20 761.44 474.77 761.51 398.33 761.74 C 350.30 761.88 318.92 761.61 318.02 761.03 Z M 447.31 737.07 C 449.02 736.42 449.95 735.10 450.40 732.67 C 450.76 730.76 451.75 728.92 452.61 728.60 C 453.46 728.27 463.31 728.00 474.50 728.00 C 485.69 728.00 495.55 727.73 496.42 727.39 C 497.32 727.05 498.00 725.63 498.00 724.09 C 498.00 719.96 499.73 719.00 507.13 719.00 C 514.46 719.00 517.00 717.62 517.00 713.63 C 517.00 709.59 518.75 709.00 530.77 709.00 C 543.07 709.00 546.00 708.17 546.00 704.66 C 546.00 700.98 547.92 700.00 555.13 700.00 C 562.53 700.00 565.00 698.62 565.00 694.49 C 565.00 691.80 566.04 690.93 571.00 689.47 C 573.85 688.64 574.56 687.89 574.84 685.47 C 575.29 681.47 576.55 680.17 580.32 679.81 L 583.50 679.50 L 583.77 656.27 L 584.04 633.05 L 581.27 632.46 C 576.91 631.55 575.52 630.48 575.20 627.81 C 574.84 624.82 576.47 623.29 580.50 622.84 L 583.50 622.50 L 583.78 609.64 C 584.08 595.88 583.56 594.00 579.41 594.00 C 576.18 594.00 575.00 591.24 575.00 583.69 C 575.00 576.63 575.78 575.37 580.50 574.84 L 583.50 574.50 L 583.80 566.55 C 583.96 562.17 584.58 558.01 585.17 557.30 C 585.88 556.44 588.86 556.00 594.00 556.00 C 599.44 556.00 602.10 555.58 602.92 554.60 C 603.66 553.71 603.98 550.14 603.79 544.85 L 603.50 536.50 L 589.76 536.22 C 574.02 535.90 575.22 536.80 574.76 525.02 C 574.51 518.77 574.39 518.51 571.50 517.65 C 565.63 515.92 565.52 515.74 565.22 507.90 C 564.92 499.96 563.75 498.00 559.33 498.00 C 556.65 498.00 556.13 496.40 555.76 487.02 C 555.51 480.77 555.39 480.51 552.50 479.65 C 547.61 478.21 546.52 477.42 546.17 475.07 C 545.56 470.96 548.61 469.00 555.58 469.00 C 562.44 469.00 565.00 470.46 565.00 474.37 C 565.00 478.45 566.71 479.00 579.50 479.00 C 592.29 479.00 594.00 478.45 594.00 474.37 C 594.00 470.38 596.54 469.00 603.87 469.00 C 611.03 469.00 613.00 468.01 613.00 464.42 C 613.00 461.00 615.02 460.11 623.55 459.80 L 631.50 459.50 L 631.75 448.00 C 632.07 433.04 632.26 432.32 636.25 431.46 C 641.79 430.28 642.00 429.76 642.00 417.08 C 642.00 404.73 641.43 403.00 637.37 403.00 C 634.28 403.00 632.00 400.41 632.00 396.91 C 632.00 392.81 627.94 390.84 625.00 393.50 C 623.21 395.12 623.00 396.57 623.00 407.10 C 623.00 419.84 623.04 419.75 617.00 421.53 L 613.50 422.56 L 613.20 430.53 C 613.04 434.91 612.52 438.88 612.05 439.35 C 611.12 440.28 577.23 440.56 576.32 439.65 C 576.02 439.35 575.47 437.63 575.10 435.82 C 574.54 433.07 573.80 432.37 570.53 431.45 C 566.43 430.30 565.49 429.25 564.54 424.77 C 564.13 422.82 563.18 421.86 561.23 421.43 C 559.73 421.10 557.94 420.66 557.25 420.45 C 556.40 420.19 556.00 417.71 556.00 412.65 C 556.00 404.74 555.44 403.65 550.73 402.47 C 546.98 401.53 546.58 400.63 546.00 392.03 L 545.50 384.56 L 541.50 383.44 C 537.58 382.35 537.09 381.70 535.41 375.28 C 535.23 374.61 533.83 373.76 532.29 373.39 C 528.25 372.43 527.00 371.13 527.00 367.90 C 527.00 364.54 525.87 364.13 515.51 363.75 C 509.39 363.53 508.48 363.25 508.22 361.50 C 507.38 355.86 506.91 355.00 504.70 355.00 C 501.04 355.00 497.84 352.18 498.19 349.25 C 498.51 346.59 499.50 345.82 504.50 344.35 C 506.84 343.66 507.57 342.80 507.83 340.48 C 508.30 336.16 509.35 335.55 515.89 335.81 C 523.19 336.10 527.00 334.78 527.00 331.96 C 527.00 328.57 528.90 326.00 531.41 326.00 C 534.96 326.00 535.88 324.10 536.20 316.06 C 536.52 308.30 536.92 307.66 542.15 306.56 C 544.21 306.13 545.11 305.06 546.15 301.76 C 547.30 298.14 547.95 297.45 550.50 297.16 C 555.26 296.62 556.00 295.39 556.00 287.96 C 556.00 279.60 556.57 278.00 559.54 278.00 C 562.55 278.00 565.00 275.50 565.00 272.41 C 565.00 269.89 566.73 268.73 572.25 267.55 C 574.45 267.08 575.00 266.41 575.00 264.18 C 575.00 262.65 575.54 260.86 576.20 260.20 C 577.97 258.43 610.36 258.52 611.83 260.29 C 612.42 261.01 613.04 264.93 613.20 269.02 L 613.50 276.44 L 617.00 277.47 C 623.03 279.24 623.00 279.18 623.00 291.62 C 623.00 304.13 623.82 307.00 627.41 307.00 C 630.30 307.00 631.72 305.39 632.16 301.60 C 632.51 298.60 633.41 297.85 638.50 296.34 L 641.50 295.45 L 641.50 282.50 L 641.50 269.55 L 638.50 268.66 C 632.60 266.90 632.53 266.79 632.00 257.90 L 631.50 249.50 L 628.50 249.16 C 624.49 248.71 623.18 247.46 622.81 243.75 C 622.53 240.99 622.01 240.54 618.03 239.58 C 614.18 238.65 613.48 238.08 612.94 235.41 C 611.92 230.36 611.33 230.00 604.01 230.00 C 596.45 230.00 594.00 228.64 594.00 224.46 C 594.00 220.86 591.20 220.00 579.50 220.00 C 567.46 220.00 565.00 220.82 565.00 224.84 C 565.00 229.04 563.30 230.00 555.87 230.00 C 548.46 230.00 546.00 231.38 546.00 235.54 C 546.00 238.82 543.29 240.00 535.77 240.00 C 529.02 240.00 527.00 241.04 527.00 244.50 C 527.00 247.37 525.14 249.00 521.86 249.00 C 518.81 249.00 517.97 249.93 517.07 254.32 C 516.42 257.50 515.15 258.53 510.75 259.46 C 508.67 259.90 508.00 260.63 508.00 262.44 C 508.00 266.54 506.94 268.00 503.96 268.00 C 500.49 268.00 498.00 270.34 498.00 273.60 C 498.00 276.78 494.82 278.00 486.54 278.00 C 479.19 278.00 479.00 277.77 479.00 268.85 C 479.00 261.83 480.23 259.01 483.29 258.98 C 487.98 258.95 488.13 258.36 488.15 239.51 C 488.17 220.69 488.02 220.05 483.37 220.02 C 479.73 219.99 479.08 217.86 478.78 204.97 L 478.50 192.56 L 474.25 191.72 C 471.09 191.10 469.87 190.33 469.47 188.69 C 469.18 187.49 469.06 177.32 469.22 166.11 C 469.52 144.00 469.19 145.21 475.44 143.37 C 477.66 142.71 478.59 141.64 479.28 139.00 C 480.44 134.50 481.30 134.03 488.32 134.02 C 495.17 134.00 497.99 135.24 498.02 138.29 C 498.05 142.66 499.49 143.47 508.21 144.00 L 516.50 144.50 L 516.81 147.68 C 517.26 152.39 518.83 153.12 527.66 152.79 L 535.50 152.50 L 535.79 144.66 C 536.11 136.11 535.24 134.00 531.41 134.00 C 528.92 134.00 527.00 131.44 527.00 128.12 C 527.00 125.22 525.45 124.62 516.50 124.03 L 508.50 123.50 L 508.16 120.50 C 507.53 114.94 507.86 115.00 479.63 115.02 C 465.26 115.02 452.89 115.42 452.15 115.89 C 451.41 116.36 450.49 118.25 450.11 120.10 C 449.51 123.05 448.94 123.55 445.35 124.26 C 441.57 125.01 441.21 125.37 440.39 129.24 C 439.61 132.90 439.09 133.50 436.20 134.09 C 434.38 134.46 432.58 135.08 432.20 135.47 C 431.81 135.85 431.47 139.54 431.42 143.67 C 431.34 151.59 430.60 152.95 426.31 152.98 C 421.80 153.02 421.00 156.14 421.00 173.60 C 421.00 191.07 420.86 191.56 415.50 192.16 L 412.50 192.50 L 412.00 230.00 L 411.50 267.50 L 408.50 267.84 C 404.63 268.28 403.00 269.68 403.00 272.57 C 403.00 275.03 399.66 278.00 396.90 278.00 C 394.67 278.00 392.88 275.67 392.09 271.74 C 391.55 269.08 390.90 268.44 388.46 268.16 C 386.83 267.98 384.97 267.38 384.31 266.84 C 383.47 266.14 383.10 259.50 383.04 243.72 C 382.95 220.05 382.95 220.04 377.79 220.02 C 376.15 220.01 374.66 219.24 374.05 218.09 C 373.41 216.90 373.13 206.79 373.30 191.06 C 373.54 168.95 373.38 165.75 371.96 164.46 C 371.07 163.66 369.46 163.00 368.37 163.00 C 364.57 163.00 364.00 161.11 364.00 148.50 C 364.00 135.80 363.44 134.00 359.50 134.00 C 356.79 134.00 355.00 132.17 355.00 129.42 C 355.00 125.95 352.33 124.62 344.19 124.04 L 336.57 123.50 L 335.89 120.12 C 335.51 118.26 334.59 116.36 333.85 115.89 C 333.11 115.42 321.00 115.02 306.94 115.02 C 279.69 115.00 278.45 115.21 277.82 119.90 C 277.48 122.48 276.05 123.56 271.82 124.44 C 269.20 124.99 268.84 125.57 267.57 131.25 C 267.15 133.15 266.33 134.00 264.92 134.00 C 260.02 134.00 259.00 135.61 259.00 143.34 C 259.00 147.65 259.49 151.09 260.20 151.80 C 261.79 153.39 275.21 153.39 276.80 151.80 C 277.46 151.14 278.00 149.39 278.00 147.91 C 278.00 144.54 279.39 144.00 288.05 144.00 C 295.36 144.00 297.00 142.92 297.00 138.10 C 297.00 135.19 299.96 134.00 307.23 134.00 C 314.22 134.00 316.00 135.02 316.00 139.00 C 316.00 142.30 317.70 144.00 321.00 144.00 C 325.67 144.00 326.00 145.24 326.00 162.63 C 326.00 180.10 325.47 182.00 320.63 182.00 C 316.57 182.00 316.00 183.73 316.00 196.12 C 316.00 202.56 315.73 208.55 315.39 209.42 C 315.04 210.33 313.62 211.00 312.02 211.00 C 310.49 211.00 308.73 211.62 308.11 212.37 C 307.30 213.34 307.05 221.63 307.23 240.61 C 307.49 266.60 307.56 267.48 309.50 267.78 C 315.67 268.71 316.00 268.95 316.00 272.46 C 316.00 276.21 316.79 277.00 321.40 277.95 C 323.59 278.40 324.77 279.39 325.47 281.39 C 326.93 285.55 323.54 288.00 316.32 288.00 C 309.92 288.00 307.00 286.72 307.00 283.90 C 307.00 280.71 305.12 278.00 302.90 278.00 C 299.28 278.00 297.00 276.10 297.00 273.09 C 297.00 269.70 295.54 268.30 291.54 267.84 C 289.13 267.56 288.45 266.91 287.95 264.41 C 287.03 259.90 286.21 259.00 283.00 259.00 C 279.79 259.00 278.97 258.11 277.47 253.00 C 276.64 250.15 275.89 249.44 273.47 249.16 C 269.47 248.71 268.17 247.45 267.81 243.68 L 267.50 240.50 L 259.50 240.00 C 250.61 239.44 249.00 238.81 249.00 235.88 C 249.00 231.15 247.32 230.00 240.40 230.00 C 232.72 230.00 230.00 228.83 230.00 225.54 C 230.00 220.86 227.81 220.00 215.86 220.00 C 204.13 220.00 201.00 220.86 201.00 224.10 C 201.00 228.99 199.40 230.00 191.59 230.00 C 183.58 230.00 182.38 230.67 181.84 235.48 C 181.58 237.80 180.83 238.66 178.50 239.35 C 173.50 240.83 172.51 241.59 172.19 244.28 C 171.82 247.33 170.39 248.68 167.02 249.15 C 165.27 249.40 164.28 250.38 163.65 252.50 C 162.14 257.63 161.39 258.49 158.22 258.81 C 156.53 258.98 154.65 259.71 154.05 260.44 C 153.32 261.32 153.04 267.45 153.23 278.61 L 153.50 295.45 L 156.50 296.34 C 161.62 297.86 162.45 298.59 163.34 302.36 C 163.97 305.02 164.86 306.18 166.61 306.62 C 171.20 307.77 172.00 305.80 172.00 293.31 C 172.00 281.14 172.84 278.00 176.10 278.00 C 180.99 278.00 182.00 276.40 182.00 268.59 C 182.00 263.56 182.44 260.88 183.38 260.10 C 184.33 259.31 190.17 259.04 202.13 259.23 L 219.50 259.50 L 220.00 262.90 C 220.51 266.39 221.35 267.13 226.50 268.65 C 229.47 269.53 229.51 269.63 230.00 277.99 L 230.50 286.44 L 234.00 287.47 C 238.92 288.92 240.00 289.80 240.00 292.36 C 240.00 295.17 241.77 297.00 244.50 297.00 C 248.13 297.00 249.00 298.97 249.00 307.18 C 249.00 314.86 249.04 314.97 251.75 315.55 C 257.27 316.73 259.00 317.89 259.00 320.41 C 259.00 323.53 261.46 326.00 264.55 326.00 C 266.37 326.00 267.11 326.68 267.57 328.75 C 268.84 334.43 269.20 335.01 271.82 335.56 C 276.05 336.44 277.48 337.52 277.82 340.10 C 278.32 343.82 280.76 345.00 287.99 345.00 C 294.92 345.00 297.00 346.01 297.00 349.37 C 297.00 353.40 294.17 355.00 287.05 355.00 C 280.01 355.00 278.00 356.00 278.00 359.50 C 278.00 362.33 276.14 364.00 273.00 364.00 C 269.63 364.00 268.00 365.71 268.00 369.23 C 268.00 372.10 267.68 372.36 262.77 373.43 C 260.82 373.86 259.87 374.82 259.46 376.77 C 258.51 381.25 257.57 382.30 253.44 383.46 L 249.50 384.56 L 249.00 392.70 C 248.72 397.18 248.28 401.06 248.00 401.33 C 247.72 401.60 245.94 402.22 244.03 402.72 C 241.26 403.43 240.43 404.23 239.94 406.64 C 239.03 411.09 238.20 412.00 235.06 412.00 C 231.02 412.00 230.13 413.67 229.80 421.94 C 229.48 429.73 229.36 429.92 223.50 431.65 C 221.16 432.34 220.43 433.20 220.17 435.52 C 219.99 437.16 219.49 438.87 219.04 439.33 C 217.98 440.43 184.05 440.45 182.95 439.35 C 182.48 438.88 181.96 435.14 181.80 431.03 C 181.48 422.95 182.00 423.69 174.00 419.98 C 172.81 419.43 172.44 416.74 172.22 406.96 C 171.93 394.46 171.24 392.00 168.00 392.00 C 165.69 392.00 163.90 394.27 163.09 398.20 C 162.56 400.79 161.79 401.56 158.97 402.28 C 152.88 403.86 152.93 403.68 153.23 422.34 L 153.50 439.41 L 157.97 440.49 C 161.80 441.43 162.52 442.01 163.06 444.63 C 163.95 448.98 164.70 449.86 168.27 450.79 C 170.72 451.43 171.58 452.30 172.06 454.64 C 172.97 459.07 173.80 460.00 176.86 460.00 C 180.14 460.00 182.00 461.63 182.00 464.50 C 182.00 468.01 184.01 469.00 191.13 469.00 C 198.50 469.00 201.00 470.38 201.00 474.45 C 201.00 478.53 202.93 479.08 216.14 478.78 L 228.50 478.50 L 229.60 475.10 C 231.14 470.34 233.46 469.00 240.12 469.00 C 246.66 469.00 249.29 470.75 248.80 474.77 C 248.48 477.48 247.10 478.54 242.75 479.46 C 240.06 480.03 240.00 480.19 239.98 487.27 C 239.98 491.25 239.55 495.16 239.04 495.96 C 238.53 496.77 236.40 497.91 234.31 498.49 L 230.50 499.56 L 230.20 506.98 C 229.87 515.33 228.99 517.00 224.94 517.00 C 223.39 517.00 221.75 517.56 221.31 518.25 C 220.86 518.94 220.28 531.88 220.00 547.00 L 219.50 574.50 L 216.32 574.81 C 214.58 574.98 212.66 575.71 212.06 576.43 C 211.31 577.33 211.05 586.30 211.23 604.61 C 211.49 630.60 211.56 631.48 213.50 631.78 C 219.62 632.70 220.00 632.96 220.00 636.32 C 220.00 640.10 218.50 642.00 215.50 642.00 C 211.93 642.00 211.00 643.99 211.00 651.64 C 211.00 659.36 211.32 659.91 216.41 660.94 C 219.01 661.47 219.55 662.09 219.82 664.85 C 220.19 668.71 218.61 671.00 215.58 671.00 C 212.63 671.00 211.00 672.84 211.00 676.18 C 211.00 678.97 211.57 679.33 217.48 680.22 C 218.92 680.44 219.64 681.56 220.08 684.27 C 220.41 686.33 221.02 688.35 221.42 688.76 C 221.83 689.17 225.83 689.73 230.31 690.00 C 238.34 690.49 238.47 690.54 239.35 693.50 C 240.85 698.58 241.60 699.49 244.60 699.84 C 247.84 700.22 248.96 701.46 248.98 704.69 C 248.99 705.90 249.56 707.25 250.25 707.69 C 250.94 708.14 257.12 708.73 264.00 709.00 L 276.50 709.50 L 277.79 713.47 C 278.51 715.65 279.63 717.78 280.30 718.20 C 280.96 718.63 286.70 718.98 293.05 718.98 C 305.53 719.00 307.00 719.54 307.00 724.09 C 307.00 725.63 307.68 727.05 308.58 727.39 C 309.45 727.73 317.54 728.00 326.55 728.00 C 341.72 728.00 343.01 728.14 343.96 729.93 C 344.53 731.00 345.00 732.81 345.00 733.97 C 345.00 735.21 345.92 736.43 347.25 736.97 C 350.25 738.17 444.16 738.27 447.31 737.07 Z M 170.95 659.56 C 171.61 658.77 172.00 656.86 171.82 655.31 C 171.53 652.75 171.14 652.50 167.50 652.50 C 163.81 652.50 163.47 652.73 163.16 655.45 C 162.64 660.06 168.13 662.96 170.95 659.56 Z M 161.42 651.39 C 163.31 650.67 163.58 644.98 161.80 643.20 C 161.14 642.54 159.43 642.00 158.00 642.00 C 154.63 642.00 153.00 643.71 153.00 647.23 C 153.00 650.85 157.30 652.97 161.42 651.39 Z M 612.81 619.80 C 613.32 615.41 611.43 613.00 607.46 613.00 C 604.21 613.00 604.00 612.80 604.00 609.70 C 604.00 605.86 602.50 604.00 599.38 604.00 C 595.45 604.00 594.00 605.10 594.00 608.07 C 594.00 611.36 596.31 613.00 600.93 613.00 C 603.76 613.00 604.00 613.27 604.00 616.42 C 604.00 622.07 604.82 623.14 608.88 622.80 C 611.98 622.54 612.54 622.11 612.81 619.80 Z M 669.80 592.80 C 670.46 592.14 671.00 590.33 671.00 588.78 C 671.00 586.62 670.35 585.70 668.28 584.92 C 664.31 583.41 661.00 585.16 661.00 588.78 C 661.00 592.29 662.63 594.00 666.00 594.00 C 667.43 594.00 669.14 593.46 669.80 592.80 Z M 152.79 575.66 C 152.98 570.73 152.65 567.29 151.92 566.41 C 150.22 564.35 137.67 564.48 135.57 566.57 C 133.61 568.53 133.36 580.96 135.24 582.84 C 136.07 583.67 139.11 583.98 144.49 583.79 L 152.50 583.50 L 152.79 575.66 Z M 640.96 573.07 C 642.40 570.39 642.28 558.68 640.80 557.20 C 640.14 556.54 638.43 556.00 637.00 556.00 C 632.92 556.00 632.00 557.75 632.00 565.50 C 632.00 569.69 632.49 573.09 633.20 573.80 C 635.10 575.70 639.79 575.26 640.96 573.07 Z M 621.80 563.80 C 622.46 563.14 623.00 561.35 623.00 559.82 C 623.00 557.69 622.42 556.89 620.50 556.41 C 616.06 555.30 613.00 556.69 613.00 559.82 C 613.00 563.30 614.64 565.00 618.00 565.00 C 619.43 565.00 621.14 564.46 621.80 563.80 Z M 612.59 533.50 C 613.46 530.03 612.52 528.17 609.53 527.42 C 606.07 526.55 604.00 528.50 604.00 532.62 C 604.00 535.89 604.13 536.00 607.98 536.00 C 611.39 536.00 612.05 535.64 612.59 533.50 Z M 114.84 417.50 C 115.38 412.69 116.58 412.00 124.42 412.00 C 128.67 412.00 132.09 411.51 132.80 410.80 C 133.51 410.09 134.00 406.66 134.00 402.36 C 134.00 394.55 134.23 394.17 140.00 392.47 C 142.93 391.61 143.58 390.89 144.00 388.06 C 144.44 385.11 145.02 384.53 148.49 383.56 C 152.67 382.39 153.65 380.71 152.59 376.52 C 152.18 374.85 150.96 373.95 148.26 373.32 C 145.08 372.57 144.45 371.98 144.16 369.47 C 143.61 364.62 142.45 364.00 133.94 364.00 C 125.60 364.00 125.10 363.72 124.05 358.59 L 123.42 355.50 L 115.62 355.21 C 110.72 355.02 107.29 355.35 106.41 356.08 C 105.43 356.89 105.00 359.51 105.00 364.65 C 105.00 369.74 104.61 372.17 103.75 372.39 C 96.08 374.43 96.54 373.80 96.00 383.00 C 95.51 391.37 95.47 391.47 92.50 392.35 C 87.66 393.78 86.52 394.58 86.19 396.79 C 85.78 399.51 89.32 403.00 92.48 403.00 C 94.94 403.00 95.35 403.72 96.22 409.49 C 96.39 410.58 97.42 411.61 98.51 411.78 C 104.43 412.67 105.00 413.03 105.00 415.82 C 105.00 419.62 106.84 421.15 111.00 420.80 C 114.07 420.54 114.54 420.13 114.84 417.50 Z M 583.83 313.67 C 584.58 309.72 583.09 307.00 580.18 307.00 C 578.65 307.00 576.86 307.54 576.20 308.20 C 574.64 309.76 574.66 313.26 576.25 314.85 C 578.10 316.70 583.41 315.88 583.83 313.67 Z M 461.05 295.56 C 460.39 294.77 460.00 292.86 460.18 291.31 C 460.47 288.78 460.92 288.47 464.75 288.19 L 469.00 287.89 L 469.00 291.41 C 469.00 296.30 463.88 298.97 461.05 295.56 Z M 470.75 287.31 C 469.60 287.01 469.00 285.88 469.00 284.00 C 469.00 279.94 471.50 277.83 475.87 278.20 C 479.32 278.49 479.49 278.67 479.33 281.95 C 479.09 286.90 476.16 288.73 470.75 287.31 Z M 142.96 257.07 C 144.08 254.97 144.38 244.16 143.39 241.58 C 142.88 240.26 140.78 240.00 130.46 240.00 C 117.19 240.00 115.00 239.24 115.00 234.63 C 115.00 231.68 113.19 230.00 110.00 230.00 C 105.90 230.00 105.00 231.74 105.00 239.66 C 105.00 245.82 105.29 247.09 106.93 247.96 C 108.00 248.53 113.98 249.00 120.23 249.00 C 132.25 249.00 134.00 249.59 134.00 253.63 C 134.00 258.43 140.83 261.05 142.96 257.07 Z M 190.96 209.07 C 192.08 206.97 192.38 196.16 191.39 193.58 C 190.97 192.47 189.48 192.00 186.39 192.00 L 182.00 192.00 L 182.00 199.93 C 182.00 205.80 182.41 208.26 183.57 209.43 C 185.74 211.60 189.71 211.41 190.96 209.07 Z M 181.50 187.00 C 181.50 182.60 181.42 182.49 178.04 182.17 C 175.62 181.94 174.20 182.37 173.29 183.61 C 170.29 187.72 173.14 192.31 178.38 191.80 C 181.37 191.51 181.50 191.31 181.50 187.00 Z M 563.78 170.75 C 564.35 170.06 564.96 168.38 565.15 167.02 C 565.40 165.27 566.38 164.28 568.50 163.65 C 574.50 161.88 574.50 161.89 574.50 152.89 L 574.50 144.50 L 565.50 144.50 L 556.50 144.50 L 556.00 147.90 C 555.48 151.45 554.30 152.50 549.77 153.46 C 547.88 153.85 546.82 154.85 546.37 156.67 C 545.49 160.16 547.04 162.42 550.60 162.84 C 554.50 163.29 556.00 164.71 556.00 167.96 C 556.00 169.45 556.30 170.97 556.67 171.33 C 557.80 172.47 562.70 172.07 563.78 170.75 Z M 621.80 161.80 C 622.46 161.14 623.00 159.43 623.00 158.00 C 623.00 154.70 621.30 153.00 618.00 153.00 C 614.70 153.00 613.00 154.70 613.00 158.00 C 613.00 161.30 614.70 163.00 618.00 163.00 C 619.43 163.00 621.14 162.46 621.80 161.80 Z M 363.39 113.42 C 363.73 112.55 364.00 110.84 364.00 109.62 C 364.00 106.79 365.79 105.00 368.63 105.00 C 372.76 105.00 374.02 102.53 373.59 95.25 C 373.17 88.16 371.73 86.00 367.42 86.00 C 365.06 86.00 364.00 84.28 364.00 80.45 C 364.00 77.23 360.76 75.66 355.64 76.41 C 349.09 77.35 345.68 75.98 344.88 72.06 C 344.50 70.23 343.59 68.36 342.85 67.89 C 340.67 66.51 329.59 66.85 327.52 68.36 C 325.10 70.13 324.50 80.41 326.62 83.75 C 327.96 85.87 328.72 86.00 339.30 86.00 C 355.15 86.00 355.00 85.86 355.00 100.86 C 355.00 108.66 355.40 113.00 356.20 113.80 C 357.94 115.54 362.68 115.29 363.39 113.42 Z M 315.53 102.72 C 315.85 101.46 315.97 97.57 315.80 94.07 C 315.45 86.69 313.87 84.83 309.58 86.78 C 307.15 87.89 307.00 88.38 307.00 95.28 C 307.00 103.34 307.88 105.00 312.18 105.00 C 314.24 105.00 315.11 104.41 315.53 102.72 Z" fill="#000" fill-rule="evenodd"/></svg>
