<svg xmlns="http://www.w3.org/2000/svg" viewBox="0 0 1600 1600" width="200" height="200"><defs><clipPath id="rim"><circle cx="797.23" cy="792.64" r="707.45"/></clipPath></defs><circle cx="797.23" cy="792.64" r="718.22" fill="#f0ece3"/><path d="M 653.64 1508.75 C 651.12 1506.96 647.13 1504.09 644.78 1502.37 C 637.65 1497.17 632.91 1496.12 613.30 1495.44 C 591.38 1494.68 587.20 1493.63 575.30 1485.83 C 563.93 1478.38 560.52 1477.18 547.13 1475.94 C 533.02 1474.63 527.78 1473.00 518.69 1467.06 C 508.85 1460.64 507.22 1459.83 496.68 1456.11 C 491.83 1454.41 484.73 1450.98 480.91 1448.51 C 472.18 1442.86 466.02 1439.77 459.00 1437.50 C 451.60 1435.11 447.51 1432.98 438.19 1426.63 C 433.80 1423.64 427.26 1420.27 423.41 1419.01 C 408.21 1414.04 404.03 1411.02 383.01 1389.85 C 362.43 1369.13 358.05 1365.71 346.60 1361.37 C 331.06 1355.49 326.86 1349.94 326.17 1334.39 C 325.36 1315.89 329.25 1309.72 346.50 1302.17 C 352.55 1299.51 361.06 1295.01 365.40 1292.16 C 382.92 1280.65 402.92 1280.58 420.34 1291.96 C 429.93 1298.22 433.60 1300.08 443.00 1303.43 C 452.97 1306.98 458.67 1310.89 471.63 1323.08 C 484.61 1335.28 487.06 1336.91 498.60 1340.98 C 511.04 1345.36 514.19 1347.44 527.75 1360.27 C 540.30 1372.13 546.45 1376.11 558.19 1379.94 C 561.94 1381.16 569.52 1385.13 575.44 1388.96 C 588.87 1397.66 592.06 1398.46 613.00 1398.43 C 642.97 1398.39 639.01 1401.08 701.25 1338.65 C 773.52 1266.17 772.53 1267.01 787.98 1264.76 C 809.82 1261.58 813.92 1263.96 853.00 1302.55 C 887.12 1336.24 887.32 1336.41 900.55 1341.07 C 914.14 1345.86 916.83 1347.86 939.75 1370.18 C 966.83 1396.55 968.47 1397.50 986.98 1397.50 C 1004.69 1397.50 1006.93 1396.35 1026.48 1377.14 C 1055.45 1348.67 1058.46 1346.33 1072.86 1341.10 C 1084.78 1336.77 1087.99 1334.60 1101.83 1321.56 C 1114.39 1309.73 1120.02 1306.05 1131.00 1302.50 C 1142.84 1298.67 1145.85 1296.41 1165.87 1276.28 C 1201.46 1240.50 1208.39 1239.27 1235.83 1263.89 C 1249.76 1276.39 1253.41 1278.88 1264.00 1283.08 C 1299.20 1297.05 1287.51 1346.28 1245.50 1360.97 C 1231.85 1365.74 1229.07 1367.82 1208.53 1388.59 C 1187.76 1409.59 1184.31 1412.20 1170.06 1417.65 C 1164.42 1419.81 1156.38 1424.03 1150.44 1427.96 C 1143.73 1432.40 1137.28 1435.70 1131.05 1437.87 C 1125.51 1439.81 1117.89 1443.57 1112.31 1447.12 C 1106.18 1451.02 1099.16 1454.41 1092.20 1456.83 C 1084.90 1459.36 1078.69 1462.40 1072.65 1466.40 C 1062.02 1473.43 1058.60 1474.55 1043.30 1475.98 C 1029.92 1477.22 1025.73 1478.77 1014.22 1486.75 C 1002.30 1495.01 1001.00 1495.19 955.48 1494.82 C 904.50 1494.40 914.04 1499.13 864.51 1449.70 C 843.61 1428.83 823.94 1409.84 820.81 1407.50 C 806.70 1396.96 782.87 1397.26 768.67 1408.16 C 762.27 1413.08 691.17 1483.98 679.32 1497.27 C 665.03 1513.29 661.97 1514.65 653.64 1508.75 Z M 583.14 1317.48 C 571.63 1312.13 560.64 1299.13 554.92 1284.11 C 550.67 1272.96 547.08 1269.44 535.11 1264.65 C 530.04 1262.62 522.06 1258.53 517.39 1255.57 C 512.72 1252.61 504.31 1248.51 498.70 1246.45 C 485.22 1241.52 483.37 1240.14 460.27 1217.87 C 438.75 1197.12 432.38 1192.27 422.19 1188.92 C 413.60 1186.10 409.19 1183.86 400.22 1177.75 C 385.30 1167.58 377.84 1167.72 364.20 1178.42 C 358.56 1182.84 353.44 1185.44 341.20 1190.10 C 331.49 1193.80 323.53 1200.45 297.00 1227.04 C 259.32 1264.81 258.41 1264.97 231.95 1238.18 C 200.65 1206.49 200.23 1207.73 264.91 1142.63 C 331.80 1075.32 329.67 1076.76 348.99 1085.94 C 363.48 1092.83 367.60 1092.29 383.57 1081.44 C 390.05 1077.05 395.39 1074.37 402.27 1072.08 C 407.57 1070.31 415.63 1066.60 420.20 1063.84 C 445.84 1048.29 444.98 1047.83 508.01 1110.93 C 560.54 1163.52 561.70 1164.50 574.82 1167.05 C 593.63 1170.72 608.10 1165.30 623.82 1148.69 C 655.55 1115.18 806.12 966.17 810.77 963.68 C 829.45 953.67 853.29 968.14 862.87 995.30 C 867.42 1008.17 869.20 1011.09 879.68 1022.78 C 891.43 1035.90 893.46 1039.94 892.58 1048.39 C 890.30 1070.32 889.45 1069.05 908.10 1071.51 C 935.34 1075.11 949.54 1086.18 959.12 1111.32 C 964.37 1125.09 968.15 1130.39 983.89 1146.01 C 1007.40 1169.34 1015.77 1171.13 1036.62 1157.29 C 1039.49 1155.38 1046.57 1152.11 1052.35 1150.01 C 1066.73 1144.79 1068.08 1143.73 1100.20 1112.20 C 1135.90 1077.16 1136.42 1076.90 1153.82 1084.92 C 1164.34 1089.76 1171.25 1090.36 1176.90 1086.92 C 1185.25 1081.83 1186.83 1076.59 1187.84 1050.73 C 1188.87 1024.40 1188.93 1024.28 1212.31 1000.63 C 1240.23 972.39 1256.53 970.73 1264.58 995.32 C 1266.58 1001.42 1270.50 1009.48 1273.17 1013.00 C 1274.22 1014.38 1301.55 1042.05 1333.90 1074.50 C 1401.77 1142.57 1397.60 1137.28 1399.27 1157.49 C 1402.04 1191.06 1399.07 1198.82 1374.72 1221.71 C 1349.60 1245.31 1350.80 1245.74 1299.50 1194.98 C 1254.61 1150.57 1255.97 1151.50 1236.00 1151.50 C 1219.88 1151.50 1214.92 1153.66 1200.65 1166.91 C 1183.68 1182.67 1182.22 1183.62 1165.20 1190.10 C 1156.29 1193.49 1149.24 1199.15 1126.89 1220.81 C 1106.57 1240.51 1103.50 1242.74 1091.00 1246.87 C 1080.94 1250.19 1075.45 1253.89 1062.92 1265.75 C 1050.57 1277.44 1045.77 1280.73 1037.00 1283.53 C 1029.82 1285.81 1023.78 1288.88 1014.40 1295.00 C 1002.46 1302.79 994.52 1303.85 984.48 1298.99 C 976.98 1295.36 839.75 1157.65 832.28 1146.25 C 824.01 1133.63 822.12 1133.41 803.19 1142.90 C 796.76 1146.12 788.49 1149.74 784.81 1150.94 C 775.87 1153.86 768.60 1158.78 756.00 1170.44 C 744.27 1181.29 740.74 1183.64 728.79 1188.55 C 718.19 1192.90 713.34 1197.88 709.53 1208.33 C 704.64 1221.74 697.80 1229.48 641.98 1284.69 C 603.97 1322.29 599.19 1324.96 583.14 1317.48 Z M 369.55 1143.55 C 374.24 1138.85 371.72 1130.43 364.08 1125.27 C 354.30 1118.68 345.56 1129.21 352.02 1139.81 C 355.78 1145.96 365.13 1147.96 369.55 1143.55 Z M 854.81 1123.60 C 868.70 1116.56 879.43 1098.80 876.59 1087.52 C 874.32 1078.47 858.90 1086.23 842.96 1104.44 C 826.93 1122.76 833.98 1134.15 854.81 1123.60 Z M 162.00 1120.29 C 158.79 1119.12 155.63 1115.18 151.77 1107.50 C 149.55 1103.10 145.53 1096.05 142.83 1091.84 C 140.13 1087.63 136.17 1079.34 134.02 1073.43 C 131.33 1066.01 128.29 1060.04 124.18 1054.10 C 116.82 1043.45 115.36 1039.22 114.11 1024.87 C 112.90 1011.10 111.77 1007.73 104.54 996.35 C 96.79 984.15 95.97 980.68 95.03 956.19 C 94.15 933.27 94.12 933.13 86.16 917.50 C 78.83 903.11 79.02 906.08 79.02 805.00 C 79.02 703.43 78.78 707.01 86.47 691.50 C 89.47 685.45 92.46 679.15 93.12 677.50 C 93.90 675.55 94.58 663.62 95.05 643.50 C 95.89 607.95 96.13 606.63 104.17 594.38 C 111.04 583.91 112.84 578.85 114.03 566.70 C 115.54 551.28 116.69 547.53 122.64 538.80 C 129.35 528.95 131.33 525.06 135.10 514.37 C 136.76 509.68 140.53 501.94 143.49 497.17 C 146.45 492.40 150.24 484.79 151.91 480.25 C 155.69 470.00 157.04 467.37 163.26 458.12 C 166.00 454.07 169.53 447.18 171.12 442.83 C 175.86 429.84 178.28 426.03 190.05 412.97 C 203.95 397.54 205.09 395.82 209.89 383.16 C 215.56 368.21 214.32 369.61 279.96 303.79 C 353.06 230.48 348.74 233.54 367.69 241.86 C 384.47 249.23 393.12 246.56 401.61 231.37 C 408.47 219.10 411.90 217.99 426.00 223.50 C 447.84 232.03 456.43 226.18 459.36 200.80 C 461.50 182.29 464.79 177.75 480.50 171.60 C 489.82 167.96 492.96 165.80 506.23 153.88 C 520.87 140.73 523.73 138.84 536.36 133.96 C 542.58 131.56 550.27 127.60 555.09 124.32 C 574.71 110.96 594.73 110.95 613.73 124.29 C 618.00 127.29 623.98 130.98 627.00 132.48 C 640.17 139.04 642.35 142.53 641.36 155.46 C 640.43 167.62 641.78 170.53 654.74 184.31 C 660.53 190.46 667.77 198.81 670.83 202.85 C 678.80 213.38 680.95 213.78 689.30 206.31 C 698.19 198.36 705.70 199.14 718.21 209.29 C 738.65 225.88 742.97 225.06 745.63 204.06 C 749.20 175.91 760.03 162.28 787.00 152.00 C 792.51 149.90 800.50 145.96 804.76 143.25 C 809.02 140.53 815.77 136.61 819.78 134.52 C 832.41 127.93 834.29 123.48 829.41 111.73 C 819.03 86.72 828.61 76.52 862.50 76.54 C 884.02 76.55 887.50 77.38 900.35 85.54 C 913.32 93.78 914.63 94.11 937.50 95.06 C 960.09 96.00 964.31 96.92 974.02 103.01 C 987.49 111.46 991.35 112.83 1006.09 114.37 C 1023.39 116.18 1027.22 117.93 1040.50 130.08 C 1062.82 150.51 1064.14 151.09 1090.12 152.09 C 1114.73 153.04 1119.63 154.29 1131.00 162.50 C 1136.93 166.78 1142.91 169.75 1151.48 172.66 C 1160.64 175.78 1166.08 179.55 1179.83 192.29 C 1191.50 203.10 1196.59 206.27 1210.50 211.42 C 1219.38 214.71 1225.96 219.68 1241.88 235.12 C 1264.41 256.99 1267.04 264.26 1259.31 283.33 C 1249.54 307.47 1264.44 322.83 1287.37 312.25 C 1305.07 304.08 1311.59 306.33 1335.33 328.76 C 1366.72 358.41 1374.97 368.49 1380.57 384.00 C 1384.13 393.88 1386.25 397.05 1397.85 409.84 C 1410.34 423.60 1413.50 428.25 1417.11 438.14 C 1420.84 448.37 1422.80 452.15 1429.29 461.71 C 1432.45 466.37 1435.90 473.22 1437.87 478.75 C 1439.68 483.83 1443.37 491.37 1446.06 495.49 C 1452.43 505.25 1454.16 508.78 1457.44 518.74 C 1458.95 523.31 1462.35 530.34 1465.06 534.49 C 1474.03 548.23 1474.46 549.46 1476.00 565.92 C 1477.63 583.20 1481.59 588.37 1497.16 593.55 C 1506.11 596.53 1510.98 600.19 1514.31 606.41 C 1517.26 611.91 1518.35 969.83 1515.45 979.81 C 1513.04 988.12 1508.41 992.35 1497.20 996.50 C 1480.67 1002.61 1477.71 1006.71 1475.91 1026.04 C 1473.32 1053.79 1455.27 1070.78 1437.62 1062.09 C 1431.63 1059.15 1315.53 943.80 1309.70 935.00 C 1307.69 931.98 1304.94 926.24 1303.59 922.25 C 1298.32 906.76 1297.10 905.24 1259.53 867.50 C 1220.53 828.33 1218.82 826.99 1207.55 827.01 C 1192.30 827.03 1176.38 841.73 1169.04 862.54 C 1164.68 874.92 1162.66 878.02 1150.39 891.08 C 1137.74 904.57 1135.18 908.34 1130.43 920.60 C 1125.77 932.63 1123.40 936.19 1110.78 950.11 C 1099.05 963.05 1096.41 967.09 1092.54 978.00 C 1088.43 989.57 1085.70 993.44 1071.16 1008.25 C 1043.42 1036.48 1045.72 1037.26 989.50 980.71 C 946.90 937.86 942.97 933.27 938.66 921.28 C 934.40 909.44 931.59 904.85 922.32 894.61 C 903.14 873.43 901.93 871.11 900.09 851.97 C 898.42 834.59 895.38 830.41 879.75 824.00 C 874.48 821.84 866.02 817.35 860.96 814.03 C 855.09 810.17 849.17 807.21 844.63 805.85 C 840.71 804.68 833.18 801.76 827.89 799.36 C 811.83 792.07 807.31 793.61 787.97 812.96 C 774.95 825.99 771.14 831.58 767.48 843.00 C 763.78 854.56 761.27 857.93 740.61 879.00 C 718.28 901.77 715.00 906.13 709.59 920.24 C 704.17 934.38 701.26 937.77 654.69 984.38 C 589.70 1049.44 596.62 1049.75 527.85 978.67 C 502.20 952.15 502.20 952.15 498.99 943.83 C 492.73 927.59 490.01 924.49 478.04 920.02 C 468.65 916.50 463.73 911.52 459.97 901.72 C 441.06 852.43 389.16 849.63 365.21 896.62 C 357.20 912.32 350.09 914.40 338.91 904.30 C 329.19 895.52 327.18 889.60 325.53 864.93 C 323.56 835.35 317.92 828.65 303.53 838.76 C 291.70 847.08 288.50 856.08 288.50 881.00 C 288.50 909.12 290.59 913.01 309.54 920.10 C 330.80 928.06 330.29 943.47 307.97 966.61 C 294.65 980.42 292.19 984.11 288.00 996.50 C 283.32 1010.34 282.85 1010.89 229.05 1064.85 C 172.73 1121.34 170.32 1123.34 162.00 1120.29 Z M 198.99 1047.51 C 203.14 1045.36 205.00 1042.18 205.00 1037.23 C 205.00 1026.92 194.58 1025.12 187.63 1034.24 C 180.72 1043.30 188.82 1052.76 198.99 1047.51 Z M 370.76 1041.49 C 363.14 1033.86 369.68 1020.00 380.90 1020.00 C 387.76 1020.00 391.00 1022.70 391.00 1028.42 C 391.00 1039.17 377.29 1048.02 370.76 1041.49 Z M 650.25 859.95 C 659.69 857.33 662.10 850.75 656.81 842.03 C 646.36 824.78 624.38 821.83 617.77 836.79 C 610.76 852.64 629.21 865.79 650.25 859.95 Z M 1273.73 818.35 C 1286.75 808.63 1281.27 788.32 1263.14 779.07 C 1253.43 774.12 1249.69 776.75 1247.78 789.85 C 1244.40 813.01 1259.16 829.23 1273.73 818.35 Z M 485.68 800.06 C 494.32 796.14 496.95 788.53 496.95 767.50 C 496.96 748.86 496.24 747.24 485.03 740.61 C 480.49 737.93 472.54 732.08 467.37 727.61 C 449.53 712.21 438.78 709.84 431.09 719.61 C 426.94 724.88 428.29 728.67 436.37 734.47 C 453.20 746.55 458.20 754.91 460.38 774.59 C 462.97 798.02 471.43 806.53 485.68 800.06 Z M 890.10 777.71 C 899.71 771.25 894.94 756.07 884.66 760.37 C 880.89 761.95 876.28 767.05 875.37 770.65 C 873.46 778.26 882.70 782.69 890.10 777.71 Z M 394.42 759.47 C 399.31 757.15 407.41 749.07 410.07 743.87 C 419.25 725.87 389.00 729.20 377.90 747.40 C 371.38 758.09 381.60 765.56 394.42 759.47 Z M 912.00 703.36 C 918.89 699.63 950.20 668.61 953.30 662.44 C 969.18 630.83 944.48 594.61 916.00 607.75 C 911.33 609.91 904.55 612.70 900.95 613.95 C 882.43 620.39 881.42 622.75 881.79 659.00 C 882.26 703.80 890.04 715.23 912.00 703.36 Z M 840.84 629.46 C 856.43 624.82 854.03 615.07 831.99 593.58 C 805.62 567.87 783.81 574.70 786.31 607.88 C 787.88 628.66 811.74 638.10 840.84 629.46 Z M 766.99 493.67 C 774.13 490.22 775.12 486.25 771.44 475.71 C 765.32 458.18 767.76 448.39 781.55 435.02 C 801.78 415.40 827.58 416.79 851.04 438.75 C 871.93 458.31 882.21 461.67 907.00 457.05 C 924.30 453.82 924.79 450.49 909.60 439.07 C 887.93 422.79 885.27 415.42 894.25 396.54 C 903.46 377.18 902.18 362.65 889.62 344.00 C 883.54 334.96 881.79 330.18 879.95 317.50 C 876.63 294.66 866.14 294.01 844.64 315.33 C 825.59 334.23 823.25 341.49 830.14 360.32 C 837.98 381.75 822.16 387.42 801.74 370.51 C 789.96 360.75 786.42 353.54 784.90 336.19 C 783.89 324.74 782.36 318.70 777.48 307.08 C 774.04 298.89 774.41 293.28 779.05 283.00 C 787.13 265.10 779.55 247.26 759.71 237.56 C 750.02 232.82 748.23 232.98 740.83 239.26 C 737.28 242.27 730.58 246.75 725.94 249.20 C 721.30 251.66 713.35 256.40 708.28 259.74 C 703.21 263.08 696.01 266.82 692.28 268.05 C 668.06 276.02 640.57 302.96 632.40 326.71 C 630.51 332.21 627.07 339.33 624.13 343.82 C 612.37 361.76 613.16 371.84 627.00 380.63 C 640.52 389.21 641.30 390.31 641.99 401.87 C 642.73 414.18 644.01 415.93 657.04 422.50 C 673.63 430.87 683.08 441.18 689.43 457.83 C 694.88 472.10 696.65 473.80 712.50 479.89 C 716.90 481.58 722.98 484.59 726.00 486.59 C 741.97 497.12 755.15 499.40 766.99 493.67 Z M 1001.99 416.39 C 1014.47 411.39 1012.38 392.57 999.73 396.06 C 992.86 397.96 985.10 408.27 986.46 413.69 C 987.53 417.98 994.85 419.25 1001.99 416.39 Z M 695.99 390.34 C 677.39 374.69 700.57 328.00 726.95 328.00 C 743.63 328.00 753.70 353.49 744.21 371.69 C 738.38 382.86 703.25 396.45 695.99 390.34 Z M 542.14 310.31 C 550.85 306.68 559.75 306.69 569.92 310.34 C 587.39 316.60 593.87 308.23 584.66 291.30 C 582.62 287.56 578.67 279.86 575.88 274.18 C 566.54 255.17 559.50 255.35 540.55 275.10 C 514.94 301.79 515.81 321.25 542.14 310.31 Z M 694.09 136.45 C 689.77 131.54 682.08 115.88 681.35 110.53 C 679.59 97.68 698.72 95.82 705.14 108.21 C 712.99 123.36 703.61 147.30 694.09 136.45 Z" fill="#000" fill-rule="evenodd" clip-path="url(#rim)"/></svg>
