<svg xmlns="http://www.w3.org/2000/svg" viewBox="0 0 800 800" width="200" height="200"><circle cx="399.27" cy="400.28" r="361.68" fill="#f0ece3"/><path d="M 329.25 761.25 C 326.25 760.73 324.77 757.72 325.53 753.67 C 325.95 751.46 325.70 750.00 324.79 749.24 C 323.92 748.52 317.23 747.99 306.57 747.80 C 288.34 747.48 289.20 747.76 287.35 741.50 L 286.46 738.50 L 273.69 738.00 C 260.21 737.47 259.05 737.03 259.02 732.37 C 258.99 729.00 256.95 728.11 248.45 727.80 L 240.50 727.50 L 240.16 724.50 C 239.62 719.70 238.41 719.00 230.63 718.98 C 226.71 718.98 222.87 718.57 222.11 718.09 C 221.34 717.60 220.44 715.47 220.10 713.35 L 219.47 709.50 L 211.28 709.00 C 206.78 708.73 202.66 708.05 202.12 707.50 C 201.59 706.95 201.01 705.15 200.83 703.50 C 200.55 700.94 200.00 700.43 197.10 700.00 C 193.61 699.49 192.87 698.65 191.35 693.50 C 190.72 691.38 189.73 690.40 187.98 690.16 C 184.61 689.70 182.00 687.17 182.00 684.38 C 182.00 681.19 179.22 680.00 171.77 680.00 C 168.15 680.00 164.88 679.48 164.20 678.80 C 162.94 677.54 162.45 656.60 163.61 653.58 C 164.08 652.34 165.78 652.00 171.54 652.00 C 179.29 652.00 182.00 650.70 182.00 647.00 C 182.00 642.83 184.47 642.00 196.87 642.00 C 209.58 642.00 211.00 642.52 211.00 647.16 C 211.00 650.81 213.43 652.00 220.85 652.00 C 228.66 652.00 230.00 652.59 230.00 656.05 C 230.00 659.21 230.91 660.03 235.40 660.95 C 237.70 661.42 238.70 662.33 239.36 664.54 C 241.08 670.35 241.28 670.48 249.06 670.80 C 257.35 671.13 259.00 672.01 259.00 676.10 C 259.00 678.41 259.53 679.08 261.75 679.57 C 267.65 680.89 268.00 681.12 268.02 683.82 C 268.04 688.70 269.30 689.46 278.19 690.00 C 286.35 690.49 286.47 690.54 287.35 693.50 C 289.19 699.74 288.45 699.48 305.40 699.78 C 314.03 699.93 321.84 699.63 322.76 699.12 C 323.68 698.60 324.93 696.71 325.53 694.91 C 326.64 691.62 327.23 691.11 332.22 689.14 C 333.97 688.45 335.16 687.07 335.56 685.28 C 336.65 680.31 336.90 680.00 339.85 680.00 C 343.31 680.00 344.70 678.56 345.16 674.50 C 345.44 672.00 346.00 671.44 348.50 671.17 C 352.24 670.75 355.00 668.36 355.00 665.55 C 355.00 662.80 356.81 661.00 359.58 661.00 C 362.33 661.00 363.73 659.32 364.16 655.50 C 364.44 653.00 365.00 652.44 367.50 652.16 C 371.33 651.73 373.00 650.33 373.00 647.53 C 373.00 644.80 375.93 642.00 378.77 642.00 C 381.24 642.00 384.00 638.50 384.00 635.38 C 384.00 632.37 385.58 632.00 398.38 632.00 C 410.46 632.00 412.00 632.56 412.00 637.00 C 412.00 640.19 413.68 642.00 416.64 642.00 C 419.10 642.00 420.00 643.01 421.50 647.47 C 422.27 649.76 423.42 650.70 426.48 651.55 C 429.81 652.49 430.56 653.19 431.11 655.88 C 431.92 659.87 432.13 660.08 436.16 660.90 C 438.97 661.47 439.54 662.11 440.24 665.49 C 440.69 667.65 441.61 669.77 442.28 670.19 C 442.95 670.62 446.71 670.98 450.63 670.98 C 458.41 671.00 459.62 671.70 460.16 676.50 C 460.44 679.00 461.00 679.56 463.50 679.84 C 467.38 680.28 468.81 681.52 469.19 684.79 C 469.48 687.28 470.24 687.89 476.98 691.01 C 477.79 691.38 478.76 693.17 479.13 694.97 C 479.50 696.78 480.41 698.64 481.15 699.11 C 481.89 699.58 487.53 699.98 493.68 699.98 C 505.49 700.00 508.00 699.13 508.00 695.01 C 508.00 691.81 509.15 690.00 511.17 690.00 C 514.76 690.00 517.00 688.08 517.00 685.02 C 517.00 681.69 518.02 680.84 522.97 680.05 C 525.99 679.56 526.55 679.04 526.84 676.49 C 527.37 671.78 528.64 671.00 535.69 671.00 C 543.03 671.00 546.00 669.82 546.00 666.90 C 546.00 663.28 547.90 661.00 550.91 661.00 C 554.31 661.00 555.71 659.54 556.16 655.50 L 556.50 652.50 L 564.50 652.00 C 573.54 651.44 575.00 650.83 575.00 647.63 C 575.00 644.58 577.00 642.21 579.90 641.82 C 582.48 641.47 583.55 640.05 584.46 635.77 C 584.87 633.81 585.81 632.87 587.77 632.46 C 592.04 631.56 593.47 630.49 593.85 627.90 C 594.45 623.70 595.83 623.00 603.42 623.00 C 611.33 623.00 613.00 623.90 613.00 628.18 C 613.00 630.41 613.55 631.08 615.75 631.55 C 620.97 632.67 623.00 633.93 623.00 636.04 C 623.00 640.99 624.59 642.00 632.34 642.00 C 636.65 642.00 640.09 642.49 640.80 643.20 C 641.60 644.00 642.00 648.34 642.00 656.13 C 642.00 668.81 641.20 671.00 636.55 671.00 C 633.68 671.00 632.27 672.63 631.84 676.50 L 631.50 679.50 L 623.55 679.80 C 614.94 680.12 613.00 680.99 613.00 684.55 C 613.00 687.54 610.49 690.00 607.45 690.00 C 605.63 690.00 604.89 690.68 604.43 692.75 C 604.09 694.26 603.61 696.26 603.36 697.18 C 603.11 698.10 601.47 699.17 599.70 699.55 C 595.45 700.46 594.00 701.75 594.00 704.65 C 594.00 707.73 590.78 709.00 582.97 709.00 C 576.73 709.00 575.00 710.27 575.00 714.88 C 575.00 717.81 573.39 718.44 564.50 719.00 L 556.50 719.50 L 556.19 722.68 C 556.02 724.42 555.33 726.31 554.64 726.88 C 553.96 727.45 549.84 728.04 545.47 728.20 C 537.62 728.50 537.53 728.53 536.65 731.50 C 534.83 737.66 535.23 737.49 522.03 737.62 C 509.08 737.74 508.05 738.11 508.02 742.68 C 507.98 747.79 506.79 748.01 480.18 747.86 C 466.61 747.79 454.49 747.35 453.25 746.89 C 452.01 746.43 451.00 745.24 451.00 744.25 C 451.00 741.63 448.17 738.00 446.13 738.00 C 443.24 738.00 440.87 735.61 440.13 731.95 C 439.52 728.97 438.96 728.43 435.98 728.00 C 432.57 727.50 432.18 726.96 430.39 720.25 C 430.21 719.56 429.01 719.00 427.72 719.00 C 424.27 719.00 421.92 716.85 421.13 712.95 C 420.54 710.07 419.94 709.44 417.46 709.16 C 413.47 708.71 412.17 707.45 411.81 703.68 L 411.50 700.50 L 398.30 700.22 C 386.50 699.97 385.00 700.13 384.15 701.72 C 383.14 703.61 383.00 704.17 383.00 706.43 C 383.00 707.84 382.22 708.21 376.83 709.41 C 374.82 709.85 373.99 710.80 373.46 713.25 C 372.56 717.50 371.26 719.00 368.50 719.00 C 365.68 719.00 364.27 720.65 363.84 724.49 C 363.60 726.57 362.89 727.57 361.50 727.78 C 355.56 728.66 355.00 729.02 355.00 731.90 C 355.00 735.27 353.73 736.50 349.02 737.72 C 346.05 738.48 345.42 739.18 344.63 742.56 C 343.62 746.91 342.58 747.96 339.31 747.98 C 336.41 748.00 335.52 749.61 335.51 754.87 C 335.50 759.72 333.31 761.95 329.25 761.25 Z M 289.25 660.34 C 288.56 660.06 288.00 658.55 288.00 656.98 C 288.00 653.79 287.10 652.97 282.00 651.47 L 278.50 650.44 L 278.00 642.30 C 277.73 637.82 277.13 633.79 276.67 633.33 C 276.21 632.87 272.16 632.27 267.67 632.00 L 259.50 631.50 L 259.16 628.50 C 258.61 623.62 257.46 623.00 248.90 623.00 C 241.13 623.00 241.03 622.97 240.45 620.25 C 239.21 614.44 238.15 613.00 235.14 613.00 C 231.87 613.00 230.35 611.60 229.85 608.10 C 229.47 605.51 228.04 604.44 223.77 603.54 C 221.81 603.13 220.87 602.19 220.46 600.23 C 219.34 594.90 218.73 594.52 210.94 594.20 C 202.66 593.87 201.00 592.99 201.00 588.91 C 201.00 585.23 198.63 584.00 191.50 584.00 C 184.31 584.00 182.00 585.22 182.00 589.00 C 182.00 592.88 179.68 594.00 171.60 594.00 C 164.65 594.00 163.00 595.14 163.00 599.96 C 163.00 602.07 160.97 603.33 155.75 604.45 C 153.53 604.93 153.00 605.59 153.00 607.90 C 153.00 611.13 151.59 612.65 148.10 613.15 C 145.51 613.53 144.45 614.95 143.53 619.29 C 143.21 620.83 142.39 622.23 141.72 622.41 C 135.06 624.16 134.50 624.57 134.00 628.02 C 133.55 631.14 133.14 631.53 130.04 631.83 C 126.18 632.20 124.00 630.21 124.00 626.33 C 124.00 624.64 123.27 623.88 121.25 623.44 C 119.74 623.10 117.99 622.68 117.37 622.49 C 116.74 622.31 115.84 620.48 115.35 618.43 C 114.45 614.59 113.63 613.86 108.50 612.35 C 105.57 611.48 105.49 611.29 105.21 604.34 C 104.89 596.55 106.16 594.00 110.37 594.00 C 113.15 594.00 115.00 592.23 115.02 589.55 C 115.04 586.36 116.45 584.86 120.12 584.11 C 122.93 583.54 123.56 582.93 123.84 580.46 C 124.29 576.49 125.70 575.00 129.00 575.00 C 132.25 575.00 133.52 573.67 134.46 569.25 C 134.99 566.79 135.81 565.86 137.83 565.44 C 142.29 564.51 143.48 563.44 144.00 559.90 C 144.43 557.00 144.94 556.45 147.50 556.16 C 151.52 555.71 152.83 554.46 153.19 550.70 C 153.46 547.98 154.04 547.40 157.44 546.45 C 161.57 545.30 162.51 544.25 163.46 539.77 C 164.54 534.61 172.00 535.19 172.00 540.43 C 172.00 545.14 173.91 546.12 182.50 545.80 C 190.38 545.50 190.47 545.47 191.35 542.50 C 193.09 536.60 193.21 536.53 202.10 536.00 L 210.50 535.50 L 210.81 532.50 C 211.25 528.26 213.48 527.00 220.50 527.00 C 227.51 527.00 229.75 528.26 230.19 532.49 C 230.46 535.10 230.98 535.55 234.35 536.10 C 238.30 536.73 239.96 538.22 239.98 541.17 C 240.01 544.28 241.21 546.00 243.36 546.02 C 246.64 546.04 248.13 547.42 248.89 551.11 C 249.42 553.71 250.25 554.68 252.54 555.36 C 257.44 556.81 258.48 557.59 258.85 560.10 C 259.35 563.59 260.87 565.00 264.10 565.00 C 266.97 565.00 267.32 565.54 268.21 571.39 C 268.53 573.50 270.16 574.60 274.23 575.46 C 276.18 575.87 277.14 576.82 277.57 578.77 C 277.90 580.27 278.34 582.06 278.55 582.75 C 278.83 583.67 282.38 584.00 291.77 584.00 C 305.24 584.00 307.00 583.48 307.00 579.50 C 307.00 576.62 308.87 575.00 312.18 575.00 C 314.41 575.00 315.08 574.45 315.55 572.25 C 316.80 566.40 317.84 565.00 320.92 565.00 C 324.21 565.00 325.02 564.12 325.95 559.59 C 326.36 557.58 327.26 556.41 328.54 556.22 C 334.34 555.34 334.92 554.96 335.56 551.53 C 336.30 547.57 337.48 546.33 340.97 545.85 C 342.89 545.58 343.69 544.61 344.56 541.51 C 345.48 538.21 346.27 537.34 349.09 536.51 C 353.97 535.06 355.00 534.19 355.00 531.48 C 355.00 528.91 357.52 527.00 360.92 527.00 C 362.88 527.00 363.39 526.01 364.21 520.61 C 364.53 518.51 366.17 517.40 370.14 516.57 C 372.20 516.14 372.92 515.25 373.43 512.52 C 373.95 509.77 374.67 508.89 376.79 508.42 C 378.28 508.08 380.24 507.62 381.15 507.37 C 382.07 507.13 383.07 505.46 383.42 503.57 C 384.15 499.71 385.48 498.33 388.97 497.85 C 390.89 497.58 391.69 496.61 392.56 493.51 C 393.48 490.21 394.27 489.34 397.09 488.51 C 401.97 487.06 403.00 486.19 403.00 483.48 C 403.00 480.33 405.67 479.00 412.00 479.00 C 418.29 479.00 421.00 480.33 421.00 483.41 C 421.00 486.26 422.47 487.55 426.74 488.46 C 430.97 489.37 431.32 490.09 431.11 497.64 C 430.89 505.48 432.00 507.78 436.22 508.19 C 438.91 508.45 439.53 509.00 440.06 511.59 C 440.97 516.11 441.79 517.00 445.04 517.00 C 451.00 517.00 452.86 525.33 447.18 526.59 C 441.76 527.79 441.09 528.14 440.48 530.05 C 440.14 531.12 440.15 532.90 440.50 534.00 C 441.09 535.85 442.01 536.00 453.13 536.00 C 466.18 536.00 469.00 536.79 469.00 540.46 C 469.00 543.27 471.41 546.00 473.88 546.00 C 477.91 546.00 479.32 548.38 479.12 554.86 C 478.90 562.46 480.03 564.78 484.17 565.19 C 487.02 565.47 487.45 565.95 488.42 570.00 C 489.37 573.96 489.86 574.54 492.50 574.84 C 496.35 575.27 498.00 576.67 498.00 579.50 C 498.00 583.24 500.16 584.11 508.66 583.79 L 516.50 583.50 L 516.83 580.50 C 517.01 578.85 517.59 577.05 518.12 576.50 C 518.66 575.95 522.78 575.27 527.28 575.00 L 535.47 574.50 L 536.04 570.97 C 536.84 566.07 537.70 565.00 540.86 565.00 C 544.14 565.00 546.00 563.37 546.00 560.50 C 546.00 557.67 547.86 556.00 551.00 556.00 C 554.30 556.00 556.00 554.30 556.00 551.00 C 556.00 547.86 557.67 546.00 560.50 546.00 C 563.39 546.00 565.00 544.13 565.00 540.78 C 565.00 538.62 565.65 537.70 567.72 536.92 C 571.26 535.57 575.00 537.18 575.00 540.04 C 575.00 544.99 576.59 546.00 584.34 546.00 C 588.65 546.00 592.09 545.51 592.80 544.80 C 593.64 543.96 594.00 538.58 594.00 527.00 C 594.00 509.21 594.32 508.00 599.00 508.00 C 602.30 508.00 604.00 506.30 604.00 503.00 C 604.00 499.81 605.68 498.00 608.64 498.00 C 611.21 498.00 612.06 496.93 612.95 492.59 C 613.44 490.20 614.25 489.36 616.54 488.87 C 621.67 487.77 629.55 487.95 630.80 489.20 C 631.52 489.92 632.00 493.42 632.00 498.00 C 632.00 506.31 632.86 508.00 637.08 508.00 C 640.14 508.00 641.66 509.46 642.15 512.90 C 642.53 515.49 643.95 516.56 648.24 517.46 C 650.53 517.94 651.09 518.70 651.63 522.10 C 651.99 524.34 652.78 526.30 653.39 526.45 C 659.74 528.04 660.51 528.60 661.00 531.99 C 661.46 535.13 661.88 535.52 665.75 536.28 C 669.25 536.97 670.09 537.58 670.56 539.81 C 671.44 544.04 672.52 545.47 675.10 545.85 C 678.54 546.34 680.00 547.86 680.00 550.92 C 680.00 554.30 681.67 556.00 685.00 556.00 C 688.14 556.00 690.00 557.67 690.00 560.50 C 690.00 563.37 691.87 565.00 695.16 565.00 C 696.87 565.00 698.32 565.74 698.96 566.93 C 700.23 569.29 700.34 599.92 699.09 601.89 C 698.60 602.66 696.49 603.56 694.39 603.90 C 691.04 604.45 690.49 604.93 689.89 607.89 C 689.14 611.55 687.64 612.96 684.45 612.98 C 681.64 613.01 680.00 614.88 680.00 618.08 C 680.00 623.73 673.24 624.88 671.65 619.50 C 670.14 614.37 669.39 613.52 666.00 613.00 C 662.54 612.47 661.49 611.28 660.54 606.75 C 660.10 604.67 659.37 604.00 657.56 604.00 C 653.62 604.00 652.00 602.93 652.00 600.33 C 652.00 596.74 650.22 594.00 647.90 594.00 C 644.78 594.00 642.00 592.14 642.00 590.05 C 642.00 586.37 640.75 584.98 636.88 584.36 C 633.70 583.86 632.87 583.25 632.43 581.12 C 631.29 575.64 631.01 575.52 619.39 575.21 C 605.46 574.84 604.21 575.15 603.81 579.15 C 603.49 582.39 602.64 583.13 597.54 584.64 C 595.25 585.32 594.42 586.29 593.89 588.89 C 592.98 593.34 591.74 593.97 583.79 593.98 C 576.64 594.00 575.00 595.11 575.00 599.96 C 575.00 602.07 572.97 603.33 567.75 604.45 C 565.55 604.92 565.00 605.59 565.00 607.82 C 565.00 611.35 563.35 613.00 559.82 613.00 C 557.59 613.00 556.92 613.55 556.45 615.75 C 554.93 622.87 554.74 623.00 546.14 623.00 C 537.54 623.00 536.39 623.61 535.84 628.50 C 535.56 631.00 535.00 631.56 532.50 631.84 C 528.46 632.29 527.00 633.69 527.00 637.09 C 527.00 640.86 524.62 642.00 516.77 642.00 C 509.95 642.00 508.00 643.03 508.00 646.63 C 508.00 650.64 505.47 652.00 498.00 652.00 C 490.74 652.00 488.00 650.63 488.00 647.01 C 488.00 643.74 486.84 642.00 484.64 641.98 C 481.36 641.96 479.87 640.58 479.11 636.89 C 478.58 634.29 477.75 633.32 475.46 632.64 C 470.56 631.19 469.52 630.41 469.15 627.90 C 468.68 624.59 467.16 623.00 464.50 623.00 C 461.70 623.00 460.28 621.35 459.84 617.60 C 459.48 614.55 458.20 613.48 453.85 612.57 C 451.78 612.13 451.01 611.19 450.31 608.26 C 449.71 605.69 448.81 604.42 447.46 604.22 C 441.66 603.34 441.08 602.96 440.44 599.53 C 439.71 595.64 438.68 594.56 434.85 593.64 C 432.81 593.16 432.00 592.15 431.32 589.27 C 430.62 586.32 429.80 585.34 427.47 584.64 C 422.42 583.15 421.51 582.40 421.16 579.40 C 420.77 576.05 419.54 575.04 415.86 575.02 C 412.90 575.00 412.00 573.46 412.00 568.42 C 412.00 565.20 411.80 565.00 408.62 565.00 C 404.84 565.00 403.61 566.12 402.56 570.49 C 401.60 574.49 400.60 574.96 393.00 575.00 C 385.27 575.04 384.46 575.45 383.29 579.97 C 382.57 582.73 381.77 583.57 379.36 584.06 C 375.27 584.90 374.00 585.79 374.00 587.84 C 374.00 588.78 373.30 590.56 372.44 591.78 C 371.10 593.70 369.98 594.00 364.14 594.00 C 360.23 594.00 356.90 594.50 356.20 595.20 C 355.50 595.90 355.00 599.23 355.00 603.13 C 355.00 610.50 353.62 613.00 349.55 613.00 C 346.71 613.00 345.21 614.71 344.36 618.93 C 344.01 620.71 343.22 622.32 342.61 622.50 C 342.00 622.68 340.26 623.10 338.75 623.44 C 336.84 623.85 336.00 624.66 336.00 626.08 C 336.00 629.29 334.12 632.00 331.90 632.00 C 328.86 632.00 326.00 633.85 326.00 635.81 C 326.00 638.62 323.07 642.00 320.64 642.00 C 317.66 642.00 316.00 643.81 316.00 647.08 C 316.00 650.31 314.49 651.71 310.50 652.16 C 308.00 652.44 307.45 653.00 307.19 655.50 C 307.02 657.15 306.14 659.06 305.25 659.75 C 303.66 660.96 291.88 661.40 289.25 660.34 Z M 335.44 590.70 C 337.11 585.93 335.35 584.54 327.16 584.21 C 318.71 583.86 316.00 584.98 316.00 588.84 C 316.00 593.33 317.63 594.10 326.47 593.79 C 334.22 593.51 334.49 593.42 335.44 590.70 Z M 343.99 582.51 C 345.86 580.26 344.40 576.14 341.47 575.40 C 338.08 574.55 336.00 576.53 336.00 580.62 C 336.00 583.79 336.21 584.00 339.38 584.00 C 341.24 584.00 343.31 583.33 343.99 582.51 Z M 190.80 573.80 C 191.46 573.14 192.00 571.43 192.00 570.00 C 192.00 566.70 190.30 565.00 187.00 565.00 C 183.67 565.00 182.00 563.30 182.00 559.91 C 182.00 557.11 180.47 556.00 176.62 556.00 C 173.03 556.00 172.00 557.96 172.00 564.77 C 172.00 574.40 172.58 575.00 181.84 575.00 C 186.54 575.00 190.07 574.53 190.80 573.80 Z M 77.01 563.02 C 76.42 561.92 76.05 558.37 76.18 555.12 C 76.44 548.52 75.12 546.00 71.41 546.00 C 67.97 546.00 66.64 542.69 67.35 535.88 C 68.03 529.42 66.71 527.00 62.50 527.00 C 57.78 527.00 57.00 524.86 57.00 511.96 C 57.00 501.23 56.81 499.97 55.07 499.04 C 54.00 498.47 52.25 498.00 51.17 498.00 C 50.10 498.00 48.94 497.29 48.61 496.42 C 48.27 495.55 47.99 487.56 47.98 478.67 C 47.98 469.78 47.64 462.04 47.23 461.49 C 46.83 460.93 45.15 460.02 43.50 459.46 L 40.50 458.45 L 40.50 402.58 C 40.50 341.53 40.01 346.95 45.75 344.14 C 47.32 343.38 47.56 340.88 48.05 320.39 C 48.35 307.80 48.69 297.39 48.80 297.25 C 48.91 297.11 49.93 297.00 51.07 297.00 C 52.20 297.00 54.00 296.53 55.07 295.96 C 56.81 295.03 57.00 293.77 57.00 283.04 C 57.00 269.87 57.75 268.00 63.01 268.00 C 66.84 268.00 67.48 266.64 67.15 259.30 C 66.83 252.20 68.11 249.01 71.29 248.98 C 75.67 248.95 76.42 247.60 76.17 240.17 C 75.90 232.52 77.21 230.00 81.45 230.00 C 85.14 230.00 86.43 227.48 86.20 220.65 C 85.96 213.35 86.65 212.02 91.11 211.11 C 93.71 210.58 94.68 209.75 95.36 207.46 C 96.83 202.49 97.60 201.51 100.28 201.19 C 104.11 200.73 104.87 199.15 105.20 190.98 C 105.49 183.68 105.55 183.53 108.50 182.65 C 113.56 181.16 114.43 180.43 115.11 177.10 C 115.92 173.13 116.14 172.92 120.17 172.10 C 122.79 171.56 123.56 170.83 124.06 168.38 C 124.97 163.91 125.80 163.00 128.94 163.00 C 132.25 163.00 133.52 161.68 134.46 157.25 C 134.99 154.79 135.81 153.86 137.83 153.44 C 142.29 152.51 143.48 151.44 144.00 147.90 C 144.43 145.00 144.94 144.45 147.50 144.16 C 151.52 143.71 152.83 142.46 153.19 138.69 C 153.44 136.17 154.10 135.36 156.50 134.65 C 161.56 133.16 162.43 132.43 163.11 129.10 C 163.93 125.13 164.13 124.92 168.20 124.10 C 171.00 123.53 171.58 122.91 172.00 120.07 C 172.64 115.80 174.95 114.24 178.70 115.56 C 180.87 116.32 181.61 117.33 182.00 120.02 L 182.50 123.50 L 191.50 123.50 L 200.50 123.50 L 200.79 115.26 C 201.04 108.15 201.36 106.88 203.13 105.93 C 206.31 104.23 209.88 105.59 210.54 108.77 C 211.67 114.10 212.27 114.48 220.08 114.80 C 229.78 115.19 230.00 114.87 230.00 100.33 C 230.00 89.38 230.07 89.00 232.52 87.40 C 234.33 86.21 236.43 85.88 240.02 86.23 C 245.98 86.80 247.91 85.65 248.87 80.99 C 249.49 77.96 250.06 77.46 254.03 76.50 C 257.94 75.55 258.54 75.05 258.83 72.46 C 259.01 70.83 259.59 69.05 260.12 68.50 C 260.66 67.95 264.56 67.28 268.80 67.00 L 276.50 66.50 L 277.80 62.53 C 278.51 60.35 279.63 58.22 280.30 57.80 C 280.96 57.37 286.24 57.02 292.03 57.02 C 303.26 57.00 307.00 58.24 307.00 61.97 C 307.00 66.40 307.94 67.00 314.88 67.00 C 322.43 67.00 326.31 68.86 325.81 72.24 C 325.48 74.42 324.33 75.22 319.51 76.65 C 316.34 77.59 315.44 79.62 316.43 83.58 C 316.87 85.33 317.73 86.00 319.52 86.00 C 322.41 86.00 326.00 89.21 326.00 91.80 C 326.00 94.37 327.97 96.00 331.08 96.00 C 335.03 96.00 335.88 97.74 336.20 106.55 L 336.50 114.50 L 339.75 114.81 C 342.51 115.08 343.16 114.71 344.05 112.36 C 344.63 110.84 344.98 107.10 344.83 104.05 C 344.50 97.25 345.21 96.00 349.36 96.00 C 353.10 96.00 355.00 97.51 355.00 100.50 C 355.00 103.18 356.82 105.00 359.50 105.00 C 362.22 105.00 364.00 106.83 364.00 109.62 C 364.00 113.88 365.04 115.00 369.00 115.00 C 372.21 115.00 372.88 115.38 373.42 117.52 C 374.64 122.40 372.66 124.00 365.40 124.00 C 357.72 124.00 355.00 125.17 355.00 128.46 C 355.00 132.62 352.54 134.00 345.13 134.00 C 337.94 134.00 336.00 134.98 336.00 138.63 C 336.00 141.72 333.41 144.00 329.90 144.00 C 326.90 144.00 326.65 144.31 325.57 149.23 C 325.14 151.18 324.18 152.13 322.23 152.54 C 316.85 153.68 316.53 154.23 316.00 163.07 L 315.50 171.43 L 312.41 172.05 C 307.27 173.10 307.00 173.60 307.00 182.02 C 307.00 191.45 307.57 192.00 317.31 192.00 C 324.56 192.00 326.63 193.37 325.60 197.47 C 325.18 199.15 324.07 200.16 322.23 200.54 C 317.84 201.47 316.52 202.53 316.18 205.41 C 315.63 210.00 317.40 211.00 326.06 211.00 C 334.39 211.00 334.90 211.28 335.94 216.38 C 336.45 218.85 337.21 219.56 339.91 220.12 C 344.38 221.03 344.97 222.25 344.98 230.69 C 344.99 235.33 345.44 238.17 346.25 238.69 C 346.94 239.14 351.10 239.72 355.50 240.00 L 363.50 240.50 L 363.84 243.50 C 364.42 248.68 365.26 249.00 378.05 249.00 C 387.45 249.00 390.18 248.68 391.43 247.43 C 394.50 244.36 392.70 240.00 388.37 240.00 C 384.57 240.00 383.00 237.41 383.01 231.18 C 383.03 223.17 383.78 221.07 386.87 220.43 C 391.29 219.51 392.48 218.43 393.00 214.90 L 393.50 211.50 L 405.86 211.22 C 418.98 210.92 421.00 211.48 421.00 215.42 C 421.00 218.31 422.82 220.00 425.95 220.02 C 429.54 220.04 430.46 220.94 431.54 225.50 L 432.50 229.50 L 449.37 229.77 C 466.81 230.06 468.30 229.77 469.32 225.89 C 470.32 222.05 466.80 220.00 459.20 220.00 C 452.00 220.00 450.00 219.02 450.00 215.50 C 450.00 212.63 448.13 211.00 444.84 211.00 C 439.31 211.00 438.37 202.62 443.77 201.42 C 449.00 200.26 449.82 199.92 450.24 198.71 C 450.47 198.05 450.40 192.11 450.08 185.52 L 449.50 173.54 L 446.50 172.65 C 440.34 170.83 440.50 171.22 440.49 158.39 C 440.49 151.85 440.12 145.94 439.68 145.25 C 438.43 143.29 433.22 143.72 432.07 145.87 C 431.52 146.90 431.32 147.98 431.62 148.28 C 432.94 149.61 429.78 153.00 427.21 153.02 C 423.52 153.04 422.28 154.00 421.44 157.51 C 420.48 161.54 419.18 163.00 416.58 163.00 C 412.93 163.00 412.00 164.95 412.00 172.58 C 412.00 180.20 412.70 181.56 416.97 182.15 C 418.42 182.36 420.06 183.66 420.97 185.31 C 422.42 187.97 422.37 188.23 420.14 190.06 C 418.44 191.45 416.24 192.00 412.32 192.00 C 405.65 192.00 403.00 190.72 403.00 187.49 C 403.00 184.85 400.30 182.65 395.75 181.60 C 392.61 180.87 392.63 180.95 392.94 168.00 C 393.23 156.15 392.19 153.00 388.00 153.00 C 385.77 153.00 384.67 152.37 383.88 150.63 C 382.29 147.15 384.25 144.00 388.00 144.00 C 392.10 144.00 393.29 141.22 392.82 132.81 C 392.40 125.37 391.50 124.04 386.86 124.02 C 384.13 124.00 382.67 122.03 383.59 119.63 C 384.48 117.31 381.14 115.00 376.91 115.00 L 372.95 115.00 L 373.10 102.52 C 373.19 94.77 373.69 89.43 374.42 88.44 C 375.07 87.55 377.14 86.51 379.03 86.13 C 381.83 85.55 382.64 84.80 383.48 81.96 C 385.17 76.23 385.56 76.00 393.36 76.00 C 401.10 76.00 403.00 75.08 403.00 71.34 C 403.00 68.17 405.81 67.00 413.47 67.00 C 419.39 67.00 420.15 66.77 420.90 64.75 C 422.54 60.36 420.72 58.38 413.25 56.39 C 411.64 55.97 411.50 40.43 413.09 39.44 C 414.46 38.60 447.54 38.60 448.91 39.45 C 449.47 39.79 450.22 41.63 450.57 43.54 C 450.93 45.44 451.29 47.09 451.36 47.19 C 451.44 47.30 459.60 47.63 469.50 47.94 L 487.50 48.50 L 487.84 51.50 C 488.42 56.66 489.27 57.00 501.87 57.02 C 508.27 57.02 514.11 57.42 514.85 57.89 C 515.59 58.36 516.50 60.22 516.87 62.03 C 517.58 65.50 518.78 66.52 523.29 67.47 C 526.13 68.07 526.37 68.40 527.44 73.25 L 528.04 76.00 L 544.58 76.00 C 554.08 76.00 561.96 76.44 563.07 77.04 C 564.28 77.69 565.00 79.13 565.00 80.91 C 565.00 84.99 566.66 85.87 574.94 86.20 C 582.73 86.52 582.92 86.64 584.65 92.50 C 585.34 94.83 586.20 95.58 588.52 95.84 C 592.32 96.27 594.00 97.68 594.00 100.42 C 594.00 103.99 595.97 105.00 602.95 105.02 C 610.71 105.03 611.98 105.68 612.87 110.03 C 613.58 113.50 614.78 114.52 619.29 115.47 C 622.13 116.07 622.37 116.40 623.44 121.25 C 623.92 123.45 624.60 124.00 626.82 124.00 C 631.22 124.00 632.00 125.61 632.00 134.68 C 632.00 142.91 631.98 142.97 629.25 143.54 C 625.02 144.43 623.53 145.50 623.17 147.91 C 622.72 150.95 624.71 153.00 628.10 153.00 C 630.41 153.00 631.07 153.53 631.55 155.75 C 632.88 161.98 633.82 163.14 637.26 162.81 C 640.05 162.54 640.68 161.95 641.80 158.53 C 642.51 156.35 643.63 154.22 644.30 153.80 C 646.24 152.56 658.80 152.86 659.60 154.16 C 660.00 154.80 660.59 156.67 660.93 158.32 C 661.57 161.43 662.48 162.17 667.50 163.65 C 669.93 164.37 670.60 165.21 671.00 168.02 C 671.43 171.01 671.93 171.55 674.50 171.84 C 678.49 172.29 680.00 173.69 680.00 176.92 C 680.00 180.18 681.66 182.00 684.63 182.00 C 688.69 182.00 690.12 184.61 689.89 191.66 C 689.66 198.79 690.30 199.91 695.16 200.89 C 698.11 201.49 698.62 202.09 699.58 206.03 C 700.54 210.01 700.99 210.53 703.75 210.81 C 708.14 211.24 708.87 212.61 709.20 221.04 L 709.50 228.50 L 713.47 229.80 C 715.65 230.51 717.78 231.63 718.20 232.30 C 718.63 232.96 718.98 236.52 718.98 240.21 C 719.00 247.35 720.12 249.00 724.92 249.00 C 727.36 249.00 727.89 250.85 728.25 260.49 L 728.50 267.47 L 732.35 268.10 C 734.47 268.44 736.63 269.34 737.14 270.11 C 737.65 270.87 737.95 276.61 737.81 282.85 C 737.49 296.62 737.78 297.00 748.49 297.00 C 752.69 297.00 756.09 297.49 756.80 298.20 C 758.54 299.94 758.54 495.06 756.80 496.80 C 756.09 497.51 752.69 498.00 748.49 498.00 C 737.81 498.00 737.49 498.42 737.85 511.82 C 738.20 524.41 737.38 527.00 733.09 527.00 C 729.69 527.00 728.29 528.46 727.84 532.50 C 727.53 535.28 727.20 535.50 723.50 535.50 C 719.70 535.50 719.48 535.33 719.18 532.20 C 718.86 528.82 717.50 527.77 711.95 526.60 C 709.91 526.17 709.21 525.21 708.45 521.78 C 707.59 517.89 707.18 517.45 704.00 517.00 C 700.92 516.56 700.44 516.10 700.00 513.10 C 699.49 509.61 698.66 508.87 693.51 507.34 C 691.27 506.68 690.38 505.72 690.00 503.51 C 689.52 500.73 688.71 500.07 682.00 496.99 C 681.17 496.61 680.36 494.91 680.19 493.22 C 679.82 489.54 678.50 488.29 674.50 487.84 C 672.00 487.56 671.45 487.00 671.17 484.50 C 670.75 480.62 669.90 479.83 665.33 479.09 C 661.84 478.52 661.50 478.16 660.72 474.24 C 660.03 470.76 659.41 469.90 657.19 469.42 C 655.71 469.10 653.94 468.66 653.25 468.45 C 652.40 468.19 652.00 465.72 651.98 460.78 C 651.97 452.42 651.60 451.58 647.51 450.57 C 643.74 449.65 642.00 448.23 642.00 446.07 C 642.00 443.24 639.58 440.87 635.95 440.13 C 632.97 439.52 632.43 438.96 632.00 436.00 C 631.58 433.09 630.96 432.42 628.00 431.60 C 623.90 430.46 623.04 429.46 623.02 425.81 C 623.00 422.69 621.92 421.83 617.03 421.05 C 614.01 420.56 613.45 420.04 613.16 417.49 C 612.62 412.69 611.41 412.00 603.58 412.00 C 595.95 412.00 594.00 412.93 594.00 416.58 C 594.00 419.26 592.47 420.56 588.25 421.46 C 584.54 422.26 584.14 423.29 583.76 432.97 L 583.50 439.43 L 579.74 440.32 C 576.81 441.01 575.87 441.78 575.43 443.85 C 574.53 448.18 573.52 449.37 569.92 450.30 C 565.45 451.46 565.03 452.28 565.02 460.05 C 565.00 467.03 563.99 469.00 560.42 469.00 C 557.69 469.00 556.27 470.67 555.84 474.40 C 555.49 477.40 554.58 478.15 549.50 479.65 C 546.55 480.53 546.49 480.68 546.20 487.98 C 545.88 495.97 544.96 497.99 541.63 498.02 C 538.22 498.04 536.76 499.53 536.10 503.65 C 535.56 507.01 535.10 507.54 532.49 507.84 C 528.48 508.29 527.00 509.69 527.00 513.02 C 527.00 515.91 525.51 517.00 521.54 517.00 C 518.68 517.00 517.27 515.36 516.84 511.51 C 516.60 509.43 515.89 508.43 514.50 508.22 C 508.53 507.33 508.00 506.99 508.00 504.05 C 508.00 500.53 505.70 498.00 502.49 498.00 C 499.79 498.00 498.94 496.97 498.05 492.59 C 497.53 490.00 496.79 489.35 493.46 488.54 C 488.89 487.44 488.04 486.54 488.02 482.77 C 488.00 480.61 487.43 479.91 485.25 479.43 C 483.74 479.10 482.08 478.73 481.57 478.60 C 481.06 478.48 480.15 476.62 479.55 474.46 C 478.69 471.39 477.79 470.33 475.47 469.65 C 469.64 467.92 469.52 467.73 469.22 459.90 C 468.92 451.96 467.75 450.00 463.33 450.00 C 461.64 450.00 460.88 449.27 460.43 447.25 C 460.09 445.74 459.61 443.74 459.36 442.82 C 459.11 441.90 457.47 440.83 455.70 440.45 C 450.01 439.24 449.83 438.74 450.14 425.76 C 450.37 416.20 450.14 413.70 448.96 412.95 C 448.16 412.45 444.25 412.02 440.29 412.02 C 432.63 412.00 431.00 410.97 431.00 406.12 C 431.00 403.24 429.65 402.75 421.92 402.83 C 414.36 402.90 412.00 401.63 412.00 397.50 C 412.00 395.10 409.67 392.00 407.86 392.00 C 405.51 392.00 403.00 394.24 403.00 396.34 C 403.00 399.62 401.01 401.75 397.00 402.75 C 393.60 403.60 393.11 404.30 391.39 410.75 C 391.21 411.44 389.71 412.00 388.07 412.00 C 384.06 412.00 382.59 414.87 383.34 421.20 C 384.14 427.98 382.94 430.60 378.67 431.40 C 374.71 432.14 373.34 433.45 372.85 436.96 C 372.59 438.80 371.71 439.59 369.41 440.05 C 364.95 440.96 364.00 441.79 363.98 444.81 C 363.96 448.64 362.74 450.10 358.88 450.89 L 355.50 451.57 L 355.00 459.43 C 354.47 467.73 354.35 467.92 348.53 469.64 C 346.19 470.34 345.38 471.32 344.67 474.34 C 344.17 476.44 343.26 478.31 342.63 478.49 C 342.01 478.68 340.26 479.10 338.75 479.44 C 336.57 479.91 336.00 480.61 335.98 482.77 C 335.96 486.53 335.11 487.44 330.58 488.54 C 327.15 489.38 326.53 489.99 325.56 493.46 C 324.65 496.73 323.92 497.54 321.39 498.05 C 316.91 498.97 316.00 499.80 316.00 502.94 C 316.00 506.31 314.53 507.71 310.50 508.16 C 308.00 508.44 307.44 509.00 307.16 511.50 C 306.61 516.39 305.47 517.00 296.85 517.00 C 291.39 517.00 288.82 516.61 288.55 515.75 C 288.34 515.06 287.89 513.24 287.55 511.71 C 287.22 510.17 286.39 508.77 285.72 508.59 C 279.38 506.93 278.49 506.34 278.00 503.51 C 277.52 500.73 276.71 500.07 270.00 496.99 C 269.18 496.61 268.35 494.99 268.16 493.40 C 267.70 489.47 266.43 488.17 262.68 487.81 C 259.89 487.54 259.44 487.07 259.00 484.03 C 258.58 481.09 257.96 480.40 255.00 479.53 C 249.23 477.83 249.00 477.45 249.00 469.64 C 249.00 465.34 248.51 461.91 247.80 461.20 C 247.09 460.49 243.69 460.00 239.50 460.00 C 235.31 460.00 231.91 459.51 231.20 458.80 C 230.49 458.09 230.00 454.67 230.00 450.42 C 230.00 442.55 229.34 441.42 224.14 440.38 C 221.77 439.90 220.84 439.09 220.43 437.12 C 219.28 431.63 219.03 431.52 207.14 431.22 C 195.08 430.91 192.01 431.74 191.98 435.29 C 191.96 438.41 190.94 439.58 187.51 440.43 C 182.56 441.64 182.00 442.67 182.00 450.59 C 182.00 458.39 180.99 460.00 176.12 460.00 C 173.79 460.00 172.92 458.84 172.05 454.59 C 171.57 452.22 170.65 451.25 168.13 450.42 C 166.31 449.83 164.43 448.70 163.93 447.92 C 163.44 447.14 163.02 439.28 163.02 430.45 C 163.00 413.25 162.66 412.00 158.00 412.00 C 154.86 412.00 153.00 413.67 153.00 416.50 C 153.00 419.21 151.17 421.00 148.42 421.00 C 144.30 421.00 143.94 422.77 144.23 441.63 L 144.50 459.50 L 151.50 459.75 C 163.62 460.19 163.13 459.79 162.79 469.17 C 162.48 477.80 162.42 477.90 156.50 479.65 C 154.07 480.37 153.40 481.21 153.00 484.02 C 152.57 487.01 152.07 487.55 149.50 487.84 C 144.63 488.39 144.00 489.55 144.00 497.92 C 144.00 506.28 143.15 508.00 139.00 508.00 C 135.86 508.00 134.00 509.67 134.00 512.50 C 134.00 515.16 132.19 517.00 129.55 517.02 C 126.23 517.04 124.76 518.55 124.10 522.61 C 123.56 525.93 123.06 526.51 120.19 527.10 C 116.13 527.93 115.93 528.12 115.10 532.17 C 114.51 535.06 113.93 535.55 110.22 536.28 C 106.75 536.97 105.91 537.59 105.44 539.81 C 104.56 544.04 103.48 545.47 100.90 545.85 C 97.46 546.34 96.00 547.86 96.00 550.92 C 96.00 554.30 94.33 556.00 91.00 556.00 C 87.67 556.00 86.00 557.70 86.00 561.09 C 86.00 565.28 79.02 566.77 77.01 563.02 Z M 431.00 561.10 C 431.52 557.57 432.71 556.49 437.13 555.57 C 440.48 554.87 441.10 552.49 440.32 543.27 C 439.73 536.26 439.61 536.00 437.10 536.02 C 433.41 536.04 432.38 537.00 431.62 541.15 C 430.97 544.70 429.53 546.00 426.25 546.00 C 423.65 546.00 421.00 549.10 421.00 552.14 C 421.00 554.98 420.43 555.34 414.50 556.22 C 412.92 556.46 412.44 557.41 412.19 560.80 L 411.88 565.08 L 421.19 564.79 L 430.50 564.50 L 431.00 561.10 Z M 103.80 525.80 C 104.51 525.09 105.00 521.67 105.00 517.42 C 105.00 509.40 103.92 507.65 99.31 508.18 C 97.02 508.44 96.44 509.06 96.16 511.50 C 95.74 515.27 94.33 517.00 91.71 517.00 C 89.29 517.00 86.00 519.72 86.00 521.72 C 86.00 522.50 86.47 524.00 87.04 525.07 C 87.91 526.71 89.18 527.00 95.34 527.00 C 99.65 527.00 103.09 526.51 103.80 525.80 Z M 183.25 525.85 C 181.61 524.21 181.57 510.83 183.20 509.20 C 183.91 508.49 187.31 508.00 191.50 508.00 C 199.05 508.00 201.00 508.94 201.00 512.58 C 201.00 515.17 199.38 516.68 196.10 517.15 C 193.59 517.52 192.81 518.56 191.35 523.50 C 190.65 525.85 189.82 526.56 187.48 526.80 C 185.83 526.96 183.93 526.53 183.25 525.85 Z M 334.75 429.79 C 337.88 427.21 335.11 422.18 329.99 421.13 C 327.21 420.56 326.45 419.86 325.94 417.38 C 324.92 412.36 324.32 412.00 317.02 412.00 C 306.83 412.00 307.00 411.84 307.00 421.64 C 307.00 429.05 307.23 430.15 308.93 430.78 C 311.75 431.83 333.28 431.00 334.75 429.79 Z M 640.80 410.80 C 642.44 409.16 642.40 395.57 640.75 394.21 C 640.06 393.64 637.92 392.78 636.00 392.28 C 633.01 391.51 632.43 390.88 632.00 387.94 C 631.53 384.70 631.25 384.48 627.25 384.19 L 623.00 383.89 L 623.00 396.74 C 623.00 405.41 623.39 409.99 624.20 410.80 C 625.79 412.39 639.21 412.39 640.80 410.80 Z M 247.44 400.78 C 248.65 399.06 249.00 395.78 249.00 386.37 L 249.00 374.18 L 252.94 373.51 C 255.11 373.14 257.40 372.23 258.02 371.48 C 259.94 369.16 258.76 365.63 255.70 364.56 C 251.95 363.25 249.59 364.82 249.18 368.90 C 248.56 375.15 240.00 375.40 240.00 369.16 C 240.00 365.70 238.35 364.00 235.00 364.00 C 231.86 364.00 230.00 362.33 230.00 359.50 C 230.00 355.94 228.01 355.00 220.42 355.00 C 212.40 355.00 210.65 356.08 211.18 360.69 C 211.46 363.14 212.00 363.56 215.49 364.00 C 218.50 364.38 219.55 364.99 219.78 366.50 C 220.62 372.13 221.09 373.00 223.30 373.00 C 224.54 373.00 226.56 373.70 227.78 374.56 C 229.86 376.02 230.00 376.85 230.00 388.00 C 230.00 399.15 230.14 399.98 232.22 401.44 C 233.61 402.41 236.61 403.00 240.17 403.00 C 244.94 403.00 246.14 402.63 247.44 400.78 Z M 170.24 391.75 C 174.90 388.16 171.12 381.86 165.57 383.98 C 161.85 385.39 162.14 390.80 166.00 392.27 C 168.26 393.13 168.49 393.10 170.24 391.75 Z M 448.00 391.70 C 450.20 390.59 450.51 389.78 450.55 384.97 C 450.61 376.94 450.03 374.96 447.31 373.93 C 443.83 372.60 441.21 374.36 440.43 378.54 C 439.75 382.16 437.63 384.00 434.13 384.00 C 430.44 384.00 430.14 391.36 433.80 392.32 C 437.40 393.27 445.61 392.91 448.00 391.70 Z M 200.12 381.84 C 200.59 381.10 200.98 379.54 200.98 378.37 C 201.00 375.72 202.52 374.43 207.00 373.28 C 210.25 372.44 210.50 372.10 210.50 368.44 L 210.50 364.50 L 201.51 364.50 C 193.29 364.50 192.50 364.67 192.22 366.50 C 191.36 372.22 190.99 372.78 187.61 373.41 C 185.73 373.77 183.67 374.69 183.02 375.47 C 181.31 377.54 182.17 381.29 184.64 382.51 C 187.66 384.01 199.06 383.52 200.12 381.84 Z M 623.00 379.62 C 623.00 375.43 621.11 373.77 616.82 374.18 C 614.01 374.45 613.45 374.94 613.18 377.33 C 612.64 382.05 613.52 383.00 618.47 383.00 C 622.95 383.00 623.00 382.96 623.00 379.62 Z M 400.78 353.44 C 403.20 351.75 403.71 348.11 401.80 346.20 C 401.07 345.47 397.53 345.00 392.78 345.00 C 385.44 345.00 384.89 345.15 383.84 347.46 C 382.94 349.43 383.05 350.42 384.38 352.46 C 385.87 354.73 386.71 355.00 392.30 355.00 C 396.34 355.00 399.34 354.45 400.78 353.44 Z M 458.63 353.78 C 459.05 353.12 459.64 351.00 459.95 349.07 C 460.43 346.15 461.03 345.47 463.60 344.95 C 467.97 344.05 469.00 343.21 469.00 340.50 C 469.00 337.80 470.03 336.93 475.00 335.47 L 478.50 334.44 L 479.00 322.64 C 479.58 308.93 479.13 307.00 475.36 307.00 C 472.02 307.00 469.00 304.41 469.00 301.55 C 469.00 298.62 467.15 297.00 463.82 297.00 C 461.59 297.00 460.92 297.55 460.45 299.75 C 458.92 306.88 458.75 307.00 450.06 307.00 C 443.43 307.00 441.93 307.30 441.24 308.75 C 439.80 311.77 440.42 351.60 441.94 353.42 C 443.58 355.40 457.45 355.70 458.63 353.78 Z M 431.05 314.44 C 433.23 311.82 431.10 307.70 427.15 306.90 C 422.97 306.04 421.96 305.03 421.11 300.84 C 420.54 298.07 419.92 297.44 417.46 297.16 C 413.47 296.71 412.17 295.45 411.81 291.68 L 411.50 288.50 L 403.09 288.21 C 398.47 288.05 394.27 288.33 393.75 288.85 C 392.67 289.93 392.36 313.15 393.41 314.85 C 393.90 315.65 399.62 316.00 411.94 316.00 C 426.86 316.00 429.97 315.75 431.05 314.44 Z M 583.37 294.88 C 584.33 293.51 584.58 292.02 584.06 290.63 C 583.38 288.78 582.36 288.46 576.41 288.20 C 566.79 287.78 565.00 288.37 565.00 291.97 C 565.00 295.89 567.12 296.93 575.19 296.97 C 580.89 297.00 582.11 296.69 583.37 294.88 Z M 420.00 238.00 C 422.41 235.59 422.45 235.08 420.44 232.22 C 417.55 228.09 412.00 229.91 412.00 235.00 C 412.00 239.98 416.38 241.62 420.00 238.00 Z M 487.81 215.25 C 488.11 211.13 488.02 211.00 485.13 211.00 C 481.81 211.00 479.00 213.23 479.00 215.87 C 479.00 218.55 481.20 220.12 484.50 219.80 C 487.26 219.52 487.52 219.16 487.81 215.25 Z M 536.04 217.93 C 536.90 216.33 536.79 215.33 535.55 213.43 C 532.85 209.31 527.00 210.73 527.00 215.50 C 527.00 218.37 528.87 220.00 532.16 220.00 C 533.94 220.00 535.33 219.26 536.04 217.93 Z M 506.80 209.80 C 508.05 208.55 508.49 196.44 507.39 193.58 C 506.67 191.69 500.98 191.42 499.20 193.20 C 498.54 193.86 498.00 195.34 498.00 196.50 C 498.00 199.37 496.13 201.00 492.84 201.00 C 491.13 201.00 489.68 201.74 489.04 202.93 C 487.87 205.12 487.66 209.32 488.67 210.33 C 489.87 211.53 505.53 211.07 506.80 209.80 Z M 346.14 200.11 C 345.11 199.45 344.82 196.32 344.92 186.88 C 345.06 173.65 345.68 172.00 350.49 172.00 C 353.18 172.00 355.00 170.18 355.00 167.50 C 355.00 163.99 357.01 163.00 364.08 163.00 C 368.87 163.00 371.12 163.43 372.03 164.54 C 372.86 165.53 373.40 169.90 373.57 176.79 C 373.91 191.19 373.49 191.82 363.25 192.21 L 355.50 192.50 L 355.19 195.50 C 354.71 200.14 349.98 202.54 346.14 200.11 Z M 515.80 180.80 C 516.46 180.14 517.00 178.33 517.00 176.78 C 517.00 173.37 512.95 170.92 510.17 172.65 C 508.10 173.95 507.44 178.62 509.05 180.56 C 510.50 182.31 514.16 182.44 515.80 180.80 Z M 267.55 160.25 C 269.07 153.12 269.25 153.00 277.92 153.00 C 286.58 153.00 287.04 153.27 287.95 158.97 C 288.45 162.08 288.91 162.54 291.76 162.81 C 294.51 163.08 295.16 162.71 296.04 160.38 C 296.62 158.88 296.95 154.96 296.79 151.68 C 296.48 145.39 295.92 144.63 290.75 143.54 C 288.03 142.97 288.00 142.87 288.00 135.05 C 288.00 129.20 287.59 126.74 286.43 125.57 C 284.59 123.73 283.99 123.67 280.57 124.98 C 278.94 125.59 278.00 126.72 278.00 128.04 C 278.00 131.47 276.10 134.00 273.54 134.00 C 270.31 134.00 268.00 136.52 268.00 140.05 C 268.00 142.99 267.47 143.33 261.50 144.22 C 259.73 144.49 259.47 145.41 259.21 152.36 C 258.88 161.14 259.73 163.00 264.10 163.00 C 266.41 163.00 267.07 162.47 267.55 160.25 Z M 324.29 132.23 C 326.44 129.86 326.48 118.62 324.35 116.49 C 322.55 114.70 318.85 114.55 317.20 116.20 C 315.61 117.79 315.61 131.21 317.20 132.80 C 318.95 134.55 322.45 134.27 324.29 132.23 Z M 421.24 121.38 C 422.29 119.07 422.16 118.54 420.10 116.88 C 415.94 113.51 412.00 115.04 412.00 120.03 C 412.00 123.46 412.64 124.00 416.69 124.00 C 419.34 124.00 420.29 123.45 421.24 121.38 Z M 286.43 94.43 C 287.29 93.56 288.00 92.02 288.00 91.00 C 288.00 89.09 285.53 86.00 283.99 86.00 C 278.85 86.00 275.88 90.88 279.07 94.07 C 281.41 96.41 284.31 96.55 286.43 94.43 Z M 345.34 74.75 C 344.91 74.06 344.69 70.88 344.85 67.67 C 345.18 60.79 343.29 57.00 339.51 57.00 C 336.25 57.00 334.40 53.62 335.88 50.37 C 336.88 48.17 337.52 48.00 344.78 48.00 C 349.53 48.00 353.07 48.47 353.80 49.20 C 354.60 50.00 355.00 54.31 355.00 62.00 C 355.00 69.69 354.60 74.00 353.80 74.80 C 352.22 76.38 346.33 76.34 345.34 74.75 Z" fill="#000" fill-rule="evenodd"/></svg>
