<svg xmlns="http://www.w3.org/2000/svg" viewBox="0 0 800 800" width="200" height="200"><circle cx="399.27" cy="399.60" r="361.98" fill="#f0ece3"/><path d="M 393.79 759.79 C 391.72 757.72 391.42 752.14 393.25 749.75 C 393.94 748.86 396.07 747.73 397.98 747.25 C 400.85 746.54 401.65 745.74 402.48 742.77 C 403.04 740.79 403.79 738.88 404.13 738.53 C 404.48 738.18 410.29 737.77 417.03 737.61 C 427.60 737.35 429.48 737.06 430.65 735.47 C 431.39 734.45 432.00 733.06 432.00 732.38 C 432.00 730.22 428.96 728.00 425.99 728.00 C 422.79 728.00 421.97 727.10 421.06 722.59 C 420.54 720.02 419.90 719.45 417.29 719.19 C 412.62 718.73 411.88 717.16 412.21 708.34 L 412.50 700.50 L 424.94 700.22 C 431.78 700.06 437.93 699.47 438.61 698.91 C 440.35 697.46 441.40 686.12 440.11 682.75 C 439.08 680.07 438.85 680.00 431.15 680.00 C 422.58 680.00 420.58 678.97 421.17 674.83 C 421.39 673.29 422.48 672.25 424.50 671.65 C 429.62 670.14 430.46 669.40 431.57 665.45 C 432.16 663.34 433.06 661.52 433.57 661.40 C 434.08 661.27 435.74 660.90 437.25 660.57 C 439.16 660.15 440.00 659.33 440.00 657.92 C 440.00 654.71 441.88 652.00 444.10 652.00 C 447.37 652.00 449.72 650.26 450.47 647.28 C 451.41 643.52 452.83 642.00 455.42 642.00 C 458.33 642.00 460.00 640.17 460.00 637.00 C 460.00 632.84 461.71 632.00 470.23 632.00 C 475.65 632.00 478.16 631.62 478.39 630.75 C 480.17 624.06 480.57 623.50 483.94 623.00 C 487.02 622.55 487.44 622.07 488.42 618.00 L 489.50 613.50 L 497.45 613.20 C 501.83 613.04 505.96 612.45 506.64 611.88 C 507.33 611.31 508.02 609.42 508.19 607.68 L 508.50 604.50 L 516.50 604.00 C 525.39 603.44 527.00 602.81 527.00 599.88 C 527.00 596.60 528.92 594.00 531.34 594.00 C 534.21 594.00 536.00 592.22 536.00 589.37 C 536.00 585.20 538.48 584.00 547.05 584.00 C 554.87 584.00 554.97 583.97 555.54 581.25 C 556.66 575.91 557.27 575.53 565.50 575.00 C 573.73 574.47 573.92 574.35 575.65 568.50 C 576.37 566.07 577.21 565.40 580.02 565.00 C 583.08 564.56 583.56 564.09 584.00 561.10 C 584.51 557.61 585.35 556.87 590.46 555.36 C 592.75 554.68 593.58 553.71 594.11 551.11 C 595.02 546.67 596.26 546.03 604.05 546.02 C 607.79 546.01 611.11 545.49 611.80 544.80 C 612.51 544.09 613.00 540.66 613.00 536.36 C 613.00 528.67 613.33 528.09 618.32 527.07 C 621.43 526.43 622.17 525.52 623.65 520.50 C 624.37 518.07 625.21 517.40 628.02 517.00 C 631.08 516.56 631.56 516.09 632.00 513.10 C 632.51 509.61 633.35 508.87 638.50 507.35 C 641.47 506.47 641.50 506.38 642.00 497.98 L 642.50 489.50 L 646.78 488.55 C 649.82 487.88 651.21 487.01 651.56 485.55 C 651.83 484.42 651.93 459.22 651.78 429.54 L 651.50 375.58 L 648.50 374.13 C 646.85 373.33 644.83 372.37 644.00 371.98 C 642.93 371.49 642.41 369.34 642.20 364.44 C 641.87 356.90 640.91 355.00 637.45 355.00 C 634.30 355.00 632.00 352.45 632.00 348.96 C 632.00 347.09 631.29 345.69 630.00 345.00 C 627.02 343.41 624.25 345.36 623.03 349.90 C 622.09 353.38 621.54 353.88 617.49 354.90 L 613.00 356.03 L 613.00 362.93 C 613.00 371.18 612.43 373.00 609.83 373.00 C 606.28 373.00 604.00 374.92 604.00 377.91 C 604.00 382.00 602.36 382.86 593.75 383.24 C 589.53 383.43 585.78 383.88 585.42 384.24 C 585.06 384.60 584.47 386.37 584.10 388.17 C 583.56 390.83 582.78 391.63 579.96 392.41 C 575.90 393.55 575.04 394.55 575.02 398.19 C 575.01 399.67 574.50 401.19 573.89 401.57 C 571.88 402.81 558.77 403.05 557.35 401.88 C 556.26 400.97 556.00 392.94 556.00 359.58 C 556.00 328.88 555.69 318.09 554.80 317.20 C 554.14 316.54 552.43 316.00 551.00 316.00 C 546.92 316.00 546.00 314.25 546.00 306.50 C 546.00 299.03 545.06 297.01 541.55 296.98 C 537.35 296.95 536.52 295.43 536.00 286.83 L 535.50 278.57 L 532.20 277.90 C 528.12 277.07 527.93 276.88 527.10 272.81 C 526.58 270.29 525.73 269.31 523.46 268.64 C 518.56 267.19 517.52 266.41 517.15 263.90 C 516.68 260.59 515.16 259.00 512.50 259.00 C 509.70 259.00 508.28 257.35 507.84 253.60 C 507.48 250.54 506.21 249.48 501.77 248.54 C 499.82 248.13 498.86 247.18 498.43 245.23 C 498.10 243.73 497.66 241.94 497.45 241.25 C 497.18 240.40 494.70 240.00 489.60 240.00 C 481.50 240.00 479.00 238.73 479.00 234.63 C 479.00 230.94 477.07 230.00 469.50 230.00 C 461.75 230.00 460.00 229.08 460.00 225.00 C 460.00 223.57 459.46 221.86 458.80 221.20 C 457.91 220.31 448.44 220.00 422.38 220.00 C 403.01 220.00 386.45 220.27 385.58 220.61 C 384.71 220.94 384.00 222.19 384.00 223.38 C 384.00 224.58 383.30 226.56 382.44 227.78 C 380.98 229.86 380.14 230.00 369.14 230.00 C 357.18 230.00 355.00 230.62 355.00 234.01 C 355.00 236.75 352.55 239.14 348.99 239.87 C 346.14 240.45 345.46 241.12 344.90 243.83 C 344.53 245.63 343.92 247.42 343.54 247.80 C 343.15 248.19 339.44 248.72 335.27 249.00 C 329.89 249.36 327.51 249.93 327.01 251.00 C 324.00 257.54 323.24 258.53 320.97 258.85 C 316.70 259.44 316.00 260.80 316.00 268.42 C 316.00 276.05 315.07 278.00 311.42 278.00 C 308.04 278.00 307.12 279.99 306.80 288.02 C 306.51 295.32 306.45 295.47 303.50 296.35 C 297.04 298.26 297.50 295.27 297.50 335.55 L 297.50 372.37 L 301.00 373.28 C 306.38 374.67 306.89 375.53 307.21 383.75 L 307.50 391.33 L 311.49 392.44 C 314.21 393.20 315.58 394.19 315.78 395.53 C 316.66 401.38 317.03 401.91 320.59 402.58 C 323.18 403.07 324.44 403.97 325.19 405.88 C 327.16 410.91 327.73 411.50 331.08 412.00 C 334.42 412.49 334.83 413.07 336.61 419.75 C 336.79 420.44 338.02 421.00 339.35 421.00 C 342.28 421.00 343.54 422.41 344.72 427.00 L 345.62 430.50 L 358.06 431.00 C 364.90 431.27 371.06 431.86 371.73 432.30 C 372.41 432.74 373.34 434.54 373.80 436.30 C 374.60 439.41 374.81 439.52 381.56 440.23 C 389.38 441.05 409.22 440.60 410.90 439.56 C 411.51 439.19 412.00 437.61 412.00 436.06 C 412.00 431.45 413.73 430.85 426.27 431.10 C 432.54 431.22 438.19 431.00 438.83 430.60 C 439.48 430.21 440.00 428.87 440.00 427.63 C 440.00 424.38 442.00 422.25 445.98 421.25 C 448.92 420.52 449.64 419.76 450.57 416.44 C 451.51 413.06 452.11 412.46 454.76 412.19 C 458.45 411.82 459.71 410.51 460.16 406.53 C 460.45 404.04 461.09 403.43 464.18 402.70 C 467.35 401.96 468.05 401.25 469.18 397.70 C 470.30 394.21 471.02 393.46 473.84 392.89 C 475.68 392.52 477.60 391.80 478.11 391.29 C 478.64 390.76 478.92 377.00 478.76 358.50 L 478.50 326.63 L 475.00 325.72 C 470.47 324.55 469.00 323.28 469.00 320.50 C 469.00 317.67 467.35 316.27 463.50 315.84 C 461.00 315.56 460.44 315.00 460.16 312.50 C 459.72 308.62 458.48 307.19 455.18 306.81 C 453.33 306.59 452.11 305.58 451.21 303.50 C 448.58 297.48 448.64 297.52 440.73 297.00 C 436.56 296.73 432.94 296.27 432.67 296.00 C 432.40 295.73 431.77 293.93 431.28 292.00 L 430.37 288.50 L 421.44 288.50 L 412.50 288.50 L 412.19 291.68 C 412.02 293.42 411.32 295.32 410.63 295.89 C 409.94 296.47 403.82 297.06 397.03 297.22 L 384.68 297.50 L 383.56 301.49 C 382.46 305.40 381.82 305.87 375.28 307.59 C 374.61 307.77 373.78 309.17 373.45 310.71 C 372.35 315.68 372.10 316.00 369.23 316.00 C 364.83 316.00 364.00 317.62 364.00 326.14 C 364.00 334.39 364.28 334.90 369.41 335.95 C 371.81 336.43 372.57 337.16 372.81 339.21 C 373.19 342.43 375.00 344.05 379.17 344.90 C 381.78 345.44 382.52 346.22 383.42 349.42 C 385.49 356.81 390.51 356.80 392.59 349.39 L 393.68 345.50 L 411.52 345.23 C 421.33 345.08 429.73 345.33 430.18 345.78 C 431.36 346.96 431.86 360.15 430.81 362.25 C 430.27 363.31 428.79 364.00 427.04 364.00 C 422.25 364.00 421.00 366.19 421.00 374.60 C 421.00 381.51 420.83 382.11 418.64 382.95 C 417.34 383.44 414.52 383.62 412.39 383.34 C 406.96 382.63 403.00 384.32 403.00 387.35 C 403.00 388.67 402.32 390.32 401.50 391.00 C 399.60 392.58 392.17 393.44 387.69 392.60 C 384.63 392.03 384.18 391.53 383.63 388.10 C 382.91 383.58 381.85 383.12 372.98 383.45 C 366.28 383.70 364.01 382.49 363.98 378.68 C 363.96 375.37 362.59 373.87 358.91 373.12 C 356.13 372.55 355.45 371.87 354.88 369.09 C 354.10 365.26 352.63 364.04 348.81 364.02 C 347.33 364.01 345.85 363.56 345.52 363.03 C 344.71 361.72 344.67 309.34 345.48 308.03 C 345.83 307.46 347.13 307.00 348.37 307.00 C 351.74 307.00 354.09 304.81 354.87 300.95 C 355.46 298.07 356.06 297.44 358.54 297.16 C 362.56 296.70 364.00 295.30 364.00 291.85 C 364.00 290.25 364.56 288.79 365.25 288.61 C 371.33 286.99 372.41 286.32 373.11 283.69 C 374.43 278.73 375.71 278.00 383.00 278.00 C 390.27 278.00 391.26 277.42 392.44 272.51 C 392.84 270.87 393.69 269.18 394.33 268.78 C 395.85 267.81 447.15 267.80 448.62 268.77 C 449.24 269.17 450.07 270.97 450.46 272.76 C 451.36 276.92 453.47 278.00 460.73 278.00 C 467.01 278.00 469.00 279.10 469.00 282.58 C 469.00 285.29 471.06 287.06 475.22 287.91 C 477.84 288.45 478.56 289.17 479.10 291.83 C 479.93 295.87 480.13 296.07 484.17 296.90 C 486.79 297.44 487.56 298.17 488.06 300.62 C 488.97 305.09 489.67 305.83 494.04 307.01 C 498.33 308.17 498.38 308.29 498.03 316.78 C 497.77 322.93 498.90 324.70 503.61 325.59 C 505.96 326.03 507.18 326.89 507.54 328.36 C 507.83 329.54 507.93 344.21 507.78 360.97 L 507.50 391.44 L 503.69 392.51 C 501.60 393.09 499.47 394.23 498.96 395.04 C 498.45 395.84 498.02 399.71 498.02 403.64 C 498.00 411.25 497.50 412.00 492.48 412.00 C 489.79 412.00 488.94 413.04 488.05 417.41 C 487.57 419.81 486.84 420.57 484.79 420.81 C 481.58 421.19 480.45 422.44 479.28 426.98 C 478.49 430.04 477.88 430.56 474.20 431.29 C 470.76 431.97 469.90 432.60 469.42 434.81 C 468.38 439.58 468.10 440.00 465.97 440.00 C 462.36 440.00 460.00 441.89 459.98 444.79 C 459.96 449.61 458.79 450.31 450.58 450.47 C 446.40 450.55 442.48 451.12 441.88 451.72 C 441.28 452.32 440.48 454.32 440.10 456.16 L 439.42 459.50 L 416.50 460.00 L 393.58 460.50 L 392.90 463.84 C 392.52 465.68 391.79 467.61 391.26 468.14 C 390.74 468.66 386.76 468.96 382.43 468.79 C 373.86 468.47 374.43 468.91 372.39 461.25 C 372.15 460.31 367.71 460.00 354.50 460.00 C 341.29 460.00 336.85 459.69 336.61 458.75 C 334.97 452.58 334.32 451.61 331.14 450.54 C 327.44 449.30 325.00 446.62 325.00 443.78 C 325.00 441.37 320.58 439.74 315.50 440.26 C 310.03 440.83 307.00 439.59 306.98 436.77 C 306.96 433.41 305.93 432.39 301.50 431.36 L 297.50 430.43 L 297.20 422.51 C 297.04 418.16 296.45 414.04 295.88 413.36 C 295.31 412.67 293.42 411.98 291.68 411.81 C 288.91 411.54 288.44 411.06 288.00 408.10 C 287.73 406.24 286.82 404.40 286.00 404.02 C 285.18 403.63 283.15 402.67 281.50 401.88 L 278.50 400.43 L 278.00 388.47 C 277.73 381.88 277.16 375.97 276.74 375.33 C 276.32 374.68 274.52 373.84 272.74 373.45 C 270.96 373.06 269.17 372.24 268.77 371.62 C 267.89 370.28 267.74 300.85 268.61 298.58 C 268.95 297.68 270.37 297.00 271.92 297.00 C 277.36 297.00 277.94 295.64 278.23 282.02 L 278.50 269.54 L 281.50 268.66 C 286.65 267.13 287.49 266.39 288.00 262.90 C 288.43 260.00 288.94 259.45 291.50 259.17 C 293.15 258.99 294.95 258.41 295.50 257.88 C 296.05 257.34 296.73 253.23 297.00 248.73 L 297.50 240.55 L 301.75 239.72 C 305.25 239.03 306.09 238.42 306.56 236.19 C 307.65 230.95 308.32 230.52 315.60 230.23 C 322.90 229.94 326.00 228.06 326.00 223.92 C 326.00 221.87 328.79 220.00 331.88 220.00 C 334.21 220.00 335.08 218.84 335.95 214.59 C 336.57 211.51 336.59 211.50 344.50 211.00 C 353.09 210.46 352.32 210.99 356.02 203.00 C 356.56 201.82 359.44 201.39 369.39 201.00 C 379.18 200.61 382.30 200.16 383.03 199.00 C 383.55 198.18 383.79 196.98 383.56 196.35 C 383.33 195.71 383.67 194.47 384.32 193.58 C 385.38 192.14 389.81 192.00 427.00 192.24 L 468.50 192.50 L 468.83 195.50 C 469.01 197.15 469.59 198.95 470.12 199.50 C 470.66 200.05 476.80 200.72 483.79 201.00 L 496.48 201.50 L 497.79 204.50 C 500.15 209.90 500.67 210.50 503.28 210.81 C 506.48 211.19 507.73 212.65 508.16 216.50 C 508.44 219.00 509.00 219.56 511.50 219.84 C 515.37 220.27 517.00 221.68 517.00 224.55 C 517.00 229.51 518.79 230.00 537.04 230.00 C 552.89 230.00 554.00 229.88 555.00 228.01 C 555.63 226.82 555.95 221.27 555.78 214.36 C 555.48 201.85 555.62 202.15 549.50 200.35 C 547.08 199.63 546.44 198.84 546.19 196.24 C 545.94 193.66 545.33 192.89 543.19 192.41 C 537.58 191.17 536.99 190.80 536.41 188.18 C 535.10 182.28 534.90 182.00 531.97 182.00 C 528.90 182.00 527.00 179.75 527.00 176.12 C 527.00 173.19 525.39 172.56 516.50 172.00 L 508.50 171.50 L 508.16 168.50 C 507.61 163.62 506.46 163.00 497.94 163.00 C 489.43 163.00 488.96 162.72 488.04 157.03 L 487.47 153.50 L 474.59 153.00 C 460.81 152.46 460.74 152.44 459.54 146.75 L 458.96 144.00 L 417.02 144.00 C 376.57 144.00 375.03 144.07 374.04 145.93 C 373.47 147.00 373.00 148.75 373.00 149.83 C 373.00 152.62 371.25 153.00 358.54 153.00 C 346.21 153.00 345.78 153.18 344.28 159.00 L 343.38 162.50 L 335.77 163.00 C 331.58 163.28 327.80 163.86 327.36 164.30 C 326.93 164.74 326.10 166.54 325.53 168.30 C 324.51 171.48 324.46 171.50 317.04 171.80 C 308.92 172.12 307.00 173.03 307.00 176.55 C 307.00 180.62 304.50 182.00 297.13 182.00 C 290.04 182.00 288.01 182.99 287.98 186.45 C 287.96 189.77 286.45 191.24 282.39 191.90 C 279.07 192.44 278.49 192.94 277.90 195.81 C 277.07 199.88 276.88 200.07 272.81 200.90 C 270.29 201.42 269.31 202.27 268.64 204.54 C 267.17 209.51 266.40 210.49 263.72 210.81 C 260.69 211.17 259.32 212.60 258.85 215.90 C 258.47 218.49 257.05 219.55 252.71 220.47 C 251.17 220.79 249.77 221.61 249.59 222.28 C 247.84 228.94 247.43 229.50 243.98 230.00 L 240.50 230.50 L 240.00 238.98 C 239.50 247.38 239.47 247.47 236.50 248.35 C 230.38 250.16 230.54 249.79 230.00 263.39 C 229.47 276.74 229.02 277.95 224.45 277.98 C 219.98 278.02 220.00 277.80 220.00 331.14 C 220.00 367.72 219.69 382.08 218.87 382.58 C 217.40 383.49 194.60 383.49 193.13 382.58 C 192.51 382.20 191.99 380.67 191.98 379.19 C 191.96 374.02 191.18 373.71 177.51 373.52 C 164.15 373.32 163.05 372.94 163.02 368.45 C 162.99 365.66 161.12 364.00 158.00 364.00 C 154.86 364.00 153.00 362.33 153.00 359.50 C 153.00 358.35 152.46 356.86 151.80 356.20 C 150.21 354.61 136.79 354.61 135.20 356.20 C 134.32 357.08 134.00 365.53 134.00 388.00 C 134.00 420.10 134.12 420.98 138.45 421.02 C 143.37 421.05 143.47 421.47 144.00 445.67 L 144.50 468.42 L 147.88 469.11 C 149.74 469.49 151.64 470.41 152.11 471.15 C 152.58 471.89 152.98 477.76 152.98 484.19 C 153.00 496.83 152.97 496.76 159.00 498.53 L 162.50 499.56 L 162.79 507.12 C 163.16 516.73 162.67 517.18 152.34 516.79 L 144.50 516.50 L 144.16 513.50 C 143.71 509.51 142.31 508.00 139.08 508.00 C 135.86 508.00 134.00 509.65 134.00 512.50 C 134.00 516.07 132.01 517.00 124.34 517.00 C 118.03 517.00 116.92 517.27 115.97 519.05 C 113.66 523.37 115.46 526.24 121.25 527.46 C 123.33 527.90 124.00 528.63 124.00 530.44 C 124.00 535.58 124.68 536.00 133.04 536.00 C 143.31 536.00 144.00 536.69 144.00 546.96 C 144.00 553.17 144.33 554.91 145.58 555.39 C 148.29 556.43 178.01 556.06 180.07 554.96 C 181.15 554.38 182.00 552.88 182.00 551.54 C 182.00 547.44 184.48 546.00 191.50 546.00 C 198.51 546.00 201.00 547.45 201.00 551.51 C 201.00 554.83 202.40 555.43 211.50 556.00 L 219.50 556.50 L 219.81 559.68 C 219.98 561.42 220.68 563.32 221.37 563.89 C 222.06 564.47 228.21 565.06 235.04 565.22 L 247.46 565.50 L 248.34 568.50 C 249.84 573.54 250.60 574.49 253.41 574.82 C 256.92 575.24 259.00 573.45 259.00 570.00 C 259.00 565.26 260.38 564.93 278.60 565.23 L 295.44 565.50 L 296.48 569.21 C 297.83 574.04 299.13 575.23 302.61 574.83 C 304.79 574.58 305.67 573.79 306.35 571.50 C 308.22 565.17 306.86 565.52 330.27 565.23 C 353.57 564.94 355.00 565.24 355.00 570.37 C 355.00 573.20 356.78 575.00 359.58 575.00 C 362.33 575.00 363.73 576.68 364.16 580.50 C 364.45 583.06 365.00 583.57 367.90 584.00 C 369.76 584.27 371.60 585.17 371.98 586.00 C 375.12 592.79 375.68 593.45 378.82 594.10 C 380.62 594.47 382.34 595.00 382.62 595.29 C 382.91 595.57 383.15 612.06 383.17 631.93 C 383.19 658.94 382.89 668.43 381.98 669.53 C 381.11 670.57 378.68 671.00 373.58 671.00 C 365.93 671.00 364.00 670.07 364.00 666.38 C 364.00 662.72 362.91 661.00 360.58 661.00 C 357.58 661.00 355.21 658.98 354.82 656.10 C 354.49 653.60 353.45 652.81 348.59 651.37 C 346.32 650.69 345.43 649.61 344.56 646.50 C 343.69 643.39 342.89 642.42 340.97 642.15 C 337.50 641.67 336.30 640.43 335.58 636.56 C 334.80 632.43 333.76 632.00 324.44 632.00 C 317.17 632.00 317.03 631.95 316.46 629.25 C 315.33 623.90 314.73 623.52 306.90 623.20 C 302.83 623.04 299.06 622.46 298.51 621.91 C 297.96 621.36 297.05 619.25 296.48 617.21 L 295.44 613.50 L 278.54 613.23 C 260.94 612.94 259.00 612.48 259.00 608.58 C 259.00 604.24 257.75 604.00 235.00 604.00 C 212.25 604.00 211.00 604.24 211.00 608.58 C 211.00 611.33 212.68 612.73 216.49 613.16 C 219.04 613.45 219.56 614.01 220.05 617.03 C 220.79 621.68 221.70 623.00 224.12 623.00 C 227.40 623.00 230.00 624.92 230.00 627.34 C 230.00 630.21 231.78 632.00 234.63 632.00 C 238.70 632.00 240.00 634.51 240.00 642.37 C 240.00 650.34 240.89 652.00 245.20 652.00 C 246.74 652.00 248.09 652.11 248.19 652.25 C 248.30 652.39 248.63 660.59 248.94 670.48 L 249.50 688.46 L 252.50 689.34 C 258.76 691.20 258.48 690.34 258.77 708.48 C 258.97 720.24 258.70 725.66 257.87 726.66 C 256.99 727.72 254.65 728.00 248.60 727.79 L 240.50 727.50 L 240.16 724.50 C 239.62 719.70 238.41 719.00 230.63 718.98 C 226.71 718.98 222.87 718.57 222.11 718.09 C 221.34 717.60 220.44 715.47 220.10 713.35 L 219.47 709.50 L 211.28 709.00 C 206.78 708.73 202.66 708.05 202.12 707.50 C 201.59 706.95 201.01 705.15 200.83 703.50 C 200.55 701.00 200.00 700.44 197.50 700.16 C 193.49 699.71 192.00 698.31 192.00 695.00 C 192.00 691.83 190.72 690.57 186.51 689.56 C 183.12 688.75 182.04 687.47 182.02 684.29 C 181.99 681.18 179.15 680.00 171.69 680.00 C 164.86 680.00 163.44 679.21 162.85 675.10 C 162.47 672.51 161.04 671.44 156.77 670.54 C 154.81 670.13 153.87 669.19 153.46 667.23 C 152.54 662.87 151.47 661.53 148.50 661.00 C 145.54 660.47 144.46 659.12 143.57 654.88 C 143.13 652.73 142.31 652.14 139.03 651.62 C 135.70 651.09 134.94 650.52 134.46 648.24 C 133.52 643.80 132.50 642.58 129.10 641.89 C 125.04 641.06 124.81 640.80 124.08 636.26 C 123.55 632.92 123.12 632.47 120.31 632.19 C 115.87 631.76 115.14 630.41 114.80 622.06 C 114.48 614.27 114.36 614.08 108.50 612.35 C 106.07 611.63 105.40 610.79 105.00 607.98 C 104.56 604.93 104.11 604.46 101.32 604.19 C 99.58 604.02 97.69 603.33 97.12 602.64 C 96.55 601.96 95.96 597.84 95.80 593.47 C 95.50 585.62 95.47 585.53 92.50 584.65 C 87.56 583.19 86.52 582.41 86.15 579.90 C 85.65 576.42 84.14 575.00 80.91 575.00 C 76.68 575.00 75.86 572.44 76.11 560.01 C 76.34 548.20 75.60 546.00 71.41 546.00 C 69.08 546.00 67.00 543.48 67.00 540.64 C 67.00 538.38 69.84 536.00 72.54 536.00 C 75.67 536.00 77.32 532.96 76.02 529.57 C 75.10 527.13 74.68 527.00 67.60 527.00 C 57.18 527.00 57.00 526.74 57.00 511.96 C 57.00 501.23 56.81 499.97 55.07 499.04 C 54.00 498.47 52.25 498.00 51.17 498.00 C 50.10 498.00 48.94 497.29 48.61 496.42 C 48.27 495.55 47.99 487.56 47.98 478.67 C 47.98 469.78 47.64 462.04 47.23 461.49 C 46.83 460.93 45.15 460.02 43.50 459.46 L 40.50 458.45 L 40.50 402.58 C 40.50 341.53 40.01 346.95 45.75 344.14 C 47.32 343.38 47.56 340.88 48.05 320.39 C 48.35 307.80 48.69 297.39 48.80 297.25 C 48.91 297.11 49.93 297.00 51.07 297.00 C 52.20 297.00 54.00 296.53 55.07 295.96 C 56.81 295.03 57.00 293.77 57.00 283.04 C 57.00 269.87 57.75 268.00 63.01 268.00 C 66.84 268.00 67.48 266.64 67.15 259.30 C 66.83 252.20 68.11 249.01 71.29 248.98 C 75.67 248.95 76.42 247.60 76.17 240.17 C 75.90 232.52 77.21 230.00 81.45 230.00 C 85.14 230.00 86.43 227.48 86.20 220.65 C 85.96 213.35 86.65 212.02 91.11 211.11 C 93.71 210.58 94.68 209.75 95.36 207.46 C 96.83 202.49 97.60 201.51 100.28 201.19 C 104.11 200.73 104.87 199.15 105.20 190.98 C 105.49 183.68 105.55 183.53 108.50 182.65 C 113.56 181.16 114.43 180.43 115.11 177.10 C 115.92 173.13 116.14 172.92 120.17 172.10 C 122.79 171.56 123.56 170.83 124.06 168.38 C 124.97 163.91 125.80 163.00 128.94 163.00 C 132.25 163.00 133.52 161.68 134.46 157.25 C 134.99 154.79 135.81 153.86 137.83 153.44 C 142.29 152.51 143.48 151.44 144.00 147.90 C 144.44 144.94 144.91 144.46 147.68 144.19 C 151.45 143.83 152.71 142.53 153.16 138.52 C 153.42 136.20 154.17 135.34 156.50 134.65 C 161.56 133.16 162.43 132.43 163.11 129.10 C 163.93 125.13 164.13 124.92 168.20 124.10 C 171.02 123.52 171.57 122.92 172.00 119.98 C 172.40 117.21 173.09 116.37 175.50 115.65 C 180.58 114.15 181.43 113.42 182.13 110.03 C 183.02 105.68 184.29 105.03 192.05 105.02 C 199.30 105.00 201.00 104.01 201.00 99.82 C 201.00 97.59 201.55 96.92 203.75 96.45 C 209.27 95.27 211.00 94.11 211.00 91.59 C 211.00 87.35 213.42 86.00 221.04 86.00 C 228.38 86.00 230.00 84.92 230.00 80.04 C 230.00 77.25 233.56 76.00 241.46 76.00 C 248.03 76.00 249.00 75.35 249.00 70.98 C 249.00 68.00 250.78 67.53 264.00 67.00 L 276.50 66.50 L 277.79 62.53 C 278.51 60.35 279.63 58.22 280.30 57.80 C 280.96 57.37 286.70 57.02 293.05 57.02 C 305.53 57.00 307.00 56.46 307.00 51.91 C 307.00 50.37 307.68 48.95 308.58 48.61 C 309.45 48.27 317.54 48.00 326.55 48.00 C 341.72 48.00 343.01 47.86 343.96 46.07 C 344.53 45.00 345.00 43.19 345.00 42.04 C 345.00 40.69 345.95 39.59 347.70 38.92 C 351.13 37.62 389.05 37.88 390.72 39.22 C 391.40 39.76 392.23 41.73 392.59 43.61 C 393.37 47.77 393.92 47.93 409.00 48.25 L 420.50 48.50 L 420.84 51.50 C 421.39 56.38 422.54 57.00 431.09 57.00 C 440.48 57.00 441.61 55.88 440.63 47.52 C 439.85 40.89 441.26 38.71 446.01 39.17 C 448.98 39.46 449.52 39.93 450.10 42.80 C 450.47 44.62 451.08 46.42 451.46 46.80 C 451.85 47.19 458.07 47.73 465.29 48.00 L 478.42 48.50 L 479.05 51.59 C 480.14 56.93 480.31 57.00 492.99 57.00 C 505.75 57.00 508.02 57.80 507.98 62.32 C 507.96 65.59 506.88 66.64 502.76 67.40 C 499.90 67.93 498.87 68.67 498.40 70.56 C 497.64 73.56 499.45 76.00 502.43 76.00 C 505.98 76.00 508.21 78.25 507.84 81.45 C 507.65 83.02 506.82 84.61 506.00 84.99 C 498.12 88.61 498.52 88.09 498.21 95.17 C 497.88 102.45 499.24 105.00 503.45 105.00 C 506.32 105.00 507.73 103.37 508.16 99.50 C 508.44 97.00 509.00 96.44 511.50 96.16 C 515.38 95.72 516.81 94.48 517.19 91.21 C 517.48 88.71 518.22 88.12 524.99 84.99 C 525.80 84.61 526.86 82.65 527.34 80.64 C 528.83 74.31 536.00 74.66 536.00 81.06 C 536.00 84.20 536.91 85.03 541.96 86.52 C 544.78 87.35 545.56 88.17 546.11 90.90 C 546.87 94.58 548.37 95.96 551.63 95.98 C 554.33 96.00 555.73 97.71 556.16 101.50 C 556.45 104.07 556.99 104.57 559.98 105.00 C 562.79 105.40 563.63 106.07 564.35 108.50 C 565.85 113.57 566.58 114.43 569.94 115.12 C 571.72 115.49 573.61 116.21 574.14 116.74 C 574.66 117.26 574.96 120.98 574.80 124.99 C 574.48 132.72 574.35 132.92 568.50 134.65 C 566.17 135.34 565.42 136.20 565.16 138.52 C 564.71 142.53 563.45 143.83 559.68 144.19 C 556.69 144.48 556.50 144.74 556.50 148.50 C 556.50 152.30 556.67 152.52 559.98 153.00 C 563.44 153.50 563.80 153.99 565.61 160.77 C 565.97 162.10 566.67 162.43 571.29 163.45 C 574.14 164.07 574.37 164.40 575.45 169.31 C 576.01 171.85 576.42 172.09 579.78 171.81 C 583.09 171.53 583.54 171.17 583.84 168.50 C 584.29 164.47 585.54 163.17 589.32 162.81 C 592.04 162.54 592.69 161.93 593.80 158.53 C 595.23 154.14 596.41 153.04 599.71 153.02 C 603.16 152.99 604.00 155.97 604.00 168.23 C 604.00 175.74 604.41 180.01 605.20 180.80 C 606.96 182.56 620.43 182.39 621.92 180.59 C 622.65 179.72 622.98 176.40 622.80 171.86 C 622.51 164.69 622.44 164.52 619.50 163.65 C 613.38 161.84 613.54 162.21 613.00 148.61 C 612.47 135.20 612.02 134.05 607.36 134.02 C 605.16 134.00 604.00 132.26 604.00 128.99 C 604.00 125.22 601.31 124.00 592.95 124.00 C 585.35 124.00 585.01 123.90 584.41 121.50 C 583.52 117.94 584.50 116.15 587.71 115.47 C 592.54 114.45 593.49 113.47 593.81 109.15 L 594.11 105.00 L 585.76 105.00 C 576.61 105.00 575.00 104.23 575.00 99.82 C 575.00 97.59 574.45 96.92 572.25 96.45 C 566.36 95.19 565.00 94.17 565.00 91.00 C 565.00 87.10 568.08 85.80 576.32 86.21 C 582.60 86.52 582.97 86.79 584.65 92.50 C 585.34 94.83 586.20 95.58 588.52 95.84 C 592.68 96.31 594.00 97.71 594.00 101.62 L 594.00 105.00 L 602.44 105.00 C 611.41 105.00 611.89 105.24 612.93 110.32 C 613.57 113.43 614.48 114.17 619.50 115.65 C 621.93 116.37 622.60 117.21 623.00 120.02 C 623.43 123.01 623.93 123.55 626.50 123.84 C 630.49 124.29 632.00 125.69 632.00 128.92 C 632.00 132.18 633.66 134.00 636.63 134.00 C 639.53 134.00 642.00 136.53 642.00 139.51 C 642.00 142.21 643.03 143.05 647.40 143.95 C 650.37 144.56 650.91 145.37 652.61 151.75 C 652.79 152.44 654.27 153.00 655.91 153.00 C 659.19 153.00 660.02 153.88 660.93 158.32 C 661.57 161.43 662.48 162.17 667.50 163.65 C 669.93 164.37 670.60 165.21 671.00 168.02 C 671.43 171.01 671.93 171.55 674.50 171.84 C 678.49 172.29 680.00 173.69 680.00 176.92 C 680.00 180.16 681.65 182.00 684.55 182.00 C 689.01 182.00 690.00 184.75 690.00 197.13 C 690.00 209.55 690.54 211.00 695.14 211.00 C 698.20 211.00 699.03 211.93 699.94 216.38 C 700.44 218.83 701.21 219.56 703.83 220.10 C 705.63 220.47 707.42 221.08 707.80 221.46 C 708.19 221.85 708.73 225.83 709.00 230.31 C 709.49 238.34 709.54 238.47 712.50 239.35 C 717.44 240.81 718.48 241.59 718.85 244.10 C 719.35 247.59 720.87 249.00 724.10 249.00 C 727.46 249.00 727.87 250.13 728.25 260.49 L 728.50 267.47 L 732.35 268.10 C 734.47 268.44 736.63 269.34 737.15 270.11 C 737.66 270.87 737.95 276.60 737.79 282.83 C 737.44 296.60 737.74 297.00 748.49 297.00 C 752.69 297.00 756.09 297.49 756.80 298.20 C 758.54 299.94 758.54 495.06 756.80 496.80 C 756.09 497.51 752.69 498.00 748.49 498.00 C 737.89 498.00 737.47 498.51 737.84 511.15 C 738.20 523.63 737.22 527.00 733.22 527.00 C 728.49 527.00 728.00 528.36 728.00 541.58 C 728.00 554.77 727.70 555.58 722.50 556.16 L 719.50 556.50 L 719.00 564.79 C 718.48 573.44 717.65 574.95 713.45 574.98 C 710.81 575.00 709.00 576.84 709.00 579.50 C 709.00 582.16 707.19 584.00 704.55 584.02 C 700.43 584.05 699.74 585.39 699.87 593.14 C 699.93 597.19 699.59 601.13 699.10 601.89 C 698.61 602.66 696.49 603.56 694.39 603.90 C 691.04 604.45 690.49 604.93 689.89 607.89 C 689.14 611.55 687.64 612.96 684.45 612.98 C 680.86 613.01 680.00 615.00 680.00 623.23 C 680.00 628.65 679.62 631.16 678.75 631.39 C 672.03 633.18 671.50 633.57 671.00 637.00 C 670.60 639.79 669.92 640.63 667.50 641.35 C 662.44 642.84 661.57 643.58 660.89 646.90 C 660.07 650.87 659.87 651.08 655.80 651.90 C 653.07 652.46 652.45 653.08 652.19 655.54 C 652.02 657.17 651.14 659.06 650.25 659.75 C 648.13 661.38 634.82 661.42 633.20 659.80 C 632.50 659.10 632.00 655.77 632.00 651.88 C 632.00 643.71 631.42 642.00 628.64 641.98 C 623.98 641.95 623.53 640.80 623.00 627.39 C 622.46 613.79 622.62 614.16 616.50 612.35 C 613.57 611.48 613.49 611.29 613.00 603.78 C 612.46 595.49 611.49 593.64 607.97 594.17 C 605.51 594.53 604.43 596.00 603.54 600.23 C 603.14 602.18 602.18 603.15 600.23 603.58 C 594.27 604.90 594.00 605.10 594.00 608.01 C 594.00 611.83 592.84 612.41 584.02 613.00 C 576.74 613.49 576.52 613.58 575.65 616.50 C 574.14 621.63 573.39 622.49 570.22 622.81 C 566.54 623.18 565.29 624.50 564.84 628.50 L 564.50 631.50 L 556.21 632.00 C 547.49 632.53 546.05 633.34 546.02 637.71 C 545.99 640.83 543.15 642.00 535.60 642.00 C 528.68 642.00 527.00 643.15 527.00 647.88 C 527.00 650.78 525.45 651.38 516.50 651.97 L 508.50 652.50 L 508.19 655.68 C 507.83 659.45 506.53 660.71 502.53 661.16 C 500.11 661.44 499.36 662.15 498.53 665.00 C 496.83 670.78 496.46 671.00 488.50 671.00 C 480.64 671.00 480.09 671.31 479.05 676.40 C 478.51 679.03 477.87 679.57 474.61 680.10 C 470.49 680.77 469.04 682.23 469.02 685.71 C 469.00 688.08 466.38 690.00 463.17 690.00 C 461.04 690.00 460.00 691.82 460.00 695.55 C 460.00 698.08 457.46 700.00 454.10 700.00 C 451.15 700.00 450.01 702.96 450.27 709.97 C 450.52 716.71 449.02 719.00 444.34 719.00 C 440.39 719.00 439.88 721.78 440.44 740.35 C 440.86 754.25 440.69 758.05 439.56 759.58 C 438.26 761.37 436.67 761.50 416.87 761.54 C 397.73 761.57 395.39 761.39 393.79 759.79 Z M 412.67 631.33 C 411.56 630.23 411.92 625.48 413.20 624.20 C 413.86 623.54 415.34 623.00 416.50 623.00 C 419.33 623.00 421.00 621.14 421.00 618.00 C 421.00 614.86 419.33 613.00 416.50 613.00 C 412.55 613.00 412.00 611.21 412.00 598.42 C 412.00 585.25 411.69 584.43 406.54 583.84 C 404.09 583.56 403.45 582.93 402.90 580.20 C 402.06 576.03 401.82 575.82 397.26 575.08 C 393.78 574.52 393.42 574.14 392.42 569.99 C 391.44 565.93 391.01 565.45 387.95 565.00 C 384.99 564.56 384.42 563.99 383.44 560.50 L 382.33 556.50 L 374.46 556.20 C 365.74 555.88 364.00 555.02 364.00 551.08 C 364.00 547.86 362.35 546.00 359.50 546.00 C 355.92 546.00 355.00 544.01 355.00 536.28 C 355.00 528.35 354.77 528.05 347.87 526.58 C 342.34 525.41 344.12 517.00 349.90 517.00 C 353.31 517.00 354.71 515.54 355.16 511.50 C 355.47 508.72 355.80 508.50 359.50 508.50 C 363.20 508.50 363.53 508.72 363.84 511.50 C 364.46 517.00 364.44 517.00 388.60 517.00 L 410.96 517.00 L 411.44 514.75 C 411.71 513.51 412.06 511.60 412.22 510.50 C 412.51 508.61 413.49 508.47 430.41 508.00 C 449.61 507.46 448.87 507.68 450.97 501.78 C 452.09 498.62 456.23 497.11 458.54 499.03 C 459.80 500.08 460.00 503.17 459.77 517.85 L 459.50 535.42 L 456.05 536.12 C 449.81 537.40 449.93 536.49 450.03 580.30 C 450.10 609.02 449.81 620.53 448.97 621.53 C 448.22 622.44 445.18 623.02 440.18 623.21 C 431.89 623.52 432.42 623.12 430.39 630.75 C 430.04 632.08 413.95 632.61 412.67 631.33 Z M 94.80 544.80 C 95.46 544.14 96.00 542.40 96.00 540.92 C 96.00 537.69 97.51 536.29 101.50 535.84 C 103.98 535.56 104.56 534.99 104.84 532.55 C 105.32 528.27 102.94 527.00 94.42 527.00 C 86.05 527.00 86.00 527.05 86.00 536.51 C 86.00 540.95 86.47 543.33 87.57 544.43 C 89.44 546.29 93.12 546.48 94.80 544.80 Z M 86.39 525.42 C 87.86 521.60 84.71 517.00 80.64 517.00 C 78.27 517.00 76.00 519.89 76.00 522.90 C 76.00 526.57 76.58 527.00 81.56 527.00 C 84.49 527.00 85.97 526.52 86.39 525.42 Z M 85.43 362.43 C 88.75 359.11 85.83 354.69 80.64 355.20 C 76.91 355.56 74.75 359.79 76.95 362.44 C 78.62 364.45 83.41 364.45 85.43 362.43 Z M 650.43 295.43 C 652.10 293.75 652.37 292.13 651.39 289.58 C 650.91 288.33 649.18 288.00 643.14 287.98 C 638.94 287.98 634.87 287.57 634.11 287.09 C 633.34 286.60 632.44 284.47 632.10 282.35 L 631.47 278.50 L 623.64 278.21 C 618.73 278.02 615.29 278.35 614.41 279.08 C 613.43 279.89 613.00 282.50 613.00 287.57 C 613.00 293.50 613.34 295.10 614.75 295.92 C 615.74 296.49 623.56 296.95 632.68 296.97 C 646.08 296.99 649.13 296.73 650.43 295.43 Z M 611.07 238.96 C 615.00 236.86 612.70 230.00 608.07 230.00 C 605.10 230.00 604.00 231.45 604.00 235.38 C 604.00 239.45 607.16 241.05 611.07 238.96 Z M 603.44 207.70 C 604.70 204.11 603.22 201.61 599.59 201.18 C 596.05 200.76 594.00 202.56 594.00 206.07 C 594.00 211.50 601.65 212.82 603.44 207.70 Z M 315.80 120.41 C 316.17 116.62 313.99 114.54 310.54 115.40 C 307.22 116.23 305.58 119.34 307.03 122.06 C 307.89 123.67 308.93 124.05 311.82 123.81 C 315.12 123.53 315.53 123.18 315.80 120.41 Z M 544.42 114.39 C 546.78 113.49 546.52 107.35 544.07 106.04 C 543.00 105.47 537.35 105.00 531.50 105.00 C 525.65 105.00 520.00 105.47 518.93 106.04 C 516.74 107.21 516.30 111.90 518.20 113.80 C 519.46 115.06 541.38 115.56 544.42 114.39 Z M 286.43 94.43 C 287.49 93.36 288.00 91.02 287.99 87.18 C 287.97 79.91 287.22 77.20 285.02 76.51 C 282.16 75.60 278.00 77.69 278.00 80.04 C 278.00 84.92 276.38 86.00 269.04 86.00 C 261.53 86.00 259.00 87.36 259.00 91.37 C 259.00 95.43 260.73 96.00 273.13 96.00 C 282.46 96.00 285.18 95.68 286.43 94.43 Z M 353.43 94.43 C 354.29 93.56 355.00 91.78 355.00 90.46 C 355.00 87.23 357.70 86.00 364.81 86.00 C 371.16 86.00 372.12 85.41 373.70 80.51 C 374.42 78.27 375.56 77.27 378.25 76.51 C 380.22 75.95 382.17 75.17 382.57 74.76 C 382.98 74.36 383.41 71.04 383.54 67.40 C 383.86 58.41 382.46 57.00 373.20 57.00 C 365.94 57.00 364.00 57.98 364.00 61.62 C 364.00 66.50 363.21 67.00 355.58 67.00 C 344.84 67.00 344.74 67.14 344.94 82.04 C 345.05 90.45 345.48 94.69 346.30 95.21 C 348.29 96.47 351.76 96.10 353.43 94.43 Z" fill="#000" fill-rule="evenodd"/></svg>
