<svg xmlns="http://www.w3.org/2000/svg" viewBox="0 0 1600 1600" width="200" height="200"><defs><clipPath id="rim"><circle cx="797.22" cy="799.74" r="712.39"/></clipPath></defs><circle cx="797.22" cy="799.74" r="723.24" fill="#f0ece3"/><path d="M 806.78 1522.97 C 774.28 1517.90 793.02 1480.33 831.00 1474.42 C 855.70 1470.57 857.02 1463.96 837.48 1442.00 C 816.73 1418.69 822.52 1402.05 852.61 1398.55 C 871.29 1396.38 878.00 1391.50 878.00 1380.10 C 877.99 1371.17 875.07 1367.27 863.00 1360.06 C 845.29 1349.49 849.05 1342.75 900.66 1292.64 C 923.73 1270.24 927.27 1267.62 940.00 1263.50 C 950.34 1260.16 955.06 1256.99 967.41 1245.08 C 980.96 1232.03 984.77 1229.46 996.50 1225.51 C 1004.15 1222.93 1007.90 1221.01 1019.89 1213.52 C 1022.85 1211.67 1029.38 1208.73 1034.39 1206.99 C 1046.70 1202.71 1048.72 1201.35 1062.00 1188.44 C 1075.64 1175.19 1080.27 1172.08 1092.39 1168.03 C 1097.40 1166.36 1103.97 1163.44 1107.00 1161.55 C 1119.09 1153.99 1122.86 1152.07 1131.31 1149.10 C 1143.23 1144.92 1145.64 1143.08 1167.28 1121.58 C 1187.63 1101.36 1192.81 1097.44 1206.81 1091.63 C 1218.05 1086.98 1221.45 1083.40 1225.92 1071.55 C 1230.11 1060.47 1232.03 1057.99 1255.05 1033.93 C 1277.24 1010.74 1278.79 1008.70 1283.02 997.11 C 1286.69 987.05 1287.71 985.04 1294.06 975.31 C 1303.07 961.50 1302.50 969.20 1302.50 862.00 C 1302.50 753.75 1303.24 762.59 1292.94 747.07 C 1289.45 741.81 1285.42 734.03 1283.46 728.76 C 1269.17 690.31 1239.99 690.69 1225.97 729.50 C 1218.80 749.36 1206.09 761.73 1186.50 767.93 C 1176.23 771.18 1172.47 773.74 1158.66 786.85 C 1141.12 803.50 1132.14 806.79 1121.41 800.50 C 1111.44 794.66 1111.57 795.71 1110.97 718.00 C 1110.37 640.22 1111.12 646.85 1101.38 632.36 C 1097.83 627.08 1094.40 620.23 1092.01 613.65 C 1089.78 607.50 1086.21 600.25 1083.26 595.88 C 1077.02 586.63 1074.36 581.41 1071.34 572.52 C 1065.05 554.03 998.17 486.84 980.16 480.91 C 971.58 478.09 965.24 474.89 956.52 468.97 C 952.66 466.35 945.57 462.82 940.76 461.14 C 930.13 457.40 928.40 456.52 918.11 449.63 C 905.63 441.28 907.69 441.50 842.00 441.50 C 776.35 441.51 782.05 440.79 766.50 450.97 C 756.40 457.58 750.49 459.55 738.00 460.47 C 721.05 461.72 717.08 463.68 699.80 479.32 C 686.24 491.59 683.20 493.66 673.00 497.48 C 651.76 505.45 639.91 516.87 632.90 536.13 C 629.81 544.62 627.21 549.80 620.69 560.38 C 618.70 563.62 615.60 570.37 613.81 575.38 C 611.71 581.28 608.38 587.69 604.39 593.54 C 593.98 608.80 594.58 604.56 594.21 665.88 C 593.80 733.14 593.61 731.71 605.42 748.98 C 608.48 753.45 611.90 760.26 613.87 765.77 C 619.08 780.35 622.61 784.69 658.69 820.69 C 698.67 860.59 698.13 860.22 718.05 862.02 C 731.73 863.26 736.33 864.72 747.38 871.37 C 768.80 884.25 801.75 884.62 822.28 872.21 C 834.32 864.94 838.80 863.31 849.03 862.52 C 872.86 860.68 871.42 861.64 914.58 818.54 C 962.00 771.18 958.00 780.34 957.99 719.11 C 957.99 657.70 960.38 664.20 924.59 628.38 C 897.22 600.98 894.76 599.04 881.00 594.05 C 876.33 592.35 868.45 588.52 863.50 585.54 C 846.20 575.11 838.17 575.22 822.34 586.11 C 815.23 591.00 809.05 592.90 796.71 593.98 C 776.47 595.76 774.49 596.87 751.82 619.14 C 723.86 646.63 723.20 655.78 747.46 679.54 C 768.63 700.26 773.41 702.07 788.76 695.16 C 808.91 686.09 845.40 686.44 855.37 695.80 C 863.92 703.82 862.92 714.95 852.33 729.79 C 849.78 733.36 846.26 739.93 844.51 744.39 C 838.23 760.36 837.41 761.24 822.42 767.84 C 816.41 770.48 808.16 774.74 804.08 777.29 C 790.76 785.63 781.19 785.80 769.03 777.94 C 760.53 772.45 754.82 769.71 745.23 766.55 C 731.12 761.90 699.68 733.00 692.70 718.26 C 688.35 709.07 687.60 635.19 691.76 624.92 C 698.39 608.53 748.14 561.57 765.34 555.46 C 769.62 553.94 775.45 551.26 778.31 549.50 C 801.04 535.49 795.57 536.69 839.00 536.25 C 885.77 535.78 886.96 535.97 903.05 546.67 C 906.72 549.11 914.40 552.92 920.11 555.13 C 942.82 563.93 989.20 610.43 997.06 632.29 C 998.79 637.12 1002.41 644.43 1005.09 648.54 C 1016.41 665.89 1016.21 664.50 1015.82 722.00 C 1015.45 774.36 1015.77 772.08 1007.31 784.55 C 1002.06 792.30 999.26 797.89 996.37 806.37 C 992.26 818.46 989.82 821.39 953.60 857.63 C 916.33 894.93 914.20 896.71 901.54 900.99 C 891.97 904.22 888.53 905.91 880.55 911.32 C 869.08 919.08 868.11 919.27 834.50 920.08 C 800.08 920.91 798.55 921.20 786.38 929.15 C 769.26 940.34 763.67 940.15 743.50 927.65 C 734.22 921.90 729.74 920.94 709.50 920.37 C 681.58 919.58 679.25 918.59 658.06 898.55 C 647.00 888.10 642.87 885.39 632.26 881.62 C 612.07 874.45 600.01 862.93 593.44 844.54 C 588.35 830.30 587.09 828.30 574.97 815.36 C 558.59 797.85 556.61 793.90 555.00 775.51 C 553.83 762.12 552.55 758.40 545.30 747.31 C 535.84 732.83 536.50 738.57 536.50 670.50 C 536.50 601.99 535.76 608.07 545.99 592.50 C 552.24 583.00 555.00 575.22 555.01 567.04 C 555.03 551.27 558.50 543.89 573.32 528.13 C 586.50 514.11 589.00 510.33 593.07 498.28 C 599.18 480.23 612.59 466.59 631.04 459.70 C 642.50 455.41 647.42 452.35 657.38 443.32 C 672.43 429.68 678.58 425.37 687.79 422.02 C 698.02 418.30 700.59 416.99 709.79 410.79 C 719.36 404.35 722.73 403.27 738.76 401.49 C 753.66 399.84 756.75 398.77 768.13 391.32 C 780.61 383.15 776.82 383.50 853.00 383.50 C 928.93 383.50 924.70 383.11 937.19 391.22 C 948.56 398.59 952.69 399.99 967.73 401.56 C 988.26 403.71 989.45 404.42 1015.99 430.49 C 1045.19 459.17 1044.85 459.00 1072.50 459.00 C 1101.76 459.00 1108.24 454.89 1110.59 434.87 C 1112.71 416.78 1109.59 411.45 1078.59 380.20 C 1050.04 351.42 1047.84 349.67 1034.21 344.94 C 1029.10 343.17 1022.35 340.14 1019.21 338.20 C 1008.72 331.74 1003.21 328.95 996.27 326.59 C 987.56 323.63 984.34 321.95 974.77 315.40 C 965.68 309.18 962.98 308.29 949.00 306.96 C 934.65 305.58 930.00 304.05 919.21 297.13 C 905.14 288.12 908.96 288.50 833.50 288.50 C 758.94 288.50 761.72 288.25 749.33 296.17 C 736.27 304.52 733.90 305.29 716.10 306.99 C 704.13 308.13 699.54 309.92 687.41 318.21 C 682.84 321.33 676.31 324.72 672.41 326.00 C 664.10 328.74 659.79 330.82 650.29 336.70 C 646.32 339.15 638.54 342.89 633.01 345.00 C 627.44 347.12 618.78 351.53 613.64 354.86 C 608.53 358.17 600.25 362.42 595.24 364.30 C 578.77 370.50 575.93 372.95 520.10 428.93 C 487.19 461.92 485.11 464.52 479.59 479.58 C 477.20 486.11 473.81 492.74 469.96 498.39 C 463.02 508.59 461.45 513.43 460.06 528.87 C 458.92 541.52 457.19 546.34 450.05 556.82 C 440.83 570.31 441.57 561.85 441.00 661.00 C 440.54 741.02 440.35 748.83 438.78 752.31 C 433.60 763.75 428.37 766.47 411.50 766.46 C 397.58 766.45 396.20 766.00 382.47 756.97 C 372.46 750.38 367.53 748.86 350.57 747.12 C 337.06 745.73 331.53 742.87 317.50 730.01 C 298.06 712.19 290.94 709.12 280.32 713.94 C 269.54 718.83 268.84 723.02 269.20 779.58 C 269.54 831.05 269.37 829.82 277.34 840.90 C 281.23 846.33 284.73 852.82 286.27 857.47 C 286.81 859.14 287.58 874.00 287.97 890.50 C 288.77 924.68 288.84 925.01 298.02 939.52 C 304.09 949.10 305.60 954.04 306.91 968.50 C 308.10 981.68 309.60 986.28 315.36 994.37 C 333.99 1020.55 319.70 1041.72 292.00 1028.97 C 278.48 1022.74 254.58 1028.60 243.90 1040.77 C 235.80 1050.00 246.51 1064.62 266.66 1071.83 C 279.29 1076.34 282.84 1079.62 287.66 1091.25 C 294.78 1108.43 298.89 1110.50 326.00 1110.50 C 347.09 1110.50 351.33 1109.58 361.79 1102.74 C 379.97 1090.84 386.03 1090.85 404.25 1102.77 C 408.94 1105.83 415.67 1109.06 421.25 1110.92 C 427.10 1112.87 434.28 1116.36 440.77 1120.41 C 452.09 1127.46 455.51 1128.54 471.07 1129.95 C 482.62 1131.00 483.38 1131.22 496.36 1137.18 C 506.95 1142.04 510.17 1141.96 520.98 1136.51 C 539.54 1127.16 569.95 1127.05 589.50 1136.26 C 601.59 1141.95 605.41 1141.95 617.50 1136.26 C 630.03 1130.36 632.19 1130.05 661.54 1130.02 C 701.29 1129.99 698.20 1128.51 734.08 1164.70 C 770.55 1201.49 767.17 1190.91 766.79 1267.18 C 766.43 1338.05 766.03 1339.50 746.57 1339.50 C 736.44 1339.50 735.33 1338.66 699.79 1303.92 C 665.29 1270.21 664.13 1269.27 651.93 1265.14 C 641.94 1261.77 639.34 1260.49 629.71 1254.20 C 625.63 1251.54 618.23 1248.03 612.67 1246.11 C 605.86 1243.76 599.93 1240.77 593.34 1236.36 C 581.14 1228.21 577.64 1227.31 555.28 1226.57 C 533.72 1225.85 529.12 1224.71 517.39 1217.19 C 503.82 1208.48 504.19 1208.56 474.00 1208.53 C 424.18 1208.48 421.37 1215.29 456.49 1251.00 C 473.80 1268.61 475.69 1271.36 480.44 1285.73 C 482.05 1290.61 485.36 1297.32 488.58 1302.23 C 496.35 1314.08 497.99 1320.09 498.03 1336.86 C 498.09 1361.57 499.25 1366.08 509.59 1381.50 C 517.27 1392.95 518.28 1397.74 517.80 1420.39 C 517.03 1456.61 504.77 1463.69 475.09 1445.05 C 471.56 1442.83 466.16 1440.11 463.09 1438.99 C 460.01 1437.87 455.59 1436.26 453.26 1435.40 C 450.93 1434.55 444.84 1431.04 439.71 1427.62 C 433.46 1423.44 427.29 1420.32 420.95 1418.13 C 407.57 1413.50 403.73 1410.61 381.91 1388.74 C 361.11 1367.89 358.48 1365.94 344.01 1360.56 C 330.12 1355.39 326.88 1352.71 289.62 1315.54 C 235.94 1261.98 234.40 1260.17 229.09 1243.89 C 226.03 1234.53 222.77 1229.89 209.72 1216.31 C 197.41 1203.52 195.59 1200.71 190.86 1187.20 C 186.69 1175.32 185.33 1173.35 171.35 1158.86 C 155.07 1141.99 153.91 1139.54 152.04 1118.20 C 151.16 1108.10 150.56 1105.77 146.42 1096.26 C 141.38 1084.69 141.58 1086.70 143.58 1067.39 C 144.36 1059.92 143.27 1058.60 133.02 1054.58 C 119.77 1049.38 115.84 1043.05 114.07 1024.00 C 112.87 1011.07 111.65 1007.55 104.54 996.35 C 96.79 984.15 95.97 980.68 95.03 956.19 C 94.15 933.27 94.12 933.13 86.16 917.50 C 78.83 903.11 79.02 906.08 79.02 805.00 C 79.02 703.43 78.78 707.01 86.47 691.50 C 89.47 685.45 92.46 679.15 93.12 677.50 C 93.90 675.55 94.58 663.62 95.05 643.50 C 95.89 607.95 96.13 606.63 104.17 594.38 C 111.04 583.91 112.84 578.85 114.03 566.70 C 115.54 551.28 116.69 547.53 122.64 538.80 C 129.35 528.95 131.33 525.06 135.10 514.37 C 136.76 509.68 140.53 501.94 143.49 497.17 C 146.45 492.40 150.24 484.79 151.91 480.25 C 155.69 470.00 157.04 467.37 163.26 458.12 C 166.00 454.07 169.53 447.18 171.12 442.83 C 175.86 429.84 178.28 426.03 190.05 412.97 C 203.95 397.54 205.09 395.82 209.89 383.16 C 215.61 368.09 213.65 370.27 292.45 291.37 C 369.20 214.54 368.22 215.42 383.62 209.69 C 394.50 205.65 398.11 203.23 412.92 190.05 C 425.95 178.45 429.18 176.37 441.00 171.91 C 445.68 170.15 453.20 166.32 457.73 163.39 C 468.17 156.64 470.02 155.70 480.02 152.05 C 484.54 150.40 492.19 146.60 497.01 143.60 C 508.33 136.56 512.67 135.17 526.88 134.01 C 541.23 132.84 544.53 131.72 555.70 124.22 C 567.68 116.19 568.97 115.76 586.34 114.01 C 599.04 112.73 602.59 111.48 614.00 104.28 C 625.71 96.90 629.46 96.00 652.74 95.07 C 675.37 94.16 677.56 93.58 690.40 85.15 C 703.02 76.87 705.04 76.50 737.00 76.50 C 769.07 76.50 771.57 76.92 782.79 84.27 C 795.41 92.53 798.95 93.78 814.25 95.38 C 829.21 96.95 833.41 98.39 844.91 105.85 C 859.41 115.26 870.39 113.74 878.20 101.26 C 885.39 89.77 886.84 88.13 890.87 86.92 C 895.08 85.66 894.68 85.57 910.31 91.45 C 914.94 93.19 921.36 94.45 930.44 95.40 C 945.18 96.95 948.78 98.18 959.93 105.45 C 968.86 111.28 972.19 112.45 985.45 114.42 C 1004.67 117.28 1007.54 120.33 1006.44 136.82 C 1005.97 143.73 1006.23 148.79 1007.32 154.50 C 1009.06 163.62 1008.60 167.45 1004.68 176.66 C 993.81 202.15 1008.23 206.20 1031.33 184.14 C 1064.61 152.35 1062.19 151.82 1112.63 201.72 C 1157.19 245.80 1158.11 248.71 1135.41 273.25 C 1115.26 295.04 1116.51 305.66 1141.67 326.24 C 1156.27 338.17 1162.13 337.99 1178.37 325.12 C 1196.96 310.39 1206.05 313.31 1208.07 334.69 C 1209.98 354.93 1215.75 362.19 1228.73 360.73 C 1245.25 358.86 1247.43 341.40 1233.30 324.12 C 1226.22 315.47 1225.05 312.12 1225.01 300.50 C 1224.92 276.85 1215.11 261.78 1192.15 250.01 C 1184.90 246.30 1181.21 243.78 1179.84 241.60 C 1177.80 238.36 1177.80 238.87 1179.62 219.79 C 1180.37 212.01 1180.53 212.16 1168.73 209.53 C 1147.56 204.81 1132.25 184.09 1145.03 177.48 C 1155.96 171.83 1171.19 181.45 1180.17 199.68 C 1185.06 209.62 1182.15 208.23 1203.73 210.90 C 1220.30 212.95 1216.30 209.49 1309.27 302.40 C 1380.81 373.90 1378.06 370.40 1379.99 392.35 C 1381.58 410.58 1383.34 414.06 1399.43 430.93 C 1411.30 443.37 1413.90 447.36 1417.98 459.44 C 1421.96 471.21 1423.60 473.63 1436.98 487.50 C 1450.52 501.52 1452.05 503.81 1456.61 516.77 C 1458.49 522.12 1461.45 528.75 1463.19 531.50 C 1474.49 549.43 1474.62 549.76 1475.98 565.28 C 1477.62 583.94 1480.95 588.26 1498.03 593.87 C 1505.74 596.40 1511.21 600.60 1514.28 606.35 C 1517.28 611.96 1518.37 969.77 1515.42 979.93 C 1513.03 988.14 1507.79 992.85 1496.61 996.87 C 1480.89 1002.52 1477.72 1006.87 1475.98 1025.23 C 1474.68 1038.93 1473.19 1043.56 1467.12 1052.83 C 1459.51 1064.44 1458.08 1068.42 1456.93 1081.20 C 1455.67 1095.19 1454.11 1100.82 1449.38 1108.50 C 1442.69 1119.36 1439.96 1124.75 1437.50 1132.00 C 1434.10 1142.00 1432.11 1144.88 1419.21 1158.41 C 1406.58 1171.67 1403.21 1176.78 1399.43 1188.50 C 1395.73 1199.98 1393.42 1203.38 1380.59 1216.34 C 1367.70 1229.37 1365.45 1232.71 1360.95 1245.50 C 1355.95 1259.70 1354.16 1262.00 1327.08 1289.10 C 1287.36 1328.84 1274.77 1331.05 1263.05 1300.36 C 1261.34 1295.88 1258.16 1289.46 1255.98 1286.09 C 1247.74 1273.35 1246.50 1269.63 1245.08 1253.39 C 1243.92 1240.21 1242.61 1236.61 1235.15 1226.06 C 1232.04 1221.67 1227.56 1214.65 1225.19 1210.46 C 1217.93 1197.65 1212.05 1197.17 1198.43 1208.28 C 1186.59 1217.94 1179.69 1222.58 1174.38 1224.47 C 1161.01 1229.22 1153.64 1233.80 1142.14 1244.49 C 1128.07 1257.58 1123.97 1260.42 1113.86 1264.11 C 1104.00 1267.71 1099.53 1269.96 1090.88 1275.72 C 1087.17 1278.19 1079.52 1281.95 1073.88 1284.09 C 1067.91 1286.36 1059.84 1290.47 1054.56 1293.94 C 1049.05 1297.57 1041.98 1301.14 1036.50 1303.06 C 1021.62 1308.29 1020.01 1309.39 1001.50 1327.01 C 991.86 1336.19 988.99 1337.99 976.93 1342.47 C 954.23 1350.91 908.70 1396.64 900.98 1418.75 C 898.76 1425.11 895.80 1430.79 891.38 1437.17 C 880.69 1452.61 880.45 1453.59 880.80 1479.83 C 881.21 1510.42 878.93 1516.91 866.14 1521.58 C 860.77 1523.55 817.02 1524.57 806.78 1522.97 Z M 842.80 1260.97 C 835.10 1259.64 832.97 1255.32 833.71 1242.52 C 834.26 1232.92 834.43 1233.63 827.49 1217.10 C 825.46 1212.28 824.47 1207.42 823.47 1197.33 C 821.42 1176.86 821.75 1177.38 791.20 1146.71 C 763.48 1118.89 759.93 1116.04 748.45 1112.39 C 729.57 1106.40 716.68 1094.44 710.08 1076.81 C 708.37 1072.24 704.84 1064.08 702.24 1058.67 C 690.42 1034.15 707.08 1017.09 732.32 1027.87 C 745.56 1033.53 751.75 1034.27 781.39 1033.76 C 809.95 1033.27 810.59 1033.14 823.14 1024.90 C 835.98 1016.48 838.45 1015.86 862.50 1015.02 C 883.50 1014.29 883.50 1014.29 893.50 1010.46 C 914.65 1002.36 920.00 1007.93 920.00 1038.00 C 920.00 1053.67 918.51 1060.99 913.80 1068.50 C 900.47 1089.74 901.74 1080.66 901.07 1159.50 C 900.37 1242.87 901.42 1238.62 879.43 1247.09 C 875.08 1248.76 867.70 1252.33 863.01 1255.02 C 853.66 1260.40 848.43 1261.94 842.80 1260.97 Z M 187.68 1078.93 C 204.35 1072.62 197.11 1053.39 179.82 1058.05 C 170.46 1060.57 174.14 1079.01 184.18 1079.94 C 184.56 1079.97 186.14 1079.52 187.68 1078.93 Z M 1267.99 590.93 C 1281.73 588.70 1285.80 585.00 1280.25 579.80 C 1255.67 556.75 1239.01 552.39 1231.29 566.98 C 1222.02 584.51 1239.05 595.63 1267.99 590.93 Z M 1071.78 223.44 C 1076.97 219.81 1072.55 215.57 1063.57 215.57 C 1054.60 215.57 1049.91 220.62 1056.01 223.71 C 1059.55 225.50 1069.07 225.34 1071.78 223.44 Z M 561.50 186.12 C 573.05 180.81 573.11 165.00 561.58 165.00 C 556.63 165.00 541.09 173.66 537.56 178.38 C 532.13 185.66 549.96 191.42 561.50 186.12 Z M 720.78 174.80 C 747.41 164.31 761.96 151.56 763.66 137.24 C 765.84 118.82 747.80 111.63 730.28 123.94 C 722.63 129.31 715.48 133.11 709.50 134.97 C 696.04 139.17 691.50 145.61 691.50 160.50 C 691.50 182.19 696.21 184.49 720.78 174.80 Z" fill="#000" fill-rule="evenodd" clip-path="url(#rim)"/></svg>
