<svg xmlns="http://www.w3.org/2000/svg" viewBox="0 0 1600 1600" width="200" height="200"><defs><clipPath id="rim"><circle cx="797.35" cy="799.60" r="712.53"/></clipPath></defs><circle cx="797.35" cy="799.60" r="723.38" fill="#f0ece3"/><path d="M 652.05 1522.86 C 644.97 1521.69 638.98 1518.10 634.28 1512.22 C 622.29 1497.24 619.66 1496.19 591.23 1495.11 C 569.35 1494.27 565.68 1493.31 555.14 1485.63 C 549.64 1481.62 542.88 1478.20 534.11 1474.99 C 530.60 1473.71 524.30 1470.41 520.11 1467.67 C 512.43 1462.64 504.55 1458.72 495.64 1455.51 C 486.93 1452.36 482.74 1447.39 477.90 1434.46 C 472.87 1421.02 468.34 1419.05 440.00 1418.04 C 412.09 1417.04 409.84 1416.13 390.92 1398.24 C 377.88 1385.91 374.00 1383.37 362.32 1379.55 C 350.65 1375.74 349.42 1374.70 308.59 1334.16 C 215.31 1241.52 214.97 1241.16 210.67 1228.50 C 206.65 1216.68 203.55 1211.79 191.93 1198.91 C 178.10 1183.57 176.90 1181.78 172.20 1169.44 C 170.12 1163.97 166.15 1156.12 163.36 1152.00 C 156.92 1142.46 155.60 1139.87 151.93 1129.47 C 150.28 1124.79 146.26 1116.62 142.99 1111.31 C 139.64 1105.89 135.90 1098.14 134.44 1093.62 C 131.29 1083.89 129.99 1081.25 124.51 1073.50 C 117.31 1063.30 115.87 1059.60 114.81 1048.58 C 113.24 1032.21 111.59 1026.51 105.89 1017.83 C 95.88 1002.59 95.75 1001.96 94.96 966.50 C 94.22 932.81 94.23 932.89 87.71 920.63 C 78.77 903.83 79.57 914.32 79.23 809.51 C 78.88 702.99 78.60 707.40 86.63 691.04 C 94.50 675.02 94.20 676.75 95.02 643.00 C 95.88 608.02 96.15 606.60 104.17 594.38 C 111.17 583.72 112.77 579.04 114.00 565.80 C 115.35 551.21 116.79 547.07 124.54 535.48 C 131.96 524.38 132.63 522.37 134.07 507.07 C 135.76 489.11 137.86 485.06 155.18 466.35 C 166.16 454.48 168.17 451.32 173.10 438.15 C 174.82 433.56 178.18 426.95 180.56 423.46 C 185.88 415.69 189.17 409.23 191.48 402.00 C 195.95 388.04 196.41 387.50 248.45 335.17 C 299.49 283.84 306.23 277.62 315.25 273.49 C 321.34 270.70 329.27 268.93 330.96 269.98 C 333.16 271.34 337.26 292.94 336.57 299.48 C 334.17 322.01 334.45 323.11 346.27 336.62 C 349.70 340.53 354.92 346.53 357.88 349.95 C 365.71 358.99 369.69 359.53 375.95 352.41 C 381.83 345.71 382.50 341.01 382.50 306.50 C 382.50 265.99 380.72 260.00 366.94 254.07 C 360.40 251.26 360.40 251.28 363.33 236.50 C 366.89 218.50 369.18 215.70 385.76 209.07 C 395.56 205.15 398.67 203.00 412.57 190.46 C 425.86 178.48 428.46 176.78 440.65 172.14 C 446.10 170.06 454.07 165.99 458.36 163.09 C 482.26 146.97 497.32 153.60 499.00 180.99 C 500.15 199.74 504.61 206.32 519.00 210.46 C 520.38 210.86 526.00 213.28 531.50 215.84 C 546.67 222.90 553.50 221.77 563.88 210.51 C 580.89 192.06 573.16 175.75 546.12 173.05 C 513.90 169.84 508.94 151.73 533.62 127.42 C 542.31 118.86 548.70 115.89 560.87 114.75 C 574.62 113.47 582.76 111.43 588.50 107.83 C 591.25 106.10 595.56 103.39 598.09 101.80 C 606.38 96.56 610.94 95.88 643.00 95.05 C 676.48 94.18 676.13 94.25 689.04 85.98 C 704.70 75.94 698.38 76.62 779.50 76.23 C 870.02 75.79 870.39 75.84 878.71 88.81 C 880.71 91.94 883.27 95.92 884.38 97.66 C 889.01 104.86 893.37 105.43 906.14 100.50 C 917.21 96.22 926.62 95.02 949.03 95.01 C 977.06 94.99 983.51 96.32 996.95 104.86 C 1007.40 111.50 1011.19 112.77 1024.18 114.00 C 1039.03 115.40 1043.43 116.90 1054.91 124.46 C 1060.18 127.93 1067.65 131.90 1071.50 133.28 C 1081.52 136.88 1083.59 137.87 1092.30 143.25 C 1096.59 145.90 1104.91 149.92 1110.80 152.17 C 1117.42 154.70 1124.89 158.55 1130.38 162.25 C 1136.26 166.21 1142.81 169.53 1149.73 172.04 C 1155.49 174.13 1163.23 177.86 1166.94 180.32 C 1175.66 186.12 1182.26 189.43 1189.04 191.42 C 1201.55 195.09 1202.31 195.77 1278.75 272.00 C 1400.42 393.33 1394.02 386.38 1400.13 403.70 C 1404.20 415.25 1406.40 418.46 1419.64 432.23 C 1431.61 444.67 1434.52 449.21 1438.62 461.76 C 1439.96 465.87 1443.06 472.34 1445.51 476.12 C 1454.19 489.54 1455.31 492.80 1456.91 509.17 C 1458.16 521.98 1459.96 527.07 1466.89 537.34 C 1469.79 541.63 1473.68 549.27 1475.55 554.32 C 1480.09 566.58 1483.96 570.32 1496.88 574.92 C 1508.36 579.00 1513.13 583.20 1515.47 591.25 C 1518.51 601.70 1517.20 997.08 1514.11 1003.36 C 1511.28 1009.10 1505.96 1012.86 1496.11 1016.10 C 1481.28 1020.98 1477.59 1026.07 1475.92 1043.94 C 1473.46 1070.31 1457.18 1089.00 1433.96 1092.13 C 1411.59 1095.14 1392.50 1092.24 1380.42 1084.01 C 1362.21 1071.60 1348.60 1073.32 1337.51 1089.42 C 1329.47 1101.09 1333.85 1107.51 1351.83 1110.42 C 1370.72 1113.47 1374.53 1116.16 1379.79 1130.10 C 1383.96 1141.14 1387.09 1145.96 1397.09 1156.69 C 1414.12 1174.98 1413.98 1182.08 1396.20 1201.40 C 1386.65 1211.78 1383.98 1216.16 1378.93 1229.75 C 1375.17 1239.83 1370.18 1246.61 1357.35 1259.06 C 1337.51 1278.32 1329.23 1279.16 1320.91 1262.79 C 1315.14 1251.43 1308.87 1247.70 1293.50 1246.48 C 1282.74 1245.63 1275.95 1243.86 1267.03 1239.58 C 1253.59 1233.14 1231.42 1238.66 1228.15 1249.27 C 1215.37 1290.70 1245.90 1326.97 1273.68 1303.36 C 1288.63 1290.67 1300.00 1291.26 1300.00 1304.73 C 1300.00 1313.54 1296.70 1318.17 1272.38 1343.48 C 1244.55 1372.44 1242.07 1374.44 1227.03 1379.93 C 1215.41 1384.17 1211.97 1386.44 1199.50 1398.08 C 1186.73 1410.00 1181.23 1413.75 1171.28 1417.33 C 1158.95 1421.78 1154.60 1424.57 1142.86 1435.58 C 1124.16 1453.13 1120.38 1455.01 1100.00 1456.93 C 1086.91 1458.16 1083.27 1459.44 1072.35 1466.63 C 1067.01 1470.15 1059.70 1473.80 1053.45 1476.06 C 1047.28 1478.30 1040.21 1481.82 1035.52 1484.99 C 1022.33 1493.89 1021.13 1494.22 999.21 1495.10 C 971.08 1496.24 970.24 1496.58 955.27 1513.23 C 949.95 1519.15 944.93 1521.73 936.29 1522.98 C 927.62 1524.23 659.66 1524.12 652.05 1522.86 Z M 886.38 1472.79 C 889.07 1471.87 894.26 1469.13 897.91 1466.70 C 912.85 1456.76 912.52 1456.83 947.50 1456.02 C 981.90 1455.22 982.82 1455.04 996.91 1446.00 C 1001.41 1443.11 1009.62 1438.99 1015.14 1436.85 C 1020.70 1434.69 1029.14 1430.33 1034.06 1427.07 C 1044.91 1419.87 1049.36 1418.37 1063.61 1417.09 C 1077.16 1415.87 1080.58 1414.74 1092.41 1407.58 C 1097.49 1404.50 1105.37 1400.63 1109.90 1398.98 C 1122.54 1394.36 1124.86 1392.89 1137.11 1381.65 C 1166.77 1354.44 1168.00 1351.70 1168.00 1312.84 C 1168.00 1284.24 1167.49 1280.42 1162.14 1268.50 C 1157.07 1257.24 1157.18 1252.42 1162.78 1240.20 C 1171.97 1220.14 1170.99 1206.00 1159.20 1188.77 C 1149.34 1174.36 1149.18 1165.88 1158.47 1150.50 C 1163.86 1141.57 1166.05 1137.03 1169.49 1127.60 C 1172.36 1119.74 1176.82 1115.67 1187.30 1111.32 C 1201.21 1105.56 1206.00 1099.46 1206.00 1087.53 C 1206.00 1076.82 1202.33 1074.63 1182.00 1073.21 C 1159.78 1071.66 1155.33 1068.85 1149.11 1052.48 C 1147.31 1047.76 1143.47 1040.43 1140.58 1036.20 C 1134.06 1026.67 1132.81 1024.27 1129.09 1014.08 C 1127.46 1009.61 1123.58 1001.94 1120.46 997.03 C 1117.32 992.07 1113.12 983.52 1111.02 977.80 C 1108.95 972.13 1105.62 964.14 1103.62 960.03 C 1098.90 950.29 1098.95 946.97 1103.95 936.09 C 1114.44 913.30 1108.00 903.68 1080.50 901.06 C 1062.47 899.33 1059.93 897.62 1026.00 864.42 C 1011.00 849.74 1007.65 847.35 997.50 844.02 C 989.51 841.40 982.30 837.96 976.50 834.00 C 958.55 821.76 949.68 823.87 926.74 845.86 C 911.61 860.36 908.23 861.93 888.78 863.47 C 878.15 864.31 873.76 865.82 862.89 872.40 C 847.73 881.59 848.29 881.50 805.00 881.50 C 761.70 881.50 761.27 881.43 747.00 872.51 C 734.10 864.45 731.69 863.87 707.88 863.08 C 681.60 862.22 680.27 861.67 661.38 843.97 C 640.09 824.01 630.82 822.08 613.47 834.02 C 604.74 840.03 599.28 841.84 585.35 843.39 C 565.74 845.56 561.99 848.08 555.97 863.14 C 549.82 878.54 543.28 885.96 527.77 895.13 C 520.69 899.32 517.53 901.96 513.39 907.14 C 500.36 923.46 490.60 922.07 468.32 900.71 C 453.76 886.76 452.07 885.57 441.76 882.09 C 429.39 877.91 426.22 875.97 414.60 865.48 C 395.54 848.26 390.15 839.99 391.37 829.77 C 393.30 813.53 393.30 813.08 391.46 808.26 C 387.97 799.11 377.43 790.10 366.00 786.49 C 362.98 785.53 355.39 782.75 349.14 780.30 C 337.78 775.85 337.78 775.85 327.06 776.54 C 313.66 777.41 311.81 776.16 304.52 761.38 C 296.00 744.11 284.60 734.12 266.39 727.96 C 261.65 726.36 254.20 722.76 249.82 719.95 C 230.87 707.79 219.22 709.40 212.57 725.11 C 207.79 736.39 205.00 741.97 201.29 747.69 C 199.08 751.10 196.04 756.95 194.54 760.69 C 193.04 764.44 189.56 772.88 186.80 779.46 C 179.04 797.98 180.18 802.25 197.49 819.61 C 212.42 834.58 218.57 836.48 232.34 830.38 C 243.52 825.43 245.02 825.04 256.95 824.04 C 267.41 823.17 267.41 823.17 273.49 816.62 C 292.96 795.67 311.39 799.10 341.21 829.24 C 361.68 849.93 362.55 851.45 364.47 869.70 C 366.97 893.51 371.19 898.05 392.69 900.04 C 407.37 901.41 411.99 902.93 422.50 909.87 C 428.61 913.90 434.87 916.98 442.00 919.45 C 447.77 921.45 455.60 924.98 459.39 927.30 C 463.18 929.61 470.37 933.52 475.37 936.00 C 490.43 943.47 491.58 947.64 483.89 967.00 C 481.37 973.33 478.55 980.58 477.62 983.13 C 476.69 985.67 473.25 991.93 469.97 997.04 C 466.70 1002.15 462.62 1009.97 460.90 1014.41 C 456.94 1024.70 454.97 1028.53 450.03 1035.58 C 441.67 1047.51 441.69 1047.37 440.99 1093.00 C 440.28 1138.88 440.72 1136.19 431.54 1150.65 C 419.33 1169.90 417.27 1235.71 428.14 1259.31 C 434.10 1272.23 434.18 1275.26 428.94 1287.51 C 423.25 1300.83 423.19 1305.32 428.58 1317.01 C 432.79 1326.13 432.86 1326.77 431.85 1348.00 C 431.19 1362.00 441.58 1373.23 461.00 1379.50 C 470.75 1382.65 474.28 1385.06 486.50 1396.95 C 503.56 1413.55 506.98 1415.31 525.35 1417.01 C 540.42 1418.41 545.13 1419.94 555.58 1426.87 C 566.71 1434.24 571.14 1435.74 585.53 1437.00 C 598.91 1438.18 603.65 1439.79 614.38 1446.83 C 625.53 1454.15 629.04 1454.97 653.09 1455.91 C 676.43 1456.81 677.52 1457.12 692.28 1466.78 C 697.25 1470.03 701.94 1472.25 705.28 1472.92 C 708.15 1473.51 711.40 1474.17 712.50 1474.39 C 719.63 1475.87 881.78 1474.37 886.38 1472.79 Z M 295.76 1163.01 C 305.06 1157.34 305.57 1142.35 296.67 1136.52 C 280.92 1126.20 263.00 1145.68 275.33 1159.72 C 280.38 1165.47 289.35 1166.91 295.76 1163.01 Z M 503.50 860.55 C 519.44 853.88 518.19 831.40 501.60 826.47 C 473.61 818.16 450.34 840.05 469.39 856.77 C 475.73 862.34 494.30 864.40 503.50 860.55 Z M 795.75 838.03 C 798.08 836.97 802.03 834.70 804.53 832.98 C 813.62 826.73 819.13 824.92 833.47 823.48 C 848.50 821.98 852.23 820.70 864.00 812.99 C 868.12 810.29 875.65 806.54 880.71 804.66 C 894.84 799.41 897.52 797.40 920.82 774.63 C 944.51 751.48 946.84 749.84 959.66 747.43 C 976.25 744.31 978.11 743.78 981.01 741.34 C 986.67 736.58 985.23 730.53 975.59 718.50 C 964.57 704.76 963.73 699.82 969.99 685.90 C 975.84 672.92 975.95 671.90 975.98 631.84 C 976.00 589.53 975.92 589.00 967.09 575.23 C 964.18 570.70 960.28 562.68 958.36 557.27 C 953.45 543.51 953.07 542.98 931.97 521.14 C 909.21 497.56 905.10 492.25 900.52 480.45 C 893.90 463.41 889.65 461.24 860.50 460.05 C 837.61 459.11 836.02 458.71 823.78 450.67 C 804.70 438.14 786.37 437.99 767.73 450.23 C 756.07 457.89 753.27 458.84 737.57 460.52 C 716.06 462.82 712.31 465.60 665.07 514.16 C 638.44 541.53 636.89 543.53 633.00 555.50 C 630.25 563.95 628.32 567.90 622.57 576.79 C 614.33 589.53 614.50 588.10 614.50 643.00 C 614.50 698.37 613.99 694.75 623.91 709.86 C 626.67 714.07 630.59 722.01 632.61 727.51 C 638.03 742.26 639.84 744.45 677.20 781.69 C 717.89 822.25 716.19 821.08 738.21 823.38 C 752.60 824.89 759.54 827.13 766.64 832.54 C 776.50 840.06 786.94 842.03 795.75 838.03 Z M 1047.11 663.91 C 1049.10 662.92 1052.80 659.79 1055.33 656.98 C 1070.80 639.77 1050.58 628.42 1034.00 645.00 C 1020.11 658.89 1029.67 672.68 1047.11 663.91 Z M 280.02 502.25 C 287.89 492.28 278.79 483.99 258.97 483.08 C 246.43 482.50 246.43 482.50 237.11 477.12 C 224.01 469.56 218.59 469.67 215.99 477.54 C 212.63 487.71 220.09 493.17 238.50 494.01 C 251.50 494.61 251.50 494.61 261.00 499.79 C 272.34 505.97 276.65 506.53 280.02 502.25 Z M 618.10 436.86 C 635.29 431.11 631.11 405.00 613.00 405.00 C 595.97 405.00 590.71 428.04 605.97 435.75 C 611.00 438.29 613.23 438.49 618.10 436.86 Z M 679.59 346.40 C 695.82 337.74 696.13 336.51 684.37 327.15 C 672.14 317.42 670.02 313.38 670.01 299.80 C 669.99 281.50 663.25 271.00 651.50 271.00 C 633.95 271.00 630.23 289.42 644.02 308.02 C 650.72 317.07 651.94 320.38 653.01 332.60 C 654.91 354.28 659.93 356.88 679.59 346.40 Z M 516.88 332.46 C 529.44 324.15 527.71 313.61 512.59 306.36 C 507.59 303.96 499.90 299.98 495.50 297.51 C 478.10 287.76 466.60 295.02 476.40 309.57 C 491.00 331.26 505.94 339.70 516.88 332.46 Z M 1128.50 333.11 C 1152.59 322.01 1153.28 290.53 1129.43 290.51 C 1121.10 290.50 1098.50 301.17 1097.38 305.64 C 1093.56 320.84 1114.68 339.48 1128.50 333.11 Z M 1088.55 296.31 C 1095.26 289.60 1080.66 263.67 1068.04 259.89 C 1057.82 256.83 1044.43 267.55 1046.53 277.12 C 1048.30 285.19 1083.57 301.29 1088.55 296.31 Z M 335.55 266.22 C 332.72 263.39 338.84 255.66 345.28 253.92 C 356.62 250.87 358.51 257.64 347.84 263.08 C 343.72 265.18 336.39 267.05 335.55 266.22 Z M 727.81 216.09 C 756.07 201.68 745.19 167.40 708.41 154.97 C 702.37 152.93 696.52 149.93 690.03 145.54 C 675.04 135.42 666.12 134.70 658.61 143.01 C 646.56 156.34 657.24 170.27 680.50 171.56 C 701.57 172.74 707.19 177.68 709.93 197.44 C 712.49 215.92 717.64 221.29 727.81 216.09 Z" fill="#000" fill-rule="evenodd" clip-path="url(#rim)"/></svg>
