<svg xmlns="http://www.w3.org/2000/svg" viewBox="0 0 1600 1600" width="200" height="200"><defs><clipPath id="rim"><circle cx="797.26" cy="799.81" r="712.42"/></clipPath></defs><circle cx="797.26" cy="799.81" r="723.27" fill="#f0ece3"/><path d="M 653.86 1523.07 C 644.70 1521.80 639.64 1518.70 632.38 1509.93 C 621.76 1497.09 618.97 1496.09 590.99 1495.08 C 569.34 1494.29 565.63 1493.30 555.01 1485.51 C 550.24 1482.01 541.53 1477.71 532.90 1474.60 C 528.58 1473.05 524.66 1470.85 512.50 1463.18 C 506.75 1459.56 498.74 1457.56 484.42 1456.19 C 470.15 1454.82 465.75 1452.49 450.36 1438.14 C 435.07 1423.90 432.41 1422.09 420.83 1418.05 C 408.82 1413.85 403.87 1410.53 389.71 1397.15 C 376.60 1384.76 376.10 1384.44 362.49 1379.57 C 349.32 1374.87 348.85 1374.46 297.42 1323.32 C 235.62 1261.87 235.37 1261.58 230.46 1247.08 C 226.08 1234.13 223.49 1230.33 209.97 1217.07 C 182.49 1190.11 177.28 1183.48 171.91 1168.58 C 170.06 1163.46 166.48 1156.44 163.50 1152.08 C 156.94 1142.51 155.63 1139.93 151.93 1129.47 C 150.28 1124.79 146.26 1116.63 143.00 1111.33 C 139.42 1105.53 135.82 1097.96 133.93 1092.29 C 131.72 1085.65 128.90 1080.04 124.38 1073.28 C 117.20 1062.54 115.38 1057.35 114.47 1045.00 C 113.58 1032.99 111.57 1026.61 105.97 1018.00 C 96.11 1002.85 95.05 997.42 95.02 962.30 C 95.00 936.83 94.43 933.82 86.90 919.00 C 78.71 902.87 79.02 907.31 79.02 805.00 C 79.02 703.21 78.75 707.13 86.64 691.04 C 94.50 675.02 94.20 676.74 95.02 643.00 C 95.88 608.02 96.15 606.60 104.17 594.38 C 111.20 583.66 112.78 579.02 114.05 565.39 C 115.32 551.73 117.34 545.68 123.40 537.35 C 131.55 526.15 132.63 523.09 134.03 507.21 C 135.13 494.61 136.81 489.16 142.06 481.03 C 147.47 472.66 150.33 466.74 152.93 458.50 C 156.14 448.37 158.56 444.89 171.70 431.42 C 184.44 418.38 187.56 413.63 191.87 400.72 C 196.29 387.49 196.52 387.24 291.88 291.89 C 388.32 195.45 387.13 196.54 401.87 191.35 C 407.16 189.49 413.64 186.62 416.25 184.98 C 418.86 183.34 423.21 180.61 425.91 178.91 C 428.61 177.20 435.29 174.12 440.74 172.05 C 446.20 169.98 454.00 166.04 458.08 163.29 C 467.40 157.01 469.83 155.77 480.12 152.01 C 484.70 150.34 492.42 146.46 497.28 143.38 C 502.13 140.30 510.37 136.26 515.59 134.39 C 526.62 130.45 530.18 128.63 538.87 122.49 C 546.53 117.08 552.07 115.37 566.15 114.06 C 578.34 112.93 584.15 111.01 592.55 105.32 C 605.96 96.27 607.40 95.97 643.00 95.05 C 676.09 94.19 676.51 94.11 687.65 86.82 C 701.91 77.49 701.85 77.51 724.00 77.43 C 734.73 77.39 755.42 76.99 770.00 76.54 C 789.68 75.94 801.52 76.09 816.00 77.11 C 835.75 78.52 838.14 78.55 868.50 77.88 C 887.82 77.45 887.73 77.43 901.23 86.09 C 913.97 94.26 913.69 94.20 947.50 95.06 C 981.22 95.92 983.57 96.33 994.07 103.14 C 1006.29 111.07 1011.49 112.94 1024.60 114.12 C 1039.37 115.45 1044.51 117.21 1054.89 124.48 C 1059.39 127.64 1066.95 131.74 1071.68 133.60 C 1087.72 139.90 1091.17 144.77 1092.90 163.63 C 1094.10 176.77 1096.04 182.39 1102.46 191.39 C 1108.40 199.71 1110.49 205.18 1112.48 217.55 C 1116.32 241.42 1123.69 243.09 1144.85 224.92 C 1167.05 205.85 1179.91 207.73 1189.01 231.36 C 1190.64 235.59 1194.88 243.31 1198.44 248.53 C 1203.48 255.91 1205.59 260.18 1207.94 267.76 C 1211.44 279.09 1214.67 284.21 1225.96 296.34 C 1245.61 317.48 1240.23 332.94 1209.22 344.47 C 1179.69 355.45 1164.61 377.05 1174.31 394.50 C 1175.83 397.25 1182.70 405.53 1189.56 412.89 C 1213.61 438.71 1215.78 455.16 1198.36 479.63 C 1189.62 491.91 1189.65 491.76 1188.87 525.00 C 1187.76 572.62 1186.35 574.38 1148.00 575.96 C 1118.30 577.19 1121.66 575.13 1077.88 618.89 C 1036.43 660.32 1036.82 659.77 1034.98 680.01 C 1033.75 693.69 1032.14 698.80 1026.02 708.48 C 1017.05 722.67 1016.73 724.06 1016.24 751.50 C 1015.41 797.50 1011.50 790.54 1071.99 850.89 C 1122.29 901.07 1125.43 904.70 1130.38 918.27 C 1133.71 927.40 1138.17 932.84 1144.64 935.70 C 1160.11 942.52 1163.59 944.32 1169.52 948.55 C 1187.09 961.09 1207.44 961.05 1225.18 948.43 C 1234.06 942.12 1239.60 939.93 1249.34 938.90 C 1277.39 935.94 1274.14 938.04 1317.14 895.09 C 1354.88 857.40 1354.62 857.72 1360.34 841.79 C 1362.37 836.14 1366.05 828.89 1369.75 823.27 C 1379.03 809.18 1378.50 813.25 1378.50 756.50 C 1378.50 700.71 1378.78 702.78 1369.55 689.94 C 1364.95 683.54 1362.51 678.58 1358.57 667.67 C 1356.75 662.63 1354.30 655.92 1353.13 652.77 C 1349.20 642.20 1350.89 638.56 1363.07 631.37 C 1378.90 622.02 1379.00 621.56 1378.62 561.50 C 1378.25 503.15 1380.23 509.11 1352.57 482.82 C 1337.75 468.73 1335.28 466.81 1326.39 462.38 C 1311.24 454.84 1309.55 450.87 1315.36 436.40 C 1327.82 405.35 1320.88 370.21 1303.78 377.77 C 1287.67 384.90 1281.10 399.40 1283.43 422.73 C 1285.08 439.28 1284.44 444.44 1279.45 454.81 C 1271.35 471.63 1274.59 475.72 1297.71 477.88 C 1325.89 480.52 1340.52 498.74 1342.20 533.28 C 1343.46 559.30 1343.07 561.23 1334.23 572.82 C 1330.60 577.57 1325.70 585.09 1323.34 589.53 C 1315.44 604.39 1312.76 605.29 1295.96 598.71 C 1289.66 596.24 1282.80 593.63 1280.72 592.90 C 1267.38 588.23 1263.53 577.92 1269.10 561.71 C 1274.00 547.44 1273.55 545.22 1264.08 536.98 C 1255.61 529.62 1254.81 527.48 1255.61 514.30 C 1256.25 503.80 1256.18 503.29 1253.18 496.00 C 1251.48 491.88 1248.73 484.73 1247.07 480.12 C 1245.41 475.51 1241.94 468.36 1239.36 464.23 C 1230.57 450.12 1231.63 445.93 1248.59 427.86 C 1267.17 408.07 1268.15 403.00 1256.70 386.21 C 1240.29 362.15 1243.73 351.52 1271.18 341.58 C 1273.76 340.65 1278.60 338.12 1281.94 335.96 C 1308.22 318.97 1332.69 322.53 1341.99 344.68 C 1346.39 355.15 1349.66 358.39 1361.57 364.08 C 1373.65 369.85 1375.60 371.95 1380.50 384.44 C 1384.55 394.76 1385.76 396.52 1398.13 410.17 C 1410.45 423.78 1413.51 428.28 1417.11 438.14 C 1420.86 448.41 1423.24 453.04 1428.74 460.77 C 1437.60 473.21 1437.35 471.59 1437.96 522.00 C 1438.60 575.12 1437.80 572.24 1452.79 574.96 C 1461.86 576.61 1466.45 578.45 1476.50 584.50 C 1481.45 587.47 1488.94 591.02 1493.13 592.37 C 1508.04 597.19 1512.78 601.00 1515.50 610.36 C 1518.51 620.71 1517.17 997.13 1514.11 1003.36 C 1511.28 1009.10 1505.96 1012.86 1496.11 1016.10 C 1481.31 1020.97 1477.59 1026.08 1475.93 1043.80 C 1474.54 1058.68 1473.29 1062.45 1466.07 1073.39 C 1461.85 1079.79 1458.96 1085.68 1456.59 1092.74 C 1454.61 1098.61 1451.24 1105.87 1448.59 1109.97 C 1442.65 1119.14 1439.80 1124.91 1437.02 1133.35 C 1435.66 1137.51 1432.22 1143.94 1428.31 1149.67 C 1423.96 1156.04 1420.60 1162.49 1418.04 1169.39 C 1415.95 1175.03 1411.85 1183.44 1408.93 1188.07 C 1406.01 1192.71 1401.95 1201.08 1399.91 1206.68 C 1394.36 1221.88 1394.49 1221.74 1327.61 1288.61 C 1261.17 1355.06 1260.65 1355.52 1246.30 1360.65 C 1232.08 1365.73 1232.00 1365.79 1210.00 1387.45 C 1187.15 1409.96 1183.35 1412.92 1171.89 1417.10 C 1158.76 1421.89 1154.81 1424.40 1142.89 1435.49 C 1128.59 1448.78 1122.72 1452.75 1111.31 1456.84 C 1106.17 1458.68 1098.18 1462.68 1092.89 1466.07 C 1082.33 1472.84 1077.19 1474.67 1066.19 1475.54 C 1050.41 1476.78 1044.31 1478.75 1034.86 1485.63 C 1024.41 1493.24 1020.60 1494.26 999.39 1495.10 C 974.48 1496.10 970.91 1497.05 959.96 1505.63 C 946.50 1516.17 940.05 1510.65 939.20 1487.87 C 938.50 1469.21 943.11 1460.74 956.33 1456.42 C 962.95 1454.25 969.23 1451.09 977.73 1445.66 C 989.36 1438.22 991.04 1437.83 1014.50 1436.98 C 1038.87 1436.09 1041.31 1435.45 1054.71 1426.45 C 1059.29 1423.37 1066.65 1419.53 1071.06 1417.92 C 1080.64 1414.42 1086.82 1411.37 1095.03 1406.06 C 1098.38 1403.89 1105.20 1400.66 1110.19 1398.88 C 1128.78 1392.23 1160.09 1363.34 1165.58 1347.78 C 1170.18 1334.72 1169.08 1319.64 1162.56 1306.64 C 1156.31 1294.17 1156.40 1292.21 1163.93 1277.79 C 1171.79 1262.75 1172.38 1258.40 1171.73 1219.64 C 1171.14 1184.26 1171.58 1185.93 1157.71 1166.21 C 1150.42 1155.85 1150.03 1153.39 1149.99 1118.00 C 1149.95 1071.80 1149.30 1068.11 1138.52 1052.68 C 1132.61 1044.24 1131.11 1039.73 1129.95 1027.00 C 1128.55 1011.61 1127.43 1008.00 1120.80 997.43 C 1117.39 991.99 1113.22 983.49 1111.11 977.69 C 1106.54 965.09 1105.23 963.17 1090.74 947.61 C 1078.85 934.84 1075.02 928.96 1071.52 918.00 C 1065.57 899.40 1016.75 850.51 997.71 844.07 C 988.61 841.00 982.52 838.10 976.50 834.00 C 958.54 821.76 949.68 823.87 926.74 845.86 C 914.44 857.65 911.52 859.51 898.63 863.85 C 893.93 865.42 886.52 869.04 881.89 872.01 C 866.73 881.74 869.76 881.35 804.75 881.78 C 725.73 882.29 724.32 882.12 705.15 870.09 C 701.66 867.89 695.36 864.95 691.15 863.54 C 679.73 859.72 674.66 856.36 661.10 843.63 C 640.36 824.17 630.75 822.17 613.75 833.81 C 607.82 837.87 602.47 840.49 592.90 843.98 C 588.28 845.66 580.84 849.57 575.94 852.88 C 559.01 864.31 545.46 863.83 539.91 851.60 C 534.78 840.32 538.22 831.97 555.30 814.17 C 574.34 794.32 575.73 789.67 574.71 749.00 C 574.10 724.56 573.39 721.65 564.95 709.28 C 557.81 698.82 556.29 694.23 554.96 679.01 C 553.26 659.66 548.06 652.31 511.72 617.96 C 493.21 600.48 490.22 598.36 477.10 593.48 C 472.24 591.68 465.37 588.37 461.83 586.14 C 450.18 578.78 445.31 577.06 432.87 575.93 C 419.07 574.67 415.77 573.86 405.50 569.22 C 395.48 564.70 389.78 564.46 382.41 568.25 C 370.96 574.14 366.17 575.08 343.52 575.89 C 314.19 576.93 315.04 576.51 289.00 602.81 C 267.63 624.39 263.63 627.51 251.26 632.21 C 236.26 637.90 232.52 643.09 230.85 660.50 C 229.51 674.55 227.78 679.74 221.29 689.22 C 210.92 704.36 211.50 700.39 211.50 756.00 C 211.50 812.11 211.09 809.29 221.40 824.39 C 225.96 831.07 228.60 836.29 230.89 843.18 C 232.82 848.97 236.26 856.20 239.63 861.58 C 242.69 866.45 246.53 873.82 248.17 877.97 C 254.16 893.13 256.55 895.66 269.44 900.51 C 280.74 904.77 283.54 906.63 295.08 917.53 C 313.22 934.68 316.49 936.37 334.80 938.07 C 348.92 939.38 353.49 940.85 362.50 946.96 C 383.67 961.31 401.62 961.71 421.26 948.26 C 425.67 945.24 433.83 940.79 439.37 938.39 C 450.70 933.47 453.58 931.02 459.42 921.39 C 467.78 907.62 477.22 907.25 488.54 920.24 C 499.32 932.62 498.97 942.94 487.15 961.74 C 484.99 965.18 481.73 972.33 479.90 977.63 C 477.76 983.85 474.64 990.16 471.12 995.38 C 465.75 1003.36 461.87 1011.02 458.59 1020.13 C 457.68 1022.67 454.28 1028.89 451.03 1033.95 C 441.39 1048.99 441.77 1046.79 440.99 1092.50 C 440.61 1115.44 439.88 1133.80 439.28 1135.56 C 437.60 1140.55 435.06 1145.04 429.17 1153.42 C 419.66 1167.00 420.17 1162.21 419.96 1239.69 C 419.68 1347.81 419.62 1347.50 444.42 1372.89 C 460.85 1389.70 466.51 1393.95 478.11 1398.09 C 483.12 1399.89 489.98 1403.08 493.36 1405.18 C 508.42 1414.58 513.45 1416.27 529.78 1417.45 C 539.65 1418.17 546.70 1420.62 554.44 1426.04 C 566.18 1434.26 569.80 1435.53 585.61 1436.93 C 598.81 1438.10 603.00 1439.50 614.00 1446.43 C 626.68 1454.42 629.27 1455.05 653.00 1455.91 C 676.23 1456.75 677.32 1457.05 691.17 1466.12 C 703.69 1474.33 703.19 1474.25 748.00 1475.00 C 770.93 1475.38 788.78 1476.10 790.56 1476.71 C 795.36 1478.35 799.99 1480.93 806.72 1485.71 C 814.85 1491.49 821.14 1493.57 834.38 1494.83 C 859.85 1497.26 867.29 1515.44 845.50 1522.01 C 840.83 1523.42 663.41 1524.40 653.86 1523.07 Z M 389.78 1317.45 C 403.76 1311.61 403.45 1313.39 403.82 1236.50 C 404.25 1149.08 403.15 1132.91 395.63 1116.50 C 390.46 1105.23 390.10 1098.43 394.24 1090.41 C 400.17 1078.94 401.12 1074.11 401.68 1052.55 C 403.05 1000.40 401.10 998.15 353.50 996.99 C 320.29 996.18 318.31 995.80 307.43 988.17 C 298.76 982.08 296.16 980.74 285.61 976.93 C 274.68 972.97 270.21 969.94 256.64 957.25 C 233.73 935.84 225.66 935.80 203.38 956.99 C 190.67 969.08 184.88 973.28 177.51 975.79 C 151.02 984.81 145.48 1007.37 163.19 1034.13 C 166.60 1039.28 170.63 1046.97 172.16 1051.22 C 175.58 1060.76 177.70 1064.94 183.94 1074.51 C 186.65 1078.66 190.05 1085.69 191.56 1090.26 C 194.83 1100.19 196.58 1103.76 202.85 1113.36 C 205.49 1117.41 209.13 1124.95 210.93 1130.11 C 213.17 1136.54 216.35 1142.72 221.00 1149.70 C 225.03 1155.74 228.71 1162.67 230.04 1166.70 C 235.44 1183.11 237.24 1185.43 269.07 1217.00 C 297.68 1245.38 300.88 1249.37 306.15 1263.27 C 313.94 1283.85 325.17 1295.06 345.90 1302.96 C 351.50 1305.10 359.51 1308.98 363.71 1311.60 C 375.86 1319.17 382.23 1320.60 389.78 1317.45 Z M 1219.28 1315.71 C 1221.60 1314.38 1226.07 1311.71 1229.21 1309.78 C 1232.35 1307.86 1239.10 1304.83 1244.21 1303.06 C 1263.92 1296.22 1276.99 1283.15 1283.63 1263.63 C 1287.94 1250.94 1299.25 1237.53 1332.30 1205.89 C 1350.23 1188.73 1354.89 1182.45 1359.85 1168.80 C 1362.25 1162.20 1365.75 1155.24 1369.61 1149.43 C 1373.44 1143.64 1376.80 1137.00 1378.87 1131.07 C 1382.95 1119.37 1385.43 1115.45 1395.00 1105.50 C 1412.48 1087.35 1415.39 1081.81 1416.99 1063.72 C 1418.40 1047.74 1419.32 1045.18 1428.18 1032.55 C 1443.73 1010.40 1438.65 985.41 1416.94 977.22 C 1405.44 972.88 1401.42 970.17 1388.29 957.86 C 1366.19 937.15 1356.82 936.26 1338.11 953.13 C 1317.19 971.98 1315.90 972.87 1301.86 977.99 C 1297.30 979.66 1289.44 983.74 1284.38 987.08 C 1270.77 996.05 1270.15 996.18 1236.50 996.99 C 1188.06 998.17 1189.63 996.33 1189.20 1052.31 C 1188.86 1095.31 1188.86 1095.27 1195.51 1109.16 C 1200.12 1118.79 1200.12 1123.21 1195.51 1132.84 C 1186.12 1152.43 1182.33 1211.28 1186.41 1274.00 C 1189.18 1316.59 1198.08 1327.89 1219.28 1315.71 Z M 809.07 840.41 C 812.06 839.54 818.56 836.20 823.53 833.00 C 833.62 826.50 839.76 824.41 851.50 823.48 C 872.90 821.79 874.54 820.67 915.06 780.10 C 956.36 738.75 956.10 739.13 958.00 717.47 C 959.14 704.55 961.00 698.72 966.88 689.67 C 975.88 675.85 975.46 678.42 975.80 634.69 C 976.16 589.73 976.16 589.74 967.33 575.71 C 964.29 570.87 960.33 562.76 958.54 557.68 C 953.55 543.55 953.37 543.30 927.63 516.66 C 880.91 468.31 873.46 462.53 855.58 460.81 C 839.74 459.29 834.03 457.50 824.20 450.99 C 804.26 437.78 786.14 437.75 766.68 450.88 C 756.60 457.68 753.08 458.85 737.79 460.47 C 723.61 461.97 718.87 463.67 707.95 471.15 C 704.35 473.62 697.08 477.31 691.79 479.36 C 679.71 484.04 675.70 488.01 671.23 499.72 C 666.89 511.08 664.47 514.53 650.99 528.51 C 638.50 541.47 636.67 544.23 633.00 555.50 C 630.24 563.99 628.32 567.89 622.44 576.99 C 614.06 589.94 614.50 586.31 614.50 642.00 C 614.50 698.33 613.91 693.91 623.57 709.18 C 626.59 713.95 630.68 722.27 632.67 727.68 C 638.04 742.27 639.93 744.57 677.19 781.60 C 717.56 821.73 717.01 821.34 736.00 823.07 C 753.04 824.61 757.21 826.02 769.44 834.31 C 780.39 841.73 796.23 844.17 809.07 840.41 Z M 564.13 301.39 C 568.28 299.31 571.56 294.70 574.52 286.80 C 582.38 265.85 595.76 252.47 615.27 246.05 C 635.38 239.44 650.90 220.02 645.38 208.39 C 642.04 201.36 635.34 202.51 623.92 212.07 C 610.18 223.57 606.41 224.69 592.36 221.43 C 580.26 218.63 574.96 221.25 556.45 239.18 C 543.75 251.48 539.81 257.71 537.94 268.41 C 533.68 292.91 547.18 309.91 564.13 301.39 Z M 537.05 217.18 C 553.07 207.00 560.14 180.30 548.14 175.29 C 530.69 167.99 500.73 192.90 509.29 207.58 C 516.23 219.49 527.36 223.34 537.05 217.18 Z" fill="#000" fill-rule="evenodd" clip-path="url(#rim)"/></svg>
