<svg xmlns="http://www.w3.org/2000/svg" viewBox="0 0 800 800" width="200" height="200"><circle cx="399.00" cy="400.29" r="362.31" fill="#f0ece3"/><path d="M 317.75 760.95 C 316.43 760.16 316.00 758.58 316.00 754.51 C 316.00 751.50 315.49 748.80 314.84 748.40 C 314.20 748.01 306.06 747.53 296.74 747.34 C 287.42 747.15 279.39 746.74 278.90 746.44 C 278.40 746.13 278.00 744.87 278.00 743.63 C 278.00 738.94 275.79 737.56 268.71 737.82 C 261.54 738.09 259.00 736.71 259.00 732.55 C 259.00 728.99 257.06 728.12 248.45 727.80 L 240.50 727.50 L 240.20 719.55 C 240.04 715.17 239.42 711.01 238.83 710.30 C 238.03 709.33 233.52 709.00 221.07 709.00 C 202.81 709.00 201.34 708.60 200.81 703.50 C 200.55 701.00 200.00 700.44 197.50 700.16 C 193.51 699.71 192.00 698.31 192.00 695.08 C 192.00 690.93 190.28 690.00 182.55 689.98 C 178.67 689.98 174.87 689.57 174.11 689.09 C 173.34 688.60 172.44 686.47 172.10 684.35 C 171.56 680.99 171.10 680.46 168.49 680.16 C 164.46 679.70 163.00 678.31 163.00 674.90 C 163.00 672.59 162.47 671.92 160.25 671.43 C 154.57 670.16 153.99 669.80 153.44 667.18 C 152.54 662.88 151.47 661.53 148.50 661.00 C 145.52 660.47 144.46 659.13 143.54 654.75 C 143.07 652.51 142.42 652.00 140.05 652.00 C 136.58 652.00 134.00 649.71 134.00 646.63 C 134.00 643.79 132.21 642.00 129.37 642.00 C 126.32 642.00 124.00 639.42 124.00 636.04 C 124.00 633.08 122.53 632.00 118.53 632.00 C 116.08 632.00 115.00 630.32 115.00 626.53 C 115.00 624.22 113.35 623.01 110.17 622.98 C 106.38 622.95 105.51 621.24 105.00 612.79 L 104.50 604.50 L 101.50 604.16 C 97.51 603.71 96.00 602.31 96.00 599.08 C 96.00 595.80 94.34 594.00 91.32 594.00 C 87.72 594.00 85.66 589.89 86.24 583.85 C 86.80 578.01 84.86 575.00 80.54 575.00 C 77.03 575.00 75.65 571.78 76.27 565.01 C 76.89 558.17 75.86 556.00 72.01 556.00 C 70.42 556.00 68.75 555.44 68.31 554.75 C 67.86 554.06 67.28 549.91 67.00 545.52 C 66.51 537.68 66.45 537.52 63.50 536.65 C 57.37 534.84 57.54 535.23 57.00 521.39 L 56.50 508.50 L 53.50 508.16 C 48.01 507.54 48.00 507.50 47.98 484.13 C 47.98 472.23 47.64 462.04 47.23 461.49 C 46.83 460.93 45.15 460.02 43.50 459.46 L 40.50 458.45 L 40.50 402.58 C 40.50 341.53 40.01 346.95 45.75 344.14 C 47.32 343.38 47.56 340.88 48.05 320.39 C 48.35 307.80 48.69 297.39 48.80 297.25 C 48.91 297.11 49.93 297.00 51.07 297.00 C 52.20 297.00 54.00 296.53 55.07 295.96 C 56.81 295.03 57.00 293.76 57.02 283.21 C 57.02 276.77 57.43 270.87 57.91 270.11 C 58.40 269.34 60.53 268.44 62.65 268.09 L 66.50 267.47 L 67.00 254.59 C 67.54 240.81 67.56 240.74 73.25 239.54 C 75.38 239.09 76.00 238.39 76.00 236.42 C 76.00 232.52 77.78 230.00 80.54 230.00 C 81.89 230.00 83.86 229.14 84.91 228.09 C 86.51 226.49 86.74 225.20 86.29 220.28 C 85.70 213.71 87.20 211.00 91.45 211.00 C 95.01 211.00 95.88 209.06 96.20 200.45 L 96.50 192.50 L 99.90 192.00 C 103.45 191.48 104.50 190.30 105.46 185.77 C 105.87 183.81 106.81 182.87 108.77 182.46 C 113.20 181.52 114.42 180.49 115.11 177.10 C 115.92 173.13 116.14 172.92 120.17 172.10 C 122.84 171.55 123.55 170.84 124.10 168.17 C 124.92 164.14 125.13 163.92 129.10 163.11 C 130.87 162.75 132.62 161.79 132.99 160.98 C 136.11 154.24 136.72 153.48 139.21 153.19 C 142.48 152.81 143.72 151.38 144.16 147.50 C 144.44 145.00 145.00 144.44 147.50 144.16 C 151.54 143.71 153.00 142.31 153.00 138.91 C 153.00 135.60 155.71 133.72 159.80 134.19 C 162.08 134.45 162.55 135.04 162.83 138.00 C 163.26 142.50 164.42 143.81 168.32 144.19 C 171.20 144.47 171.53 144.85 171.81 148.22 C 172.09 151.58 171.85 151.99 169.31 152.55 C 167.76 152.89 165.95 153.34 165.28 153.54 C 163.78 154.00 162.57 158.44 163.37 160.52 C 163.98 162.10 164.62 162.42 169.25 163.44 C 171.43 163.91 172.00 164.61 172.02 166.77 C 172.04 170.54 172.89 171.44 177.50 172.54 C 181.21 173.43 181.54 173.79 182.00 177.50 C 182.46 181.22 182.75 181.52 185.96 181.83 C 191.85 182.39 192.00 181.66 192.00 152.88 C 192.00 124.26 191.85 123.59 185.62 124.20 C 182.81 124.47 182.47 124.87 182.19 128.17 C 181.76 133.41 180.36 134.13 171.34 133.79 L 163.50 133.50 L 163.20 130.38 C 162.70 125.29 164.90 124.00 174.07 124.00 L 182.00 124.00 L 182.00 115.54 C 182.00 105.48 182.47 105.00 192.31 105.00 C 199.14 105.00 200.56 104.21 201.15 100.10 C 201.52 97.59 202.56 96.81 207.46 95.36 C 209.75 94.68 210.58 93.71 211.11 91.11 C 212.02 86.66 213.36 85.96 220.53 86.20 C 223.84 86.31 227.09 86.06 227.75 85.66 C 228.41 85.25 229.42 83.17 229.99 81.03 C 231.14 76.78 232.27 76.28 241.20 76.13 C 248.50 76.00 249.00 76.98 249.00 91.55 C 249.00 105.79 248.19 104.78 259.90 105.24 C 266.65 105.51 266.94 105.73 268.66 111.50 C 269.42 114.07 270.04 114.50 272.94 114.50 C 276.04 114.50 276.45 114.14 277.75 110.25 C 278.84 106.97 279.78 105.87 281.83 105.44 C 287.05 104.35 287.48 103.68 287.79 96.26 C 288.21 86.23 287.72 85.89 273.37 86.07 C 265.62 86.17 261.49 85.82 260.48 84.99 C 258.63 83.45 258.36 69.51 260.16 68.40 C 260.80 68.00 262.71 67.40 264.40 67.05 C 267.03 66.51 267.57 65.87 268.10 62.61 C 268.44 60.51 269.34 58.40 270.11 57.91 C 270.87 57.43 276.70 57.02 283.05 57.02 C 295.53 57.00 297.00 56.46 297.00 51.91 C 297.00 50.37 297.68 48.95 298.58 48.61 C 299.45 48.27 309.79 48.00 321.55 48.00 C 341.66 48.00 342.99 47.89 343.96 46.07 C 344.53 45.00 345.00 43.19 345.00 42.04 C 345.00 40.70 345.95 39.59 347.65 38.94 C 349.31 38.31 366.66 37.97 393.73 38.04 C 436.10 38.15 437.20 38.20 439.20 40.20 C 440.95 41.95 441.17 43.08 440.68 47.80 C 440.37 50.84 440.55 54.16 441.09 55.17 C 442.80 58.36 450.00 57.28 450.00 53.83 C 450.00 52.75 450.47 51.00 451.04 49.93 C 452.01 48.11 453.34 48.00 473.45 48.00 C 485.21 48.00 495.55 48.27 496.42 48.61 C 497.29 48.94 498.00 50.10 498.00 51.17 C 498.00 52.25 498.47 54.00 499.04 55.07 C 499.97 56.81 501.22 57.00 511.60 57.00 C 523.86 57.00 527.00 57.84 527.00 61.10 C 527.00 65.85 528.67 67.00 535.60 67.00 C 543.66 67.00 546.00 68.12 546.00 71.97 C 546.00 75.40 548.15 76.38 555.15 76.13 C 562.02 75.89 565.00 77.32 565.00 80.85 C 565.00 84.99 566.63 85.87 574.94 86.20 C 582.73 86.52 582.92 86.64 584.65 92.50 C 585.53 95.47 585.62 95.50 593.47 95.80 C 597.84 95.96 601.96 96.55 602.64 97.12 C 603.33 97.69 604.02 99.56 604.19 101.29 C 604.45 103.95 605.01 104.53 607.80 105.10 C 611.87 105.92 612.07 106.13 612.89 110.10 C 613.57 113.42 614.44 114.16 619.50 115.65 C 621.93 116.37 622.60 117.21 623.00 120.02 C 623.43 123.01 623.93 123.55 626.50 123.84 C 630.49 124.29 632.00 125.69 632.00 128.92 C 632.00 132.16 633.65 134.00 636.55 134.00 C 639.19 134.00 641.70 136.68 642.16 139.98 C 642.40 141.73 643.38 142.72 645.50 143.35 C 650.65 144.87 651.49 145.61 652.00 149.10 C 652.44 152.09 652.92 152.56 655.98 153.00 C 659.44 153.50 659.80 153.99 661.61 160.77 C 661.80 161.47 662.53 162.20 663.23 162.39 C 670.01 164.20 670.50 164.56 671.00 168.02 C 671.43 171.01 671.93 171.55 674.50 171.84 C 678.49 172.29 680.00 173.69 680.00 176.92 C 680.00 180.12 681.64 181.99 684.45 182.02 C 687.64 182.04 689.14 183.45 689.89 187.11 C 690.42 189.71 691.25 190.68 693.54 191.36 C 699.39 193.09 699.47 193.22 700.00 202.10 L 700.50 210.50 L 703.98 211.00 C 707.44 211.50 707.82 212.02 709.61 218.75 C 709.79 219.44 711.22 220.00 712.78 220.00 C 717.87 220.00 718.91 221.69 719.22 230.48 C 719.52 239.16 719.08 238.57 726.75 240.61 C 727.66 240.85 728.00 244.17 728.00 252.89 C 728.00 259.46 728.27 265.55 728.61 266.42 C 728.96 267.34 730.39 268.00 732.04 268.00 C 736.77 268.00 738.09 270.29 737.89 278.16 C 737.78 282.42 738.18 285.58 738.90 286.31 C 739.56 286.96 744.01 287.73 748.80 288.00 L 757.50 288.50 L 757.76 397.00 C 758.00 498.12 757.90 505.59 756.32 506.75 C 755.30 507.50 751.48 508.00 746.78 508.00 C 740.29 508.00 738.82 508.30 738.28 509.72 C 737.92 510.66 737.59 516.57 737.56 522.85 C 737.50 535.15 737.64 534.84 731.51 536.65 C 729.69 537.19 728.40 538.32 728.22 539.52 C 727.15 546.59 728.84 546.00 709.60 546.00 C 690.83 546.00 690.76 545.98 689.56 540.35 C 688.79 536.76 687.09 536.03 679.44 536.01 C 673.50 536.00 671.24 537.41 670.81 541.40 C 670.49 544.40 669.59 545.15 664.50 546.65 C 662.18 547.34 661.42 548.20 661.16 550.47 C 660.62 555.18 662.82 556.00 675.99 556.00 C 683.69 556.00 688.00 556.40 688.80 557.20 C 689.51 557.91 690.00 561.31 690.00 565.50 C 690.00 573.32 690.91 575.00 695.16 575.00 C 698.12 575.00 700.00 577.32 700.00 580.97 C 700.00 583.10 700.42 583.38 705.23 584.43 C 710.32 585.54 709.74 594.00 704.59 594.00 C 701.74 594.00 700.45 595.47 699.54 599.75 C 698.85 602.94 698.18 603.37 692.50 604.22 C 690.73 604.48 690.44 605.49 690.00 612.80 C 689.48 621.47 688.66 622.95 684.37 622.98 C 681.67 623.00 680.27 624.71 679.84 628.50 C 679.56 631.00 679.00 631.56 676.50 631.84 C 672.48 632.29 671.17 633.54 670.81 637.31 C 670.57 639.73 669.85 640.69 667.70 641.44 C 662.89 643.12 661.54 641.36 661.20 632.94 C 661.04 628.90 660.42 625.01 659.83 624.29 C 659.06 623.36 655.28 623.00 646.36 623.00 C 632.67 623.00 633.16 623.24 631.53 615.69 C 631.01 613.23 630.53 612.92 627.73 613.19 C 625.16 613.44 624.36 614.09 623.65 616.50 C 622.07 621.87 621.43 622.49 617.12 622.81 L 612.94 623.12 L 613.22 636.81 L 613.50 650.50 L 618.00 651.58 C 622.07 652.55 622.53 652.97 622.82 655.88 C 623.04 658.18 623.86 659.43 625.64 660.25 C 629.04 661.79 631.36 660.22 632.00 655.94 C 632.44 652.97 632.95 652.49 636.46 651.76 C 640.77 650.87 641.96 649.69 641.98 646.29 C 642.01 642.23 649.06 640.38 650.96 643.93 C 652.39 646.60 652.30 658.70 650.84 659.60 C 650.20 660.00 648.33 660.59 646.68 660.93 C 643.50 661.58 642.47 662.85 641.54 667.23 C 641.13 669.19 640.19 670.13 638.23 670.54 C 633.70 671.50 632.52 672.55 632.00 676.10 C 631.57 679.00 631.06 679.55 628.50 679.84 C 624.47 680.29 623.00 681.69 623.00 685.06 C 623.00 688.86 621.82 689.42 612.51 690.00 L 604.53 690.50 L 603.92 694.26 C 603.17 698.91 602.91 699.17 598.26 699.92 C 594.99 700.44 594.46 700.91 594.17 703.51 C 593.99 705.16 593.41 706.95 592.88 707.50 C 592.34 708.05 588.44 708.73 584.20 709.00 L 576.50 709.50 L 575.15 713.76 C 574.11 717.06 573.21 718.13 571.15 718.56 C 566.72 719.49 565.51 720.56 565.19 723.85 C 564.80 727.73 564.07 727.93 549.02 728.25 L 537.54 728.50 L 536.66 731.50 C 534.92 737.37 534.73 737.49 527.07 737.68 C 519.37 737.88 517.01 738.98 516.98 742.37 C 516.95 747.30 516.22 747.50 497.98 747.53 C 478.80 747.57 478.94 747.52 479.25 754.73 C 479.35 757.06 478.86 759.54 478.17 760.23 C 476.50 761.90 320.50 762.60 317.75 760.95 Z M 447.43 737.02 C 449.23 736.34 450.00 735.31 450.00 733.60 C 450.00 728.32 451.35 728.00 473.99 728.00 C 485.46 728.00 495.55 727.73 496.42 727.39 C 497.32 727.05 498.00 725.63 498.00 724.09 C 498.00 719.96 499.73 719.00 507.13 719.00 C 514.46 719.00 517.00 717.62 517.00 713.63 C 517.00 709.59 518.75 709.00 530.77 709.00 C 543.07 709.00 546.00 708.17 546.00 704.66 C 546.00 701.00 547.93 700.00 555.01 700.00 C 562.50 700.00 564.73 698.81 565.19 694.60 C 565.51 691.60 566.41 690.85 571.50 689.35 C 573.83 688.66 574.58 687.80 574.84 685.48 C 575.29 681.47 576.55 680.17 580.32 679.81 L 583.50 679.50 L 583.77 656.27 L 584.04 633.05 L 581.27 632.46 C 576.91 631.55 575.52 630.48 575.20 627.81 C 574.84 624.82 576.47 623.29 580.50 622.84 L 583.50 622.50 L 583.79 610.50 C 584.15 595.37 583.84 594.00 580.02 594.00 C 576.12 594.00 575.00 591.69 575.00 583.69 C 575.00 576.63 575.78 575.37 580.50 574.84 L 583.50 574.50 L 583.80 566.55 C 583.96 562.17 584.58 558.01 585.17 557.30 C 585.88 556.44 588.86 556.00 594.00 556.00 C 599.44 556.00 602.10 555.58 602.92 554.60 C 603.66 553.71 603.98 550.14 603.79 544.85 L 603.50 536.50 L 590.04 536.22 C 580.81 536.03 576.34 535.56 575.81 534.72 C 575.38 534.05 575.02 530.33 575.02 526.45 C 575.00 518.75 574.07 517.00 570.00 517.00 C 565.90 517.00 565.00 515.26 565.00 507.36 C 565.00 499.64 564.68 499.09 559.59 498.05 L 556.50 497.43 L 556.00 488.98 C 555.51 480.63 555.47 480.53 552.50 479.65 C 547.61 478.21 546.52 477.42 546.17 475.07 C 545.76 472.28 548.61 469.00 551.45 469.00 C 555.01 469.00 556.00 467.02 556.00 459.87 C 556.00 450.38 555.55 450.08 541.86 450.33 C 535.24 450.45 530.15 450.10 529.29 449.47 C 528.49 448.88 527.52 446.88 527.14 445.03 C 526.53 442.04 525.94 441.53 521.98 440.58 C 517.92 439.60 517.45 439.18 517.00 436.09 C 516.56 433.11 515.99 432.53 512.51 431.56 C 508.94 430.56 508.46 430.05 507.90 426.62 C 507.56 424.51 506.66 422.40 505.89 421.91 C 505.13 421.43 501.29 421.02 497.37 421.02 C 489.59 421.00 488.38 420.30 487.84 415.50 C 487.51 412.55 487.40 412.50 481.03 412.20 C 471.66 411.76 470.26 412.32 469.00 417.01 C 468.19 420.00 467.41 421.00 465.90 421.00 C 462.54 421.00 460.00 422.92 460.00 425.45 C 460.00 430.86 459.67 431.00 446.97 431.00 C 440.48 431.00 434.46 431.27 433.61 431.60 C 432.75 431.92 431.76 433.76 431.40 435.67 C 430.97 437.97 430.03 439.39 428.63 439.87 C 425.04 441.09 379.81 441.30 376.73 440.10 C 374.81 439.36 373.77 438.09 373.35 435.98 C 373.01 434.30 371.88 432.47 370.83 431.91 C 369.72 431.31 362.50 430.97 353.58 431.08 C 345.14 431.18 337.74 430.96 337.12 430.57 C 336.50 430.19 336.00 428.87 336.00 427.63 C 336.00 424.27 333.82 421.91 329.99 421.13 C 327.12 420.55 326.46 419.89 325.88 417.09 C 324.99 412.71 323.72 412.03 316.33 412.02 C 308.38 412.00 307.00 412.58 307.00 415.98 C 307.00 417.51 306.44 419.22 305.75 419.79 C 305.06 420.36 298.97 420.98 292.21 421.16 C 282.64 421.43 279.71 421.83 278.98 423.00 C 278.46 423.82 278.02 427.43 278.00 431.00 C 277.98 434.57 277.64 438.00 277.23 438.61 C 276.83 439.21 274.86 440.01 272.85 440.38 C 269.08 441.08 268.00 442.44 268.00 446.55 C 268.00 449.22 265.43 451.00 261.57 451.00 C 259.31 451.00 259.00 451.41 259.00 454.46 C 259.00 459.10 256.76 460.16 247.75 459.79 C 241.41 459.54 240.48 459.26 240.22 457.50 C 239.38 451.91 238.96 451.24 235.86 450.62 C 231.73 449.80 230.00 448.28 230.00 445.50 C 230.00 441.95 227.33 440.47 221.38 440.74 C 213.83 441.07 211.21 439.85 210.82 435.83 C 210.54 432.96 210.01 432.41 206.56 431.45 C 202.43 430.30 201.49 429.25 200.54 424.77 C 200.13 422.82 199.18 421.86 197.23 421.43 C 192.00 420.28 191.87 420.15 192.19 416.26 C 192.47 412.91 192.83 412.46 195.50 412.16 C 199.53 411.71 201.16 410.18 200.80 407.19 C 200.50 404.69 199.83 404.13 194.75 402.13 C 192.68 401.31 192.00 400.36 191.98 398.27 C 191.96 393.37 190.85 392.70 183.10 392.89 C 174.52 393.11 172.00 392.00 172.00 388.00 C 172.00 384.32 169.23 382.58 165.57 383.98 C 163.59 384.73 163.00 385.65 163.00 388.00 C 163.00 391.84 159.81 393.64 155.72 392.08 C 153.11 391.09 153.00 390.77 152.98 383.77 C 152.98 379.77 152.64 375.98 152.23 375.34 C 151.83 374.71 149.92 373.78 148.00 373.29 C 145.13 372.55 144.44 371.86 144.16 369.44 C 143.61 364.62 142.44 364.00 133.94 364.00 C 125.60 364.00 125.10 363.72 124.05 358.59 L 123.42 355.50 L 115.62 355.21 C 110.72 355.02 107.29 355.35 106.41 356.08 C 105.43 356.89 105.00 359.51 105.00 364.65 C 105.00 369.74 104.61 372.17 103.75 372.39 C 96.08 374.43 96.54 373.80 96.00 383.00 C 95.51 391.37 95.47 391.47 92.50 392.35 C 87.66 393.78 86.52 394.58 86.19 396.79 C 85.78 399.51 89.32 403.00 92.48 403.00 C 94.94 403.00 95.35 403.72 96.22 409.49 C 96.39 410.58 97.42 411.61 98.51 411.78 C 104.46 412.68 105.00 413.02 105.00 415.90 C 105.00 419.59 107.04 421.22 111.18 420.82 C 114.04 420.54 114.55 420.08 114.84 417.50 C 115.40 412.56 116.50 412.00 125.62 412.00 L 134.00 412.00 L 134.00 419.81 C 134.00 428.67 135.23 431.25 139.44 431.25 C 143.23 431.25 143.97 429.67 143.98 421.45 C 144.00 413.31 143.14 412.00 137.80 412.00 C 134.15 412.00 134.00 411.87 134.00 408.62 C 134.00 403.35 135.29 402.91 149.64 403.22 L 162.50 403.50 L 162.84 406.50 C 163.29 410.53 164.54 411.83 168.32 412.19 C 171.09 412.46 171.56 412.94 172.00 415.90 C 172.28 417.76 173.18 419.60 174.00 419.98 C 174.82 420.37 176.85 421.33 178.50 422.12 L 181.50 423.57 L 181.78 435.69 C 181.99 444.87 182.42 448.10 183.53 449.02 C 184.49 449.82 189.21 450.29 197.04 450.37 C 209.77 450.51 210.95 450.95 210.98 455.55 C 211.01 459.06 213.03 460.00 220.50 460.00 C 228.01 460.00 230.00 460.94 230.00 464.50 C 230.00 468.01 232.01 469.00 239.13 469.00 C 246.71 469.00 249.31 470.56 248.80 474.77 C 248.48 477.48 247.10 478.54 242.75 479.46 C 240.06 480.03 240.00 480.19 239.98 487.27 C 239.98 491.25 239.55 495.16 239.04 495.96 C 238.53 496.77 236.40 497.91 234.31 498.49 L 230.50 499.56 L 230.20 506.98 C 229.87 515.33 228.99 517.00 224.94 517.00 C 223.39 517.00 221.75 517.56 221.31 518.25 C 220.86 518.94 220.28 531.88 220.00 547.00 L 219.50 574.50 L 216.32 574.81 C 214.58 574.98 212.66 575.71 212.06 576.43 C 211.31 577.33 211.05 586.30 211.23 604.61 C 211.49 630.60 211.56 631.48 213.50 631.78 C 219.62 632.70 220.00 632.96 220.00 636.32 C 220.00 640.10 218.50 642.00 215.50 642.00 C 211.94 642.00 211.00 643.99 211.00 651.58 C 211.00 659.42 211.69 660.62 216.50 661.16 C 219.74 661.53 220.73 663.94 219.56 668.60 C 219.11 670.41 218.28 671.00 216.18 671.00 C 212.66 671.00 211.00 672.65 211.00 676.13 C 211.00 678.89 211.32 679.11 217.25 680.43 C 219.42 680.91 220.00 681.61 220.02 683.77 C 220.04 688.70 221.28 689.46 230.19 690.00 C 238.35 690.49 238.47 690.54 239.35 693.50 C 240.87 698.65 241.61 699.49 245.10 700.00 C 248.00 700.43 248.55 700.94 248.83 703.50 C 249.01 705.15 249.59 706.95 250.12 707.50 C 250.66 708.05 256.80 708.73 263.77 709.00 L 276.44 709.50 L 277.51 713.31 C 278.09 715.40 279.23 717.53 280.04 718.04 C 280.84 718.55 286.70 718.98 293.05 718.98 C 305.53 719.00 307.00 719.54 307.00 724.09 C 307.00 725.63 307.68 727.05 308.58 727.39 C 309.45 727.73 317.54 728.00 326.55 728.00 C 341.72 728.00 343.01 728.14 343.96 729.93 C 344.53 731.00 345.00 732.81 345.00 733.97 C 345.00 735.21 345.92 736.43 347.25 736.97 C 350.35 738.22 444.17 738.27 447.43 737.02 Z M 171.55 658.57 C 174.03 654.77 171.99 651.79 167.18 652.19 C 163.93 652.46 163.46 652.85 163.16 655.45 C 162.56 660.75 168.64 663.01 171.55 658.57 Z M 161.42 651.39 C 163.31 650.67 163.58 644.98 161.80 643.20 C 161.14 642.54 159.43 642.00 158.00 642.00 C 154.63 642.00 153.00 643.71 153.00 647.23 C 153.00 650.85 157.30 652.97 161.42 651.39 Z M 613.00 619.93 C 613.00 615.01 611.40 613.00 607.46 613.00 C 604.21 613.00 604.00 612.80 604.00 609.70 C 604.00 605.73 602.49 604.00 599.00 604.00 C 595.80 604.00 594.00 605.68 594.00 608.66 C 594.00 611.34 596.66 613.00 600.93 613.00 C 603.76 613.00 604.00 613.27 604.00 616.42 C 604.00 621.98 604.80 623.00 609.11 623.00 C 612.78 623.00 613.00 622.83 613.00 619.93 Z M 669.07 592.96 C 670.32 592.30 671.00 590.87 671.00 588.94 C 671.00 586.61 670.40 585.72 668.28 584.92 C 664.31 583.41 661.00 585.16 661.00 588.78 C 661.00 593.51 664.57 595.37 669.07 592.96 Z M 152.79 575.66 C 152.98 570.73 152.65 567.29 151.92 566.41 C 150.22 564.35 137.67 564.48 135.57 566.57 C 133.61 568.53 133.36 580.96 135.24 582.84 C 136.07 583.67 139.11 583.98 144.49 583.79 L 152.50 583.50 L 152.79 575.66 Z M 640.80 573.80 C 641.51 573.09 642.00 569.69 642.00 565.50 C 642.00 557.75 641.08 556.00 637.00 556.00 C 632.92 556.00 632.00 557.75 632.00 565.50 C 632.00 573.25 632.92 575.00 637.00 575.00 C 638.43 575.00 640.14 574.46 640.80 573.80 Z M 621.80 563.80 C 622.46 563.14 623.00 561.35 623.00 559.82 C 623.00 557.69 622.42 556.89 620.50 556.41 C 616.06 555.30 613.00 556.69 613.00 559.82 C 613.00 563.30 614.64 565.00 618.00 565.00 C 619.43 565.00 621.14 564.46 621.80 563.80 Z M 612.59 533.50 C 613.46 530.03 612.52 528.17 609.53 527.42 C 606.07 526.55 604.00 528.50 604.00 532.62 C 604.00 535.89 604.13 536.00 607.98 536.00 C 611.39 536.00 612.05 535.64 612.59 533.50 Z M 630.42 459.39 C 632.31 458.67 632.58 452.98 630.80 451.20 C 628.17 448.57 623.00 451.39 623.00 455.45 C 623.00 459.25 626.27 460.98 630.42 459.39 Z M 258.98 446.75 C 258.96 441.92 257.85 440.82 253.40 441.18 C 249.95 441.46 249.46 441.83 249.18 444.33 C 248.64 449.05 249.52 450.00 254.47 450.00 C 258.92 450.00 259.00 449.94 258.98 446.75 Z M 257.73 429.81 C 259.40 428.43 259.45 414.85 257.80 413.20 C 255.97 411.37 232.62 411.55 231.08 413.41 C 230.35 414.28 230.02 417.60 230.20 422.13 C 230.46 428.35 230.81 429.60 232.55 430.47 C 235.16 431.78 256.02 431.23 257.73 429.81 Z M 401.75 419.24 C 402.44 418.35 403.00 416.59 403.00 415.33 C 403.00 412.40 404.53 412.06 418.96 411.75 L 430.42 411.50 L 431.13 408.05 C 432.07 403.41 434.03 402.20 439.74 402.73 C 446.62 403.37 449.58 401.93 450.65 397.40 C 451.42 394.17 452.06 393.52 455.52 392.56 C 458.98 391.59 459.57 391.00 460.00 388.06 C 460.43 385.12 461.02 384.53 464.46 383.56 C 467.82 382.63 468.53 381.94 469.11 379.14 C 470.01 374.71 471.01 373.89 475.61 373.82 C 477.75 373.78 483.47 373.53 488.32 373.26 C 496.55 372.81 497.22 372.61 498.29 370.27 C 499.28 368.10 499.12 367.52 497.10 365.88 C 495.82 364.85 493.73 364.00 492.45 364.00 C 489.79 364.00 488.94 362.95 488.05 358.59 C 487.57 356.21 486.83 355.43 484.82 355.19 C 477.69 354.36 477.27 346.34 484.26 344.69 C 486.69 344.11 488.01 343.22 488.03 342.15 C 488.31 325.56 487.95 289.73 487.49 288.99 C 487.16 288.44 485.82 288.00 484.51 288.00 C 480.21 288.00 479.00 285.59 479.00 277.04 C 479.00 268.74 478.56 268.00 473.62 268.00 C 470.83 268.00 469.00 266.22 469.00 263.50 C 469.00 260.82 467.18 259.00 464.50 259.00 C 461.67 259.00 460.00 257.14 460.00 254.00 C 460.00 250.81 458.32 249.00 455.37 249.00 C 451.22 249.00 449.69 246.25 450.34 239.98 C 450.78 235.80 450.54 233.79 449.41 232.17 C 447.95 230.09 447.20 230.00 431.14 230.00 C 413.21 230.00 412.00 229.69 412.00 225.00 C 412.00 220.56 410.46 220.00 398.38 220.00 C 392.21 220.00 386.45 220.27 385.58 220.61 C 384.66 220.96 384.00 222.39 384.00 224.04 C 384.00 229.24 382.09 230.00 369.13 230.00 C 356.76 230.00 355.00 230.57 355.00 234.58 C 355.00 237.29 352.94 239.06 348.78 239.91 C 346.16 240.45 345.44 241.17 344.90 243.83 C 344.07 247.87 343.87 248.07 339.83 248.90 C 336.95 249.49 336.45 250.08 335.73 253.73 C 334.90 257.90 334.64 258.12 328.75 259.43 C 326.85 259.85 326.00 260.67 326.00 262.08 C 326.00 265.68 324.10 268.00 321.16 268.00 C 316.84 268.00 316.00 269.65 316.00 278.08 C 316.00 286.45 315.37 287.61 310.50 288.16 L 307.50 288.50 L 307.24 320.44 C 307.08 338.97 307.36 352.76 307.89 353.29 C 308.40 353.80 310.32 354.52 312.16 354.89 L 315.50 355.57 L 316.00 363.71 C 316.27 368.18 316.73 372.03 317.00 372.25 C 317.27 372.48 319.06 373.09 320.98 373.61 C 323.88 374.41 324.64 375.21 325.56 378.53 C 326.56 382.10 327.10 382.59 330.85 383.40 C 334.21 384.12 335.15 384.80 335.60 386.90 C 335.91 388.33 336.32 390.01 336.50 390.62 C 336.69 391.24 338.39 392.04 340.28 392.39 C 343.35 392.97 343.82 393.49 344.61 397.24 C 345.38 400.88 345.96 401.57 349.00 402.47 C 354.12 403.98 355.00 404.80 355.00 408.04 C 355.00 411.69 355.91 411.93 370.91 412.25 L 382.32 412.50 L 383.42 416.40 C 384.02 418.55 385.27 420.57 386.20 420.90 C 389.57 422.09 400.44 420.93 401.75 419.24 Z M 524.65 334.94 C 526.19 334.36 527.00 333.25 527.00 331.72 C 527.00 328.55 528.98 326.21 531.99 325.82 C 535.24 325.40 537.56 320.91 536.01 318.02 C 535.08 316.28 533.93 316.00 527.66 316.00 C 519.44 316.00 517.27 317.09 516.81 321.47 C 516.55 324.00 515.89 324.62 512.50 325.56 C 508.96 326.54 508.46 327.05 508.17 330.04 C 507.95 332.27 508.38 333.81 509.43 334.57 C 511.33 335.96 521.33 336.21 524.65 334.94 Z M 583.50 311.50 C 583.50 307.86 583.25 307.47 580.69 307.18 C 577.28 306.79 575.00 308.49 575.00 311.42 C 575.00 314.53 577.02 316.14 580.50 315.80 C 583.28 315.52 583.50 315.21 583.50 311.50 Z M 142.96 257.07 C 144.08 254.97 144.38 244.16 143.39 241.58 C 142.88 240.26 140.78 240.00 130.46 240.00 C 117.19 240.00 115.00 239.24 115.00 234.63 C 115.00 231.68 113.19 230.00 110.00 230.00 C 105.90 230.00 105.00 231.74 105.00 239.66 C 105.00 245.82 105.29 247.09 106.93 247.96 C 108.00 248.53 113.98 249.00 120.23 249.00 C 132.08 249.00 134.00 249.61 134.00 253.37 C 134.00 258.16 140.86 260.99 142.96 257.07 Z M 515.39 247.70 C 516.58 246.84 517.06 245.41 516.84 243.45 C 516.53 240.73 516.19 240.50 512.50 240.50 C 508.86 240.50 508.47 240.75 508.18 243.31 C 507.61 248.25 511.45 250.58 515.39 247.70 Z M 199.07 238.96 C 201.26 237.79 201.70 233.10 199.80 231.20 C 199.14 230.54 197.66 230.00 196.50 230.00 C 193.67 230.00 192.00 231.86 192.00 235.00 C 192.00 239.44 195.02 241.13 199.07 238.96 Z M 478.55 227.57 C 481.48 223.09 477.08 218.88 471.63 220.95 C 469.78 221.66 469.00 222.67 469.00 224.40 C 469.00 229.82 475.63 232.02 478.55 227.57 Z M 315.79 211.66 C 315.98 206.73 315.65 203.29 314.92 202.41 C 313.43 200.61 299.95 200.45 298.20 202.20 C 296.91 203.49 296.48 218.15 297.70 219.37 C 298.09 219.76 302.25 219.94 306.95 219.79 L 315.50 219.50 L 315.79 211.66 Z M 190.96 209.07 C 192.08 206.97 192.38 196.16 191.39 193.58 C 190.97 192.47 189.48 192.00 186.39 192.00 L 182.00 192.00 L 182.00 199.93 C 182.00 205.80 182.41 208.26 183.57 209.43 C 185.74 211.60 189.71 211.41 190.96 209.07 Z M 181.50 187.00 C 181.50 182.60 181.42 182.49 178.04 182.17 C 175.62 181.94 174.20 182.37 173.29 183.61 C 170.29 187.72 173.14 192.31 178.38 191.80 C 181.37 191.51 181.50 191.31 181.50 187.00 Z M 362.80 190.80 C 364.40 189.20 364.40 174.80 362.80 173.20 C 362.14 172.54 360.11 172.00 358.30 172.00 C 355.20 172.00 355.00 171.79 355.00 168.54 C 355.00 164.00 353.01 163.00 344.04 163.00 C 335.26 163.00 335.08 162.68 335.76 147.94 C 336.37 134.58 335.95 134.00 325.63 134.00 C 321.34 134.00 317.91 134.49 317.20 135.20 C 315.61 136.79 315.61 150.21 317.20 151.80 C 317.86 152.46 319.42 153.00 320.68 153.00 C 324.93 153.00 326.20 156.75 325.86 168.33 C 325.52 179.96 326.30 182.00 331.09 182.00 C 334.24 182.00 336.00 179.70 336.00 175.58 C 336.00 172.41 338.09 171.79 347.52 172.20 L 354.50 172.50 L 354.78 181.00 C 354.99 187.53 355.44 189.79 356.72 190.75 C 358.82 192.33 361.25 192.35 362.80 190.80 Z M 258.84 168.50 C 259.29 164.48 260.69 163.00 264.02 163.00 C 266.90 163.00 268.00 161.51 268.00 157.62 C 268.00 153.94 266.07 153.00 258.50 153.00 C 250.99 153.00 249.00 152.06 249.00 148.50 C 249.00 144.94 247.01 144.00 239.55 144.02 C 232.05 144.03 230.74 144.47 229.70 147.27 C 228.83 149.63 232.25 153.00 235.52 153.00 C 238.12 153.00 239.26 154.68 240.45 160.25 C 240.92 162.45 241.59 163.00 243.82 163.00 C 247.31 163.00 249.00 164.65 249.00 168.03 C 249.00 171.61 249.77 172.14 254.46 171.80 C 258.13 171.53 258.53 171.22 258.84 168.50 Z M 565.00 168.02 C 565.40 165.21 566.07 164.37 568.50 163.65 C 574.50 161.88 574.50 161.88 574.50 152.89 L 574.50 144.50 L 565.50 144.50 L 556.50 144.50 L 556.16 147.50 C 555.68 151.78 554.29 153.00 549.92 153.00 L 546.08 153.00 L 545.79 144.27 L 545.50 135.54 L 542.50 134.65 C 537.37 133.14 536.51 132.39 536.19 129.22 C 535.80 125.34 533.75 123.60 530.53 124.40 C 528.85 124.82 527.84 125.93 527.46 127.77 C 526.53 132.15 525.50 133.42 522.32 134.07 C 520.67 134.41 518.80 135.00 518.16 135.40 C 516.61 136.36 516.67 141.68 518.25 142.66 C 518.94 143.09 523.10 143.68 527.50 143.97 L 535.50 144.50 L 535.84 147.50 C 536.32 151.78 537.71 153.00 542.12 153.00 C 545.78 153.00 546.00 153.17 546.00 156.07 C 546.00 160.64 547.65 163.00 550.84 163.00 C 554.31 163.00 556.00 164.65 556.00 168.03 C 556.00 171.55 556.79 172.15 560.96 171.80 C 564.16 171.53 564.55 171.17 565.00 168.02 Z M 621.80 161.80 C 622.46 161.14 623.00 159.43 623.00 158.00 C 623.00 154.70 621.30 153.00 618.00 153.00 C 614.70 153.00 613.00 154.70 613.00 158.00 C 613.00 161.30 614.70 163.00 618.00 163.00 C 619.43 163.00 621.14 162.46 621.80 161.80 Z M 420.55 150.57 C 423.03 146.77 420.99 143.79 416.18 144.19 C 412.98 144.46 412.46 144.86 412.18 147.31 C 411.53 152.92 417.49 155.24 420.55 150.57 Z M 363.39 113.42 C 363.73 112.55 364.00 110.84 364.00 109.62 C 364.00 106.79 365.79 105.00 368.63 105.00 C 372.60 105.00 373.81 102.67 373.59 95.42 C 373.38 88.26 371.90 86.00 367.42 86.00 C 365.06 86.00 364.00 84.28 364.00 80.45 C 364.00 77.23 360.76 75.66 355.64 76.41 C 349.09 77.35 345.68 75.98 344.88 72.06 C 343.99 67.72 342.70 67.03 335.44 67.02 C 327.11 66.99 325.75 68.19 325.43 75.85 C 325.02 85.56 326.12 86.36 339.45 86.12 C 355.01 85.83 355.00 85.82 355.00 100.82 C 355.00 108.65 355.40 113.00 356.20 113.80 C 357.94 115.54 362.68 115.29 363.39 113.42 Z M 315.53 102.72 C 315.85 101.46 315.97 97.57 315.80 94.07 C 315.45 86.69 313.87 84.83 309.58 86.78 C 307.15 87.89 307.00 88.38 307.00 95.28 C 307.00 103.34 307.88 105.00 312.18 105.00 C 314.24 105.00 315.11 104.41 315.53 102.72 Z" fill="#000" fill-rule="evenodd"/></svg>
