<svg xmlns="http://www.w3.org/2000/svg" viewBox="0 0 800 800" width="200" height="200"><circle cx="399.73" cy="399.75" r="361.75" fill="#f0ece3"/><path d="M 317.43 760.70 C 316.47 760.16 316.00 758.14 316.00 754.51 C 316.00 751.54 315.50 748.81 314.89 748.43 C 314.28 748.05 306.77 747.76 298.21 747.78 C 281.28 747.82 278.00 747.20 278.00 743.96 C 278.00 739.14 276.35 738.00 269.40 738.00 C 261.32 738.00 259.00 736.88 259.00 733.00 C 259.00 728.76 256.68 728.00 243.77 728.00 C 231.83 728.00 230.00 727.40 230.00 723.50 C 230.00 720.84 228.19 719.00 225.55 718.98 C 222.22 718.96 220.76 717.45 220.10 713.35 L 219.47 709.50 L 211.28 709.00 C 206.78 708.73 202.66 708.05 202.12 707.50 C 201.59 706.95 201.01 705.15 200.83 703.50 C 200.55 701.00 200.00 700.44 197.50 700.16 C 193.51 699.71 192.00 698.31 192.00 695.08 C 192.00 690.90 190.29 690.00 182.37 690.00 C 174.20 690.00 172.00 688.72 172.00 683.95 C 172.00 681.58 171.49 680.93 169.25 680.46 C 164.87 679.54 163.53 678.48 163.00 675.50 C 162.47 672.53 161.13 671.46 156.77 670.54 C 154.81 670.13 153.87 669.19 153.46 667.23 C 152.54 662.87 151.47 661.53 148.50 661.00 C 145.52 660.47 144.46 659.13 143.54 654.75 C 143.07 652.51 142.42 652.00 140.05 652.00 C 136.58 652.00 134.00 649.71 134.00 646.63 C 134.00 643.85 132.23 642.00 129.55 641.98 C 126.22 641.96 124.76 640.45 124.10 636.35 C 123.54 632.92 123.14 632.47 120.31 632.19 C 115.87 631.76 115.14 630.41 114.80 622.06 C 114.48 614.27 114.36 614.08 108.50 612.35 C 106.07 611.63 105.40 610.79 105.00 607.98 C 104.57 604.99 104.07 604.45 101.50 604.16 C 97.51 603.71 96.00 602.31 96.00 599.08 C 96.00 595.80 94.34 594.00 91.32 594.00 C 87.72 594.00 85.66 589.89 86.24 583.85 C 86.80 577.99 84.86 575.00 80.48 575.00 C 77.16 575.00 75.65 571.16 76.31 564.46 C 76.93 558.23 75.80 556.00 72.01 556.00 C 70.42 556.00 68.75 555.44 68.31 554.75 C 67.86 554.06 67.28 549.91 67.00 545.52 C 66.51 537.68 66.45 537.52 63.50 536.65 C 57.37 534.84 57.54 535.23 57.00 521.39 L 56.50 508.50 L 53.32 508.19 C 51.58 508.02 49.67 507.31 49.09 506.61 C 48.45 505.83 47.94 496.92 47.77 483.43 L 47.50 461.51 L 43.74 459.75 L 39.98 457.98 L 40.24 402.35 C 40.52 341.61 40.02 346.95 45.75 344.14 C 47.32 343.38 47.56 340.88 48.05 320.39 C 48.35 307.80 48.69 297.39 48.80 297.25 C 48.91 297.11 49.93 297.00 51.07 297.00 C 52.20 297.00 54.00 296.53 55.07 295.96 C 56.81 295.03 57.00 293.77 57.00 283.04 C 57.00 269.87 57.75 268.00 63.01 268.00 C 64.59 268.00 66.18 267.52 66.55 266.92 C 66.91 266.33 67.15 260.66 67.07 254.32 C 66.91 242.14 67.55 240.01 71.37 239.98 C 75.71 239.95 76.41 238.60 76.16 230.68 C 75.89 222.21 77.12 220.00 82.10 220.00 C 85.10 220.00 85.35 219.69 86.43 214.77 C 86.86 212.82 87.82 211.87 89.77 211.46 C 95.15 210.32 95.47 209.78 96.00 200.90 L 96.50 192.50 L 99.90 192.00 C 103.45 191.48 104.50 190.30 105.46 185.77 C 105.87 183.81 106.81 182.87 108.77 182.46 C 113.20 181.52 114.42 180.49 115.11 177.10 C 115.93 173.13 116.13 172.92 120.20 172.10 C 123.02 171.52 123.57 170.92 124.00 167.98 C 124.40 165.21 125.09 164.37 127.50 163.65 C 132.62 162.14 133.45 161.41 134.34 157.64 C 135.01 154.81 135.80 153.86 137.85 153.43 C 142.29 152.51 143.48 151.44 144.00 147.90 C 144.44 144.94 144.91 144.46 147.68 144.19 C 151.45 143.83 152.71 142.53 153.16 138.53 C 153.45 136.02 154.12 135.38 157.44 134.45 C 161.57 133.30 162.51 132.25 163.46 127.77 C 163.87 125.82 164.82 124.86 166.77 124.43 C 171.61 123.37 172.00 123.10 172.02 120.78 C 172.04 117.38 173.37 115.88 177.03 115.13 C 180.49 114.42 181.52 113.21 182.46 108.77 C 182.87 106.81 183.81 105.87 185.77 105.46 C 190.30 104.50 191.48 103.45 192.00 99.90 L 192.50 96.50 L 200.50 96.00 C 209.60 95.43 211.00 94.83 211.00 91.51 C 211.00 87.33 213.52 85.91 220.51 86.17 C 227.39 86.43 229.99 85.18 230.02 81.63 C 230.05 77.33 231.52 76.51 239.65 76.26 C 247.69 76.02 248.96 75.35 248.98 71.31 C 249.01 68.18 250.50 67.56 259.49 67.00 L 267.47 66.50 L 268.10 62.65 C 268.44 60.53 269.34 58.40 270.11 57.91 C 270.87 57.43 276.70 57.02 283.05 57.02 C 295.53 57.00 297.00 56.46 297.00 51.91 C 297.00 50.37 297.68 48.95 298.58 48.61 C 299.45 48.27 309.79 48.00 321.55 48.00 C 341.66 48.00 342.99 47.89 343.96 46.07 C 344.53 45.00 345.00 43.23 345.00 42.12 C 345.00 41.02 345.56 39.77 346.25 39.34 C 347.81 38.36 443.31 37.99 446.87 38.94 C 448.72 39.43 449.74 40.62 450.42 43.07 C 450.95 44.96 451.85 46.83 452.44 47.23 C 453.02 47.64 462.80 47.98 474.17 47.98 C 485.54 47.99 495.55 48.27 496.42 48.61 C 497.29 48.94 498.00 50.10 498.00 51.17 C 498.00 52.25 498.47 54.00 499.04 55.07 C 499.97 56.81 501.22 57.00 511.60 57.00 C 523.86 57.00 527.00 57.84 527.00 61.10 C 527.00 65.73 528.72 67.00 534.97 67.00 C 538.21 67.00 542.01 67.43 543.40 67.96 C 545.91 68.92 545.94 69.06 546.22 81.69 L 546.50 94.45 L 549.50 95.34 C 555.63 97.16 555.46 96.77 556.00 110.61 L 556.50 123.50 L 560.50 123.50 C 564.30 123.50 564.52 123.33 565.00 120.02 C 565.40 117.21 566.07 116.37 568.50 115.65 C 573.55 114.16 574.38 113.46 575.30 109.92 C 576.45 105.49 577.31 105.03 584.56 105.02 C 593.08 104.99 593.88 105.86 594.22 115.49 L 594.50 123.47 L 598.35 124.10 C 600.47 124.44 602.60 125.34 603.09 126.11 C 603.57 126.87 603.98 130.94 603.98 135.14 C 604.00 143.30 604.44 144.00 609.56 144.00 C 611.37 144.00 612.10 144.67 612.54 146.75 C 613.48 151.21 614.50 152.42 617.94 153.12 C 622.17 153.99 623.23 155.15 622.83 158.53 C 622.48 161.48 621.18 162.53 616.71 163.47 C 613.87 164.07 613.63 164.40 612.56 169.25 C 611.98 171.94 611.80 172.00 604.73 172.02 C 600.75 172.02 596.89 172.42 596.15 172.89 C 595.41 173.36 594.49 175.26 594.11 177.12 C 593.54 179.94 592.77 180.72 589.49 181.80 C 587.33 182.51 585.22 183.63 584.80 184.30 C 583.51 186.32 583.87 198.65 585.25 199.79 C 585.94 200.36 587.80 200.98 589.40 201.16 C 592.40 201.51 593.15 202.42 594.65 207.50 C 595.34 209.83 596.20 210.58 598.52 210.84 C 603.68 211.42 604.00 212.27 604.00 225.05 C 604.00 237.52 603.17 240.00 599.01 240.00 C 593.93 240.00 594.00 239.66 594.00 263.55 C 594.00 280.32 593.69 286.08 592.75 286.69 C 592.06 287.14 583.62 287.73 574.00 288.00 L 556.50 288.50 L 556.00 291.98 C 555.50 295.43 554.90 295.87 548.30 297.58 C 547.64 297.76 546.62 299.72 546.02 301.94 C 545.16 305.14 544.36 306.10 542.21 306.55 C 537.70 307.50 536.52 308.55 536.00 312.10 C 535.56 315.09 535.08 315.56 532.02 316.00 C 528.58 316.49 528.09 317.17 526.43 323.66 C 526.27 324.29 524.64 325.13 522.82 325.52 C 517.21 326.72 517.00 327.23 516.98 339.87 C 516.98 346.27 516.58 352.11 516.11 352.85 C 515.64 353.59 513.74 354.51 511.88 354.89 L 508.50 355.58 L 508.23 378.04 C 507.99 398.27 508.13 400.62 509.67 401.75 C 510.61 402.44 512.37 403.00 513.58 403.00 C 515.85 403.00 517.00 404.71 517.00 408.10 C 517.00 410.06 519.17 411.36 524.25 412.45 C 526.47 412.93 527.00 413.59 527.00 415.90 C 527.00 419.13 528.41 420.65 531.90 421.15 C 534.40 421.51 535.19 422.56 536.63 427.41 C 537.31 429.68 538.39 430.57 541.50 431.44 C 545.00 432.42 545.56 432.98 546.00 436.00 C 546.45 439.13 546.88 439.52 550.75 440.28 C 555.04 441.12 555.32 441.50 556.22 447.48 C 556.49 449.25 558.01 450.08 563.75 451.61 C 564.62 451.84 565.00 454.38 565.00 459.95 C 565.00 469.14 564.59 468.79 575.90 469.24 C 582.65 469.51 582.94 469.73 584.66 475.50 L 585.54 478.50 L 597.88 478.78 C 611.40 479.09 613.00 478.57 613.00 473.91 C 613.00 469.77 615.39 469.00 628.23 469.00 C 640.17 469.00 642.00 468.40 642.00 464.50 C 642.00 461.63 643.86 460.00 647.14 460.00 C 650.21 460.00 651.04 459.07 651.95 454.59 C 652.42 452.26 653.35 451.25 655.74 450.47 C 659.76 449.15 660.09 448.79 660.90 444.84 C 661.48 441.98 662.12 441.45 666.03 440.50 C 670.07 439.51 670.55 439.08 671.00 435.99 C 671.42 433.14 672.01 432.47 674.59 431.95 C 679.72 430.90 680.00 430.39 680.00 422.14 C 680.00 413.72 680.85 412.00 685.00 412.00 C 686.43 412.00 688.14 411.46 688.80 410.80 C 690.37 409.23 690.52 349.84 688.96 346.93 C 688.40 345.87 687.02 345.00 685.90 345.00 C 680.91 345.00 680.00 343.45 680.00 334.93 C 680.00 329.38 679.62 326.84 678.75 326.61 C 672.27 324.88 671.49 324.37 671.18 321.67 C 670.65 317.08 672.41 316.00 680.42 316.00 C 684.67 316.00 688.09 315.51 688.80 314.80 C 689.61 313.99 690.00 309.42 690.00 300.80 L 690.00 288.00 L 686.57 288.00 C 682.60 288.00 680.00 285.84 680.00 282.55 C 680.00 279.39 682.24 277.80 686.18 278.18 C 689.31 278.48 689.52 278.74 689.81 282.75 C 690.06 286.25 690.53 287.09 692.49 287.59 C 697.87 288.94 701.54 284.75 699.05 280.09 C 698.20 278.51 696.96 278.00 693.96 278.00 L 690.00 278.00 L 690.00 265.43 C 690.00 258.52 689.53 252.00 688.96 250.93 C 688.31 249.72 686.87 249.00 685.09 249.00 C 681.70 249.00 680.30 247.54 679.84 243.54 C 679.56 241.13 678.91 240.45 676.41 239.95 C 671.93 239.04 671.00 238.21 671.00 235.14 C 671.00 230.91 669.31 230.00 661.50 230.00 C 653.48 230.00 652.00 229.12 652.00 224.32 C 652.00 221.55 652.43 220.95 654.75 220.46 C 660.58 219.23 660.48 219.55 660.77 202.12 C 661.08 184.14 660.57 182.00 655.98 182.00 C 653.59 182.00 652.92 182.51 652.43 184.75 C 651.16 190.43 650.80 191.01 648.18 191.59 C 641.48 193.08 642.00 191.54 642.00 210.00 C 642.00 228.15 641.50 230.00 636.63 230.00 C 633.63 230.00 632.00 231.82 632.00 235.16 C 632.00 239.25 634.46 240.00 647.92 240.00 L 659.96 240.00 L 660.56 242.75 C 661.63 247.60 661.87 247.93 664.71 248.53 C 670.66 249.79 670.50 249.22 670.50 268.61 L 670.50 286.50 L 666.00 287.58 L 661.50 288.66 L 660.96 296.89 C 660.42 305.19 659.54 306.95 655.95 306.98 C 653.64 307.01 652.00 304.93 652.00 302.00 C 652.00 297.86 650.27 297.00 642.00 297.00 C 637.42 297.00 633.92 296.52 633.20 295.80 C 631.61 294.21 631.61 280.79 633.20 279.20 C 633.86 278.54 635.40 278.00 636.63 278.00 C 641.43 278.00 644.05 271.17 640.07 269.04 C 639.00 268.47 635.27 268.00 631.77 268.00 C 625.02 268.00 623.00 266.96 623.00 263.50 C 623.00 260.62 624.87 259.00 628.18 259.00 C 631.18 259.00 632.48 256.45 631.83 251.85 C 631.57 250.03 630.79 249.43 628.32 249.19 C 623.87 248.76 623.14 247.42 622.80 239.06 C 622.48 231.27 622.36 231.08 616.50 229.35 C 614.21 228.67 613.42 227.79 613.17 225.61 C 612.76 222.02 613.92 220.86 618.70 220.09 C 622.01 219.56 622.54 219.09 622.84 216.49 C 623.29 212.47 624.55 211.17 628.32 210.81 L 631.50 210.50 L 631.50 201.50 L 631.50 192.50 L 628.50 192.16 C 623.62 191.61 623.00 190.46 623.00 181.91 C 623.00 172.57 623.59 172.00 633.23 172.00 C 640.07 172.00 642.00 170.97 642.00 167.34 C 642.00 163.87 644.92 163.00 656.50 163.00 C 670.65 163.00 671.00 163.23 671.00 172.34 C 671.00 176.65 671.49 180.09 672.20 180.80 C 672.90 181.50 676.23 182.00 680.13 182.00 C 688.98 182.00 690.00 183.03 690.00 191.95 C 690.00 199.39 690.74 200.62 695.50 201.16 C 698.14 201.46 698.63 202.04 699.58 206.00 C 700.52 209.93 701.03 210.54 703.58 210.84 C 708.42 211.40 709.15 212.66 708.85 220.06 C 708.55 227.29 709.74 230.00 713.19 230.00 C 714.26 230.00 716.00 230.47 717.07 231.04 C 718.91 232.02 719.00 233.41 719.00 260.04 L 719.00 288.00 L 727.30 288.00 C 736.14 288.00 738.00 288.81 738.00 292.66 C 738.00 295.86 740.82 297.00 748.73 297.00 C 752.74 297.00 756.10 297.50 756.80 298.20 C 757.72 299.12 758.00 323.68 758.00 402.66 C 758.00 521.48 759.47 508.00 746.53 508.00 C 740.28 508.00 738.82 508.30 738.28 509.72 C 737.92 510.66 737.59 516.57 737.56 522.85 C 737.50 535.16 737.64 534.84 731.50 536.65 C 728.53 537.53 728.50 537.62 728.20 545.47 C 728.04 549.84 727.45 553.96 726.88 554.64 C 726.31 555.33 724.42 556.02 722.68 556.19 L 719.50 556.50 L 719.00 564.79 C 718.48 573.44 717.65 574.95 713.45 574.98 C 710.03 575.01 709.00 577.05 709.00 583.77 C 709.00 591.16 707.81 593.99 704.71 594.02 C 700.33 594.05 699.58 595.40 699.83 602.83 C 700.10 610.48 698.79 613.00 694.55 613.00 C 691.74 613.00 690.45 614.48 689.54 618.75 C 689.01 621.21 688.19 622.14 686.17 622.56 C 681.71 623.49 680.52 624.56 680.00 628.10 C 679.56 631.07 679.07 631.56 676.10 632.00 C 672.55 632.52 671.50 633.70 670.54 638.23 C 670.13 640.19 669.19 641.13 667.23 641.54 C 662.80 642.48 661.58 643.51 660.89 646.90 C 660.08 650.87 659.86 651.08 655.83 651.90 C 653.16 652.45 652.45 653.16 651.90 655.83 C 651.08 659.86 650.87 660.08 646.90 660.89 C 643.51 661.58 642.48 662.80 641.54 667.23 C 641.13 669.19 640.19 670.13 638.23 670.54 C 633.70 671.50 632.52 672.55 632.00 676.10 L 631.50 679.50 L 623.55 679.80 C 614.94 680.12 613.00 680.99 613.00 684.55 C 613.00 687.51 610.50 690.00 607.54 690.00 C 605.23 690.00 604.01 691.65 603.98 694.83 C 603.96 697.78 602.30 699.27 598.35 699.90 C 594.98 700.45 594.46 700.90 594.19 703.51 C 593.74 707.83 591.54 709.00 583.87 709.00 C 576.68 709.00 576.08 709.37 575.05 714.40 C 574.58 716.70 573.67 717.70 571.46 718.36 C 566.56 719.81 565.52 720.59 565.15 723.10 C 564.56 727.25 563.15 728.00 555.95 728.00 C 548.52 728.00 546.00 729.37 546.00 733.41 C 546.00 736.89 542.16 738.00 530.15 738.00 C 518.49 738.00 517.00 738.58 517.00 743.14 C 517.00 744.65 516.51 746.18 515.91 746.55 C 515.32 746.92 507.20 747.29 497.88 747.36 C 478.83 747.52 478.93 747.48 479.18 754.79 C 479.35 759.69 478.24 761.25 474.58 761.25 C 469.42 761.25 469.00 759.98 469.00 744.44 C 469.00 734.08 469.35 729.89 470.25 729.31 C 470.94 728.86 475.08 728.27 479.46 728.00 C 487.42 727.50 487.43 727.50 488.05 724.41 C 489.16 718.94 488.97 719.00 506.62 719.00 C 523.85 719.00 527.00 718.37 527.00 714.90 C 527.00 710.15 528.67 709.00 535.60 709.00 C 543.19 709.00 546.00 707.83 546.00 704.66 C 546.00 700.98 547.92 700.00 555.13 700.00 C 562.53 700.00 565.00 698.62 565.00 694.49 C 565.00 691.80 566.04 690.93 571.00 689.47 C 573.93 688.62 574.55 687.93 574.81 685.30 C 575.17 681.54 576.48 680.29 580.50 679.84 L 583.50 679.50 L 583.78 666.23 C 583.99 656.11 583.75 652.88 582.78 652.62 C 576.71 650.99 575.47 650.28 575.19 648.28 C 574.72 645.06 576.75 642.00 579.34 642.00 C 583.87 642.00 584.00 641.15 584.00 612.41 C 584.00 582.86 584.22 584.00 578.42 584.00 C 577.09 584.00 575.91 583.89 575.79 583.75 C 575.68 583.61 575.34 571.14 575.04 556.02 L 574.50 528.55 L 571.50 527.66 C 565.37 525.84 565.54 526.23 565.00 512.42 L 564.50 499.54 L 561.50 498.64 C 559.85 498.14 557.94 497.58 557.25 497.39 C 556.38 497.16 556.00 494.62 556.00 489.09 C 556.00 480.59 555.73 480.10 550.59 479.06 C 548.04 478.54 547.27 477.70 546.15 474.21 C 545.11 470.94 544.21 469.86 542.15 469.44 C 536.91 468.34 536.53 467.71 536.00 459.40 L 535.50 451.50 L 532.00 450.38 C 528.69 449.31 527.91 448.19 526.44 442.38 C 526.29 441.76 524.59 440.96 522.68 440.60 C 518.71 439.85 517.34 438.55 516.85 435.03 C 516.58 433.11 515.61 432.31 512.50 431.44 C 508.93 430.44 508.44 429.92 507.89 426.56 C 507.56 424.49 506.66 422.40 505.89 421.91 C 505.13 421.43 501.29 421.02 497.37 421.02 C 489.59 421.00 488.38 420.30 487.84 415.50 C 487.51 412.55 487.40 412.50 481.03 412.20 C 471.66 411.76 470.26 412.32 469.00 417.01 C 468.19 420.00 467.41 421.00 465.90 421.00 C 462.54 421.00 460.00 422.92 460.00 425.45 C 460.00 430.58 459.31 431.00 450.96 431.00 C 442.40 431.00 440.00 432.21 440.00 436.54 C 440.00 437.85 439.21 439.33 438.25 439.83 C 436.33 440.82 357.62 440.50 356.00 439.50 C 355.45 439.16 354.99 437.90 354.98 436.69 C 354.95 432.33 353.51 431.51 345.63 431.37 C 337.06 431.22 336.00 430.78 336.00 427.44 C 336.00 424.31 332.69 421.00 329.56 421.00 C 326.80 421.00 326.30 420.46 325.62 416.70 C 324.83 412.35 324.20 412.00 317.02 412.00 C 308.34 412.00 307.00 412.53 307.00 415.98 C 307.00 419.98 305.31 420.87 297.06 421.20 C 289.27 421.52 289.08 421.64 287.35 427.50 L 286.46 430.50 L 277.76 430.79 C 267.63 431.12 267.67 431.16 268.20 420.07 C 268.52 413.36 269.03 412.64 274.23 411.54 C 276.16 411.14 277.16 410.16 277.62 408.23 C 278.50 404.58 279.85 403.00 282.12 403.00 C 283.16 403.00 284.90 402.10 286.00 401.00 C 287.87 399.13 288.00 397.67 288.00 378.20 C 288.00 356.42 287.73 355.02 283.55 354.98 C 278.98 354.95 278.53 353.74 278.00 340.39 C 277.46 326.79 277.62 327.16 271.50 325.35 C 268.96 324.60 268.42 323.86 268.00 320.48 C 267.55 316.94 267.17 316.46 264.50 316.16 C 260.65 315.73 259.19 314.48 258.81 311.28 C 258.49 308.60 257.51 307.83 252.54 306.36 C 250.33 305.70 249.42 304.70 248.95 302.40 C 247.92 297.37 247.32 297.00 240.13 297.00 C 232.45 297.00 230.26 295.83 229.81 291.50 L 229.50 288.50 L 216.50 288.00 C 209.35 287.73 202.94 287.14 202.25 286.69 C 201.56 286.25 201.00 284.78 201.00 283.44 C 201.00 281.05 197.90 277.00 196.07 277.00 C 194.39 277.00 192.00 280.11 191.98 282.32 C 191.95 287.27 191.26 287.47 171.79 288.00 L 153.50 288.50 L 153.19 291.50 C 152.83 294.94 150.64 297.00 147.33 297.00 C 145.64 297.00 144.88 297.73 144.43 299.75 C 143.16 305.43 142.80 306.01 140.18 306.56 C 135.96 307.44 134.53 308.52 134.15 311.10 C 133.55 315.30 132.18 316.00 124.50 316.00 C 119.73 316.00 116.87 316.45 116.15 317.31 C 115.54 318.06 114.94 323.98 114.78 331.03 L 114.50 343.44 L 111.00 344.47 C 104.66 346.34 105.00 344.40 105.00 378.58 L 105.00 410.04 L 107.25 410.95 C 108.49 411.45 110.74 412.13 112.25 412.45 C 114.96 413.03 115.00 413.15 115.02 420.77 C 115.02 425.02 115.36 429.02 115.77 429.66 C 116.17 430.30 118.19 431.13 120.25 431.52 C 124.32 432.28 124.37 432.40 124.04 440.65 C 123.70 448.93 124.76 450.00 133.29 450.02 C 137.25 450.02 141.13 450.43 141.89 450.91 C 142.66 451.40 143.56 453.53 143.90 455.65 C 144.44 459.01 144.90 459.54 147.51 459.84 C 151.32 460.27 153.00 461.67 153.00 464.42 C 153.00 468.43 154.76 469.00 167.13 469.00 C 179.77 469.00 182.00 469.81 182.00 474.37 C 182.00 478.45 183.71 479.00 196.50 479.00 C 209.29 479.00 211.00 478.45 211.00 474.37 C 211.00 470.38 213.54 469.00 220.87 469.00 C 224.77 469.00 228.10 468.50 228.80 467.80 C 229.50 467.10 230.00 463.76 230.00 459.82 C 230.00 453.73 230.25 452.88 232.45 451.44 C 233.89 450.50 235.75 450.10 236.95 450.48 C 238.85 451.09 239.46 452.39 240.22 457.50 C 240.43 458.93 241.41 459.59 243.68 459.81 C 248.33 460.26 249.13 461.87 248.80 470.05 C 248.48 477.72 248.09 478.34 242.75 479.46 C 240.06 480.03 240.00 480.19 239.98 487.27 C 239.98 491.25 239.55 495.16 239.04 495.96 C 238.53 496.77 236.40 497.91 234.31 498.49 L 230.50 499.56 L 230.20 506.98 C 229.87 515.33 228.99 517.00 224.94 517.00 C 223.39 517.00 221.75 517.56 221.31 518.25 C 220.86 518.94 220.28 531.88 220.00 547.00 L 219.50 574.50 L 216.32 574.81 C 214.58 574.98 212.66 575.70 212.07 576.42 C 211.31 577.33 211.06 593.01 211.24 628.00 C 211.52 682.84 211.10 679.17 217.25 680.46 C 219.43 680.92 220.00 681.60 220.02 683.77 C 220.04 687.62 221.25 689.10 225.03 689.87 C 228.47 690.58 229.53 691.79 230.43 696.13 C 231.08 699.25 233.16 699.97 241.64 699.99 C 248.02 700.00 249.00 700.67 249.00 705.02 C 249.00 708.00 250.78 708.47 263.97 709.00 L 276.44 709.50 L 277.51 713.31 C 278.09 715.40 279.23 717.53 280.04 718.04 C 280.84 718.55 286.70 718.98 293.05 718.98 C 305.53 719.00 307.00 719.54 307.00 724.09 C 307.00 725.63 307.68 727.05 308.58 727.39 C 309.45 727.73 317.54 728.00 326.55 728.00 C 341.72 728.00 343.01 728.14 343.96 729.93 C 344.53 731.00 345.00 732.81 345.00 733.96 C 345.00 737.53 348.95 738.05 375.13 737.96 C 388.81 737.92 400.43 738.15 400.96 738.48 C 401.49 738.80 402.22 740.64 402.58 742.56 C 402.94 744.48 404.09 746.51 405.13 747.07 C 406.17 747.63 412.04 747.99 418.16 747.89 C 427.97 747.71 429.46 747.91 430.65 749.54 C 432.41 751.95 432.38 757.11 430.58 759.56 C 429.20 761.44 427.45 761.50 374.01 761.50 C 343.68 761.50 318.22 761.14 317.43 760.70 Z M 199.89 659.64 C 200.70 658.65 200.95 644.14 200.76 607.40 C 200.50 557.39 200.47 556.52 198.50 556.22 C 192.38 555.30 192.00 555.04 192.00 551.68 C 192.00 547.90 193.50 546.00 196.50 546.00 C 200.74 546.00 201.00 544.65 201.00 522.37 C 201.00 504.41 200.76 500.90 199.43 499.57 C 198.10 498.24 194.59 498.00 176.63 498.00 C 154.23 498.00 153.00 497.76 153.00 493.37 C 153.00 489.38 150.46 488.00 143.13 488.00 C 135.93 488.00 134.00 487.02 134.00 483.36 C 134.00 480.79 132.93 479.94 128.60 479.05 C 126.30 478.58 125.30 477.67 124.64 475.46 C 122.96 469.76 122.61 469.52 116.05 469.20 C 109.14 468.87 105.00 470.64 105.00 473.94 C 105.00 477.51 103.82 479.00 101.02 479.00 C 97.69 479.00 96.29 480.48 95.84 484.50 L 95.50 487.50 L 87.14 488.04 C 76.28 488.75 76.00 489.12 76.00 502.76 C 76.00 514.10 76.89 517.00 80.34 517.00 C 85.08 517.00 86.42 519.18 86.46 527.03 C 86.50 534.76 86.60 534.91 92.50 536.65 C 95.47 537.53 95.50 537.62 95.80 545.47 C 95.96 549.84 96.55 553.96 97.12 554.64 C 97.69 555.33 99.58 556.02 101.32 556.19 L 104.50 556.50 L 105.00 564.50 C 105.58 573.79 106.14 575.00 109.86 575.00 C 113.99 575.00 115.00 576.72 115.00 583.77 C 115.00 591.19 116.19 594.00 119.34 594.00 C 122.15 594.00 124.00 595.76 124.02 598.45 C 124.04 601.78 125.55 603.24 129.65 603.90 C 133.02 604.45 133.54 604.90 133.81 607.51 C 134.17 610.96 136.37 613.00 139.71 613.00 C 142.10 613.00 143.29 614.83 144.45 620.25 C 144.93 622.47 145.59 623.00 147.90 623.00 C 151.99 623.00 152.87 624.65 153.20 633.02 L 153.50 640.44 L 157.00 641.47 C 161.90 642.91 163.00 643.80 163.02 646.31 C 163.05 650.66 164.50 651.47 173.21 652.00 L 181.50 652.50 L 181.81 655.50 C 181.98 657.15 182.86 659.06 183.75 659.75 C 186.02 661.49 198.42 661.40 199.89 659.64 Z M 611.79 659.75 C 612.36 659.06 612.98 657.15 613.16 655.50 L 613.50 652.50 L 621.45 652.20 C 630.26 651.88 632.00 651.03 632.00 647.08 C 632.00 643.82 633.66 642.00 636.63 642.00 C 640.62 642.00 642.00 639.46 642.00 632.13 C 642.00 624.71 642.96 623.00 647.14 623.00 C 650.30 623.00 651.17 621.93 651.95 617.03 C 652.44 614.01 652.96 613.45 655.51 613.16 C 659.53 612.71 660.83 611.45 661.19 607.69 C 661.47 604.86 661.92 604.46 665.35 603.90 C 669.45 603.24 670.96 601.78 670.98 598.45 C 671.00 595.81 672.84 594.00 675.50 594.00 C 679.06 594.00 680.00 592.01 680.00 584.50 C 680.00 576.69 680.91 575.00 685.14 575.00 C 688.86 575.00 689.42 573.79 690.00 564.51 L 690.50 556.53 L 694.35 555.90 C 698.45 555.24 699.96 553.78 699.98 550.45 C 700.00 547.77 701.85 546.00 704.64 546.00 C 705.87 546.00 707.25 545.44 707.69 544.75 C 708.14 544.06 708.73 537.88 709.00 531.02 L 709.50 518.54 L 712.50 517.65 C 718.63 515.84 718.48 516.19 718.78 503.29 C 719.12 488.89 719.06 488.82 708.19 488.04 L 700.57 487.50 L 699.90 484.20 C 699.08 480.13 698.87 479.93 694.90 479.11 C 693.13 478.75 691.38 477.79 691.01 476.98 C 687.36 469.10 687.90 469.52 680.97 469.24 C 673.39 468.94 672.03 469.60 671.13 474.03 C 670.42 477.50 669.22 478.52 664.71 479.47 C 661.87 480.07 661.63 480.40 660.56 485.25 C 659.98 487.90 659.73 488.00 653.55 488.00 C 645.30 488.00 642.00 489.22 642.00 492.28 C 642.00 497.73 641.29 497.90 617.71 498.21 C 599.66 498.45 595.76 498.76 594.97 500.00 C 594.41 500.88 594.11 512.40 594.26 527.98 L 594.50 554.45 L 597.50 555.34 C 602.39 556.79 603.48 557.58 603.83 559.91 C 604.25 562.78 602.34 565.00 599.45 565.00 C 593.92 565.00 594.00 564.26 594.00 613.52 C 594.00 655.68 594.12 658.97 595.75 659.92 C 598.29 661.40 610.53 661.27 611.79 659.75 Z M 261.22 449.44 C 256.08 445.84 260.38 437.99 265.87 440.93 C 268.73 442.46 268.86 448.47 266.07 449.96 C 263.63 451.27 263.86 451.29 261.22 449.44 Z M 412.00 416.50 L 412.50 412.50 L 425.96 412.00 L 439.42 411.50 L 440.10 408.20 C 440.93 404.11 441.29 403.75 445.81 402.47 C 448.87 401.61 449.62 400.83 450.55 397.55 C 451.49 394.19 452.19 393.49 455.57 392.54 C 458.98 391.59 459.57 390.99 460.00 388.06 C 460.43 385.12 461.02 384.53 464.46 383.56 C 467.73 382.65 468.54 381.91 469.05 379.39 C 469.97 374.93 470.68 374.15 474.55 373.43 C 476.46 373.07 478.29 372.34 478.62 371.81 C 478.95 371.27 479.15 365.93 479.07 359.93 C 478.91 348.14 479.79 345.01 483.29 344.98 C 488.10 344.95 488.10 344.97 488.10 316.65 C 488.11 301.98 487.83 289.54 487.50 288.99 C 487.16 288.45 485.82 288.00 484.51 288.00 C 480.21 288.00 479.00 285.59 479.00 277.04 C 479.00 268.74 478.56 268.00 473.62 268.00 C 470.83 268.00 469.00 266.22 469.00 263.50 C 469.00 260.82 467.18 259.00 464.50 259.00 C 461.67 259.00 460.00 257.14 460.00 254.00 C 460.00 250.88 458.34 249.01 455.55 248.98 C 452.37 248.96 450.86 247.55 450.12 243.91 C 449.56 241.21 448.85 240.45 446.38 239.94 C 441.91 239.03 441.17 238.33 439.99 233.96 L 438.92 230.00 L 426.66 230.00 C 413.48 230.00 412.00 229.50 412.00 225.00 C 412.00 220.56 410.46 220.00 398.38 220.00 C 385.58 220.00 384.00 220.37 384.00 223.38 C 384.00 224.58 383.30 226.56 382.44 227.78 C 380.98 229.86 380.14 230.00 369.14 230.00 C 356.85 230.00 355.01 230.58 354.98 234.45 C 354.95 238.61 353.45 239.44 345.30 239.81 C 336.17 240.23 334.71 241.34 335.64 247.12 C 335.97 249.20 335.95 252.48 335.59 254.40 C 334.94 257.85 334.56 258.13 328.75 259.43 C 326.85 259.85 326.00 260.67 326.00 262.08 C 326.00 265.68 324.10 268.00 321.16 268.00 C 316.84 268.00 316.00 269.65 316.00 278.08 C 316.00 286.45 315.37 287.61 310.50 288.16 L 307.50 288.50 L 307.24 320.44 C 307.08 338.97 307.36 352.76 307.89 353.29 C 308.40 353.80 310.32 354.52 312.16 354.89 L 315.50 355.57 L 316.00 363.71 C 316.27 368.18 316.73 372.03 317.00 372.25 C 317.27 372.48 319.06 373.09 320.98 373.61 C 323.88 374.41 324.64 375.21 325.56 378.53 C 326.56 382.10 327.10 382.59 330.85 383.40 C 334.21 384.12 335.15 384.80 335.60 386.90 C 335.91 388.33 336.32 390.01 336.50 390.62 C 336.69 391.24 338.43 392.05 340.37 392.41 C 343.55 393.01 343.98 393.48 344.72 397.26 C 345.45 400.91 346.00 401.58 349.03 402.48 C 354.12 403.98 355.00 404.80 355.00 408.04 C 355.00 411.69 355.91 411.93 370.97 412.25 L 382.44 412.50 L 383.54 416.42 C 384.14 418.58 385.37 420.61 386.26 420.92 C 387.15 421.24 393.20 421.27 399.69 421.00 L 411.50 420.50 L 412.00 416.50 Z M 726.39 391.70 C 728.78 389.96 728.20 384.97 725.50 383.99 C 722.00 382.71 719.00 384.56 719.00 388.00 C 719.00 390.24 719.60 391.31 721.25 391.97 C 724.29 393.19 724.36 393.19 726.39 391.70 Z M 716.43 296.02 C 718.52 295.23 719.00 294.39 719.00 291.52 C 719.00 288.02 718.98 288.00 714.54 288.00 C 711.09 288.00 709.83 288.46 709.00 290.00 C 707.45 292.89 709.65 296.51 713.18 296.92 C 713.56 296.96 715.02 296.56 716.43 296.02 Z M 497.59 208.50 C 499.11 206.18 499.11 205.82 497.55 203.44 C 496.18 201.34 495.23 200.94 492.19 201.19 C 488.87 201.47 488.47 201.81 488.20 204.62 C 487.61 210.64 494.37 213.42 497.59 208.50 Z M 487.81 196.75 C 487.53 192.92 487.22 192.47 484.69 192.18 C 481.43 191.80 479.00 193.46 479.00 196.05 C 479.00 198.76 481.77 201.00 485.13 201.00 C 488.02 201.00 488.11 200.87 487.81 196.75 Z M 506.92 190.59 C 507.65 189.72 507.98 186.29 507.79 181.45 C 507.45 172.35 505.94 170.41 501.24 173.03 C 498.71 174.45 498.48 175.11 498.21 181.67 C 497.98 187.16 498.28 189.14 499.53 190.39 C 501.52 192.37 505.36 192.48 506.92 190.59 Z M 238.80 170.80 C 241.68 167.92 239.47 163.00 235.30 163.00 C 230.51 163.00 227.80 168.75 231.43 171.23 C 233.10 172.38 237.47 172.13 238.80 170.80 Z M 467.80 161.80 C 468.46 161.14 469.00 159.43 469.00 158.00 C 469.00 154.00 467.22 153.00 460.13 153.00 C 451.36 153.00 448.21 155.79 451.04 161.07 C 451.91 162.71 453.18 163.00 459.34 163.00 C 463.65 163.00 467.09 162.51 467.80 161.80 Z M 286.96 151.07 C 287.53 150.00 288.00 146.27 288.00 142.77 C 288.00 135.93 289.03 134.00 292.66 134.00 C 295.08 134.00 297.00 131.40 297.00 128.12 C 297.00 125.19 298.61 124.56 307.50 124.00 L 315.50 123.50 L 315.84 120.50 C 316.30 116.45 317.69 115.00 321.15 115.00 C 324.76 115.00 326.00 112.23 326.00 104.13 C 326.00 97.77 324.90 96.00 320.92 96.00 C 317.69 96.00 316.29 97.51 315.84 101.50 C 315.55 104.07 315.01 104.57 312.03 105.00 C 308.97 105.44 308.38 106.03 307.00 110.00 C 305.50 114.30 305.26 114.50 301.51 114.50 C 297.75 114.50 297.56 114.34 296.77 110.54 C 295.87 106.23 294.69 105.04 291.27 105.02 C 289.64 105.00 288.88 105.74 288.45 107.75 C 287.33 112.97 286.07 115.00 283.96 115.00 C 280.60 115.00 278.00 116.89 278.00 119.34 C 278.00 122.21 276.22 124.00 273.37 124.00 C 268.81 124.00 268.00 126.23 268.00 138.87 C 268.00 146.66 268.40 151.00 269.20 151.80 C 269.93 152.53 273.46 153.00 278.16 153.00 C 284.82 153.00 286.08 152.72 286.96 151.07 Z M 228.07 142.96 C 231.99 140.86 229.17 134.00 224.38 134.00 C 221.96 134.00 220.00 136.57 220.00 139.73 C 220.00 143.55 223.99 145.14 228.07 142.96 Z M 544.07 142.96 C 545.30 142.30 546.00 140.87 546.00 139.00 C 546.00 134.50 540.77 132.37 537.57 135.57 C 533.08 140.06 538.33 146.03 544.07 142.96 Z M 613.71 123.38 C 613.32 122.99 613.00 121.38 613.00 119.81 C 613.00 116.07 616.75 114.11 620.56 115.85 C 622.67 116.81 623.07 117.59 622.81 120.26 C 622.52 123.27 622.21 123.52 618.46 123.80 C 616.24 123.96 614.11 123.77 613.71 123.38 Z M 266.07 114.96 C 267.20 114.36 268.00 112.88 268.00 111.40 C 268.00 107.34 269.77 105.00 272.84 105.00 C 277.04 105.00 278.00 103.30 278.00 95.88 C 278.00 86.05 277.96 86.00 269.83 86.00 C 261.44 86.00 259.00 87.09 259.00 90.84 C 259.00 94.28 257.36 96.00 254.05 96.02 C 250.36 96.04 248.75 97.40 248.75 100.50 C 248.75 103.50 250.35 104.96 253.68 104.98 C 256.55 105.00 259.00 107.56 259.00 110.51 C 259.00 111.83 259.99 113.58 261.22 114.44 C 263.86 116.29 263.63 116.27 266.07 114.96 Z M 439.43 94.43 C 440.29 93.56 441.00 92.31 441.00 91.65 C 441.00 89.47 437.93 86.00 436.00 86.00 C 434.07 86.00 431.00 89.47 431.00 91.65 C 431.00 93.47 433.90 96.00 436.00 96.00 C 437.02 96.00 438.56 95.29 439.43 94.43 Z M 286.80 84.80 C 290.10 81.50 286.64 75.38 282.11 76.50 C 278.72 77.34 278.37 77.79 277.69 82.25 L 277.13 86.00 L 281.36 86.00 C 283.69 86.00 286.14 85.46 286.80 84.80 Z M 372.43 55.43 C 373.29 54.56 374.00 53.25 374.00 52.50 C 374.00 50.42 371.11 48.00 368.63 48.00 C 365.83 48.00 364.00 49.78 364.00 52.50 C 364.00 56.78 369.25 58.60 372.43 55.43 Z M 431.12 54.63 C 431.91 52.90 431.89 51.67 431.07 50.13 C 430.05 48.22 429.07 48.00 421.53 48.00 C 413.92 48.00 413.07 48.19 412.48 50.07 C 412.12 51.21 412.09 53.24 412.43 54.57 C 413.01 56.90 413.37 57.00 421.54 57.00 C 429.52 57.00 430.11 56.85 431.12 54.63 Z" fill="#000" fill-rule="evenodd"/></svg>
