<svg xmlns="http://www.w3.org/2000/svg" viewBox="0 0 800 800" width="200" height="200"><circle cx="399.37" cy="400.05" r="362.05" fill="#f0ece3"/><path d="M 349.75 761.22 C 345.49 760.83 343.60 758.42 344.57 754.59 C 345.45 751.06 344.20 748.00 341.87 748.00 C 339.21 748.00 336.37 746.41 335.65 744.52 C 334.68 742.01 336.73 738.00 338.98 738.00 C 341.76 738.00 345.00 734.52 345.00 731.52 C 345.00 726.68 353.52 726.94 354.58 731.82 C 355.61 736.55 355.87 736.93 358.47 737.58 C 361.75 738.41 364.00 736.54 364.00 733.00 C 364.00 728.43 365.65 727.91 379.10 728.22 L 391.42 728.50 L 392.13 731.95 C 393.31 737.74 398.40 739.47 401.75 735.21 C 403.30 733.24 403.47 713.75 401.96 710.93 C 401.39 709.85 399.88 709.00 398.55 709.00 C 394.72 709.00 393.00 707.94 393.00 705.58 C 393.00 701.99 390.76 699.79 387.49 700.16 C 385.08 700.44 384.45 701.09 383.89 703.88 C 383.51 705.74 382.59 707.64 381.85 708.11 C 381.11 708.58 377.06 708.98 372.86 708.98 C 364.76 709.00 364.00 709.46 364.00 714.38 C 364.00 718.43 362.27 719.00 349.86 719.00 C 337.17 719.00 337.25 719.03 335.48 713.04 C 334.67 710.31 333.80 709.44 331.39 708.95 C 327.05 708.06 326.00 707.21 326.00 704.56 C 326.00 701.39 323.77 699.80 319.82 700.18 C 316.96 700.46 316.45 700.92 316.16 703.50 C 315.53 709.06 315.82 709.00 288.07 709.00 C 259.79 709.00 258.56 708.76 259.16 703.45 C 259.50 700.52 259.56 700.50 267.10 700.00 C 275.24 699.46 278.00 698.09 278.00 694.58 C 278.00 691.78 276.20 690.00 273.37 690.00 C 269.38 690.00 268.00 687.46 268.00 680.13 C 268.00 672.50 267.07 671.00 262.30 671.00 C 259.13 671.00 259.00 671.16 259.00 674.89 C 259.00 677.52 258.49 678.98 257.42 679.39 C 256.55 679.73 250.56 680.00 244.12 680.00 C 231.78 680.00 230.00 680.57 230.00 684.55 C 230.00 688.38 226.96 690.00 219.79 690.00 C 212.62 690.00 211.37 690.77 210.84 695.50 C 210.52 698.34 210.26 698.50 206.00 698.50 C 201.74 698.50 201.48 698.34 201.16 695.50 C 200.63 690.82 199.35 690.00 192.60 690.00 C 182.56 690.00 182.00 689.22 182.00 675.14 C 182.00 662.51 182.53 661.00 187.00 661.00 C 190.98 661.00 192.00 659.22 192.00 652.23 C 192.00 642.68 191.37 642.00 182.54 642.00 C 174.19 642.00 172.00 640.74 172.00 635.95 C 172.00 633.71 171.45 632.90 169.59 632.43 C 168.27 632.10 166.26 632.32 165.13 632.93 C 163.36 633.88 163.04 635.15 162.79 642.26 L 162.50 650.50 L 158.00 651.58 C 153.93 652.55 153.47 652.97 153.18 655.88 C 152.96 658.18 152.14 659.43 150.36 660.25 C 146.96 661.79 144.64 660.22 144.00 655.94 C 143.56 652.97 143.05 652.49 139.56 651.77 C 137.39 651.32 135.37 650.70 135.06 650.40 C 134.75 650.09 134.28 646.17 134.00 641.69 C 133.51 633.66 133.46 633.53 130.50 632.65 C 125.35 631.13 124.51 630.39 124.00 626.90 C 123.56 623.91 123.08 623.44 120.03 623.00 C 116.99 622.56 116.42 622.01 115.46 618.56 C 114.32 614.50 113.60 613.85 108.50 612.35 C 106.07 611.63 105.40 610.79 105.00 607.98 C 104.57 604.99 104.07 604.45 101.50 604.16 C 96.63 603.61 96.00 602.45 96.00 594.08 C 96.00 585.69 95.15 584.00 90.92 584.00 C 86.91 584.00 85.91 582.03 86.22 574.67 C 86.53 567.33 85.86 566.13 80.85 565.10 C 77.60 564.44 77.12 563.75 75.39 557.25 C 75.21 556.56 73.71 556.00 72.07 556.00 C 67.69 556.00 66.90 553.60 67.07 540.81 C 67.21 531.09 66.99 529.47 65.42 528.32 C 64.43 527.59 62.84 527.00 61.88 527.00 C 57.83 527.00 57.00 524.45 57.00 511.96 C 57.00 501.23 56.81 499.97 55.07 499.04 C 54.00 498.47 52.21 498.00 51.08 498.00 C 48.19 498.00 47.89 495.83 48.21 477.01 C 48.53 459.01 48.56 458.92 54.58 460.43 C 56.43 460.90 57.00 461.71 57.00 463.90 C 57.00 467.59 59.04 469.22 63.18 468.82 C 66.04 468.54 66.55 468.08 66.84 465.50 C 67.29 461.48 68.54 460.18 72.29 459.81 C 74.96 459.55 75.53 459.00 76.11 456.16 C 76.48 454.32 77.24 452.36 77.80 451.80 C 78.35 451.25 82.27 450.67 86.52 450.52 C 91.73 450.34 94.51 449.81 95.10 448.88 C 95.58 448.12 95.98 442.24 95.98 435.82 C 96.00 421.53 95.66 421.00 86.43 421.00 C 79.30 421.00 76.00 423.00 76.00 427.30 C 76.00 431.57 72.91 433.12 69.44 430.58 C 67.68 429.30 67.45 427.51 67.00 411.33 L 66.50 393.50 L 63.04 393.17 C 58.21 392.71 57.00 394.80 57.00 403.58 C 57.00 411.82 56.82 412.00 48.61 412.00 C 40.16 412.00 39.89 411.51 40.22 397.05 L 40.50 384.62 L 43.74 383.79 C 46.13 383.17 47.13 382.24 47.58 380.22 C 48.84 374.58 49.20 373.99 51.82 373.42 C 53.29 373.10 55.06 372.66 55.75 372.45 C 57.55 371.89 57.55 337.08 55.75 336.61 C 55.06 336.42 53.15 335.86 51.50 335.36 L 48.50 334.45 L 48.50 326.08 C 48.50 317.13 48.73 316.70 54.25 315.54 L 57.00 314.96 L 57.02 293.23 C 57.02 281.28 57.43 270.87 57.91 270.11 C 58.40 269.34 60.53 268.44 62.65 268.10 L 66.50 267.47 L 67.00 259.49 C 67.56 250.50 68.18 249.01 71.31 248.98 C 75.54 248.96 76.31 247.61 76.11 240.60 C 75.90 232.85 77.09 230.00 80.54 230.00 C 85.04 230.00 86.89 226.94 86.36 220.34 C 85.82 213.49 86.56 212.04 91.11 211.11 C 93.71 210.58 94.68 209.75 95.36 207.46 C 96.83 202.49 97.60 201.51 100.28 201.19 C 103.31 200.83 104.68 199.40 105.15 196.10 C 105.52 193.59 106.56 192.81 111.50 191.35 C 114.46 190.47 114.51 190.34 115.00 182.31 C 115.28 177.83 115.81 173.85 116.20 173.46 C 116.58 173.08 118.37 172.47 120.17 172.10 C 122.79 171.56 123.56 170.83 124.06 168.38 C 124.97 163.91 125.80 163.00 128.94 163.00 C 132.25 163.00 133.52 161.68 134.46 157.25 C 134.99 154.79 135.81 153.86 137.83 153.44 C 142.29 152.51 143.48 151.44 144.00 147.90 C 144.44 144.94 144.91 144.46 147.68 144.19 C 151.45 143.83 152.71 142.53 153.16 138.52 C 153.42 136.20 154.17 135.34 156.50 134.65 C 161.56 133.16 162.43 132.43 163.11 129.10 C 163.93 125.13 164.13 124.92 168.20 124.10 C 171.02 123.52 171.57 122.92 172.00 119.98 C 172.40 117.21 173.09 116.37 175.50 115.65 C 180.58 114.15 181.43 113.42 182.13 110.03 C 183.02 105.68 184.29 105.03 192.05 105.02 C 199.30 105.00 201.00 104.01 201.00 99.82 C 201.00 97.59 201.55 96.92 203.75 96.45 C 209.27 95.27 211.00 94.11 211.00 91.59 C 211.00 87.35 213.42 86.00 221.04 86.00 C 228.38 86.00 230.00 84.92 230.00 80.04 C 230.00 77.25 233.56 76.00 241.46 76.00 C 248.03 76.00 249.00 75.35 249.00 70.98 C 249.00 68.00 250.78 67.53 264.00 67.00 L 276.50 66.50 L 277.79 62.53 C 278.51 60.35 279.63 58.22 280.30 57.80 C 280.96 57.37 286.70 57.02 293.05 57.02 C 305.53 57.00 307.00 56.46 307.00 51.91 C 307.00 50.37 307.68 48.95 308.58 48.61 C 309.45 48.27 317.54 48.00 326.55 48.00 C 341.72 48.00 343.01 47.86 343.96 46.07 C 344.53 45.00 345.00 43.19 345.00 42.04 C 345.00 40.69 345.96 39.59 347.70 38.92 C 349.46 38.25 367.50 38.00 399.28 38.20 C 446.33 38.49 448.22 38.57 449.58 40.44 C 450.36 41.51 451.00 43.42 451.00 44.69 C 451.00 45.96 451.11 47.09 451.25 47.19 C 451.39 47.30 459.60 47.63 469.50 47.94 L 487.50 48.50 L 488.00 51.90 C 488.51 55.38 489.35 56.13 494.41 57.63 C 496.68 58.31 497.57 59.39 498.44 62.50 C 499.42 66.04 499.94 66.54 502.92 66.82 C 506.67 67.19 507.96 65.92 507.98 61.87 C 508.02 56.27 515.40 55.31 516.54 60.77 C 517.67 66.12 518.26 66.48 526.27 66.79 C 531.12 66.98 534.23 67.57 534.95 68.45 C 535.65 69.28 535.97 72.85 535.79 77.62 L 535.50 85.43 L 531.74 86.32 C 528.91 86.98 527.83 87.83 527.35 89.76 C 526.05 94.90 527.48 95.47 542.36 95.78 L 556.00 96.06 L 556.00 87.15 C 556.00 77.30 557.03 75.29 561.47 76.40 C 563.15 76.82 564.16 77.93 564.54 79.77 C 565.49 84.25 566.43 85.30 570.56 86.45 C 573.86 87.37 574.55 88.03 574.84 90.48 C 575.33 94.81 572.95 96.00 563.77 96.00 L 555.92 96.00 L 556.21 105.25 L 556.50 114.50 L 564.89 114.50 C 573.88 114.50 573.88 114.50 575.65 108.50 C 576.37 106.07 577.21 105.40 580.02 105.00 C 583.01 104.57 583.55 104.07 583.84 101.50 C 584.29 97.51 585.69 96.00 588.92 96.00 C 592.14 96.00 594.00 97.65 594.00 100.50 C 594.00 104.07 595.99 105.00 603.64 105.00 C 611.33 105.00 611.91 105.33 612.93 110.32 C 613.57 113.43 614.48 114.17 619.50 115.65 C 621.93 116.37 622.60 117.21 623.00 120.02 C 623.44 123.08 623.91 123.56 626.90 124.00 C 630.39 124.51 631.13 125.35 632.64 130.46 C 633.31 132.73 634.29 133.58 636.81 134.10 C 640.88 134.93 641.07 135.12 641.90 139.19 C 642.42 141.71 643.27 142.69 645.54 143.36 C 650.65 144.87 651.49 145.61 652.00 149.10 C 652.44 152.09 652.92 152.56 655.98 153.00 C 659.44 153.50 659.80 153.99 661.61 160.77 C 661.80 161.47 662.53 162.20 663.23 162.39 C 670.01 164.20 670.50 164.56 671.00 168.02 C 671.43 171.01 671.93 171.55 674.50 171.84 C 678.49 172.29 680.00 173.69 680.00 176.92 C 680.00 180.18 681.66 182.00 684.63 182.00 C 688.68 182.00 690.12 184.62 689.89 191.58 C 689.66 198.83 690.86 201.00 695.09 201.00 C 699.21 201.00 700.00 203.39 700.00 215.86 C 700.00 228.33 699.22 230.00 693.37 230.00 C 689.89 230.00 689.89 230.01 690.19 234.22 C 690.47 238.09 690.79 238.53 694.00 239.47 C 699.76 241.16 700.00 241.56 700.02 249.31 C 700.03 257.81 700.74 259.27 704.58 258.83 C 706.88 258.57 707.65 257.81 708.47 255.00 C 710.18 249.18 710.50 249.00 718.95 249.00 C 728.03 249.00 728.00 248.97 728.00 258.50 C 728.00 266.67 728.57 268.00 732.04 268.00 C 737.48 268.00 738.00 269.61 737.99 286.32 C 737.97 307.12 738.44 306.42 724.22 306.78 C 709.49 307.15 709.00 306.87 709.00 298.05 C 709.00 287.83 709.16 288.00 699.37 288.00 C 691.27 288.00 690.91 288.10 689.76 290.62 C 688.71 292.93 688.84 293.46 690.90 295.12 C 692.18 296.15 694.28 297.00 695.58 297.00 C 698.81 297.00 700.00 299.75 700.00 307.23 C 700.00 314.03 698.97 316.00 695.41 316.00 C 694.21 316.00 692.18 316.85 690.90 317.88 C 688.88 319.51 688.72 320.10 689.71 322.27 C 690.48 323.96 692.08 325.06 694.66 325.67 C 697.68 326.38 698.66 327.19 699.36 329.53 C 701.04 335.22 701.40 335.49 707.62 335.71 C 714.88 335.97 718.39 334.41 718.82 330.74 C 719.28 326.71 721.93 325.40 729.12 325.62 C 735.85 325.84 738.00 327.27 738.00 331.57 C 738.00 334.44 736.27 335.76 732.00 336.17 L 728.50 336.50 L 728.21 344.01 C 727.87 352.99 729.18 355.67 733.38 354.62 C 736.82 353.76 738.00 350.62 738.00 342.40 L 738.00 335.93 L 747.75 336.21 L 757.50 336.50 L 757.77 353.93 C 757.98 367.20 757.74 371.54 756.77 372.16 C 756.07 372.61 752.72 372.98 749.32 372.98 C 745.91 372.99 742.01 373.42 740.65 373.94 C 737.71 375.06 736.48 378.17 737.92 380.86 C 738.80 382.49 740.29 382.85 747.43 383.15 C 752.26 383.35 756.42 384.02 757.11 384.71 C 758.85 386.45 758.31 399.08 756.42 401.00 C 755.37 402.05 752.74 402.50 747.49 402.53 C 743.27 402.55 739.54 403.06 738.89 403.71 C 737.57 405.03 737.01 425.23 738.19 428.75 C 738.88 430.80 739.58 431.00 745.91 431.00 C 749.74 431.00 754.02 431.44 755.43 431.98 L 758.00 432.95 L 758.00 464.28 C 758.00 487.31 757.68 495.92 756.80 496.80 C 756.09 497.51 752.69 498.00 748.49 498.00 C 737.89 498.00 737.47 498.51 737.84 511.15 C 738.20 523.63 737.22 527.00 733.22 527.00 C 728.49 527.00 728.00 528.36 728.00 541.58 C 728.00 554.77 727.70 555.58 722.50 556.16 L 719.50 556.50 L 719.00 564.79 C 718.49 573.24 717.62 574.95 713.83 574.98 C 710.51 575.02 709.00 576.24 709.00 578.91 C 709.00 582.11 707.36 583.99 704.55 584.02 C 700.43 584.05 699.74 585.39 699.87 593.14 C 699.93 597.19 699.59 601.13 699.10 601.89 C 698.61 602.66 696.49 603.56 694.39 603.90 C 691.04 604.45 690.49 604.93 689.89 607.89 C 689.14 611.55 687.64 612.96 684.45 612.98 C 680.86 613.01 680.00 615.00 680.00 623.23 C 680.00 628.65 679.62 631.16 678.75 631.39 C 672.03 633.18 671.50 633.57 671.00 637.00 C 670.60 639.79 669.92 640.63 667.50 641.35 C 662.44 642.84 661.57 643.58 660.89 646.90 C 660.07 650.87 659.87 651.08 655.80 651.90 C 652.98 652.48 652.43 653.08 652.00 656.02 C 651.60 658.79 650.91 659.63 648.50 660.35 C 643.42 661.85 642.57 662.58 641.87 665.97 C 641.13 669.58 639.62 670.96 636.37 670.98 C 633.67 671.00 632.27 672.71 631.84 676.50 L 631.50 679.50 L 623.55 679.80 C 614.94 680.12 613.00 680.99 613.00 684.55 C 613.00 687.54 610.49 690.00 607.45 690.00 C 605.63 690.00 604.89 690.68 604.43 692.75 C 604.09 694.26 603.61 696.26 603.36 697.18 C 603.11 698.10 601.47 699.17 599.70 699.55 C 595.47 700.45 594.00 701.75 594.00 704.59 C 594.00 707.83 591.24 709.00 583.60 709.00 C 576.68 709.00 575.00 710.15 575.00 714.88 C 575.00 717.81 573.39 718.44 564.50 719.00 L 556.50 719.50 L 556.19 722.68 C 556.02 724.42 555.33 726.31 554.64 726.88 C 553.96 727.45 549.84 728.04 545.47 728.20 C 537.62 728.50 537.53 728.53 536.65 731.50 C 534.83 737.66 535.24 737.49 522.06 737.57 C 509.19 737.64 508.07 738.04 508.00 742.50 C 507.93 747.31 507.19 747.50 488.50 747.50 C 468.64 747.50 469.04 747.34 469.02 755.21 C 469.00 758.78 468.55 760.17 467.14 760.93 C 465.43 761.84 359.57 762.10 349.75 761.22 Z M 299.21 736.89 C 297.04 736.08 296.93 735.60 297.21 727.77 L 297.50 719.50 L 300.82 719.18 C 305.90 718.69 307.00 720.26 307.00 728.00 C 307.00 732.22 306.53 735.12 305.75 735.72 C 303.57 737.41 301.57 737.76 299.21 736.89 Z M 420.43 726.43 C 421.29 725.56 422.00 724.25 422.00 723.50 C 422.00 719.67 413.92 717.16 412.61 720.58 C 411.80 722.68 411.83 726.50 412.67 727.33 C 413.91 728.58 418.85 728.01 420.43 726.43 Z M 232.39 708.02 C 229.74 706.95 229.02 705.14 230.10 702.25 C 230.74 700.53 231.73 700.00 234.27 700.00 C 239.63 700.00 241.86 703.99 238.43 707.43 C 236.69 709.17 235.52 709.28 232.39 708.02 Z M 259.00 667.20 C 259.00 665.11 258.46 662.86 257.80 662.20 C 257.00 661.40 252.58 661.00 244.50 661.00 C 236.42 661.00 232.00 661.40 231.20 662.20 C 229.40 664.00 229.74 668.75 231.75 669.92 C 232.71 670.48 239.24 670.95 246.25 670.97 L 259.00 671.00 L 259.00 667.20 Z M 257.43 640.43 C 261.61 636.25 256.99 630.32 251.50 632.82 C 248.75 634.07 248.01 638.61 250.20 640.80 C 251.88 642.48 255.56 642.29 257.43 640.43 Z M 371.92 611.60 C 372.55 610.83 373.27 609.18 373.51 607.93 C 373.76 606.67 374.33 605.27 374.80 604.80 C 375.26 604.34 385.73 604.08 398.07 604.23 L 420.50 604.50 L 420.81 607.50 C 421.25 611.75 423.48 613.00 430.61 613.00 C 438.17 613.00 440.00 612.38 440.00 609.83 C 440.00 608.75 440.47 607.00 441.04 605.93 C 441.97 604.19 443.22 604.00 453.60 604.00 C 466.10 604.00 469.00 603.18 469.00 599.62 C 469.00 595.63 471.85 594.12 480.00 593.80 L 487.44 593.50 L 488.28 589.25 C 489.12 584.97 489.50 584.68 495.46 583.78 C 496.79 583.58 497.64 582.40 498.11 580.11 C 498.86 576.45 500.36 575.04 503.55 575.02 C 506.34 574.99 508.00 573.12 508.00 570.00 C 508.00 566.83 509.67 565.00 512.58 565.00 C 515.17 565.00 516.68 563.38 517.15 560.10 C 517.52 557.59 518.56 556.81 523.46 555.36 C 525.75 554.68 526.58 553.71 527.11 551.11 C 527.87 547.42 529.36 546.04 532.64 546.02 C 534.79 546.00 535.99 544.28 536.02 541.17 C 536.04 538.23 537.70 536.73 541.65 536.09 C 545.12 535.53 545.55 535.13 546.00 532.01 C 546.40 529.21 547.08 528.37 549.50 527.65 C 555.40 525.91 555.47 525.79 556.00 516.90 L 556.50 508.50 L 559.50 508.16 C 563.55 507.70 565.00 506.31 565.00 502.85 C 565.00 500.66 565.62 499.71 567.57 498.98 C 569.09 498.39 588.09 498.00 614.51 498.00 C 648.91 498.00 659.06 497.72 659.69 496.75 C 660.14 496.06 660.73 492.13 661.00 488.02 C 661.49 480.74 661.58 480.52 664.50 479.65 C 670.59 477.85 670.48 478.08 670.75 466.39 C 671.05 452.84 671.45 451.00 674.08 451.00 C 675.21 451.00 677.00 450.53 678.07 449.96 C 679.82 449.03 680.00 447.77 680.00 436.54 C 680.00 423.19 680.76 421.00 685.37 421.00 C 689.00 421.00 690.00 419.06 690.00 412.00 C 690.00 408.20 689.49 404.89 688.80 404.20 C 688.10 403.50 684.77 403.00 680.87 403.00 C 673.50 403.00 671.00 401.62 671.00 397.55 C 671.00 393.34 668.58 392.48 657.31 392.71 C 645.12 392.96 642.00 392.11 642.00 388.55 C 642.00 384.25 638.31 382.76 628.27 383.02 C 614.26 383.39 614.12 383.36 613.40 380.25 C 613.05 378.74 612.13 376.49 611.36 375.25 C 610.02 373.11 609.33 373.00 597.50 373.00 C 583.80 373.00 584.82 373.49 583.78 366.50 C 583.58 365.15 582.58 364.40 580.68 364.18 C 577.06 363.76 575.19 365.38 574.81 369.27 C 574.55 371.90 573.95 372.53 571.00 373.28 C 565.48 374.70 565.00 375.53 565.00 383.65 C 565.00 388.74 564.61 391.17 563.75 391.39 C 556.96 393.20 556.53 393.53 555.90 397.37 C 555.56 399.48 554.66 401.61 553.89 402.10 C 553.13 402.60 547.41 402.92 541.18 402.82 C 531.03 402.66 529.72 402.43 528.43 400.60 C 527.30 398.99 527.00 394.20 527.00 377.90 C 527.00 355.98 527.09 355.54 531.90 354.85 C 534.40 354.49 535.19 353.44 536.63 348.59 C 537.31 346.32 538.39 345.43 541.50 344.56 L 545.50 343.44 L 545.80 336.13 C 546.13 327.86 545.44 326.49 540.47 325.56 C 537.03 324.92 536.65 324.33 535.78 318.50 C 535.57 317.11 534.57 316.40 532.49 316.16 C 528.46 315.71 527.00 314.31 527.00 310.92 C 527.00 308.46 526.47 307.93 523.12 307.03 C 520.98 306.46 518.75 305.41 518.16 304.70 C 517.58 303.99 516.96 300.06 516.80 295.96 L 516.50 288.50 L 513.50 288.16 C 509.51 287.71 508.00 286.31 508.00 283.08 C 508.00 279.91 506.36 278.00 503.63 278.00 C 500.94 278.00 498.00 275.15 498.00 272.55 C 498.00 269.63 496.15 268.00 492.86 268.00 C 489.79 268.00 488.96 267.07 488.05 262.59 C 487.55 260.08 486.87 259.44 484.46 259.17 C 482.83 258.99 481.07 258.42 480.54 257.91 C 480.01 257.39 479.33 253.28 479.04 248.77 L 478.50 240.57 L 475.26 239.91 C 471.07 239.06 469.00 237.30 469.00 234.58 C 469.00 231.83 467.21 230.00 464.50 230.00 C 461.67 230.00 460.00 228.14 460.00 225.00 C 460.00 221.67 458.30 220.00 454.92 220.00 C 450.76 220.00 449.63 217.82 450.33 211.15 C 451.06 204.09 449.43 201.00 444.98 201.00 C 441.88 201.00 440.00 198.75 440.00 195.03 C 440.00 192.91 439.56 192.62 434.88 191.60 C 432.75 191.13 432.14 190.29 431.64 187.12 C 431.02 183.28 429.63 182.00 426.07 182.00 C 422.54 182.00 420.85 178.63 421.16 172.23 C 421.49 165.60 420.18 163.00 416.50 163.00 C 413.70 163.00 412.28 161.35 411.84 157.60 C 411.48 154.53 410.21 153.48 405.75 152.54 C 403.83 152.14 403.00 151.34 403.00 149.92 C 403.00 145.98 401.14 144.00 397.43 144.00 C 395.48 144.00 393.79 144.55 393.61 145.25 C 391.83 151.94 391.43 152.50 388.06 153.00 C 384.99 153.45 384.56 153.93 383.58 157.99 C 382.58 162.14 382.22 162.52 378.74 163.08 C 374.19 163.82 373.94 164.03 373.10 168.17 C 372.56 170.79 371.83 171.56 369.38 172.06 C 364.28 173.10 364.00 173.61 364.00 181.94 C 364.00 190.46 363.38 191.61 358.50 192.16 C 355.93 192.45 355.43 192.99 355.00 195.98 C 354.60 198.79 353.93 199.63 351.50 200.35 C 346.37 201.86 345.55 202.59 344.65 206.43 C 344.16 208.48 343.26 210.31 342.63 210.49 C 342.01 210.68 340.26 211.10 338.75 211.44 C 336.84 211.85 336.00 212.66 336.00 214.08 C 336.00 217.29 334.12 220.00 331.90 220.00 C 328.86 220.00 326.00 221.85 326.00 223.81 C 326.00 226.62 323.07 230.00 320.64 230.00 C 316.93 230.00 316.00 231.92 316.00 239.58 C 316.00 247.17 315.30 248.55 311.10 249.15 C 308.52 249.53 307.44 250.96 306.56 255.18 C 306.01 257.80 305.43 258.16 299.75 259.43 C 297.06 260.02 297.00 260.20 296.98 267.27 C 296.97 275.76 296.39 276.97 291.90 277.89 C 288.94 278.49 288.45 279.05 287.73 282.74 C 286.95 286.64 286.63 286.95 282.70 287.73 L 278.50 288.55 L 278.00 296.13 C 277.46 304.28 276.09 307.00 272.50 307.00 C 269.67 307.00 268.27 308.65 267.84 312.50 C 267.56 315.00 267.00 315.56 264.50 315.84 C 260.62 316.28 259.19 317.52 258.81 320.79 C 258.52 323.29 257.81 323.86 251.00 327.02 C 249.85 327.55 249.50 329.57 249.50 335.58 L 249.50 343.44 L 253.00 344.47 C 258.78 346.17 259.00 346.54 259.00 354.44 C 259.00 362.43 259.67 363.62 264.50 364.16 L 267.50 364.50 L 267.77 382.37 C 267.96 394.39 267.68 400.68 266.94 401.58 C 266.14 402.53 263.66 402.84 258.33 402.63 C 250.54 402.33 249.06 401.52 249.00 397.50 C 248.94 393.46 247.44 392.56 241.18 392.81 C 237.92 392.94 234.06 392.59 232.62 392.05 C 230.12 391.09 230.00 390.72 230.00 383.58 C 230.00 377.00 229.74 375.93 227.78 374.56 C 226.56 373.70 224.54 373.00 223.30 373.00 C 221.09 373.00 220.62 372.14 219.78 366.50 C 219.51 364.73 218.59 364.47 211.64 364.21 C 203.13 363.89 201.00 364.76 201.00 368.57 C 201.00 372.12 197.79 373.78 192.00 373.23 C 186.16 372.66 182.01 374.76 181.98 378.27 C 181.95 383.01 181.27 383.20 163.88 383.21 C 154.87 383.21 146.71 383.63 145.75 384.14 C 144.70 384.70 144.00 386.23 144.00 387.98 C 144.00 389.57 143.44 391.25 142.75 391.69 C 142.06 392.14 137.91 392.73 133.52 393.00 C 125.68 393.49 125.52 393.55 124.65 396.50 C 122.91 402.40 122.75 402.50 115.29 402.50 C 105.05 402.50 104.88 402.75 105.22 417.29 C 105.52 430.19 105.37 429.84 111.50 431.66 L 114.50 432.54 L 114.78 444.96 C 114.94 452.02 115.53 457.94 116.15 458.69 C 116.75 459.41 118.51 460.00 120.06 460.00 C 121.61 460.00 123.20 460.52 123.60 461.16 C 123.99 461.80 124.24 467.54 124.14 473.91 C 124.04 480.28 124.31 485.97 124.73 486.54 C 125.15 487.12 127.28 488.02 129.46 488.54 C 132.79 489.35 133.53 490.00 134.05 492.59 C 134.40 494.29 135.00 496.20 135.40 496.84 C 135.93 497.69 146.98 498.00 176.86 498.00 C 207.21 498.00 217.91 498.31 218.80 499.20 C 219.46 499.86 220.00 501.57 220.00 503.00 C 220.00 506.30 221.70 508.00 225.00 508.00 C 228.14 508.00 230.00 509.67 230.00 512.50 C 230.00 515.16 231.81 517.00 234.45 517.02 C 237.77 517.04 239.24 518.55 239.90 522.61 C 240.44 525.93 240.94 526.51 243.81 527.10 C 247.87 527.93 248.07 528.12 248.90 532.17 C 249.49 535.06 250.07 535.55 253.78 536.28 C 257.25 536.97 258.09 537.59 258.56 539.81 C 259.44 544.04 260.52 545.47 263.10 545.85 C 266.54 546.34 268.00 547.86 268.00 550.92 C 268.00 554.30 269.67 556.00 273.00 556.00 C 276.17 556.00 278.00 557.67 278.00 560.58 C 278.00 563.33 279.68 564.73 283.50 565.16 C 286.14 565.46 286.63 566.04 287.58 569.98 C 288.53 573.90 289.06 574.53 291.92 575.12 C 295.99 575.95 296.76 576.74 297.17 580.47 C 297.46 583.09 298.01 583.55 301.75 584.28 C 305.25 584.97 306.09 585.58 306.56 587.81 C 307.65 593.05 308.32 593.48 315.60 593.77 C 322.89 594.06 326.00 595.94 326.00 600.05 C 326.00 601.06 326.56 602.25 327.25 602.69 C 327.94 603.14 336.38 603.73 346.00 604.00 L 363.50 604.50 L 363.84 607.50 C 364.02 609.15 364.64 611.06 365.21 611.75 C 366.60 613.42 370.47 613.34 371.92 611.60 Z M 374.56 591.78 C 373.70 590.56 373.00 588.85 373.00 587.98 C 373.00 584.42 370.95 584.00 353.77 584.00 C 341.15 584.00 336.85 583.69 336.61 582.75 C 334.83 576.07 334.42 575.49 331.08 575.00 C 329.23 574.73 327.40 573.83 327.02 573.00 C 323.36 565.07 323.97 565.52 316.51 565.20 C 308.83 564.87 307.26 564.07 306.81 560.28 C 306.49 557.60 305.51 556.83 300.54 555.36 C 298.27 554.69 297.42 553.71 296.90 551.19 C 296.07 547.13 295.88 546.93 291.83 546.10 C 288.95 545.51 288.45 544.92 287.73 541.26 C 286.96 537.37 286.63 537.04 282.74 536.27 C 279.05 535.55 278.49 535.06 277.89 532.10 C 277.14 528.45 275.63 527.04 272.45 527.02 C 269.66 526.99 268.00 525.12 268.00 522.00 C 268.00 518.86 266.33 517.00 263.50 517.00 C 259.55 517.00 259.00 515.21 259.00 502.36 C 259.00 489.28 259.05 489.14 264.41 488.05 C 267.50 487.43 267.50 487.42 268.00 479.46 C 268.27 475.08 268.86 470.94 269.31 470.25 C 269.75 469.56 271.43 469.00 273.02 469.00 C 276.11 469.00 278.00 466.75 278.00 463.08 C 278.00 461.12 279.00 460.61 284.48 459.78 C 285.68 459.60 286.81 458.31 287.35 456.49 C 289.09 450.62 289.25 450.51 297.07 450.31 C 304.98 450.12 307.00 448.91 307.00 444.37 C 307.00 441.79 308.07 440.94 312.41 440.05 C 315.00 439.53 315.58 438.87 316.00 435.99 C 316.44 432.99 317.00 432.42 320.46 431.45 C 323.78 430.52 324.55 429.79 325.27 426.92 C 326.61 421.55 328.07 421.00 340.99 421.00 C 353.54 421.00 355.00 420.47 355.00 415.91 C 355.00 414.37 355.68 412.95 356.58 412.61 C 357.45 412.27 376.37 412.00 398.61 412.00 C 430.13 412.00 439.14 412.28 439.39 413.25 C 439.58 413.94 440.14 415.85 440.63 417.50 L 441.54 420.50 L 454.02 421.00 C 460.88 421.27 467.06 421.86 467.75 422.31 C 468.44 422.75 469.00 424.02 469.00 425.12 C 469.00 428.64 470.84 430.75 474.53 431.44 C 478.16 432.12 478.37 432.37 479.44 437.25 C 479.85 439.16 480.66 440.00 482.08 440.00 C 485.41 440.00 488.00 441.91 488.00 444.34 C 488.00 449.04 490.08 450.28 497.84 450.21 C 505.92 450.13 508.00 451.33 508.00 456.05 C 508.00 458.41 508.52 459.08 510.75 459.57 C 516.55 460.86 516.88 461.10 517.19 464.20 C 517.51 467.39 518.37 468.14 523.50 469.65 C 526.39 470.51 526.51 470.77 526.76 477.02 C 527.14 486.86 527.57 488.00 530.90 488.00 C 535.60 488.00 536.09 489.56 535.78 503.60 L 535.50 516.42 L 532.20 517.09 C 528.13 517.92 527.93 518.13 527.11 522.10 C 526.43 525.42 525.56 526.16 520.50 527.65 C 518.07 528.37 517.40 529.21 517.00 532.02 C 516.57 535.01 516.07 535.55 513.50 535.84 C 509.51 536.29 508.00 537.69 508.00 540.92 C 508.00 544.16 506.35 546.00 503.45 546.00 C 500.85 546.00 498.00 548.94 498.00 551.63 C 498.00 554.38 496.09 556.00 492.84 556.00 C 489.92 556.00 488.00 558.32 488.00 561.83 C 488.00 564.39 486.17 565.00 478.49 565.00 C 471.56 565.00 469.00 566.45 469.00 570.37 C 469.00 573.20 467.22 575.00 464.42 575.00 C 461.67 575.00 460.27 576.68 459.84 580.50 L 459.50 583.50 L 441.67 584.00 C 425.49 584.45 423.70 584.68 422.42 586.44 C 421.64 587.51 421.00 589.11 421.00 589.99 C 421.00 593.69 419.14 594.00 397.36 594.00 C 376.54 594.00 376.08 593.96 374.56 591.78 Z M 622.80 575.52 C 623.04 568.87 622.80 567.33 621.36 566.27 C 619.13 564.64 606.81 564.59 605.20 566.20 C 603.91 567.49 603.48 582.15 604.70 583.37 C 605.09 583.76 609.25 583.94 613.95 583.79 L 622.50 583.50 L 622.80 575.52 Z M 132.80 573.80 C 133.53 573.07 134.00 569.54 134.00 564.82 C 134.00 557.42 133.88 557.01 131.58 556.43 C 126.53 555.16 125.41 556.16 123.39 563.75 C 123.21 564.44 121.69 565.00 120.01 565.00 C 116.10 565.00 114.06 568.64 115.82 572.50 C 116.88 574.84 117.44 575.00 124.28 575.00 C 128.64 575.00 132.09 574.51 132.80 573.80 Z M 103.80 563.80 C 104.51 563.09 105.00 559.64 105.00 555.28 C 105.00 548.38 104.85 547.89 102.42 546.78 C 97.98 544.76 96.54 546.64 96.20 554.95 C 96.02 559.42 96.35 562.72 97.08 563.59 C 98.51 565.31 102.17 565.43 103.80 563.80 Z M 410.80 554.80 C 411.46 554.14 412.00 552.40 412.00 550.92 C 412.00 546.97 413.74 546.12 422.55 545.80 L 430.50 545.50 L 431.45 541.22 C 432.21 537.80 432.91 536.83 434.95 536.39 C 439.60 535.38 440.00 535.08 440.00 532.60 C 440.00 529.51 442.44 527.00 445.45 527.00 C 449.92 527.00 450.24 525.37 450.19 502.88 C 450.17 490.45 449.74 481.34 449.17 480.77 C 448.63 480.23 446.69 479.48 444.86 479.11 C 442.11 478.54 441.37 477.80 440.51 474.76 C 439.28 470.35 438.28 469.28 435.03 468.83 C 433.11 468.57 432.31 467.61 431.44 464.50 C 430.44 460.93 429.92 460.44 426.56 459.89 C 422.49 459.23 421.04 457.76 421.02 454.29 C 421.01 453.07 420.13 451.60 419.07 451.04 C 416.46 449.64 368.54 449.64 365.93 451.04 C 364.27 451.93 364.00 453.18 364.00 460.07 C 364.00 465.59 363.61 468.18 362.75 468.45 C 362.06 468.66 360.31 469.09 358.85 469.41 C 356.80 469.86 355.88 470.96 354.85 474.21 C 353.70 477.80 353.00 478.53 350.16 479.11 C 348.32 479.48 346.36 480.24 345.80 480.80 C 344.82 481.78 344.57 524.49 345.53 526.04 C 345.76 526.42 347.76 527.03 349.96 527.38 C 353.29 527.91 354.07 528.48 354.57 530.76 C 355.64 535.68 355.90 536.00 358.77 536.00 C 362.29 536.00 364.00 537.63 364.00 541.00 C 364.00 545.10 365.74 546.00 373.64 546.00 C 379.99 546.00 381.08 546.27 382.44 548.22 C 383.30 549.44 384.00 551.39 384.00 552.56 C 384.00 553.72 384.30 554.97 384.67 555.33 C 385.90 556.57 409.51 556.09 410.80 554.80 Z M 384.56 534.78 C 384.35 534.08 383.90 532.27 383.57 530.77 C 383.14 528.82 382.18 527.87 380.23 527.46 C 375.96 526.56 374.69 525.58 373.68 522.43 C 372.30 518.15 371.09 517.00 367.98 517.00 C 366.38 517.00 364.96 516.33 364.61 515.42 C 364.27 514.55 364.00 508.49 364.00 501.95 C 364.00 491.23 364.19 489.97 365.93 489.04 C 367.00 488.47 368.78 488.00 369.88 488.00 C 372.82 488.00 373.88 485.28 373.27 479.32 C 372.87 475.40 373.15 473.42 374.39 471.53 L 376.05 469.00 L 397.40 469.00 C 415.19 469.00 418.96 469.25 420.00 470.50 C 420.77 471.43 421.20 474.67 421.11 478.94 C 420.96 486.44 421.19 486.82 427.00 488.53 L 430.50 489.56 L 431.05 501.53 C 431.65 514.33 431.10 517.00 427.90 517.00 C 424.31 517.00 422.09 518.93 421.00 523.02 C 420.06 526.47 419.55 527.00 417.08 527.00 C 413.69 527.00 412.29 528.46 411.84 532.50 L 411.50 535.50 L 398.23 535.78 C 388.13 535.99 384.86 535.75 384.56 534.78 Z M 103.80 525.80 C 104.46 525.14 105.00 523.43 105.00 522.00 C 105.00 518.86 103.33 517.00 100.50 517.00 C 99.34 517.00 97.86 517.54 97.20 518.20 C 95.92 519.48 95.55 525.21 96.67 526.33 C 97.77 527.44 102.52 527.08 103.80 525.80 Z M 688.80 467.80 C 690.68 465.92 690.21 462.18 687.95 460.97 C 683.34 458.51 679.15 461.48 680.37 466.35 C 680.92 468.54 681.60 469.00 684.32 469.00 C 686.12 469.00 688.14 468.46 688.80 467.80 Z M 438.80 449.80 C 439.46 449.14 440.00 447.21 440.00 445.50 C 440.00 440.30 436.44 438.39 432.83 441.65 C 430.59 443.68 430.51 445.85 432.56 448.78 C 434.27 451.22 436.94 451.66 438.80 449.80 Z M 467.43 449.43 C 469.99 446.86 469.44 442.16 466.42 440.78 C 463.01 439.23 460.59 440.76 460.20 444.73 C 459.68 449.83 464.14 452.72 467.43 449.43 Z M 190.80 362.80 C 191.46 362.14 192.00 360.66 192.00 359.50 C 192.00 356.67 190.14 355.00 187.00 355.00 C 183.86 355.00 182.00 356.67 182.00 359.50 C 182.00 362.33 183.86 364.00 187.00 364.00 C 188.43 364.00 190.14 363.46 190.80 362.80 Z M 142.43 353.43 C 144.07 351.79 144.42 349.27 143.39 346.58 C 142.97 345.47 141.48 345.00 138.39 345.00 C 134.18 345.00 134.00 345.12 134.00 348.00 C 134.00 351.15 136.99 355.00 139.43 355.00 C 140.21 355.00 141.56 354.29 142.43 353.43 Z M 133.50 336.03 C 133.50 328.05 133.36 327.49 131.06 326.34 C 127.90 324.77 125.21 326.17 124.45 329.78 C 123.52 334.21 122.46 335.48 119.40 335.84 C 114.92 336.37 113.47 340.33 116.61 343.47 C 117.87 344.73 119.89 345.02 125.86 344.79 L 133.50 344.50 L 133.50 336.03 Z M 199.43 276.43 C 201.36 274.50 201.65 262.05 199.80 260.20 C 198.14 258.54 174.86 258.54 173.20 260.20 C 172.54 260.86 172.00 262.34 172.00 263.50 C 172.00 267.11 173.98 268.00 182.00 268.00 C 190.27 268.00 192.00 268.86 192.00 273.00 C 192.00 277.67 196.23 279.63 199.43 276.43 Z M 151.80 257.80 C 152.46 257.14 153.00 255.43 153.00 254.00 C 153.00 250.67 151.30 249.00 147.91 249.00 C 145.11 249.00 144.00 250.53 144.00 254.38 C 144.00 257.17 145.78 259.00 148.50 259.00 C 149.66 259.00 151.14 258.46 151.80 257.80 Z M 689.39 228.42 C 690.57 225.34 689.98 222.06 688.07 221.04 C 685.56 219.70 675.44 219.70 672.93 221.04 C 670.74 222.21 670.30 226.90 672.20 228.80 C 672.93 229.53 676.44 230.00 681.09 230.00 C 687.19 230.00 688.91 229.67 689.39 228.42 Z M 199.95 218.56 C 202.94 214.96 198.20 209.56 193.62 211.32 C 191.99 211.94 191.28 217.95 192.67 219.33 C 193.88 220.54 198.73 220.03 199.95 218.56 Z M 191.50 206.61 C 191.50 201.82 189.41 200.12 185.30 201.56 C 183.24 202.28 182.41 203.31 182.16 205.47 C 181.75 209.09 184.27 211.21 188.50 210.79 C 191.27 210.52 191.50 210.20 191.50 206.61 Z M 287.18 208.50 C 289.89 202.56 282.35 197.81 278.63 203.11 C 276.15 206.66 278.63 211.00 283.14 211.00 C 285.27 211.00 286.35 210.33 287.18 208.50 Z M 602.63 209.78 C 603.05 209.12 603.64 206.98 603.96 205.03 L 604.53 201.50 L 622.02 201.00 C 631.63 200.72 640.06 200.14 640.75 199.69 C 642.34 198.66 642.37 194.77 640.80 193.20 C 640.01 192.41 635.74 192.00 628.23 192.00 C 616.14 192.00 613.00 191.15 613.00 187.90 C 613.00 184.60 611.09 182.00 608.66 182.00 C 605.79 182.00 604.00 183.78 604.00 186.63 C 604.00 190.70 601.49 192.00 593.63 192.00 C 585.99 192.00 584.00 192.93 584.00 196.50 C 584.00 199.33 585.86 201.00 589.00 201.00 C 592.19 201.00 594.00 202.68 594.00 205.63 C 594.00 206.85 594.71 208.56 595.57 209.43 C 597.44 211.29 601.57 211.50 602.63 209.78 Z M 669.39 190.70 C 672.19 188.65 671.18 183.77 667.70 182.56 C 664.06 181.29 661.61 182.79 661.16 186.55 C 660.81 189.56 662.98 192.00 666.00 192.00 C 666.89 192.00 668.42 191.42 669.39 190.70 Z M 479.02 102.96 C 481.32 98.67 477.79 95.33 471.85 96.17 C 470.12 96.41 469.42 97.24 469.18 99.31 C 468.74 103.09 470.56 105.00 474.59 105.00 C 476.93 105.00 478.26 104.39 479.02 102.96 Z M 430.43 94.43 C 431.29 93.56 432.00 91.31 432.00 89.43 L 432.00 86.00 L 444.07 86.00 C 457.61 86.00 460.00 86.74 460.00 90.91 C 460.00 94.47 462.05 96.24 465.69 95.82 L 468.50 95.50 L 468.78 82.51 C 469.03 71.17 468.84 69.36 467.34 68.26 C 466.13 67.37 460.96 67.00 449.88 67.00 C 430.82 67.00 430.74 67.04 431.03 76.90 C 431.31 86.34 431.45 86.00 427.06 86.00 C 422.79 86.00 422.01 85.30 421.05 80.60 C 420.29 76.89 416.09 74.85 413.56 76.95 C 411.61 78.57 411.32 92.92 413.20 94.80 C 415.06 96.66 428.48 96.37 430.43 94.43 Z" fill="#000" fill-rule="evenodd"/></svg>
