<svg xmlns="http://www.w3.org/2000/svg" viewBox="0 0 1600 1600" width="200" height="200"><defs><clipPath id="rim"><circle cx="798.26" cy="799.74" r="712.39"/></clipPath></defs><circle cx="798.26" cy="799.74" r="723.24" fill="#f0ece3"/><path d="M 710.60 1522.90 C 698.77 1521.17 692.63 1516.10 684.30 1501.20 C 671.52 1478.35 685.16 1458.78 709.93 1464.42 C 718.49 1466.36 721.73 1465.91 731.42 1461.45 C 746.47 1454.51 762.82 1454.14 778.85 1460.37 C 797.70 1467.69 806.15 1461.61 804.74 1441.74 C 803.02 1417.33 783.00 1403.90 761.70 1412.87 C 756.64 1415.01 750.02 1417.54 747.00 1418.51 C 739.35 1420.96 734.44 1423.56 727.76 1428.69 C 706.65 1444.91 688.70 1443.13 665.50 1422.51 C 648.97 1407.83 643.55 1405.88 632.50 1410.63 C 629.20 1412.05 623.96 1414.29 620.85 1415.60 C 611.98 1419.36 605.20 1419.82 579.68 1418.37 C 532.90 1415.71 526.37 1412.40 539.40 1397.98 C 546.46 1390.16 546.29 1386.24 538.08 1368.67 C 528.82 1348.84 517.96 1342.11 507.98 1350.01 C 502.74 1354.16 498.33 1355.83 489.31 1357.09 C 485.06 1357.68 479.52 1358.95 476.99 1359.91 C 472.83 1361.49 469.98 1363.30 455.28 1373.67 C 452.81 1375.41 446.67 1378.29 441.64 1380.08 C 436.61 1381.87 429.02 1385.06 424.77 1387.17 C 414.21 1392.41 409.69 1392.38 399.00 1387.00 C 394.62 1384.80 387.99 1381.85 384.27 1380.46 C 363.69 1372.72 356.86 1348.23 369.55 1327.61 C 371.45 1324.53 374.52 1319.54 376.37 1316.53 C 383.81 1304.44 380.78 1291.66 369.30 1286.71 C 338.78 1273.57 333.59 1273.77 325.94 1288.36 C 307.88 1322.84 280.89 1320.76 267.71 1283.88 C 262.94 1270.54 261.97 1269.33 228.21 1234.92 C 196.30 1202.39 195.57 1201.45 190.62 1186.43 C 188.97 1181.43 185.62 1174.79 181.81 1168.96 C 177.95 1163.05 174.42 1156.02 172.31 1150.05 C 168.07 1138.01 166.29 1135.38 153.06 1121.56 C 137.37 1105.17 135.88 1102.11 134.03 1082.35 C 132.73 1068.48 131.61 1065.29 124.17 1054.30 C 116.77 1043.36 115.43 1039.41 114.04 1024.43 C 112.88 1011.83 110.11 1003.77 104.39 996.26 C 96.87 986.40 94.06 972.13 95.79 952.53 C 97.59 932.11 101.00 928.47 117.25 929.61 C 129.31 930.46 132.44 929.13 144.50 918.03 C 155.87 907.57 161.54 903.84 171.20 900.47 C 184.74 895.74 189.08 890.19 191.12 874.97 C 194.34 851.05 180.45 840.17 158.00 849.03 C 140.48 855.95 136.57 851.83 132.46 822.07 C 129.45 800.32 125.26 797.00 116.20 809.20 C 99.84 831.24 79.47 822.76 79.73 794.00 C 79.87 778.67 83.31 771.46 99.54 752.50 C 112.68 737.15 113.50 734.59 113.50 709.00 C 113.50 685.00 113.39 684.56 103.03 668.06 C 94.98 655.23 94.98 647.77 103.03 634.94 C 113.64 618.04 113.42 619.00 114.11 585.50 C 114.82 550.66 114.88 550.33 124.03 536.46 C 128.00 530.44 131.53 523.43 133.94 516.80 C 136.00 511.13 140.09 502.67 143.03 498.00 C 145.97 493.32 150.07 484.87 152.13 479.21 C 154.65 472.30 157.93 465.91 162.12 459.74 C 166.00 454.04 169.80 446.77 172.17 440.55 C 177.37 426.92 180.15 423.23 202.86 399.81 C 224.77 377.23 225.85 375.79 230.02 363.44 C 235.01 348.69 234.71 349.02 301.87 281.88 C 368.67 215.10 368.37 215.36 383.62 209.69 C 394.50 205.65 398.11 203.23 412.92 190.05 C 425.95 178.45 429.18 176.37 441.00 171.91 C 445.68 170.15 453.20 166.32 457.73 163.39 C 468.17 156.64 470.02 155.70 480.02 152.05 C 484.54 150.40 492.19 146.60 497.01 143.60 C 508.25 136.62 512.53 135.22 526.53 134.00 C 540.13 132.80 545.32 131.02 556.34 123.72 C 567.65 116.23 569.15 115.75 586.34 114.01 C 599.04 112.73 602.59 111.48 614.00 104.28 C 625.71 96.90 629.46 96.00 652.74 95.07 C 675.37 94.16 677.56 93.58 690.40 85.15 C 704.43 75.95 697.74 76.50 795.00 76.50 C 892.30 76.50 885.13 75.90 900.00 85.28 C 913.61 93.87 914.76 94.17 937.50 95.08 C 965.07 96.19 968.66 97.48 984.53 111.97 C 996.75 123.14 1001.89 125.53 1011.30 124.46 C 1025.15 122.88 1029.99 123.26 1036.00 126.37 C 1039.03 127.94 1045.55 130.78 1050.50 132.69 C 1070.86 140.53 1074.60 148.14 1067.95 168.14 C 1062.10 185.75 1067.55 190.50 1093.59 190.50 C 1110.24 190.50 1110.37 190.43 1111.96 181.28 C 1115.13 163.09 1126.09 158.07 1135.55 170.48 C 1143.68 181.14 1139.70 188.18 1123.95 190.99 C 1113.84 192.80 1113.00 193.67 1113.00 202.34 C 1113.00 231.09 1131.75 235.85 1155.44 213.11 C 1171.55 197.65 1176.42 196.52 1193.50 204.25 C 1199.00 206.75 1205.75 209.51 1208.50 210.40 C 1222.31 214.87 1226.82 219.08 1338.02 331.56 C 1373.47 367.41 1375.32 369.70 1380.50 384.01 C 1382.31 388.99 1385.97 396.15 1388.96 400.54 C 1402.39 420.25 1402.64 439.21 1389.64 453.84 C 1382.26 462.15 1382.55 463.72 1395.98 488.00 C 1406.54 507.11 1407.86 507.86 1422.16 502.87 C 1442.82 495.67 1450.43 499.71 1458.42 522.13 C 1459.33 524.67 1462.72 530.89 1465.97 535.95 C 1480.68 558.89 1479.98 600.48 1464.72 609.42 C 1446.43 620.14 1423.87 613.11 1414.50 593.76 C 1410.20 584.87 1406.08 581.00 1400.93 581.00 C 1391.57 581.00 1390.19 587.36 1396.74 600.42 C 1400.57 608.07 1399.76 615.69 1393.72 628.56 C 1387.17 642.54 1387.82 647.55 1397.54 657.94 C 1409.43 670.65 1420.64 671.38 1438.39 660.60 C 1453.36 651.51 1459.63 652.04 1470.17 663.25 C 1476.85 670.34 1476.85 670.34 1488.18 671.10 C 1513.20 672.78 1516.50 677.14 1516.50 708.50 C 1516.50 735.69 1514.76 739.84 1499.51 749.08 C 1489.56 755.11 1489.88 758.13 1501.26 765.77 C 1522.03 779.72 1519.63 797.19 1495.80 805.53 C 1467.60 815.40 1468.29 852.94 1496.85 862.45 C 1516.50 868.99 1516.43 868.79 1516.80 926.84 C 1517.18 989.06 1517.08 989.40 1496.07 996.92 C 1480.92 1002.34 1477.71 1006.92 1475.94 1025.60 C 1474.68 1038.95 1473.33 1043.24 1467.70 1051.84 C 1459.60 1064.21 1458.09 1068.32 1456.94 1081.13 C 1455.67 1095.19 1454.12 1100.82 1449.38 1108.50 C 1442.74 1119.29 1439.97 1124.74 1437.59 1131.73 C 1433.95 1142.42 1432.70 1144.26 1419.94 1157.61 C 1406.72 1171.42 1403.26 1176.64 1399.43 1188.50 C 1395.72 1200.00 1393.34 1203.52 1380.53 1216.45 C 1367.62 1229.48 1365.20 1233.08 1361.00 1245.50 C 1356.11 1259.98 1355.25 1261.00 1309.12 1307.11 C 1261.81 1354.40 1260.38 1355.62 1246.12 1360.70 C 1231.82 1365.79 1229.85 1367.27 1207.79 1389.31 C 1186.14 1410.95 1183.20 1413.11 1167.97 1418.56 C 1163.82 1420.05 1156.03 1424.21 1150.44 1427.93 C 1143.69 1432.42 1137.33 1435.68 1131.10 1437.86 C 1125.66 1439.76 1117.63 1443.71 1111.66 1447.44 C 1104.94 1451.64 1098.24 1454.85 1091.88 1456.93 C 1085.04 1459.17 1079.69 1461.81 1073.38 1466.06 C 1062.87 1473.14 1058.27 1474.64 1043.16 1475.95 C 1030.23 1477.08 1025.80 1478.73 1014.22 1486.75 C 1004.50 1493.48 998.92 1494.78 977.00 1495.41 C 952.20 1496.12 948.45 1497.53 938.62 1509.85 C 931.96 1518.20 925.93 1521.68 915.83 1522.99 C 906.68 1524.17 718.80 1524.09 710.60 1522.90 Z M 504.07 1339.96 C 506.74 1338.53 506.57 1333.87 503.75 1331.30 C 494.20 1322.60 473.95 1325.89 477.65 1335.54 C 479.34 1339.94 498.20 1343.10 504.07 1339.96 Z M 870.70 1221.78 C 872.24 1221.11 877.05 1218.37 881.39 1215.69 C 891.74 1209.29 895.06 1208.22 908.35 1206.99 C 922.69 1205.66 927.91 1204.08 936.50 1198.45 C 945.63 1192.47 951.03 1189.76 959.11 1187.10 C 972.29 1182.77 973.89 1181.33 1049.82 1105.13 C 1105.96 1048.79 1106.31 1048.39 1111.04 1034.39 C 1117.60 1014.96 1132.69 1000.06 1148.89 997.01 C 1152.21 996.39 1181.71 996.00 1225.93 996.00 C 1303.96 996.00 1305.51 995.90 1312.77 990.36 C 1315.97 987.92 1317.17 985.80 1323.81 970.91 C 1325.42 967.28 1329.06 961.14 1331.89 957.24 C 1338.72 947.85 1340.82 942.80 1342.05 932.82 C 1344.44 913.43 1344.96 911.48 1350.23 902.32 C 1357.17 890.25 1358.72 885.32 1359.93 871.35 C 1361.13 857.47 1362.51 852.93 1367.90 845.03 C 1381.25 825.47 1378.87 811.65 1361.17 805.91 C 1355.41 804.05 1347.09 799.57 1340.00 794.53 C 1332.15 788.95 1323.93 786.37 1311.15 785.48 C 1298.84 784.63 1294.28 783.15 1283.50 776.51 C 1272.73 769.88 1268.03 768.40 1253.37 767.08 C 1240.46 765.92 1236.21 764.46 1226.14 757.72 C 1215.52 750.61 1211.53 749.13 1199.86 747.98 C 1185.61 746.58 1181.53 745.63 1172.23 741.54 C 1154.97 733.95 1139.97 742.04 1132.10 763.18 C 1121.42 791.87 1106.57 804.50 1083.52 804.50 C 1057.37 804.50 1054.00 798.98 1054.00 756.16 C 1054.00 719.88 1054.41 718.66 1073.83 697.54 C 1097.42 671.88 1096.59 667.12 1062.29 631.87 C 1039.99 608.96 1038.51 606.95 1033.10 592.11 C 1028.76 580.22 1026.17 577.05 994.97 545.50 C 965.45 515.65 962.63 512.15 958.63 500.39 C 954.15 487.20 951.51 483.39 935.62 467.07 C 905.90 436.57 904.17 434.28 899.08 418.82 C 896.11 409.78 893.60 406.57 871.88 384.00 C 849.42 360.66 848.01 358.93 844.48 350.26 C 837.52 333.15 835.40 329.64 825.22 318.39 C 797.71 287.97 795.56 288.14 759.85 323.85 C 733.96 349.73 732.08 352.18 728.54 364.46 C 724.87 377.20 723.90 378.37 681.51 421.00 C 638.40 464.36 637.99 464.84 633.04 478.50 C 628.38 491.36 626.35 494.44 613.42 508.20 C 600.30 522.17 598.37 525.05 593.97 537.23 C 589.92 548.48 585.54 555.04 573.32 568.18 C 562.65 579.66 559.63 584.36 555.43 596.03 C 551.26 607.58 547.73 612.17 525.56 634.81 C 495.65 665.38 494.54 669.24 509.47 691.04 C 512.82 695.94 515.83 702.05 518.04 708.46 C 520.15 714.59 523.61 721.71 527.18 727.27 C 539.09 745.86 541.14 784.80 530.81 796.56 C 522.61 805.90 512.55 805.65 498.04 795.74 C 493.89 792.91 486.09 788.68 480.71 786.33 C 465.26 779.61 465.88 780.32 456.19 758.84 C 444.64 733.24 423.71 725.12 401.83 737.75 C 397.61 740.19 389.88 743.89 384.65 745.99 C 378.96 748.27 371.35 752.45 365.66 756.41 C 352.27 765.75 351.05 766.09 327.00 767.07 C 303.00 768.05 300.16 768.74 287.94 776.48 C 283.07 779.57 275.35 783.36 270.79 784.90 C 260.55 788.36 255.42 790.95 246.83 796.98 C 243.15 799.57 236.21 803.17 231.41 804.98 C 216.17 810.73 212.26 816.51 211.29 834.76 C 210.61 847.40 211.71 850.77 220.02 861.53 C 227.53 871.25 229.65 877.00 230.92 891.16 C 232.19 905.26 232.98 908.01 238.03 916.06 C 246.32 929.26 247.94 933.68 249.06 946.08 C 250.79 965.30 253.68 971.86 265.09 982.42 C 279.90 996.13 278.75 995.96 355.11 995.98 C 418.33 996.00 423.84 996.29 431.59 1000.05 C 438.40 1003.34 443.85 1008.57 530.50 1094.92 C 617.88 1182.00 617.75 1181.88 633.04 1187.57 C 638.02 1189.42 646.01 1193.52 650.79 1196.69 C 663.85 1205.32 666.92 1206.11 691.00 1207.03 C 712.95 1207.88 713.66 1208.00 725.03 1213.05 C 736.41 1218.10 739.78 1217.77 754.50 1210.18 C 768.75 1202.82 772.76 1202.02 795.00 1202.02 C 819.37 1202.02 827.16 1204.04 840.06 1213.74 C 851.95 1222.67 862.37 1225.41 870.70 1221.78 Z M 770.17 1191.51 C 763.26 1189.96 757.49 1186.96 749.00 1180.48 C 736.53 1170.97 733.25 1170.06 707.75 1169.09 C 681.37 1168.09 678.97 1167.10 660.09 1149.51 C 647.31 1137.61 643.83 1135.42 626.64 1128.46 C 611.82 1122.46 528.40 1040.84 521.35 1025.46 C 514.25 1009.94 516.53 991.91 527.76 974.74 C 530.65 970.33 534.01 963.44 535.56 958.74 C 540.56 943.58 543.58 939.48 563.30 921.16 C 578.53 907.00 581.83 904.71 592.97 900.56 C 606.90 895.38 610.11 892.99 632.00 871.48 C 658.35 845.58 661.03 843.94 679.50 842.48 C 692.29 841.47 698.64 839.47 708.14 833.46 C 724.95 822.82 725.91 822.72 803.28 823.24 C 870.03 823.69 866.30 823.22 881.50 833.03 C 891.64 839.57 897.70 841.58 910.00 842.50 C 928.87 843.90 930.58 844.94 958.48 871.70 C 981.14 893.44 985.31 896.60 996.00 900.13 C 1007.53 903.94 1011.56 906.68 1027.03 921.22 C 1044.01 937.19 1049.89 944.34 1052.95 952.76 C 1054.10 955.92 1055.72 960.35 1056.55 962.60 C 1057.37 964.86 1059.69 969.36 1061.68 972.60 C 1071.98 989.33 1073.49 994.31 1072.78 1009.12 C 1071.91 1027.20 1071.99 1027.09 1022.96 1076.06 C 977.92 1121.03 972.95 1125.26 959.15 1130.39 C 946.23 1135.19 942.91 1137.42 929.02 1150.56 C 911.01 1167.60 909.73 1168.11 882.61 1169.06 C 857.40 1169.94 854.96 1170.63 840.35 1181.06 C 824.35 1192.47 794.33 1196.94 770.17 1191.51 Z M 1235.49 1163.18 C 1245.04 1157.71 1244.77 1141.15 1235.04 1135.56 C 1223.97 1129.20 1210.71 1136.80 1210.71 1149.50 C 1210.71 1162.62 1223.83 1169.86 1235.49 1163.18 Z M 255.96 1143.52 C 264.73 1138.99 265.71 1125.65 257.43 1123.57 C 251.42 1122.06 242.00 1130.03 242.00 1136.62 C 242.00 1143.40 249.26 1146.98 255.96 1143.52 Z M 811.53 1108.27 C 814.26 1107.23 820.15 1103.88 824.61 1100.83 C 829.07 1097.77 834.92 1094.50 837.61 1093.55 C 857.98 1086.37 857.95 1086.40 881.17 1062.35 C 900.21 1042.63 900.33 1042.24 899.78 1002.50 C 899.27 965.68 901.08 969.33 865.50 933.48 C 832.67 900.41 836.05 901.87 790.90 901.25 C 739.55 900.54 734.77 902.16 728.00 922.50 C 725.02 931.45 721.31 936.75 709.02 949.57 C 690.86 968.51 690.05 970.91 690.03 1005.50 C 690.00 1043.26 689.97 1043.17 712.90 1066.12 C 731.12 1084.37 736.05 1088.05 746.50 1091.18 C 755.21 1093.80 759.81 1096.08 767.63 1101.64 C 780.74 1110.98 797.68 1113.53 811.53 1108.27 Z M 781.00 1071.41 C 766.17 1067.46 733.28 1034.05 729.42 1019.00 C 725.50 1003.70 728.19 989.99 738.05 974.94 C 740.77 970.79 744.38 963.59 746.08 958.94 C 753.16 939.52 758.43 937.49 799.74 938.26 C 833.93 938.91 837.19 940.42 843.87 958.77 C 845.86 964.25 849.27 970.92 852.23 975.13 C 870.84 1001.63 867.66 1019.97 839.51 1048.53 C 815.64 1072.74 803.66 1077.43 781.00 1071.41 Z M 262.55 683.55 C 266.67 679.42 265.16 667.76 260.15 665.08 C 252.33 660.90 240.24 671.65 243.85 679.58 C 246.69 685.80 257.91 688.18 262.55 683.55 Z M 394.25 539.85 C 400.90 531.99 391.79 522.00 377.99 522.00 C 361.70 522.00 360.44 528.22 374.98 536.97 C 385.48 543.28 390.68 544.06 394.25 539.85 Z M 1210.25 407.60 C 1220.77 402.06 1228.27 399.74 1244.54 397.04 C 1262.34 394.08 1263.32 392.60 1249.94 388.94 C 1245.45 387.71 1238.94 384.77 1233.50 381.51 C 1217.76 372.07 1217.84 372.07 1200.20 380.25 C 1181.53 388.90 1177.95 393.24 1182.40 401.80 C 1187.91 412.39 1197.42 414.37 1210.25 407.60 Z M 849.02 185.15 C 853.26 182.89 857.00 177.66 857.00 173.97 C 857.00 165.79 834.33 161.60 830.46 169.07 C 824.78 180.07 837.62 191.20 849.02 185.15 Z M 933.25 180.25 C 937.95 174.96 938.54 155.39 934.25 146.93 C 925.59 129.84 875.20 130.19 866.29 147.40 C 856.56 166.21 859.94 170.48 885.71 171.95 C 904.11 173.00 905.99 173.39 917.59 178.48 C 926.41 182.35 930.93 182.86 933.25 180.25 Z" fill="#000" fill-rule="evenodd" clip-path="url(#rim)"/></svg>
