<svg xmlns="http://www.w3.org/2000/svg" viewBox="0 0 800 800" width="200" height="200"><circle cx="399.45" cy="399.95" r="361.90" fill="#f0ece3"/><path d="M 408.27 761.29 C 392.31 760.90 391.82 760.66 392.27 753.49 C 392.52 749.53 391.62 748.57 386.75 747.54 C 384.62 747.09 384.00 746.39 384.00 744.42 C 384.00 738.82 382.67 738.00 373.57 738.00 C 364.65 738.00 364.00 738.37 364.00 743.52 C 364.00 746.70 362.69 747.32 355.56 747.53 C 347.40 747.78 345.84 747.05 344.53 742.41 C 343.45 738.54 343.38 738.49 337.47 737.84 C 330.13 737.02 327.05 738.31 325.54 742.84 C 324.93 744.68 323.72 746.57 322.86 747.06 C 322.00 747.54 314.19 747.84 305.51 747.72 C 288.43 747.48 289.19 747.75 287.35 741.50 L 286.46 738.50 L 273.69 738.00 C 260.17 737.47 259.05 737.03 259.02 732.31 C 258.99 729.18 257.50 728.56 248.50 728.00 L 240.50 727.50 L 240.16 724.50 C 239.62 719.70 238.41 719.00 230.63 718.98 C 226.71 718.98 222.87 718.57 222.11 718.09 C 221.34 717.60 220.44 715.47 220.10 713.35 L 219.47 709.50 L 211.28 709.00 C 206.78 708.73 202.66 708.05 202.12 707.50 C 201.59 706.95 201.01 705.15 200.83 703.50 C 200.55 700.95 200.03 700.45 197.32 700.19 C 193.57 699.83 192.30 698.53 191.84 694.60 C 191.65 693.01 190.82 691.39 190.00 691.01 C 183.53 688.04 182.47 687.23 182.16 685.02 C 181.64 681.42 184.42 680.00 191.99 680.00 C 199.32 680.00 201.00 680.97 201.00 685.22 C 201.00 688.84 204.31 690.59 208.28 689.08 C 210.35 688.30 211.00 687.38 211.00 685.22 C 211.00 681.52 212.66 680.00 216.70 680.00 C 219.87 680.00 220.00 679.84 220.00 676.11 C 220.00 672.13 218.89 671.00 214.98 671.00 C 212.20 671.00 211.55 669.29 211.00 660.58 L 210.50 652.66 L 206.00 651.58 L 201.50 650.50 L 201.22 638.06 C 201.06 631.22 200.46 625.05 199.88 624.35 C 199.24 623.58 195.82 622.97 191.18 622.79 C 183.65 622.50 183.53 622.46 182.65 619.50 C 180.92 613.64 180.73 613.52 172.94 613.20 C 164.58 612.86 163.24 612.13 162.81 607.68 C 162.51 604.62 162.32 604.50 158.00 604.50 C 153.74 604.50 153.48 604.66 153.16 607.50 C 152.73 611.35 151.33 613.00 148.50 613.00 C 145.67 613.00 144.27 611.35 143.84 607.50 L 143.50 604.50 L 129.78 604.22 L 116.05 603.94 L 115.47 606.72 C 114.24 612.54 111.38 614.34 107.05 612.03 C 105.27 611.08 105.00 609.97 105.00 603.66 C 105.00 595.95 104.08 594.00 100.42 594.00 C 97.05 594.00 96.12 592.01 95.80 584.06 C 95.48 576.29 95.09 575.66 89.83 574.56 C 87.81 574.14 86.99 573.21 86.46 570.75 C 85.52 566.32 84.25 565.00 80.94 565.00 C 77.80 565.00 76.97 564.09 76.06 559.62 C 75.55 557.15 74.79 556.44 72.09 555.88 C 70.25 555.51 68.34 554.59 67.86 553.85 C 67.37 553.11 67.05 547.17 67.14 540.65 C 67.32 527.82 67.02 527.04 61.79 527.02 C 57.78 526.99 57.00 524.49 57.00 511.60 C 57.00 501.22 56.81 499.97 55.07 499.04 C 54.00 498.47 52.20 498.00 51.07 498.00 C 49.93 498.00 48.91 497.89 48.81 497.75 C 48.70 497.61 48.37 489.40 48.06 479.51 L 47.50 461.51 L 43.74 459.74 L 39.98 457.98 L 40.24 402.35 C 40.52 341.61 40.02 346.95 45.75 344.14 C 47.32 343.38 47.56 340.88 48.05 320.39 C 48.35 307.80 48.69 297.39 48.80 297.25 C 48.91 297.11 49.93 297.00 51.07 297.00 C 52.20 297.00 54.00 296.53 55.07 295.96 C 56.81 295.03 57.00 293.76 57.02 283.21 C 57.02 276.77 57.43 270.87 57.91 270.11 C 58.40 269.34 60.51 268.44 62.61 268.10 C 65.87 267.57 66.51 267.03 67.05 264.40 C 68.08 259.37 68.68 259.00 75.87 259.00 C 86.55 259.00 86.15 259.93 86.07 235.46 C 86.03 223.93 86.39 213.89 86.87 213.15 C 87.35 212.41 89.26 211.49 91.11 211.11 C 93.71 210.58 94.68 209.75 95.36 207.46 C 96.81 202.56 97.59 201.52 100.10 201.15 C 104.25 200.56 105.00 199.15 105.00 191.95 C 105.00 184.54 106.37 182.00 110.37 182.00 C 113.15 182.00 115.00 180.23 115.02 177.55 C 115.04 174.36 116.45 172.86 120.12 172.11 C 123.03 171.52 123.57 170.94 124.00 167.98 C 124.40 165.21 125.09 164.37 127.50 163.65 C 132.58 162.15 133.43 161.42 134.13 158.03 C 134.87 154.42 136.38 153.04 139.63 153.02 C 142.33 153.00 143.73 151.29 144.16 147.50 C 144.45 144.95 144.97 144.45 147.68 144.19 C 151.45 143.83 152.71 142.53 153.16 138.52 C 153.42 136.20 154.17 135.34 156.50 134.65 C 161.56 133.16 162.43 132.43 163.11 129.10 C 163.92 125.13 164.14 124.92 168.17 124.10 C 170.86 123.55 171.55 122.85 172.12 120.09 C 172.86 116.45 174.37 115.04 177.55 115.02 C 180.20 115.00 182.00 113.15 182.00 110.45 C 182.00 106.64 185.04 105.00 192.13 105.00 C 199.30 105.00 201.00 104.01 201.00 99.82 C 201.00 97.59 201.55 96.92 203.75 96.45 C 209.27 95.27 211.00 94.11 211.00 91.59 C 211.00 87.35 213.49 85.91 220.38 86.17 C 223.77 86.29 227.09 86.06 227.75 85.66 C 228.41 85.25 229.41 83.19 229.98 81.07 C 231.18 76.63 232.55 76.03 241.64 76.01 C 248.02 76.00 249.00 75.33 249.00 70.98 C 249.00 68.00 250.78 67.53 264.00 67.00 L 276.50 66.50 L 277.79 62.53 C 278.51 60.35 279.63 58.22 280.30 57.80 C 280.96 57.37 286.70 57.02 293.05 57.02 C 305.53 57.00 307.00 56.46 307.00 51.91 C 307.00 50.37 307.68 48.95 308.58 48.61 C 309.45 48.27 317.54 48.00 326.55 48.00 C 341.72 48.00 343.01 47.86 343.96 46.07 C 344.53 45.00 345.00 43.19 345.00 42.04 C 345.00 40.70 345.95 39.59 347.64 38.95 C 349.31 38.31 368.23 38.05 399.22 38.22 C 446.34 38.49 448.21 38.57 449.58 40.44 C 450.36 41.51 451.00 43.42 451.00 44.69 C 451.00 45.96 451.11 47.09 451.25 47.19 C 451.39 47.30 459.60 47.63 469.50 47.94 L 487.50 48.50 L 487.84 51.50 C 488.42 56.68 489.26 57.00 502.05 57.00 C 514.77 57.00 517.00 57.80 517.00 62.37 C 517.00 66.43 518.73 67.00 531.01 67.00 C 543.84 67.00 545.69 67.67 546.19 72.50 L 546.50 75.50 L 554.79 76.00 C 563.44 76.52 564.95 77.35 564.98 81.55 C 565.01 85.06 567.03 86.00 574.50 86.00 C 582.25 86.00 584.00 86.92 584.00 91.00 C 584.00 94.30 585.70 96.00 589.00 96.00 C 592.14 96.00 594.00 97.67 594.00 100.50 C 594.00 103.98 596.01 105.00 602.95 105.02 C 610.71 105.03 611.98 105.68 612.87 110.03 C 613.57 113.42 614.42 114.15 619.50 115.65 C 621.93 116.37 622.60 117.21 623.00 120.02 C 623.43 123.01 623.93 123.55 626.50 123.84 C 630.49 124.29 632.00 125.69 632.00 128.92 C 632.00 132.16 633.65 134.00 636.55 134.00 C 639.19 134.00 641.70 136.68 642.16 139.98 C 642.40 141.73 643.38 142.72 645.50 143.35 C 650.65 144.87 651.49 145.61 652.00 149.10 C 652.44 152.09 652.90 152.54 655.80 152.82 C 659.96 153.22 661.93 156.67 660.18 160.50 C 659.13 162.80 658.51 163.00 652.46 163.00 C 641.95 163.00 642.00 162.94 642.00 177.50 C 642.00 191.94 642.05 192.01 651.68 191.98 C 658.71 191.97 660.00 191.26 660.89 186.90 C 661.47 184.04 662.23 183.31 666.04 181.99 C 669.96 180.63 670.56 180.02 671.00 176.99 C 671.94 170.52 680.00 170.46 680.00 176.92 C 680.00 180.18 681.66 182.00 684.63 182.00 C 688.64 182.00 690.00 184.53 690.00 192.04 C 690.00 199.35 691.08 201.00 695.88 201.00 C 698.30 201.00 699.21 202.32 699.95 206.97 C 700.44 209.99 700.96 210.55 703.51 210.84 C 708.39 211.39 709.08 212.60 708.89 220.31 C 708.70 227.68 709.96 230.00 714.12 230.00 C 717.61 230.00 719.00 232.81 719.00 239.87 C 719.00 247.27 719.96 249.00 724.09 249.00 C 727.53 249.00 728.00 250.35 728.00 260.08 L 728.00 268.00 L 724.70 268.00 C 720.85 268.00 719.00 269.50 719.00 272.63 C 719.00 277.19 716.77 278.00 704.13 278.00 C 691.39 278.00 690.00 278.51 690.00 283.22 C 690.00 286.82 692.84 288.00 701.55 288.00 C 707.58 288.00 708.00 288.15 708.60 290.54 C 708.95 291.93 709.04 295.79 708.80 299.12 C 708.34 305.43 707.27 306.96 703.31 306.98 C 702.10 306.99 700.80 307.52 700.41 308.15 C 699.27 310.00 699.98 333.27 701.23 334.78 C 702.50 336.31 723.18 336.33 726.25 334.80 C 727.30 334.28 728.00 332.80 728.00 331.09 C 728.00 327.90 729.14 326.70 733.50 325.31 C 735.48 324.68 736.84 323.36 737.50 321.42 C 738.05 319.82 738.86 317.94 739.31 317.25 C 740.39 315.58 755.14 315.54 756.80 317.20 C 757.64 318.04 758.00 323.43 758.00 335.05 C 758.00 356.13 758.93 355.00 741.69 355.00 L 729.04 355.00 L 728.37 357.65 C 727.07 362.85 728.50 363.47 742.54 363.78 C 749.91 363.94 755.93 364.53 756.69 365.15 C 758.52 366.68 758.64 494.96 756.80 496.80 C 756.09 497.51 752.69 498.00 748.49 498.00 C 737.79 498.00 737.58 498.28 737.53 512.93 C 737.49 525.80 737.07 526.95 732.45 526.98 C 729.67 527.01 728.00 525.13 728.00 522.00 C 728.00 518.86 726.33 517.00 723.50 517.00 C 720.79 517.00 719.00 515.17 719.00 512.42 C 719.00 509.38 716.71 507.81 712.82 508.18 L 709.50 508.50 L 709.50 516.89 C 709.50 525.88 709.50 525.88 715.50 527.65 C 717.93 528.37 718.60 529.21 719.00 532.02 C 719.43 535.01 719.93 535.55 722.50 535.84 C 726.53 536.29 728.00 537.69 728.00 541.06 C 728.00 544.09 727.15 544.94 722.54 546.50 C 720.29 547.26 719.41 548.31 718.89 550.88 C 717.97 555.38 716.76 555.97 708.31 555.98 C 704.27 555.99 700.83 556.47 700.45 557.08 C 700.09 557.67 699.86 567.74 699.94 579.46 C 700.11 603.00 699.86 604.00 693.90 604.00 C 690.90 604.00 690.65 604.31 689.57 609.23 C 689.14 611.18 688.18 612.13 686.23 612.54 C 680.85 613.68 680.53 614.22 680.00 623.10 L 679.50 631.50 L 676.32 631.81 C 672.55 632.17 671.29 633.47 670.84 637.48 C 670.58 639.80 669.83 640.66 667.50 641.35 C 662.44 642.84 661.57 643.57 660.89 646.90 C 660.07 650.87 659.87 651.08 655.80 651.90 C 652.98 652.48 652.43 653.08 652.00 656.02 C 651.60 658.79 650.91 659.63 648.50 660.35 C 643.42 661.85 642.57 662.58 641.87 665.97 C 641.13 669.58 639.62 670.96 636.37 670.98 C 633.67 671.00 632.27 672.71 631.84 676.50 L 631.50 679.50 L 623.10 680.00 C 614.22 680.53 613.68 680.85 612.54 686.23 C 612.13 688.18 611.18 689.14 609.23 689.57 C 604.33 690.64 604.00 690.90 603.98 693.72 C 603.96 697.71 602.93 698.84 598.46 699.76 C 595.03 700.47 594.46 700.98 594.19 703.54 C 593.73 707.84 591.53 709.00 583.84 709.00 C 576.66 709.00 575.00 710.10 575.00 714.88 C 575.00 717.81 573.39 718.44 564.50 719.00 L 556.50 719.50 L 556.19 722.68 C 556.02 724.42 555.33 726.31 554.64 726.88 C 553.96 727.45 549.84 728.04 545.47 728.20 C 537.62 728.50 537.53 728.53 536.65 731.50 C 534.80 737.76 535.68 737.48 517.39 737.76 C 499.20 738.05 498.00 738.41 498.00 743.63 C 498.00 744.87 497.52 746.18 496.92 746.55 C 496.33 746.91 490.17 747.39 483.23 747.61 C 474.63 747.88 470.36 748.41 469.82 749.25 C 469.39 749.94 469.10 752.43 469.18 754.79 C 469.26 757.14 468.78 759.62 468.11 760.29 C 467.39 761.01 464.05 761.50 459.87 761.50 C 451.50 761.50 449.51 759.88 450.51 753.92 C 451.38 748.79 449.48 747.60 440.36 747.55 C 431.85 747.50 430.63 748.40 431.45 754.08 C 432.50 761.34 430.87 761.85 408.27 761.29 Z M 257.25 707.75 C 258.14 707.06 259.02 705.15 259.19 703.50 C 259.45 701.00 260.00 700.44 262.50 700.16 C 267.37 699.61 268.00 698.45 268.00 690.08 C 268.00 681.97 267.12 680.00 263.50 680.00 C 260.61 680.00 259.00 681.87 259.00 685.22 C 259.00 687.38 258.35 688.30 256.28 689.08 C 252.74 690.43 249.00 688.82 249.00 685.96 C 249.00 684.81 248.53 683.00 247.96 681.93 C 247.02 680.17 245.75 680.00 233.46 680.00 L 220.00 680.00 L 220.00 683.88 C 220.00 688.26 221.21 689.67 225.40 690.16 C 228.46 690.52 229.52 691.79 230.45 696.21 C 230.91 698.39 231.74 699.05 234.76 699.60 C 239.02 700.38 239.96 701.39 239.98 705.17 C 239.99 706.63 240.56 708.06 241.25 708.34 C 243.88 709.40 255.66 708.96 257.25 707.75 Z M 410.80 688.80 C 411.46 688.14 412.00 686.40 412.00 684.92 C 412.00 680.97 413.74 680.12 422.51 679.80 L 430.42 679.50 L 431.05 676.41 C 432.14 671.05 432.28 671.00 445.36 671.00 C 458.29 671.00 460.00 670.46 460.00 666.38 C 460.00 661.49 460.78 661.00 468.53 661.00 C 477.63 661.00 479.00 660.49 479.00 657.09 C 479.00 653.01 480.74 652.00 487.77 652.00 C 495.29 652.00 498.00 650.82 498.00 647.54 C 498.00 643.51 500.50 642.00 507.14 642.00 C 514.17 642.00 516.99 640.78 517.02 637.71 C 517.05 633.34 518.49 632.53 527.21 632.00 L 535.50 631.50 L 535.84 628.50 C 536.29 624.51 537.69 623.00 540.92 623.00 C 544.18 623.00 546.00 621.34 546.00 618.37 C 546.00 614.37 548.54 613.00 555.95 613.00 C 563.15 613.00 564.56 612.25 565.15 608.10 C 565.52 605.59 566.56 604.81 571.46 603.36 C 573.67 602.70 574.58 601.70 575.05 599.40 C 576.08 594.39 576.70 594.00 583.62 594.00 C 591.68 594.00 594.00 592.88 594.00 589.00 C 594.00 585.76 596.25 584.00 600.42 584.00 C 602.39 584.00 603.09 583.38 603.54 581.25 C 604.47 576.85 605.53 575.53 608.58 574.99 C 610.71 574.62 611.69 573.71 612.34 571.49 C 613.87 566.36 614.61 565.52 618.00 565.00 C 621.46 564.47 622.51 563.28 623.46 558.75 C 623.90 556.67 624.63 556.00 626.44 556.00 C 632.33 556.00 632.00 558.53 632.00 513.09 C 632.00 469.22 631.98 469.00 627.50 469.00 C 624.02 469.00 623.00 466.99 622.98 460.05 C 622.97 452.40 622.50 451.40 618.49 450.44 C 613.51 449.25 613.00 448.31 613.00 440.41 C 613.00 431.63 612.31 431.00 602.77 431.00 C 595.94 431.00 594.00 429.97 594.00 426.36 C 594.00 422.93 590.35 421.00 583.85 421.00 C 577.78 421.00 575.00 422.57 575.00 425.99 C 575.00 429.67 573.83 431.00 570.59 431.00 C 566.85 431.00 565.00 429.47 565.00 426.37 C 565.00 421.80 562.77 421.00 550.05 421.00 C 537.26 421.00 536.42 420.68 535.84 415.50 L 535.50 412.50 L 527.55 412.20 C 523.17 412.04 519.01 411.42 518.30 410.83 C 517.46 410.14 516.99 407.23 516.98 402.63 C 516.98 398.71 516.64 394.98 516.23 394.34 C 515.83 393.71 513.92 392.78 512.00 392.28 C 509.04 391.52 508.42 390.86 508.00 388.03 C 507.57 385.13 506.97 384.52 503.59 383.58 C 500.41 382.69 499.45 381.83 498.50 378.99 C 497.42 375.77 496.43 374.95 490.00 371.98 C 489.18 371.60 488.27 369.76 488.00 367.90 C 487.56 364.94 487.09 364.46 484.32 364.19 C 480.54 363.83 479.29 362.53 478.84 358.50 L 478.50 355.50 L 470.55 355.20 C 461.77 354.88 460.01 354.03 459.98 350.13 C 459.96 345.39 459.20 345.11 446.30 344.94 C 439.62 344.85 433.73 345.05 433.19 345.38 C 432.66 345.71 431.93 347.55 431.57 349.48 C 431.21 351.40 430.06 353.43 429.02 353.99 C 427.97 354.55 419.85 355.00 410.62 355.00 C 392.97 355.00 393.16 354.94 392.05 360.41 L 391.43 363.50 L 383.29 364.00 C 378.82 364.27 374.97 364.73 374.75 365.00 C 374.52 365.27 373.91 367.07 373.39 369.00 L 372.43 372.50 L 364.97 373.00 C 356.60 373.56 355.00 374.22 355.00 377.12 C 355.00 380.67 353.07 382.90 349.41 383.58 C 347.45 383.95 345.69 384.76 345.50 385.38 C 345.32 385.99 344.90 387.74 344.56 389.25 C 344.15 391.16 343.34 392.00 341.92 392.00 C 338.49 392.00 336.00 393.91 336.00 396.54 C 336.00 399.69 332.70 403.00 329.55 403.00 C 326.20 403.00 325.09 405.47 325.72 411.54 C 326.35 417.72 324.90 421.00 321.54 421.00 C 315.81 421.00 316.00 418.78 316.00 484.01 C 316.00 530.81 315.73 544.06 314.75 544.69 C 314.06 545.14 312.15 545.95 310.50 546.50 C 308.19 547.27 307.42 548.19 307.17 550.50 C 306.75 554.39 305.90 555.17 301.30 555.91 L 297.50 556.53 L 297.00 564.51 C 296.44 573.50 295.82 574.99 292.69 575.02 C 287.83 575.05 287.79 575.29 287.94 599.04 C 288.02 611.30 288.32 621.71 288.60 622.17 C 288.89 622.63 290.39 623.00 291.94 623.00 C 295.99 623.00 296.87 624.67 297.20 633.04 L 297.50 640.50 L 301.76 641.85 C 305.04 642.89 306.14 643.80 306.59 645.85 C 307.62 650.58 307.88 650.93 310.71 651.55 C 312.24 651.89 314.06 652.34 314.75 652.55 C 315.61 652.82 316.00 655.38 316.00 660.77 C 316.00 665.53 316.47 669.07 317.20 669.80 C 317.93 670.53 321.45 671.00 326.14 671.00 C 334.39 671.00 334.90 671.28 335.95 676.41 C 336.45 678.92 337.13 679.56 339.54 679.81 C 342.93 680.17 345.00 682.37 345.00 685.64 C 345.00 686.88 345.79 688.36 346.75 688.92 C 349.40 690.46 409.25 690.35 410.80 688.80 Z M 659.07 602.96 C 662.65 601.05 660.76 594.00 656.66 594.00 C 653.52 594.00 652.00 595.83 652.00 599.62 C 652.00 603.74 654.98 605.15 659.07 602.96 Z M 248.34 523.50 C 250.09 517.60 250.21 517.53 259.10 517.00 L 267.50 516.50 L 267.84 513.50 C 268.27 509.63 269.68 508.00 272.55 508.00 C 275.53 508.00 278.00 505.50 278.00 502.46 C 278.00 499.91 280.53 498.00 283.90 498.00 C 286.91 498.00 288.10 494.80 287.83 487.44 C 287.57 480.43 288.37 479.05 292.71 479.02 C 295.82 478.99 297.00 476.15 297.00 468.69 C 297.00 461.63 296.22 460.37 291.50 459.84 L 288.50 459.50 L 288.00 451.30 C 287.73 446.78 287.05 442.66 286.50 442.12 C 285.95 441.59 283.94 440.76 282.03 440.27 C 279.19 439.55 278.44 438.80 277.90 436.14 C 277.53 434.36 276.92 432.59 276.55 432.22 C 276.17 431.84 272.41 431.36 268.18 431.15 C 260.32 430.76 259.04 430.09 259.02 426.37 C 258.99 422.91 256.20 421.53 248.10 421.00 C 240.53 420.50 240.50 420.49 240.16 417.50 C 239.61 412.63 238.45 412.00 230.00 412.00 C 221.56 412.00 220.39 411.37 219.84 406.54 C 219.56 404.07 218.93 403.46 216.12 402.89 C 212.47 402.15 211.05 400.65 211.00 397.50 C 210.93 393.22 210.36 393.10 187.54 392.94 C 167.50 392.80 165.52 392.94 164.32 394.58 C 163.59 395.57 163.00 397.44 163.00 398.72 C 163.00 402.79 155.86 403.71 153.86 399.90 C 153.45 399.13 152.88 397.34 152.59 395.93 C 152.18 393.96 151.17 393.15 148.28 392.43 C 144.98 391.62 144.46 391.09 144.19 388.25 C 143.78 384.00 142.00 383.22 133.19 383.42 C 124.56 383.62 124.04 384.12 124.02 392.32 C 124.00 399.73 125.09 401.68 130.02 403.00 L 134.00 404.08 L 134.00 411.34 C 134.00 418.98 134.92 420.99 138.45 421.02 C 143.05 421.05 143.47 422.21 144.00 436.17 L 144.50 449.42 L 147.80 450.10 C 149.62 450.47 151.42 451.08 151.80 451.46 C 152.19 451.85 152.72 457.81 153.00 464.72 C 153.54 478.20 153.38 477.84 159.50 479.65 C 162.42 480.52 162.51 480.74 163.00 488.02 C 163.28 492.13 163.86 496.06 164.31 496.75 C 164.82 497.54 167.57 498.01 171.81 498.02 C 179.74 498.03 180.98 498.66 181.89 503.11 C 182.42 505.71 183.25 506.68 185.54 507.36 C 190.65 508.87 191.49 509.61 192.00 513.10 C 192.44 516.09 192.92 516.56 195.97 517.00 C 198.91 517.42 199.60 518.04 200.47 521.00 C 202.33 527.33 201.17 527.06 225.30 526.77 L 247.45 526.50 L 248.34 523.50 Z M 679.60 495.46 C 680.96 490.05 677.99 486.77 673.58 488.78 C 671.65 489.66 671.00 490.71 671.00 492.92 C 671.00 498.44 678.31 500.60 679.60 495.46 Z M 132.84 477.70 C 133.43 476.98 134.00 473.11 134.10 469.09 C 134.30 461.21 133.64 460.04 128.95 460.02 C 125.69 460.00 124.00 458.29 124.00 455.00 C 124.00 450.27 120.27 448.54 116.83 451.65 C 115.41 452.94 115.00 454.79 115.00 459.95 C 115.00 466.99 116.00 469.00 119.50 469.00 C 122.10 469.00 124.00 470.80 124.00 473.27 C 124.00 476.73 125.95 479.00 128.91 479.00 C 130.48 479.00 132.24 478.41 132.84 477.70 Z M 728.00 455.02 L 728.50 441.54 L 731.50 440.65 C 736.31 439.23 737.48 438.42 737.80 436.31 C 738.25 433.28 735.53 431.74 728.99 431.30 C 721.66 430.81 719.23 431.99 718.81 436.21 C 718.53 439.10 718.06 439.52 714.00 440.50 L 709.50 441.59 L 709.22 453.99 C 709.06 460.81 709.17 466.99 709.45 467.73 C 709.84 468.75 712.11 469.01 718.73 468.79 L 727.50 468.50 L 728.00 455.02 Z M 74.82 430.72 C 75.42 430.00 75.98 424.01 76.10 417.07 C 76.36 402.16 76.24 401.98 66.22 402.75 C 58.67 403.32 57.00 404.20 57.00 407.59 C 57.00 410.21 59.59 412.00 63.38 412.00 C 66.85 412.00 67.46 413.48 67.15 421.18 C 66.91 426.83 67.19 428.19 68.94 429.94 C 71.30 432.30 73.29 432.56 74.82 430.72 Z M 591.43 392.02 C 593.39 391.28 594.00 390.35 594.00 388.08 C 594.00 384.16 595.12 383.63 603.78 383.42 C 607.80 383.32 611.35 382.99 611.66 382.67 C 611.98 382.36 612.53 380.62 612.90 378.82 C 613.55 375.68 614.20 375.12 621.00 371.98 C 622.07 371.49 622.59 369.34 622.80 364.44 C 623.13 356.92 624.09 355.00 627.50 355.00 C 628.74 355.00 630.27 354.38 630.89 353.63 C 631.70 352.65 631.95 341.78 631.76 315.42 L 631.50 278.58 L 628.12 277.89 C 624.38 277.13 623.04 275.64 623.02 272.23 C 623.00 269.91 621.11 268.70 615.75 267.55 C 613.55 267.08 613.00 266.41 613.00 264.18 C 613.00 260.87 611.38 259.00 608.50 259.00 C 604.60 259.00 604.00 257.17 604.00 245.23 C 604.00 233.14 603.15 230.00 599.90 230.00 C 594.99 230.00 594.00 228.40 594.00 220.50 C 594.00 212.61 593.01 211.00 588.12 211.00 C 585.70 211.00 584.80 209.68 584.04 205.03 L 583.47 201.50 L 576.25 201.21 C 567.24 200.84 564.77 201.98 565.19 206.30 C 565.44 208.84 566.10 209.64 568.50 210.35 C 574.64 212.16 574.48 211.78 574.78 225.02 C 574.96 232.86 574.67 237.73 573.99 238.42 C 573.39 239.01 569.22 239.72 564.70 240.00 L 556.50 240.50 L 556.16 243.50 C 555.71 247.54 554.31 249.00 550.91 249.00 C 547.90 249.00 546.00 251.28 546.00 254.90 C 546.00 257.12 543.29 259.00 540.10 259.00 C 536.85 259.00 536.00 262.14 536.00 274.23 C 536.00 286.58 535.46 288.00 530.80 288.00 C 529.26 288.00 527.91 288.11 527.81 288.25 C 527.70 288.39 527.37 296.59 527.06 306.47 L 526.50 324.44 L 522.79 325.48 C 520.75 326.05 518.61 326.99 518.02 327.58 C 517.32 328.28 517.05 335.90 517.23 349.96 C 517.52 373.06 517.10 371.40 523.46 374.20 C 525.63 375.15 526.66 376.49 527.29 379.15 C 528.27 383.30 529.77 384.00 536.17 383.30 C 542.59 382.60 546.00 384.23 546.00 388.01 C 546.00 390.24 546.60 391.31 548.25 391.97 C 551.31 393.20 588.23 393.24 591.43 392.02 Z M 295.60 381.53 C 296.37 380.48 297.00 378.61 297.00 377.37 C 297.00 374.33 297.59 374.10 306.31 373.62 C 315.20 373.13 316.00 372.76 316.00 369.14 C 316.00 365.66 317.66 364.00 321.14 364.00 C 324.20 364.00 325.03 363.07 325.94 358.62 C 326.45 356.14 327.21 355.44 329.99 354.87 C 335.30 353.78 335.92 352.14 335.79 339.37 C 335.73 333.11 336.00 327.67 336.39 327.28 C 336.78 326.89 338.53 326.10 340.28 325.53 C 346.52 323.50 346.25 316.00 339.94 316.00 C 336.17 316.00 335.52 314.62 335.85 307.30 C 336.17 300.14 334.89 297.00 331.66 297.00 C 326.99 297.00 325.49 294.73 325.82 288.13 C 326.16 281.31 324.88 278.00 321.90 278.00 C 318.28 278.00 316.00 276.10 316.00 273.09 C 316.00 269.69 314.54 268.29 310.50 267.84 C 307.94 267.55 307.43 267.00 307.00 264.10 C 306.49 260.61 305.65 259.87 300.50 258.35 C 297.56 257.48 297.49 257.31 297.00 249.58 C 296.47 241.26 296.10 240.67 290.75 239.54 L 288.00 238.96 L 288.00 226.18 C 288.00 217.57 287.61 213.01 286.80 212.20 C 286.08 211.48 282.58 211.00 278.00 211.00 C 269.91 211.00 268.00 210.12 268.00 206.38 C 268.00 202.45 266.90 201.00 263.93 201.00 C 260.90 201.00 259.00 203.27 259.00 206.90 C 259.00 208.02 258.13 209.40 257.07 209.96 C 254.29 211.45 232.71 211.31 231.20 209.80 C 230.36 208.96 230.00 203.43 230.00 191.34 C 230.00 175.29 229.86 174.00 228.07 173.04 C 227.00 172.47 224.99 172.00 223.58 172.00 C 221.61 172.00 220.91 171.38 220.46 169.25 C 219.57 165.02 218.50 163.53 216.09 163.17 C 211.08 162.43 211.00 162.94 211.00 196.42 C 211.00 229.19 211.11 230.00 215.50 230.00 C 219.06 230.00 220.00 231.99 220.00 239.50 C 220.00 247.01 219.06 249.00 215.50 249.00 C 211.11 249.00 211.00 249.81 211.00 282.58 C 211.00 316.26 210.88 315.53 216.50 316.16 L 219.50 316.50 L 219.78 329.48 C 219.94 336.62 220.46 342.86 220.94 343.34 C 221.42 343.82 223.32 344.52 225.16 344.89 C 227.84 345.44 228.72 346.26 229.62 349.04 C 230.65 352.23 231.71 353.11 238.00 356.02 C 238.82 356.40 239.72 358.24 240.00 360.10 C 240.43 363.00 240.94 363.55 243.50 363.84 C 247.53 364.29 248.83 365.54 249.19 369.32 L 249.50 372.50 L 262.33 373.00 C 273.54 373.44 275.34 373.75 276.58 375.44 C 277.36 376.51 278.00 378.14 278.00 379.07 C 278.00 382.37 280.95 383.52 289.28 383.47 C 292.95 383.46 294.55 382.96 295.60 381.53 Z M 707.56 352.55 C 709.43 349.69 708.74 346.47 705.93 344.96 C 702.85 343.31 700.00 345.42 700.00 349.34 C 700.00 355.10 704.61 357.06 707.56 352.55 Z M 431.44 311.50 C 432.31 308.39 433.10 307.43 435.03 307.17 C 438.28 306.72 439.28 305.65 440.51 301.24 C 441.36 298.23 442.12 297.45 444.77 296.91 C 450.22 295.80 451.02 294.52 450.35 288.07 C 449.67 281.54 450.99 278.00 454.10 278.00 C 455.22 278.00 457.00 277.53 458.07 276.96 C 459.90 275.98 460.00 274.60 460.00 249.16 C 460.00 220.49 459.91 220.00 454.92 220.00 C 450.76 220.00 449.63 217.82 450.33 211.15 C 451.03 204.45 449.39 201.00 445.51 201.00 C 442.45 201.00 440.00 198.51 440.00 195.40 C 440.00 192.90 439.64 192.64 434.75 191.56 C 432.74 191.12 432.00 190.35 432.00 188.70 C 432.00 185.42 429.24 182.00 426.60 182.00 C 423.82 182.00 421.30 179.38 420.84 176.02 C 420.52 173.68 419.48 173.05 413.25 171.39 C 412.56 171.21 412.00 169.75 412.00 168.15 C 412.00 163.96 410.37 163.13 401.50 162.80 L 393.59 162.50 L 392.51 158.07 C 391.92 155.64 391.00 153.54 390.47 153.41 C 389.94 153.28 388.26 152.90 386.75 152.57 C 384.84 152.15 384.00 151.33 384.00 149.92 C 384.00 146.28 382.11 144.00 379.09 144.00 C 375.87 144.00 374.20 142.41 373.12 138.31 C 372.62 136.43 371.40 135.17 369.43 134.50 C 364.85 132.94 364.00 132.09 364.00 129.06 C 364.00 125.69 362.53 124.29 358.50 123.84 C 356.00 123.56 355.45 123.00 355.17 120.50 C 354.75 116.62 353.90 115.83 349.35 115.09 C 345.88 114.53 345.51 114.14 344.50 109.99 C 343.60 106.28 342.98 105.45 340.87 105.20 C 336.51 104.68 335.91 106.64 336.22 120.60 L 336.50 133.42 L 339.88 134.11 C 343.73 134.90 344.96 136.36 344.98 140.14 C 345.00 142.89 346.56 144.00 350.38 144.00 C 353.97 144.00 355.00 145.96 355.00 152.77 C 355.00 162.21 354.31 163.00 346.05 163.00 C 337.82 163.00 336.00 163.58 336.00 166.17 C 336.00 169.30 334.10 172.00 331.90 172.00 C 330.78 172.00 329.00 172.47 327.93 173.04 C 326.14 174.00 326.00 175.29 326.00 191.34 C 326.00 209.41 326.36 210.98 330.45 211.02 C 333.63 211.04 335.14 212.45 335.88 216.09 C 336.45 218.87 337.13 219.55 339.91 220.12 C 346.89 221.54 346.89 228.46 339.92 229.88 C 337.48 230.38 336.41 231.24 335.97 233.03 C 335.04 236.83 335.98 238.97 338.87 239.57 C 344.07 240.66 344.47 241.30 345.00 249.50 C 345.53 257.73 345.65 257.92 351.50 259.66 L 354.50 260.55 L 354.64 277.46 C 354.77 292.49 354.99 294.52 356.58 295.68 C 357.57 296.41 359.41 297.00 360.67 297.00 C 362.36 297.00 363.12 297.72 363.55 299.75 C 364.64 304.83 365.94 307.00 367.90 307.00 C 370.86 307.00 373.00 308.07 373.00 309.54 C 373.00 310.27 373.44 312.03 373.98 313.45 L 374.96 316.03 L 402.64 315.77 L 430.32 315.50 L 431.44 311.50 Z M 200.44 303.70 C 202.12 298.91 200.36 297.54 192.05 297.20 C 184.16 296.88 182.00 297.82 182.00 301.55 C 182.00 305.84 184.52 307.11 192.34 306.79 C 199.13 306.51 199.50 306.37 200.44 303.70 Z M 649.85 296.11 C 650.59 295.64 651.51 293.75 651.88 291.91 C 652.45 289.13 653.13 288.45 655.91 287.88 C 657.75 287.51 659.65 286.59 660.14 285.85 C 660.62 285.11 660.90 281.17 660.76 277.11 C 660.47 268.91 659.28 267.21 654.65 268.37 C 652.54 268.90 652.00 269.63 652.00 271.95 C 652.00 275.42 649.71 278.00 646.63 278.00 C 642.92 278.00 642.00 279.92 642.00 287.65 C 642.00 293.50 642.34 295.10 643.75 295.92 C 645.90 297.17 648.07 297.24 649.85 296.11 Z M 729.05 276.57 C 728.40 275.78 728.01 273.64 728.18 271.82 C 728.45 269.01 728.94 268.45 731.34 268.18 C 734.56 267.81 738.00 270.35 738.00 273.10 C 738.00 275.11 734.41 278.00 731.90 278.00 C 730.99 278.00 729.71 277.35 729.05 276.57 Z M 669.07 247.96 C 671.34 246.75 671.62 242.76 669.57 241.05 C 668.78 240.40 666.64 240.01 664.82 240.18 C 662.02 240.45 661.45 240.94 661.18 243.31 C 660.61 248.22 664.40 250.46 669.07 247.96 Z M 161.80 209.80 C 162.46 209.14 163.00 207.43 163.00 206.00 C 163.00 204.57 162.46 202.86 161.80 202.20 C 161.14 201.54 159.43 201.00 158.00 201.00 C 154.65 201.00 153.00 202.70 153.00 206.15 C 153.00 210.29 158.88 212.72 161.80 209.80 Z M 199.80 151.80 C 200.50 151.10 201.00 147.77 201.00 143.87 C 201.00 136.81 199.61 134.00 196.13 134.00 C 192.96 134.00 192.00 136.21 192.00 143.50 C 192.00 151.01 192.94 153.00 196.50 153.00 C 197.66 153.00 199.14 152.46 199.80 151.80 Z M 438.70 75.50 C 440.63 74.14 440.81 73.27 440.45 66.87 C 440.01 59.19 438.80 56.73 435.69 57.20 C 433.58 57.52 432.77 58.70 431.36 63.46 C 430.69 65.71 429.70 66.58 427.25 67.08 C 423.27 67.90 421.00 69.68 421.00 72.00 C 421.00 74.79 423.14 75.86 429.53 76.25 C 432.82 76.46 435.74 76.71 436.03 76.81 C 436.32 76.91 437.52 76.32 438.70 75.50 Z" fill="#000" fill-rule="evenodd"/></svg>
