<svg xmlns="http://www.w3.org/2000/svg" viewBox="0 0 1600 1600" width="200" height="200"><defs><clipPath id="rim"><circle cx="797.26" cy="799.95" r="712.60"/></clipPath></defs><circle cx="797.26" cy="799.95" r="723.45" fill="#f0ece3"/><path d="M 809.50 1523.40 C 795.97 1521.43 792.13 1518.88 782.87 1505.78 C 762.37 1476.75 749.21 1471.72 729.14 1485.24 C 712.44 1496.49 705.19 1496.31 686.71 1484.21 C 674.97 1476.53 667.09 1476.10 656.56 1482.58 C 653.50 1484.46 648.47 1487.55 645.39 1489.45 C 637.30 1494.42 631.80 1495.24 609.66 1494.77 C 587.85 1494.31 588.28 1494.43 573.96 1485.02 C 563.26 1478.00 561.03 1477.27 546.50 1475.96 C 532.56 1474.71 528.37 1473.29 517.04 1466.03 C 511.99 1462.79 504.06 1458.76 499.42 1457.08 C 489.16 1453.37 485.46 1451.51 476.84 1445.71 C 473.14 1443.21 466.47 1440.00 461.84 1438.47 C 451.47 1435.05 448.08 1433.36 438.29 1426.71 C 434.00 1423.80 426.90 1420.15 422.50 1418.59 C 406.76 1413.03 393.51 1402.41 379.82 1384.36 C 367.84 1368.56 377.94 1358.94 397.83 1367.17 C 410.53 1372.43 421.48 1371.21 431.75 1363.38 C 436.74 1359.57 436.29 1355.27 429.45 1341.34 C 426.39 1335.13 422.59 1326.20 421.00 1321.50 C 419.41 1316.80 416.65 1310.83 414.87 1308.23 C 413.09 1305.63 410.14 1301.32 408.31 1298.65 C 404.28 1292.74 402.37 1286.16 401.50 1275.18 C 400.11 1257.43 396.26 1251.71 381.96 1246.11 C 377.31 1244.29 369.15 1239.90 363.84 1236.36 C 358.19 1232.60 350.71 1228.67 345.84 1226.90 C 341.25 1225.24 333.50 1222.04 328.62 1219.80 C 319.77 1215.75 319.70 1215.74 311.62 1216.53 C 295.41 1218.11 292.26 1217.79 283.05 1213.66 C 266.93 1206.43 253.12 1206.34 235.27 1213.37 C 220.00 1219.38 216.89 1218.23 209.50 1203.86 C 206.85 1198.71 203.02 1192.03 200.98 1189.00 C 196.25 1181.97 193.72 1176.88 191.51 1170.00 C 187.59 1157.74 184.35 1153.37 162.96 1131.50 C 136.32 1104.27 135.89 1103.54 134.00 1083.00 C 132.64 1068.18 131.68 1065.39 124.16 1054.30 C 116.97 1043.70 115.35 1038.91 114.07 1024.37 C 112.93 1011.46 111.59 1007.59 104.29 996.00 C 96.84 984.18 95.97 980.67 95.40 960.00 C 94.76 936.63 93.98 932.88 86.94 919.05 C 78.70 902.86 79.02 907.38 79.02 805.00 C 79.02 703.21 78.75 707.13 86.64 691.04 C 94.50 675.02 94.20 676.74 95.02 643.00 C 95.88 608.02 96.15 606.60 104.17 594.38 C 111.20 583.66 112.78 579.02 114.06 565.35 C 116.28 541.45 129.90 524.62 153.10 517.11 C 169.45 511.82 171.30 507.12 172.10 469.00 C 172.89 431.46 172.53 432.56 190.56 412.43 C 203.86 397.60 205.30 395.44 209.59 383.89 C 215.41 368.23 214.45 369.31 290.88 292.89 C 368.35 215.42 368.01 215.73 383.12 210.00 C 395.40 205.34 397.66 203.85 412.11 190.76 C 425.32 178.80 428.88 176.49 441.56 171.66 C 446.55 169.76 454.71 165.53 459.70 162.25 C 464.69 158.98 473.21 154.58 478.63 152.49 C 484.06 150.39 492.10 146.42 496.50 143.66 C 507.54 136.74 512.25 135.16 525.29 134.02 C 540.12 132.72 544.40 131.31 555.35 124.14 C 566.34 116.94 571.08 115.36 585.50 114.08 C 598.53 112.92 602.71 111.58 611.97 105.59 C 625.79 96.65 627.56 96.20 653.47 95.05 C 675.89 94.05 676.82 93.81 689.06 85.96 C 704.90 75.80 697.05 76.50 795.50 76.50 C 893.95 76.50 884.81 75.66 901.50 86.22 C 912.96 93.47 918.73 94.99 934.96 95.03 C 958.01 95.09 965.71 97.01 978.83 105.97 C 986.61 111.28 993.83 113.54 1005.78 114.40 C 1018.16 115.30 1025.24 117.67 1034.29 123.92 C 1044.32 130.85 1049.75 132.75 1063.19 134.02 C 1079.11 135.52 1081.83 136.44 1094.61 144.62 C 1097.67 146.57 1104.93 149.93 1110.76 152.10 C 1116.96 154.39 1124.41 158.10 1128.68 161.00 C 1137.84 167.21 1142.60 169.64 1151.48 172.66 C 1160.42 175.70 1166.09 179.55 1178.40 190.95 C 1191.16 202.75 1194.91 205.27 1206.20 209.57 C 1222.87 215.92 1228.29 220.60 1279.16 272.50 C 1318.72 312.85 1319.71 315.40 1300.38 327.07 C 1287.71 334.73 1284.58 340.56 1284.74 356.20 C 1285.02 382.64 1304.17 388.26 1326.17 368.37 C 1351.86 345.14 1367.39 349.58 1380.45 383.86 C 1384.67 394.94 1385.60 396.32 1398.08 410.08 C 1410.76 424.06 1413.39 428.09 1417.95 440.36 C 1420.52 447.30 1423.89 453.80 1428.19 460.10 C 1432.41 466.29 1435.73 472.67 1437.93 478.78 C 1439.82 484.03 1443.83 492.06 1447.18 497.28 C 1456.29 511.49 1459.62 529.63 1454.40 536.67 C 1449.88 542.78 1424.32 555.24 1409.82 558.42 C 1394.78 561.72 1394.11 564.25 1405.31 575.30 C 1418.67 588.49 1419.50 596.76 1409.10 613.22 C 1390.79 642.22 1398.90 670.53 1425.50 670.44 C 1442.59 670.38 1447.93 667.76 1465.96 650.58 C 1484.27 633.13 1495.05 629.42 1506.62 636.57 C 1521.90 646.01 1521.34 694.78 1505.81 707.05 C 1501.13 710.75 1498.25 711.89 1483.25 715.93 C 1475.64 717.99 1477.32 720.25 1488.11 722.52 C 1502.61 725.57 1512.29 733.30 1515.51 744.39 C 1518.09 753.27 1517.27 978.06 1514.64 983.00 C 1510.58 990.62 1506.67 993.48 1494.92 997.46 C 1481.78 1001.91 1478.19 1006.70 1475.54 1023.31 C 1471.85 1046.50 1463.88 1050.04 1447.00 1036.00 C 1421.87 1015.10 1411.30 1034.32 1434.44 1058.84 C 1444.44 1069.44 1446.46 1072.28 1447.98 1077.93 C 1451.00 1089.13 1439.48 1104.29 1423.54 1110.12 C 1401.90 1118.03 1400.02 1121.54 1399.97 1153.93 C 1399.92 1194.74 1399.14 1197.31 1381.10 1215.71 C 1367.57 1229.52 1365.35 1232.83 1360.62 1246.24 C 1355.63 1260.37 1354.33 1261.91 1308.12 1308.10 C 1261.84 1354.37 1260.35 1355.63 1246.12 1360.70 C 1231.87 1365.78 1229.83 1367.29 1208.80 1388.40 C 1188.33 1408.94 1182.85 1413.17 1171.26 1417.34 C 1161.85 1420.73 1157.74 1422.87 1148.29 1429.30 C 1143.35 1432.65 1137.02 1435.79 1131.00 1437.88 C 1125.16 1439.90 1118.01 1443.42 1112.44 1447.01 C 1106.46 1450.87 1099.75 1454.11 1092.70 1456.55 C 1085.21 1459.14 1079.41 1461.99 1073.26 1466.13 C 1061.16 1474.28 1058.20 1475.03 1034.50 1475.98 C 1010.57 1476.95 1007.84 1477.65 996.86 1485.64 C 988.34 1491.83 982.54 1493.82 968.36 1495.39 C 951.43 1497.26 947.44 1499.17 939.10 1509.38 C 926.14 1525.24 914.66 1525.29 900.56 1509.53 C 886.74 1494.09 875.61 1493.93 863.45 1508.98 C 853.07 1521.82 833.87 1526.95 809.50 1523.40 Z M 509.77 1411.95 C 520.26 1406.72 531.96 1391.84 531.99 1383.72 C 532.02 1374.45 528.27 1371.94 514.72 1372.16 C 504.32 1372.32 504.32 1372.32 493.91 1367.41 C 483.50 1362.50 483.50 1362.50 470.00 1362.50 C 442.46 1362.50 441.98 1370.17 467.92 1396.04 C 487.83 1415.89 495.81 1418.93 509.77 1411.95 Z M 811.50 1376.43 C 814.25 1375.29 820.26 1371.83 824.85 1368.73 C 830.44 1364.96 836.27 1362.08 842.48 1360.01 C 847.58 1358.31 854.40 1355.29 857.63 1353.31 C 874.49 1342.94 875.62 1342.53 891.65 1341.03 C 905.59 1339.72 908.71 1338.61 919.96 1330.97 C 925.93 1326.92 932.19 1323.70 938.29 1321.55 C 948.57 1317.92 952.57 1316.03 958.50 1312.00 C 964.18 1308.13 969.68 1305.46 978.91 1302.09 C 983.33 1300.48 990.68 1296.71 995.23 1293.73 C 1005.66 1286.88 1006.00 1286.71 1016.07 1283.04 C 1020.66 1281.36 1028.51 1277.29 1033.51 1274.00 C 1039.32 1270.16 1046.37 1266.63 1053.08 1264.20 C 1065.78 1259.59 1069.20 1257.30 1084.00 1243.55 C 1095.79 1232.60 1099.53 1230.27 1116.45 1223.42 C 1124.00 1220.36 1129.75 1216.13 1144.33 1202.93 C 1153.99 1194.18 1159.12 1191.05 1171.50 1186.37 C 1182.75 1182.13 1188.74 1177.04 1222.79 1142.82 C 1268.83 1096.55 1263.50 1111.85 1263.50 1026.00 C 1263.50 949.11 1263.87 953.30 1255.96 941.05 C 1250.66 932.86 1248.57 928.63 1244.99 918.82 C 1243.20 913.91 1239.33 906.61 1235.53 900.97 C 1232.00 895.73 1227.66 887.67 1225.90 883.06 C 1222.16 873.27 1218.04 868.25 1211.32 865.28 C 1196.04 858.54 1192.30 856.66 1188.00 853.50 C 1175.78 844.53 1167.58 843.71 1154.15 850.13 C 1141.97 855.96 1138.28 855.91 1125.42 849.77 C 1116.11 845.33 1114.64 844.94 1101.57 843.51 C 1086.10 841.81 1082.10 840.42 1070.60 832.69 C 1066.81 830.14 1061.64 827.31 1059.10 826.40 C 1042.75 820.51 1037.96 816.49 1034.42 805.68 C 1029.91 791.92 1028.68 790.41 992.14 753.70 C 954.53 715.92 953.16 714.80 938.77 709.66 C 932.28 707.35 926.03 704.15 919.97 700.04 C 899.95 686.43 882.34 686.51 862.25 700.27 C 850.67 708.20 847.28 709.04 823.00 709.99 C 798.16 710.95 797.19 711.21 783.02 720.61 C 779.44 722.99 772.00 726.60 766.50 728.62 C 761.00 730.64 753.11 734.46 748.97 737.10 C 741.58 741.82 737.33 743.90 723.64 749.51 C 704.51 757.34 658.96 805.00 651.58 824.91 C 649.60 830.23 645.64 837.99 642.46 842.78 C 632.65 857.52 633.58 845.38 632.98 966.50 C 632.35 1095.17 634.63 1080.47 611.47 1104.95 C 598.79 1118.35 598.44 1118.88 593.62 1132.38 C 591.75 1137.61 587.71 1145.86 584.65 1150.70 C 571.57 1171.38 571.59 1224.41 584.69 1245.48 C 587.76 1250.42 591.73 1258.39 593.52 1263.19 C 598.22 1275.83 600.87 1279.79 613.56 1293.11 C 625.82 1305.97 628.29 1309.58 632.45 1320.71 C 636.97 1332.82 640.81 1336.97 650.81 1340.57 C 664.14 1345.37 667.63 1347.65 680.44 1359.90 C 701.17 1379.73 697.86 1378.94 759.00 1378.69 C 804.50 1378.51 806.71 1378.41 811.50 1376.43 Z M 475.44 1052.95 C 484.87 1051.63 488.27 1050.22 497.87 1043.65 C 504.96 1038.80 508.88 1036.94 521.30 1032.51 C 538.42 1026.41 568.01 995.59 574.91 976.68 C 576.95 971.08 580.88 962.90 583.64 958.50 C 593.97 942.03 593.73 934.95 582.22 917.19 C 579.97 913.72 576.73 906.70 575.03 901.58 C 568.58 882.24 557.66 871.23 537.12 863.38 C 531.81 861.35 523.24 856.93 518.00 853.50 C 512.26 849.75 504.58 845.85 498.58 843.64 C 492.85 841.53 484.82 837.50 479.55 834.08 C 473.69 830.29 466.82 826.92 460.29 824.65 C 447.10 820.06 443.93 817.96 430.08 804.58 C 411.06 786.22 410.38 786.00 374.00 786.00 C 345.17 786.00 342.50 786.41 329.02 792.93 C 314.96 799.73 310.69 798.57 294.02 783.43 C 263.42 755.61 237.53 773.24 260.14 806.50 C 263.46 811.39 266.86 818.11 268.88 823.79 C 270.86 829.35 274.53 836.64 278.03 841.97 C 285.31 853.05 286.69 857.08 288.02 871.21 C 289.54 887.30 290.41 889.83 299.03 903.17 C 304.07 910.96 305.64 916.48 306.94 930.87 C 308.09 943.62 310.08 949.14 316.88 958.33 C 320.79 963.63 322.37 966.64 328.85 981.18 C 332.34 989.01 336.43 992.46 347.01 996.51 C 358.43 1000.87 364.85 1005.89 385.63 1026.71 C 407.49 1048.62 411.48 1051.41 423.10 1052.92 C 432.56 1054.14 466.70 1054.16 475.44 1052.95 Z M 260.97 944.03 C 267.19 937.81 262.53 924.53 251.56 917.20 C 237.35 907.70 229.60 921.67 240.83 936.54 C 247.23 945.01 256.54 948.46 260.97 944.03 Z M 1442.20 934.96 C 1450.45 932.67 1454.38 924.73 1455.57 908.00 C 1456.03 901.46 1457.29 895.20 1459.62 887.90 C 1465.48 869.52 1458.93 862.75 1442.97 870.70 C 1410.50 886.88 1409.82 943.96 1442.20 934.96 Z M 145.40 840.45 C 154.40 831.45 147.25 811.00 135.11 811.00 C 125.59 811.00 125.16 818.86 133.94 832.31 C 140.06 841.68 142.46 843.39 145.40 840.45 Z M 1174.42 782.57 C 1177.12 781.60 1183.32 778.34 1188.20 775.32 C 1193.08 772.30 1200.69 768.51 1205.10 766.90 C 1226.95 758.93 1237.17 748.30 1247.45 722.84 C 1248.93 719.18 1252.34 712.71 1255.02 708.46 C 1263.65 694.81 1263.26 697.54 1264.10 644.00 C 1264.51 617.88 1265.16 592.18 1265.55 586.90 C 1266.83 569.56 1263.91 564.77 1234.04 535.17 C 1209.34 510.70 1208.17 508.62 1206.55 486.20 C 1205.75 475.26 1203.94 470.26 1196.96 459.72 C 1193.76 454.89 1190.39 448.82 1189.47 446.22 C 1181.07 422.52 1164.54 405.92 1150.66 407.26 C 1141.10 408.18 1139.97 412.74 1145.75 427.15 C 1156.28 453.42 1150.35 471.95 1128.71 480.45 C 1116.99 485.04 1112.66 488.24 1096.87 503.95 C 1077.35 523.35 1075.01 527.68 1073.09 548.00 C 1071.85 561.17 1070.99 564.06 1065.97 572.06 C 1056.03 587.90 1055.72 589.00 1054.87 611.94 C 1053.99 635.99 1053.16 639.50 1045.95 649.98 C 1035.16 665.63 1034.70 667.93 1035.21 703.04 C 1035.79 742.81 1043.87 755.67 1075.47 767.10 C 1080.14 768.79 1086.78 772.01 1090.23 774.24 C 1105.55 784.18 1109.50 784.95 1143.50 784.60 C 1165.36 784.38 1170.28 784.06 1174.42 782.57 Z M 582.10 762.84 C 583.97 762.20 589.43 759.09 594.24 755.92 C 599.05 752.75 605.57 749.21 608.74 748.06 C 611.91 746.90 616.36 745.28 618.64 744.44 C 625.87 741.78 631.64 737.18 647.88 721.14 C 667.55 701.71 668.37 700.21 670.51 679.91 C 671.83 667.43 672.49 664.61 676.00 656.37 C 681.16 644.31 681.27 639.72 676.65 629.16 C 674.81 624.95 672.27 618.35 671.01 614.50 C 668.08 605.52 665.93 601.30 659.52 591.94 C 656.56 587.62 652.94 580.54 651.14 575.56 C 646.22 561.97 643.96 558.95 621.95 536.50 C 599.91 514.02 597.84 511.25 592.97 497.77 C 591.24 492.97 587.99 486.22 585.76 482.77 C 578.30 471.28 576.12 465.46 574.99 453.98 C 572.87 432.47 569.99 427.64 556.49 423.00 C 553.29 421.90 546.58 419.08 541.59 416.75 C 529.56 411.13 524.73 411.03 513.50 416.20 C 493.18 425.55 472.16 423.79 464.27 412.08 C 460.60 406.63 459.77 401.64 459.08 381.00 C 458.23 355.53 455.20 348.17 442.61 340.95 C 425.62 331.20 422.15 340.92 422.08 398.50 C 422.04 439.21 423.23 447.20 431.03 458.54 C 441.83 474.25 441.75 482.06 430.60 500.00 C 422.75 512.63 422.85 511.89 422.02 562.00 C 421.13 616.15 421.17 616.44 431.00 631.00 C 438.27 641.76 441.00 649.64 441.00 659.87 C 441.00 677.97 443.31 681.61 474.85 713.11 C 506.53 744.75 505.69 744.21 526.36 746.48 C 541.77 748.17 545.84 749.56 556.12 756.61 C 566.49 763.72 574.14 765.56 582.10 762.84 Z M 842.00 630.94 C 860.29 628.00 892.06 597.36 900.08 574.92 C 901.87 569.91 904.77 563.50 906.52 560.66 C 919.77 539.16 919.00 543.03 919.00 498.00 C 919.00 458.46 918.63 455.03 913.43 446.58 C 911.55 443.51 908.50 438.56 906.67 435.59 C 904.84 432.61 901.87 426.09 900.08 421.08 C 895.53 408.34 892.46 404.64 857.41 369.60 C 821.68 333.88 818.63 331.37 805.46 326.99 C 791.55 322.35 789.47 320.63 749.22 280.34 C 688.81 219.86 686.03 217.77 677.55 226.25 C 666.25 237.55 671.47 257.64 691.16 278.67 C 714.86 303.98 713.94 317.09 687.74 327.38 C 661.02 337.87 652.50 351.32 652.50 383.00 C 652.50 409.52 653.24 411.66 667.80 427.34 C 679.22 439.63 682.52 445.85 681.60 453.27 C 679.39 470.94 679.52 473.19 683.32 481.61 C 685.28 485.95 688.31 493.55 690.05 498.50 C 692.04 504.15 695.55 511.03 699.50 517.00 C 708.47 530.58 709.04 532.76 709.90 557.16 C 710.82 582.98 711.41 584.47 727.86 602.51 C 746.57 623.04 755.41 629.27 768.21 630.93 C 777.56 632.14 834.46 632.15 842.00 630.94 Z M 1302.88 580.06 C 1315.16 573.80 1321.10 556.44 1313.09 550.28 C 1305.79 544.68 1286.92 561.30 1287.03 573.22 C 1287.11 580.91 1294.75 584.21 1302.88 580.06 Z M 871.60 143.60 C 879.71 135.49 872.07 124.32 862.64 130.50 C 856.77 134.35 854.88 141.87 858.95 145.16 C 862.66 148.17 867.65 147.55 871.60 143.60 Z" fill="#000" fill-rule="evenodd" clip-path="url(#rim)"/></svg>
