<svg xmlns="http://www.w3.org/2000/svg" viewBox="0 0 800 800" width="200" height="200"><circle cx="399.25" cy="400.29" r="361.68" fill="#f0ece3"/><path d="M 337.45 760.58 C 336.03 759.55 335.60 758.11 335.74 754.85 C 336.06 747.58 336.28 747.67 316.60 747.39 C 306.94 747.25 298.58 746.86 298.02 746.51 C 297.46 746.17 297.00 744.87 297.00 743.63 C 297.00 742.39 296.39 740.55 295.64 739.52 C 294.43 737.87 292.99 737.69 282.77 737.89 C 269.95 738.15 268.00 737.37 268.00 731.95 C 268.00 728.31 267.08 728.07 252.00 727.75 L 240.50 727.50 L 240.16 724.50 C 239.62 719.68 238.42 719.00 230.45 719.00 C 222.18 719.00 220.00 717.73 220.00 712.90 C 220.00 711.27 219.44 709.79 218.75 709.61 C 212.02 707.82 211.50 707.44 211.00 703.98 L 210.50 700.50 L 202.55 700.20 C 193.68 699.87 192.00 699.04 192.00 694.94 C 192.00 691.80 191.09 690.97 186.00 689.47 C 182.88 688.55 182.50 688.06 182.50 684.99 C 182.50 682.03 182.92 681.42 185.50 680.66 C 190.66 679.13 191.49 678.39 192.00 674.90 C 192.44 671.91 192.92 671.44 195.98 671.00 C 199.44 670.50 199.80 670.01 201.61 663.23 C 201.80 662.53 202.53 661.80 203.23 661.61 C 210.01 659.80 210.50 659.44 211.00 655.99 C 211.36 653.50 212.07 652.44 213.50 652.22 C 219.31 651.35 220.00 650.95 220.00 648.42 C 220.00 644.66 221.77 642.00 224.29 641.98 C 227.64 641.96 229.13 640.60 229.89 636.89 C 230.42 634.29 231.25 633.32 233.54 632.64 C 238.64 631.13 239.49 630.39 239.81 627.15 C 240.06 624.67 240.69 623.88 242.81 623.42 C 247.58 622.38 247.93 622.13 248.55 619.29 C 249.57 614.67 249.90 613.97 251.23 613.61 C 258.01 611.80 258.50 611.44 259.00 607.98 C 259.43 604.99 259.93 604.45 262.50 604.16 C 266.49 603.71 268.00 602.31 268.00 599.08 C 268.00 595.88 269.64 594.01 272.45 593.98 C 275.64 593.96 277.14 592.55 277.89 588.89 C 278.42 586.29 279.25 585.32 281.54 584.64 C 286.64 583.13 287.49 582.39 287.81 579.15 C 288.06 576.67 288.69 575.88 290.81 575.42 C 295.56 574.38 295.80 574.19 296.52 570.82 C 297.48 566.33 298.74 565.00 302.00 565.00 C 305.31 565.00 306.71 563.51 307.16 559.50 C 307.44 557.00 308.00 556.44 310.50 556.16 C 314.49 555.71 316.00 554.31 316.00 551.08 C 316.00 547.83 317.65 546.00 320.58 546.00 C 323.15 546.00 324.86 544.18 325.89 540.33 C 326.46 538.20 327.54 537.27 330.38 536.48 C 334.48 535.32 335.96 533.68 335.98 530.25 C 335.99 529.01 336.11 527.91 336.25 527.81 C 336.39 527.70 344.58 527.37 354.46 527.06 L 372.43 526.50 L 373.33 522.68 C 373.94 520.10 375.04 518.48 376.69 517.73 C 380.05 516.20 382.22 517.73 383.59 522.61 L 384.68 526.50 L 397.03 526.78 C 404.03 526.94 409.94 527.54 410.69 528.15 C 411.41 528.75 412.00 530.55 412.00 532.15 C 412.00 535.10 412.31 535.35 417.29 536.45 C 420.13 537.07 420.38 537.41 421.43 542.21 C 421.89 544.34 422.88 545.16 425.97 545.99 C 430.34 547.17 431.03 547.91 431.95 552.41 C 432.47 555.00 433.14 555.58 436.00 556.00 C 438.86 556.42 439.53 557.00 440.05 559.59 C 440.95 563.99 441.79 565.00 444.56 565.00 C 445.90 565.00 447.92 565.92 449.04 567.04 C 450.83 568.83 451.00 569.85 450.42 575.04 C 449.64 581.85 450.72 584.00 454.92 584.00 C 459.71 584.00 460.00 585.13 460.00 603.50 C 460.00 621.55 459.65 623.00 455.37 623.00 C 451.26 623.00 449.70 625.75 450.40 631.73 C 451.19 638.46 450.04 640.64 444.99 642.00 C 441.86 642.84 440.90 643.65 440.45 645.79 C 439.56 650.04 438.48 651.47 435.90 651.85 C 432.41 652.35 431.00 653.87 431.00 657.10 C 431.00 659.41 430.47 660.08 428.25 660.57 C 426.74 660.91 424.74 661.39 423.82 661.64 C 422.90 661.89 421.83 663.53 421.45 665.30 C 420.22 671.07 420.52 671.00 397.50 671.00 C 374.35 671.00 374.85 671.13 373.28 665.00 C 372.55 662.13 371.86 661.44 369.44 661.16 C 365.48 660.71 364.17 659.44 363.81 655.71 C 363.55 653.04 363.00 652.47 360.16 651.89 C 358.32 651.52 356.40 650.80 355.89 650.29 C 355.36 649.76 355.08 639.77 355.23 626.93 L 355.50 604.50 L 363.96 604.50 L 372.42 604.50 L 373.11 607.88 C 373.90 611.74 375.36 612.96 379.19 612.98 C 380.67 612.99 382.21 613.52 382.60 614.16 C 383.00 614.80 383.36 620.89 383.41 627.70 C 383.48 637.54 383.81 640.27 385.00 641.02 C 387.26 642.45 409.34 642.26 410.80 640.80 C 411.46 640.14 412.00 638.43 412.00 637.00 C 412.00 633.66 413.70 632.00 417.14 632.00 C 420.83 632.00 421.33 630.86 421.10 622.98 C 420.88 615.54 422.26 613.00 426.50 613.00 C 430.50 613.00 431.64 610.85 431.48 603.67 C 431.32 596.55 430.02 594.00 426.53 594.00 C 422.58 594.00 420.86 590.89 421.11 584.16 C 421.36 577.19 420.11 575.00 415.90 575.00 C 413.03 575.00 412.68 574.46 411.79 568.61 C 411.47 566.50 409.84 565.40 405.75 564.54 C 403.55 564.08 403.00 563.41 403.00 561.18 C 403.00 559.65 402.46 557.86 401.80 557.20 C 400.04 555.44 346.07 555.49 345.61 557.25 C 343.83 563.94 343.43 564.50 340.06 565.00 C 336.99 565.45 336.56 565.93 335.58 569.97 C 334.62 573.95 334.13 574.51 331.05 575.13 C 326.18 576.12 325.05 578.12 325.72 584.60 C 326.35 590.67 324.52 594.00 320.55 594.00 C 316.10 594.00 316.00 594.76 316.00 627.58 C 316.00 661.24 315.88 660.53 321.47 661.16 C 323.89 661.44 324.64 662.15 325.47 665.00 C 326.97 670.11 327.79 671.00 331.02 671.00 C 334.98 671.00 336.40 673.91 335.63 680.46 C 334.69 688.48 336.26 690.00 345.52 690.00 C 353.39 690.00 355.00 691.00 355.00 695.88 C 355.00 698.21 356.16 699.08 360.41 699.95 C 362.91 700.45 363.56 701.13 363.84 703.54 C 364.48 709.11 363.80 709.00 397.04 709.00 C 413.98 709.00 428.55 708.73 429.42 708.39 C 430.32 708.05 431.00 706.63 431.00 705.09 C 431.00 701.08 432.76 700.01 439.45 699.93 C 447.59 699.84 449.16 699.05 450.45 694.46 C 451.35 691.28 452.10 690.46 454.61 689.95 C 459.09 689.03 460.00 688.20 460.00 685.06 C 460.00 681.69 461.47 680.29 465.50 679.84 C 468.00 679.56 468.56 679.00 468.84 676.50 C 469.29 672.51 470.69 671.00 473.92 671.00 C 478.08 671.00 479.00 669.28 479.00 661.50 C 479.00 654.03 479.94 652.01 483.45 651.98 C 487.74 651.95 487.94 651.15 488.08 633.46 C 488.15 624.13 488.63 615.71 489.14 614.75 C 489.70 613.70 491.23 613.00 492.98 613.00 C 497.18 613.00 498.62 610.32 498.32 603.05 C 498.18 599.68 497.81 596.51 497.49 595.99 C 497.18 595.48 495.19 594.59 493.07 594.02 C 490.42 593.31 489.04 592.29 488.63 590.74 C 487.60 586.92 487.94 559.99 489.04 557.93 C 489.60 556.87 491.08 556.00 492.31 556.00 C 495.12 556.00 499.00 553.36 499.00 551.44 C 499.00 550.65 498.10 549.10 497.00 548.00 C 495.38 546.38 493.67 546.00 488.06 546.00 C 480.67 546.00 480.09 545.65 479.05 540.60 C 478.58 538.30 477.67 537.30 475.46 536.64 C 470.55 535.19 469.51 534.41 469.18 531.90 C 468.79 528.99 466.42 527.00 463.33 527.00 C 461.64 527.00 460.88 526.28 460.45 524.25 C 459.22 518.48 458.20 517.14 454.82 516.82 C 451.55 516.50 451.19 516.00 449.39 509.25 C 449.16 508.38 446.62 508.00 441.07 508.00 C 431.43 508.00 430.45 506.99 431.28 497.89 C 432.15 488.30 432.76 488.55 407.35 488.18 C 394.01 487.99 385.05 487.45 384.27 486.81 C 381.27 484.32 383.43 480.52 388.61 479.13 C 390.69 478.57 391.61 477.47 392.43 474.56 C 393.56 470.53 394.73 469.49 399.23 468.54 C 401.18 468.13 402.14 467.18 402.57 465.23 C 403.64 460.32 403.90 460.00 406.85 460.00 C 410.30 460.00 411.70 458.56 412.16 454.53 C 412.45 452.04 413.09 451.43 416.18 450.70 C 419.33 449.96 420.05 449.25 421.18 445.75 C 422.32 442.23 423.05 441.50 426.46 440.56 C 429.81 439.63 430.53 438.94 431.10 436.18 C 431.89 432.30 431.61 432.58 435.96 431.39 C 438.79 430.62 439.55 429.84 440.11 427.13 C 440.96 422.97 441.97 421.96 446.12 421.11 C 448.79 420.56 449.55 419.84 450.06 417.38 C 450.97 412.93 451.80 412.00 454.86 412.00 C 458.36 412.00 460.00 410.34 460.00 406.77 C 460.00 405.21 460.56 403.79 461.25 403.61 C 467.93 401.83 468.51 401.42 469.00 398.08 C 469.53 394.54 470.70 393.50 475.29 392.53 C 478.13 391.93 478.37 391.60 479.44 386.75 C 479.85 384.84 480.66 384.00 482.08 384.00 C 485.51 384.00 488.00 382.09 488.00 379.46 C 488.00 374.80 491.14 373.02 498.92 373.25 C 502.75 373.36 506.20 373.13 506.59 372.74 C 506.99 372.34 507.59 370.33 507.92 368.26 L 508.53 364.50 L 530.89 364.23 C 555.03 363.94 556.00 364.13 556.00 369.09 C 556.00 372.77 557.86 373.62 566.47 373.88 C 573.61 374.09 574.94 374.81 575.00 378.50 C 575.06 382.54 576.56 383.44 582.82 383.19 C 591.04 382.87 593.79 384.07 594.18 388.17 C 594.46 391.00 595.01 391.59 598.21 392.48 C 600.25 393.05 602.36 393.96 602.91 394.51 C 603.46 395.06 604.04 399.11 604.20 403.50 L 604.50 411.50 L 607.50 411.84 C 609.15 412.02 611.06 412.64 611.75 413.21 C 613.19 414.40 613.47 427.70 612.10 429.87 C 611.51 430.80 608.81 431.30 603.61 431.42 C 599.42 431.52 595.51 432.09 594.92 432.68 C 594.33 433.27 593.99 435.04 594.17 436.62 C 594.45 439.08 595.04 439.56 598.35 440.10 C 602.65 440.79 603.96 442.21 603.98 446.21 C 604.00 449.07 606.35 451.00 609.83 451.00 C 612.62 451.00 613.00 452.75 613.00 465.46 C 613.00 477.53 612.75 478.19 607.71 479.39 C 604.88 480.07 604.62 480.43 603.60 485.12 C 603.13 487.25 602.29 487.86 599.12 488.36 C 594.46 489.11 594.00 490.06 594.00 499.05 C 594.00 507.31 593.21 508.00 583.77 508.00 C 576.74 508.00 575.00 509.01 575.00 513.09 C 575.00 514.63 574.32 516.05 573.42 516.39 C 572.55 516.73 564.28 517.00 555.04 517.00 C 536.88 517.00 536.45 516.88 535.84 511.50 C 535.55 508.93 535.01 508.43 532.02 508.00 C 528.57 507.50 528.13 506.90 526.42 500.31 C 526.25 499.65 524.52 498.81 522.59 498.45 C 518.41 497.67 517.29 496.51 516.84 492.52 C 516.51 489.60 515.83 489.14 509.25 487.39 C 508.31 487.15 508.00 482.71 508.00 469.51 L 508.00 451.95 L 510.75 450.98 C 515.42 449.32 516.49 448.39 516.81 445.72 C 517.19 442.58 518.47 441.45 522.97 440.28 C 525.83 439.55 526.56 438.80 527.12 436.06 C 527.49 434.24 528.41 432.36 529.15 431.89 C 530.99 430.72 540.28 430.78 543.43 431.98 C 546.00 432.95 546.00 432.97 546.00 445.28 C 546.00 458.53 545.50 460.00 541.00 460.00 C 537.02 460.00 536.00 461.78 536.00 468.77 C 536.00 476.04 537.19 479.00 540.10 479.00 C 543.37 479.00 546.00 480.90 546.02 483.29 C 546.05 487.60 547.16 488.10 556.09 487.79 L 564.50 487.50 L 565.00 484.03 C 565.44 480.99 565.99 480.42 569.44 479.46 C 573.57 478.30 574.51 477.25 575.46 472.77 C 575.87 470.82 576.82 469.86 578.77 469.43 C 580.27 469.10 582.06 468.66 582.75 468.45 C 583.70 468.15 584.00 462.72 584.00 445.73 C 584.00 422.29 583.77 421.00 579.50 421.00 C 576.65 421.00 575.00 419.14 575.00 415.91 C 575.00 413.11 573.47 412.00 569.62 412.00 C 566.80 412.00 565.00 410.21 565.00 407.42 C 565.00 404.08 562.81 402.97 556.01 402.87 C 549.34 402.78 546.00 400.86 546.00 397.12 C 546.00 393.39 543.52 392.68 531.24 392.90 C 524.79 393.02 518.99 393.59 518.28 394.18 C 517.58 394.77 517.00 396.28 517.00 397.55 C 517.00 401.62 514.50 403.00 507.13 403.00 C 499.73 403.00 498.00 403.96 498.00 408.09 C 498.00 410.92 496.48 412.00 492.48 412.00 C 489.17 412.00 488.57 413.40 488.00 422.46 L 487.50 430.43 L 484.12 431.11 C 479.63 432.03 479.00 433.31 479.19 441.07 C 479.27 444.68 479.05 448.11 478.69 448.69 C 478.33 449.27 476.61 450.03 474.87 450.38 C 469.08 451.53 469.00 451.79 469.00 469.50 C 469.00 487.21 468.99 487.17 475.00 488.72 L 478.50 489.62 L 478.80 497.51 C 479.13 506.32 479.97 508.00 484.06 508.00 C 487.83 508.00 488.48 509.38 488.15 516.70 C 487.84 523.68 489.11 527.00 492.10 527.00 C 495.40 527.00 498.00 528.91 498.00 531.34 C 498.00 534.97 499.93 536.00 506.77 536.00 C 514.68 536.00 517.00 537.13 517.00 541.00 C 517.00 544.87 519.32 546.00 527.23 546.00 C 534.05 546.00 536.00 547.03 536.00 550.63 C 536.00 555.50 537.86 556.00 555.87 556.00 C 573.38 556.00 574.98 555.63 575.02 551.55 C 575.05 546.98 576.25 546.53 589.69 546.00 L 602.46 545.50 L 603.35 542.50 C 604.87 537.35 605.61 536.51 609.10 536.00 C 612.09 535.56 612.56 535.08 613.00 532.02 C 613.40 529.21 614.07 528.37 616.50 527.65 C 621.52 526.17 622.43 525.43 623.07 522.32 C 624.17 516.95 623.99 517.00 641.86 517.00 C 659.49 517.00 661.00 516.64 661.00 512.42 C 661.00 509.67 659.32 508.27 655.50 507.84 L 652.50 507.50 L 652.24 461.09 C 652.06 428.85 651.64 414.27 650.87 413.34 C 650.26 412.60 648.55 412.00 647.08 412.00 C 642.90 412.00 642.00 410.29 642.00 402.36 C 642.00 394.55 641.77 394.17 636.00 392.47 L 632.50 391.44 L 632.00 382.97 C 631.51 374.62 631.46 374.49 628.50 373.50 C 624.01 372.00 623.00 371.11 623.00 368.64 C 623.00 365.68 621.19 364.00 618.00 364.00 C 614.83 364.00 613.00 362.33 613.00 359.42 C 613.00 356.83 611.38 355.32 608.10 354.85 C 605.59 354.48 604.81 353.44 603.35 348.50 C 602.47 345.54 602.34 345.49 594.28 345.00 C 589.77 344.73 585.66 344.05 585.12 343.50 C 584.59 342.95 584.01 341.15 583.83 339.50 L 583.50 336.50 L 571.00 336.00 C 564.12 335.73 557.94 335.14 557.25 334.69 C 556.56 334.25 556.00 332.61 556.00 331.06 C 556.00 329.51 555.42 327.76 554.71 327.17 C 553.89 326.49 545.44 326.04 531.58 325.94 C 508.33 325.78 508.05 325.83 508.02 330.68 C 507.98 335.34 505.70 336.12 492.78 335.90 C 480.04 335.68 479.05 336.02 479.02 340.69 C 478.99 343.82 477.50 344.44 468.51 345.00 L 460.53 345.50 L 459.96 349.03 C 459.16 353.98 458.30 355.00 454.98 355.00 C 451.89 355.00 450.00 357.25 450.00 360.92 C 450.00 362.33 449.15 363.15 447.25 363.57 C 445.74 363.91 443.75 364.39 442.84 364.63 C 441.93 364.88 440.80 366.69 440.33 368.66 C 439.65 371.55 438.82 372.46 436.02 373.37 C 433.19 374.29 432.35 375.23 431.45 378.46 C 430.53 381.76 429.78 382.56 426.92 383.30 C 422.43 384.46 421.18 385.59 420.81 388.82 C 420.56 390.99 419.79 391.68 416.76 392.42 C 414.71 392.93 412.84 394.06 412.61 394.92 C 412.37 395.79 411.91 397.73 411.58 399.23 C 411.15 401.17 410.17 402.14 408.23 402.57 C 403.39 403.63 403.00 403.90 402.98 406.22 C 402.96 409.77 401.53 411.23 397.38 411.90 C 393.95 412.46 393.44 412.94 392.44 416.51 C 391.55 419.70 390.81 420.56 388.74 420.81 C 385.57 421.19 384.45 422.46 383.28 426.98 C 382.49 430.04 381.88 430.56 378.20 431.29 C 374.76 431.97 373.90 432.60 373.42 434.81 C 372.37 439.63 372.09 440.00 369.60 440.00 C 366.56 440.00 364.01 442.42 363.98 445.32 C 363.96 448.43 362.97 449.49 359.04 450.59 C 356.22 451.37 355.44 452.17 354.90 454.83 C 354.06 458.96 353.81 459.18 349.30 459.92 C 346.14 460.43 345.48 460.98 344.95 463.60 C 344.06 467.95 343.21 469.00 340.56 469.00 C 337.73 469.00 336.45 470.48 335.52 474.82 C 335.13 476.64 334.29 478.27 333.66 478.43 C 327.53 480.00 326.49 480.68 326.01 483.42 C 325.47 486.47 324.15 487.53 319.77 488.46 C 317.82 488.86 316.85 489.82 316.42 491.77 C 315.17 497.38 314.82 498.00 312.87 498.00 C 309.53 498.00 307.00 499.92 307.00 502.46 C 307.00 505.32 304.58 508.00 302.01 508.00 C 298.49 508.00 297.00 509.19 297.00 511.98 C 297.00 515.14 295.56 516.66 292.10 517.15 C 289.51 517.53 288.45 518.95 287.53 523.29 C 287.21 524.83 286.39 526.23 285.72 526.41 C 279.42 528.06 278.49 528.67 278.01 531.42 C 277.48 534.40 276.53 535.16 271.51 536.65 C 269.69 537.19 268.40 538.32 268.22 539.52 C 267.39 545.00 266.88 546.00 264.92 546.00 C 261.25 546.00 259.00 547.89 259.00 550.98 C 259.00 554.31 257.98 555.16 253.03 555.95 C 250.01 556.44 249.45 556.96 249.16 559.51 C 248.70 563.54 247.31 565.00 243.90 565.00 C 241.59 565.00 240.93 565.53 240.45 567.75 C 239.29 573.17 238.10 575.00 235.71 575.00 C 232.59 575.00 230.21 576.98 229.82 579.90 C 229.47 582.48 228.05 583.55 223.77 584.46 C 221.82 584.86 220.85 585.82 220.42 587.77 C 219.10 593.73 218.90 594.00 215.97 594.00 C 212.90 594.00 211.00 596.25 211.00 599.88 C 211.00 602.30 209.68 603.21 205.03 603.95 C 202.01 604.44 201.45 604.96 201.16 607.51 C 200.70 611.54 199.31 613.00 195.90 613.00 C 193.59 613.00 192.93 613.53 192.45 615.75 C 191.29 621.17 190.10 623.00 187.71 623.00 C 184.37 623.00 182.17 625.04 181.81 628.49 C 181.54 631.10 181.02 631.55 177.65 632.10 C 173.55 632.76 172.04 634.22 172.02 637.55 C 172.00 640.24 170.15 642.00 167.34 642.00 C 164.92 642.00 163.00 644.60 163.00 647.88 C 163.00 650.30 161.68 651.20 157.03 651.96 C 153.91 652.46 153.44 652.93 153.00 655.99 C 152.12 662.09 144.03 662.66 143.98 656.63 C 143.96 653.42 142.87 652.36 138.85 651.62 C 134.45 650.81 134.00 649.82 134.00 640.95 C 134.00 633.50 135.06 632.00 140.33 632.00 C 142.93 632.00 144.00 630.38 144.00 626.44 C 144.00 624.63 144.67 623.90 146.75 623.46 C 151.20 622.52 152.42 621.50 153.11 618.10 C 153.92 614.14 154.14 613.92 158.10 613.11 C 161.50 612.42 162.52 611.20 163.46 606.75 C 163.90 604.67 164.63 604.00 166.44 604.00 C 170.38 604.00 172.00 602.93 172.00 600.33 C 172.00 596.74 173.78 594.00 176.10 594.00 C 179.47 594.00 182.00 592.09 182.00 589.54 C 182.00 586.33 184.51 584.00 187.96 584.00 C 190.94 584.00 192.00 582.54 192.00 578.44 C 192.00 576.63 192.68 575.89 194.75 575.44 C 199.59 574.37 199.93 574.13 200.55 571.29 C 201.63 566.40 201.86 566.07 204.71 565.47 C 209.30 564.50 210.47 563.46 211.00 559.91 C 211.36 557.50 212.08 556.44 213.50 556.22 C 219.31 555.35 220.00 554.95 220.00 552.42 C 220.00 548.27 221.76 546.00 224.98 546.00 C 228.21 546.00 229.03 545.10 229.94 540.59 C 230.47 537.93 231.15 537.37 234.81 536.55 C 238.21 535.79 239.17 535.09 239.59 533.05 C 240.46 528.86 241.56 527.53 244.58 526.99 C 247.33 526.51 247.94 525.58 249.59 519.28 C 249.77 518.61 251.17 517.79 252.71 517.47 C 257.30 516.50 258.47 515.46 259.00 511.90 C 259.43 509.00 259.94 508.45 262.50 508.16 C 266.37 507.73 268.00 506.32 268.00 503.45 C 268.00 500.47 270.50 498.00 273.51 498.00 C 276.21 498.00 277.06 496.97 277.95 492.59 C 278.47 490.00 279.21 489.35 282.54 488.54 C 287.11 487.44 287.96 486.54 287.98 482.77 C 288.00 480.61 288.57 479.91 290.75 479.44 C 292.26 479.10 294.01 478.68 294.63 478.49 C 295.26 478.31 296.17 476.44 296.67 474.34 C 297.38 471.32 298.19 470.34 300.53 469.64 C 305.51 468.17 306.49 467.40 306.81 464.72 C 307.19 461.52 308.65 460.27 312.49 459.84 C 315.10 459.54 315.56 459.01 316.10 455.65 C 316.77 451.50 318.22 450.04 321.69 450.02 C 324.21 450.00 325.07 448.91 325.95 444.61 C 326.44 442.20 327.31 441.33 330.04 440.52 C 335.12 439.02 336.00 438.20 336.00 434.94 C 336.00 432.56 336.43 432.00 338.25 431.98 C 341.69 431.96 343.33 430.48 344.49 426.32 C 345.31 423.40 346.23 422.33 348.53 421.65 C 353.64 420.13 354.49 419.39 354.81 416.15 C 355.13 413.01 355.66 412.66 361.48 411.78 C 362.92 411.56 363.64 410.44 364.08 407.73 C 364.81 403.22 364.65 403.40 368.98 402.28 C 371.91 401.53 372.65 400.75 373.57 397.45 C 374.56 393.92 375.08 393.45 378.84 392.71 C 382.48 391.99 383.00 391.55 383.02 389.19 C 383.04 385.55 383.90 384.55 387.96 383.41 C 390.71 382.65 391.56 381.81 392.06 379.39 C 392.96 374.97 393.58 374.30 397.48 373.57 C 401.09 372.89 403.00 370.65 403.00 367.08 C 403.00 365.66 403.84 364.85 405.75 364.44 C 411.46 363.18 411.18 363.46 412.44 357.75 C 412.85 355.84 413.66 355.00 415.08 355.00 C 418.64 355.00 420.75 353.17 421.44 349.47 C 422.12 345.84 422.36 345.64 427.29 344.55 C 430.13 343.93 430.37 343.59 431.44 338.75 C 431.85 336.84 432.66 336.00 434.08 336.00 C 437.29 336.00 440.00 334.12 440.00 331.90 C 440.00 328.49 441.91 326.00 444.54 326.00 C 447.71 326.00 451.00 322.70 451.00 319.52 C 451.00 317.06 451.73 316.64 457.50 315.78 C 459.01 315.55 459.62 314.50 460.00 311.49 C 460.46 307.85 460.80 307.46 463.90 307.00 C 467.39 306.49 468.13 305.65 469.65 300.53 C 470.38 298.07 471.25 297.42 474.70 296.73 C 478.43 296.00 478.91 295.57 479.19 292.80 C 479.52 289.54 480.73 288.49 485.25 287.54 C 487.38 287.09 488.00 286.39 488.00 284.42 C 488.00 280.63 489.78 278.00 492.34 278.00 C 497.13 278.00 498.49 275.78 498.16 268.53 C 497.82 260.95 498.84 259.00 503.14 259.00 C 506.15 259.00 507.21 257.56 508.45 251.75 C 508.93 249.53 509.59 249.00 511.90 249.00 C 513.47 249.00 515.25 248.40 515.85 247.68 C 516.53 246.86 517.06 239.85 517.23 229.45 L 517.50 212.55 L 520.50 211.66 C 526.70 209.82 526.50 210.32 526.50 196.50 C 526.50 182.68 526.70 183.18 520.50 181.34 L 517.50 180.46 L 517.22 168.04 C 516.92 155.10 516.28 153.00 512.58 153.00 C 508.99 153.00 508.00 151.03 508.00 143.87 C 508.00 136.46 506.62 134.00 502.46 134.00 C 499.91 134.00 498.00 131.47 498.00 128.10 C 498.00 125.88 495.29 124.00 492.10 124.00 C 489.88 124.00 488.00 121.29 488.00 118.08 C 488.00 116.66 487.16 115.85 485.25 115.44 C 483.74 115.10 481.99 114.68 481.37 114.49 C 480.74 114.31 479.83 112.44 479.33 110.34 C 478.62 107.32 477.81 106.34 475.47 105.64 C 470.42 104.15 469.51 103.40 469.16 100.40 C 468.71 96.57 467.63 96.03 460.33 96.02 C 452.58 96.00 451.00 95.38 451.00 92.39 C 451.00 91.08 450.10 89.10 449.00 88.00 C 447.16 86.16 445.67 86.00 430.11 86.00 C 411.86 86.00 412.00 86.04 412.00 80.45 C 412.00 77.34 409.32 76.00 403.13 76.00 C 395.69 76.00 393.23 77.26 392.44 81.47 C 392.07 83.42 391.32 85.30 390.77 85.64 C 390.21 85.99 382.86 86.18 374.42 86.08 C 357.83 85.87 355.00 86.51 355.00 90.46 C 355.00 94.74 352.58 96.00 344.40 96.00 C 339.30 96.00 336.82 96.40 336.55 97.25 C 336.34 97.94 335.89 99.76 335.55 101.29 C 335.22 102.83 334.39 104.23 333.72 104.41 C 327.30 106.09 326.65 106.58 325.56 110.50 C 324.60 113.97 324.03 114.54 321.30 114.81 C 317.55 115.17 316.29 116.48 315.84 120.46 C 315.56 122.87 314.91 123.55 312.41 124.05 C 307.27 125.10 307.00 125.60 307.00 134.00 C 307.00 142.58 306.73 143.03 301.03 143.96 L 297.50 144.53 L 297.23 171.39 C 296.95 199.60 297.15 200.98 301.37 201.02 C 305.66 201.05 306.48 202.53 307.00 211.21 L 307.50 219.50 L 310.50 219.84 C 314.49 220.29 316.00 221.69 316.00 224.92 C 316.00 228.18 317.66 230.00 320.63 230.00 C 323.54 230.00 326.00 232.53 326.00 235.54 C 326.00 238.09 328.53 240.00 331.90 240.00 C 334.10 240.00 336.00 242.70 336.00 245.83 C 336.00 248.39 337.83 249.00 345.51 249.00 C 352.44 249.00 355.00 250.45 355.00 254.37 C 355.00 258.85 355.95 259.00 383.50 259.00 C 411.04 259.00 412.00 258.84 412.00 254.38 C 412.00 249.46 412.76 249.00 420.86 248.98 C 429.50 248.97 431.13 248.31 431.53 244.67 C 431.91 241.18 432.78 240.00 434.98 240.00 C 438.53 240.00 440.00 238.82 440.00 235.96 C 440.00 232.70 442.29 230.00 445.07 230.00 C 446.13 230.00 447.86 229.14 448.91 228.09 C 450.51 226.49 450.74 225.20 450.29 220.28 C 449.70 213.71 451.20 211.00 455.45 211.00 C 459.24 211.00 460.11 208.87 459.79 200.36 L 459.50 192.53 L 455.65 191.90 C 453.53 191.56 451.37 190.66 450.85 189.89 C 450.33 189.13 450.16 185.70 450.48 182.28 C 450.97 176.90 450.77 175.77 449.03 174.03 C 447.91 172.91 445.93 172.00 444.62 172.00 C 440.81 172.00 439.64 169.68 440.37 163.55 C 440.72 160.57 440.56 156.98 440.03 155.57 C 439.10 153.14 438.66 153.00 431.77 152.98 C 427.77 152.98 423.89 152.58 423.15 152.11 C 422.41 151.64 421.49 149.74 421.11 147.88 L 420.42 144.50 L 407.19 144.22 C 397.10 144.01 393.88 144.25 393.62 145.22 C 391.55 152.91 392.14 152.46 383.49 153.00 C 375.78 153.48 375.47 153.60 374.21 156.50 C 371.87 161.85 371.33 162.49 368.90 162.85 C 364.70 163.45 364.00 164.83 364.00 172.42 C 364.00 180.05 364.93 182.00 368.58 182.00 C 371.17 182.00 372.59 183.52 373.53 187.28 C 374.45 190.92 376.70 192.00 383.35 192.00 C 390.29 192.00 392.00 191.33 392.00 188.62 C 392.00 187.42 392.70 185.44 393.56 184.22 C 394.92 182.27 396.01 182.00 402.36 182.00 C 410.26 182.00 412.00 182.90 412.00 187.00 C 412.00 190.37 413.71 192.00 417.22 192.00 C 421.19 192.00 423.12 196.11 420.50 199.00 C 419.51 200.10 417.72 201.00 416.55 201.00 C 413.65 201.00 412.00 202.84 412.00 206.08 C 412.00 209.14 410.54 210.66 407.10 211.15 C 404.69 211.50 404.12 212.19 402.12 217.27 L 401.03 220.04 L 378.26 219.77 L 355.50 219.50 L 355.00 216.02 C 354.60 213.21 353.93 212.37 351.50 211.65 C 346.41 210.15 345.68 209.50 344.55 205.47 C 343.63 202.20 342.93 201.46 340.18 200.90 C 338.37 200.53 336.68 200.01 336.40 199.74 C 335.64 198.97 335.68 155.33 336.44 154.09 C 336.81 153.49 338.41 153.00 340.00 153.00 C 343.21 153.00 344.03 152.10 344.95 147.60 C 345.49 144.97 346.13 144.43 349.39 143.90 C 353.45 143.24 354.96 141.77 354.98 138.45 C 355.01 135.64 356.89 134.00 360.09 134.00 C 362.93 134.00 364.00 132.48 364.00 128.45 C 364.00 125.12 366.74 124.00 374.90 124.00 C 382.34 124.00 384.00 122.94 384.00 118.17 C 384.00 117.10 384.71 115.94 385.58 115.61 C 387.64 114.82 427.36 114.82 429.42 115.61 C 430.29 115.94 431.00 117.10 431.00 118.17 C 431.00 122.76 432.73 124.00 439.29 124.07 C 447.61 124.16 449.16 124.93 450.46 129.58 C 451.38 132.88 452.02 133.55 454.53 133.84 C 458.51 134.29 460.00 135.69 460.00 139.00 C 460.00 142.31 461.49 143.71 465.50 144.16 C 468.00 144.44 468.56 145.00 468.84 147.50 C 469.29 151.49 470.69 153.00 473.92 153.00 C 478.45 153.00 479.00 154.49 479.00 166.77 C 479.00 179.66 479.76 182.00 483.98 182.00 C 485.57 182.00 487.16 182.46 487.51 183.01 C 488.34 184.36 488.36 217.61 487.53 218.95 C 487.17 219.53 485.59 220.00 484.00 220.00 C 482.41 220.00 480.75 220.56 480.31 221.25 C 479.86 221.94 479.27 226.09 479.00 230.48 C 478.51 238.32 478.45 238.48 475.50 239.35 C 470.56 240.81 469.52 241.59 469.15 244.10 C 468.66 247.56 467.14 249.00 463.98 249.00 C 461.10 249.00 460.00 250.49 460.00 254.38 C 460.00 257.15 458.23 259.00 455.55 259.02 C 452.36 259.04 450.86 260.45 450.11 264.11 C 449.64 266.40 448.79 267.58 447.46 267.78 C 441.79 268.64 441.22 269.02 440.59 272.39 C 439.85 276.29 438.53 277.66 435.03 278.15 C 433.11 278.42 432.31 279.39 431.44 282.50 C 430.57 285.61 429.68 286.69 427.41 287.37 C 422.56 288.81 421.51 289.60 421.15 292.10 C 420.65 295.59 419.13 297.00 415.90 297.00 C 413.03 297.00 412.68 297.54 411.79 303.39 C 411.47 305.50 409.84 306.60 405.75 307.46 C 403.83 307.86 403.00 308.66 403.00 310.08 C 403.00 313.46 401.09 316.00 398.55 316.00 C 394.72 316.00 393.00 317.06 393.00 319.42 C 393.00 322.53 390.98 324.91 387.57 325.82 C 385.28 326.44 384.41 327.45 383.55 330.53 C 382.64 333.77 381.84 334.63 378.97 335.47 C 374.01 336.94 373.00 337.80 373.00 340.58 C 373.00 343.79 369.20 345.72 366.13 344.07 C 364.13 343.00 364.00 342.15 364.00 330.59 C 364.00 317.22 363.70 316.43 358.50 315.84 L 355.50 315.50 L 355.00 307.50 C 354.44 298.61 353.81 297.00 350.88 297.00 C 347.62 297.00 345.00 295.09 344.98 292.71 C 344.96 289.46 343.85 288.22 340.60 287.84 C 337.53 287.48 336.48 286.22 335.53 281.71 C 335.21 280.17 334.39 278.77 333.72 278.59 C 327.36 276.92 326.60 276.39 325.72 273.00 C 324.68 268.99 323.56 268.04 319.86 268.02 C 317.07 268.00 316.00 266.44 316.00 262.44 C 316.00 260.63 315.33 259.90 313.25 259.46 C 308.85 258.53 307.58 257.50 306.93 254.32 C 305.92 249.37 305.31 249.00 298.02 249.00 C 289.34 249.00 288.00 248.47 288.00 245.02 C 288.00 243.49 287.38 241.73 286.63 241.11 C 285.65 240.30 274.77 240.05 248.38 240.24 L 211.50 240.50 L 211.17 243.50 C 210.99 245.15 210.41 246.95 209.88 247.50 C 209.34 248.05 205.22 248.72 200.72 249.00 L 192.53 249.50 L 191.96 253.03 C 191.04 258.72 190.57 259.00 182.06 259.00 C 173.54 259.00 172.39 259.62 171.84 264.50 C 171.56 267.00 171.00 267.56 168.50 267.84 C 164.48 268.29 163.17 269.54 162.81 273.30 C 162.55 275.98 161.95 276.60 158.79 277.48 C 156.75 278.05 154.64 278.96 154.09 279.51 C 153.54 280.06 152.96 283.87 152.80 287.98 C 152.47 296.09 152.88 295.57 145.24 297.61 C 144.24 297.87 144.03 305.88 144.24 335.22 L 144.50 372.50 L 147.00 372.84 C 150.35 373.30 153.00 375.81 153.00 378.53 C 153.00 381.30 154.75 382.80 158.93 383.64 C 160.71 383.99 162.32 384.78 162.50 385.39 C 162.68 386.00 163.10 387.74 163.44 389.25 C 163.85 391.16 164.66 392.00 166.08 392.00 C 169.51 392.00 172.00 393.91 172.00 396.54 C 172.00 401.22 175.16 403.00 183.48 403.00 C 191.57 403.00 191.21 402.73 192.22 409.50 C 192.50 411.36 193.49 411.54 206.00 412.00 C 218.51 412.46 219.50 412.64 219.78 414.50 C 220.70 420.62 220.96 421.00 224.32 421.00 C 228.10 421.00 230.00 419.50 230.00 416.50 C 230.00 412.56 231.80 412.00 244.50 412.00 C 257.20 412.00 259.00 411.44 259.00 407.50 C 259.00 404.04 261.02 403.00 267.70 403.00 C 274.47 403.00 278.00 400.98 278.00 397.12 C 278.00 394.70 279.89 393.17 283.86 392.38 C 286.22 391.91 287.17 391.08 287.60 389.12 C 288.63 384.38 288.91 384.00 291.40 384.00 C 296.69 384.00 297.00 382.65 297.00 360.01 C 297.00 348.54 296.73 338.45 296.39 337.58 C 296.05 336.68 294.63 336.00 293.09 336.00 C 288.86 336.00 288.00 334.32 288.00 326.00 C 288.00 321.42 287.52 317.92 286.80 317.20 C 286.08 316.48 282.56 316.00 277.92 316.00 C 269.55 316.00 268.39 315.37 267.84 310.50 L 267.50 307.50 L 245.13 307.23 C 230.02 307.05 222.32 307.32 221.43 308.06 C 220.71 308.66 219.98 310.58 219.81 312.32 C 219.55 315.03 219.05 315.55 216.50 315.84 C 212.48 316.29 211.17 317.54 210.81 321.30 C 210.55 323.98 209.95 324.60 206.79 325.48 C 201.97 326.83 200.77 328.13 201.17 331.59 C 201.45 334.03 202.12 334.56 206.00 335.50 C 209.95 336.45 210.54 336.94 210.81 339.54 C 211.36 344.74 212.52 345.00 235.49 345.00 C 250.58 345.00 256.94 345.34 257.80 346.20 C 258.51 346.91 259.00 350.31 259.00 354.50 C 259.00 362.07 258.06 364.00 254.38 364.00 C 250.49 364.00 249.00 365.10 249.00 367.98 C 249.00 371.98 246.82 373.24 239.65 373.38 C 232.69 373.51 230.00 374.94 230.00 378.50 C 230.00 382.14 227.53 383.32 219.86 383.32 C 212.43 383.32 211.05 382.54 211.02 378.37 C 210.99 374.86 208.25 373.51 201.04 373.43 C 193.18 373.35 192.00 372.79 192.00 369.14 C 192.00 365.70 190.34 364.00 187.00 364.00 C 182.91 364.00 182.00 362.25 182.00 354.42 C 182.00 346.59 181.45 345.65 176.25 344.54 C 172.41 343.71 171.76 341.94 172.19 333.56 C 172.40 329.56 172.97 327.49 174.00 327.02 C 181.93 323.36 181.48 323.97 181.80 316.51 C 182.13 308.90 183.08 307.00 186.55 307.00 C 189.72 307.00 192.00 304.44 192.00 300.90 C 192.00 299.27 192.56 297.79 193.25 297.61 C 199.94 295.83 200.50 295.43 201.00 292.06 C 201.45 288.98 201.93 288.56 206.00 287.58 C 210.05 286.61 210.53 286.18 210.81 283.32 C 210.98 281.58 211.71 279.66 212.43 279.06 C 213.33 278.31 225.02 278.06 250.09 278.24 L 286.45 278.50 L 287.34 281.50 C 288.81 286.45 289.59 287.48 292.10 287.85 C 295.43 288.33 297.00 289.84 297.00 292.56 C 297.00 295.21 298.05 296.06 302.40 296.95 C 304.70 297.42 305.70 298.33 306.36 300.54 C 307.87 305.65 308.61 306.49 312.10 307.00 L 315.50 307.50 L 315.78 315.50 C 316.08 324.08 317.16 326.00 321.66 326.00 C 322.91 326.00 324.40 326.87 324.96 327.93 C 325.61 329.14 326.00 341.08 326.00 359.81 C 326.00 392.40 326.17 391.42 320.18 392.61 C 318.47 392.96 316.86 393.97 316.62 394.87 C 316.38 395.77 315.91 397.73 315.58 399.23 C 315.15 401.17 314.17 402.14 312.23 402.57 C 307.31 403.65 307.00 403.91 307.00 406.99 C 307.00 410.17 305.65 411.19 299.75 412.45 C 297.72 412.88 297.00 413.64 297.00 415.33 C 297.00 417.92 295.23 420.54 293.00 421.25 C 290.42 422.08 288.00 420.10 288.00 417.16 C 288.00 415.64 287.46 413.86 286.80 413.20 C 285.20 411.60 270.80 411.60 269.20 413.20 C 267.96 414.44 267.51 426.56 268.60 429.39 C 268.92 430.25 270.71 431.23 272.56 431.58 C 280.30 433.03 279.79 438.77 271.77 440.46 C 269.82 440.86 268.85 441.82 268.42 443.77 C 268.09 445.27 267.62 447.24 267.37 448.15 C 267.12 449.07 265.46 450.07 263.56 450.42 C 260.17 451.06 259.00 452.52 259.00 456.10 C 259.00 458.06 256.83 459.36 251.75 460.45 C 249.53 460.93 249.00 461.59 249.00 463.90 C 249.00 467.13 247.59 468.65 244.10 469.15 C 241.51 469.53 240.45 470.95 239.53 475.29 C 239.21 476.83 238.39 478.23 237.72 478.41 C 231.08 480.15 230.50 480.57 230.00 483.99 C 229.54 487.13 229.12 487.52 225.25 488.28 C 220.97 489.12 220.68 489.50 219.78 495.46 C 219.58 496.79 218.40 497.64 216.11 498.11 C 212.38 498.87 211.04 500.36 211.02 503.77 C 211.00 506.09 209.11 507.30 203.75 508.45 C 201.53 508.93 201.00 509.59 201.00 511.90 C 201.00 515.13 199.59 516.65 196.10 517.15 C 193.51 517.53 192.45 518.95 191.53 523.29 C 191.21 524.83 190.39 526.23 189.72 526.41 C 183.07 528.15 182.50 528.57 182.00 532.01 C 181.55 535.11 181.11 535.53 177.74 536.08 C 173.09 536.83 172.83 537.09 172.08 541.70 C 171.56 544.93 171.04 545.51 168.19 546.10 C 164.12 546.93 163.93 547.12 163.10 551.19 C 162.58 553.71 161.73 554.69 159.46 555.36 C 154.56 556.81 153.52 557.59 153.15 560.10 C 152.68 563.41 151.16 565.00 148.50 565.00 C 145.70 565.00 144.28 566.65 143.84 570.40 C 143.49 573.40 142.58 574.15 137.50 575.65 C 135.08 576.37 134.44 577.16 134.19 579.76 C 133.94 582.34 133.33 583.11 131.19 583.59 C 125.58 584.83 124.99 585.20 124.41 587.82 C 123.10 593.72 122.90 594.00 119.97 594.00 C 116.90 594.00 115.00 596.25 115.00 599.90 C 115.00 601.02 114.13 602.40 113.07 602.96 C 110.24 604.48 98.48 604.28 97.17 602.70 C 96.58 601.99 95.96 597.84 95.80 593.47 C 95.50 585.62 95.47 585.53 92.50 584.65 C 86.62 582.91 86.50 582.74 86.46 575.24 C 86.41 567.27 85.18 565.00 80.91 565.00 C 77.16 565.00 75.78 562.27 76.50 556.25 C 77.20 550.47 75.48 546.64 71.97 546.17 C 68.13 545.64 67.54 544.46 67.00 536.20 L 66.50 528.50 L 62.53 527.20 C 60.35 526.49 58.22 525.37 57.80 524.70 C 57.37 524.04 57.02 518.23 57.02 511.79 C 57.00 501.24 56.81 499.97 55.07 499.04 C 54.00 498.47 52.25 498.00 51.17 498.00 C 50.10 498.00 48.94 497.29 48.61 496.42 C 48.27 495.55 48.00 485.20 48.00 473.43 L 48.00 452.02 L 44.25 450.25 L 40.50 448.48 L 40.50 397.60 C 40.50 342.03 40.02 346.95 45.75 344.14 C 47.32 343.38 47.56 340.88 48.05 320.39 C 48.35 307.80 48.69 297.39 48.80 297.25 C 48.91 297.11 49.93 297.00 51.07 297.00 C 52.20 297.00 54.00 296.53 55.07 295.96 C 56.81 295.03 57.00 293.77 57.00 283.04 C 57.00 269.87 57.75 268.00 63.01 268.00 C 66.84 268.00 67.48 266.64 67.15 259.30 C 66.83 252.20 68.11 249.01 71.29 248.98 C 75.67 248.95 76.42 247.60 76.17 240.17 C 75.90 232.52 77.21 230.00 81.45 230.00 C 85.14 230.00 86.43 227.48 86.20 220.65 C 85.96 213.35 86.65 212.02 91.11 211.11 C 93.71 210.58 94.68 209.75 95.36 207.46 C 96.83 202.49 97.60 201.51 100.28 201.19 C 104.11 200.73 104.87 199.15 105.20 190.98 C 105.49 183.68 105.55 183.53 108.50 182.65 C 113.56 181.16 114.43 180.43 115.11 177.10 C 115.92 173.13 116.14 172.92 120.17 172.10 C 122.79 171.56 123.56 170.83 124.06 168.38 C 124.97 163.91 125.80 163.00 128.94 163.00 C 132.25 163.00 133.52 161.68 134.46 157.25 C 134.99 154.79 135.81 153.86 137.83 153.44 C 142.29 152.51 143.48 151.44 144.00 147.90 C 144.44 144.94 144.91 144.46 147.68 144.19 C 151.45 143.83 152.71 142.53 153.16 138.52 C 153.42 136.20 154.17 135.34 156.50 134.65 C 161.56 133.16 162.43 132.43 163.11 129.10 C 163.93 125.13 164.13 124.92 168.20 124.10 C 171.02 123.52 171.57 122.92 172.00 119.98 C 172.40 117.21 173.09 116.37 175.50 115.65 C 180.58 114.15 181.43 113.42 182.13 110.03 C 183.02 105.68 184.29 105.03 192.05 105.02 C 199.30 105.00 201.00 104.01 201.00 99.82 C 201.00 97.59 201.55 96.92 203.75 96.45 C 209.27 95.27 211.00 94.11 211.00 91.59 C 211.00 87.35 213.42 86.00 221.04 86.00 C 228.38 86.00 230.00 84.92 230.00 80.04 C 230.00 77.25 233.56 76.00 241.46 76.00 C 248.03 76.00 249.00 75.35 249.00 70.98 C 249.00 68.20 250.71 67.55 259.49 67.00 L 267.47 66.50 L 268.10 62.65 C 268.44 60.53 269.34 58.40 270.11 57.91 C 270.87 57.43 276.70 57.02 283.05 57.02 C 295.53 57.00 297.00 56.46 297.00 51.91 C 297.00 50.37 297.68 48.95 298.58 48.61 C 299.45 48.27 309.79 48.00 321.55 48.00 C 341.66 48.00 342.99 47.89 343.96 46.07 C 344.53 45.00 345.00 43.23 345.00 42.12 C 345.00 41.02 345.39 39.88 345.86 39.59 C 347.17 38.77 457.55 38.61 458.86 39.41 C 459.49 39.80 460.00 41.62 460.00 43.45 C 460.00 45.57 460.58 47.01 461.58 47.39 C 462.45 47.73 470.29 48.00 479.00 48.00 C 487.71 48.00 495.55 48.27 496.42 48.61 C 497.29 48.94 498.00 50.10 498.00 51.17 C 498.00 52.25 498.47 54.00 499.04 55.07 C 499.97 56.81 501.22 57.00 511.60 57.00 C 523.86 57.00 527.00 57.84 527.00 61.10 C 527.00 65.85 528.67 67.00 535.60 67.00 C 542.92 67.00 546.00 68.17 546.00 70.95 C 546.00 75.47 546.89 76.00 554.54 76.00 C 562.53 76.00 565.00 77.29 565.00 81.45 C 565.00 84.96 566.92 85.88 574.94 86.20 C 582.73 86.52 582.92 86.64 584.65 92.50 C 585.53 95.47 585.62 95.50 593.47 95.80 C 597.84 95.96 601.96 96.55 602.64 97.12 C 603.33 97.69 604.02 99.56 604.19 101.29 C 604.45 103.95 605.01 104.53 607.80 105.10 C 611.87 105.92 612.07 106.13 612.89 110.10 C 613.57 113.42 614.44 114.16 619.50 115.65 C 621.93 116.37 622.60 117.21 623.00 120.02 C 623.43 123.01 623.93 123.55 626.50 123.84 C 630.78 124.32 632.00 125.71 632.00 130.12 C 632.00 133.85 632.13 134.00 635.35 134.00 C 639.11 134.00 641.64 136.23 642.16 139.98 C 642.40 141.73 643.38 142.72 645.50 143.35 C 650.65 144.87 651.49 145.61 652.00 149.10 C 652.44 152.09 652.92 152.56 655.97 153.00 C 659.01 153.44 659.58 153.99 660.54 157.44 C 661.68 161.50 662.40 162.15 667.50 163.65 C 669.93 164.37 670.60 165.21 671.00 168.02 C 671.43 171.01 671.93 171.55 674.50 171.84 C 678.49 172.29 680.00 173.69 680.00 176.92 C 680.00 180.12 681.64 181.99 684.45 182.02 C 687.64 182.04 689.14 183.45 689.89 187.11 C 690.42 189.71 691.25 190.68 693.54 191.36 C 699.75 193.20 699.48 192.37 699.77 210.26 C 700.07 228.15 699.59 230.00 694.63 230.00 C 690.92 230.00 690.00 231.92 690.00 239.66 C 690.00 248.39 690.69 249.00 700.46 249.00 C 706.51 249.00 707.13 249.20 708.18 251.50 C 709.03 253.37 709.03 254.63 708.18 256.50 L 707.04 259.00 L 685.27 259.02 C 673.30 259.02 663.00 259.36 662.38 259.77 C 658.77 262.15 660.73 268.00 665.14 268.00 C 669.98 268.00 671.00 269.63 670.98 277.29 C 670.98 281.25 670.55 285.17 670.03 285.99 C 669.35 287.05 666.77 287.59 661.02 287.85 C 654.26 288.15 652.79 288.53 651.91 290.17 C 651.12 291.65 651.25 292.73 652.42 294.52 C 653.82 296.65 654.84 296.95 661.64 297.21 C 669.76 297.52 669.92 297.62 671.65 303.50 C 672.31 305.72 673.23 306.58 675.20 306.81 C 678.66 307.21 680.22 309.20 679.82 312.69 L 679.50 315.50 L 670.50 315.50 L 661.50 315.50 L 661.19 312.32 C 660.81 308.38 658.96 306.76 655.31 307.18 L 652.50 307.50 L 652.23 329.87 C 652.04 345.54 652.30 352.66 653.10 353.62 C 653.85 354.52 656.41 355.00 660.51 355.00 C 669.51 355.00 670.88 353.59 671.23 344.00 L 671.50 336.50 L 679.34 336.21 C 687.87 335.89 690.00 336.76 690.00 340.56 C 690.00 343.79 691.42 344.43 699.97 345.00 L 707.44 345.50 L 708.51 349.31 C 709.09 351.40 710.23 353.53 711.04 354.04 C 713.19 355.41 725.38 355.22 726.80 353.80 C 727.53 353.07 728.00 349.53 728.00 344.77 C 728.00 339.35 728.38 336.84 729.25 336.61 C 735.35 334.99 736.39 334.30 737.41 331.29 C 739.03 326.51 739.92 326.05 747.82 325.84 C 757.37 325.58 758.35 326.52 758.12 335.68 C 757.90 344.31 757.07 345.00 746.87 345.00 C 741.85 345.00 738.85 345.43 738.36 346.22 C 737.95 346.89 737.73 356.93 737.88 368.54 C 738.17 391.66 738.31 391.09 732.01 392.72 C 728.98 393.50 728.43 394.12 727.91 397.36 C 727.14 402.11 725.80 403.42 722.59 402.61 C 720.85 402.18 719.85 401.09 719.46 399.23 C 718.26 393.52 718.25 393.52 704.19 393.22 C 692.05 392.96 691.02 393.09 690.05 394.91 C 688.35 398.08 690.32 401.69 694.19 402.52 C 699.33 403.62 699.96 404.61 699.87 411.35 C 699.77 419.06 698.95 420.60 694.47 421.44 C 687.75 422.70 687.81 429.85 694.56 431.25 C 696.68 431.70 698.77 432.61 699.19 433.28 C 699.62 433.95 699.98 437.74 699.98 441.70 C 700.00 450.26 700.84 451.08 708.68 450.27 C 714.93 449.62 719.00 451.65 719.00 455.40 C 719.00 458.97 720.89 459.88 729.01 460.20 L 736.42 460.50 L 737.10 463.80 C 737.47 465.62 738.08 467.42 738.47 467.80 C 738.85 468.19 742.99 468.75 747.66 469.06 C 753.46 469.45 756.44 470.08 757.06 471.06 C 757.56 471.85 757.98 475.75 757.98 479.73 C 758.00 488.03 758.49 487.65 746.75 488.25 C 743.04 488.44 739.44 489.16 738.75 489.85 C 737.83 490.77 737.59 495.21 737.84 506.94 C 738.22 524.64 737.66 527.00 733.09 527.00 C 729.69 527.00 728.29 528.46 727.84 532.50 L 727.50 535.50 L 719.09 535.79 C 714.06 535.97 710.26 535.66 709.62 535.02 C 709.01 534.41 708.67 531.15 708.84 527.53 C 709.19 519.61 707.98 517.00 703.93 517.00 C 702.29 517.00 700.79 516.44 700.61 515.75 C 698.59 508.16 697.47 507.16 692.42 508.43 C 690.10 509.01 690.00 509.38 690.00 517.50 C 690.00 525.92 690.01 525.96 692.75 526.55 C 698.66 527.82 700.15 528.89 699.82 531.66 C 699.48 534.47 698.14 535.54 693.78 536.45 C 689.90 537.27 688.41 540.45 690.45 543.57 C 691.99 545.92 692.44 546.00 703.95 546.00 C 716.86 546.00 719.00 546.78 719.00 551.51 C 719.00 554.83 717.60 555.43 708.54 556.00 C 700.58 556.50 700.57 556.50 699.95 559.59 C 698.90 564.73 698.41 565.00 689.98 565.00 C 683.18 565.00 681.92 565.27 681.04 566.93 C 679.86 569.14 679.65 580.93 680.77 582.61 C 681.17 583.21 683.16 584.02 685.19 584.39 C 691.00 585.46 691.75 592.39 686.18 593.56 C 681.84 594.47 680.52 595.54 680.18 598.41 C 679.76 601.92 681.55 604.00 685.00 604.00 C 688.52 604.00 690.41 606.25 689.60 609.47 C 689.18 611.15 688.07 612.16 686.23 612.54 C 680.85 613.68 680.53 614.22 680.00 623.10 L 679.50 631.50 L 676.10 632.00 C 672.55 632.52 671.50 633.70 670.54 638.23 C 670.13 640.19 669.19 641.13 667.23 641.54 C 662.79 642.48 661.58 643.51 660.87 646.97 C 660.01 651.18 658.67 651.97 652.32 651.98 C 644.84 652.01 642.00 650.69 642.00 647.22 C 642.00 643.89 643.60 642.01 646.45 641.98 C 650.65 641.95 651.48 640.44 652.00 631.79 L 652.50 623.50 L 655.50 623.19 C 657.15 623.02 659.06 622.14 659.75 621.25 C 661.30 619.23 661.47 598.75 659.96 595.93 C 659.03 594.18 657.77 594.00 646.66 594.00 C 633.48 594.00 632.00 594.50 632.00 599.00 C 632.00 603.21 630.31 604.00 621.26 604.00 L 612.92 604.00 L 613.21 612.73 L 613.50 621.46 L 616.50 622.35 C 622.64 624.16 622.48 623.78 622.78 637.04 C 622.94 643.82 623.53 649.94 624.11 650.63 C 624.68 651.32 626.58 652.02 628.32 652.19 C 630.97 652.45 631.55 652.97 631.82 655.31 C 632.35 659.93 630.60 661.00 622.50 661.00 C 614.40 661.00 612.65 662.07 613.18 666.67 C 613.42 668.78 614.23 669.68 616.50 670.35 C 621.38 671.79 622.48 672.58 622.83 674.91 C 623.27 677.90 621.31 680.00 618.08 680.00 C 614.84 680.00 613.00 681.65 613.00 684.55 C 613.00 686.94 610.13 690.00 607.87 690.00 C 605.73 690.00 604.00 687.93 604.00 685.37 C 604.00 680.53 602.11 680.00 584.62 680.00 C 566.52 680.00 564.59 680.55 565.16 685.52 C 565.45 687.97 566.14 688.63 569.44 689.55 C 573.57 690.70 574.51 691.75 575.46 696.23 C 575.87 698.18 576.82 699.14 578.77 699.57 C 583.68 700.64 584.00 700.90 584.00 703.77 C 584.00 707.19 582.38 709.00 579.34 709.00 C 576.92 709.00 575.00 711.60 575.00 714.88 C 575.00 717.81 573.39 718.44 564.50 719.00 L 556.50 719.50 L 556.16 722.50 C 555.58 727.70 554.77 728.00 541.58 728.00 C 528.36 728.00 527.00 728.49 527.00 733.22 C 527.00 736.86 523.70 738.21 515.75 737.81 C 509.58 737.51 508.06 738.42 508.00 742.50 C 507.93 747.31 507.19 747.50 488.50 747.50 C 468.64 747.50 469.04 747.34 469.02 755.21 C 469.00 758.78 468.55 760.17 467.13 760.93 C 465.95 761.56 442.25 761.93 402.30 761.95 C 350.27 761.96 339.01 761.73 337.45 760.58 Z M 284.76 699.37 C 289.15 698.19 288.40 690.00 283.90 690.00 C 280.53 690.00 278.00 688.09 278.00 685.54 C 278.00 681.01 272.23 678.17 269.20 681.20 C 267.34 683.06 267.63 696.48 269.57 698.43 C 271.19 700.05 280.16 700.60 284.76 699.37 Z M 506.80 630.80 C 507.46 630.14 508.00 628.12 508.00 626.30 C 508.00 623.23 508.23 623.00 511.30 623.00 C 515.27 623.00 517.00 621.49 517.00 618.00 C 517.00 614.67 515.30 613.00 511.91 613.00 C 508.89 613.00 508.00 614.50 508.00 619.58 C 508.00 622.81 507.81 623.00 504.57 623.00 C 500.86 623.00 498.00 625.12 498.00 627.87 C 498.00 630.35 500.00 632.00 503.00 632.00 C 504.43 632.00 506.14 631.46 506.80 630.80 Z M 592.07 611.96 C 593.41 611.25 594.00 609.87 594.00 607.46 C 594.00 604.12 593.87 604.00 590.20 604.00 C 585.93 604.00 584.00 605.40 584.00 608.50 C 584.00 612.54 587.88 614.20 592.07 611.96 Z M 612.81 600.80 C 613.43 595.45 611.64 594.00 604.40 594.00 C 596.09 594.00 594.00 595.08 594.00 599.37 C 594.00 601.18 594.32 602.98 594.70 603.37 C 595.09 603.76 599.25 603.94 603.95 603.79 C 612.41 603.50 612.50 603.47 612.81 600.80 Z M 622.79 575.66 C 622.98 570.73 622.65 567.29 621.92 566.41 C 620.49 564.69 615.84 564.56 614.20 566.20 C 612.90 567.50 612.49 582.15 613.71 583.38 C 614.11 583.77 616.24 583.96 618.46 583.80 L 622.50 583.50 L 622.79 575.66 Z M 726.43 497.43 C 727.57 496.28 728.00 493.85 728.00 488.46 C 728.00 480.63 727.00 479.00 722.17 479.00 C 720.14 479.00 719.00 477.19 719.00 473.94 C 719.00 472.90 717.86 471.30 716.46 470.38 C 714.42 469.05 713.43 468.94 711.46 469.84 C 709.04 470.94 709.00 471.16 709.00 483.36 C 709.00 492.23 709.36 496.06 710.28 496.82 C 710.99 497.41 714.25 498.05 717.53 498.25 C 720.82 498.46 723.81 498.71 724.18 498.81 C 724.55 498.91 725.56 498.29 726.43 497.43 Z M 678.43 449.43 C 680.63 447.22 680.45 442.31 678.11 441.06 C 677.07 440.50 673.81 440.21 670.86 440.41 C 667.91 440.60 664.70 440.82 663.72 440.88 C 661.54 441.03 660.00 444.77 660.99 447.50 C 661.59 449.15 662.93 449.60 668.61 450.07 C 672.40 450.39 675.81 450.73 676.18 450.82 C 676.55 450.92 677.56 450.29 678.43 449.43 Z M 700.45 294.57 C 698.29 291.27 699.97 288.00 703.84 288.00 C 708.66 288.00 710.68 292.18 707.43 295.43 C 705.15 297.71 702.28 297.36 700.45 294.57 Z M 720.75 276.92 C 719.34 276.10 719.00 274.50 719.00 268.65 C 719.00 260.99 719.93 259.00 723.50 259.00 C 727.06 259.00 728.00 260.99 728.00 268.50 C 728.00 277.42 725.86 279.90 720.75 276.92 Z M 631.39 257.42 C 631.73 256.55 632.00 252.99 632.00 249.50 C 632.00 241.55 632.60 240.00 635.67 240.00 C 637.03 240.00 639.00 239.53 640.07 238.96 C 641.82 238.03 642.00 236.77 642.00 225.50 C 642.00 214.23 641.82 212.97 640.07 212.04 C 637.39 210.60 625.68 210.72 624.20 212.20 C 622.65 213.75 622.50 254.20 624.04 257.07 C 625.32 259.46 630.51 259.71 631.39 257.42 Z M 611.80 209.80 C 612.51 209.09 613.00 205.67 613.00 201.42 C 613.00 193.40 611.92 191.65 607.31 192.18 C 605.02 192.44 604.44 193.06 604.16 195.50 C 603.71 199.49 602.31 201.00 599.08 201.00 C 597.60 201.00 595.86 201.54 595.20 202.20 C 593.40 204.00 593.74 208.75 595.75 209.92 C 598.22 211.36 610.33 211.27 611.80 209.80 Z M 631.39 151.42 C 631.73 150.55 632.00 146.27 632.00 141.92 L 632.00 134.00 L 629.07 134.00 C 624.37 134.00 623.00 136.23 623.00 143.87 C 623.00 147.77 623.50 151.10 624.20 151.80 C 625.94 153.54 630.68 153.29 631.39 151.42 Z" fill="#000" fill-rule="evenodd"/></svg>
