<svg xmlns="http://www.w3.org/2000/svg" viewBox="0 0 800 800" width="200" height="200"><circle cx="399.31" cy="400.29" r="361.68" fill="#f0ece3"/><path d="M 337.45 760.58 C 336.03 759.55 335.60 758.11 335.74 754.85 C 336.05 747.74 336.31 747.84 316.89 747.66 C 307.32 747.57 298.94 747.14 298.25 746.69 C 297.56 746.25 297.00 744.87 297.00 743.63 C 297.00 742.39 296.39 740.55 295.64 739.52 C 294.43 737.87 292.99 737.69 282.77 737.89 C 269.95 738.15 268.00 737.37 268.00 731.95 C 268.00 728.31 267.08 728.07 252.00 727.75 L 240.50 727.50 L 240.16 724.50 C 239.62 719.68 238.42 719.00 230.45 719.00 C 222.18 719.00 220.00 717.73 220.00 712.90 C 220.00 711.27 219.44 709.79 218.75 709.61 C 212.02 707.82 211.50 707.44 211.00 703.98 L 210.50 700.50 L 202.55 700.20 C 193.71 699.88 192.00 699.03 192.00 695.00 C 192.00 691.83 190.72 690.57 186.51 689.56 C 183.12 688.75 182.04 687.47 182.02 684.29 C 181.99 681.19 179.16 680.00 171.77 680.00 C 164.71 680.00 163.00 678.99 163.00 674.82 C 163.00 672.60 162.44 671.91 160.25 671.43 C 154.57 670.16 153.99 669.80 153.44 667.18 C 152.54 662.88 151.47 661.53 148.50 661.00 C 145.54 660.47 144.46 659.12 143.57 654.88 C 143.13 652.75 142.30 652.14 139.12 651.64 C 134.46 650.89 134.00 649.94 134.00 640.95 C 134.00 633.47 135.05 632.00 140.42 632.00 C 142.39 632.00 143.09 631.38 143.54 629.25 C 144.47 624.85 145.53 623.53 148.58 622.99 C 150.71 622.62 151.69 621.71 152.34 619.49 C 153.87 614.36 154.61 613.52 158.00 613.00 C 161.46 612.47 162.51 611.28 163.46 606.75 C 163.90 604.67 164.63 604.00 166.44 604.00 C 170.38 604.00 172.00 602.93 172.00 600.33 C 172.00 594.89 173.40 594.00 182.00 594.00 C 190.63 594.00 192.00 594.88 192.00 600.42 C 192.00 602.95 192.70 603.36 198.50 604.22 C 199.89 604.43 200.60 605.43 200.84 607.51 C 201.29 611.49 202.69 613.00 205.92 613.00 C 210.08 613.00 211.00 611.28 211.00 603.50 C 211.00 599.31 211.49 595.91 212.20 595.20 C 212.88 594.52 216.15 594.00 219.77 594.00 C 227.68 594.00 230.00 592.87 230.00 589.00 C 230.00 585.78 227.75 584.00 223.67 584.00 C 221.09 584.00 220.00 582.38 220.00 578.53 C 220.00 575.57 218.39 575.00 210.04 575.00 C 202.43 575.00 200.65 573.86 201.18 569.33 C 201.42 567.22 202.23 566.32 204.50 565.65 C 209.65 564.13 210.49 563.39 211.00 559.91 C 211.36 557.50 212.08 556.44 213.50 556.22 C 219.48 555.32 220.00 554.99 220.00 552.05 C 220.00 548.53 222.30 546.00 225.51 546.00 C 228.21 546.00 229.06 544.96 229.94 540.59 C 230.47 537.93 231.15 537.37 234.81 536.55 C 238.21 535.79 239.17 535.09 239.59 533.05 C 240.46 528.86 241.56 527.53 244.58 526.99 C 247.33 526.51 247.94 525.58 249.59 519.28 C 249.77 518.61 251.17 517.79 252.71 517.47 C 257.29 516.50 258.48 515.46 258.81 512.15 C 259.06 509.67 259.69 508.88 261.81 508.41 C 267.58 507.13 268.00 506.86 268.00 504.37 C 268.00 500.27 269.77 498.00 272.98 498.00 C 276.21 498.00 277.03 497.10 277.94 492.59 C 278.47 489.93 279.15 489.37 282.81 488.55 C 286.21 487.79 287.17 487.09 287.59 485.05 C 288.52 480.57 289.58 479.50 293.11 479.50 L 296.50 479.50 L 296.79 486.73 C 297.12 494.88 295.98 498.00 292.66 498.00 C 288.94 498.00 288.00 499.91 288.00 507.50 C 288.00 515.01 287.06 517.00 283.49 517.00 C 279.08 517.00 277.84 519.10 277.67 526.94 C 277.49 534.74 277.13 535.33 271.77 536.46 C 269.82 536.86 268.85 537.82 268.42 539.77 C 267.17 545.38 266.82 546.00 264.87 546.00 C 260.02 546.00 259.00 547.62 259.00 555.34 C 259.00 559.65 259.49 563.09 260.20 563.80 C 261.87 565.47 381.55 565.54 382.58 563.87 C 383.75 561.99 383.66 539.91 382.48 538.30 C 381.89 537.49 379.85 536.51 377.95 536.13 C 375.31 535.59 374.27 534.73 373.50 532.46 C 371.94 527.83 371.09 527.00 367.96 527.00 C 364.53 527.00 364.13 525.92 363.75 515.50 C 363.50 508.53 363.49 508.50 360.50 508.16 C 355.68 507.62 355.00 506.42 355.00 498.50 C 355.00 490.54 354.50 489.70 349.00 488.28 L 345.50 487.38 L 344.96 479.13 C 344.39 470.48 343.59 469.05 339.31 469.02 C 338.10 469.01 336.80 468.48 336.41 467.85 C 335.47 466.33 335.89 442.72 336.88 441.73 C 337.30 441.30 364.12 440.93 396.48 440.89 C 428.83 440.86 456.36 440.43 457.65 439.94 C 459.83 439.12 460.00 438.50 460.00 431.60 C 460.00 423.42 458.74 421.00 454.46 421.00 C 451.93 421.00 450.00 418.47 450.00 415.17 C 450.00 413.04 448.18 412.00 444.45 412.00 C 441.11 412.00 440.04 409.32 440.29 401.56 C 440.52 394.27 439.12 392.00 434.38 392.00 C 431.59 392.00 430.94 390.08 431.12 382.30 C 431.28 375.05 430.94 374.36 426.74 373.46 C 424.96 373.08 422.94 372.32 422.25 371.76 C 420.73 370.54 420.49 349.82 421.96 347.07 C 422.53 346.01 424.60 345.00 426.96 344.62 C 430.16 344.11 431.00 343.55 431.00 341.92 C 431.00 338.78 432.86 336.00 434.95 336.00 C 438.38 336.00 440.00 334.82 440.00 332.33 C 440.00 328.38 441.70 326.28 445.46 325.57 C 449.06 324.90 451.00 322.65 451.00 319.17 C 451.00 318.10 451.71 316.94 452.58 316.61 C 453.45 316.27 465.74 316.00 479.88 316.00 C 507.37 316.00 508.00 316.11 508.00 321.00 C 508.00 322.43 508.54 324.14 509.20 324.80 C 512.05 327.65 517.00 324.87 517.00 320.41 C 517.00 317.89 518.73 316.73 524.29 315.54 L 527.08 314.94 L 526.79 306.83 C 526.48 298.20 526.42 298.10 520.50 296.35 C 517.55 295.47 517.49 295.32 517.20 288.02 C 516.88 279.95 515.96 278.00 512.50 278.00 C 508.45 278.00 507.92 276.06 508.22 262.36 L 508.50 249.50 L 511.68 249.19 C 513.42 249.02 515.32 248.32 515.90 247.62 C 516.52 246.88 517.06 239.36 517.23 229.45 L 517.50 212.55 L 520.50 211.66 C 526.70 209.82 526.50 210.32 526.50 196.50 C 526.50 182.68 526.70 183.18 520.50 181.34 L 517.50 180.46 L 517.22 168.04 C 517.06 160.98 516.47 155.06 515.85 154.31 C 515.25 153.59 513.51 153.00 511.98 153.00 C 508.54 153.00 508.00 151.65 508.00 143.12 C 508.00 135.70 507.04 134.00 502.84 134.00 C 499.90 134.00 498.00 131.68 498.00 128.10 C 498.00 125.88 495.29 124.00 492.10 124.00 C 489.88 124.00 488.00 121.29 488.00 118.08 C 488.00 116.66 487.16 115.85 485.25 115.44 C 483.74 115.10 481.99 114.68 481.37 114.49 C 480.74 114.31 479.83 112.44 479.33 110.34 C 478.62 107.32 477.81 106.34 475.47 105.64 C 470.42 104.15 469.51 103.40 469.16 100.40 C 468.71 96.57 467.63 96.03 460.33 96.02 C 452.58 96.00 451.00 95.38 451.00 92.39 C 451.00 91.08 450.10 89.10 449.00 88.00 C 447.16 86.16 445.67 86.00 430.11 86.00 C 411.86 86.00 412.00 86.04 412.00 80.45 C 412.00 77.34 409.32 76.00 403.13 76.00 C 395.74 76.00 393.37 77.21 392.59 81.39 C 392.22 83.34 391.47 85.21 390.91 85.56 C 390.35 85.90 382.95 86.12 374.46 86.05 C 357.82 85.91 355.00 86.55 355.00 90.46 C 355.00 94.74 352.58 96.00 344.40 96.00 C 339.30 96.00 336.82 96.40 336.55 97.25 C 336.34 97.94 335.89 99.76 335.55 101.29 C 335.22 102.83 334.39 104.23 333.72 104.41 C 327.30 106.09 326.65 106.58 325.56 110.50 C 324.60 113.97 324.03 114.54 321.30 114.81 C 317.55 115.17 316.29 116.48 315.84 120.46 C 315.56 122.87 314.91 123.55 312.41 124.05 C 307.27 125.10 307.00 125.60 307.00 134.00 C 307.00 142.58 306.73 143.03 301.03 143.96 L 297.50 144.53 L 297.23 171.39 C 296.95 199.60 297.15 200.98 301.37 201.02 C 305.66 201.05 306.48 202.53 307.00 211.21 L 307.50 219.50 L 310.50 219.84 C 314.49 220.29 316.00 221.69 316.00 224.92 C 316.00 228.17 317.65 230.00 320.58 230.00 C 323.16 230.00 324.86 231.82 325.89 235.69 C 326.41 237.62 327.56 238.77 329.57 239.37 C 334.58 240.85 335.49 241.61 335.84 244.60 C 336.30 248.47 337.35 248.97 345.18 248.98 C 352.46 249.00 355.00 250.40 355.00 254.37 C 355.00 258.85 355.95 259.00 383.50 259.00 C 411.40 259.00 412.00 258.89 412.00 254.00 C 412.00 249.93 413.75 249.00 421.45 248.98 C 429.66 248.97 430.70 248.50 431.16 244.60 C 431.52 241.55 432.80 240.47 437.12 239.57 C 439.25 239.13 439.86 238.30 440.36 235.12 C 440.98 231.25 442.37 230.00 446.03 230.00 C 449.31 230.00 450.85 226.43 450.28 220.12 C 449.70 213.72 451.24 211.00 455.45 211.00 C 459.24 211.00 460.11 208.87 459.79 200.36 L 459.50 192.53 L 455.65 191.90 C 453.53 191.56 451.37 190.66 450.85 189.89 C 450.33 189.13 450.16 185.70 450.48 182.28 C 450.97 176.90 450.77 175.77 449.03 174.03 C 447.91 172.91 445.93 172.00 444.62 172.00 C 440.82 172.00 439.65 169.68 440.30 163.38 C 440.62 160.31 440.46 156.72 439.96 155.40 C 439.12 153.18 438.52 153.00 431.96 153.00 C 423.31 153.00 421.00 151.94 421.00 147.98 C 421.00 144.18 419.59 143.84 405.09 144.21 L 393.68 144.50 L 392.56 148.50 L 391.44 152.50 L 384.02 152.80 C 379.93 152.96 376.01 153.58 375.30 154.16 C 374.59 154.75 373.54 156.98 372.97 159.12 C 372.07 162.44 371.52 163.00 369.16 163.00 C 364.91 163.00 364.00 164.68 364.00 172.50 C 364.00 180.01 364.94 182.00 368.50 182.00 C 371.08 182.00 373.00 183.80 373.00 186.20 C 373.00 189.90 376.59 192.00 382.92 192.00 C 390.29 192.00 392.00 191.36 392.00 188.62 C 392.00 187.42 392.70 185.44 393.56 184.22 C 394.92 182.27 396.01 182.00 402.36 182.00 C 410.26 182.00 412.00 182.90 412.00 187.00 C 412.00 190.37 413.71 192.00 417.22 192.00 C 421.19 192.00 423.12 196.11 420.50 199.00 C 419.51 200.10 417.72 201.00 416.55 201.00 C 413.65 201.00 412.00 202.84 412.00 206.08 C 412.00 209.14 410.54 210.66 407.10 211.15 C 404.69 211.50 404.12 212.19 402.12 217.27 L 401.03 220.04 L 378.26 219.77 L 355.50 219.50 L 355.00 216.02 C 354.60 213.21 353.93 212.37 351.50 211.65 C 346.37 210.13 345.54 209.40 344.42 205.39 C 343.51 202.14 342.85 201.45 340.42 201.17 C 338.81 200.99 337.13 200.49 336.67 200.05 C 335.69 199.10 335.48 155.64 336.45 154.08 C 336.82 153.48 338.41 153.00 340.00 153.00 C 343.21 153.00 344.03 152.10 344.95 147.60 C 345.49 144.97 346.13 144.43 349.39 143.90 C 353.51 143.23 354.96 141.77 354.98 138.29 C 355.00 135.92 357.62 134.00 360.83 134.00 C 362.96 134.00 364.00 132.18 364.00 128.45 C 364.00 125.12 366.74 124.00 374.90 124.00 C 382.34 124.00 384.00 122.94 384.00 118.17 C 384.00 117.10 384.71 115.94 385.58 115.61 C 387.64 114.82 427.36 114.82 429.42 115.61 C 430.32 115.95 431.00 117.37 431.00 118.91 C 431.00 122.99 432.74 124.00 439.77 124.00 C 447.63 124.00 449.59 124.99 450.41 129.39 C 450.97 132.36 451.64 133.01 455.28 134.16 C 458.86 135.30 459.55 135.96 459.84 138.50 C 460.29 142.53 461.54 143.83 465.32 144.19 C 468.11 144.46 468.56 144.93 469.00 147.98 C 469.40 150.79 470.07 151.63 472.50 152.35 C 478.61 154.16 478.46 153.82 479.00 167.11 C 479.27 173.92 479.86 180.06 480.31 180.75 C 480.75 181.44 482.41 182.00 484.00 182.00 C 485.59 182.00 487.18 182.49 487.55 183.08 C 488.39 184.45 488.36 217.61 487.51 218.98 C 487.17 219.54 485.59 220.00 484.00 220.00 C 482.41 220.00 480.75 220.56 480.31 221.25 C 479.86 221.94 479.27 226.09 479.00 230.48 C 478.51 238.32 478.45 238.48 475.50 239.35 C 470.56 240.81 469.52 241.59 469.15 244.10 C 468.66 247.56 467.14 249.00 463.98 249.00 C 461.10 249.00 460.00 250.49 460.00 254.38 C 460.00 257.15 458.23 259.00 455.55 259.02 C 452.36 259.04 450.86 260.45 450.11 264.11 C 449.64 266.40 448.79 267.58 447.46 267.78 C 441.66 268.66 441.08 269.04 440.44 272.47 C 439.70 276.43 438.52 277.67 435.03 278.15 C 433.11 278.42 432.31 279.39 431.44 282.50 C 430.57 285.61 429.68 286.69 427.41 287.37 C 422.55 288.81 421.51 289.60 421.18 292.10 C 420.79 295.01 418.42 297.00 415.33 297.00 C 413.64 297.00 412.88 297.72 412.45 299.75 C 411.36 304.83 410.06 307.00 408.10 307.00 C 404.67 307.00 403.00 308.16 403.00 310.54 C 403.00 313.45 400.53 316.00 397.68 316.02 C 394.58 316.04 393.51 317.03 392.43 320.92 C 391.69 323.54 390.69 324.59 388.06 325.48 C 385.31 326.41 384.43 327.39 383.54 330.55 C 382.69 333.61 381.79 334.67 379.47 335.35 C 374.47 336.84 373.52 337.60 372.99 340.58 C 372.38 344.09 368.04 346.11 365.56 344.05 C 364.30 343.01 364.00 340.38 364.00 330.50 C 364.00 317.22 363.70 316.43 358.50 315.84 L 355.50 315.50 L 355.00 307.10 C 354.47 298.21 354.16 297.68 348.71 296.53 C 345.87 295.93 345.62 295.59 344.58 290.81 C 344.12 288.69 343.33 288.06 340.85 287.81 C 337.61 287.49 336.87 286.64 335.36 281.54 C 334.70 279.33 333.70 278.42 331.40 277.95 C 327.09 277.07 326.00 276.21 325.98 273.69 C 325.96 270.38 324.60 268.87 320.97 268.13 C 317.52 267.42 316.48 266.21 315.56 261.81 C 315.11 259.68 314.34 259.06 311.85 258.81 C 308.61 258.49 307.87 257.64 306.35 252.50 C 305.47 249.55 305.32 249.49 298.02 249.20 C 289.95 248.88 288.00 247.96 288.00 244.50 C 288.00 243.26 287.38 241.73 286.63 241.11 C 285.65 240.30 274.77 240.05 248.38 240.24 L 211.50 240.50 L 211.17 243.50 C 210.99 245.15 210.41 246.95 209.88 247.50 C 209.34 248.05 205.22 248.72 200.72 249.00 L 192.53 249.50 L 191.96 253.03 C 191.04 258.72 190.57 259.00 182.06 259.00 C 173.54 259.00 172.39 259.62 171.84 264.50 C 171.56 267.00 171.00 267.56 168.50 267.84 C 164.48 268.29 163.17 269.54 162.81 273.30 C 162.55 275.98 161.95 276.60 158.79 277.48 C 156.75 278.05 154.64 278.96 154.09 279.51 C 153.54 280.06 152.96 283.87 152.80 287.98 C 152.48 296.08 152.87 295.58 145.25 297.61 C 144.28 297.86 144.00 306.19 144.00 335.00 C 144.00 369.43 144.12 372.10 145.75 372.59 C 150.13 373.90 152.52 375.73 152.85 378.03 C 153.34 381.53 154.57 382.70 158.59 383.45 C 162.16 384.12 162.37 384.37 163.44 389.25 C 163.85 391.16 164.66 392.00 166.08 392.00 C 169.51 392.00 172.00 393.91 172.00 396.54 C 172.00 401.10 175.20 403.00 182.88 403.00 C 190.40 403.00 191.62 403.73 192.16 408.50 L 192.50 411.50 L 205.99 412.00 C 218.51 412.46 219.50 412.64 219.78 414.50 C 220.70 420.62 220.96 421.00 224.32 421.00 C 228.10 421.00 230.00 419.50 230.00 416.50 C 230.00 412.56 231.80 412.00 244.50 412.00 C 257.17 412.00 258.99 411.44 259.02 407.55 C 259.04 403.91 260.40 403.07 266.54 402.89 C 274.41 402.66 276.80 401.66 277.61 398.29 C 278.56 394.31 279.61 393.30 283.53 392.56 C 286.23 392.05 287.11 391.33 287.58 389.21 C 288.63 384.37 288.90 384.00 291.40 384.00 C 296.69 384.00 297.00 382.65 297.00 360.01 C 297.00 348.54 296.73 338.45 296.39 337.58 C 296.05 336.68 294.63 336.00 293.09 336.00 C 288.86 336.00 288.00 334.32 288.00 326.00 C 288.00 321.42 287.52 317.92 286.80 317.20 C 286.08 316.48 282.56 316.00 277.92 316.00 C 269.55 316.00 268.39 315.37 267.84 310.50 L 267.50 307.50 L 245.13 307.23 C 230.02 307.05 222.32 307.32 221.43 308.06 C 220.71 308.66 219.98 310.58 219.81 312.32 C 219.55 315.03 219.05 315.55 216.50 315.84 C 212.48 316.29 211.17 317.54 210.81 321.30 C 210.55 323.98 209.95 324.60 206.79 325.48 C 201.96 326.83 200.77 328.13 201.17 331.63 C 201.46 334.12 202.10 334.64 206.00 335.58 C 209.94 336.52 210.54 337.02 210.81 339.58 C 211.36 344.74 212.54 345.00 235.49 345.00 C 250.58 345.00 256.94 345.34 257.80 346.20 C 258.51 346.91 259.00 350.31 259.00 354.50 C 259.00 362.25 258.08 364.00 254.00 364.00 C 250.83 364.00 249.00 365.67 249.00 368.58 C 249.00 372.03 246.35 373.40 239.47 373.53 C 232.55 373.65 230.00 374.99 230.00 378.50 C 230.00 382.12 227.52 383.32 219.89 383.37 C 212.47 383.42 211.05 382.62 211.02 378.37 C 210.99 374.94 208.43 373.66 201.70 373.72 C 194.11 373.78 192.00 372.79 192.00 369.16 C 192.00 365.68 190.35 364.00 186.92 364.00 C 183.02 364.00 182.13 362.27 181.80 354.06 C 181.48 346.27 181.36 346.08 175.50 344.34 L 172.50 343.45 L 172.50 335.58 C 172.50 329.57 172.85 327.55 174.00 327.02 C 181.96 323.32 181.48 323.97 181.80 316.51 C 182.13 308.90 183.08 307.00 186.55 307.00 C 189.72 307.00 192.00 304.44 192.00 300.90 C 192.00 299.27 192.56 297.79 193.25 297.61 C 199.94 295.83 200.50 295.43 201.00 292.06 C 201.45 288.99 201.93 288.56 205.97 287.58 C 209.91 286.63 210.51 286.11 211.11 283.16 C 211.48 281.32 212.20 279.40 212.71 278.89 C 213.24 278.36 228.82 278.08 250.04 278.24 L 286.45 278.50 L 287.34 281.50 C 288.85 286.59 289.60 287.49 292.60 287.84 C 295.96 288.24 296.96 289.46 296.98 293.19 C 297.00 295.56 297.52 295.98 301.25 296.72 C 305.12 297.48 305.62 297.92 306.85 301.78 C 307.88 305.04 308.80 306.14 310.85 306.59 C 312.31 306.91 314.06 307.34 314.75 307.55 C 315.61 307.82 316.00 310.41 316.00 315.93 C 316.00 324.45 316.91 326.00 321.90 326.00 C 323.02 326.00 324.40 326.87 324.96 327.93 C 325.61 329.14 326.00 341.10 326.00 359.88 C 326.00 389.75 325.99 389.89 323.78 391.44 C 322.56 392.30 320.58 393.00 319.38 393.00 C 317.17 393.00 316.00 394.73 316.00 398.01 C 316.00 400.59 313.31 403.00 310.45 403.00 C 308.63 403.00 307.90 403.67 307.46 405.75 C 306.60 409.84 305.50 411.47 303.39 411.79 C 297.54 412.68 297.00 413.03 297.00 415.90 C 297.00 419.13 295.59 420.65 292.10 421.15 C 289.60 421.51 288.81 422.56 287.37 427.41 C 286.69 429.67 285.61 430.57 282.54 431.43 C 279.20 432.37 278.47 433.06 277.90 435.82 C 277.08 439.87 277.18 439.76 273.00 440.50 C 268.75 441.25 268.82 441.18 268.09 445.68 C 267.57 448.88 267.01 449.50 263.99 450.28 C 260.09 451.29 259.04 452.45 259.02 455.77 C 259.00 458.09 257.11 459.30 251.75 460.45 C 249.53 460.93 249.00 461.59 249.00 463.90 C 249.00 467.13 247.59 468.65 244.10 469.15 C 241.51 469.53 240.45 470.95 239.53 475.29 C 239.21 476.83 238.39 478.23 237.72 478.41 C 231.08 480.15 230.50 480.57 230.00 483.99 C 229.54 487.13 229.12 487.52 225.25 488.28 C 220.97 489.12 220.68 489.50 219.78 495.46 C 219.58 496.79 218.40 497.64 216.11 498.11 C 212.38 498.87 211.04 500.36 211.02 503.77 C 211.00 506.09 209.11 507.30 203.75 508.45 C 201.53 508.93 201.00 509.59 201.00 511.90 C 201.00 515.13 199.59 516.65 196.10 517.15 C 193.51 517.53 192.45 518.95 191.53 523.29 C 191.21 524.83 190.39 526.23 189.72 526.41 C 183.07 528.15 182.50 528.57 182.00 532.01 C 181.55 535.13 181.12 535.53 177.65 536.09 C 173.70 536.73 172.04 538.23 172.02 541.17 C 171.98 544.55 170.76 546.00 167.95 546.00 C 164.79 546.00 163.97 546.91 163.05 551.40 C 162.58 553.70 161.67 554.70 159.46 555.36 C 154.56 556.81 153.52 557.59 153.15 560.10 C 152.68 563.41 151.16 565.00 148.50 565.00 C 145.70 565.00 144.28 566.65 143.84 570.40 C 143.49 573.40 142.58 574.15 137.50 575.65 C 135.08 576.37 134.40 577.21 134.00 580.01 C 133.55 583.13 133.12 583.53 129.65 584.09 C 125.70 584.73 124.04 586.23 124.02 589.17 C 123.98 592.56 122.77 594.00 119.93 594.00 C 116.90 594.00 115.00 596.27 115.00 599.90 C 115.00 601.02 114.13 602.40 113.07 602.96 C 110.39 604.40 98.68 604.28 97.20 602.80 C 96.48 602.08 96.00 598.58 96.00 594.00 C 96.00 585.69 95.14 584.00 90.92 584.00 C 86.92 584.00 85.89 582.00 86.16 574.70 C 86.44 567.25 85.22 565.00 80.91 565.00 C 77.16 565.00 76.09 562.77 76.28 555.30 C 76.45 548.54 75.12 546.00 71.41 546.00 C 68.10 546.00 66.90 543.04 67.11 535.40 C 67.31 528.21 66.57 527.04 61.79 527.02 C 57.78 526.99 57.00 524.49 57.00 511.60 C 57.00 501.22 56.81 499.97 55.07 499.04 C 54.00 498.47 52.25 498.00 51.17 498.00 C 50.10 498.00 48.94 497.29 48.61 496.42 C 48.27 495.55 48.00 485.20 48.00 473.43 L 48.00 452.02 L 44.25 450.25 L 40.50 448.48 L 40.50 397.60 C 40.50 342.03 40.02 346.95 45.75 344.14 C 47.26 343.40 47.54 341.51 47.78 330.43 C 47.97 321.69 48.45 317.33 49.28 316.80 C 50.73 315.89 63.15 315.73 65.42 316.61 C 66.29 316.94 67.00 318.19 67.00 319.38 C 67.00 320.58 67.70 322.56 68.56 323.78 C 70.01 325.85 70.87 326.00 81.49 326.00 C 93.74 326.00 96.00 325.16 96.00 320.63 C 96.00 316.87 94.10 316.00 85.84 316.00 C 77.54 316.00 76.00 315.06 76.00 310.03 C 76.00 307.91 75.56 307.62 70.90 306.60 C 68.80 306.15 68.12 305.21 67.40 301.85 C 66.56 297.93 66.21 297.59 62.00 296.58 C 57.95 295.61 57.50 295.21 57.50 292.61 C 57.50 289.63 58.37 288.86 63.46 287.36 C 65.67 286.70 66.58 285.70 67.05 283.40 C 68.09 278.35 68.67 278.00 76.06 278.00 C 81.67 278.00 83.38 277.62 85.00 276.00 C 86.10 274.90 87.00 273.35 87.00 272.56 C 87.00 270.64 83.12 268.00 80.31 268.00 C 76.55 268.00 75.92 265.04 76.11 248.42 C 76.31 232.02 76.85 230.00 81.07 230.00 C 82.13 230.00 83.86 229.14 84.91 228.09 C 86.49 226.51 86.74 225.15 86.36 220.34 C 85.82 213.49 86.56 212.04 91.11 211.11 C 93.71 210.58 94.68 209.75 95.36 207.46 C 96.83 202.49 97.60 201.51 100.28 201.19 C 104.11 200.73 104.87 199.15 105.20 190.98 C 105.49 183.68 105.55 183.53 108.50 182.65 C 113.56 181.16 114.43 180.43 115.11 177.10 C 115.92 173.13 116.14 172.92 120.17 172.10 C 122.79 171.56 123.56 170.83 124.06 168.38 C 124.97 163.91 125.80 163.00 128.94 163.00 C 132.25 163.00 133.52 161.68 134.46 157.25 C 134.99 154.79 135.81 153.86 137.83 153.44 C 142.29 152.51 143.48 151.44 144.00 147.90 C 144.44 144.94 144.91 144.46 147.68 144.19 C 151.45 143.83 152.71 142.53 153.16 138.52 C 153.42 136.20 154.17 135.34 156.50 134.65 C 161.56 133.16 162.43 132.43 163.11 129.10 C 163.93 125.13 164.13 124.92 168.20 124.10 C 171.02 123.52 171.57 122.92 172.00 119.98 C 172.40 117.21 173.09 116.37 175.50 115.65 C 180.58 114.15 181.43 113.42 182.13 110.03 C 183.02 105.68 184.29 105.03 192.05 105.02 C 199.30 105.00 201.00 104.01 201.00 99.82 C 201.00 97.59 201.55 96.92 203.75 96.45 C 209.27 95.27 211.00 94.11 211.00 91.59 C 211.00 87.35 213.49 85.91 220.38 86.17 C 223.77 86.29 227.09 86.06 227.75 85.66 C 228.41 85.25 229.41 83.19 229.98 81.07 C 231.18 76.63 232.55 76.03 241.64 76.01 C 248.02 76.00 249.00 75.33 249.00 70.95 C 249.00 68.12 252.36 66.87 259.38 67.10 C 266.87 67.34 268.00 66.81 268.00 63.01 C 268.00 57.76 269.88 57.00 282.87 57.00 C 295.54 57.00 297.00 56.48 297.00 51.91 C 297.00 50.37 297.68 48.95 298.58 48.61 C 299.45 48.27 309.79 48.00 321.55 48.00 C 341.66 48.00 342.99 47.89 343.96 46.07 C 344.53 45.00 345.00 43.23 345.00 42.12 C 345.00 41.02 345.39 39.88 345.86 39.59 C 347.17 38.77 457.55 38.61 458.86 39.41 C 459.49 39.80 460.00 41.62 460.00 43.45 C 460.00 45.57 460.58 47.01 461.58 47.39 C 462.45 47.73 470.29 48.00 479.00 48.00 C 487.71 48.00 495.55 48.27 496.42 48.61 C 497.29 48.94 498.00 50.10 498.00 51.17 C 498.00 52.25 498.47 54.00 499.04 55.07 C 499.97 56.81 501.22 57.00 511.60 57.00 C 523.86 57.00 527.00 57.84 527.00 61.10 C 527.00 65.85 528.67 67.00 535.60 67.00 C 542.92 67.00 546.00 68.17 546.00 70.95 C 546.00 75.47 546.89 76.00 554.54 76.00 C 562.49 76.00 565.00 77.29 565.00 81.37 C 565.00 85.06 566.93 86.00 574.50 86.00 C 582.25 86.00 584.00 86.92 584.00 91.00 C 584.00 95.15 585.72 96.00 594.08 96.00 C 602.45 96.00 603.61 96.63 604.16 101.50 C 604.45 104.07 604.99 104.57 607.98 105.00 C 611.44 105.50 611.80 105.99 613.61 112.77 C 613.80 113.47 614.53 114.20 615.23 114.39 C 622.01 116.20 622.50 116.56 623.00 120.02 C 623.43 123.01 623.93 123.55 626.50 123.84 C 630.78 124.32 632.00 125.71 632.00 130.12 C 632.00 133.83 632.14 134.00 635.25 134.02 C 639.65 134.04 641.07 135.13 641.89 139.11 C 642.42 141.71 643.25 142.68 645.54 143.36 C 650.65 144.87 651.49 145.61 652.00 149.10 C 652.44 152.09 652.92 152.56 655.98 153.00 C 659.44 153.50 659.80 153.99 661.61 160.77 C 661.80 161.47 662.53 162.20 663.23 162.39 C 670.01 164.20 670.50 164.56 671.00 168.02 C 671.43 171.01 671.93 171.55 674.50 171.84 C 678.49 172.29 680.00 173.69 680.00 176.92 C 680.00 180.12 681.64 181.99 684.45 182.02 C 687.64 182.04 689.14 183.45 689.89 187.11 C 690.42 189.71 691.25 190.68 693.54 191.36 C 699.75 193.20 699.48 192.37 699.77 210.26 C 700.07 228.20 699.59 230.00 694.55 230.00 C 690.77 230.00 689.57 232.50 689.83 239.85 C 690.11 248.13 691.09 249.00 700.21 249.00 C 706.53 249.00 707.13 249.19 708.18 251.50 C 709.03 253.37 709.03 254.63 708.18 256.50 L 707.04 259.00 L 685.27 259.02 C 673.30 259.02 663.00 259.36 662.38 259.77 C 658.77 262.15 660.73 268.00 665.14 268.00 C 669.98 268.00 671.00 269.63 670.98 277.29 C 670.98 281.25 670.55 285.17 670.03 285.99 C 669.35 287.05 666.77 287.59 661.02 287.85 C 654.26 288.15 652.79 288.53 651.91 290.17 C 651.12 291.65 651.25 292.73 652.42 294.52 C 653.82 296.65 654.84 296.95 661.72 297.21 L 669.44 297.50 L 671.00 302.00 C 672.36 305.95 672.95 306.54 675.77 306.81 C 678.19 307.05 679.14 307.72 679.59 309.48 C 680.89 314.69 680.01 315.48 672.51 315.80 C 663.34 316.20 661.00 315.56 661.00 312.67 C 661.00 308.98 658.79 306.78 655.45 307.16 L 652.50 307.50 L 652.23 329.87 C 652.04 345.54 652.30 352.66 653.10 353.62 C 654.73 355.59 665.90 355.46 668.78 353.44 C 670.00 352.59 671.01 350.90 671.02 349.69 C 671.04 346.46 672.16 345.22 675.40 344.84 C 678.47 344.48 679.52 343.21 680.46 338.75 C 680.95 336.43 681.55 336.00 684.32 336.00 C 688.16 336.00 690.00 337.51 690.00 340.66 C 690.00 343.81 692.98 345.09 699.85 344.89 C 706.95 344.67 707.74 345.09 708.58 349.56 C 708.94 351.48 710.05 353.49 711.05 354.03 C 713.64 355.41 725.36 355.24 726.80 353.80 C 727.53 353.07 728.00 349.53 728.00 344.77 C 728.00 339.35 728.38 336.84 729.25 336.61 C 735.35 334.99 736.39 334.30 737.41 331.29 C 739.03 326.51 739.92 326.05 747.82 325.84 C 757.38 325.58 758.36 326.52 758.11 335.67 C 758.00 339.42 757.49 342.91 756.97 343.43 C 756.45 343.95 752.23 344.63 747.59 344.94 C 742.96 345.25 738.83 345.84 738.42 346.25 C 738.00 346.66 737.77 356.60 737.90 368.32 C 738.15 391.43 738.23 391.07 732.51 392.44 C 730.87 392.84 729.18 393.69 728.78 394.33 C 728.37 394.97 728.02 400.99 728.02 407.69 C 728.01 415.63 727.61 420.12 726.87 420.58 C 726.25 420.96 719.12 421.19 711.02 421.08 C 693.97 420.86 691.21 421.33 689.93 424.69 C 688.55 428.31 690.28 430.63 694.90 431.37 C 699.55 432.11 700.00 433.06 699.88 441.84 C 699.82 445.33 700.25 448.65 700.81 449.21 C 701.38 449.78 704.96 450.30 708.77 450.37 C 716.33 450.51 719.00 451.85 719.00 455.50 C 719.00 458.96 720.95 459.88 728.98 460.20 L 736.38 460.50 L 737.28 464.00 C 737.78 465.92 738.71 467.83 739.34 468.23 C 739.98 468.64 743.57 468.98 747.32 468.98 C 757.48 469.01 758.00 469.50 758.00 479.02 C 758.00 488.14 758.61 487.65 746.63 488.26 C 741.84 488.50 739.41 489.09 738.61 490.19 C 737.83 491.24 737.55 496.31 737.75 505.63 C 738.12 523.44 737.72 525.81 734.21 526.55 C 729.70 527.50 728.52 528.55 728.00 532.10 L 727.50 535.50 L 719.09 535.79 C 714.39 535.96 710.24 535.64 709.68 535.08 C 709.13 534.53 708.78 531.15 708.89 527.57 C 709.15 519.59 708.03 517.23 703.78 516.81 C 701.09 516.55 700.47 516.00 699.94 513.41 C 699.04 508.94 698.21 508.00 695.19 508.02 C 690.40 508.04 689.89 509.02 690.20 517.48 C 690.52 525.77 690.60 525.91 696.50 527.65 C 698.52 528.25 699.61 529.29 699.83 530.83 C 700.27 533.92 698.61 535.66 694.48 536.44 C 689.94 537.29 688.27 540.24 690.45 543.57 C 691.99 545.92 692.44 546.00 703.95 546.00 C 716.88 546.00 719.00 546.78 719.00 551.54 C 719.00 554.89 716.27 556.00 708.03 556.00 C 703.23 556.00 700.81 556.40 700.55 557.25 C 700.34 557.94 699.89 559.76 699.55 561.29 C 699.22 562.83 698.39 564.23 697.72 564.41 C 691.30 566.09 690.65 566.58 689.56 570.50 C 688.62 573.88 687.99 574.55 685.47 574.84 C 681.30 575.31 679.85 576.84 680.20 580.40 C 680.47 583.12 680.95 583.55 684.35 584.10 C 688.31 584.73 689.96 586.22 689.98 589.18 C 690.01 591.54 687.27 594.00 684.63 594.00 C 681.68 594.00 680.00 595.81 680.00 599.00 C 680.00 602.33 681.70 604.00 685.08 604.00 C 690.73 604.00 691.88 610.76 686.50 612.35 C 680.60 614.09 680.53 614.21 680.00 623.10 L 679.50 631.50 L 676.10 632.00 C 672.55 632.52 671.50 633.70 670.54 638.23 C 670.13 640.19 669.19 641.13 667.23 641.54 C 662.79 642.48 661.58 643.51 660.87 646.97 C 660.01 651.18 658.67 651.97 652.32 651.98 C 644.84 652.01 642.00 650.69 642.00 647.22 C 642.00 643.83 643.62 642.00 646.63 642.00 C 651.65 642.00 652.00 640.45 652.00 618.36 C 652.00 606.15 651.58 597.09 650.96 595.93 C 650.08 594.28 648.82 594.00 642.16 594.00 C 633.68 594.00 632.00 594.84 632.00 599.08 C 632.00 603.03 630.26 603.88 621.45 604.20 L 613.50 604.50 L 613.21 612.34 C 612.88 621.06 613.74 623.00 617.92 623.00 C 622.50 623.00 623.00 624.43 623.00 637.64 C 623.00 650.72 623.05 650.86 628.41 651.95 C 630.85 652.44 631.57 653.15 631.82 655.35 C 632.22 658.75 630.50 661.00 627.50 661.00 C 624.04 661.00 623.12 662.95 622.80 670.94 C 622.48 678.73 622.36 678.92 616.50 680.65 C 614.38 681.28 613.40 682.27 613.16 684.02 C 612.17 691.21 604.00 692.09 604.00 685.00 C 604.00 680.32 602.79 680.00 584.99 680.00 C 566.49 680.00 564.59 680.53 565.16 685.52 C 565.44 687.89 566.17 688.64 569.00 689.47 C 573.96 690.93 575.00 691.80 575.00 694.49 C 575.00 697.55 577.49 700.00 580.60 700.00 C 582.24 700.00 583.35 700.76 583.91 702.25 C 585.09 705.37 583.48 707.95 579.91 708.67 C 576.77 709.30 575.00 711.53 575.00 714.88 C 575.00 717.81 573.39 718.44 564.50 719.00 L 556.50 719.50 L 556.16 722.50 C 555.57 727.70 554.78 728.00 541.41 728.00 C 530.23 728.00 528.97 728.18 528.04 729.93 C 527.47 731.00 527.00 732.77 527.00 733.88 C 527.00 736.80 525.35 737.42 517.12 737.63 C 509.46 737.81 508.06 738.56 508.00 742.50 C 507.93 747.31 507.19 747.50 488.50 747.50 C 468.64 747.50 469.04 747.34 469.02 755.21 C 469.00 758.78 468.55 760.17 467.13 760.93 C 465.95 761.56 442.25 761.93 402.30 761.95 C 350.27 761.96 339.01 761.73 337.45 760.58 Z M 191.44 619.70 C 193.15 614.82 191.39 613.54 182.55 613.21 C 177.71 613.02 174.28 613.35 173.41 614.08 C 171.74 615.46 171.59 618.37 173.06 621.11 C 174.00 622.86 175.01 623.05 182.29 622.79 C 190.23 622.51 190.48 622.42 191.44 619.70 Z M 525.91 563.61 C 526.68 562.68 526.97 558.13 526.78 549.89 L 526.50 537.56 L 523.00 536.53 C 517.22 534.83 517.00 534.46 517.00 526.56 C 517.00 518.57 516.33 517.38 511.50 516.84 C 509.00 516.56 508.44 516.00 508.16 513.50 C 507.73 509.63 506.32 508.00 503.45 508.00 C 499.26 508.00 497.90 505.46 498.16 498.11 C 498.28 494.44 498.05 490.89 497.64 490.22 C 497.22 489.55 495.12 488.72 492.97 488.38 C 488.40 487.65 487.99 486.77 488.24 478.36 C 488.44 471.52 487.14 469.00 483.41 469.00 C 480.15 469.00 478.91 466.07 479.12 458.86 C 479.36 450.91 478.11 449.85 468.99 450.31 C 461.11 450.71 460.00 451.27 460.00 454.86 C 460.00 458.35 458.34 460.00 454.84 460.00 C 451.08 460.00 449.61 463.00 450.41 469.02 C 451.33 475.99 450.01 478.58 445.15 479.36 C 440.46 480.11 439.47 482.01 440.44 488.44 C 441.30 494.22 439.77 498.00 436.55 498.00 C 432.64 498.00 430.61 501.96 431.27 508.32 C 431.93 514.71 430.83 517.00 427.11 517.00 C 422.62 517.00 421.13 519.60 420.80 528.03 L 420.50 535.50 L 417.50 535.84 C 413.51 536.29 412.00 537.69 412.00 540.92 C 412.00 544.20 410.34 546.00 407.32 546.00 C 403.83 546.00 402.19 549.60 402.39 556.81 C 402.51 561.11 403.04 563.41 404.03 564.04 C 404.89 564.58 430.25 564.98 465.13 564.98 C 514.84 565.00 524.95 564.77 525.91 563.61 Z M 659.80 563.80 C 661.20 562.40 661.47 540.30 660.11 538.15 C 659.64 537.41 657.74 536.49 655.88 536.11 L 652.50 535.43 L 652.00 527.17 C 651.48 518.53 650.65 517.05 646.37 517.02 C 643.08 516.99 642.13 515.00 641.80 507.49 C 641.48 500.03 641.94 500.65 634.00 496.98 C 632.91 496.48 632.42 494.28 632.20 488.94 C 631.88 480.99 630.95 479.00 627.58 479.00 C 623.94 479.00 623.00 477.05 623.00 469.50 C 623.00 461.75 622.08 460.00 618.00 460.00 C 614.88 460.00 613.01 458.34 612.98 455.55 C 612.95 451.55 611.41 450.58 604.81 450.39 C 595.43 450.12 594.00 451.37 594.00 459.82 C 594.00 466.96 593.02 468.99 589.55 469.02 C 585.35 469.05 584.52 470.57 584.00 479.15 L 583.50 487.38 L 580.00 488.28 C 578.08 488.78 576.27 489.40 576.00 489.67 C 575.73 489.94 575.27 493.83 575.00 498.31 C 574.51 506.34 574.46 506.47 571.50 507.35 C 566.56 508.81 565.52 509.59 565.15 512.10 C 564.68 515.38 563.17 517.00 560.58 517.00 C 556.95 517.00 556.00 518.96 555.98 526.45 C 555.98 530.33 555.64 534.00 555.23 534.61 C 554.83 535.21 552.86 536.01 550.85 536.38 C 548.84 536.75 546.92 537.75 546.60 538.61 C 545.44 541.61 545.95 562.55 547.20 563.80 C 548.93 565.53 658.07 565.53 659.80 563.80 Z M 726.43 497.43 C 727.57 496.28 728.00 493.85 728.00 488.46 C 728.00 480.60 727.00 479.00 722.10 479.00 C 720.59 479.00 719.81 478.00 719.00 475.02 C 717.72 470.23 714.84 468.29 711.37 469.88 C 709.06 470.93 709.00 471.28 709.00 483.36 C 709.00 492.25 709.36 496.06 710.29 496.82 C 711.00 497.41 714.48 498.06 718.04 498.25 C 721.59 498.45 724.58 498.70 724.68 498.81 C 724.78 498.91 725.56 498.29 726.43 497.43 Z M 297.19 474.85 C 297.59 469.53 299.87 467.86 303.76 470.03 C 306.78 471.72 307.82 475.30 305.95 477.56 C 305.28 478.37 303.03 479.00 300.82 479.00 L 296.89 479.00 L 297.19 474.85 Z M 591.41 440.03 L 594.00 439.05 L 594.00 426.72 C 594.00 413.47 593.50 412.00 589.00 412.00 C 584.85 412.00 584.00 410.28 584.00 401.86 C 584.00 393.61 583.72 393.10 578.59 392.05 C 575.99 391.52 575.42 390.87 575.00 387.96 C 574.56 384.89 574.05 384.39 570.50 383.54 C 568.30 383.02 566.17 382.12 565.77 381.54 C 565.36 380.97 565.02 377.29 565.02 373.37 C 565.00 365.59 564.30 364.38 559.50 363.84 L 556.50 363.50 L 556.20 355.55 C 556.04 351.17 555.46 347.06 554.92 346.40 C 554.37 345.75 552.41 344.92 550.56 344.58 C 546.51 343.82 546.00 342.70 546.00 334.54 C 546.00 330.69 545.51 327.84 544.74 327.20 C 542.81 325.59 530.30 325.30 528.78 326.82 C 528.07 327.52 527.28 331.53 527.00 335.78 C 526.51 343.29 526.43 343.48 523.50 344.35 C 518.44 345.84 517.57 346.57 516.89 349.90 C 516.07 353.87 515.87 354.08 511.80 354.90 L 508.50 355.57 L 508.00 364.00 L 507.50 372.43 L 503.73 373.32 C 498.95 374.45 497.61 376.93 498.28 383.46 C 498.94 389.81 497.92 391.74 493.45 392.58 C 488.94 393.42 487.88 395.56 488.16 403.27 C 488.44 410.70 487.82 412.00 484.06 412.00 C 480.70 412.00 479.29 413.47 478.84 417.46 C 478.56 419.90 477.92 420.55 475.26 421.09 C 469.63 422.23 468.89 423.50 469.21 431.38 C 469.47 437.71 469.75 438.57 471.92 439.65 C 475.01 441.19 587.43 441.55 591.41 440.03 Z M 717.07 410.96 C 719.23 409.81 719.64 406.04 717.80 404.20 C 717.07 403.47 713.53 403.00 708.78 403.00 C 701.52 403.00 700.88 403.17 699.88 405.37 C 699.09 407.10 699.11 408.33 699.93 409.87 C 700.93 411.73 701.95 412.00 708.10 412.00 C 711.97 412.00 716.00 411.53 717.07 410.96 Z M 720.75 276.92 C 719.34 276.10 719.00 274.50 719.00 268.65 C 719.00 260.99 719.93 259.00 723.50 259.00 C 727.06 259.00 728.00 260.99 728.00 268.50 C 728.00 277.42 725.86 279.90 720.75 276.92 Z M 630.79 247.75 C 631.36 247.06 631.98 245.16 632.16 243.51 C 632.45 240.96 633.01 240.44 636.03 239.95 C 641.98 239.00 642.00 238.95 642.00 225.48 C 642.00 214.23 641.82 212.97 640.07 212.04 C 637.39 210.60 625.68 210.72 624.20 212.20 C 623.36 213.04 623.00 218.46 623.00 230.15 C 623.00 245.05 623.19 247.01 624.75 247.92 C 627.14 249.31 629.55 249.25 630.79 247.75 Z M 611.96 209.07 C 612.53 208.00 613.00 204.23 613.00 200.69 C 613.00 193.45 611.81 191.66 607.31 192.18 C 605.02 192.44 604.44 193.06 604.16 195.50 C 603.71 199.49 602.31 201.00 599.08 201.00 C 595.66 201.00 594.00 202.68 594.00 206.15 C 594.00 209.88 596.24 210.93 604.21 210.97 C 609.85 211.00 611.10 210.69 611.96 209.07 Z M 631.39 151.42 C 631.73 150.55 632.00 146.27 632.00 141.92 L 632.00 134.00 L 629.07 134.00 C 624.37 134.00 623.00 136.23 623.00 143.87 C 623.00 147.77 623.50 151.10 624.20 151.80 C 625.94 153.54 630.68 153.29 631.39 151.42 Z" fill="#000" fill-rule="evenodd"/></svg>
