<svg xmlns="http://www.w3.org/2000/svg" viewBox="0 0 1600 1600" width="200" height="200"><defs><clipPath id="rim"><circle cx="794.61" cy="799.60" r="712.53"/></clipPath></defs><circle cx="794.61" cy="799.60" r="723.38" fill="#f0ece3"/><path d="M 692.18 1522.98 C 683.84 1521.76 678.25 1518.28 671.26 1509.94 C 660.55 1497.16 658.40 1496.42 628.49 1495.13 C 607.02 1494.20 605.59 1493.80 592.86 1485.28 C 582.78 1478.54 578.47 1477.05 565.71 1475.93 C 549.74 1474.53 547.64 1473.81 534.85 1465.37 C 525.92 1459.47 521.54 1458.08 508.00 1456.84 C 495.05 1455.65 488.96 1453.71 480.07 1447.97 C 471.88 1442.68 465.86 1439.72 457.89 1437.10 C 448.62 1434.06 443.97 1430.82 430.91 1418.34 C 417.58 1405.59 415.05 1403.91 403.44 1399.98 C 391.33 1395.89 387.75 1393.53 374.54 1380.99 C 360.40 1367.57 358.02 1365.96 344.90 1360.96 C 329.12 1354.95 323.40 1350.20 288.68 1314.34 C 257.99 1282.64 258.30 1281.90 334.21 1208.20 C 359.20 1183.94 367.70 1183.13 388.60 1203.05 C 404.65 1218.33 412.67 1219.43 419.81 1207.32 C 426.22 1196.46 428.35 1193.94 434.32 1190.11 C 455.40 1176.58 452.19 1164.90 423.31 1150.05 C 410.74 1143.59 408.90 1137.82 416.08 1127.38 C 419.88 1121.85 556.12 985.18 565.75 977.24 C 589.95 957.28 600.28 968.52 583.92 997.00 C 581.24 1001.67 577.74 1009.34 576.16 1014.04 C 572.66 1024.39 571.44 1026.80 564.69 1036.75 C 561.58 1041.32 558.10 1048.23 556.18 1053.60 C 552.03 1065.27 549.41 1069.29 538.04 1081.50 C 515.75 1105.43 514.45 1120.42 534.00 1128.10 C 538.55 1129.89 730.66 1130.75 743.50 1129.04 C 773.06 1125.11 775.07 1093.44 747.57 1065.00 C 734.26 1051.23 731.64 1047.21 726.96 1033.39 C 725.41 1028.78 721.60 1021.16 718.18 1015.78 C 714.54 1010.07 710.83 1002.53 708.86 996.89 C 706.81 991.01 703.60 984.58 700.28 979.70 C 693.85 970.23 690.97 964.59 688.10 955.87 C 686.90 952.23 683.27 944.84 680.03 939.46 C 668.36 920.08 667.53 897.02 678.15 887.37 C 685.05 881.10 676.88 881.56 793.50 880.95 C 905.21 880.36 903.16 880.45 910.76 875.82 C 924.25 867.58 921.69 855.89 901.90 835.47 C 887.10 820.20 883.97 815.66 880.31 804.17 C 878.83 799.53 875.91 792.99 873.81 789.62 C 868.00 780.31 863.52 771.22 861.06 763.77 C 859.79 759.90 856.12 752.95 852.43 747.43 C 841.66 731.33 839.55 713.34 846.75 698.96 C 850.60 691.28 895.51 644.75 905.00 638.62 C 918.13 630.14 990.37 628.57 1008.50 636.38 C 1025.69 643.78 1030.84 643.44 1041.03 634.29 C 1053.94 622.68 1055.05 610.50 1044.60 595.23 C 1038.15 585.81 1035.94 581.52 1033.11 572.90 C 1031.91 569.27 1028.32 562.05 1025.12 556.85 C 1012.74 536.75 1011.99 517.15 1022.97 500.17 C 1032.54 485.36 1034.00 479.90 1034.00 458.87 C 1034.00 438.44 1035.42 433.45 1045.17 419.56 C 1056.27 403.76 1056.41 382.29 1045.51 366.87 C 1036.44 354.04 1035.39 351.15 1033.99 335.25 C 1032.78 321.58 1031.81 318.62 1024.64 306.77 C 1021.55 301.67 1017.28 292.88 1015.13 287.22 C 1009.70 272.89 1009.32 272.44 972.95 236.06 C 937.12 200.22 934.14 197.78 919.26 192.14 C 913.62 190.01 905.46 185.93 901.11 183.08 C 888.06 174.51 885.56 173.86 862.00 172.98 C 836.87 172.04 837.14 172.12 822.43 162.39 C 808.52 153.20 800.13 153.21 786.65 162.43 C 773.14 171.68 771.82 172.04 748.00 173.00 C 724.94 173.93 721.96 174.69 709.26 182.84 C 703.70 186.40 696.40 189.99 690.79 191.93 C 677.02 196.69 672.79 199.97 646.39 226.38 C 620.60 252.18 618.98 254.29 613.68 269.19 C 611.34 275.76 608.38 281.50 604.48 287.02 C 594.47 301.23 594.65 300.32 594.21 339.67 C 593.69 385.55 594.00 387.29 605.52 404.11 C 608.40 408.32 611.78 414.86 613.02 418.63 C 618.18 434.32 624.65 442.77 651.61 469.04 C 672.57 489.46 676.51 492.29 691.91 497.91 C 696.53 499.59 704.11 503.63 709.72 507.39 C 724.31 517.17 724.43 517.19 769.24 516.75 C 811.36 516.34 810.23 516.52 822.05 508.46 C 832.08 501.64 834.05 500.63 844.76 496.86 C 855.45 493.10 862.79 487.96 874.07 476.33 C 893.99 455.79 896.49 452.30 900.91 438.86 C 902.11 435.20 905.75 428.06 909.01 422.99 C 918.60 408.04 919.63 399.27 913.04 388.85 C 904.77 375.76 902.95 372.35 900.90 366.13 C 898.06 357.49 895.11 351.68 889.41 343.53 C 886.85 339.87 883.23 332.97 881.35 328.20 C 875.48 313.23 872.56 310.52 855.95 304.61 C 853.44 303.71 847.83 300.73 843.46 297.98 C 823.48 285.36 804.87 284.90 786.79 296.57 C 777.94 302.29 775.72 303.39 765.85 306.99 C 731.50 319.50 721.50 346.74 743.26 368.48 C 758.84 384.05 768.01 384.68 787.62 371.53 C 801.58 362.17 813.77 363.66 825.63 376.20 C 839.76 391.15 837.74 399.36 814.17 422.78 C 796.74 440.10 792.56 441.34 753.47 440.80 C 717.70 440.30 716.95 440.00 693.94 417.03 C 672.48 395.63 671.15 392.55 670.31 362.50 C 669.04 316.95 669.23 316.49 703.92 282.22 C 731.83 254.64 733.37 253.45 748.47 247.97 C 754.12 245.91 762.32 241.94 766.69 239.14 C 780.52 230.26 779.21 230.50 815.00 230.50 C 850.86 230.50 847.50 229.84 864.78 240.26 C 869.89 243.34 877.09 246.85 880.78 248.07 C 894.38 252.54 896.18 253.93 923.34 280.87 C 956.98 314.24 957.27 314.68 959.01 334.76 C 960.22 348.68 961.73 353.73 967.22 362.19 C 981.13 383.64 981.59 419.64 968.22 440.71 C 965.15 445.56 961.12 453.77 959.26 459.00 C 953.77 474.40 955.62 472.38 852.04 576.10 C 743.43 684.85 746.84 681.77 737.96 679.11 C 732.46 677.46 730.08 673.02 728.36 661.20 C 726.27 646.89 724.71 642.47 718.18 632.28 C 714.67 626.81 710.96 619.32 709.04 613.81 C 704.17 599.86 702.47 597.86 655.65 551.09 C 609.80 505.29 607.29 503.17 593.14 498.11 C 588.24 496.35 580.14 492.30 575.16 489.10 C 561.11 480.09 564.78 480.50 497.50 480.50 C 431.23 480.50 436.05 479.90 420.25 490.17 C 416.82 492.40 409.33 495.93 403.63 498.00 C 396.40 500.62 390.36 503.74 383.73 508.26 C 376.81 512.99 371.63 515.62 364.75 517.92 C 351.38 522.37 347.50 525.15 329.98 542.83 C 313.59 559.37 311.42 562.53 305.36 578.50 C 303.90 582.35 300.48 588.99 297.76 593.25 C 287.94 608.63 288.55 603.97 288.20 666.00 C 287.76 742.99 284.96 734.17 321.39 770.61 C 349.14 798.37 351.64 800.31 365.57 805.02 C 370.57 806.71 377.66 810.15 381.95 812.96 C 393.54 820.56 397.14 821.80 412.10 823.38 C 425.21 824.76 427.01 825.26 441.92 831.52 C 449.86 834.85 452.33 834.60 465.17 829.10 C 473.69 825.45 476.47 824.78 488.42 823.53 C 503.57 821.93 507.03 820.74 519.26 812.90 C 523.58 810.12 531.20 806.34 536.19 804.48 C 548.75 799.81 554.00 796.01 570.46 779.69 C 592.55 757.78 592.97 756.64 592.97 719.00 C 592.97 686.25 592.89 685.88 581.71 667.66 C 579.74 664.45 576.73 657.98 575.03 653.27 C 570.10 639.64 567.27 636.96 552.16 631.59 C 548.12 630.15 541.70 626.97 537.91 624.51 C 521.88 614.14 519.71 613.72 484.47 614.16 C 450.58 614.59 450.28 614.69 431.85 632.72 C 409.26 654.82 406.84 661.93 417.76 674.08 C 429.43 687.06 433.31 688.18 469.50 689.03 C 500.93 689.78 503.93 690.24 509.68 695.29 C 526.50 710.06 508.89 737.38 474.75 749.48 C 472.14 750.41 466.52 753.44 462.25 756.23 C 443.97 768.19 437.12 768.12 418.85 755.74 C 415.19 753.26 408.01 749.74 402.90 747.91 C 383.12 740.84 369.40 727.29 363.50 709.00 C 361.22 701.95 358.59 696.67 354.45 690.84 C 344.36 676.66 343.58 667.44 351.41 655.00 C 353.31 651.98 356.07 647.57 357.55 645.21 C 359.03 642.85 361.73 636.89 363.56 631.97 C 368.89 617.65 381.51 602.54 410.70 575.52 C 433.71 554.22 430.28 555.01 500.00 555.03 C 570.15 555.05 561.89 552.38 596.38 586.16 C 623.93 613.15 627.42 617.58 632.88 632.42 C 635.06 638.35 638.85 646.23 641.31 649.92 C 652.25 666.38 652.23 666.22 651.75 722.54 C 651.33 771.93 651.45 770.90 644.86 781.11 C 638.46 791.03 229.34 1199.74 222.50 1203.05 C 207.91 1210.10 197.19 1204.45 190.58 1186.25 C 188.81 1181.37 184.85 1173.62 181.63 1168.73 C 178.45 1163.90 174.52 1156.33 172.91 1151.91 C 169.13 1141.56 166.77 1136.97 161.17 1129.11 C 158.43 1125.26 154.93 1118.24 152.38 1111.46 C 150.04 1105.26 145.80 1096.47 142.95 1091.92 C 140.10 1087.37 136.05 1079.03 133.96 1073.40 C 131.54 1066.86 128.00 1059.95 124.19 1054.33 C 116.78 1043.38 115.36 1039.22 114.11 1024.78 C 112.96 1011.54 111.63 1007.66 104.29 996.00 C 96.06 982.94 95.88 981.98 95.06 947.00 C 94.66 930.23 93.99 915.60 93.57 914.50 C 93.14 913.40 90.14 906.88 86.90 900.00 C 78.89 883.01 79.07 885.42 79.04 794.00 C 79.01 703.87 78.77 707.10 86.91 690.50 C 93.08 677.95 94.44 672.96 95.51 659.16 C 97.48 633.59 112.58 626.71 135.83 640.80 C 159.68 655.26 185.43 647.56 163.72 632.45 C 145.57 619.83 123.02 593.26 123.02 584.50 C 123.02 577.93 133.58 564.59 143.00 559.27 C 163.27 547.82 163.71 546.94 157.45 530.74 C 148.23 506.85 150.49 477.04 162.93 458.60 C 165.76 454.41 169.66 446.83 171.59 441.74 C 176.45 428.99 178.33 426.08 190.56 412.43 C 203.50 397.99 205.31 395.24 210.06 382.72 C 215.58 368.15 213.95 369.96 292.45 291.37 C 369.20 214.54 368.22 215.42 383.62 209.69 C 394.57 205.62 398.28 203.13 412.67 190.21 C 425.47 178.72 429.01 176.45 441.56 171.66 C 446.55 169.76 454.71 165.53 459.70 162.25 C 464.69 158.98 473.21 154.58 478.63 152.49 C 484.06 150.39 492.54 146.18 497.49 143.13 C 502.43 140.08 510.20 136.33 514.76 134.80 C 525.00 131.36 528.61 129.54 538.04 123.04 C 546.89 116.95 551.78 115.42 566.80 114.07 C 579.51 112.92 582.77 111.75 594.38 104.16 C 606.55 96.19 608.08 95.90 642.50 95.03 C 676.54 94.18 676.12 94.26 689.04 85.98 C 704.92 75.79 695.72 76.60 799.50 76.22 C 909.54 75.82 904.90 75.41 922.01 87.09 C 931.49 93.56 934.24 94.19 956.66 95.04 C 980.43 95.94 984.18 96.83 996.00 104.28 C 1007.49 111.53 1011.43 112.91 1023.86 114.04 C 1039.79 115.49 1043.13 116.54 1053.35 123.37 C 1062.67 129.59 1065.02 130.78 1077.50 135.61 C 1081.35 137.10 1088.07 140.55 1092.43 143.28 C 1096.79 146.01 1105.08 149.99 1110.86 152.13 C 1116.97 154.40 1124.44 158.11 1128.70 161.01 C 1137.75 167.15 1143.52 170.07 1152.25 172.94 C 1156.05 174.19 1163.27 177.98 1168.73 181.58 C 1174.94 185.67 1181.35 188.94 1186.48 190.63 C 1201.44 195.57 1202.91 196.67 1228.31 221.87 C 1253.05 246.43 1256.95 251.14 1261.48 262.00 C 1265.00 270.42 1265.92 271.35 1273.71 274.47 C 1285.63 279.24 1291.35 284.31 1340.80 333.90 C 1402.31 395.59 1399.43 391.26 1399.39 422.00 C 1399.36 442.81 1398.37 447.12 1391.06 458.31 C 1378.40 477.71 1379.38 486.79 1395.33 497.82 C 1404.73 504.32 1406.25 507.60 1401.75 511.70 C 1397.53 515.55 1392.29 516.46 1365.49 517.99 C 1335.03 519.73 1329.74 523.81 1336.60 540.27 C 1342.82 555.21 1340.75 564.63 1328.94 575.13 C 1318.30 584.58 1318.56 586.48 1331.85 596.33 C 1358.21 615.88 1355.35 635.44 1327.36 627.11 C 1307.85 621.30 1304.92 625.63 1304.26 661.20 C 1303.70 691.47 1305.14 697.81 1313.92 703.73 C 1322.54 709.53 1332.15 706.32 1347.45 692.52 C 1363.16 678.36 1368.67 676.54 1380.50 681.63 C 1383.80 683.04 1391.46 686.10 1397.53 688.42 C 1403.73 690.79 1411.82 694.84 1416.03 697.67 C 1437.43 712.09 1449.72 709.33 1457.43 688.40 C 1468.41 658.62 1495.75 643.19 1510.19 658.63 C 1520.57 669.74 1514.75 683.59 1497.23 689.42 C 1476.34 696.38 1475.72 697.76 1475.58 737.39 C 1475.47 772.12 1475.46 772.16 1465.53 786.41 C 1458.49 796.52 1456.40 802.25 1455.02 815.11 C 1452.69 836.95 1448.91 840.11 1424.00 841.07 C 1390.49 842.37 1386.32 847.40 1396.75 873.89 C 1403.93 892.14 1407.29 896.08 1419.48 900.52 C 1423.85 902.12 1431.49 906.11 1436.46 909.39 C 1442.10 913.11 1449.34 916.77 1455.70 919.09 C 1461.31 921.14 1466.49 923.15 1467.20 923.56 C 1467.92 923.97 1472.33 926.67 1477.00 929.56 C 1481.95 932.63 1489.54 936.17 1495.17 938.04 C 1522.41 947.07 1522.78 967.49 1495.89 977.49 C 1477.64 984.27 1475.44 987.91 1475.79 1010.74 C 1476.22 1038.20 1473.84 1046.08 1461.37 1058.58 C 1442.69 1077.30 1423.76 1076.31 1416.55 1056.21 C 1410.24 1038.62 1404.20 1030.34 1395.86 1027.84 C 1384.64 1024.48 1380.98 1035.37 1388.09 1051.00 C 1391.43 1058.34 1391.49 1058.74 1391.23 1070.27 C 1390.85 1086.65 1392.11 1088.27 1408.66 1092.57 C 1427.00 1097.33 1427.50 1102.96 1410.47 1113.00 C 1402.45 1117.72 1375.10 1144.91 1372.17 1151.07 C 1369.71 1156.25 1369.42 1162.12 1371.17 1171.62 C 1372.16 1176.99 1372.06 1179.49 1370.52 1187.88 C 1368.84 1197.07 1368.81 1198.46 1370.23 1206.97 C 1371.95 1217.32 1371.46 1221.19 1367.41 1229.18 C 1366.01 1231.95 1363.29 1238.78 1361.36 1244.36 C 1352.61 1269.74 1317.72 1302.42 1302.43 1299.55 C 1293.44 1297.87 1292.00 1291.71 1297.51 1278.41 C 1304.88 1260.60 1305.46 1211.28 1298.43 1199.29 C 1291.90 1188.15 1279.73 1188.00 1263.78 1198.87 C 1259.69 1201.66 1252.42 1205.43 1247.62 1207.26 C 1226.57 1215.28 1223.21 1226.93 1236.57 1245.65 C 1243.41 1255.23 1244.92 1259.45 1246.08 1272.20 C 1247.33 1285.93 1248.14 1289.23 1252.78 1299.50 C 1257.73 1310.46 1257.65 1314.76 1252.31 1326.50 C 1250.05 1331.45 1247.43 1337.97 1246.47 1341.00 C 1238.50 1366.13 1223.06 1375.41 1203.28 1366.96 C 1191.71 1362.01 1186.64 1361.00 1173.61 1361.01 C 1141.81 1361.03 1135.13 1368.50 1149.69 1387.78 C 1167.53 1411.40 1161.40 1427.06 1129.91 1438.28 C 1124.64 1440.16 1117.52 1443.61 1114.08 1445.94 C 1103.98 1452.81 1098.13 1455.03 1087.26 1456.14 C 1071.76 1457.72 1066.30 1459.05 1060.44 1462.65 C 1057.45 1464.49 1052.47 1467.56 1049.38 1469.46 C 1046.28 1471.36 1040.77 1473.90 1037.13 1475.10 C 1028.45 1477.95 1023.00 1480.73 1014.18 1486.81 C 1004.50 1493.48 998.85 1494.78 977.00 1495.41 C 952.20 1496.12 948.45 1497.53 938.62 1509.85 C 932.15 1517.96 926.02 1521.57 916.39 1522.96 C 908.23 1524.14 700.29 1524.16 692.18 1522.98 Z M 1038.27 1128.04 C 1057.32 1121.01 1059.27 1095.63 1042.64 1071.21 C 1039.39 1066.43 1035.97 1059.67 1033.93 1053.95 C 1029.86 1042.56 1026.32 1037.24 1014.18 1024.24 C 1002.17 1011.37 1000.54 1008.88 996.01 996.41 C 993.45 989.35 990.30 983.20 986.13 977.10 C 982.13 971.26 978.93 965.10 976.91 959.33 C 973.78 950.39 971.25 945.27 964.70 934.62 C 962.71 931.39 959.69 925.10 957.99 920.65 C 946.31 890.07 915.19 900.96 900.83 940.66 C 899.06 945.54 895.41 952.66 892.48 956.94 C 886.15 966.19 883.93 970.51 881.10 979.12 C 879.90 982.76 876.02 990.62 872.47 996.59 C 868.92 1002.55 865.05 1010.37 863.87 1013.97 C 861.09 1022.44 858.72 1027.14 853.52 1034.50 C 848.22 1042.01 846.63 1045.10 843.39 1054.22 C 839.60 1064.89 837.38 1068.22 824.58 1082.48 C 801.57 1108.10 802.33 1125.30 826.62 1128.91 C 837.17 1130.48 1033.86 1129.67 1038.27 1128.04 Z M 1299.31 1128.98 C 1322.86 1125.57 1328.84 1099.34 1312.03 1073.14 C 1308.97 1068.37 1305.07 1060.31 1302.85 1054.18 C 1300.42 1047.46 1297.00 1040.53 1293.62 1035.50 C 1287.00 1025.64 1286.79 1025.23 1283.04 1014.93 C 1281.36 1010.34 1277.24 1002.42 1273.89 997.34 C 1269.97 991.38 1266.45 984.39 1264.00 977.63 C 1261.91 971.87 1258.15 964.00 1255.65 960.12 C 1249.59 950.75 1248.47 948.49 1244.86 938.26 C 1238.30 919.68 1221.39 904.00 1207.91 904.00 C 1197.92 904.00 1194.33 907.22 1188.08 921.78 C 1186.02 926.58 1181.60 934.65 1178.26 939.72 C 1174.15 945.96 1171.17 951.98 1169.05 958.36 C 1167.02 964.43 1163.80 971.08 1160.00 977.00 C 1156.24 982.86 1152.97 989.57 1151.01 995.47 C 1146.95 1007.66 1144.39 1011.47 1130.70 1025.70 C 1118.97 1037.90 1114.52 1044.64 1112.00 1054.01 C 1110.49 1059.61 1106.86 1066.82 1101.77 1074.33 C 1085.18 1098.79 1091.75 1125.93 1115.00 1129.01 C 1123.56 1130.14 1291.44 1130.11 1299.31 1128.98 Z M 1446.49 991.14 C 1459.39 983.61 1454.99 963.62 1438.05 952.83 C 1427.02 945.80 1419.00 953.02 1419.00 970.00 C 1419.00 988.60 1432.75 999.17 1446.49 991.14 Z M 1171.50 879.11 C 1189.34 873.27 1192.86 845.88 1178.42 825.23 C 1172.67 817.00 1171.30 814.27 1167.89 804.16 C 1163.82 792.13 1161.27 788.35 1148.02 774.60 C 1136.08 762.22 1132.87 757.44 1129.50 747.00 C 1127.25 740.02 1125.10 735.77 1119.34 726.86 C 1116.80 722.93 1113.20 715.47 1111.35 710.29 C 1107.36 699.13 1106.43 697.25 1100.01 687.42 C 1097.32 683.29 1094.19 677.44 1093.05 674.41 C 1083.49 648.86 1063.99 646.74 1055.01 670.29 C 1050.46 682.23 1048.18 685.62 1035.90 698.71 C 1023.22 712.22 1021.07 715.50 1015.80 729.39 C 1013.70 734.93 1010.01 742.43 1007.61 746.05 C 1001.90 754.63 999.26 759.89 996.34 768.48 C 994.95 772.56 991.22 779.55 987.45 785.15 C 983.07 791.64 979.99 797.62 978.04 803.40 C 973.54 816.69 970.49 821.31 956.65 835.78 C 944.15 848.85 939.00 856.38 939.03 861.50 C 939.07 867.94 947.64 877.88 954.84 879.84 C 960.80 881.46 1166.44 880.77 1171.50 879.11 Z M 1265.08 483.96 C 1290.97 470.75 1288.10 420.41 1261.75 425.39 C 1249.58 427.69 1245.54 438.48 1247.10 464.50 C 1248.23 483.29 1254.05 489.59 1265.08 483.96 Z M 1215.30 414.80 C 1217.72 413.56 1220.99 408.05 1221.00 405.20 C 1221.01 395.86 1211.82 393.25 1204.53 400.53 C 1195.24 409.83 1203.55 420.83 1215.30 414.80 Z" fill="#000" fill-rule="evenodd" clip-path="url(#rim)"/></svg>
