<svg xmlns="http://www.w3.org/2000/svg" viewBox="0 0 1600 1600" width="200" height="200"><defs><clipPath id="rim"><circle cx="794.61" cy="799.60" r="712.53"/></clipPath></defs><circle cx="794.61" cy="799.60" r="723.38" fill="#f0ece3"/><path d="M 692.18 1522.98 C 683.86 1521.76 678.25 1518.28 671.31 1510.00 C 660.60 1497.23 657.75 1496.21 629.72 1495.12 C 606.78 1494.23 605.77 1493.95 592.57 1485.05 C 582.74 1478.41 578.91 1477.12 565.50 1475.91 C 551.70 1474.66 546.98 1473.13 537.26 1466.75 C 526.62 1459.77 521.62 1458.07 508.11 1456.84 C 494.94 1455.64 488.97 1453.73 479.85 1447.81 C 473.07 1443.40 461.95 1438.00 459.66 1438.00 C 454.92 1438.00 443.42 1430.28 432.19 1419.56 C 418.29 1406.29 415.21 1404.19 403.66 1400.11 C 379.39 1391.55 367.72 1376.20 374.65 1361.95 C 377.63 1355.80 659.38 1072.49 672.00 1062.95 C 681.67 1055.63 684.52 1054.90 707.00 1053.99 C 729.92 1053.06 729.62 1053.11 742.47 1047.20 C 755.64 1041.15 758.37 1041.17 771.31 1047.44 C 780.05 1051.68 782.22 1052.30 791.31 1053.17 C 817.15 1055.66 816.82 1055.43 859.54 1098.45 C 895.81 1134.97 897.21 1136.72 901.96 1151.24 C 903.17 1154.95 906.44 1161.48 909.24 1165.74 C 919.54 1181.48 919.50 1181.33 919.48 1207.00 C 919.46 1232.83 919.45 1232.86 910.52 1246.42 C 907.45 1251.09 903.42 1258.96 901.58 1263.92 C 896.15 1278.54 894.25 1280.96 866.61 1308.60 C 831.60 1343.60 834.30 1342.41 791.08 1341.77 C 757.24 1341.27 757.68 1341.42 739.20 1324.35 C 726.36 1312.50 715.25 1299.64 712.10 1293.00 C 708.20 1284.74 708.01 1227.52 711.87 1219.68 C 724.56 1193.91 763.68 1217.51 767.10 1253.00 C 769.40 1276.91 774.74 1282.34 796.02 1282.44 C 817.32 1282.55 834.97 1268.33 842.50 1245.00 C 844.88 1237.63 846.89 1233.77 852.92 1225.01 C 862.79 1210.69 862.54 1203.03 851.70 1187.20 C 848.68 1182.80 844.57 1174.91 842.48 1169.53 C 832.90 1144.80 803.58 1115.98 785.00 1113.04 C 776.81 1111.75 717.49 1111.69 709.68 1112.96 C 691.76 1115.90 659.83 1146.96 651.88 1169.18 C 650.08 1174.23 646.37 1181.77 643.64 1185.93 C 632.88 1202.37 633.54 1198.25 633.17 1250.50 C 632.72 1312.38 632.34 1310.68 651.34 1330.79 C 664.20 1344.39 667.16 1348.62 671.19 1359.17 C 675.54 1370.59 678.96 1373.94 691.94 1379.55 C 704.14 1384.81 705.95 1386.10 720.32 1399.69 C 739.04 1417.39 738.21 1417.21 799.27 1416.80 C 851.73 1416.45 848.36 1416.94 862.97 1407.54 C 867.08 1404.90 874.99 1401.04 880.57 1398.98 C 895.35 1393.49 897.08 1392.13 924.85 1364.10 C 951.45 1337.26 953.71 1334.41 957.64 1322.77 C 960.08 1315.59 961.98 1311.79 969.92 1298.36 C 974.99 1289.76 976.40 1282.56 977.88 1257.73 C 978.95 1239.53 980.07 1235.57 986.98 1225.53 C 996.64 1211.48 996.45 1204.30 985.96 1187.94 C 974.35 1169.83 972.45 1140.30 981.40 1117.11 C 987.26 1101.95 986.22 1099.05 972.20 1091.61 C 961.64 1086.00 948.15 1074.02 917.75 1043.23 C 898.08 1023.31 893.87 1020.20 880.11 1015.39 C 871.48 1012.37 866.79 1007.48 862.41 996.92 C 855.24 979.61 852.22 978.35 815.00 977.16 C 781.98 976.11 775.83 973.80 777.28 962.96 C 778.28 955.49 783.89 949.51 880.20 853.28 C 986.26 747.31 980.88 752.26 995.77 746.86 C 1001.77 744.68 1009.65 740.86 1013.94 738.05 C 1028.88 728.26 1027.53 728.54 1060.71 728.18 C 1096.00 727.80 1098.07 728.16 1111.55 737.04 C 1117.29 740.82 1124.41 744.38 1131.05 746.79 C 1137.32 749.07 1144.50 752.61 1149.00 755.65 C 1158.40 761.99 1160.81 763.22 1171.11 766.98 C 1189.30 773.62 1201.57 785.92 1207.54 803.50 C 1210.61 812.55 1213.05 817.71 1217.00 823.50 C 1229.10 841.25 1227.09 852.47 1209.85 863.36 C 1196.51 871.80 1196.80 876.79 1211.66 894.50 C 1232.48 919.30 1231.78 942.76 1209.55 965.97 C 1195.83 980.29 1193.31 983.73 1189.55 993.28 C 1183.33 1009.11 1181.01 1011.53 1166.88 1016.93 C 1162.48 1018.61 1155.76 1022.00 1151.94 1024.47 C 1137.42 1033.86 1133.05 1035.00 1111.50 1035.00 C 1082.96 1035.00 1082.58 1034.80 1049.97 1002.39 C 1014.72 967.37 1010.13 956.32 1015.96 920.68 C 1018.97 902.31 1051.79 867.77 1069.24 864.59 C 1092.66 860.34 1100.86 893.23 1083.07 920.06 C 1071.36 937.72 1072.60 947.84 1088.32 962.67 C 1108.69 981.88 1133.04 973.05 1159.63 936.82 C 1168.37 924.92 1172.97 876.99 1167.12 858.85 C 1161.63 841.80 1131.74 813.31 1111.05 805.40 C 1105.80 803.39 1098.24 799.57 1094.25 796.90 C 1071.94 781.96 1054.87 781.91 1032.89 796.75 C 1028.83 799.49 1022.35 802.93 1018.50 804.40 C 995.10 813.28 983.76 824.20 977.07 844.28 C 975.36 849.41 971.98 856.80 969.56 860.69 C 963.60 870.27 960.70 876.20 958.02 884.37 C 956.78 888.14 953.40 894.68 950.52 898.89 C 939.96 914.31 938.43 920.44 939.28 944.00 C 939.91 961.42 940.87 964.55 949.50 977.46 C 953.90 984.04 956.74 989.70 958.92 996.27 C 960.90 1002.21 964.25 1009.13 968.02 1015.08 C 971.41 1020.45 975.12 1027.94 976.63 1032.50 C 983.47 1053.15 995.34 1065.52 1014.53 1072.01 C 1024.36 1075.33 1025.30 1075.81 1035.50 1082.62 C 1039.90 1085.56 1047.24 1089.33 1051.82 1090.99 C 1061.82 1094.64 1066.65 1097.05 1072.84 1101.45 C 1091.55 1114.75 1129.56 1115.19 1148.55 1102.31 C 1160.28 1094.36 1163.28 1093.41 1184.20 1091.06 C 1197.34 1089.59 1200.07 1087.78 1223.87 1064.94 C 1254.98 1035.06 1254.64 1035.25 1280.00 1033.94 C 1310.23 1032.37 1314.09 1028.70 1306.75 1008.46 C 1303.50 999.50 1303.50 999.50 1303.40 927.00 C 1303.28 836.60 1303.63 839.76 1291.74 822.12 C 1288.87 817.87 1285.19 810.44 1283.06 804.62 C 1280.74 798.28 1277.09 791.06 1273.27 785.28 C 1269.11 778.97 1266.18 773.05 1264.00 766.51 C 1259.34 752.52 1255.82 748.09 1227.71 720.84 C 1201.19 695.13 1199.57 693.90 1186.50 689.56 C 1182.10 688.10 1174.45 684.47 1169.50 681.50 C 1156.76 673.85 1154.24 673.00 1139.81 671.48 C 1125.85 670.01 1119.79 667.93 1111.14 661.63 C 1098.72 652.59 1094.03 651.73 1060.00 652.25 C 1029.57 652.72 1029.73 652.68 1016.82 661.20 C 1005.92 668.37 999.83 670.50 987.50 671.44 C 974.97 672.38 970.00 674.02 958.50 680.95 C 952.80 684.39 944.57 688.30 939.34 690.04 C 934.31 691.73 928.01 694.54 925.34 696.29 C 922.68 698.05 784.82 835.16 618.98 1000.99 C 320.76 1299.20 311.77 1308.09 305.08 1311.49 C 290.55 1318.88 269.22 1301.15 270.16 1282.48 C 270.76 1270.52 253.21 1288.62 623.34 918.50 C 813.10 728.75 972.79 568.83 978.21 563.12 C 989.46 551.28 991.89 547.53 996.63 534.78 C 1000.36 524.77 1003.61 520.01 1015.96 506.57 C 1032.13 488.94 1032.97 486.76 1034.03 459.50 C 1035.00 434.80 1035.34 433.57 1045.18 419.55 C 1057.00 402.71 1056.56 383.90 1043.90 364.34 C 1036.03 352.19 1035.27 349.99 1034.00 335.50 C 1032.82 322.01 1031.91 318.82 1027.01 310.96 C 1020.91 301.17 1016.97 293.24 1014.33 285.50 C 1010.51 274.28 1006.80 269.84 972.71 235.79 C 937.19 200.30 934.09 197.76 919.49 192.23 C 913.98 190.14 905.57 185.89 900.79 182.78 C 887.95 174.40 885.80 173.86 862.00 172.99 C 838.25 172.11 836.78 171.73 823.50 163.01 C 807.89 152.76 799.75 152.86 785.00 163.50 C 774.10 171.35 771.34 172.06 747.50 173.01 C 724.26 173.95 722.34 174.44 708.96 183.02 C 703.91 186.26 696.80 189.88 693.14 191.08 C 677.56 196.17 674.40 198.54 647.37 225.47 C 620.55 252.18 619.03 254.15 613.68 269.19 C 611.34 275.76 608.38 281.50 604.48 287.02 C 594.47 301.23 594.65 300.32 594.21 339.67 C 593.69 385.55 594.00 387.29 605.52 404.11 C 608.40 408.32 611.78 414.86 613.02 418.63 C 618.24 434.48 627.25 445.87 657.11 474.33 C 672.43 488.94 677.51 492.58 688.00 496.50 C 698.00 500.23 703.56 503.07 711.16 508.33 C 723.16 516.63 722.29 516.50 767.00 516.50 C 811.67 516.50 809.84 516.76 821.85 508.54 C 831.52 501.93 834.05 500.63 844.66 496.89 C 864.75 489.79 892.43 461.63 900.39 440.17 C 902.30 435.04 906.11 427.39 908.88 423.17 C 918.56 408.41 919.66 399.32 913.05 388.87 C 904.72 375.68 903.09 372.54 900.04 363.79 C 897.89 357.62 894.76 351.49 890.72 345.52 C 887.37 340.58 883.12 332.71 881.29 328.03 C 875.47 313.22 872.55 310.53 855.82 304.56 C 853.24 303.64 848.39 301.11 845.03 298.94 C 823.78 285.20 805.54 284.46 786.79 296.57 C 777.94 302.29 775.72 303.39 765.85 306.99 C 731.49 319.50 721.46 346.78 743.26 368.44 C 758.55 383.63 768.44 384.45 787.00 372.04 C 804.53 360.33 823.75 366.10 832.76 385.79 C 839.58 400.68 809.71 435.67 786.57 439.91 C 779.08 441.28 735.08 441.34 727.89 439.99 C 705.13 435.70 673.26 400.69 671.02 377.50 C 665.96 325.16 668.82 316.86 703.90 282.22 C 731.84 254.63 733.39 253.44 748.47 247.97 C 754.12 245.91 762.32 241.94 766.69 239.14 C 779.92 230.65 779.79 230.68 810.98 230.23 C 846.87 229.71 848.86 230.12 867.85 241.95 C 871.34 244.12 877.73 247.08 882.04 248.51 C 894.18 252.56 899.65 256.92 926.15 283.64 C 957.13 314.89 957.30 315.16 959.00 334.45 C 960.21 348.32 961.87 353.95 967.14 362.07 C 981.28 383.86 981.64 419.73 967.94 441.09 C 964.24 446.86 960.96 453.61 959.01 459.47 C 957.32 464.56 954.58 470.84 952.94 473.43 C 948.56 480.33 755.66 673.05 749.69 676.49 C 737.17 683.70 730.54 678.44 728.00 659.29 C 726.39 647.10 724.68 642.41 718.10 632.15 C 714.82 627.04 710.76 619.06 709.08 614.42 C 703.57 599.17 704.17 599.89 655.64 551.35 C 607.06 502.75 607.89 503.46 592.53 497.90 C 587.86 496.21 581.31 493.06 577.98 490.91 C 560.46 479.58 562.20 479.81 494.50 480.19 C 431.59 480.54 435.96 479.95 420.25 490.17 C 416.82 492.40 409.33 495.93 403.63 498.00 C 396.40 500.62 390.36 503.74 383.73 508.26 C 376.81 512.99 371.63 515.62 364.75 517.92 C 351.38 522.37 347.50 525.15 329.98 542.83 C 313.59 559.37 311.42 562.53 305.36 578.50 C 303.90 582.35 300.48 588.99 297.76 593.25 C 287.94 608.63 288.55 603.97 288.20 666.00 C 287.76 743.01 284.96 734.19 321.39 770.60 C 349.13 798.33 351.71 800.34 365.57 805.02 C 370.57 806.71 377.66 810.15 381.95 812.96 C 393.61 820.60 397.20 821.83 412.36 823.43 C 424.34 824.69 427.08 825.35 435.72 829.05 C 448.67 834.60 451.13 834.86 459.08 831.52 C 462.61 830.04 467.66 827.95 470.31 826.89 C 473.05 825.79 480.78 824.36 488.31 823.55 C 503.56 821.92 507.09 820.82 518.86 814.03 C 523.61 811.29 529.99 808.20 533.02 807.16 C 545.97 802.72 559.53 792.17 578.70 771.62 C 591.74 757.65 593.01 752.90 592.98 718.11 C 592.96 686.34 592.85 685.81 581.67 667.60 C 579.68 664.36 577.31 659.63 576.40 657.10 C 570.23 639.97 567.88 637.43 553.33 632.16 C 548.83 630.53 541.97 627.14 538.08 624.62 C 522.56 614.58 519.84 614.00 488.50 614.00 C 451.84 614.00 450.10 614.63 429.37 635.37 C 408.03 656.72 406.49 663.21 419.61 676.40 C 430.46 687.29 433.81 688.12 470.00 688.93 C 502.06 689.65 504.21 690.02 510.37 695.80 C 524.23 708.81 510.04 735.09 483.31 745.93 C 469.30 751.61 467.60 752.45 461.18 756.83 C 445.19 767.76 436.99 767.84 421.30 757.21 C 413.80 752.13 409.06 749.79 400.73 747.05 C 383.86 741.50 369.14 726.46 363.50 709.00 C 361.20 701.88 359.07 697.71 352.99 688.38 C 343.46 673.79 343.82 664.81 354.50 650.00 C 358.72 644.15 360.32 640.93 363.93 631.03 C 368.75 617.81 380.59 603.73 409.69 576.56 C 433.75 554.11 429.99 555.02 499.00 555.01 C 570.50 555.01 562.12 552.20 598.39 588.37 C 626.37 616.27 627.33 617.52 633.04 633.30 C 634.79 638.13 638.41 645.43 641.09 649.54 C 652.19 666.54 652.25 667.00 651.76 723.53 C 651.27 780.10 653.29 774.82 619.12 808.96 C 591.64 836.41 587.75 838.14 570.88 830.37 C 545.48 818.65 532.03 832.87 543.43 859.40 C 548.27 870.68 548.10 875.25 542.50 883.74 C 537.00 892.07 228.92 1199.98 223.11 1202.94 C 208.42 1210.44 197.28 1204.72 190.58 1186.25 C 188.81 1181.37 184.85 1173.62 181.63 1168.73 C 178.45 1163.90 174.52 1156.33 172.91 1151.91 C 169.19 1141.73 167.16 1137.78 161.00 1128.68 C 158.11 1124.43 154.40 1116.96 152.13 1110.86 C 149.99 1105.08 145.88 1096.60 143.00 1092.00 C 140.12 1087.40 136.05 1079.03 133.96 1073.40 C 131.54 1066.86 128.00 1059.95 124.19 1054.33 C 116.79 1043.39 115.43 1039.41 114.06 1024.66 C 112.80 1011.12 111.60 1007.60 104.29 996.00 C 96.11 983.02 95.91 981.97 95.03 947.00 C 94.19 913.36 94.50 915.16 86.62 899.00 C 78.87 883.13 79.04 885.46 79.03 794.50 C 79.01 704.42 78.83 706.90 86.47 691.50 C 89.47 685.45 92.46 679.15 93.12 677.50 C 93.90 675.55 94.58 663.62 95.05 643.50 C 95.89 607.95 96.13 606.63 104.17 594.38 C 111.04 583.91 112.84 578.85 114.03 566.70 C 115.54 551.28 116.69 547.53 122.64 538.80 C 129.35 528.95 131.33 525.06 135.10 514.37 C 136.76 509.68 140.53 501.94 143.49 497.17 C 146.45 492.40 150.24 484.79 151.91 480.25 C 155.69 470.00 157.04 467.37 163.26 458.12 C 166.00 454.07 169.53 447.18 171.12 442.83 C 175.86 429.84 178.28 426.03 190.05 412.97 C 203.95 397.54 205.09 395.82 209.89 383.16 C 215.61 368.09 213.65 370.27 292.45 291.37 C 369.20 214.54 368.22 215.42 383.62 209.69 C 394.50 205.65 398.11 203.23 412.92 190.05 C 425.95 178.45 429.18 176.37 441.00 171.91 C 445.68 170.15 453.20 166.32 457.73 163.39 C 468.19 156.63 470.01 155.70 480.12 152.01 C 484.70 150.34 492.41 146.46 497.26 143.39 C 502.15 140.29 510.24 136.33 515.39 134.51 C 526.49 130.60 527.28 130.19 537.28 123.36 C 546.50 117.06 551.67 115.43 566.80 114.07 C 579.51 112.92 582.77 111.75 594.38 104.16 C 606.55 96.19 608.08 95.90 642.50 95.03 C 676.54 94.18 676.12 94.26 689.04 85.98 C 704.92 75.79 695.72 76.60 799.50 76.22 C 909.54 75.82 904.90 75.41 922.01 87.09 C 931.49 93.56 934.24 94.19 956.66 95.04 C 980.43 95.94 984.18 96.83 996.00 104.28 C 1007.49 111.53 1011.43 112.91 1023.86 114.04 C 1039.79 115.49 1043.13 116.54 1053.35 123.37 C 1062.67 129.59 1065.02 130.78 1077.50 135.61 C 1081.35 137.10 1088.07 140.55 1092.43 143.28 C 1096.79 146.01 1105.08 149.99 1110.86 152.13 C 1116.97 154.40 1124.44 158.11 1128.70 161.01 C 1137.75 167.15 1143.52 170.07 1152.25 172.94 C 1156.05 174.19 1163.27 177.98 1168.73 181.58 C 1174.94 185.67 1181.35 188.94 1186.48 190.63 C 1201.44 195.57 1202.91 196.67 1228.31 221.87 C 1253.06 246.43 1256.95 251.14 1261.48 262.00 C 1264.27 268.69 1267.44 273.00 1269.56 273.00 C 1278.64 273.00 1286.61 279.90 1345.91 339.14 C 1401.63 394.81 1399.43 391.39 1399.39 422.00 C 1399.35 443.21 1398.48 446.77 1390.11 459.83 C 1378.68 477.65 1380.09 487.20 1395.75 498.08 C 1413.55 510.45 1405.85 515.67 1366.50 517.92 C 1334.93 519.73 1329.67 523.66 1336.60 540.27 C 1342.80 555.17 1340.74 564.63 1328.98 575.16 C 1318.46 584.57 1318.72 586.11 1332.61 596.82 C 1358.05 616.44 1354.60 635.59 1327.16 626.99 C 1308.07 621.00 1304.80 625.80 1304.21 660.65 C 1303.69 691.46 1305.11 697.79 1313.92 703.73 C 1323.66 710.29 1335.09 704.47 1341.11 689.87 C 1346.15 677.68 1351.90 673.00 1361.85 673.00 C 1366.84 673.00 1369.17 673.99 1386.00 683.27 C 1389.58 685.24 1396.24 688.21 1400.81 689.88 C 1405.38 691.54 1412.51 695.22 1416.66 698.05 C 1437.05 711.94 1450.08 708.58 1457.77 687.47 C 1468.25 658.73 1496.01 643.46 1510.19 658.63 C 1520.25 669.39 1514.70 683.65 1498.34 689.03 C 1476.14 696.33 1475.39 697.76 1475.81 732.00 C 1476.25 767.77 1474.85 774.86 1465.32 785.12 C 1453.95 797.37 1447.48 798.68 1432.59 791.79 C 1405.32 779.17 1385.53 788.40 1394.14 809.72 C 1398.76 821.18 1398.59 826.82 1393.21 839.24 C 1387.75 851.86 1387.74 855.00 1393.08 866.04 C 1395.32 870.68 1398.47 877.88 1400.07 882.03 C 1404.00 892.22 1407.94 895.91 1420.06 900.77 C 1425.30 902.87 1433.39 907.15 1438.04 910.28 C 1443.45 913.91 1450.29 917.34 1457.00 919.79 C 1463.11 922.02 1471.26 926.01 1476.50 929.35 C 1481.76 932.70 1488.41 935.96 1492.50 937.19 C 1522.14 946.09 1523.91 967.07 1495.89 977.49 C 1477.00 984.51 1475.68 986.98 1475.51 1015.46 C 1475.37 1039.93 1474.59 1043.11 1466.08 1053.62 C 1445.61 1078.89 1424.43 1078.39 1415.11 1052.41 C 1407.93 1032.39 1394.93 1021.91 1387.05 1029.80 C 1382.65 1034.20 1382.84 1039.73 1387.75 1050.37 C 1391.50 1058.50 1391.50 1058.50 1391.22 1070.85 C 1390.83 1087.75 1391.33 1088.26 1414.54 1093.97 C 1425.82 1096.75 1425.46 1104.15 1413.72 1110.88 C 1410.85 1112.52 1405.12 1116.44 1401.00 1119.59 C 1393.72 1125.13 1388.53 1127.90 1378.81 1131.42 C 1363.51 1136.96 1359.21 1148.57 1366.84 1163.69 C 1371.96 1173.83 1372.50 1177.49 1370.43 1188.44 C 1368.92 1196.49 1368.82 1198.92 1369.82 1204.34 C 1371.87 1215.43 1371.39 1220.74 1367.66 1228.53 C 1365.83 1232.36 1362.89 1239.83 1361.13 1245.11 C 1356.20 1259.91 1351.38 1266.33 1332.00 1283.85 C 1305.47 1307.84 1285.96 1305.20 1297.35 1279.16 C 1299.19 1274.95 1301.92 1267.83 1303.40 1263.35 C 1304.88 1258.87 1307.89 1252.34 1310.09 1248.85 C 1337.41 1205.35 1307.85 1170.07 1266.63 1196.98 C 1255.23 1204.42 1252.13 1205.75 1241.87 1207.63 C 1223.32 1211.02 1221.45 1224.46 1236.56 1245.64 C 1243.54 1255.42 1244.79 1259.10 1246.43 1274.71 C 1247.57 1285.47 1248.60 1290.46 1250.88 1296.19 C 1256.78 1311.04 1256.58 1311.90 1244.74 1323.15 C 1236.69 1330.80 1236.69 1330.80 1237.29 1340.78 C 1238.80 1365.47 1224.88 1376.18 1203.28 1366.96 C 1191.71 1362.01 1186.64 1361.00 1173.61 1361.01 C 1140.90 1361.03 1135.08 1368.29 1150.89 1389.36 C 1167.53 1411.52 1160.77 1427.28 1129.91 1438.28 C 1124.64 1440.16 1117.52 1443.61 1114.08 1445.94 C 1104.18 1452.67 1098.19 1454.98 1087.81 1456.08 C 1067.31 1458.25 1066.74 1458.45 1049.09 1469.54 C 1046.12 1471.41 1040.72 1473.92 1037.09 1475.11 C 1028.45 1477.95 1022.99 1480.74 1014.18 1486.81 C 1004.50 1493.48 998.85 1494.78 977.00 1495.41 C 952.20 1496.12 948.45 1497.53 938.62 1509.85 C 932.15 1517.96 926.02 1521.57 916.39 1522.96 C 908.23 1524.14 700.29 1524.16 692.18 1522.98 Z M 560.37 1391.93 C 564.36 1388.79 564.02 1383.55 559.48 1378.25 C 553.08 1370.77 545.37 1370.48 542.39 1377.61 C 538.02 1388.06 551.57 1398.85 560.37 1391.93 Z M 1446.49 991.14 C 1457.03 984.99 1456.52 970.89 1445.33 958.92 C 1431.07 943.68 1419.00 948.85 1419.00 970.19 C 1419.00 988.60 1432.82 999.13 1446.49 991.14 Z M 1264.44 489.64 C 1267.48 485.71 1271.61 480.48 1273.62 478.00 C 1292.43 454.81 1281.08 417.14 1258.15 426.64 C 1247.50 431.05 1243.82 449.72 1247.91 478.47 C 1250.96 499.92 1254.60 502.38 1264.44 489.64 Z M 1213.51 415.56 C 1223.65 411.32 1222.98 396.00 1212.65 396.00 C 1209.59 396.00 1203.31 400.49 1201.51 403.98 C 1197.07 412.56 1204.21 419.45 1213.51 415.56 Z" fill="#000" fill-rule="evenodd" clip-path="url(#rim)"/></svg>
