<svg xmlns="http://www.w3.org/2000/svg" viewBox="0 0 800 800" width="200" height="200"><circle cx="399.63" cy="399.41" r="361.87" fill="#f0ece3"/><path d="M 531.00 728.72 C 530.17 728.05 527.51 725.10 525.08 722.16 L 520.67 716.83 L 523.40 711.66 C 528.70 701.66 529.95 699.60 531.87 697.69 C 534.36 695.20 535.46 695.97 538.42 702.31 C 541.97 709.89 542.62 716.06 540.48 721.79 C 537.61 729.49 534.63 731.66 531.00 728.72 Z M 338.17 716.56 C 335.53 714.09 330.70 710.82 327.44 709.29 C 322.87 707.14 319.02 703.93 310.75 695.36 C 304.84 689.23 300.00 683.55 300.00 682.73 C 300.00 681.91 299.35 680.70 298.55 680.04 C 296.75 678.54 291.46 661.72 289.53 651.32 C 288.66 646.64 287.91 634.47 287.65 621.00 C 287.32 604.36 286.66 595.24 285.09 586.00 C 282.49 570.62 280.58 528.55 281.29 502.00 C 281.79 483.25 285.20 452.07 287.13 448.61 C 290.04 443.42 293.00 426.60 293.00 415.33 C 293.00 411.35 292.46 409.49 290.73 407.48 L 288.47 404.84 L 285.87 406.89 C 283.27 408.93 281.71 411.99 280.54 417.34 C 279.84 420.52 272.00 429.38 268.22 431.27 C 264.65 433.05 262.34 439.76 257.48 462.50 C 256.55 466.90 254.47 475.00 252.88 480.50 C 250.63 488.26 249.66 494.64 248.55 509.00 C 247.77 519.17 246.45 530.20 245.62 533.50 C 244.80 536.80 243.61 544.23 242.99 550.00 C 240.24 575.55 237.23 588.00 232.63 592.93 C 224.98 601.12 224.64 611.49 231.39 630.50 C 236.64 645.28 240.58 674.12 239.10 687.00 C 238.07 696.01 235.44 705.39 233.49 707.00 C 231.67 708.52 228.13 707.64 220.03 703.66 C 208.80 698.13 207.90 695.65 203.55 658.50 C 201.79 643.43 200.75 639.22 197.91 635.62 C 194.20 630.89 189.24 632.84 183.93 641.11 C 182.18 643.83 179.91 646.65 178.89 647.37 C 177.86 648.09 175.91 650.21 174.56 652.09 C 171.54 656.27 163.00 673.47 163.00 675.37 C 163.00 676.78 160.81 682.70 158.80 686.73 C 158.18 687.96 156.83 689.24 155.79 689.57 C 153.06 690.43 146.20 686.79 141.15 681.80 C 135.74 676.44 124.21 657.76 123.40 653.03 C 123.07 651.09 122.19 647.34 121.44 644.71 C 119.85 639.10 120.66 636.06 124.46 633.34 C 138.78 623.11 140.30 621.59 144.73 613.00 C 150.31 602.17 150.17 599.25 143.53 588.59 C 138.40 580.37 136.67 579.31 130.25 580.44 C 128.19 580.80 124.59 581.20 122.25 581.32 C 119.24 581.48 117.30 582.27 115.60 584.02 C 112.89 586.81 108.21 597.44 107.02 603.50 C 105.67 610.33 103.00 616.65 100.46 619.04 L 98.02 621.33 L 89.76 619.49 C 85.22 618.48 80.51 617.30 79.29 616.87 C 76.47 615.86 73.60 610.21 70.90 600.32 C 68.22 590.53 64.96 584.00 60.07 578.66 C 54.75 572.85 52.00 566.91 51.02 559.15 C 49.68 548.44 47.18 538.82 45.16 536.58 C 40.54 531.47 39.32 515.04 38.44 446.50 C 37.77 394.73 38.97 342.86 41.05 333.18 C 41.93 329.10 42.77 327.61 44.68 326.74 C 48.19 325.14 50.60 319.77 51.96 310.50 C 54.66 292.17 56.96 284.40 62.95 273.50 C 64.46 270.75 66.50 265.87 67.47 262.66 C 70.41 252.99 74.21 247.27 82.86 239.50 C 87.88 234.99 96.34 223.67 97.53 219.87 C 99.11 214.79 112.19 198.00 114.56 198.00 C 116.54 198.00 120.18 192.02 124.59 181.50 C 130.49 167.46 134.54 162.58 142.46 160.00 C 149.48 157.71 156.75 152.30 160.33 146.70 C 164.49 140.19 171.97 133.49 176.83 131.91 C 178.85 131.26 181.62 129.95 183.00 129.00 C 184.38 128.06 188.36 126.30 191.85 125.11 C 201.87 121.68 207.58 118.38 213.25 112.74 C 222.62 103.41 229.66 98.68 237.00 96.77 C 238.93 96.27 245.31 94.80 251.18 93.49 C 265.67 90.27 270.22 88.84 279.00 84.71 C 283.12 82.78 289.20 80.00 292.50 78.54 C 295.80 77.09 299.47 74.68 300.65 73.20 L 302.81 70.50 L 323.47 69.89 C 346.77 69.20 350.48 69.58 350.53 72.64 C 350.55 73.77 352.35 78.86 354.53 83.96 C 358.41 93.01 361.97 98.00 364.56 98.00 C 366.01 98.00 373.98 87.92 376.55 82.82 C 377.48 80.99 379.14 78.51 380.24 77.30 C 381.35 76.09 381.99 74.41 381.66 73.56 C 380.83 71.40 382.51 71.15 405.50 70.01 C 416.50 69.47 429.55 68.56 434.50 67.98 C 439.45 67.41 444.40 67.16 445.50 67.42 C 446.60 67.68 455.06 68.39 464.31 69.00 C 481.93 70.15 486.00 70.98 486.00 73.43 C 486.00 74.25 487.61 76.17 489.58 77.71 C 491.55 79.24 494.81 81.98 496.83 83.80 C 500.76 87.33 512.35 91.39 527.50 94.53 C 546.03 98.38 557.52 103.00 566.37 110.16 C 569.74 112.89 578.33 118.04 585.46 121.60 C 592.58 125.15 599.26 128.83 600.30 129.77 C 601.33 130.71 603.28 131.93 604.63 132.49 C 608.49 134.09 619.35 144.08 622.23 148.69 C 625.63 154.13 635.39 161.70 643.89 165.50 C 652.68 169.43 657.97 173.73 662.62 180.76 C 664.71 183.92 669.07 189.65 672.31 193.50 C 675.54 197.35 679.05 202.16 680.09 204.20 C 681.13 206.23 682.60 208.25 683.34 208.70 C 685.46 209.95 691.90 219.40 693.18 223.14 C 694.93 228.24 698.08 232.75 705.65 241.01 C 712.66 248.67 713.37 250.07 720.48 270.23 C 723.43 278.59 723.83 278.80 738.84 280.09 C 748.32 280.91 752.85 280.93 754.51 280.18 C 760.95 277.25 761.00 278.35 761.26 418.09 C 761.50 543.61 761.17 558.22 757.87 566.81 L 756.84 569.50 L 754.67 566.83 C 752.63 564.31 752.23 564.21 748.00 565.15 C 745.52 565.69 741.14 566.47 738.25 566.87 C 735.36 567.28 732.46 568.14 731.80 568.80 C 731.14 569.46 729.86 570.00 728.95 570.00 C 726.65 570.00 724.38 572.85 723.19 577.22 C 722.63 579.27 721.27 582.22 720.16 583.78 C 719.04 585.34 717.84 587.94 717.47 589.56 C 715.69 597.51 712.54 604.77 709.32 608.34 C 707.37 610.49 704.63 614.79 703.23 617.88 C 701.84 620.97 699.91 624.62 698.96 626.00 C 698.00 627.38 696.54 630.79 695.71 633.59 C 693.33 641.62 690.16 647.01 686.75 648.83 C 679.05 652.94 666.73 668.11 664.70 676.00 C 664.34 677.38 661.45 681.30 658.28 684.73 C 650.93 692.65 646.23 694.29 630.50 694.41 C 613.78 694.54 609.31 692.40 600.26 679.90 C 599.58 678.96 598.32 673.08 597.46 666.84 C 594.06 642.08 593.55 639.81 590.76 636.80 C 587.88 633.70 584.99 628.92 582.65 623.38 C 581.28 620.15 579.45 616.15 578.59 614.50 C 577.72 612.85 577.01 610.74 577.01 609.81 C 577.00 608.88 576.58 607.86 576.08 607.55 C 575.57 607.23 574.88 605.71 574.54 604.17 C 573.98 601.61 570.75 596.37 560.46 581.25 C 555.44 573.89 552.97 574.01 550.16 581.75 C 543.93 598.88 544.00 598.46 544.00 621.92 C 544.00 642.71 543.87 644.28 541.57 650.61 C 540.23 654.29 538.21 658.23 537.09 659.36 L 535.04 661.41 L 531.98 658.48 C 530.30 656.87 527.31 652.67 525.34 649.16 C 521.29 641.91 521.30 642.63 524.98 621.00 C 527.34 607.09 527.67 593.58 526.07 576.00 C 525.49 569.67 524.57 557.08 524.02 548.00 C 522.98 530.84 519.47 493.09 518.35 487.00 C 518.00 485.08 516.45 480.12 514.91 476.00 C 513.38 471.88 511.14 463.10 509.96 456.50 C 508.77 449.90 506.99 441.35 506.00 437.50 C 505.01 433.65 503.88 428.52 503.49 426.09 C 502.86 422.20 497.54 408.05 493.49 399.50 C 492.71 397.85 491.34 392.23 490.43 387.00 C 486.99 367.01 485.12 361.77 477.33 350.10 C 474.98 346.59 472.34 341.64 471.46 339.10 C 468.40 330.23 464.52 323.96 457.17 315.97 C 451.16 309.43 449.41 306.77 447.86 301.78 C 443.14 286.62 437.80 284.38 433.47 295.73 C 431.91 299.81 431.77 302.58 432.34 318.93 C 433.46 351.08 435.42 362.94 442.37 379.33 C 444.74 384.92 447.90 394.68 449.39 401.00 C 453.61 418.86 455.87 425.74 460.85 436.00 L 465.47 445.50 L 466.15 477.00 C 466.88 510.43 466.12 529.07 463.87 533.30 C 463.12 534.71 460.21 540.07 457.42 545.19 C 450.28 558.25 449.79 560.93 450.09 585.00 C 450.32 603.55 450.13 606.31 448.10 614.00 C 444.35 628.19 440.28 638.63 436.53 643.69 C 434.57 646.34 432.06 649.91 430.95 651.64 C 428.60 655.30 424.07 657.49 420.63 656.62 C 418.80 656.16 417.59 654.46 415.61 649.50 C 412.38 641.42 412.23 633.63 414.94 613.00 C 416.75 599.23 418.72 591.91 421.00 590.50 C 423.98 588.66 429.35 568.16 428.31 562.60 C 427.99 560.89 425.61 557.02 423.01 554.00 C 414.06 543.55 411.44 535.08 410.53 513.50 C 409.77 495.31 408.63 487.76 406.03 483.55 C 402.10 477.19 398.13 478.18 387.85 488.11 C 383.65 492.17 379.73 496.44 379.15 497.60 C 377.07 501.73 371.13 520.62 369.91 527.00 C 369.22 530.58 367.15 539.80 365.29 547.50 C 362.19 560.38 361.87 563.17 361.35 582.44 C 360.81 602.55 360.68 603.68 357.83 611.12 C 354.96 618.64 353.54 620.90 345.01 631.50 C 337.72 640.56 338.05 639.58 339.09 649.50 C 341.31 670.51 343.19 685.73 343.98 689.00 C 344.45 690.92 345.34 694.98 345.97 698.00 C 346.60 701.02 348.06 706.57 349.20 710.32 C 351.53 717.90 351.10 719.14 345.73 720.40 C 343.40 720.95 342.21 720.35 338.17 716.56 Z M 651.99 606.51 C 653.54 604.65 652.56 600.43 650.38 599.59 C 646.60 598.14 644.19 604.85 647.75 606.92 C 650.10 608.29 650.55 608.25 651.99 606.51 Z" fill="#000" fill-rule="evenodd"/></svg>
