<svg xmlns="http://www.w3.org/2000/svg" viewBox="0 0 1600 1600" width="200" height="200"><defs><clipPath id="rim"><circle cx="799.18" cy="796.64" r="712.02"/></clipPath></defs><circle cx="799.18" cy="796.64" r="722.86" fill="#f0ece3"/><path d="M 1061.32 1454.31 C 1048.98 1451.86 1042.22 1432.68 1048.76 1418.70 C 1056.97 1401.15 1069.09 1397.50 1076.15 1410.45 C 1086.95 1430.31 1077.74 1457.57 1061.32 1454.31 Z M 681.00 1433.59 C 676.50 1431.83 653.57 1419.43 644.50 1413.84 C 635.22 1408.12 608.14 1381.19 601.39 1370.98 C 582.55 1342.47 575.35 1308.80 574.02 1243.00 C 573.27 1206.32 572.86 1199.58 569.65 1171.50 C 563.65 1119.10 563.57 1117.47 563.53 1039.00 C 563.50 975.14 563.71 964.77 565.30 952.00 C 566.29 944.02 569.13 921.52 571.61 902.00 C 580.00 836.16 578.10 821.14 563.89 840.76 C 561.60 843.92 553.55 852.58 545.99 860.00 C 526.55 879.09 527.60 876.59 511.07 943.50 C 502.38 978.69 501.51 983.54 499.99 1005.50 C 498.14 1032.12 496.09 1051.34 494.05 1061.25 C 490.82 1076.97 488.25 1093.02 485.00 1117.94 C 480.10 1155.39 477.37 1165.46 466.04 1187.86 C 455.10 1209.48 453.21 1225.00 458.85 1247.00 C 459.91 1251.12 462.83 1262.38 465.35 1272.00 C 489.95 1366.01 480.19 1428.17 443.67 1410.15 C 421.43 1399.18 414.43 1383.55 408.51 1331.59 C 403.00 1283.17 396.59 1270.02 381.12 1275.35 C 369.29 1279.42 344.22 1311.46 332.99 1336.87 C 318.36 1369.95 314.41 1375.08 303.45 1375.25 C 286.36 1375.51 256.78 1338.56 244.84 1302.04 C 237.20 1278.65 241.07 1268.64 263.98 1252.57 C 304.49 1224.15 304.78 1170.56 264.45 1163.99 C 240.27 1160.06 224.33 1173.37 216.55 1204.00 C 208.03 1237.55 200.99 1244.23 179.00 1239.60 C 157.74 1235.11 150.12 1226.79 140.48 1197.46 C 134.32 1178.74 130.76 1171.50 122.10 1160.13 C 107.76 1141.29 104.94 1134.47 98.55 1103.20 C 96.11 1091.26 92.32 1072.95 90.12 1062.50 C 84.89 1037.58 83.52 1028.68 81.08 1003.50 C 77.14 962.89 76.84 954.24 76.31 866.00 C 75.44 718.79 77.68 690.86 93.47 652.13 C 99.38 637.63 101.34 630.61 105.92 607.42 C 110.64 583.56 113.03 575.73 122.24 554.04 C 126.09 544.94 131.46 531.65 134.17 524.50 C 141.92 504.02 145.31 498.84 163.00 480.54 C 179.63 463.33 183.79 457.69 195.62 436.28 C 205.63 418.15 210.28 411.73 223.12 398.31 C 236.39 384.44 238.58 381.26 247.04 363.63 C 259.24 338.23 266.25 329.64 282.26 320.45 C 308.04 305.66 307.66 305.95 321.19 290.16 C 339.36 268.93 347.80 263.29 380.39 250.56 C 407.13 240.11 412.04 237.14 430.89 220.02 C 452.85 200.07 460.88 196.08 499.50 185.91 C 525.92 178.95 540.91 174.35 552.00 169.77 C 607.76 146.76 610.68 146.12 659.78 145.90 C 693.38 145.75 698.06 147.63 709.79 165.99 C 725.35 190.35 730.52 190.02 753.77 163.19 C 763.42 152.05 770.76 149.88 805.00 147.99 C 828.57 146.69 833.88 145.93 850.00 141.54 C 874.72 134.80 884.67 134.36 908.28 138.98 C 916.65 140.61 930.11 142.87 938.20 144.00 C 964.87 147.73 972.08 150.32 991.04 163.03 C 1009.84 175.62 1019.94 179.50 1054.58 187.46 C 1091.96 196.05 1106.40 202.04 1134.50 220.61 C 1142.20 225.70 1158.62 235.23 1171.00 241.78 C 1215.75 265.47 1225.45 272.54 1244.34 295.26 C 1258.51 312.32 1266.19 318.41 1287.50 329.53 C 1310.35 341.45 1315.52 345.87 1329.00 365.00 C 1333.07 370.77 1339.79 379.74 1343.95 384.92 C 1364.60 410.69 1378.11 429.81 1384.96 443.00 C 1394.58 461.50 1398.18 466.71 1410.44 479.90 C 1423.58 494.04 1426.53 498.86 1434.01 518.44 C 1447.02 552.50 1451.88 556.62 1482.00 559.02 C 1511.18 561.35 1518.40 569.01 1522.04 601.50 C 1524.12 620.01 1523.79 1061.38 1521.69 1076.50 C 1515.74 1119.37 1509.07 1131.14 1488.82 1134.54 C 1458.69 1139.59 1449.30 1148.56 1435.49 1185.45 C 1429.28 1202.04 1425.51 1209.42 1415.13 1225.30 C 1405.06 1240.70 1398.79 1252.41 1390.93 1270.48 C 1384.59 1285.03 1378.70 1293.21 1367.54 1302.96 C 1352.64 1315.98 1346.27 1324.37 1331.98 1349.77 C 1314.26 1381.29 1291.56 1393.17 1254.00 1390.60 C 1213.00 1387.79 1198.53 1370.82 1189.96 1315.50 C 1186.06 1290.36 1183.17 1281.53 1172.83 1263.23 C 1168.40 1255.39 1159.73 1237.58 1153.56 1223.66 C 1127.15 1164.06 1112.12 1151.21 1098.70 1176.76 C 1090.17 1192.99 1087.53 1211.14 1088.58 1246.50 C 1090.12 1298.76 1078.50 1324.01 1059.30 1310.10 C 1044.62 1299.47 1041.38 1282.91 1047.42 1249.44 C 1049.30 1239.02 1051.44 1227.12 1052.17 1223.00 C 1053.99 1212.74 1053.74 1178.93 1051.68 1157.00 C 1050.78 1147.38 1049.33 1128.03 1048.46 1114.00 C 1047.58 1099.97 1046.00 1080.40 1044.95 1070.50 C 1043.89 1060.60 1041.89 1040.58 1040.51 1026.00 C 1036.65 985.35 1035.91 980.89 1026.99 945.00 C 1023.78 932.08 1019.51 914.08 1017.51 905.00 C 1007.50 859.68 1003.57 845.62 990.10 807.00 C 985.94 795.05 982.54 782.68 979.41 768.00 C 972.37 735.02 968.90 725.45 956.73 705.47 C 949.90 694.23 945.91 686.35 940.32 673.00 C 933.99 657.89 929.20 650.41 918.73 639.31 C 906.20 626.02 903.35 622.32 895.63 609.35 C 885.68 592.65 881.06 588.75 875.17 592.10 C 865.97 597.32 864.10 614.94 867.51 664.00 C 870.75 710.51 873.74 724.72 889.47 768.50 C 892.04 775.65 897.24 793.20 901.03 807.50 C 908.91 837.23 911.16 844.13 920.45 867.00 C 932.52 896.74 933.22 903.79 932.64 989.50 C 932.16 1060.51 932.87 1056.33 915.22 1091.58 C 900.56 1120.85 899.68 1125.68 900.65 1171.50 C 902.27 1247.74 868.33 1324.20 840.51 1307.00 C 820.93 1294.91 821.73 1232.51 842.14 1179.34 C 857.45 1139.45 857.02 1127.92 839.22 1100.66 C 826.96 1081.89 822.82 1068.64 821.01 1042.38 C 817.95 997.87 816.85 990.00 812.34 979.86 C 804.89 963.13 792.54 962.63 776.55 978.42 C 755.39 999.31 747.50 1018.32 734.39 1080.00 C 725.78 1120.51 725.02 1126.02 724.98 1148.00 C 724.88 1209.25 720.91 1224.34 696.16 1257.50 C 678.45 1281.24 677.22 1289.48 684.04 1338.50 C 685.11 1346.20 687.11 1361.95 688.48 1373.50 C 689.86 1385.05 692.18 1400.82 693.64 1408.55 C 697.83 1430.70 693.84 1438.59 681.00 1433.59 Z" fill="#000" fill-rule="evenodd" clip-path="url(#rim)"/></svg>
