<svg xmlns="http://www.w3.org/2000/svg" viewBox="0 0 800 800" width="200" height="200"><circle cx="399.26" cy="399.98" r="361.98" fill="#f0ece3"/><path d="M 317.54 760.40 C 316.57 759.42 316.00 757.04 316.00 753.90 C 316.00 750.54 315.54 748.76 314.58 748.39 C 313.80 748.09 307.89 747.77 301.44 747.68 C 288.82 747.49 289.16 747.64 287.35 741.50 L 286.46 738.50 L 273.69 738.00 C 260.17 737.47 259.05 737.03 259.02 732.31 C 258.99 729.18 257.50 728.56 248.50 728.00 L 240.50 727.50 L 240.16 724.50 C 239.62 719.70 238.41 719.00 230.63 718.98 C 226.71 718.98 222.87 718.57 222.11 718.09 C 221.34 717.60 220.44 715.47 220.10 713.35 L 219.47 709.50 L 211.28 709.00 C 206.78 708.73 202.66 708.05 202.12 707.50 C 201.59 706.95 201.01 705.15 200.83 703.50 C 200.55 700.94 200.00 700.43 197.10 700.00 C 193.61 699.49 192.87 698.65 191.35 693.50 C 190.47 690.54 190.34 690.49 182.31 690.00 C 177.83 689.73 173.83 689.17 173.42 688.76 C 173.02 688.35 172.42 686.33 172.08 684.26 C 171.56 680.99 171.08 680.46 168.49 680.16 C 164.65 679.73 163.19 678.48 162.81 675.28 C 162.48 672.52 161.12 671.46 156.77 670.54 C 154.81 670.13 153.87 669.19 153.46 667.23 C 152.54 662.87 151.47 661.53 148.50 661.00 C 145.54 660.47 144.46 659.12 143.57 654.88 C 143.13 652.73 142.31 652.14 139.03 651.62 C 135.70 651.09 134.94 650.52 134.46 648.24 C 133.52 643.80 132.50 642.58 129.10 641.89 C 125.04 641.06 124.81 640.80 124.08 636.26 C 123.55 632.92 123.12 632.47 120.31 632.19 C 115.87 631.76 115.14 630.41 114.80 622.06 C 114.48 614.27 114.36 614.08 108.50 612.35 C 106.07 611.63 105.40 610.79 105.00 607.98 C 104.57 604.99 104.07 604.45 101.50 604.16 C 97.51 603.71 96.00 602.31 96.00 599.08 C 96.00 595.84 94.35 594.00 91.45 594.00 C 87.71 594.00 86.00 590.94 86.00 584.24 C 86.00 577.57 87.49 575.00 91.37 575.00 C 94.32 575.00 96.00 573.19 96.00 570.00 C 96.00 565.91 97.75 565.00 105.58 565.00 C 110.53 565.00 113.12 564.56 113.92 563.59 C 114.65 562.72 114.98 559.40 114.80 554.84 L 114.50 547.50 L 110.53 546.20 C 108.35 545.49 106.22 544.37 105.80 543.70 C 105.37 543.04 105.02 537.47 105.02 531.32 C 105.00 519.19 105.84 517.00 110.50 517.00 C 113.09 517.00 116.00 514.62 116.00 512.50 C 116.00 511.75 115.29 510.44 114.43 509.57 C 113.10 508.24 109.55 508.00 91.13 508.00 C 75.56 508.00 69.06 508.34 68.20 509.20 C 66.72 510.68 66.60 522.39 68.04 525.07 C 68.60 526.13 70.07 527.01 71.29 527.02 C 75.99 527.05 76.43 528.10 76.16 538.71 C 76.03 543.81 75.64 545.12 74.00 546.00 C 71.04 547.59 68.36 545.70 67.32 541.28 C 66.62 538.32 65.80 537.34 63.47 536.64 C 57.25 534.80 57.52 535.61 57.22 517.89 C 56.95 502.17 57.02 501.43 59.08 499.75 C 60.26 498.79 62.31 498.00 63.64 498.00 C 65.32 498.00 66.35 497.21 67.05 495.37 C 69.23 489.64 67.03 488.41 53.50 487.75 L 48.50 487.50 L 48.21 479.66 C 48.02 474.73 48.35 471.29 49.08 470.41 C 50.58 468.60 62.93 468.48 65.28 470.25 C 66.54 471.20 67.01 473.45 67.22 479.50 L 67.50 487.50 L 81.50 487.50 L 95.50 487.50 L 95.83 484.63 C 96.23 481.14 95.20 479.99 90.86 479.11 C 88.06 478.53 87.37 477.82 86.43 474.46 C 85.35 470.58 84.68 470.09 78.28 468.41 C 77.61 468.23 76.78 466.83 76.45 465.29 C 76.11 463.76 75.66 461.94 75.45 461.25 C 75.17 460.34 71.80 460.00 63.11 460.00 C 56.54 460.00 50.45 459.73 49.58 459.39 C 48.31 458.91 48.00 457.13 48.00 450.45 C 48.00 444.88 48.41 441.85 49.25 441.31 C 49.94 440.86 58.07 440.50 67.33 440.50 C 87.16 440.50 86.72 440.74 86.30 430.35 C 85.95 421.98 84.92 421.00 76.43 421.00 C 69.56 421.00 68.17 421.93 67.09 427.26 C 66.52 430.04 65.96 430.55 63.09 430.82 C 59.11 431.21 58.01 430.29 57.10 425.85 C 56.44 422.60 55.75 422.12 49.25 420.39 C 48.33 420.15 48.00 416.62 48.00 407.07 C 48.00 395.24 48.17 393.98 49.93 393.04 C 52.62 391.60 57.00 393.37 57.00 395.89 C 57.00 400.85 61.22 404.02 65.07 401.96 C 66.82 401.02 67.00 399.76 67.00 388.02 C 67.00 379.01 66.64 374.89 65.79 374.37 C 65.13 373.96 59.74 373.55 53.82 373.46 C 46.69 373.35 42.54 372.86 41.50 372.00 C 40.21 370.93 39.99 368.60 40.22 358.71 C 40.46 348.45 40.75 346.59 42.25 345.86 C 43.21 345.39 44.79 344.61 45.75 344.14 C 47.29 343.39 47.56 341.14 48.00 325.43 L 48.50 307.58 L 51.59 306.95 C 57.06 305.83 57.00 306.04 57.02 288.19 C 57.02 279.01 57.43 270.87 57.91 270.11 C 58.40 269.34 60.53 268.44 62.65 268.09 L 66.50 267.47 L 67.00 254.59 C 67.54 240.81 67.56 240.74 73.25 239.54 C 75.96 238.97 76.00 238.85 76.02 231.23 C 76.02 226.98 76.43 222.87 76.91 222.11 C 77.40 221.34 79.53 220.44 81.65 220.09 C 85.12 219.53 85.55 219.13 86.00 216.01 C 86.40 213.21 87.08 212.37 89.50 211.65 C 95.40 209.91 95.47 209.79 96.00 200.90 L 96.50 192.50 L 99.90 192.00 C 103.45 191.48 104.50 190.30 105.46 185.77 C 105.87 183.81 106.81 182.87 108.77 182.46 C 113.20 181.52 114.42 180.49 115.11 177.10 C 115.92 173.13 116.14 172.92 120.17 172.10 C 122.86 171.55 123.55 170.85 124.12 168.09 C 124.49 166.25 125.41 164.36 126.15 163.89 C 128.34 162.50 149.37 162.81 151.25 164.25 C 152.14 164.94 153.02 166.81 153.19 168.42 C 153.46 170.98 154.06 171.48 158.00 172.42 C 161.88 173.35 162.54 173.89 162.82 176.31 C 163.35 180.93 161.60 182.00 153.50 182.00 C 145.59 182.00 144.38 182.68 143.84 187.48 C 143.58 189.80 142.83 190.66 140.50 191.35 C 135.56 192.81 134.52 193.59 134.15 196.10 C 133.65 199.58 132.14 201.00 128.94 201.00 C 125.79 201.00 124.97 200.09 124.05 195.59 C 123.56 193.15 122.85 192.43 120.65 192.18 C 117.04 191.76 115.00 193.54 115.00 197.10 C 115.00 199.41 114.47 200.07 112.25 200.55 C 106.36 201.81 105.00 202.83 105.00 206.00 C 105.00 209.17 106.36 210.19 112.25 211.45 C 114.32 211.89 115.00 212.63 115.00 214.44 C 115.00 218.44 116.07 220.00 118.86 220.02 C 122.60 220.04 124.25 221.37 124.25 224.38 C 124.25 227.78 122.34 230.00 119.41 230.00 C 118.12 230.00 116.61 230.87 116.04 231.93 C 114.69 234.45 114.69 254.55 116.04 257.07 C 116.98 258.83 118.25 259.00 130.54 259.00 L 144.00 259.00 L 144.00 255.58 C 144.00 250.50 144.89 249.00 147.91 249.00 C 151.30 249.00 153.00 250.67 153.00 254.00 C 153.00 257.47 151.28 259.00 147.36 259.00 C 144.36 259.00 144.10 259.27 143.81 262.65 C 143.49 266.38 142.73 267.11 137.50 268.65 C 132.07 270.25 133.62 278.00 139.37 278.00 C 142.21 278.00 144.00 279.79 144.00 282.63 C 144.00 286.43 141.41 288.00 135.18 287.99 C 126.36 287.97 125.20 287.40 124.26 282.64 L 123.44 278.50 L 115.63 278.21 C 110.73 278.02 107.29 278.35 106.41 279.08 C 105.43 279.89 105.00 282.50 105.00 287.59 C 105.00 295.37 103.99 297.00 99.17 297.00 C 96.88 297.00 96.00 298.84 96.00 303.58 L 96.00 307.00 L 103.92 307.00 C 113.71 307.00 115.00 307.47 115.00 310.98 C 115.00 314.28 116.48 315.70 120.39 316.16 C 125.84 316.80 125.49 325.08 119.97 325.85 C 116.58 326.32 115.00 327.82 115.00 330.55 C 115.00 334.40 117.40 335.84 123.74 335.79 C 131.08 335.73 134.00 334.64 134.00 331.96 C 134.00 328.46 135.82 326.20 139.24 325.46 C 141.03 325.07 142.83 324.24 143.23 323.62 C 143.64 323.01 143.98 317.32 144.00 311.00 C 144.02 304.68 144.36 299.02 144.77 298.43 C 146.10 296.47 148.74 296.13 150.89 297.63 C 152.71 298.91 153.00 300.11 153.00 306.43 C 153.00 311.21 153.45 314.13 154.30 314.83 C 155.01 315.42 159.17 316.04 163.54 316.20 C 170.59 316.47 171.51 316.72 171.78 318.50 C 172.63 324.18 173.06 324.85 176.25 325.54 C 178.04 325.92 180.06 326.68 180.75 327.24 C 181.71 328.01 182.00 337.58 182.00 368.92 C 182.00 399.23 182.31 409.91 183.20 410.80 C 183.86 411.46 185.60 412.00 187.08 412.00 C 188.55 412.00 190.29 412.65 190.95 413.44 C 192.49 415.30 191.94 419.09 190.00 419.99 C 182.02 423.66 182.54 422.91 182.00 431.51 L 181.50 439.44 L 177.25 440.28 C 172.96 441.13 172.68 441.50 171.78 447.50 C 171.60 448.69 170.26 449.91 168.49 450.50 C 163.02 452.33 163.00 452.37 163.00 464.48 C 163.00 470.72 163.27 476.55 163.61 477.42 C 163.94 478.29 165.29 479.00 166.61 479.00 C 168.89 479.00 173.00 482.09 173.00 483.81 C 173.00 484.25 172.44 485.37 171.75 486.29 C 170.71 487.67 168.44 487.98 158.50 488.10 C 151.90 488.18 145.94 488.69 145.25 489.24 C 143.92 490.31 143.61 493.81 144.61 496.42 C 145.11 497.74 147.22 498.00 157.48 498.00 C 170.99 498.00 171.62 498.26 172.17 504.00 C 172.45 506.96 172.92 507.55 175.20 507.81 C 179.03 508.25 182.00 506.38 182.00 503.52 C 182.00 501.23 185.23 497.98 187.47 498.02 C 190.58 498.06 191.51 500.15 192.00 508.17 L 192.50 516.43 L 195.80 517.10 C 199.87 517.92 200.07 518.13 200.89 522.10 C 201.57 525.43 202.44 526.16 207.50 527.65 C 210.45 528.53 210.51 528.68 210.80 535.98 C 211.13 544.15 211.89 545.73 215.72 546.19 C 218.48 546.52 219.54 547.88 220.46 552.23 C 220.87 554.19 221.81 555.13 223.77 555.54 C 228.04 556.44 229.47 557.51 229.85 560.10 C 230.35 563.58 231.86 565.00 235.06 565.00 C 238.30 565.00 239.16 566.04 239.96 570.97 L 240.53 574.50 L 258.18 575.00 C 267.90 575.27 276.15 575.81 276.54 576.20 C 276.92 576.58 277.53 578.38 277.90 580.19 C 278.49 583.04 279.07 583.56 282.30 584.08 C 284.35 584.42 286.35 585.02 286.76 585.42 C 287.17 585.83 287.73 592.09 288.00 599.33 L 288.50 612.50 L 291.97 613.00 C 295.01 613.44 295.58 613.99 296.54 617.44 C 297.68 621.50 298.40 622.15 303.50 623.65 C 305.93 624.37 306.60 625.21 307.00 628.02 L 307.50 631.50 L 314.00 631.76 C 323.40 632.13 325.00 632.64 325.00 635.33 C 325.00 640.06 327.24 641.46 335.64 642.00 L 343.44 642.50 L 344.51 646.31 C 345.09 648.40 346.23 650.53 347.04 651.04 C 349.04 652.31 445.58 652.30 447.95 651.03 C 448.95 650.49 450.06 648.51 450.41 646.62 C 451.18 642.51 452.29 642.00 460.38 642.00 C 466.95 642.00 468.99 640.95 469.02 637.55 C 469.05 633.35 470.56 632.52 479.21 632.00 L 487.50 631.50 L 487.84 628.50 C 488.29 624.49 489.69 623.00 493.00 623.00 C 496.25 623.00 497.52 621.67 498.46 617.25 C 498.99 614.79 499.81 613.86 501.83 613.44 C 507.44 612.27 507.48 612.16 507.78 598.96 C 507.94 592.18 508.53 586.06 509.11 585.37 C 509.68 584.68 511.58 583.98 513.32 583.81 C 516.03 583.55 516.55 583.05 516.83 580.50 C 517.01 578.85 517.59 577.05 518.12 576.50 C 518.66 575.95 527.01 575.28 536.77 575.00 L 554.46 574.50 L 555.34 571.50 C 556.81 566.56 557.59 565.52 560.10 565.15 C 563.59 564.65 565.00 563.13 565.00 559.90 C 565.00 557.59 565.53 556.93 567.75 556.45 C 573.11 555.30 575.00 554.09 575.02 551.77 C 575.04 548.36 576.38 546.87 580.12 546.11 L 583.50 545.43 L 584.00 537.29 C 584.27 532.82 584.81 528.85 585.20 528.46 C 585.58 528.08 587.34 527.47 589.10 527.11 C 592.49 526.42 593.52 525.20 594.46 520.77 C 594.87 518.81 595.81 517.87 597.77 517.46 C 602.30 516.50 603.48 515.45 604.00 511.90 C 604.44 508.94 604.91 508.46 607.68 508.19 C 609.42 508.02 611.31 507.33 611.88 506.64 C 612.45 505.96 613.04 501.85 613.20 497.50 L 613.50 489.59 L 618.00 488.50 C 622.08 487.51 622.55 487.09 623.00 483.98 C 623.50 480.56 624.00 480.20 630.78 478.38 C 631.75 478.12 631.99 474.89 631.78 464.77 L 631.50 451.50 L 628.03 450.38 C 624.37 449.19 623.45 448.11 622.58 443.90 C 622.14 441.78 621.23 441.12 617.77 440.40 L 613.50 439.50 L 613.00 431.33 C 612.73 426.83 612.19 422.85 611.80 422.46 C 611.42 422.08 609.62 421.46 607.80 421.09 C 604.74 420.47 604.50 420.14 604.50 416.46 C 604.50 412.74 604.69 412.48 607.68 412.19 C 609.42 412.02 611.33 411.31 611.91 410.61 C 612.59 409.78 613.06 398.22 613.24 378.02 C 613.52 343.88 613.08 346.25 619.50 344.34 L 622.50 343.45 L 622.76 312.06 C 622.94 290.93 623.39 280.23 624.14 279.34 C 624.75 278.60 626.26 278.00 627.50 278.00 C 631.24 278.00 632.11 275.84 631.79 267.34 L 631.50 259.50 L 628.50 259.16 C 623.11 258.55 623.00 258.16 623.00 239.44 C 623.00 220.63 623.12 221.03 617.03 220.04 L 613.50 219.47 L 613.00 211.09 C 612.47 202.22 612.15 201.68 606.75 200.54 C 604.55 200.08 604.00 199.41 604.00 197.18 C 604.00 193.82 602.37 192.00 599.37 192.00 C 596.47 192.00 594.00 189.47 594.00 186.49 C 594.00 183.79 592.97 182.95 588.60 182.05 C 586.30 181.58 585.30 180.67 584.64 178.46 C 583.13 173.36 582.39 172.51 579.15 172.19 C 576.66 171.94 575.89 171.32 575.44 169.19 C 574.32 163.83 573.78 163.52 565.15 163.21 C 557.21 162.93 557.00 162.86 556.44 160.21 C 555.34 155.04 554.07 153.00 551.96 153.00 C 548.27 153.00 546.00 151.12 546.00 148.07 C 546.00 144.52 544.71 144.00 535.95 144.00 C 528.64 144.00 527.00 142.92 527.00 138.10 C 527.00 135.19 524.04 134.00 516.77 134.00 C 509.95 134.00 508.00 132.97 508.00 129.37 C 508.00 124.81 505.77 124.00 493.13 124.00 C 480.46 124.00 479.00 123.48 479.00 118.91 C 479.00 115.90 477.50 115.00 472.48 115.00 C 469.24 115.00 469.10 115.15 468.81 119.25 L 468.50 123.50 L 460.66 123.79 C 452.43 124.10 450.00 123.22 450.00 119.93 C 450.00 116.64 453.89 115.00 461.72 115.00 L 469.00 115.00 L 469.00 111.06 C 469.00 106.79 468.30 106.01 463.59 105.05 C 461.58 104.64 460.41 103.74 460.22 102.46 C 459.16 95.41 460.91 96.00 441.02 96.00 C 424.30 96.00 423.00 96.13 422.04 97.93 C 421.47 99.00 421.00 100.75 421.00 101.83 C 421.00 104.35 419.17 105.00 412.00 105.00 C 404.83 105.00 403.00 104.35 403.00 101.83 C 403.00 98.53 401.06 96.00 398.55 96.00 C 394.73 96.00 393.00 94.94 393.00 92.62 C 393.00 91.42 392.32 89.47 391.49 88.29 C 390.15 86.37 389.18 86.16 382.85 86.39 C 375.17 86.67 373.00 88.05 373.00 92.67 C 373.00 94.91 372.17 95.37 366.51 96.22 C 365.42 96.39 364.39 97.42 364.22 98.51 C 363.20 105.25 363.54 105.00 355.67 105.00 C 347.35 105.00 345.51 105.97 344.25 111.00 L 343.38 114.50 L 331.00 114.78 C 324.20 114.94 318.06 115.53 317.37 116.11 C 316.68 116.68 315.98 118.58 315.81 120.32 L 315.50 123.50 L 306.50 123.50 L 297.50 123.50 L 297.00 115.21 C 296.65 109.35 296.06 106.64 295.00 105.98 C 294.18 105.46 284.20 105.02 272.83 105.02 C 261.46 105.01 251.45 104.73 250.58 104.39 C 249.67 104.04 249.00 102.62 249.00 101.02 C 249.00 97.53 246.93 95.76 243.31 96.18 C 241.02 96.44 240.44 97.06 240.16 99.50 C 239.98 101.15 239.36 103.06 238.79 103.75 C 237.42 105.41 222.85 105.45 221.20 103.80 C 219.89 102.49 219.55 90.26 220.77 88.34 C 221.17 87.71 223.04 86.79 224.92 86.30 C 228.51 85.37 229.53 84.18 230.43 79.87 C 231.08 76.75 233.16 76.03 241.64 76.01 C 248.02 76.00 249.00 75.33 249.00 70.98 C 249.00 68.20 250.71 67.55 259.49 67.00 L 267.47 66.50 L 268.10 62.65 C 268.44 60.53 269.34 58.40 270.11 57.91 C 271.82 56.83 293.04 56.74 294.72 57.81 C 295.39 58.23 296.31 60.37 296.77 62.54 C 297.56 66.35 297.74 66.50 301.54 66.50 C 305.32 66.50 305.56 66.31 306.85 62.24 C 307.89 58.96 308.80 57.86 310.85 57.41 C 315.66 56.36 316.00 56.09 316.00 53.23 C 316.00 48.83 317.62 48.00 326.16 48.00 C 334.43 48.00 336.00 47.06 336.00 42.10 C 336.00 40.98 336.79 39.66 337.75 39.17 C 340.03 38.00 359.97 38.00 362.25 39.17 C 363.66 39.90 364.00 41.41 364.00 46.95 C 364.00 55.97 364.47 57.00 368.56 57.00 C 372.88 57.00 373.90 55.09 373.30 48.07 C 372.62 40.14 373.94 38.74 382.39 38.35 C 388.03 38.10 389.36 38.36 391.12 40.12 C 393.06 42.06 393.16 43.12 392.87 58.04 C 392.70 66.76 392.92 74.26 393.36 74.70 C 393.80 75.14 395.81 75.96 397.83 76.53 C 400.73 77.34 401.73 78.27 402.60 80.93 C 403.61 84.03 406.31 87.00 408.12 87.00 C 409.82 87.00 412.00 83.66 412.00 81.05 C 412.00 77.03 413.55 76.27 422.00 76.15 C 431.14 76.01 432.08 75.13 431.28 67.45 C 430.62 60.99 432.49 57.31 436.70 56.82 C 438.95 56.56 439.65 55.78 440.56 52.50 L 441.67 48.50 L 449.43 48.21 C 458.17 47.88 459.74 48.62 460.19 53.32 L 460.50 56.50 L 469.50 56.50 L 478.50 56.50 L 478.84 53.50 C 479.38 48.74 480.61 48.00 488.04 48.00 C 496.61 48.00 498.00 48.55 498.00 51.91 C 498.00 56.45 499.48 57.00 511.77 57.00 C 523.86 57.00 527.00 57.85 527.00 61.10 C 527.00 65.85 528.67 67.00 535.60 67.00 C 543.63 67.00 546.00 68.12 546.00 71.93 C 546.00 75.35 547.35 76.00 554.52 76.00 C 562.17 76.00 565.00 77.29 565.00 80.78 C 565.00 85.09 566.65 86.00 574.50 86.00 C 578.69 86.00 582.09 86.49 582.80 87.20 C 583.54 87.94 584.00 91.58 584.00 96.70 L 584.00 105.00 L 596.75 105.02 C 603.76 105.02 610.11 105.42 610.85 105.89 C 611.59 106.36 612.50 108.22 612.87 110.03 C 613.57 113.42 614.42 114.15 619.50 115.65 C 621.93 116.37 622.60 117.21 623.00 120.02 L 623.50 123.50 L 631.70 124.03 C 636.21 124.33 640.26 124.93 640.70 125.36 C 641.14 125.80 641.73 129.83 642.00 134.31 C 642.49 142.34 642.54 142.47 645.50 143.35 C 650.65 144.87 651.49 145.61 652.00 149.10 L 652.50 152.50 L 660.70 153.00 C 665.22 153.28 669.36 153.95 669.91 154.50 C 670.46 155.06 671.04 159.11 671.20 163.50 L 671.50 171.50 L 674.50 171.84 C 678.49 172.29 680.00 173.69 680.00 176.92 C 680.00 180.16 681.65 182.00 684.55 182.00 C 687.19 182.00 689.70 184.68 690.16 187.98 C 690.40 189.73 691.38 190.72 693.50 191.35 C 699.40 193.09 699.47 193.21 700.00 202.07 L 700.50 210.43 L 703.88 211.11 C 707.37 211.82 708.96 213.36 708.98 216.05 C 709.02 219.39 706.78 220.00 694.50 220.00 C 686.42 220.00 682.00 220.40 681.20 221.20 C 680.48 221.92 680.00 225.42 680.00 230.00 C 680.00 238.27 680.86 240.00 685.00 240.00 C 688.20 240.00 690.00 241.68 690.00 244.66 C 690.00 247.09 692.60 249.00 695.90 249.00 C 700.80 249.00 701.10 257.52 696.23 258.54 C 690.96 259.65 690.52 260.32 690.20 267.58 C 689.87 275.03 688.26 278.00 684.55 278.00 C 681.63 278.00 680.00 279.85 680.00 283.16 C 680.00 287.63 682.36 288.17 700.60 287.82 C 713.91 287.56 717.26 287.21 718.02 286.00 C 718.54 285.18 718.98 281.33 718.98 277.45 C 718.99 273.32 719.50 269.90 720.20 269.20 C 720.90 268.50 724.23 268.00 728.13 268.00 C 737.20 268.00 738.42 269.23 737.55 277.42 C 736.59 286.40 737.61 287.37 748.67 288.00 L 757.50 288.50 L 757.77 310.93 C 757.94 325.37 757.67 333.73 757.01 334.39 C 756.44 334.96 752.34 335.50 747.90 335.60 C 743.45 335.70 739.38 336.22 738.85 336.75 C 737.40 338.20 737.41 370.81 738.87 372.27 C 739.55 372.95 743.12 373.46 747.37 373.47 C 752.07 373.49 755.28 373.99 756.35 374.87 C 757.84 376.12 758.00 380.96 758.00 426.42 C 758.00 464.12 757.70 476.90 756.80 477.80 C 756.00 478.60 751.58 479.00 743.49 479.00 C 729.78 479.00 727.62 479.78 728.16 484.55 L 728.50 487.50 L 742.20 488.00 C 749.74 488.27 756.35 488.95 756.90 489.50 C 758.42 491.04 758.53 504.66 757.03 506.47 C 756.07 507.62 753.69 508.00 747.44 508.00 C 742.18 508.00 738.85 508.43 738.40 509.17 C 738.00 509.81 737.78 515.46 737.90 521.73 C 738.15 534.19 737.54 536.00 733.08 536.00 C 728.85 536.00 728.00 537.69 728.00 546.08 C 728.00 554.45 727.37 555.61 722.50 556.16 L 719.50 556.50 L 719.00 564.79 C 718.48 573.44 717.65 574.95 713.45 574.98 C 710.03 575.01 709.00 577.05 709.00 583.77 C 709.00 591.63 707.86 594.00 704.07 594.00 C 701.23 594.00 700.02 595.44 699.98 598.83 C 699.96 601.78 698.30 603.27 694.35 603.90 L 690.50 604.53 L 690.00 612.80 C 689.48 621.47 688.66 622.95 684.37 622.98 C 681.67 623.00 680.27 624.71 679.84 628.50 C 679.56 631.00 679.00 631.56 676.50 631.84 C 672.71 632.27 671.00 633.67 670.98 636.37 C 670.95 641.02 669.79 641.47 656.39 642.00 C 642.83 642.53 642.73 642.57 641.54 648.24 C 641.06 650.52 640.30 651.09 636.97 651.62 C 633.69 652.14 632.87 652.73 632.43 654.88 C 631.56 659.04 630.47 660.48 627.90 660.85 C 623.63 661.46 623.00 662.79 623.00 671.10 C 623.00 678.65 622.90 678.99 620.50 679.59 C 619.12 679.93 616.89 679.94 615.53 679.60 C 613.08 678.98 613.06 678.88 612.78 665.74 L 612.50 652.50 L 599.08 652.22 C 584.60 651.92 584.04 652.10 584.02 657.23 C 584.00 659.40 583.43 660.08 581.25 660.54 C 577.07 661.42 575.53 662.50 575.19 664.80 C 574.66 668.34 576.75 671.00 580.06 671.00 C 582.35 671.00 583.28 671.60 584.02 673.57 C 585.39 677.15 583.68 680.00 580.16 680.00 C 575.90 680.00 575.00 681.67 575.00 689.63 C 575.00 698.93 575.97 700.00 584.49 700.00 C 592.72 700.00 594.00 700.55 594.00 704.13 C 594.00 707.78 591.24 709.00 582.97 709.00 C 576.73 709.00 575.00 710.27 575.00 714.88 C 575.00 717.81 573.39 718.44 564.50 719.00 L 556.50 719.50 L 556.19 722.68 C 556.02 724.42 555.33 726.31 554.64 726.88 C 553.96 727.45 549.84 728.04 545.47 728.20 C 537.62 728.50 537.53 728.53 536.65 731.50 C 534.84 737.63 535.16 737.49 522.73 737.61 C 516.38 737.67 510.47 737.99 509.59 738.33 C 508.63 738.69 508.00 740.11 508.00 741.90 C 508.00 747.72 506.50 748.17 488.51 747.82 C 469.55 747.45 469.00 747.65 469.00 755.09 C 469.00 758.81 468.56 760.16 467.12 760.94 C 465.90 761.59 439.38 761.95 392.16 761.95 C 327.60 761.95 318.91 761.77 317.54 760.40 Z M 391.00 699.02 C 392.92 697.81 393.79 676.34 392.05 673.09 C 391.01 671.14 390.08 671.00 378.66 671.00 C 370.46 671.00 366.00 671.40 365.20 672.20 C 364.40 673.00 364.00 677.46 364.00 685.65 C 364.00 696.26 364.23 698.04 365.75 698.92 C 367.96 700.21 388.99 700.29 391.00 699.02 Z M 429.24 698.75 C 431.59 696.95 432.25 673.40 430.00 671.98 C 428.11 670.78 405.98 670.73 404.11 671.91 C 403.05 672.58 402.72 675.69 402.71 685.05 C 402.70 695.81 402.92 697.47 404.54 698.65 C 407.01 700.46 426.92 700.54 429.24 698.75 Z M 352.94 688.25 C 354.85 686.71 355.07 685.67 354.80 679.52 C 354.51 672.73 354.42 672.52 351.50 671.65 C 346.37 670.14 345.54 669.40 344.41 665.39 L 343.33 661.50 L 335.71 661.21 C 328.70 660.94 327.98 661.10 326.58 663.23 C 325.49 664.89 325.18 667.34 325.48 671.93 C 325.90 678.47 326.82 679.94 330.50 680.00 C 333.48 680.05 334.76 681.19 335.56 684.51 C 336.72 689.36 337.76 690.00 344.51 690.00 C 348.99 690.00 351.40 689.50 352.94 688.25 Z M 458.80 688.80 C 459.46 688.14 460.00 686.40 460.00 684.92 C 460.00 681.69 461.51 680.29 465.50 679.84 C 468.48 679.50 468.50 679.46 468.80 672.52 C 469.31 660.82 469.34 660.87 459.78 661.21 L 451.62 661.50 L 450.72 665.00 C 449.50 669.73 448.27 671.00 444.91 671.00 C 441.25 671.00 440.25 673.01 440.20 680.50 C 440.14 688.86 441.37 690.00 450.45 690.00 C 454.68 690.00 458.09 689.51 458.80 688.80 Z M 314.80 669.80 C 316.48 668.12 316.43 653.05 314.75 652.61 C 308.24 650.87 307.56 650.40 306.89 647.11 C 306.14 643.45 304.64 642.04 301.45 642.02 C 297.56 641.99 297.00 643.82 297.00 656.65 C 297.00 667.26 297.23 669.04 298.75 669.92 C 301.22 671.36 313.33 671.27 314.80 669.80 Z M 487.55 668.25 C 488.71 662.83 489.90 661.00 492.29 661.00 C 497.16 661.00 498.49 658.82 498.16 651.36 C 497.81 643.58 496.92 642.00 492.91 642.00 C 489.76 642.00 488.00 644.30 488.00 648.42 C 488.00 650.39 487.38 651.09 485.25 651.54 C 480.08 652.63 479.52 653.39 479.21 659.68 C 478.80 667.89 480.11 671.00 483.96 671.00 C 486.43 671.00 487.07 670.51 487.55 668.25 Z M 611.07 611.96 C 613.34 610.75 613.62 606.76 611.56 605.05 C 610.77 604.39 608.86 604.00 607.31 604.18 C 605.07 604.43 604.43 605.07 604.18 607.31 C 603.63 612.12 606.79 614.25 611.07 611.96 Z M 180.07 592.96 C 182.77 591.52 182.67 586.43 179.91 584.95 C 175.02 582.34 170.34 587.02 172.95 591.91 C 174.17 594.18 177.01 594.60 180.07 592.96 Z M 374.07 582.12 C 373.48 581.03 373.00 579.21 373.00 578.08 C 373.00 576.66 372.17 575.86 370.25 575.46 C 364.56 574.26 364.52 574.18 364.22 561.03 C 363.92 547.93 364.47 546.00 368.57 546.00 C 372.39 546.00 374.14 542.37 373.42 535.96 C 372.71 529.69 373.67 528.22 379.26 527.09 C 382.02 526.52 382.64 525.84 383.46 522.46 C 384.52 518.04 385.49 517.04 388.71 517.02 C 391.95 516.99 393.34 513.59 392.62 507.45 C 392.13 503.24 392.37 501.77 393.84 499.96 C 396.26 496.96 400.62 497.91 402.14 501.78 C 404.17 506.93 404.72 507.50 408.10 508.00 L 411.50 508.50 L 411.75 515.50 C 412.11 525.40 412.61 527.00 415.33 527.00 C 420.01 527.00 421.34 529.13 421.11 536.23 C 420.88 543.46 422.28 546.00 426.51 546.00 C 430.23 546.00 431.92 549.35 431.29 555.44 C 430.66 561.57 432.09 564.99 435.29 565.02 C 439.04 565.04 440.16 566.42 439.82 570.57 C 439.53 574.04 439.17 574.50 436.20 575.10 C 432.12 575.93 431.93 576.12 431.09 580.20 L 430.42 583.50 L 421.46 583.50 L 412.50 583.50 L 412.16 580.50 C 411.57 575.30 410.78 575.00 397.44 575.00 C 384.28 575.00 384.14 575.05 383.05 580.41 C 382.51 583.10 381.96 583.54 378.78 583.81 C 375.97 584.04 374.89 583.66 374.07 582.12 Z M 199.80 554.80 C 200.53 554.07 201.00 550.54 201.00 545.84 C 201.00 538.93 200.76 537.94 198.86 536.93 C 195.90 535.34 184.13 536.17 182.95 538.05 C 182.44 538.85 182.02 542.74 182.02 546.70 C 182.00 552.51 182.34 554.10 183.75 554.92 C 186.22 556.36 198.33 556.27 199.80 554.80 Z M 171.81 512.25 C 172.11 508.03 172.09 508.00 168.76 508.00 C 164.90 508.00 163.00 509.49 163.00 512.50 C 163.00 515.53 165.05 517.13 168.50 516.80 C 171.26 516.52 171.52 516.16 171.81 512.25 Z M 250.34 516.23 C 249.70 515.83 249.03 514.19 248.84 512.60 C 248.48 509.53 247.21 508.48 242.75 507.54 C 240.04 506.97 240.00 506.85 239.98 499.23 C 239.98 494.98 239.62 490.95 239.19 490.28 C 238.77 489.61 236.63 488.69 234.46 488.23 L 230.50 487.41 L 230.24 446.57 C 230.05 417.26 230.30 405.35 231.11 404.37 C 231.87 403.46 234.52 403.00 239.07 403.00 C 244.98 403.00 246.09 402.70 247.44 400.78 C 248.30 399.56 249.00 397.56 249.00 396.34 C 249.00 395.12 249.37 393.89 249.83 393.61 C 251.47 392.59 294.17 392.77 295.20 393.80 C 295.76 394.36 296.52 396.30 296.89 398.12 C 297.75 402.30 299.36 402.77 313.21 402.90 C 322.73 402.99 324.05 403.22 324.96 404.93 C 325.53 406.00 326.00 407.75 326.00 408.83 C 326.00 411.42 327.82 412.00 336.02 412.00 C 343.32 412.00 343.92 412.36 344.94 417.38 C 345.43 419.77 346.23 420.57 348.62 421.06 C 353.09 421.97 353.83 422.67 355.01 427.04 C 355.86 430.18 356.55 431.00 358.35 431.00 C 361.63 431.00 363.83 433.06 364.19 436.47 C 364.45 438.99 365.07 439.57 368.32 440.33 C 375.60 442.05 375.61 448.45 368.35 450.48 L 364.50 451.56 L 364.00 464.99 L 363.50 478.42 L 360.41 479.05 C 356.03 479.94 355.00 480.79 355.00 483.50 C 355.00 486.19 353.97 487.07 349.09 488.51 C 346.27 489.34 345.48 490.21 344.56 493.51 L 343.44 497.50 L 335.97 498.03 C 331.86 498.33 327.95 498.91 327.29 499.32 C 326.62 499.73 325.78 501.63 325.43 503.54 C 324.63 507.78 324.11 507.93 309.04 508.25 L 297.58 508.50 L 296.95 511.59 C 296.60 513.29 296.00 515.20 295.60 515.84 C 294.79 517.15 252.37 517.52 250.34 516.23 Z M 499.04 515.07 C 498.47 514.00 498.00 512.25 498.00 511.17 C 498.00 508.38 496.25 508.00 483.49 508.00 C 471.18 508.00 469.00 507.17 469.00 502.49 C 469.00 499.20 467.60 498.57 459.03 498.00 L 451.56 497.50 L 450.44 493.51 C 449.52 490.21 448.73 489.34 445.91 488.51 C 440.15 486.80 439.92 486.43 440.22 479.07 C 440.52 471.56 439.30 469.00 435.41 469.00 C 432.10 469.00 430.65 465.68 431.28 459.54 C 431.94 453.17 430.92 451.26 426.39 450.41 C 423.97 449.96 422.49 448.97 421.73 447.30 C 420.21 443.97 421.67 441.91 426.53 440.55 C 429.80 439.63 430.54 438.93 431.10 436.18 C 431.89 432.31 431.61 432.58 435.94 431.40 C 438.73 430.64 439.55 429.80 440.27 426.98 C 441.39 422.60 442.04 421.94 446.14 421.11 C 448.94 420.53 449.63 419.82 450.56 416.46 L 451.67 412.50 L 458.09 412.24 C 467.81 411.86 469.00 411.41 469.00 408.18 C 469.00 403.58 470.47 403.00 482.13 403.00 C 495.46 403.00 497.53 402.30 498.43 397.53 C 499.24 393.22 501.20 392.30 508.87 392.64 C 515.90 392.95 517.00 393.46 517.00 396.39 C 517.00 400.18 515.97 402.00 513.83 402.00 C 508.92 402.00 508.00 403.58 508.00 412.00 C 508.00 418.67 508.29 420.09 509.84 420.91 C 512.70 422.44 515.95 421.10 516.57 418.13 C 517.40 414.17 518.51 412.53 520.61 412.21 C 527.28 411.19 527.00 411.58 527.02 403.23 C 527.02 398.98 527.44 394.85 527.95 394.05 C 528.64 392.95 530.66 392.66 536.14 392.84 C 543.82 393.11 546.00 394.06 546.00 397.12 C 546.00 399.75 549.54 403.00 552.39 403.00 C 555.36 403.00 556.00 404.59 556.00 412.00 C 556.00 420.96 555.96 421.00 547.05 421.00 C 537.01 421.00 535.80 422.13 536.10 431.24 C 536.21 434.79 536.02 438.16 535.66 438.74 C 535.31 439.31 533.49 440.06 531.61 440.41 C 526.76 441.32 525.43 445.43 528.88 448.88 C 530.39 450.39 531.95 450.70 536.94 450.45 C 543.77 450.11 546.00 448.89 546.00 445.50 C 546.00 442.72 547.47 441.44 552.00 440.28 C 554.99 439.52 555.55 438.91 555.82 436.14 C 556.21 432.16 559.56 430.16 562.87 431.93 C 564.75 432.94 565.00 433.95 565.00 440.48 C 565.00 448.32 564.77 448.74 559.50 450.50 C 556.98 451.34 556.45 452.10 556.19 455.22 C 555.91 458.58 556.15 458.99 558.69 459.53 C 564.61 460.78 564.48 460.37 564.77 478.48 C 565.06 496.18 564.67 498.00 560.58 498.00 C 557.67 498.00 556.00 499.83 556.00 503.00 C 556.00 506.30 554.30 508.00 551.00 508.00 C 547.86 508.00 546.00 509.67 546.00 512.50 C 546.00 516.75 544.68 517.00 521.84 517.00 C 501.34 517.00 500.01 516.89 499.04 515.07 Z M 708.56 485.25 C 709.63 480.40 709.87 480.07 712.71 479.47 C 717.54 478.45 718.49 477.47 718.81 473.15 L 719.11 469.00 L 727.36 469.00 C 732.43 469.00 736.06 468.54 736.80 467.80 C 737.59 467.01 738.00 462.80 738.00 455.49 C 738.00 441.41 737.52 440.63 728.86 440.41 C 718.82 440.16 719.00 439.88 719.00 455.50 L 719.00 468.92 L 710.36 469.21 C 701.15 469.52 701.11 469.54 699.36 475.47 C 698.66 477.80 697.68 478.62 694.72 479.32 C 690.30 480.36 688.41 483.04 690.00 486.00 C 690.94 487.76 692.09 488.00 699.52 488.00 C 707.92 488.00 707.97 487.99 708.56 485.25 Z M 478.96 467.07 C 479.53 466.00 480.00 464.68 480.00 464.14 C 480.00 462.23 476.84 460.00 474.13 460.00 C 470.86 460.00 469.00 461.64 469.00 464.50 C 469.00 467.49 470.90 469.00 474.66 469.00 C 476.87 469.00 478.27 468.37 478.96 467.07 Z M 486.93 449.55 C 487.52 449.18 488.00 447.35 488.00 445.48 C 488.00 441.90 485.98 440.00 482.17 440.00 C 480.14 440.00 479.00 438.19 479.00 434.95 C 479.00 432.23 475.96 431.00 469.26 431.00 C 462.50 431.00 460.25 432.30 459.81 436.44 C 459.55 438.87 458.89 439.54 456.00 440.27 C 454.07 440.75 451.88 441.75 451.12 442.49 C 449.27 444.29 450.47 448.87 453.04 449.82 C 455.46 450.71 485.43 450.47 486.93 449.55 Z M 698.99 438.51 C 700.71 436.45 699.45 432.35 696.90 431.69 C 692.10 430.43 687.99 434.25 690.04 438.07 C 691.30 440.43 697.16 440.72 698.99 438.51 Z M 717.80 419.80 C 718.49 419.11 719.00 415.80 719.00 412.00 C 719.00 408.20 718.49 404.89 717.80 404.20 C 716.28 402.68 710.35 402.63 709.42 404.13 C 708.64 405.39 708.79 418.85 709.60 420.16 C 710.38 421.43 716.43 421.17 717.80 419.80 Z M 470.25 381.85 C 469.48 381.08 469.00 377.79 469.00 373.28 C 469.00 366.50 469.18 365.88 471.43 364.85 C 472.76 364.24 475.03 364.04 476.46 364.40 C 479.06 365.05 479.08 365.11 478.79 373.78 L 478.50 382.50 L 475.00 382.80 C 473.07 382.96 470.93 382.53 470.25 381.85 Z M 698.43 353.43 C 700.29 351.56 700.48 347.88 698.80 346.20 C 698.06 345.46 694.45 345.00 689.41 345.00 C 680.84 345.00 680.00 345.45 680.00 350.01 C 680.00 353.63 682.74 355.00 690.00 355.00 C 694.90 355.00 697.31 354.55 698.43 353.43 Z M 232.25 334.96 C 230.66 334.33 230.00 333.24 230.00 331.23 C 230.00 327.71 231.63 326.00 235.00 326.00 C 238.13 326.00 240.01 327.67 239.98 330.45 C 239.95 334.55 236.41 336.62 232.25 334.96 Z M 651.66 332.23 C 652.52 328.79 650.91 326.56 647.31 326.20 C 643.67 325.83 641.74 327.88 642.18 331.65 C 642.74 336.46 650.48 336.93 651.66 332.23 Z M 94.80 314.80 C 95.46 314.14 96.00 312.10 96.00 310.26 L 96.00 306.92 L 86.77 307.21 C 77.76 307.49 77.52 307.56 76.60 310.19 C 75.01 314.73 77.04 316.00 85.92 316.00 C 90.56 316.00 94.08 315.52 94.80 314.80 Z M 164.57 286.43 C 163.45 285.31 163.00 282.90 163.00 278.00 C 163.00 269.35 165.18 266.60 170.42 268.61 C 171.68 269.09 172.00 270.86 172.00 277.41 C 172.00 282.45 171.54 286.06 170.80 286.80 C 169.14 288.46 166.44 288.30 164.57 286.43 Z M 650.96 257.07 C 652.08 254.97 652.38 244.16 651.39 241.58 C 650.97 240.47 649.48 240.00 646.39 240.00 L 642.00 240.00 L 642.00 248.45 C 642.00 255.44 642.30 257.08 643.75 257.92 C 646.55 259.55 649.84 259.16 650.96 257.07 Z M 136.25 238.97 C 133.56 237.89 133.22 233.93 135.59 231.55 C 136.95 230.19 139.73 229.99 154.34 230.23 L 171.50 230.50 L 171.82 233.82 C 172.38 239.70 171.48 240.01 154.13 239.94 C 145.53 239.90 137.49 239.47 136.25 238.97 Z M 641.80 236.38 C 642.16 232.74 639.93 230.00 636.63 230.00 C 633.64 230.00 632.00 231.82 632.00 235.15 C 632.00 238.42 634.35 240.08 638.50 239.74 C 641.06 239.54 641.54 239.05 641.80 236.38 Z M 173.04 209.07 C 171.60 206.39 171.72 194.68 173.20 193.20 C 174.49 191.91 177.87 191.63 180.42 192.61 C 181.67 193.09 182.00 194.83 182.00 201.07 C 182.00 207.82 181.73 209.08 180.07 209.96 C 177.07 211.57 174.17 211.19 173.04 209.07 Z M 650.95 208.75 C 651.45 207.51 652.13 205.26 652.45 203.75 C 652.86 201.84 653.66 201.00 655.08 201.00 C 658.40 201.00 661.00 199.10 661.00 196.66 C 661.00 192.98 659.08 192.00 651.88 192.00 C 641.94 192.00 642.00 191.95 642.00 200.91 C 642.00 209.38 642.84 211.00 647.22 211.00 C 649.21 211.00 650.31 210.34 650.95 208.75 Z M 193.20 190.80 C 192.48 190.08 192.00 186.58 192.00 182.00 C 192.00 177.42 192.48 173.92 193.20 173.20 C 194.65 171.75 204.85 171.61 208.50 173.00 C 210.68 173.83 211.07 174.53 210.81 177.15 C 210.49 180.39 209.64 181.13 204.54 182.64 C 202.25 183.32 201.42 184.29 200.89 186.89 C 199.92 191.64 196.02 193.62 193.20 190.80 Z M 592.07 151.96 C 594.23 150.81 594.64 147.04 592.80 145.20 C 592.14 144.54 590.43 144.00 589.00 144.00 C 585.86 144.00 584.00 145.67 584.00 148.50 C 584.00 152.54 587.88 154.20 592.07 151.96 Z M 173.07 132.12 C 172.48 131.03 172.00 127.19 172.00 123.60 C 172.00 115.54 172.75 115.00 183.90 115.00 L 191.92 115.00 L 192.21 105.75 L 192.50 96.50 L 199.48 96.20 C 210.99 95.70 211.00 95.71 211.00 104.82 C 211.00 109.54 210.53 113.07 209.80 113.80 C 209.06 114.54 205.42 115.00 200.30 115.00 L 192.00 115.00 L 191.98 118.25 C 191.96 122.63 191.15 123.59 186.76 124.40 C 183.74 124.95 182.91 125.61 182.45 127.79 C 181.51 132.27 180.45 133.48 177.22 133.81 C 174.96 134.03 173.85 133.58 173.07 132.12 Z M 496.94 113.58 C 498.69 111.46 498.91 99.06 497.23 97.37 C 495.54 95.68 490.82 95.58 489.20 97.20 C 487.76 98.64 487.61 108.84 488.98 112.43 C 489.71 114.38 490.66 115.00 492.85 115.00 C 494.45 115.00 496.29 114.36 496.94 113.58 Z M 535.82 111.18 C 536.31 106.03 534.77 105.00 526.58 105.00 C 518.95 105.00 517.00 104.07 517.00 100.42 C 517.00 97.49 514.72 95.79 511.31 96.18 C 508.52 96.50 508.50 96.56 508.21 104.41 C 508.04 108.76 508.15 112.94 508.43 113.69 C 508.85 114.77 511.73 115.00 522.23 114.78 L 535.50 114.50 L 535.82 111.18 Z M 583.80 109.75 L 584.11 105.00 L 571.25 105.00 C 562.59 105.00 558.01 105.39 557.20 106.20 C 555.91 107.49 555.55 113.22 556.69 114.36 C 557.08 114.74 563.26 114.93 570.44 114.78 L 583.50 114.50 L 583.80 109.75 Z M 277.45 82.62 C 278.50 79.68 277.18 77.72 273.36 76.57 C 268.69 75.18 266.00 82.49 270.12 85.37 C 272.90 87.32 276.22 86.08 277.45 82.62 Z" fill="#000" fill-rule="evenodd"/></svg>
