<svg xmlns="http://www.w3.org/2000/svg" viewBox="0 0 1600 1600" width="200" height="200"><defs><clipPath id="rim"><circle cx="798.50" cy="804.55" r="707.72"/></clipPath></defs><circle cx="798.50" cy="804.55" r="718.50" fill="#f0ece3"/><path d="M 653.31 1522.99 C 644.50 1521.70 639.61 1518.61 632.00 1509.50 C 623.12 1498.87 619.99 1497.31 603.81 1495.50 C 588.66 1493.80 585.81 1492.81 574.14 1485.15 C 563.37 1478.07 561.10 1477.31 547.00 1475.96 C 532.98 1474.62 527.74 1472.97 518.69 1467.06 C 508.77 1460.58 506.65 1459.53 496.24 1455.85 C 491.43 1454.16 484.45 1450.80 480.73 1448.39 C 471.92 1442.69 465.70 1439.58 459.41 1437.71 C 452.73 1435.73 447.75 1433.14 438.29 1426.70 C 433.41 1423.39 426.98 1420.18 421.08 1418.13 C 408.90 1413.88 403.87 1410.56 390.50 1397.88 C 377.44 1385.50 375.48 1384.21 362.67 1379.64 C 349.29 1374.85 348.89 1374.51 297.95 1323.83 C 235.39 1261.57 235.35 1261.52 230.46 1247.08 C 225.85 1233.44 223.92 1230.85 201.12 1207.60 C 176.55 1182.54 174.50 1179.57 174.50 1169.00 C 174.50 1154.25 189.40 1137.68 209.68 1129.87 C 229.78 1122.13 232.70 1111.32 219.84 1092.26 C 208.49 1075.44 207.07 1060.00 215.07 1040.25 C 223.25 1020.05 217.89 1016.57 178.50 1016.53 C 137.74 1016.48 125.58 1027.04 140.44 1049.58 C 157.70 1075.75 145.80 1093.40 125.42 1071.85 C 114.84 1060.67 112.02 1021.90 120.38 1002.50 C 128.01 984.78 127.65 981.68 117.63 978.41 C 103.66 973.84 98.00 967.96 98.00 958.02 C 98.00 943.91 110.96 933.62 121.75 939.17 C 129.64 943.23 132.33 948.59 135.69 966.90 C 138.25 980.81 180.00 978.83 180.00 964.80 C 180.00 948.88 147.99 923.83 127.21 923.50 C 102.97 923.11 90.23 906.65 101.01 889.65 C 106.40 881.15 111.84 879.51 135.00 879.44 C 160.41 879.37 166.00 877.15 169.01 865.95 C 173.51 849.25 157.21 841.13 138.09 850.56 C 123.91 857.56 118.65 856.62 107.71 845.14 C 88.65 825.15 92.55 795.00 114.20 795.00 C 127.40 795.00 132.17 790.12 132.84 775.96 C 133.72 757.26 127.44 750.41 106.79 747.55 C 87.54 744.87 82.03 740.10 80.00 724.31 C 78.48 712.46 80.23 703.92 86.92 690.50 C 94.14 676.03 94.94 672.80 95.00 658.00 C 95.12 632.27 96.98 624.28 105.96 611.06 C 112.67 601.17 113.18 598.94 114.00 575.50 C 114.86 551.02 115.32 549.31 124.83 535.10 C 131.84 524.61 132.67 522.12 134.04 507.33 C 135.25 494.34 136.85 489.09 142.04 481.05 C 147.56 472.52 149.88 467.72 153.07 458.29 C 156.68 447.62 159.98 442.97 174.13 428.64 C 186.47 416.14 190.03 410.79 193.91 398.89 C 197.49 387.94 233.53 346.60 250.15 334.39 C 266.37 322.48 292.04 323.05 306.04 335.64 C 319.59 347.82 319.33 357.39 305.26 364.04 C 296.49 368.18 291.10 371.96 282.23 380.18 C 267.98 393.40 262.07 396.10 251.60 394.17 C 221.05 388.54 210.34 408.01 231.07 431.50 C 242.29 444.22 243.36 449.97 237.13 463.87 C 222.93 495.50 230.95 514.16 260.20 517.55 C 282.29 520.11 282.36 520.17 279.05 534.49 C 277.20 542.52 276.97 545.55 277.56 554.31 C 278.33 565.87 277.72 568.06 273.02 570.49 C 266.36 573.94 261.69 572.66 243.00 562.28 C 227.12 553.47 217.57 558.55 208.67 580.55 C 197.34 608.54 197.27 607.57 211.03 612.55 C 233.55 620.71 241.62 630.54 241.21 649.31 C 240.47 683.04 280.37 662.97 289.05 625.24 C 293.09 607.70 296.66 605.92 305.52 617.03 C 312.18 625.37 315.77 627.89 326.70 631.91 C 337.60 635.90 342.11 638.86 350.67 647.62 C 364.84 662.12 364.94 662.81 364.97 744.57 C 365.00 809.72 364.78 807.12 371.54 821.22 C 376.33 831.22 376.25 836.03 371.08 846.72 C 368.92 851.18 366.01 858.01 364.60 861.91 C 360.60 873.00 358.73 875.99 349.32 886.44 C 325.49 912.86 321.97 925.77 331.33 952.41 C 337.43 969.75 333.38 977.37 316.07 981.08 C 302.96 983.89 303.50 989.53 317.18 992.70 C 324.67 994.43 331.69 997.91 335.00 1001.54 C 342.39 1009.64 347.68 1011.09 358.50 1008.00 C 373.63 1003.67 377.37 1005.45 385.41 1020.76 C 389.92 1029.35 393.37 1034.09 402.61 1044.45 C 413.73 1056.90 418.25 1063.81 420.98 1072.50 C 424.60 1084.01 427.56 1087.71 454.24 1114.20 C 489.55 1149.25 488.48 1148.65 516.95 1149.59 C 553.81 1150.82 572.44 1164.83 575.18 1193.38 C 577.44 1216.95 579.51 1220.86 600.86 1242.00 C 616.05 1257.04 621.92 1261.17 632.59 1264.30 C 638.98 1266.18 643.98 1268.72 653.51 1274.94 C 657.63 1277.63 665.17 1281.32 670.25 1283.13 C 675.78 1285.10 682.63 1288.55 687.29 1291.71 C 704.86 1303.64 700.02 1303.17 800.50 1302.77 C 893.06 1302.40 885.50 1303.14 900.79 1292.98 C 906.05 1289.49 913.76 1285.50 919.12 1283.51 C 924.21 1281.62 930.65 1278.63 933.43 1276.87 C 946.32 1268.71 949.63 1267.00 958.39 1263.98 C 984.54 1254.97 1014.92 1219.78 1014.98 1198.43 C 1015.03 1184.77 1018.94 1175.01 1028.28 1165.29 C 1040.58 1152.48 1046.56 1150.38 1073.30 1149.46 C 1102.56 1148.45 1100.69 1149.45 1133.77 1117.00 C 1159.68 1091.58 1163.09 1087.25 1167.89 1073.65 C 1172.67 1060.12 1174.99 1057.00 1197.05 1034.50 C 1219.19 1011.91 1221.18 1009.24 1225.96 995.50 C 1230.00 983.91 1231.69 981.45 1245.40 967.19 C 1272.06 939.46 1271.32 919.02 1242.52 888.12 C 1231.33 876.12 1229.53 873.36 1225.35 861.77 C 1223.92 857.80 1221.20 851.17 1219.32 847.04 C 1214.46 836.38 1214.17 832.78 1217.51 824.93 C 1225.92 805.18 1225.33 810.10 1225.95 755.00 C 1226.57 699.51 1226.14 702.07 1237.44 686.26 C 1244.45 676.46 1244.29 677.77 1245.01 623.50 C 1245.74 568.78 1245.65 569.49 1252.97 558.17 C 1264.68 540.04 1264.88 533.06 1254.13 516.60 C 1246.61 505.09 1245.85 501.60 1246.20 480.33 C 1246.56 458.70 1246.01 456.66 1235.60 441.14 C 1230.55 433.62 1227.42 427.63 1225.14 421.10 C 1220.29 407.22 1219.49 406.23 1183.14 369.71 C 1146.59 333.00 1145.11 331.78 1130.88 326.70 C 1119.22 322.54 1115.71 320.17 1101.30 306.70 C 1088.06 294.32 1086.07 293.01 1073.10 288.08 C 1067.60 286.00 1059.02 281.63 1053.82 278.26 C 1047.97 274.47 1040.91 270.96 1034.98 268.89 C 1028.70 266.70 1022.97 263.80 1018.00 260.29 C 1004.95 251.08 999.86 249.07 985.48 247.48 C 970.52 245.82 971.36 246.05 957.96 239.96 C 952.16 237.32 944.51 234.59 940.96 233.89 C 932.67 232.26 932.35 231.98 931.54 225.49 C 927.54 193.46 878.58 180.11 843.35 201.45 C 823.76 213.31 816.78 211.90 795.08 191.70 C 770.16 168.51 762.23 168.94 734.54 194.97 C 724.47 204.42 718.48 208.08 706.69 211.96 C 702.74 213.26 695.85 216.90 690.28 220.62 C 679.29 227.97 674.64 229.56 660.00 230.96 C 646.88 232.21 643.89 233.06 636.46 237.67 C 612.60 252.46 601.45 250.49 593.00 230.00 C 585.79 212.50 583.68 211.68 544.50 210.95 C 514.50 210.40 514.50 210.40 505.50 206.57 C 490.05 200.01 488.94 199.94 476.02 204.81 C 441.95 217.66 428.62 194.31 454.92 167.89 C 464.09 158.68 467.16 156.74 480.16 152.00 C 484.72 150.34 492.39 146.48 497.21 143.42 C 502.90 139.82 509.69 136.62 516.52 134.33 C 524.44 131.68 528.99 129.42 534.78 125.25 C 552.76 112.31 568.29 110.96 589.16 120.52 C 605.20 127.88 608.97 126.93 625.98 111.27 C 636.95 101.17 639.85 99.40 652.80 94.86 C 657.58 93.19 665.55 89.25 670.50 86.11 C 693.41 71.57 713.80 72.98 729.07 90.15 C 737.11 99.20 738.24 99.19 746.86 89.90 C 769.27 65.79 785.86 78.15 785.97 119.04 C 786.06 153.68 803.53 169.84 828.50 158.36 C 833.45 156.09 840.68 153.05 844.56 151.60 C 854.06 148.06 858.00 143.89 862.38 132.73 C 874.47 101.94 896.03 89.96 916.52 102.66 C 936.63 115.13 942.27 115.33 959.28 104.21 C 973.17 95.13 981.53 95.17 996.15 104.38 C 1007.64 111.62 1011.53 112.94 1024.90 114.15 C 1038.78 115.40 1045.00 117.40 1053.28 123.30 C 1060.99 128.78 1065.60 131.15 1076.03 134.95 C 1080.52 136.59 1087.72 140.19 1092.03 142.96 C 1096.34 145.72 1104.73 149.85 1110.68 152.13 C 1117.38 154.69 1124.85 158.53 1130.30 162.20 C 1135.14 165.46 1142.04 169.24 1145.64 170.59 C 1162.63 176.98 1165.57 180.21 1168.58 195.80 C 1171.07 208.74 1171.17 208.80 1193.00 209.97 C 1215.33 211.18 1217.14 211.99 1235.55 228.99 C 1248.46 240.91 1252.17 243.41 1263.83 248.06 C 1276.17 252.97 1280.31 257.13 1284.33 268.70 C 1290.65 286.83 1303.81 299.29 1324.76 306.96 C 1332.35 309.74 1338.20 315.23 1340.57 321.81 C 1346.79 339.07 1348.60 341.53 1374.08 367.51 C 1395.12 388.96 1395.17 389.05 1403.00 412.11 C 1410.40 433.94 1408.61 437.30 1387.76 440.63 C 1358.40 445.32 1354.54 461.96 1377.29 485.73 C 1392.81 501.94 1393.92 506.30 1386.54 522.00 C 1382.44 530.70 1378.16 541.37 1372.81 556.18 C 1368.75 567.43 1374.35 572.41 1392.89 574.03 C 1420.51 576.46 1429.82 572.38 1437.52 554.50 C 1447.10 532.24 1466.70 532.53 1475.53 555.07 C 1480.25 567.12 1483.47 570.11 1496.93 574.98 C 1515.73 581.76 1516.42 583.40 1516.75 622.00 C 1517.08 661.68 1515.73 664.93 1496.19 671.44 C 1479.16 677.11 1476.50 682.18 1476.50 709.00 C 1476.50 736.18 1478.79 740.43 1496.88 746.90 C 1518.16 754.51 1517.00 748.41 1517.00 853.00 C 1517.00 959.63 1517.49 957.78 1487.25 964.54 C 1477.32 966.76 1477.76 968.41 1489.00 971.00 C 1519.41 978.02 1525.05 1006.30 1497.88 1015.54 C 1480.87 1021.32 1477.87 1025.23 1475.98 1043.99 C 1474.51 1058.60 1473.40 1061.93 1466.43 1072.63 C 1461.95 1079.51 1459.07 1085.37 1456.90 1092.00 C 1454.86 1098.23 1451.60 1105.00 1447.44 1111.66 C 1443.70 1117.66 1439.76 1125.66 1437.84 1131.15 C 1435.61 1137.53 1432.57 1143.43 1428.21 1149.82 C 1424.04 1155.92 1420.60 1162.51 1418.27 1168.83 C 1413.62 1181.43 1410.47 1186.22 1398.08 1199.50 C 1386.41 1212.00 1384.16 1215.42 1379.90 1227.14 C 1370.21 1253.83 1338.44 1281.89 1315.50 1284.03 C 1294.37 1286.01 1290.58 1287.91 1271.91 1305.79 C 1258.73 1318.41 1250.81 1327.80 1246.01 1336.50 C 1240.17 1347.07 1236.39 1349.39 1232.06 1345.06 C 1230.03 1343.03 1229.48 1341.33 1226.08 1326.50 C 1217.77 1290.27 1155.89 1299.46 1159.53 1336.38 C 1161.05 1351.82 1160.66 1355.73 1156.66 1364.66 C 1149.86 1379.83 1151.89 1388.68 1164.52 1398.94 C 1176.07 1408.32 1175.77 1409.19 1156.00 1423.67 C 1142.47 1433.58 1141.32 1434.22 1129.91 1438.29 C 1124.64 1440.17 1117.67 1443.51 1114.41 1445.71 C 1106.51 1451.07 1100.12 1454.19 1090.50 1457.37 C 1085.52 1459.01 1078.79 1462.43 1072.67 1466.41 C 1061.54 1473.65 1058.93 1474.50 1043.02 1476.00 C 1030.02 1477.22 1025.98 1478.70 1015.13 1486.19 C 1005.12 1493.11 998.63 1494.99 984.66 1495.03 C 955.59 1495.10 949.38 1497.08 938.89 1509.64 C 931.08 1518.98 926.94 1521.44 916.50 1522.95 C 908.28 1524.14 661.41 1524.18 653.31 1522.99 Z M 768.03 1397.01 C 795.87 1389.27 792.67 1347.84 763.86 1342.98 C 734.41 1338.01 716.54 1362.43 731.74 1386.87 C 737.77 1396.57 753.65 1401.00 768.03 1397.01 Z M 846.27 1396.62 C 859.99 1392.49 868.92 1370.56 862.22 1357.42 C 850.81 1335.07 811.30 1337.95 804.42 1361.64 C 797.34 1385.98 819.65 1404.63 846.27 1396.62 Z M 695.32 1375.93 C 712.39 1371.19 712.53 1356.84 695.67 1339.27 C 679.74 1322.68 664.73 1319.99 655.73 1332.14 C 644.42 1347.40 675.24 1381.50 695.32 1375.93 Z M 910.94 1374.45 C 939.69 1361.07 945.05 1324.97 918.29 1325.01 C 908.76 1325.02 890.34 1339.43 884.21 1351.65 C 875.88 1368.27 892.95 1382.82 910.94 1374.45 Z M 618.28 1337.94 C 633.19 1333.80 634.47 1316.71 620.89 1303.12 C 607.43 1289.66 596.45 1293.71 595.22 1312.58 C 594.04 1330.61 604.25 1341.84 618.28 1337.94 Z M 976.62 1326.94 C 985.11 1322.83 992.78 1311.22 991.65 1304.22 C 989.93 1293.62 980.64 1293.35 970.72 1303.59 C 957.63 1317.12 961.91 1334.06 976.62 1326.94 Z M 834.50 1165.76 C 832.85 1165.17 827.90 1162.42 823.50 1159.67 C 805.95 1148.66 790.35 1147.89 770.10 1157.01 C 739.65 1170.72 714.27 1128.32 734.03 1096.75 C 735.66 1094.14 738.37 1089.83 740.03 1087.18 C 741.70 1084.54 744.60 1078.24 746.48 1073.19 C 750.52 1062.32 753.63 1057.59 763.87 1046.66 C 775.32 1034.44 778.33 1030.38 783.33 1020.39 C 791.81 1003.41 799.25 1001.67 812.06 1013.66 C 818.14 1019.34 820.99 1024.07 824.03 1033.50 C 826.81 1042.16 829.74 1048.08 835.49 1056.64 C 837.93 1060.29 841.40 1067.37 843.19 1072.39 C 845.09 1077.71 848.67 1084.82 851.81 1089.50 C 858.23 1099.06 861.12 1104.62 863.50 1112.00 C 864.48 1115.03 867.10 1121.55 869.32 1126.50 C 879.67 1149.58 857.87 1174.18 834.50 1165.76 Z M 392.01 1105.75 C 406.67 1095.77 399.84 1074.77 382.42 1076.22 C 361.19 1077.98 362.30 1108.00 383.59 1108.00 C 387.25 1108.00 389.65 1107.36 392.01 1105.75 Z M 516.23 1033.93 C 500.57 1031.20 485.78 1016.79 479.12 997.76 C 475.49 987.38 474.43 985.26 467.95 975.33 C 459.33 962.12 459.69 965.25 459.24 899.29 C 458.66 813.86 459.03 812.08 479.14 804.47 C 483.19 802.94 491.23 798.67 497.00 794.99 C 512.34 785.20 510.82 785.50 545.50 785.50 C 580.16 785.50 579.91 785.45 592.93 794.01 C 605.28 802.12 607.38 802.85 622.72 804.47 C 636.82 805.96 642.48 807.81 651.22 813.79 C 657.26 817.93 662.69 820.56 672.53 824.12 C 684.23 828.36 690.22 833.07 713.15 856.04 C 740.93 883.87 742.83 887.95 735.40 903.82 C 730.51 914.26 730.18 915.57 728.57 930.83 C 726.53 950.05 725.55 951.79 705.79 971.22 C 687.63 989.08 683.33 992.21 669.94 997.34 C 664.68 999.36 656.42 1003.52 651.59 1006.58 C 640.38 1013.70 637.24 1014.76 623.65 1016.01 C 608.75 1017.39 603.97 1018.92 593.71 1025.57 C 580.41 1034.18 579.71 1034.32 548.50 1034.60 C 533.65 1034.74 519.13 1034.43 516.23 1033.93 Z M 1014.00 1033.65 C 1007.89 1032.25 1003.03 1029.91 993.83 1023.97 C 986.01 1018.92 980.21 1017.20 966.97 1016.04 C 954.05 1014.91 948.71 1013.17 938.97 1006.92 C 931.46 1002.10 924.74 998.82 915.73 995.55 C 899.69 989.73 886.65 975.49 879.92 956.43 C 878.28 951.78 874.26 943.63 871.00 938.33 C 867.73 933.03 864.10 925.73 862.92 922.10 C 861.75 918.47 858.75 911.32 856.26 906.20 C 847.37 887.91 848.09 886.20 876.99 856.69 C 900.19 832.99 905.52 828.80 919.22 823.55 C 924.57 821.49 931.77 818.04 935.22 815.87 C 948.67 807.42 952.83 805.95 967.62 804.40 C 982.65 802.82 986.00 801.70 998.00 794.22 C 1017.68 781.94 1029.11 789.54 1022.43 810.46 C 1013.30 839.05 1040.44 836.12 1051.60 807.30 C 1061.09 782.81 1077.37 780.11 1097.00 799.77 C 1116.09 818.88 1114.38 835.37 1092.47 843.54 C 1074.71 850.17 1057.97 888.28 1070.07 894.54 C 1077.05 898.15 1084.40 895.67 1097.05 885.46 C 1114.76 871.16 1121.10 869.50 1125.49 877.98 C 1127.77 882.39 1127.35 886.42 1123.41 897.83 C 1119.27 909.81 1119.34 911.40 1124.47 923.00 C 1130.36 936.34 1130.49 937.09 1130.50 957.50 C 1130.50 986.17 1129.33 988.79 1106.06 1012.08 C 1083.92 1034.25 1083.43 1034.44 1047.56 1034.71 C 1027.85 1034.85 1017.86 1034.54 1014.00 1033.65 Z M 1411.21 969.39 C 1419.35 965.18 1430.03 950.81 1428.53 946.08 C 1425.23 935.69 1400.09 945.49 1393.85 959.61 C 1389.45 969.55 1399.72 975.33 1411.21 969.39 Z M 1459.22 936.96 C 1481.35 930.81 1478.88 883.85 1456.43 884.02 C 1443.23 884.12 1437.40 895.52 1438.19 919.72 C 1438.75 936.88 1444.00 941.18 1459.22 936.96 Z M 954.68 899.50 C 975.40 893.35 962.55 865.55 939.00 865.56 C 921.11 865.57 904.97 886.78 916.29 895.41 C 922.94 900.47 943.90 902.70 954.68 899.50 Z M 289.50 476.60 C 284.91 474.57 282.65 471.55 283.42 468.47 C 285.55 459.98 326.88 459.75 329.57 468.22 C 331.82 475.30 301.11 481.72 289.50 476.60 Z M 1303.27 406.77 C 1309.26 402.59 1310.84 394.59 1306.37 391.07 C 1299.39 385.59 1288.96 391.68 1289.02 401.20 C 1289.07 409.02 1296.09 411.77 1303.27 406.77 Z M 392.02 371.72 C 384.88 368.10 385.67 355.54 393.35 350.51 C 399.48 346.49 408.87 348.32 410.82 353.92 C 413.99 363.00 400.34 375.92 392.02 371.72 Z M 353.41 257.07 C 347.76 254.66 346.80 244.77 351.66 238.99 C 359.18 230.06 378.24 229.57 376.59 238.36 C 374.54 249.31 360.94 260.29 353.41 257.07 Z M 384.75 228.92 C 378.89 225.51 385.46 200.05 393.29 195.84 C 412.15 185.69 430.31 207.83 415.55 222.95 C 409.65 228.99 391.06 232.59 384.75 228.92 Z M 1048.62 225.86 C 1057.91 223.53 1057.80 218.41 1048.35 212.36 C 1034.21 203.31 1026.10 201.71 1021.59 207.08 C 1012.05 218.41 1029.65 230.64 1048.62 225.86 Z M 1150.22 223.37 C 1154.04 221.42 1155.41 218.58 1153.36 216.88 C 1149.59 213.75 1132.99 214.89 1130.01 218.49 C 1125.40 224.04 1141.37 227.90 1150.22 223.37 Z" fill="#000" fill-rule="evenodd" clip-path="url(#rim)"/></svg>
