<svg xmlns="http://www.w3.org/2000/svg" viewBox="0 0 800 800" width="200" height="200"><circle cx="399.33" cy="400.22" r="362.02" fill="#f0ece3"/><path d="M 328.39 761.03 C 325.70 759.93 324.97 757.98 325.65 753.76 C 326.54 748.28 325.22 747.87 306.41 747.67 C 288.33 747.49 289.20 747.77 287.35 741.50 L 286.46 738.50 L 273.69 738.00 C 260.21 737.47 259.05 737.03 259.02 732.37 C 258.99 729.00 256.95 728.11 248.45 727.80 L 240.50 727.50 L 240.16 724.50 C 239.62 719.70 238.41 719.00 230.63 718.98 C 226.71 718.98 222.87 718.57 222.11 718.09 C 221.34 717.60 220.44 715.47 220.10 713.35 L 219.47 709.50 L 211.28 709.00 C 206.78 708.73 202.66 708.05 202.12 707.50 C 201.59 706.95 201.01 705.15 200.83 703.50 C 200.55 701.00 200.00 700.44 197.50 700.16 C 193.50 699.71 192.18 698.46 191.81 694.78 C 191.64 693.09 190.82 691.39 190.00 691.01 C 183.46 688.01 182.48 687.25 182.18 684.97 C 181.69 681.18 179.27 680.00 172.01 680.00 C 164.70 680.00 163.00 679.02 163.00 674.82 C 163.00 672.60 162.44 671.91 160.25 671.43 C 154.57 670.16 153.99 669.80 153.44 667.18 C 152.54 662.88 151.47 661.53 148.50 661.00 C 145.54 660.47 144.46 659.12 143.57 654.88 C 143.13 652.73 142.31 652.14 139.03 651.62 C 135.70 651.09 134.94 650.52 134.46 648.24 C 133.52 643.78 132.49 642.58 129.03 641.87 C 125.25 641.10 124.04 639.62 124.02 635.77 C 124.00 633.60 123.43 632.92 121.25 632.46 C 115.52 631.25 115.52 631.25 115.22 617.27 L 114.94 604.26 L 110.83 603.70 C 106.48 603.12 105.04 601.82 105.02 598.45 C 105.00 595.81 103.16 594.00 100.50 594.00 C 96.94 594.00 96.00 592.01 96.00 584.50 C 96.00 576.95 96.94 575.00 100.58 575.00 C 104.24 575.00 105.11 572.79 104.79 564.34 L 104.50 556.50 L 100.50 556.50 C 96.80 556.50 96.47 556.72 96.16 559.50 C 95.72 563.38 94.48 564.81 91.21 565.19 C 88.72 565.48 88.07 566.29 84.99 573.00 C 84.61 573.83 82.88 574.64 81.15 574.81 C 78.49 575.08 77.83 574.69 76.91 572.31 C 76.30 570.77 76.04 567.23 76.31 564.46 C 76.90 558.50 75.78 556.00 72.52 556.00 C 67.80 556.00 67.00 553.86 67.00 541.13 C 67.00 528.73 66.43 527.00 62.37 527.00 C 57.79 527.00 57.00 524.78 57.00 511.96 C 57.00 501.23 56.81 499.97 55.07 499.04 C 54.00 498.47 52.25 498.00 51.17 498.00 C 50.10 498.00 48.94 497.29 48.61 496.42 C 48.27 495.55 47.99 487.56 47.98 478.67 C 47.98 469.78 47.64 462.04 47.23 461.49 C 46.83 460.93 45.15 460.02 43.50 459.46 L 40.50 458.45 L 40.24 408.09 C 40.05 371.73 40.30 357.35 41.11 356.36 C 41.74 355.61 43.31 355.00 44.60 355.00 C 46.92 355.00 47.37 355.80 48.22 361.50 C 48.49 363.29 49.41 363.53 56.92 363.79 C 61.94 363.97 65.74 363.66 66.38 363.02 C 66.99 362.41 67.33 359.15 67.16 355.53 C 66.81 347.67 67.90 345.43 72.46 344.57 C 75.13 344.07 76.14 343.30 76.62 341.37 C 77.64 337.31 75.41 336.01 67.20 335.89 C 59.27 335.77 57.00 336.83 57.00 340.64 C 57.00 343.79 53.17 345.70 50.13 344.07 C 48.06 342.96 48.00 342.33 48.00 321.55 C 48.00 309.79 48.27 299.45 48.61 298.58 C 48.94 297.71 50.10 297.00 51.17 297.00 C 52.25 297.00 54.00 296.53 55.07 295.96 C 56.81 295.03 57.00 293.76 57.02 283.21 C 57.02 276.77 57.43 270.87 57.91 270.11 C 58.40 269.34 60.53 268.44 62.65 268.10 L 66.50 267.47 L 67.00 259.49 C 67.56 250.50 68.18 249.01 71.31 248.98 C 75.68 248.95 76.51 247.52 76.29 240.39 C 76.03 231.69 76.96 230.00 82.04 230.00 L 86.00 230.00 L 86.00 222.07 C 86.00 211.90 86.80 211.00 95.87 211.00 C 103.03 211.00 105.00 211.99 105.00 215.58 C 105.00 218.62 107.29 220.19 111.18 219.82 C 114.04 219.54 114.55 219.08 114.84 216.50 C 115.29 212.47 116.54 211.17 120.31 210.81 C 123.08 210.54 123.55 210.06 124.05 206.97 C 124.79 202.32 125.70 201.00 128.12 201.00 C 131.40 201.00 134.00 199.08 134.00 196.66 C 134.00 192.57 135.71 192.00 148.01 192.00 C 163.04 192.00 163.18 191.90 162.80 181.50 C 162.50 173.62 162.47 173.53 159.50 172.65 C 154.49 171.17 153.51 170.41 153.19 167.72 C 152.81 164.52 151.35 163.27 147.50 162.84 C 144.26 162.47 143.27 160.06 144.44 155.40 C 145.01 153.12 145.44 153.00 152.82 153.00 C 157.54 153.00 161.07 152.53 161.80 151.80 C 162.59 151.01 163.01 146.68 163.02 139.05 C 163.02 132.70 163.42 126.89 163.89 126.15 C 164.36 125.41 166.26 124.49 168.12 124.11 C 171.03 123.52 171.57 122.94 172.00 119.98 C 172.40 117.21 173.09 116.37 175.50 115.65 C 180.58 114.15 181.43 113.42 182.13 110.03 C 183.02 105.66 184.29 105.03 192.21 105.02 C 197.97 105.00 199.09 105.29 200.03 107.05 C 202.34 111.37 200.54 114.24 194.75 115.46 C 192.57 115.92 192.00 116.60 191.98 118.77 C 191.96 122.54 191.11 123.44 186.50 124.54 C 183.14 125.35 182.45 125.95 182.18 128.31 C 181.65 132.94 183.39 134.00 191.59 134.00 C 199.42 134.00 201.00 135.00 201.00 139.96 C 201.00 142.07 203.03 143.33 208.25 144.45 C 210.47 144.93 211.00 145.59 211.00 147.90 C 211.00 151.47 213.05 153.24 216.69 152.82 C 219.47 152.50 219.50 152.43 219.79 144.66 C 220.11 136.21 219.24 134.00 215.58 134.00 C 211.93 134.00 211.00 132.05 211.00 124.42 C 211.00 116.65 212.14 114.59 216.09 115.17 C 218.50 115.53 219.57 117.02 220.46 121.25 C 221.03 123.98 221.09 124.00 229.40 124.00 C 238.45 124.00 240.43 123.02 239.83 118.83 C 239.61 117.29 238.52 116.25 236.50 115.65 C 231.42 114.15 230.57 113.42 229.87 110.03 C 228.98 105.68 227.71 105.03 219.95 105.02 C 216.21 105.01 212.89 104.49 212.20 103.80 C 211.50 103.10 211.00 99.77 211.00 95.87 C 211.00 87.00 212.02 86.00 221.04 86.00 C 228.38 86.00 230.00 84.92 230.00 80.04 C 230.00 77.25 233.56 76.00 241.46 76.00 C 248.03 76.00 249.00 75.35 249.00 70.98 C 249.00 68.00 250.78 67.53 264.00 67.00 L 276.50 66.50 L 277.79 62.53 C 278.51 60.35 279.63 58.22 280.30 57.80 C 280.96 57.37 286.70 57.02 293.05 57.02 C 305.53 57.00 307.00 56.46 307.00 51.91 C 307.00 50.37 307.68 48.95 308.58 48.61 C 309.45 48.27 315.51 48.00 322.05 48.00 C 332.77 48.00 334.03 48.19 334.96 49.93 C 335.53 51.00 336.00 52.78 336.00 53.90 C 336.00 55.02 336.90 56.41 338.00 57.00 C 340.96 58.59 343.64 56.70 344.68 52.28 C 345.48 48.92 345.97 48.46 349.39 47.90 C 353.53 47.23 354.96 45.77 354.98 42.23 C 354.99 40.75 355.85 39.63 357.43 39.03 C 358.80 38.50 378.93 38.19 404.01 38.30 C 446.44 38.49 448.22 38.58 449.58 40.44 C 450.36 41.51 451.00 43.42 451.00 44.69 C 451.00 45.96 451.11 47.09 451.25 47.19 C 451.39 47.30 459.60 47.63 469.50 47.94 L 487.50 48.50 L 487.84 51.50 C 488.42 56.68 489.26 57.00 502.05 57.00 C 514.77 57.00 517.00 57.80 517.00 62.37 C 517.00 66.41 518.75 67.00 530.77 67.00 C 543.07 67.00 546.00 67.83 546.00 71.34 C 546.00 74.97 547.93 76.00 554.77 76.00 C 562.57 76.00 565.00 77.15 565.00 80.84 C 565.00 85.09 566.68 86.00 574.50 86.00 C 582.25 86.00 584.00 86.92 584.00 91.00 C 584.00 94.30 585.70 96.00 589.00 96.00 C 592.14 96.00 594.00 97.67 594.00 100.50 C 594.00 103.98 596.01 105.00 602.95 105.02 C 610.71 105.03 611.98 105.68 612.87 110.03 C 613.57 113.42 614.42 114.15 619.50 115.65 C 621.93 116.37 622.60 117.21 623.00 120.02 C 623.43 123.01 623.93 123.55 626.50 123.84 C 630.49 124.29 632.00 125.69 632.00 128.92 C 632.00 132.18 633.66 134.00 636.63 134.00 C 639.54 134.00 642.00 136.53 642.00 139.54 C 642.00 142.20 639.44 144.00 635.67 144.00 C 634.32 144.00 632.94 144.71 632.61 145.58 C 631.62 148.16 631.92 158.97 633.04 161.07 C 635.21 165.13 642.00 162.40 642.00 157.46 C 642.00 154.17 644.72 153.00 652.38 153.00 C 659.28 153.00 659.93 153.40 660.93 158.32 C 661.57 161.43 662.48 162.17 667.50 163.65 C 669.93 164.37 670.60 165.21 671.00 168.02 C 671.43 171.01 671.93 171.55 674.50 171.84 C 678.49 172.29 680.00 173.69 680.00 176.92 C 680.00 180.18 681.66 182.00 684.63 182.00 C 688.85 182.00 690.30 184.72 689.74 191.65 C 689.17 198.73 690.30 200.59 695.50 201.17 C 698.14 201.46 698.63 202.03 699.58 206.00 C 700.54 210.02 700.99 210.53 703.75 210.81 C 705.46 210.98 707.33 211.69 707.91 212.39 C 708.58 213.20 709.06 223.52 709.23 240.58 L 709.50 267.50 L 712.82 267.82 C 717.97 268.31 719.00 266.77 719.00 258.58 C 719.00 250.67 719.90 249.00 724.18 249.00 C 727.45 249.00 727.87 250.18 728.25 260.49 L 728.50 267.47 L 732.35 268.10 C 734.47 268.44 736.63 269.34 737.14 270.11 C 737.65 270.87 737.95 276.61 737.81 282.85 C 737.49 296.62 737.78 297.00 748.49 297.00 C 752.69 297.00 756.09 297.49 756.80 298.20 C 758.61 300.01 758.51 361.33 756.70 362.84 C 755.98 363.43 751.37 364.05 746.45 364.21 C 737.74 364.49 737.49 364.57 737.21 367.00 C 736.64 371.88 738.96 373.38 746.75 373.17 C 757.89 372.87 757.91 372.91 758.10 393.36 C 758.23 406.74 757.98 410.40 756.88 411.09 C 756.12 411.58 749.85 411.98 742.95 411.98 C 734.54 411.99 730.00 412.40 729.20 413.20 C 728.47 413.93 728.00 417.46 728.00 422.16 C 728.00 430.43 727.06 432.00 722.10 432.00 C 719.42 432.00 717.60 435.38 718.93 437.88 C 720.19 440.22 731.12 441.39 735.00 439.61 C 737.33 438.53 737.50 437.97 737.50 431.15 C 737.50 425.08 737.83 423.61 739.44 422.43 C 742.13 420.45 752.89 420.54 755.78 422.56 L 758.00 424.11 L 758.00 459.86 C 758.00 486.32 757.69 495.91 756.80 496.80 C 756.00 497.60 751.63 498.00 743.73 498.00 C 730.39 498.00 728.00 498.75 728.00 502.91 C 728.00 506.31 726.54 507.71 722.50 508.16 C 720.00 508.44 719.44 509.00 719.16 511.50 C 718.71 515.53 717.31 517.00 713.94 517.00 C 710.80 517.00 709.97 517.91 708.47 523.00 L 707.44 526.50 L 695.11 526.78 C 686.87 526.97 682.32 526.68 681.39 525.91 C 680.45 525.13 680.00 522.54 680.00 517.96 C 680.00 507.49 679.29 508.00 693.91 508.00 C 707.32 508.00 709.00 507.48 709.00 503.37 C 709.00 498.80 706.77 498.00 694.05 498.00 C 681.30 498.00 680.43 497.67 679.84 492.60 C 679.39 488.74 676.94 487.25 673.58 488.78 C 671.12 489.90 671.00 490.33 671.00 497.94 C 671.00 507.90 670.85 508.00 656.15 508.00 C 650.11 508.00 644.45 508.27 643.58 508.61 C 642.68 508.95 642.00 510.37 642.00 511.91 C 642.00 515.35 640.32 517.00 636.84 517.00 C 633.19 517.00 632.00 519.43 632.00 526.85 C 632.00 536.55 630.94 536.00 649.54 536.00 C 658.52 536.00 667.02 536.44 668.43 536.98 C 670.89 537.91 671.00 538.29 671.00 545.85 C 671.00 554.46 671.61 555.61 676.50 556.16 C 679.06 556.45 679.57 557.00 680.00 559.90 C 680.63 564.20 682.93 565.76 686.70 564.44 C 689.39 563.50 689.51 563.17 689.78 555.98 C 690.10 547.57 691.18 546.00 696.69 546.00 C 699.87 546.00 700.00 545.84 700.00 542.12 C 700.00 537.54 701.94 535.52 705.47 536.40 C 708.42 537.14 709.69 540.85 708.05 543.91 C 707.25 545.40 705.96 546.00 703.55 546.00 L 700.16 546.00 L 699.83 552.75 C 699.65 556.46 699.73 562.86 700.00 566.96 L 700.50 574.43 L 703.88 575.11 C 705.74 575.49 707.64 576.41 708.11 577.15 C 710.16 580.38 708.28 583.99 704.55 584.02 C 700.39 584.05 699.71 585.39 699.90 593.29 C 700.09 601.80 698.86 604.00 693.90 604.00 C 690.90 604.00 690.65 604.31 689.57 609.23 C 689.16 611.11 688.14 612.18 686.33 612.63 C 682.73 613.54 680.60 611.94 680.00 607.90 L 679.50 604.50 L 670.50 604.50 L 661.50 604.50 L 661.19 608.75 L 660.89 613.00 L 664.74 613.00 C 666.86 613.00 669.14 613.54 669.80 614.20 C 670.60 615.00 671.00 619.34 671.00 627.13 C 671.00 639.77 670.19 642.00 665.63 642.00 C 662.85 642.00 661.00 643.77 660.98 646.45 C 660.96 649.63 659.55 651.14 655.91 651.88 C 653.15 652.45 652.45 653.14 651.90 655.83 C 651.08 659.86 650.87 660.08 646.90 660.89 C 643.51 661.58 642.48 662.80 641.54 667.23 C 641.13 669.19 640.19 670.13 638.23 670.54 C 633.70 671.50 632.52 672.55 632.00 676.10 L 631.50 679.50 L 623.55 679.80 C 614.94 680.12 613.00 680.99 613.00 684.55 C 613.00 687.51 610.50 690.00 607.54 690.00 C 605.23 690.00 604.01 691.65 603.98 694.83 C 603.96 697.78 602.30 699.27 598.35 699.90 C 594.98 700.45 594.46 700.90 594.19 703.51 C 593.74 707.84 591.55 709.00 583.84 709.00 C 576.66 709.00 575.00 710.10 575.00 714.88 C 575.00 717.81 573.39 718.44 564.50 719.00 L 556.50 719.50 L 556.16 722.50 C 555.61 727.38 554.46 728.00 545.91 728.00 C 537.56 728.00 536.00 728.93 536.00 733.90 C 536.00 737.14 533.02 737.92 521.04 737.82 C 509.11 737.71 508.05 738.11 508.02 742.68 C 507.98 747.05 505.99 747.72 493.83 747.43 C 487.60 747.27 481.99 747.12 481.37 747.07 C 480.75 747.03 479.73 744.98 479.10 742.50 C 478.04 738.26 477.77 738.00 474.54 738.00 C 470.79 738.00 470.00 738.79 469.05 743.40 C 468.44 746.37 467.63 746.91 461.25 748.61 C 460.44 748.82 460.00 750.88 460.00 754.43 C 460.00 758.90 459.63 760.13 458.01 760.99 C 455.67 762.24 443.18 761.27 441.18 759.68 C 440.17 758.89 439.92 755.26 440.11 744.52 C 440.25 736.75 440.03 729.86 439.62 729.20 C 439.22 728.54 437.59 728.00 436.00 728.00 C 432.80 728.00 431.97 727.10 431.06 722.62 C 430.57 720.23 429.77 719.43 427.38 718.94 C 422.91 718.03 422.17 717.33 420.99 712.96 C 420.01 709.32 419.64 709.00 416.48 709.00 C 412.30 709.00 411.76 710.44 412.20 720.51 L 412.50 727.47 L 416.26 728.08 C 418.33 728.42 420.30 728.97 420.65 729.31 C 420.99 729.66 421.20 733.26 421.10 737.32 C 420.91 745.42 421.42 746.32 426.76 747.47 C 428.55 747.85 430.46 749.00 431.01 750.02 C 432.62 753.02 432.15 757.85 430.05 759.95 C 428.17 761.83 426.35 761.90 379.30 761.90 C 352.46 761.90 329.55 761.51 328.39 761.03 Z M 314.95 717.57 C 315.60 716.78 315.99 714.64 315.82 712.82 C 315.55 710.02 315.06 709.45 312.69 709.18 C 309.05 708.76 307.00 710.53 307.00 714.07 C 307.00 718.34 312.35 720.69 314.95 717.57 Z M 362.95 707.56 C 363.61 706.77 364.00 704.86 363.82 703.31 L 363.50 700.50 L 354.75 700.21 C 346.12 699.93 345.97 699.96 344.78 702.58 C 343.71 704.94 343.83 705.45 345.90 707.12 C 348.86 709.52 361.06 709.83 362.95 707.56 Z M 534.82 698.72 C 536.14 697.13 536.66 673.25 535.40 672.03 C 534.91 671.55 533.16 671.01 531.53 670.83 C 528.92 670.54 528.39 669.91 527.22 665.75 C 525.98 661.33 525.66 661.00 522.64 661.00 C 518.70 661.00 517.00 662.53 517.00 666.08 C 517.00 669.31 515.49 670.71 511.50 671.16 L 508.50 671.50 L 508.50 680.00 L 508.50 688.50 L 511.97 689.62 C 515.65 690.81 516.54 691.88 517.44 696.18 C 518.07 699.18 519.44 699.65 528.13 699.86 C 531.64 699.95 534.16 699.52 534.82 698.72 Z M 574.80 690.41 C 575.18 680.19 574.93 680.00 560.74 680.00 C 548.89 680.00 546.00 680.86 546.00 684.38 C 546.00 688.26 548.88 689.87 556.42 690.20 C 563.67 690.52 564.35 690.97 565.44 696.18 C 566.04 699.04 568.85 700.13 572.50 698.93 C 574.24 698.36 574.54 697.25 574.80 690.41 Z M 335.05 678.44 C 337.14 675.92 335.10 671.57 331.64 671.18 C 328.70 670.84 325.00 673.29 325.00 675.58 C 325.00 679.44 332.46 681.56 335.05 678.44 Z M 430.08 669.40 C 430.90 668.42 431.43 665.08 431.46 660.76 C 431.50 653.26 431.87 652.67 437.25 651.54 C 439.38 651.09 440.00 650.39 440.00 648.42 C 440.00 644.52 441.78 642.00 444.54 642.00 C 445.89 642.00 447.89 641.11 448.99 640.01 C 450.68 638.32 450.88 637.18 450.36 632.21 C 449.54 624.29 450.86 623.00 459.87 623.00 C 467.23 623.00 469.00 622.03 469.00 618.00 C 469.00 614.83 467.33 613.00 464.42 613.00 C 461.68 613.00 460.27 611.32 459.84 607.54 C 459.56 605.10 458.92 604.45 456.26 603.91 C 452.39 603.13 450.00 601.33 450.00 599.21 C 450.00 596.89 453.02 594.00 455.45 594.00 C 458.33 594.00 460.00 592.16 460.00 589.00 C 460.00 585.70 458.30 584.00 455.00 584.00 C 451.83 584.00 450.00 582.33 450.00 579.42 C 450.00 576.67 448.32 575.27 444.50 574.84 C 441.86 574.54 441.37 573.96 440.42 570.00 L 439.34 565.50 L 431.25 565.00 C 426.80 564.73 422.85 564.19 422.46 563.80 C 422.08 563.42 421.47 561.62 421.10 559.80 L 420.42 556.50 L 413.01 556.20 C 405.07 555.88 403.00 554.95 403.00 551.71 C 403.00 550.58 402.26 548.83 401.35 547.83 C 399.93 546.26 398.07 546.00 388.35 546.00 C 378.33 546.00 376.76 546.24 375.00 548.00 C 373.90 549.10 373.00 550.84 373.00 551.88 C 373.00 554.34 371.20 555.74 367.50 556.16 C 365.00 556.44 364.44 557.00 364.16 559.50 C 363.73 563.35 362.33 565.00 359.50 565.00 C 356.04 565.00 355.12 566.95 354.80 574.94 C 354.48 582.73 354.36 582.92 348.50 584.65 C 345.54 585.53 345.49 585.65 345.00 593.81 C 344.47 602.50 343.66 603.95 339.31 603.98 C 338.10 603.99 336.80 604.51 336.42 605.13 C 336.04 605.75 335.72 611.54 335.72 618.00 C 335.72 624.46 336.04 630.25 336.42 630.87 C 336.80 631.49 338.18 632.00 339.49 632.00 C 343.72 632.00 345.00 634.44 345.00 642.51 C 345.00 647.31 345.44 650.16 346.25 650.69 C 346.94 651.14 351.10 651.73 355.50 652.00 L 363.50 652.50 L 363.81 655.68 C 363.98 657.42 364.67 659.31 365.36 659.88 C 366.04 660.45 370.17 661.04 374.55 661.20 L 382.50 661.50 L 383.67 666.00 C 384.31 668.48 384.88 670.61 384.92 670.75 C 384.96 670.89 394.84 671.00 406.88 671.00 C 425.72 671.00 428.94 670.78 430.08 669.40 Z M 554.96 669.07 C 555.53 668.00 556.00 665.73 556.00 664.03 L 556.00 660.92 L 564.64 661.21 C 573.86 661.52 573.89 661.54 575.66 667.50 L 576.54 670.50 L 589.01 670.78 C 599.86 671.03 601.64 670.84 602.74 669.34 C 603.66 668.08 604.00 661.68 604.00 645.31 L 604.00 623.00 L 607.44 623.00 C 611.19 623.00 612.00 622.21 612.93 617.68 C 613.57 614.57 614.48 613.83 619.50 612.35 C 621.91 611.64 622.56 610.84 622.81 608.27 C 623.19 604.34 621.58 603.76 611.48 604.20 L 604.50 604.50 L 604.21 613.81 L 603.92 623.11 L 599.74 622.81 C 595.76 622.52 595.48 622.28 593.99 618.00 L 592.44 613.50 L 584.49 613.50 L 576.55 613.50 L 575.66 616.50 C 574.16 621.53 573.43 622.43 570.32 623.07 C 565.33 624.09 565.00 624.67 565.00 632.36 C 565.00 640.30 564.10 642.00 559.91 642.00 C 556.47 642.00 556.00 643.35 556.00 653.08 L 556.00 661.00 L 552.20 661.00 C 547.88 661.00 546.00 662.40 546.00 665.63 C 546.00 670.43 552.83 673.05 554.96 669.07 Z M 334.43 659.43 C 337.79 656.07 335.64 652.00 330.50 652.00 C 325.02 652.00 323.04 656.51 327.22 659.44 C 330.05 661.43 332.44 661.42 334.43 659.43 Z M 314.80 650.80 C 315.46 650.14 316.00 648.43 316.00 647.00 C 316.00 645.57 315.46 643.86 314.80 643.20 C 313.49 641.89 300.25 641.54 298.38 642.77 C 296.05 644.30 295.83 647.83 297.95 649.95 C 299.61 651.61 301.28 652.00 306.80 652.00 C 310.76 652.00 314.10 651.50 314.80 650.80 Z M 534.80 650.80 C 535.54 650.06 536.00 646.43 536.00 641.32 C 536.00 633.09 535.98 633.03 533.25 632.46 C 527.90 631.33 527.52 630.73 527.20 622.94 C 526.87 614.69 525.98 613.00 522.00 613.00 C 517.97 613.00 517.12 614.71 516.80 623.55 L 516.50 631.50 L 508.21 632.00 C 499.49 632.53 498.05 633.34 498.02 637.71 C 498.00 640.10 495.37 642.00 492.10 642.00 C 487.95 642.00 486.75 650.26 490.75 651.31 C 491.71 651.56 501.75 651.82 513.05 651.88 C 527.84 651.97 533.94 651.66 534.80 650.80 Z M 630.80 640.80 C 631.46 640.14 632.00 638.43 632.00 637.00 C 632.00 635.57 631.46 633.86 630.80 633.20 C 629.32 631.72 617.61 631.60 614.93 633.04 C 612.45 634.37 612.33 639.51 614.75 640.92 C 617.22 642.36 629.33 642.27 630.80 640.80 Z M 660.79 622.25 L 661.08 613.00 L 658.12 613.00 C 653.51 613.00 652.00 612.03 652.00 609.09 C 652.00 605.82 650.35 604.00 647.38 604.00 C 642.12 604.00 642.00 604.31 642.00 618.02 C 642.00 627.33 642.34 630.98 643.25 631.36 C 643.94 631.64 648.10 631.79 652.50 631.69 L 660.50 631.50 L 660.79 622.25 Z M 287.03 620.95 C 287.63 619.82 288.00 616.11 287.85 612.70 C 287.53 605.57 288.19 604.00 291.49 604.00 C 295.64 604.00 297.00 601.54 297.00 594.00 C 297.00 589.10 296.55 586.69 295.43 585.57 C 292.55 582.70 288.00 583.98 288.00 587.67 C 288.00 591.26 286.22 594.00 283.90 594.00 C 280.53 594.00 278.00 595.91 278.00 598.46 C 278.00 601.67 275.49 604.00 272.04 604.00 C 268.59 604.00 268.00 605.35 268.00 613.15 C 268.00 622.39 268.61 623.00 278.00 623.00 C 284.97 623.00 286.06 622.75 287.03 620.95 Z M 122.42 603.39 C 124.31 602.67 124.58 596.98 122.80 595.20 C 120.96 593.36 117.19 593.77 116.04 595.93 C 114.87 598.12 114.66 602.32 115.67 603.33 C 116.50 604.17 120.32 604.20 122.42 603.39 Z M 324.43 592.07 C 326.74 589.53 326.11 586.92 322.75 585.03 C 319.33 583.11 316.64 584.49 316.18 588.41 C 315.56 593.64 320.88 596.00 324.43 592.07 Z M 563.80 592.80 C 564.54 592.06 565.00 588.43 565.00 583.34 L 565.00 575.08 L 574.25 574.79 L 583.50 574.50 L 583.50 570.00 L 583.50 565.50 L 576.27 565.21 C 566.97 564.83 565.00 565.85 565.00 571.04 L 565.00 575.00 L 551.70 575.00 C 542.69 575.00 538.01 575.39 537.20 576.20 C 535.72 577.68 535.60 589.39 537.04 592.07 C 537.97 593.82 539.23 594.00 550.34 594.00 C 558.54 594.00 563.00 593.60 563.80 592.80 Z M 639.85 593.11 C 640.59 592.64 641.51 590.74 641.89 588.89 C 642.42 586.29 643.25 585.32 645.54 584.64 C 650.38 583.21 651.48 582.41 651.83 580.09 C 652.48 575.69 650.61 575.00 638.07 575.00 C 625.27 575.00 622.56 575.90 623.16 579.95 C 623.53 582.49 624.97 583.56 629.25 584.46 C 631.38 584.91 632.00 585.61 632.00 587.58 C 632.00 592.96 635.83 595.66 639.85 593.11 Z M 324.43 554.43 C 326.45 552.40 326.42 550.13 324.35 547.83 C 321.06 544.20 316.00 546.12 316.00 551.00 C 316.00 552.43 316.54 554.14 317.20 554.80 C 318.88 556.48 322.56 556.29 324.43 554.43 Z M 515.80 525.80 C 516.46 525.14 517.00 523.43 517.00 522.00 C 517.00 518.86 515.33 517.00 512.50 517.00 C 508.67 517.00 506.87 520.90 508.61 525.42 C 509.32 527.29 514.06 527.54 515.80 525.80 Z M 209.80 515.80 C 211.62 513.98 211.50 462.66 209.68 461.15 C 208.86 460.47 201.74 459.94 191.03 459.77 C 172.15 459.48 171.00 459.10 172.35 453.73 C 172.82 451.85 173.88 450.97 176.25 450.46 C 178.04 450.08 180.06 449.32 180.75 448.76 C 182.32 447.49 182.39 442.36 180.84 441.40 C 180.20 441.01 174.87 440.57 168.99 440.42 C 156.80 440.13 153.77 441.07 153.01 445.42 C 152.50 448.29 151.85 448.86 146.75 450.87 C 144.49 451.76 144.00 452.57 144.00 455.41 C 144.00 458.97 144.12 459.06 150.25 460.43 C 152.96 461.03 153.00 461.15 153.00 468.82 C 153.00 473.54 153.47 477.07 154.20 477.80 C 154.91 478.51 158.31 479.00 162.50 479.00 C 166.69 479.00 170.09 479.49 170.80 480.20 C 171.60 481.00 172.00 485.34 172.00 493.13 C 172.00 505.77 172.81 508.00 177.37 508.00 C 180.17 508.00 182.00 509.78 182.00 512.50 C 182.00 516.44 183.80 517.00 196.50 517.00 C 204.58 517.00 209.00 516.60 209.80 515.80 Z M 401.07 506.96 C 402.67 506.10 403.00 504.83 403.00 499.40 C 403.00 491.34 401.96 489.27 397.48 488.43 C 395.55 488.07 393.66 487.26 393.27 486.64 C 392.88 486.01 392.55 482.22 392.53 478.21 C 392.50 470.45 391.69 469.05 387.23 469.02 C 384.44 469.00 383.30 466.31 383.23 459.52 C 383.16 453.26 384.23 451.26 388.19 450.23 C 390.75 449.57 391.55 448.67 392.45 445.48 C 393.38 442.16 394.12 441.39 397.23 440.52 C 401.65 439.28 402.72 438.29 403.17 435.03 C 403.42 433.18 404.38 432.32 407.00 431.59 C 410.97 430.49 411.96 429.44 411.98 426.32 C 412.01 422.28 414.54 421.00 422.51 421.00 C 430.37 421.00 430.91 420.69 431.95 415.59 C 432.56 412.56 432.69 412.50 439.04 412.24 C 448.40 411.87 450.00 411.35 450.00 408.67 C 450.00 404.02 452.18 402.62 459.12 402.80 C 462.63 402.89 466.04 402.62 466.70 402.20 C 467.37 401.78 468.49 399.65 469.20 397.47 L 470.50 393.50 L 477.00 393.24 C 486.76 392.86 488.00 392.41 488.02 389.23 C 488.04 384.20 489.23 383.51 497.96 383.42 C 502.38 383.37 506.29 383.04 506.65 382.68 C 507.02 382.32 507.58 380.34 507.92 378.28 C 508.53 374.54 508.99 374.19 515.75 372.39 C 516.61 372.17 517.00 369.74 517.00 364.65 C 517.00 356.56 517.52 355.65 522.82 354.52 C 524.64 354.13 526.27 353.29 526.43 352.66 C 528.00 346.53 528.68 345.49 531.42 345.01 C 534.47 344.47 535.53 343.15 536.46 338.75 C 536.97 336.30 537.48 336.00 541.05 336.00 C 545.13 336.00 545.33 336.19 546.43 341.23 C 546.86 343.18 547.82 344.13 549.77 344.54 C 554.21 345.48 555.48 346.54 555.84 349.60 C 556.45 354.86 560.14 356.72 563.43 353.43 C 565.44 351.42 565.71 337.13 563.75 336.61 C 557.03 334.82 556.50 334.43 556.00 331.01 C 555.51 327.63 555.12 327.29 548.00 323.98 C 547.17 323.60 546.50 321.99 546.50 320.42 C 546.50 318.09 547.07 317.38 549.50 316.66 C 555.40 314.91 555.47 314.79 556.00 305.93 L 556.50 297.57 L 559.84 296.89 C 561.68 296.52 563.60 295.80 564.11 295.29 C 564.64 294.76 564.92 282.97 564.77 267.43 L 564.50 240.50 L 561.50 240.16 C 556.63 239.61 556.00 238.45 556.00 230.08 C 556.00 221.72 555.15 220.00 551.00 220.00 C 547.86 220.00 546.00 218.33 546.00 215.50 C 546.00 212.63 544.13 211.00 540.84 211.00 C 537.08 211.00 536.00 208.56 536.00 200.03 C 536.00 195.23 535.60 192.81 534.75 192.55 C 534.06 192.34 532.27 191.90 530.77 191.57 C 528.82 191.14 527.87 190.18 527.46 188.23 C 526.52 183.79 525.49 182.58 522.03 181.87 C 517.68 180.98 517.03 179.71 517.02 171.95 C 517.00 164.70 516.01 163.00 511.82 163.00 C 509.59 163.00 508.92 162.45 508.45 160.25 C 506.85 152.77 507.33 153.00 493.58 153.00 C 480.27 153.00 480.15 152.95 479.05 147.59 L 478.42 144.50 L 466.96 144.25 C 451.87 143.93 451.37 143.79 450.57 139.52 C 450.21 137.60 449.06 135.57 448.02 135.01 C 445.04 133.41 347.35 133.64 346.31 135.25 C 345.86 135.94 345.04 138.07 344.47 140.00 L 343.44 143.50 L 330.23 143.78 L 317.02 144.06 L 316.45 146.78 C 315.26 152.46 315.20 152.48 301.65 152.78 L 289.02 153.06 L 288.44 155.78 C 287.29 161.17 286.09 163.00 283.71 163.00 C 278.99 163.00 277.66 165.12 277.89 172.23 C 278.12 179.39 276.71 182.00 272.63 182.00 C 269.66 182.00 268.00 183.82 268.00 187.08 C 268.00 190.31 266.49 191.71 262.50 192.16 L 259.50 192.50 L 259.20 200.45 C 259.04 204.83 258.45 208.96 257.88 209.64 C 257.31 210.33 255.47 211.02 253.78 211.19 C 250.54 211.52 249.49 212.73 248.54 217.25 C 248.10 219.33 247.37 220.00 245.56 220.00 C 240.42 220.00 240.00 220.68 240.00 229.04 C 240.00 237.30 238.77 240.00 235.01 240.00 C 230.17 240.00 230.00 240.47 230.00 254.00 C 230.00 267.69 230.12 268.00 235.38 268.00 C 239.12 268.00 240.00 269.91 240.00 278.00 C 240.00 286.02 240.89 288.00 244.50 288.00 C 247.23 288.00 249.00 289.83 249.00 292.64 C 249.00 295.20 250.08 296.06 254.32 296.93 C 257.43 297.57 258.17 298.48 259.65 303.50 C 260.37 305.93 261.21 306.60 264.02 307.00 C 267.01 307.43 267.55 307.93 267.84 310.50 C 268.27 314.29 269.67 316.00 272.37 316.02 C 275.63 316.04 277.13 317.42 277.88 321.08 C 278.37 323.48 279.26 324.62 281.03 325.11 C 282.39 325.49 292.16 325.85 302.75 325.90 C 320.83 325.99 322.12 325.88 324.03 323.97 C 326.01 321.99 326.06 320.87 325.97 281.98 C 325.91 260.00 326.12 241.62 326.41 241.14 C 326.71 240.66 328.73 239.98 330.90 239.63 C 335.48 238.90 336.19 237.17 335.76 227.71 C 335.48 221.58 336.44 220.05 340.55 220.02 C 344.06 219.99 345.00 217.97 345.00 210.50 C 345.00 203.03 345.94 201.01 349.45 200.98 C 352.64 200.96 354.14 199.55 354.89 195.88 C 355.46 193.07 356.07 192.44 358.54 192.16 C 362.51 191.71 364.00 190.30 364.00 187.00 C 364.00 185.48 364.59 183.75 365.31 183.15 C 366.06 182.54 371.98 181.94 379.03 181.78 L 391.43 181.50 L 392.32 177.73 C 393.39 173.17 396.19 171.31 399.63 172.88 C 400.93 173.47 402.00 174.77 402.00 175.76 C 402.00 176.75 402.70 178.56 403.56 179.78 C 405.02 181.86 405.85 182.00 416.93 182.00 C 429.82 182.00 430.50 182.27 431.62 187.86 C 432.09 190.22 432.92 191.17 434.88 191.60 C 439.62 192.63 440.00 192.91 440.00 195.40 C 440.00 198.51 442.45 201.00 445.51 201.00 C 449.39 201.00 451.03 204.45 450.33 211.15 C 449.63 217.82 450.76 220.00 454.92 220.00 C 459.15 220.00 460.00 221.69 460.00 230.08 C 460.00 238.45 460.63 239.61 465.50 240.16 L 468.50 240.50 L 468.76 272.38 C 468.95 294.26 468.69 304.67 467.94 305.57 C 467.34 306.29 465.42 307.02 463.68 307.19 C 460.79 307.47 460.45 307.86 460.00 311.49 C 459.53 315.22 459.25 315.51 455.65 316.10 C 453.53 316.44 451.37 317.34 450.85 318.11 C 450.33 318.87 450.15 322.22 450.46 325.55 C 451.11 332.62 450.12 334.47 445.02 335.74 C 442.10 336.48 441.41 337.20 440.67 340.31 C 440.00 343.18 439.20 344.14 437.15 344.59 C 435.69 344.91 433.99 345.32 433.38 345.50 C 432.76 345.69 431.95 347.45 431.58 349.41 C 430.72 354.01 428.69 355.00 420.08 355.00 C 413.21 355.00 413.02 355.07 412.44 357.75 C 411.18 363.46 411.46 363.18 405.75 364.44 C 403.73 364.88 403.00 365.64 403.00 367.33 C 403.00 372.04 400.74 373.49 393.28 373.57 C 389.49 373.61 385.90 373.94 385.31 374.31 C 384.71 374.68 383.93 376.54 383.57 378.45 C 383.22 380.37 382.56 382.15 382.12 382.42 C 381.68 382.70 378.21 383.01 374.41 383.12 C 365.85 383.38 364.21 384.16 363.81 388.17 C 363.54 390.91 362.97 391.48 359.54 392.44 C 356.18 393.37 355.47 394.05 354.89 396.86 C 353.90 401.70 352.63 402.48 345.32 402.69 C 337.24 402.93 336.00 403.37 336.00 406.03 C 336.00 411.06 334.46 412.00 326.16 412.00 C 321.46 412.00 317.93 412.47 317.20 413.20 C 315.49 414.91 315.49 466.09 317.20 467.80 C 317.86 468.46 319.41 469.00 320.64 469.00 C 323.22 469.00 326.00 472.43 326.00 475.62 C 326.00 477.79 327.70 478.99 330.83 479.02 C 333.61 479.04 335.17 480.58 335.87 483.99 C 336.39 486.58 337.24 487.48 340.02 488.37 C 342.87 489.30 343.67 490.18 344.43 493.28 C 345.14 496.15 345.98 497.20 347.93 497.65 C 352.17 498.62 355.00 500.90 355.00 503.32 C 355.00 504.58 355.54 506.14 356.20 506.80 C 357.75 508.35 398.20 508.50 401.07 506.96 Z M 659.96 496.07 C 662.83 490.72 660.19 488.00 652.13 488.00 C 644.83 488.00 642.00 489.33 642.00 492.78 C 642.00 497.11 643.64 498.00 651.66 498.00 C 657.82 498.00 659.09 497.71 659.96 496.07 Z M 669.80 477.80 C 671.22 476.38 671.34 473.09 670.04 471.04 C 668.80 469.07 655.60 468.26 653.49 470.01 C 651.99 471.25 651.42 477.08 652.67 478.33 C 653.86 479.53 668.53 479.07 669.80 477.80 Z M 497.43 467.43 C 499.43 465.42 499.42 463.56 497.39 461.53 C 496.13 460.27 494.12 459.98 488.24 460.21 C 479.62 460.54 477.73 461.93 479.78 466.42 C 480.89 468.86 481.37 469.00 488.41 469.00 C 493.85 469.00 496.28 468.58 497.43 467.43 Z M 651.35 456.50 C 653.10 450.57 653.22 450.50 661.29 450.50 C 665.44 450.50 669.15 450.81 669.53 451.20 C 669.92 451.58 670.53 453.34 670.89 455.10 C 671.69 459.01 673.82 460.51 677.35 459.63 C 679.96 458.97 680.00 458.82 680.00 450.54 C 680.00 441.56 679.77 441.10 674.59 440.06 C 671.99 439.53 671.45 438.91 671.18 436.16 C 670.94 433.70 670.21 432.65 668.21 431.89 C 664.52 430.49 661.00 432.20 661.00 435.41 C 661.00 437.88 658.69 441.00 656.86 441.00 C 654.45 441.00 652.00 438.75 652.00 436.54 C 652.00 432.38 649.54 431.00 642.12 431.00 C 632.64 431.00 631.83 431.81 632.20 440.92 C 632.42 446.28 632.91 448.48 634.00 448.98 C 640.56 452.02 641.53 452.76 641.85 455.03 C 642.37 458.74 643.99 460.14 647.40 459.80 C 649.83 459.56 650.65 458.88 651.35 456.50 Z M 584.08 418.30 C 585.39 414.85 583.61 412.00 580.16 412.00 C 576.54 412.00 575.00 410.33 575.00 406.41 L 575.00 403.21 L 582.85 402.86 C 593.25 402.38 594.00 401.68 594.00 392.44 C 594.00 384.73 593.95 384.62 589.99 383.68 C 586.59 382.87 584.93 384.11 584.12 388.06 C 583.56 390.80 582.82 391.55 579.97 392.29 C 575.87 393.35 575.04 394.42 575.02 398.67 C 575.00 401.44 574.59 401.92 571.75 402.50 C 564.71 403.91 565.00 403.53 565.00 411.44 C 565.00 416.18 565.45 419.13 566.28 419.82 C 567.60 420.91 578.04 421.81 581.33 421.11 C 582.33 420.90 583.57 419.63 584.08 418.30 Z M 640.80 419.80 C 642.43 418.17 642.39 405.55 640.75 404.26 C 640.06 403.72 638.15 402.95 636.51 402.56 C 633.00 401.72 632.04 400.48 632.02 396.79 C 631.99 392.60 627.49 390.65 624.57 393.57 C 623.32 394.82 623.00 397.54 623.00 406.87 C 623.00 414.66 623.40 419.00 624.20 419.80 C 625.79 421.39 639.21 421.39 640.80 419.80 Z M 562.50 392.00 C 564.70 391.16 565.08 390.48 564.81 387.75 C 564.52 384.68 564.28 384.50 560.50 384.50 C 556.81 384.50 556.47 384.73 556.16 387.45 C 555.94 389.41 556.42 390.84 557.61 391.70 C 559.73 393.25 559.28 393.23 562.50 392.00 Z M 287.03 380.95 C 288.32 378.54 288.27 368.38 286.96 365.93 C 285.74 363.64 280.82 363.31 279.08 365.41 C 278.35 366.29 278.02 369.72 278.21 374.61 C 278.48 382.00 278.63 382.45 281.00 383.04 C 284.15 383.83 285.79 383.26 287.03 380.95 Z M 678.90 372.56 C 680.63 371.49 680.25 365.31 678.42 364.61 C 677.55 364.27 673.99 364.00 670.50 364.00 C 662.30 364.00 661.00 363.44 661.00 359.92 C 661.00 357.98 660.21 356.53 658.57 355.45 C 655.24 353.27 652.23 354.92 651.81 359.15 C 651.49 362.39 650.64 363.13 645.50 364.65 C 643.09 365.36 642.44 366.16 642.19 368.72 C 641.92 371.54 642.23 372.00 644.94 372.71 C 648.60 373.66 677.33 373.53 678.90 372.56 Z M 727.81 369.22 C 728.19 365.42 729.53 364.26 734.00 363.83 L 737.50 363.50 L 737.79 356.27 C 738.25 345.03 738.21 345.00 723.71 345.02 C 717.00 345.02 710.96 345.38 710.29 345.80 C 708.87 346.70 708.28 370.68 709.64 372.04 C 710.69 373.09 722.74 373.73 725.50 372.89 C 726.83 372.49 727.60 371.25 727.81 369.22 Z M 256.94 353.25 C 258.86 351.69 259.07 350.68 258.80 344.08 L 258.50 336.66 L 254.00 335.58 L 249.50 334.50 L 249.20 326.55 C 249.04 322.17 248.41 317.99 247.80 317.26 C 247.00 316.30 244.42 316.00 238.60 316.21 L 230.50 316.50 L 230.50 325.50 L 230.50 334.50 L 234.78 335.45 C 238.21 336.21 239.17 336.90 239.59 338.95 C 240.47 343.20 241.57 344.48 244.60 344.84 C 247.96 345.24 248.96 346.46 248.98 350.20 C 249.01 354.62 253.25 356.24 256.94 353.25 Z M 401.75 323.76 C 404.78 321.33 401.86 316.00 397.50 316.00 C 394.87 316.00 392.00 318.39 392.00 320.57 C 392.00 321.36 392.92 322.92 394.05 324.05 C 396.12 326.12 398.93 326.01 401.75 323.76 Z M 687.83 324.40 C 691.06 322.14 690.45 317.87 686.70 316.56 C 683.17 315.32 680.61 316.76 680.20 320.23 C 679.88 322.80 682.18 326.00 684.35 326.00 C 685.01 326.00 686.58 325.28 687.83 324.40 Z M 142.80 314.80 C 143.46 314.14 144.00 312.65 144.00 311.50 C 144.00 307.89 142.02 307.00 134.00 307.00 C 129.42 307.00 125.92 307.48 125.20 308.20 C 123.66 309.74 123.66 313.26 125.20 314.80 C 126.80 316.40 141.20 316.40 142.80 314.80 Z M 199.80 314.80 C 200.46 314.14 201.00 312.66 201.00 311.50 C 201.00 308.78 202.83 307.00 205.63 307.00 C 209.91 307.00 211.11 304.48 210.79 296.14 L 210.50 288.50 L 201.50 288.50 L 192.50 288.50 L 192.22 300.94 C 192.06 307.79 192.16 313.98 192.44 314.69 C 193.06 316.33 198.19 316.41 199.80 314.80 Z M 229.82 312.69 C 230.23 309.10 228.48 307.00 225.08 307.00 C 221.86 307.00 220.00 308.65 220.00 311.50 C 220.00 314.64 222.08 316.13 226.00 315.80 C 229.01 315.54 229.55 315.11 229.82 312.69 Z M 698.43 305.43 C 701.54 302.31 699.51 296.99 695.21 297.02 C 691.34 297.04 689.75 298.36 689.75 301.56 C 689.75 306.26 695.17 308.68 698.43 305.43 Z M 669.80 266.80 C 670.46 266.14 671.00 264.66 671.00 263.50 C 671.00 260.63 669.13 259.00 665.86 259.00 C 661.23 259.00 658.82 264.77 662.43 267.23 C 664.10 268.38 668.47 268.13 669.80 266.80 Z M 621.25 247.75 C 622.14 247.06 623.02 245.15 623.19 243.50 L 623.50 240.50 L 631.79 240.00 C 640.51 239.47 641.95 238.66 641.98 234.29 C 642.01 230.23 649.06 228.38 650.96 231.93 C 651.53 233.00 652.00 234.97 652.00 236.33 C 652.00 238.93 653.62 240.00 657.56 240.00 C 659.37 240.00 660.10 240.67 660.54 242.75 C 661.76 248.54 664.63 250.34 668.95 248.03 C 670.85 247.01 671.00 246.01 671.00 234.52 C 671.00 221.05 670.98 221.00 665.03 220.05 C 662.01 219.56 661.45 219.04 661.16 216.49 C 660.63 211.78 659.36 211.00 652.31 211.00 C 644.81 211.00 642.00 212.18 642.00 215.34 C 642.00 219.00 640.07 220.00 632.99 220.00 C 625.47 220.00 623.26 221.19 622.81 225.48 C 622.57 227.81 621.84 228.66 619.50 229.35 C 614.42 230.85 613.51 231.60 613.16 234.60 C 612.70 238.53 611.43 239.83 607.68 240.19 C 605.03 240.45 604.45 240.97 604.18 243.31 C 603.66 247.85 605.43 249.00 612.93 249.00 C 616.75 249.00 620.32 248.46 621.25 247.75 Z M 94.07 238.96 C 96.26 237.79 96.70 233.10 94.80 231.20 C 94.14 230.54 91.89 230.00 89.80 230.00 C 86.18 230.00 86.00 230.15 86.02 233.25 C 86.03 236.89 86.80 238.43 89.00 239.27 C 91.27 240.13 91.96 240.09 94.07 238.96 Z M 152.79 211.66 C 152.98 206.73 152.65 203.29 151.92 202.41 C 150.33 200.49 145.36 200.61 144.61 202.58 C 143.76 204.79 143.85 218.51 144.71 219.38 C 145.11 219.77 147.02 219.96 148.96 219.80 L 152.50 219.50 L 152.79 211.66 Z M 210.03 209.00 C 210.43 208.18 211.17 206.15 211.65 204.50 C 212.52 201.58 212.74 201.49 220.02 201.00 C 224.13 200.72 228.06 200.14 228.75 199.69 C 230.19 198.76 230.48 186.30 229.11 184.15 C 228.64 183.41 226.74 182.49 224.89 182.11 C 222.29 181.58 221.32 180.75 220.64 178.46 C 218.83 172.32 219.26 172.50 206.00 172.50 C 192.74 172.50 193.17 172.32 191.36 178.46 C 190.70 180.67 189.70 181.58 187.40 182.05 C 182.89 182.97 182.00 183.79 182.00 187.02 C 182.00 190.24 184.27 192.00 188.42 192.00 C 190.34 192.00 191.13 192.65 191.63 194.65 C 192.51 198.16 190.96 200.42 187.40 200.84 C 183.46 201.30 182.00 202.72 182.00 206.07 C 182.00 210.33 184.21 211.00 197.39 210.74 C 206.80 210.55 209.44 210.19 210.03 209.00 Z M 621.80 209.80 C 622.46 209.14 623.00 207.43 623.00 206.00 C 623.00 202.70 621.30 201.00 618.00 201.00 C 614.70 201.00 613.00 202.70 613.00 206.00 C 613.00 209.30 614.70 211.00 618.00 211.00 C 619.43 211.00 621.14 210.46 621.80 209.80 Z M 106.75 199.92 C 104.64 198.69 104.45 194.70 106.43 193.05 C 107.22 192.40 109.36 192.01 111.18 192.18 C 113.98 192.45 114.55 192.94 114.82 195.31 C 115.38 200.21 111.28 202.56 106.75 199.92 Z M 315.39 132.42 C 316.49 129.56 316.05 117.45 314.80 116.20 C 313.39 114.79 291.29 114.53 289.12 115.90 C 288.13 116.53 287.79 118.90 287.90 124.52 C 287.98 128.78 288.29 132.66 288.58 133.13 C 288.88 133.61 294.89 134.00 301.95 134.00 C 312.73 134.00 314.88 133.75 315.39 132.42 Z" fill="#000" fill-rule="evenodd"/></svg>
