<svg xmlns="http://www.w3.org/2000/svg" viewBox="0 0 1600 1600" width="200" height="200"><defs><clipPath id="rim"><circle cx="798.41" cy="799.61" r="712.53"/></clipPath></defs><circle cx="798.41" cy="799.61" r="723.38" fill="#f0ece3"/><path d="M 672.31 1522.99 C 663.62 1521.72 658.52 1518.55 651.50 1510.07 C 641.02 1497.40 633.98 1495.14 604.84 1495.03 C 592.26 1494.99 586.00 1492.98 574.18 1485.20 C 563.37 1478.07 561.12 1477.31 547.00 1475.96 C 532.66 1474.59 528.00 1473.05 517.27 1466.18 C 512.20 1462.92 505.23 1459.26 501.78 1458.04 C 490.73 1454.13 487.64 1452.70 480.73 1448.31 C 472.01 1442.78 465.85 1439.71 459.00 1437.50 C 451.62 1435.12 447.52 1432.98 438.29 1426.70 C 433.32 1423.33 427.06 1420.22 421.00 1418.14 C 407.46 1413.47 402.94 1410.08 381.55 1388.50 C 361.15 1367.91 358.52 1365.95 344.01 1360.56 C 330.17 1355.41 327.67 1353.32 287.33 1313.22 C 228.27 1254.52 231.13 1258.61 230.01 1231.23 C 229.10 1209.06 229.16 1209.18 216.08 1200.56 C 191.74 1184.51 187.58 1170.90 200.24 1148.75 C 212.73 1126.91 202.98 1116.16 184.01 1130.87 C 166.49 1144.45 160.42 1143.75 152.09 1127.17 C 149.86 1122.75 145.93 1115.87 143.36 1111.88 C 136.86 1101.84 135.16 1096.73 134.01 1083.75 C 132.61 1067.86 131.79 1065.54 122.96 1052.50 C 116.82 1043.44 115.38 1038.92 114.04 1024.43 C 112.84 1011.47 111.31 1007.26 103.01 994.02 C 96.83 984.18 95.98 980.18 95.04 956.50 C 94.11 933.14 93.94 932.34 87.67 920.55 C 78.85 903.97 79.50 911.96 79.50 820.00 C 79.50 715.80 79.24 717.01 100.71 723.05 C 121.70 728.95 128.11 725.02 136.25 701.32 C 144.47 677.36 140.13 671.44 119.16 678.01 C 99.03 684.32 93.95 674.10 95.30 630.00 C 95.94 609.33 96.90 605.45 104.17 594.38 C 111.04 583.91 112.84 578.85 114.03 566.70 C 115.54 551.27 116.69 547.53 122.65 538.78 C 128.96 529.51 132.06 523.56 134.50 516.00 C 136.61 509.48 140.23 502.03 143.99 496.50 C 145.48 494.30 149.23 487.55 152.31 481.50 C 156.56 473.16 159.35 469.11 163.83 464.74 C 170.13 458.61 170.73 457.23 172.99 443.51 C 176.07 424.77 188.33 419.05 207.15 427.58 C 222.76 434.65 225.43 433.64 247.00 412.58 C 270.56 389.56 275.25 386.69 292.12 384.95 C 327.18 381.33 333.51 364.73 309.60 339.16 C 293.09 321.50 292.71 313.72 307.98 306.01 C 321.02 299.43 323.57 295.16 325.59 276.63 C 327.69 257.44 328.93 255.27 349.40 235.22 C 360.11 224.73 367.59 218.23 370.88 216.56 C 383.04 210.40 394.83 215.80 391.95 226.20 C 391.03 229.55 390.21 230.81 381.76 241.94 C 372.76 253.80 373.15 260.27 383.21 265.85 C 397.40 273.73 400.71 275.91 408.79 282.72 C 424.13 295.65 430.96 297.14 434.62 288.37 C 436.61 283.61 435.66 279.48 429.84 267.59 C 419.61 246.66 425.94 235.61 444.50 242.00 C 474.34 252.27 473.91 225.84 444.03 213.46 C 416.21 201.93 415.88 181.94 443.32 171.06 C 447.62 169.36 454.37 165.79 458.32 163.13 C 467.37 157.03 469.88 155.75 480.02 152.05 C 484.54 150.40 492.19 146.60 497.01 143.60 C 508.18 136.66 512.38 135.28 526.22 134.00 C 540.54 132.67 545.05 131.16 555.11 124.30 C 565.47 117.25 570.70 115.48 585.29 114.08 C 598.77 112.79 602.54 111.54 613.05 104.86 C 629.39 94.48 648.22 92.87 665.35 100.38 C 681.65 107.53 685.97 106.49 703.74 91.11 C 721.92 75.39 718.98 75.80 811.04 76.23 C 891.02 76.61 885.32 76.03 900.00 85.29 C 913.62 93.87 914.77 94.17 937.50 95.08 C 960.10 95.99 964.29 96.90 974.02 103.01 C 987.44 111.43 991.37 112.83 1006.00 114.39 C 1021.17 116.01 1024.18 117.03 1034.89 124.27 C 1045.07 131.13 1049.58 132.66 1063.41 133.95 C 1075.49 135.07 1083.85 137.34 1088.73 140.80 C 1094.80 145.11 1102.17 148.97 1109.13 151.48 C 1118.39 154.82 1125.15 158.21 1130.94 162.43 C 1136.89 166.76 1142.84 169.72 1151.48 172.66 C 1160.55 175.75 1165.97 179.50 1179.87 192.33 C 1191.61 203.17 1196.69 206.32 1210.73 211.50 C 1221.30 215.39 1242.91 233.93 1263.19 256.50 C 1276.95 271.81 1278.19 276.89 1271.94 292.50 C 1264.98 309.88 1271.54 317.97 1287.27 311.40 C 1304.85 304.05 1311.72 306.49 1334.90 328.32 C 1366.34 357.91 1375.86 369.65 1380.88 385.00 C 1383.62 393.37 1386.62 397.80 1397.65 409.74 C 1417.14 430.84 1417.04 430.57 1418.05 466.50 C 1419.48 517.85 1422.90 527.34 1436.20 516.89 C 1445.73 509.40 1448.51 510.49 1458.78 525.70 C 1474.66 549.21 1474.43 548.69 1476.00 564.66 C 1477.67 581.68 1481.19 587.73 1491.62 591.50 C 1517.64 600.89 1517.26 599.82 1516.82 664.00 C 1516.43 721.14 1516.33 721.50 1498.95 730.37 C 1488.20 735.86 1488.35 737.53 1500.27 745.38 C 1514.90 755.01 1517.21 760.43 1517.32 785.50 C 1517.45 817.37 1509.92 827.32 1485.50 827.55 C 1467.59 827.71 1464.01 829.98 1458.52 844.64 C 1456.70 849.51 1454.04 856.20 1452.63 859.50 C 1444.00 879.58 1463.80 881.50 1473.01 861.48 C 1482.98 839.80 1499.66 834.90 1511.00 850.32 C 1516.95 858.41 1517.00 858.98 1517.00 919.50 C 1517.00 994.67 1517.08 994.47 1486.12 996.99 C 1464.57 998.74 1465.67 998.02 1427.27 1035.14 C 1408.02 1053.75 1406.65 1054.50 1392.00 1054.50 C 1353.02 1054.50 1349.64 1019.16 1387.80 1010.48 C 1399.08 1007.91 1399.58 1003.19 1388.75 1001.52 C 1382.07 1000.48 1378.22 999.09 1367.60 993.87 C 1352.64 986.51 1348.21 987.35 1341.77 998.76 C 1335.25 1010.31 1328.52 1014.00 1314.00 1014.00 C 1282.40 1014.00 1253.38 1053.38 1274.66 1067.38 C 1280.06 1070.93 1285.64 1071.94 1300.00 1072.00 C 1329.52 1072.10 1335.39 1075.07 1342.55 1093.55 C 1352.75 1119.88 1366.82 1125.40 1382.17 1109.09 C 1392.19 1098.44 1395.07 1099.69 1396.98 1115.50 C 1398.49 1127.98 1400.23 1134.29 1405.14 1145.14 C 1410.67 1157.34 1410.69 1161.21 1405.27 1173.50 C 1403.08 1178.45 1400.30 1185.63 1399.07 1189.45 C 1391.49 1213.11 1376.10 1222.28 1356.16 1215.00 C 1342.62 1210.06 1337.04 1211.07 1328.34 1220.02 C 1323.18 1225.34 1323.18 1225.34 1312.34 1221.66 C 1306.38 1219.64 1299.85 1217.99 1297.83 1218.00 C 1280.82 1218.01 1280.76 1256.85 1297.77 1260.57 C 1299.27 1260.90 1301.11 1261.36 1301.86 1261.59 C 1309.96 1264.14 1319.59 1255.01 1324.06 1240.54 C 1329.25 1223.75 1341.22 1240.36 1339.72 1262.27 C 1338.74 1276.59 1332.33 1284.77 1287.38 1329.07 C 1262.54 1353.55 1259.40 1355.96 1246.30 1360.65 C 1232.08 1365.73 1232.00 1365.79 1210.00 1387.45 C 1186.60 1410.51 1183.33 1412.99 1170.26 1417.66 C 1158.65 1421.81 1158.24 1422.02 1149.30 1428.51 C 1144.48 1432.02 1138.71 1434.98 1131.80 1437.52 C 1125.94 1439.67 1117.56 1443.80 1112.35 1447.11 C 1106.49 1450.83 1099.38 1454.24 1092.61 1456.58 C 1086.41 1458.72 1079.33 1462.04 1075.52 1464.60 C 1062.30 1473.46 1059.73 1474.35 1042.51 1476.04 C 1029.97 1477.27 1025.82 1478.81 1015.13 1486.19 C 998.96 1497.36 981.00 1498.15 961.01 1488.57 C 945.55 1481.16 936.19 1485.36 922.00 1506.08 C 903.08 1533.70 877.69 1524.47 879.41 1490.60 C 880.54 1468.42 877.74 1462.31 858.24 1444.45 C 842.25 1429.81 836.62 1427.29 831.45 1432.45 C 826.60 1437.31 827.96 1444.48 836.37 1458.37 C 838.32 1461.60 841.12 1467.90 842.60 1472.37 C 845.94 1482.51 848.21 1487.14 852.96 1493.51 C 864.88 1509.48 860.37 1520.08 840.42 1522.96 C 832.33 1524.13 680.29 1524.16 672.31 1522.99 Z M 1062.46 1393.57 C 1081.46 1382.44 1073.22 1342.09 1049.92 1332.06 C 1039.56 1327.60 1023.90 1338.70 1019.39 1353.69 C 1012.85 1375.41 1044.09 1404.34 1062.46 1393.57 Z M 1142.20 1384.95 C 1151.36 1375.80 1141.27 1363.67 1124.50 1363.67 C 1107.41 1363.68 1105.41 1370.40 1119.71 1379.72 C 1133.48 1388.70 1137.52 1389.64 1142.20 1384.95 Z M 849.23 1337.81 C 855.84 1334.72 859.60 1329.71 863.00 1319.50 C 865.86 1310.91 869.41 1305.68 880.82 1293.23 C 893.74 1279.14 895.99 1275.87 900.03 1265.42 C 903.92 1255.36 907.69 1250.84 916.16 1246.09 C 930.93 1237.80 931.44 1232.27 918.88 1216.50 C 908.49 1203.44 907.50 1199.89 910.17 1185.40 C 912.36 1173.47 908.65 1167.17 888.49 1148.59 C 875.06 1136.21 872.75 1134.71 859.84 1130.00 C 855.28 1128.34 847.60 1124.47 842.76 1121.40 C 837.92 1118.33 829.43 1114.11 823.89 1112.01 C 818.35 1109.91 811.72 1106.87 809.16 1105.25 C 806.60 1103.63 802.25 1100.90 799.50 1099.18 C 785.00 1090.11 762.15 1091.22 749.19 1101.62 C 729.63 1117.34 710.00 1141.20 710.00 1149.28 C 710.00 1151.57 704.06 1163.05 699.66 1169.28 C 694.01 1177.28 693.42 1178.45 689.46 1189.68 C 687.64 1194.84 683.79 1202.74 680.91 1207.24 C 668.66 1226.33 668.56 1244.62 680.59 1263.98 C 683.60 1268.81 687.42 1276.53 689.10 1281.13 C 694.27 1295.29 697.34 1298.47 710.13 1302.87 C 717.22 1305.31 723.09 1308.33 730.41 1313.29 C 733.67 1315.49 740.56 1318.81 745.73 1320.66 C 757.15 1324.74 759.76 1326.05 767.63 1331.64 C 779.92 1340.38 782.69 1340.90 816.50 1340.68 C 843.50 1340.50 843.50 1340.50 849.23 1337.81 Z M 1194.83 1337.33 C 1204.31 1332.49 1205.88 1328.18 1207.19 1303.43 C 1209.75 1255.25 1208.22 1244.21 1198.35 1239.95 C 1196.07 1238.97 1190.27 1236.23 1185.47 1233.87 C 1162.77 1222.73 1141.73 1235.19 1130.13 1266.66 C 1128.49 1271.11 1124.66 1278.74 1121.62 1283.63 C 1107.57 1306.24 1109.73 1317.74 1128.80 1321.90 C 1138.92 1324.11 1141.81 1325.39 1150.50 1331.51 C 1158.59 1337.21 1160.58 1338.19 1167.00 1339.68 C 1176.03 1341.78 1188.14 1340.76 1194.83 1337.33 Z M 1058.00 1301.10 C 1074.69 1292.45 1074.52 1281.76 1057.30 1256.51 C 1044.67 1238.00 1045.25 1238.04 1031.56 1254.53 C 1028.62 1258.08 1025.70 1260.15 1020.06 1262.71 C 1015.90 1264.60 1010.13 1267.24 1007.23 1268.57 C 992.85 1275.19 984.76 1289.55 991.33 1296.78 C 997.36 1303.42 1047.29 1306.65 1058.00 1301.10 Z M 561.04 1242.00 C 566.83 1240.40 570.74 1235.36 575.06 1223.96 C 577.21 1218.31 580.72 1210.72 582.87 1207.09 C 594.30 1187.82 587.41 1174.47 571.65 1185.37 C 563.57 1190.95 544.47 1209.97 542.02 1214.88 C 533.99 1230.92 544.91 1246.49 561.04 1242.00 Z M 1224.39 1232.27 C 1232.45 1226.57 1234.96 1219.87 1230.66 1215.57 C 1223.54 1208.45 1211.00 1217.04 1211.00 1229.03 C 1211.00 1236.83 1216.18 1238.08 1224.39 1232.27 Z M 1113.27 1185.62 C 1124.88 1182.12 1132.93 1165.69 1127.77 1156.00 C 1123.06 1147.13 1085.69 1149.61 1078.83 1159.24 C 1067.01 1175.83 1089.24 1192.85 1113.27 1185.62 Z M 1280.63 1176.37 C 1288.15 1172.80 1292.84 1163.46 1289.60 1158.52 C 1282.82 1148.17 1258.55 1151.54 1258.55 1162.83 C 1258.55 1172.95 1271.33 1180.78 1280.63 1176.37 Z M 408.59 1030.57 C 420.13 1025.32 421.00 1021.57 421.00 977.02 C 421.00 923.08 420.29 921.98 384.41 920.02 C 358.15 918.58 354.00 916.15 354.00 902.22 C 354.00 887.74 348.13 882.52 332.03 882.63 C 305.75 882.83 291.09 902.26 300.89 923.91 C 303.02 928.63 306.01 935.83 307.53 939.89 C 311.03 949.30 315.36 953.74 324.57 957.39 C 339.86 963.46 343.36 968.49 345.08 986.93 C 348.27 1021.13 380.58 1043.33 408.59 1030.57 Z M 790.49 1012.68 C 805.06 1006.19 806.03 994.12 793.49 975.59 C 790.04 970.49 786.73 963.87 784.53 957.68 C 782.61 952.29 778.59 943.84 775.61 938.92 C 762.22 916.81 764.52 910.94 800.34 875.73 C 825.42 851.07 831.38 846.36 841.73 842.95 C 850.17 840.17 856.78 836.89 864.50 831.65 C 867.80 829.40 874.90 825.90 880.28 823.85 C 890.00 820.16 893.18 818.55 904.30 811.73 C 907.50 809.77 914.37 806.51 919.59 804.49 C 924.80 802.47 933.21 798.07 938.28 794.70 C 944.29 790.72 951.14 787.27 957.94 784.80 C 963.75 782.69 971.72 778.82 975.94 776.06 C 984.20 770.66 989.54 768.15 998.05 765.67 C 1013.37 761.22 1026.70 747.34 1033.71 728.54 C 1038.69 715.19 1041.09 711.77 1055.93 696.88 C 1078.29 674.43 1083.17 673.50 1102.50 688.00 C 1127.30 706.61 1134.78 690.04 1112.98 664.77 C 1099.07 648.64 1097.89 643.46 1104.74 628.50 C 1107.01 623.55 1110.09 615.76 1111.58 611.19 C 1113.23 606.15 1116.62 599.27 1120.20 593.70 C 1129.55 579.10 1129.50 579.44 1129.50 536.50 C 1129.50 493.56 1129.56 493.90 1120.18 479.28 C 1116.75 473.94 1113.31 467.01 1111.97 462.78 C 1107.74 449.36 1104.64 444.54 1091.60 431.09 C 1077.64 416.69 1076.35 414.81 1072.04 402.50 C 1067.65 389.98 1065.46 386.64 1052.86 373.26 C 1040.38 360.02 1038.15 356.64 1033.41 343.91 C 1029.93 334.55 1028.29 331.73 1021.64 323.75 C 1012.10 312.30 1004.25 308.42 987.50 306.91 C 974.29 305.71 969.08 304.15 961.03 298.94 C 949.78 291.67 945.34 289.90 935.62 288.82 C 913.48 286.37 912.29 285.98 896.18 275.77 C 885.06 268.72 888.18 268.91 792.37 269.22 C 695.03 269.54 704.44 268.69 689.59 278.47 C 678.74 285.62 675.50 286.70 661.24 287.95 C 644.95 289.38 642.89 290.08 630.19 298.60 C 622.12 304.02 616.79 305.65 603.00 306.93 C 580.20 309.05 564.88 321.44 556.28 344.69 C 551.96 356.39 549.45 360.21 537.15 373.75 C 524.97 387.15 522.06 391.53 518.63 401.63 C 514.73 413.07 512.27 416.83 500.86 428.74 C 487.57 442.60 483.89 447.98 480.15 459.05 C 476.70 469.25 475.40 471.87 469.05 481.28 C 457.42 498.53 457.80 517.45 470.17 536.10 C 474.48 542.59 477.43 548.56 480.01 556.04 C 485.11 570.75 485.48 571.21 524.15 609.59 C 568.35 653.46 564.54 651.58 607.91 650.75 C 652.77 649.90 650.23 655.01 651.02 564.00 C 651.68 487.82 651.04 493.61 660.37 479.66 C 663.83 474.48 667.68 467.37 668.93 463.87 C 673.46 451.10 675.14 447.49 680.14 439.69 C 682.94 435.32 686.94 427.05 689.02 421.31 C 693.95 407.73 695.13 406.15 714.82 386.78 C 735.51 366.43 736.99 365.60 756.25 363.58 C 768.99 362.24 770.75 361.79 780.09 357.51 C 793.65 351.29 796.72 351.29 809.98 357.49 C 819.24 361.82 820.98 362.28 833.12 363.55 C 854.66 365.81 855.87 366.49 877.50 388.39 C 894.48 405.57 897.67 410.13 901.97 423.28 C 903.20 427.05 906.89 434.16 910.27 439.28 C 914.48 445.66 917.53 451.87 920.18 459.44 C 922.52 466.16 925.92 473.31 928.95 477.94 C 939.16 493.52 938.46 488.86 938.80 543.30 C 939.18 605.35 939.88 602.38 920.00 623.50 C 907.40 636.89 905.09 640.39 901.10 652.20 C 894.57 671.52 863.59 703.05 845.27 709.04 C 833.67 712.82 827.27 716.89 815.67 727.85 C 802.95 739.88 798.61 742.85 787.54 747.12 C 777.04 751.17 773.86 752.83 765.08 758.88 C 760.39 762.11 754.51 765.00 748.64 766.96 C 735.77 771.27 731.09 774.28 717.92 786.75 C 704.94 799.04 701.20 801.52 689.00 805.95 C 684.33 807.65 677.53 811.01 673.91 813.42 C 665.90 818.75 659.18 822.17 652.39 824.39 C 634.14 830.37 633.58 831.95 633.19 878.76 C 632.75 932.33 630.16 926.20 670.43 966.86 C 710.09 1006.92 715.75 1011.62 727.13 1013.96 C 735.64 1015.71 785.96 1014.69 790.49 1012.68 Z M 1308.11 905.50 C 1319.10 900.15 1322.92 899.85 1332.70 903.60 C 1351.08 910.63 1359.01 906.80 1355.08 892.80 C 1350.80 877.50 1337.65 869.55 1321.60 872.54 C 1311.50 874.42 1311.28 874.38 1295.06 867.50 C 1264.67 854.61 1256.39 894.39 1286.48 908.69 C 1292.96 911.77 1296.22 911.29 1308.11 905.50 Z M 1274.62 836.94 C 1284.87 827.49 1281.67 811.21 1267.64 801.55 C 1254.98 792.83 1245.17 802.23 1247.50 820.87 C 1249.49 836.80 1264.87 845.91 1274.62 836.94 Z M 1152.97 836.52 C 1158.47 833.67 1159.06 824.25 1154.36 814.35 C 1150.09 805.34 1136.29 812.18 1135.29 823.81 C 1134.42 833.90 1144.30 841.00 1152.97 836.52 Z M 1173.98 799.75 C 1185.81 793.70 1185.67 777.71 1173.80 779.30 C 1164.97 780.48 1154.75 796.42 1159.67 801.33 C 1161.19 802.86 1169.76 801.91 1173.98 799.75 Z M 1328.93 743.94 C 1345.27 741.29 1345.01 736.09 1328.00 725.59 C 1315.60 717.93 1309.24 717.52 1302.21 723.96 C 1287.13 737.73 1301.41 748.41 1328.93 743.94 Z M 1456.77 737.44 C 1475.83 727.63 1477.99 723.38 1472.95 705.68 C 1466.96 684.60 1425.85 685.00 1419.90 706.19 C 1411.26 736.97 1428.82 751.85 1456.77 737.44 Z M 508.46 696.38 C 515.39 693.72 514.39 683.85 505.87 670.83 C 503.11 666.62 499.79 660.01 498.49 656.15 C 492.62 638.83 485.80 633.11 472.32 634.22 C 453.01 635.82 457.48 657.85 481.76 680.75 C 498.47 696.51 502.29 698.74 508.46 696.38 Z M 405.33 616.90 C 424.14 604.44 423.46 580.10 404.25 578.25 C 392.69 577.14 384.99 585.99 385.01 600.40 C 385.02 617.85 393.50 624.74 405.33 616.90 Z M 1245.55 487.20 C 1250.47 484.36 1258.33 480.74 1263.00 479.14 C 1267.67 477.54 1275.30 474.38 1279.95 472.12 C 1293.39 465.56 1297.84 466.37 1311.95 477.88 C 1330.33 492.89 1339.92 489.09 1339.98 466.79 C 1340.01 453.83 1337.78 448.72 1327.56 438.36 C 1311.40 421.98 1301.20 420.71 1282.75 432.77 C 1278.03 435.85 1271.33 439.06 1265.63 440.96 C 1247.66 446.94 1220.00 473.35 1220.00 484.53 C 1220.00 494.63 1230.73 495.76 1245.55 487.20 Z M 408.30 418.93 C 410.39 418.35 415.79 415.35 420.30 412.26 C 424.81 409.17 433.00 404.67 438.50 402.27 C 461.62 392.16 463.47 378.94 444.43 359.73 C 416.30 331.31 368.32 347.50 374.33 383.37 C 375.62 391.03 375.82 395.21 375.16 400.50 C 373.03 417.62 386.34 425.02 408.30 418.93 Z M 616.20 265.87 C 626.97 263.18 632.65 249.71 626.73 240.92 C 617.15 226.70 586.37 227.88 579.81 242.71 C 572.32 259.64 591.72 271.99 616.20 265.87 Z" fill="#000" fill-rule="evenodd" clip-path="url(#rim)"/></svg>
