<svg xmlns="http://www.w3.org/2000/svg" width="400" height="400" viewBox="0 0 400 400" version="1.1">
	<path d="M 173.352 1.401 C 169.420 2.053, 165.521 3.152, 164.688 3.844 C 163.854 4.536, 162.120 5.010, 160.836 4.896 C 155.772 4.447, 154 4.977, 154 6.941 C 154 8.009, 154.472 9.174, 155.049 9.530 C 156.360 10.341, 154.358 13, 152.437 13 C 150.513 13, 149.660 11.115, 150.905 9.614 C 152.158 8.105, 151.365 7, 149.030 7 C 145.125 7, 121.504 15.574, 110.500 20.985 C 74.780 38.551, 47.358 64.254, 27.797 98.500 C 9.195 131.068, 0.005 166.107, 0.520 202.500 C 0.762 219.576, 1.936 228.626, 6.034 245 C 12.613 271.285, 18.957 287.171, 30.307 305.781 C 40.366 322.274, 46.304 329.545, 52.089 332.451 C 56.958 334.897, 57.393 334.955, 59.121 333.391 C 60.686 331.974, 61.208 331.927, 62.597 333.080 C 63.926 334.184, 64.114 335.586, 63.601 340.589 C 62.975 346.705, 62.991 346.755, 66.399 349.355 C 68.284 350.793, 70.561 352.703, 71.457 353.600 C 75.770 357.913, 83.008 356.740, 85.038 351.399 C 86.159 348.452, 89.516 348.227, 91 351 C 91.589 352.100, 92.730 353, 93.535 353 C 95.189 353, 95.529 350.445, 94 349.500 C 92.056 348.299, 92.979 346, 95.405 346 C 96.728 346, 99.696 344.425, 102 342.500 C 104.304 340.575, 106.321 339, 106.482 339 C 107.678 339, 120 345.355, 120 345.972 C 120 346.403, 119.325 347.315, 118.500 348 C 116.179 349.927, 116.708 352.477, 120.122 355.815 L 123.245 358.868 120.963 362.684 C 119.708 364.783, 117.763 367.245, 116.640 368.156 C 114.936 369.538, 114.811 370.068, 115.885 371.362 C 116.593 372.215, 116.882 373.382, 116.527 373.956 C 115.525 375.578, 107.433 375.227, 106 373.500 C 104.490 371.680, 101.994 371.524, 102.015 373.250 C 102.033 374.774, 118.140 383, 121.106 383 C 122.274 383, 125.459 384.214, 128.185 385.697 C 132.300 387.937, 133.464 388.191, 135.056 387.197 C 137.663 385.569, 137.915 385.646, 138.958 388.390 C 139.761 390.502, 141.585 391.193, 154.683 394.345 C 174.105 399.019, 182.042 400.001, 200.322 399.994 C 239.293 399.979, 279.096 387.628, 312.620 365.147 C 344.736 343.610, 373.869 306.597, 386.721 271 C 391.780 256.988, 396.829 236.031, 398.207 223.320 C 398.873 217.172, 399.662 212.291, 399.959 212.475 C 400.257 212.659, 400.517 206.228, 400.538 198.184 C 400.559 190.140, 400.266 184.671, 399.888 186.029 C 399.355 187.940, 399.175 187.480, 399.092 184 C 398.830 172.998, 392.865 145.369, 389.952 141.666 C 387.356 138.366, 383.295 137.423, 380.923 139.570 C 379.695 140.681, 378.233 141.024, 376.540 140.599 C 373.469 139.829, 373.219 138.017, 376.081 137.269 C 377.676 136.852, 378.001 136.232, 377.476 134.612 C 375.821 129.508, 375.841 126.302, 377.538 124.604 C 378.484 123.659, 379.783 123.086, 380.425 123.333 C 383.089 124.355, 381.885 117.727, 378.004 110.008 C 373.658 101.365, 372.199 100.481, 367.885 103.878 C 364.924 106.209, 362.564 113.861, 363.411 118.378 C 363.759 120.235, 363.551 123.046, 362.948 124.627 C 361.637 128.065, 363.351 134.541, 366.270 137.171 C 367.290 138.090, 367.984 139.665, 367.812 140.671 C 367.598 141.927, 368.518 142.948, 370.750 143.930 C 374.316 145.500, 374.833 147.064, 372.441 149.049 C 371.300 149.996, 371.049 151.333, 371.506 154.035 C 372.156 157.882, 370.367 161, 367.510 161 C 366.768 161, 364.888 161.657, 363.331 162.460 C 361.774 163.264, 359.375 164.145, 358 164.419 C 356.461 164.726, 348.578 171.885, 337.500 183.036 L 319.500 201.155 322.500 202.441 C 324.150 203.148, 326.357 204.688, 327.405 205.863 C 329.542 208.260, 331.576 208.625, 332.349 206.750 C 332.633 206.063, 332.636 206.852, 332.356 208.504 C 331.971 210.783, 332.410 212.027, 334.174 213.654 C 336.316 215.630, 337.843 215.835, 353.500 216.246 C 362.850 216.492, 371.291 217.037, 372.259 217.457 C 373.226 217.877, 374.298 219.337, 374.640 220.702 C 375.377 223.637, 373.436 236.317, 371.694 239.954 L 370.474 242.500 341.571 242.766 C 313.696 243.022, 308.974 243.532, 310.570 246.113 C 311.440 247.520, 310.079 248.968, 308.468 248.349 C 307.661 248.040, 307 247.159, 307 246.393 C 307 245.424, 305.556 244.944, 302.250 244.817 C 292.176 244.428, 288.321 244.153, 283.279 243.464 L 278.058 242.751 272.176 248.626 C 268.941 251.857, 254.267 266.734, 239.568 281.686 L 212.841 308.873 213.314 332.860 C 213.574 346.052, 214.108 357.365, 214.500 358 C 214.956 358.737, 218.377 356.057, 223.978 350.577 C 228.798 345.860, 233.557 342, 234.553 342 C 237.198 342, 252 357.129, 252 359.832 C 252 362.916, 242.464 371.728, 237.696 373.051 C 231.742 374.703, 210.399 376.982, 200.797 376.991 C 190.247 377.002, 187.443 375.894, 185.890 371.103 C 185.029 368.447, 177.070 359.798, 155.623 338.209 C 139.401 321.880, 125.413 308.605, 124.012 308.209 C 122.630 307.819, 116.823 307.576, 111.107 307.668 C 102.422 307.808, 100.265 308.168, 97.986 309.853 C 95.451 311.726, 95.097 311.756, 92.978 310.272 C 91.175 309.009, 87.817 308.657, 76.925 308.588 C 64.669 308.510, 62.841 308.273, 60.326 306.436 C 57.641 304.474, 50.289 294.302, 46.433 287.213 C 44.756 284.130, 44.750 283.821, 46.331 282.240 C 47.834 280.738, 50.515 280.588, 71.005 280.868 C 91.790 281.151, 94.055 281.020, 94.638 279.501 C 95.123 278.238, 86.614 269.158, 60.391 242.955 C 41.201 223.780, 24.958 206.833, 24.295 205.295 C 22.776 201.770, 22.696 194.364, 24.070 184.322 C 25.340 175.041, 26.756 172.940, 30.190 175.236 C 31.461 176.086, 66.594 210.828, 108.264 252.441 C 149.934 294.054, 184.471 327.827, 185.014 327.491 C 185.634 327.108, 186 312.737, 186 288.754 L 186 250.626 179.543 244.563 C 173.921 239.284, 112.332 178.953, 106.261 172.778 C 105.029 171.525, 99.404 165.616, 93.761 159.646 C 88.117 153.676, 79.194 144.451, 73.931 139.146 C 68.668 133.841, 60.649 125.612, 56.111 120.860 L 47.860 112.220 50.828 106.360 C 53.967 100.161, 59.196 93.049, 61.619 91.681 C 62.661 91.092, 65.162 92.890, 70.489 98.055 C 80.668 107.925, 81 107.679, 81 90.254 L 81 76.445 77.886 73.713 C 75.290 71.435, 74.981 70.728, 76.027 69.467 C 76.717 68.636, 78.068 68.204, 79.027 68.509 C 80.089 68.846, 82.059 67.973, 84.057 66.281 C 85.864 64.752, 89.261 62.150, 91.605 60.500 C 93.949 58.850, 97.671 56.220, 99.876 54.655 C 104.168 51.610, 105.592 51.797, 107.037 55.597 C 107.629 57.154, 108.752 58.005, 110.225 58.015 C 111.476 58.024, 113.175 58.461, 114 58.987 C 116.322 60.467, 113.925 63.579, 110.759 63.194 L 108.244 62.889 107.785 97.694 C 107.288 135.480, 107.574 138, 112.371 138 C 115.052 138, 117.667 140.550, 118.159 143.645 C 118.645 146.705, 182.714 211.324, 184.559 210.616 C 186.782 209.763, 186.690 151.430, 184.461 148.247 C 183.117 146.329, 183.103 145.760, 184.348 143.775 C 186.200 140.823, 187.271 130.520, 186.404 123.990 L 185.723 118.857 150.344 83.195 C 128.789 61.468, 115.167 47.007, 115.482 46.185 C 115.767 45.443, 116 44.653, 116 44.429 C 116 44.205, 119.713 42.131, 124.250 39.819 C 131.445 36.153, 133.279 35.631, 138.587 35.740 L 144.675 35.864 146.403 31.948 C 147.353 29.794, 148 27.237, 147.840 26.266 C 147.118 21.875, 152.407 20.407, 156 24 C 157.470 25.470, 158 27.333, 158 31.035 C 158 33.860, 158.668 37.090, 159.523 38.394 C 161.029 40.693, 160.643 44, 158.868 44 C 158.363 44, 157.509 42.838, 156.969 41.419 C 155.551 37.688, 153.500 38.967, 153.500 43.583 C 153.500 46.925, 153.842 47.548, 155.832 47.830 C 157.115 48.012, 158.944 47.456, 159.896 46.594 C 162.605 44.142, 164 46.507, 164 53.553 L 164 59.706 173.544 68.939 C 181.423 76.561, 183.342 77.961, 184.544 76.964 C 185.744 75.967, 186 71.556, 186 51.832 L 186 27.909 188.455 25.455 C 190.690 23.219, 191.698 23, 199.732 23 C 212.142 23, 212.983 23.713, 213.060 34.307 C 213.092 38.813, 213.449 44.525, 213.852 47 C 214.254 49.475, 214.210 63.650, 213.753 78.500 C 212.753 110.987, 213.650 150, 215.396 150 C 216.041 150, 224.991 141.536, 235.285 131.190 C 252.044 114.346, 254.010 112.021, 254.099 108.940 C 254.153 107.048, 254.120 93.125, 254.026 78 C 253.888 55.812, 253.582 50.220, 252.440 49.048 C 251.206 47.782, 250.762 47.878, 248.973 49.798 C 245.503 53.524, 242 51.985, 242 46.734 C 242 42.138, 243.638 39.997, 246.867 40.373 C 250.070 40.746, 252.737 39.133, 254.448 35.788 C 255.345 34.035, 256.351 33.558, 258.753 33.746 C 262.886 34.071, 263.624 32.575, 261.384 28.415 L 259.545 25 262.186 22.360 C 265.412 19.134, 268 19.761, 268 23.769 C 268 26.962, 269.589 29, 272.078 29 C 275.287 29, 276.195 31.482, 274.005 34.266 C 272.902 35.668, 272 37.033, 272 37.299 C 272 37.565, 273.800 38.503, 276 39.383 C 278.200 40.264, 280.019 41.550, 280.042 42.242 C 280.064 42.934, 280.047 51.413, 280.003 61.083 C 279.955 71.512, 280.364 79.828, 281.008 81.521 L 282.093 84.376 293.812 72.688 C 301.662 64.857, 306.257 61, 307.732 61 C 309.037 61, 312.896 63.668, 317.204 67.548 C 325.408 74.937, 326.371 76.256, 325.521 78.935 C 325.190 79.977, 307.128 98.377, 285.384 119.825 C 247.521 157.172, 245.862 158.963, 246.174 162.161 C 246.482 165.316, 246.335 165.488, 243.500 165.281 C 240.899 165.091, 238.704 166.782, 227 177.995 L 213.500 190.929 213.291 217.715 C 213.042 249.728, 213.898 266.140, 215.850 266.786 C 217.593 267.364, 251.661 232.653, 253.856 228.063 C 254.934 225.810, 256.479 224.367, 258.340 223.875 C 261.030 223.164, 267.869 216.554, 267.958 214.579 C 267.981 214.072, 268.748 212.831, 269.662 211.821 C 271.131 210.197, 271.299 207.077, 271.107 184.911 C 270.950 166.858, 271.219 159.441, 272.067 158.419 C 273.610 156.560, 294.971 156.371, 296.800 158.200 C 297.592 158.992, 298 163.251, 298 170.731 C 298 180.197, 298.263 182.164, 299.600 182.677 C 300.758 183.121, 309.062 175.295, 329.600 154.407 C 357.499 126.031, 358 125.450, 358 121.416 C 358 116.195, 355.421 113.564, 350.945 114.221 C 348.391 114.596, 347.615 114.249, 346.745 112.341 C 345.979 110.658, 345.999 109.298, 346.818 107.500 C 348.085 104.718, 349.789 104.433, 354.643 106.188 C 357.459 107.206, 358.208 107.122, 359.896 105.594 C 362.424 103.307, 361.658 101.382, 357.925 100.635 C 353.877 99.825, 352.505 96.554, 353.955 91.168 C 355.203 86.533, 355.238 86.507, 357.968 88.212 C 360.692 89.913, 361.129 89.012, 360.142 83.732 C 359.481 80.195, 357.750 77.295, 352.650 71.180 C 326.499 39.827, 290.450 17.072, 250.950 6.987 C 240.042 4.202, 239.241 4.285, 239.808 8.142 C 240.252 11.167, 240.161 11.258, 237.384 10.578 C 233.166 9.544, 231.855 9.618, 228.273 11.093 C 225.384 12.282, 224.570 12.189, 220.496 10.211 C 217.994 8.995, 215.128 8, 214.128 8 C 211.732 8, 209 4.895, 209 2.171 C 209 0.039, 208.741 0.002, 194.750 0.108 C 186.912 0.167, 177.283 0.749, 173.352 1.401 M 138.667 15.667 C 137.409 16.925, 138 20, 139.500 20 C 140.433 20, 141 19.056, 141 17.500 C 141 15.072, 140.026 14.307, 138.667 15.667 M 128.120 20.355 C 127.249 21.405, 127.305 22.008, 128.355 22.880 C 129.405 23.751, 130.008 23.695, 130.880 22.645 C 131.751 21.595, 131.695 20.992, 130.645 20.120 C 129.595 19.249, 128.992 19.305, 128.120 20.355 M 96.583 37.866 C 96.152 38.563, 96.070 39.403, 96.400 39.733 C 97.295 40.628, 98.271 39.312, 97.787 37.862 C 97.449 36.846, 97.213 36.846, 96.583 37.866 M 98.813 48.683 C 99.534 48.972, 100.397 48.936, 100.729 48.604 C 101.061 48.272, 100.471 48.036, 99.417 48.079 C 98.252 48.127, 98.015 48.364, 98.813 48.683 M 334.364 72.494 C 333.452 74.871, 336.559 77.841, 338.220 76.180 C 339.109 75.291, 339.161 74.478, 338.406 73.282 C 336.910 70.911, 335.106 70.559, 334.364 72.494 M 73 86.979 C 71.677 87.816, 71.689 88.117, 73.107 89.535 C 74.584 91.012, 74.849 91.008, 76.366 89.491 C 79.088 86.769, 76.448 84.799, 73 86.979 M 364 91 C 364 91.550, 364.702 92, 365.559 92 C 366.416 92, 366.840 91.550, 366.500 91 C 366.160 90.450, 365.459 90, 364.941 90 C 364.423 90, 364 90.450, 364 91 M 242.332 99.578 C 241.999 100.445, 242.440 101.869, 243.313 102.742 C 245.554 104.983, 248.451 102.711, 246.944 99.895 C 245.712 97.593, 243.161 97.417, 242.332 99.578 M 332.533 102.947 C 331.653 104.370, 332.775 106, 334.632 106 C 335.508 106, 336.010 105.297, 335.823 104.333 C 335.434 102.324, 333.437 101.484, 332.533 102.947 M 133.500 108.389 C 128.853 110.419, 124.125 114.844, 121.760 119.376 C 118.913 124.831, 118.713 134.378, 121.362 138.425 C 123.201 141.236, 123.316 141.264, 130.958 140.740 C 135.212 140.449, 140.045 139.511, 141.698 138.656 C 149.185 134.785, 154.603 124.624, 153.775 116.008 C 153.062 108.592, 151.156 106.991, 143.095 107.039 C 139.468 107.061, 135.150 107.668, 133.500 108.389 M 339 110.878 C 339 112.189, 341.585 114.082, 342.342 113.325 C 343.711 111.956, 342.922 110, 341 110 C 339.900 110, 339 110.395, 339 110.878 M 332.192 137.075 C 332.389 137.666, 332.978 138.150, 333.500 138.150 C 334.022 138.150, 334.611 137.666, 334.808 137.075 C 335.005 136.484, 334.417 136, 333.500 136 C 332.583 136, 331.995 136.484, 332.192 137.075 M 19.173 148.659 C 19.594 150.848, 22.500 151.157, 22.500 149.014 C 22.500 148.196, 21.672 147.368, 20.659 147.173 C 19.323 146.916, 18.916 147.323, 19.173 148.659 M 371.087 164.395 C 370.451 165.162, 370.058 166.341, 370.215 167.015 C 370.372 167.689, 369.150 169.010, 367.500 169.951 C 365.850 170.892, 364.355 172.413, 364.177 173.331 C 363.656 176.020, 368.640 175.429, 371.187 172.500 C 372.382 171.125, 374.378 170, 375.621 170 C 379.172 170, 379.610 167.921, 376.604 165.336 C 373.452 162.625, 372.667 162.491, 371.087 164.395 M 84.250 174.680 C 81.912 174.919, 80 175.542, 80 176.064 C 80 176.586, 78.827 178.023, 77.393 179.257 C 75.959 180.490, 73.412 183.486, 71.732 185.914 C 69.216 189.551, 68.599 191.573, 68.227 197.414 C 67.827 203.697, 68.017 204.717, 69.903 206.419 C 72.590 208.842, 81.413 209.679, 86.519 207.994 C 91.755 206.266, 97.892 200.405, 100.647 194.500 C 103.607 188.157, 103.892 179.117, 101.208 176.688 C 99.266 174.931, 91.164 173.971, 84.250 174.680 M 362.177 177.553 C 362.629 179.725, 364.404 179.858, 364.810 177.750 C 365.020 176.655, 364.530 176, 363.500 176 C 362.539 176, 361.988 176.647, 362.177 177.553 M 232.655 181.829 C 230.714 183.974, 230.426 192.392, 232.089 198.382 C 232.686 200.532, 235.138 204.371, 237.583 206.986 C 240.013 209.583, 242 212.618, 242 213.731 C 242 217.201, 244.462 218.399, 247.501 216.407 C 248.950 215.458, 252.375 214.566, 255.112 214.426 C 257.849 214.287, 261.254 213.408, 262.679 212.474 C 265.186 210.832, 265.253 210.525, 264.740 203.042 C 264.150 194.423, 262.740 191.005, 257.835 186.301 C 253.203 181.857, 248.149 180, 240.687 180 C 235.779 180, 233.929 180.421, 232.655 181.829 M 0.272 189 C 0.272 191.475, 0.467 192.488, 0.706 191.250 C 0.944 190.012, 0.944 187.988, 0.706 186.750 C 0.467 185.512, 0.272 186.525, 0.272 189 M 0.252 210.500 C 0.263 212.700, 0.468 213.482, 0.707 212.238 C 0.946 210.994, 0.937 209.194, 0.687 208.238 C 0.437 207.282, 0.241 208.300, 0.252 210.500 M 316.050 210.440 C 315.206 211.457, 313.924 211.768, 312.278 211.355 C 309.758 210.722, 308.047 212.106, 308.015 214.802 C 307.991 216.869, 318.007 215.958, 319.380 213.769 C 320.208 212.448, 320.094 211.665, 318.897 210.469 C 317.485 209.057, 317.200 209.054, 316.050 210.440 M 137 228.594 C 128.567 232.247, 123.026 241.389, 123.010 251.677 C 123.001 257.166, 123.294 258.086, 125.635 259.927 C 131.354 264.426, 144.608 261.347, 151.699 253.872 C 156.086 249.248, 158 244.155, 158 237.105 C 158 231.858, 157.685 230.897, 155.365 229.073 C 152.129 226.527, 142.361 226.272, 137 228.594 M 354.079 251.583 C 354.127 252.748, 354.364 252.985, 354.683 252.188 C 354.972 251.466, 354.936 250.603, 354.604 250.271 C 354.272 249.939, 354.036 250.529, 354.079 251.583 M 316.470 256.267 C 311.266 261.470, 309.538 266.960, 310.346 275.722 C 311.029 283.136, 312.676 286.630, 317.467 290.837 C 322.287 295.068, 324.949 295.577, 329.670 293.168 C 332.938 291.501, 334.017 290.094, 336.310 284.510 C 341.849 271.023, 338.858 258.639, 328.800 253.405 C 324.076 250.947, 321.099 251.638, 316.470 256.267 M 282.972 257.052 C 282.369 258.180, 282.015 260.092, 282.187 261.302 C 282.445 263.112, 283.249 263.554, 286.750 263.807 C 291.757 264.170, 292.289 262.662, 288.812 257.960 C 286.243 254.485, 284.492 254.212, 282.972 257.052 M 362.192 256.075 C 362.389 256.666, 362.978 257.150, 363.500 257.150 C 364.022 257.150, 364.611 256.666, 364.808 256.075 C 365.005 255.484, 364.417 255, 363.500 255 C 362.583 255, 361.995 255.484, 362.192 256.075 M 350.250 259.718 C 348.549 260.329, 348.658 264, 350.378 264 C 352.629 264, 354.258 261.450, 352.762 260.267 C 352.068 259.718, 350.938 259.471, 350.250 259.718 M 260.522 315.782 C 251.721 320.472, 247.868 325.548, 247.225 333.301 C 245.937 348.833, 260.772 352.919, 274.545 340.826 C 283.651 332.831, 285.907 316.557, 278.385 313.130 C 273.680 310.986, 267.915 311.842, 260.522 315.782 M 333.667 313.667 C 332.310 315.023, 333.071 316.711, 335.547 317.839 C 339.249 319.526, 341 319.268, 341 317.035 C 341 314.191, 335.615 311.718, 333.667 313.667 M 325.571 317.571 C 324.707 318.436, 324 319.731, 324 320.449 C 324 321.167, 323.302 322.334, 322.449 323.042 C 319.723 325.304, 321.094 329.222, 325.466 331.668 C 330.522 334.495, 332.487 333.322, 331.521 328.056 C 331.162 326.100, 330.786 322.925, 330.684 321 C 330.425 316.081, 328.412 314.731, 325.571 317.571 M 56 329.500 C 56 330.325, 56.675 331, 57.500 331 C 58.325 331, 59 330.325, 59 329.500 C 59 328.675, 58.325 328, 57.500 328 C 56.675 328, 56 328.675, 56 329.500 M 72 347.500 C 72 349.056, 72.567 350, 73.500 350 C 74.433 350, 75 349.056, 75 347.500 C 75 345.944, 74.433 345, 73.500 345 C 72.567 345, 72 345.944, 72 347.500 M 101.394 353.416 C 101.095 354.194, 100.997 356.107, 101.175 357.666 C 101.410 359.718, 102.052 360.504, 103.500 360.516 C 107.358 360.546, 108.009 359.129, 105.830 355.437 C 103.664 351.766, 102.271 351.131, 101.394 353.416 M 109.173 364.564 C 109.353 366.094, 110.097 367.542, 110.827 367.782 C 111.762 368.089, 112.057 367.397, 111.827 365.436 C 111.647 363.906, 110.903 362.458, 110.173 362.218 C 109.238 361.911, 108.943 362.603, 109.173 364.564" stroke="none" fill="black" fill-rule="evenodd"/>
</svg>