<svg xmlns="http://www.w3.org/2000/svg" width="400" height="401" viewBox="0 0 400 401" version="1.1">
	<path d="M 170 2.035 C 164.225 3.066, 153.717 5.504, 146.650 7.454 C 139.582 9.405, 133.620 11, 133.400 11 C 133.180 11, 133 11.657, 133 12.460 C 133 13.598, 134.818 13.983, 141.250 14.210 L 149.500 14.500 149.500 18.500 L 149.500 22.500 154.705 22.801 C 157.568 22.966, 163.193 22.352, 167.205 21.436 C 171.217 20.519, 176.300 19.687, 178.500 19.586 C 180.700 19.485, 183.562 18.819, 184.861 18.107 C 186.342 17.294, 188.764 17.036, 191.361 17.416 C 193.637 17.748, 202.027 18.439, 210.004 18.951 C 231.767 20.346, 251.656 24.976, 254.426 29.291 C 255.206 30.506, 256.390 34.425, 257.057 38 C 257.724 41.575, 258.656 44.925, 259.129 45.443 C 259.648 46.014, 261.178 45.246, 263 43.500 C 265.060 41.526, 266.338 40.938, 267.039 41.639 C 268.527 43.127, 267.280 45.552, 264.336 46.893 C 262.406 47.772, 261.918 48.579, 262.341 50.194 C 262.676 51.478, 262.120 53.427, 260.950 55.070 C 259.449 57.179, 258.995 59.499, 258.978 65.154 C 258.915 86.699, 246.957 112.968, 228.616 131.858 C 216.423 144.414, 204.447 153, 199.124 153 C 193.917 153, 170.894 133.779, 160.806 121.011 C 157.430 116.739, 157.139 116.588, 154.740 117.872 C 150.728 120.019, 149.334 123.456, 150.915 127.305 C 156.502 140.909, 162.231 170.831, 160.035 174.935 C 158.339 178.104, 153.134 181.478, 144 185.330 C 114.832 197.630, 82.476 198.061, 58.191 186.472 C 41.584 178.546, 22.999 164.495, 23.001 159.866 C 23.001 157.530, 30.066 137.357, 35.832 123.228 C 41.970 108.187, 56.611 86.533, 69.598 73.288 C 76.509 66.240, 77.842 65.882, 87.068 68.600 C 95.300 71.024, 111.083 79.482, 117.264 84.781 C 127.869 93.872, 132.395 97.508, 134.341 98.500 C 135.421 99.050, 136.615 100.175, 136.995 101 C 140.723 109.092, 142.966 112.882, 145.814 115.902 C 148.802 119.070, 149.271 119.267, 150.137 117.720 C 150.671 116.765, 150.840 115.550, 150.513 115.020 C 150.185 114.490, 150.602 113.011, 151.440 111.732 C 152.864 109.559, 152.665 108.707, 148.379 98.593 C 141.599 82.597, 139.682 71.992, 140.229 53.500 C 140.778 34.911, 140.778 34.910, 136.684 35.660 C 134.933 35.981, 132.477 36.881, 131.226 37.661 C 129.105 38.982, 128.835 38.873, 127.226 36.045 C 126.277 34.377, 124.820 33.010, 123.990 33.006 C 122.330 32.999, 117 37.550, 117 38.973 C 117 40.437, 113.007 41.251, 111.592 40.076 C 110.870 39.477, 110.485 37.915, 110.735 36.604 C 111.274 33.784, 108.430 29, 106.214 29 C 105.358 29, 103.853 28.272, 102.869 27.381 C 101.210 25.880, 100.734 25.962, 96.290 28.521 C 85.533 34.716, 71.927 45.420, 62.421 55.166 C 44.467 73.574, 42.827 75.407, 38.405 82 C 36.007 85.575, 32.404 90.955, 30.399 93.956 C 20.390 108.936, 9.700 134.438, 5.020 154.500 C -1.051 180.526, -1.655 211.899, 3.430 237 C 8.608 262.554, 21.246 295.285, 30.750 307.754 C 32.538 310.099, 34 312.243, 34 312.519 C 34 313.037, 40.450 322.398, 42.399 324.708 C 43.005 325.426, 48.518 331.298, 54.651 337.757 L 65.803 349.500 68.216 347.250 C 71.213 344.456, 71.444 344.455, 77.191 347.233 C 82.329 349.715, 85.249 354.151, 83.137 356.263 C 82.268 357.132, 80.637 356.709, 76.492 354.541 C 73.471 352.960, 70.753 351.914, 70.452 352.215 C 70.151 352.516, 72.063 354.613, 74.702 356.875 C 78.214 359.885, 80.385 360.989, 82.801 360.994 C 85.626 360.999, 86.313 361.505, 87.564 364.500 C 89.154 368.304, 89.988 368.649, 93.017 366.757 C 95.807 365.015, 98.417 366.869, 98.815 370.875 C 99.108 373.828, 99.873 374.418, 109.815 379.356 C 124.867 386.832, 132.231 389.386, 136.660 388.668 C 141.531 387.877, 147.628 389.889, 148.914 392.710 C 149.828 394.717, 150.440 394.901, 154.392 394.360 C 157.999 393.865, 159.422 394.164, 161.916 395.940 L 164.991 398.130 166.970 394.815 C 168.058 392.992, 170.501 390.453, 172.398 389.174 C 175.207 387.278, 176.231 387.053, 177.923 387.959 C 180.848 389.524, 180.601 392.811, 177.500 393.589 C 176.125 393.934, 175 394.843, 175 395.608 C 175 397.548, 182.256 397.436, 186.121 395.437 C 188.466 394.225, 189.462 394.138, 190.561 395.050 C 191.340 395.697, 191.756 396.585, 191.486 397.023 C 191.215 397.461, 191.235 398.450, 191.531 399.220 C 191.945 400.299, 194.901 400.667, 204.438 400.827 C 216.701 401.033, 216.825 401.012, 218.695 398.444 L 220.582 395.853 223.841 397.677 C 227.027 399.459, 227.133 399.455, 228.598 397.500 C 229.526 396.261, 229.818 394.739, 229.367 393.500 C 228.966 392.400, 228.607 389.101, 228.569 386.170 L 228.500 380.839 225 381.479 C 223.075 381.831, 219.137 382.359, 216.250 382.652 C 212.058 383.078, 211 383.548, 211 384.986 C 211 385.976, 211.675 387.045, 212.500 387.362 C 215.640 388.566, 213.804 390, 209.122 390 C 204.281 390, 201.151 391.818, 202.430 393.887 C 203.850 396.185, 200.957 395.804, 199.312 393.476 C 195.824 388.539, 189.060 382, 187.442 382 C 186.543 382, 184.524 382.759, 182.954 383.686 C 180.203 385.311, 179.927 385.280, 175.300 382.823 C 172.025 381.084, 169.070 380.309, 166 380.387 L 161.500 380.500 161.500 384.911 C 161.500 387.609, 161.002 389.490, 160.216 389.755 C 158.045 390.489, 156 387.923, 156 384.462 C 156 381.662, 155.029 380.317, 149.507 375.469 C 141.060 368.053, 140.560 366.299, 140.526 344 C 140.504 328.847, 140.805 325.384, 142.775 318.180 C 147.091 302.396, 157.615 283.053, 168.171 271.503 C 172.677 266.573, 173.210 265.566, 172.184 263.922 C 169.628 259.831, 172.111 255.859, 175.582 258.485 C 178.401 260.618, 179.498 260.370, 184.654 256.435 C 187.223 254.474, 191.562 251.736, 194.296 250.350 C 199.212 247.859, 199.318 247.850, 203.766 249.548 C 209.837 251.867, 226.422 265.365, 232.114 272.620 C 241.589 284.696, 249.673 298.772, 255.442 313.241 C 256.920 316.948, 257.880 320.384, 257.576 320.877 C 257.271 321.370, 257.632 322.280, 258.378 322.899 C 259.400 323.747, 260.026 323.674, 260.916 322.601 C 261.722 321.630, 261.764 320.972, 261.049 320.530 C 258.928 319.220, 260.071 316.156, 263.416 314.182 C 265.295 313.073, 267.095 312.429, 267.416 312.750 C 267.737 313.071, 268 315.733, 268 318.667 C 268 324.244, 269.422 325.607, 272 322.500 C 272.685 321.675, 274.344 321, 275.688 321 C 278.829 321, 282 319.299, 282 317.615 C 282 316.892, 279.192 313.870, 275.760 310.900 C 267.754 303.971, 265.992 301.988, 260.331 293.528 C 250.121 278.272, 241.885 256.529, 239.976 239.790 C 238.967 230.941, 239.501 226.416, 241.887 223.591 C 244.450 220.559, 264.645 211.437, 274.500 208.861 C 282.364 206.805, 285.709 206.517, 301 206.574 C 317.033 206.634, 319.236 206.865, 327.277 209.323 C 342.877 214.093, 361.201 224.279, 370.656 233.437 C 375.192 237.831, 376 239.165, 376 242.261 C 376 246.032, 370.809 261.438, 364.764 275.608 C 357.963 291.549, 343.458 312.842, 329.321 327.638 C 320.996 336.350, 316.868 337.750, 311.881 333.553 C 306.507 329.031, 300.094 331.162, 303.488 336.342 C 305.459 339.350, 305.019 339.853, 296.500 344.340 C 292.112 346.651, 290.410 348.135, 290.165 349.865 C 289.670 353.369, 291.338 354.480, 294.240 352.579 C 296.532 351.076, 296.861 351.103, 299.254 352.985 C 302.260 355.350, 305 355.612, 305 353.535 C 305 351.378, 308.697 349.775, 311.998 350.500 C 314.343 351.015, 315.492 350.547, 318.166 347.992 C 321.192 345.100, 321.871 344.889, 326.750 345.323 C 329.663 345.582, 332.720 346.353, 333.542 347.035 C 334.757 348.043, 335.437 347.922, 337.168 346.388 C 341.842 342.245, 360.616 321.080, 362.012 318.380 C 362.830 316.796, 364.073 314.895, 364.773 314.156 C 367.022 311.780, 376.992 294.267, 380.652 286.261 C 388.228 269.693, 395.419 243.823, 398.203 223.117 C 399.076 216.632, 399.671 214.470, 400.133 216.117 C 400.500 217.428, 400.778 209.725, 400.750 199 C 400.722 188.275, 400.422 181.525, 400.083 184 L 399.465 188.500 398.681 181.500 C 397.265 168.865, 392.964 149.044, 389.390 138.679 C 387.459 133.081, 385.725 127.801, 385.535 126.946 C 384.843 123.825, 379.730 112.311, 375.789 105 C 368.912 92.240, 357.537 75.834, 350.359 68.322 L 343.500 61.144 337.354 61.701 C 332.616 62.131, 330.675 61.886, 328.881 60.629 C 327.602 59.733, 325.507 59, 324.226 59 C 320.905 59, 314.017 54.817, 314.008 52.795 C 314.002 51.600, 315.121 50.905, 317.750 50.470 C 323.254 49.558, 327 47.935, 327 46.463 C 327 43.516, 307.596 30.700, 290.089 22.084 C 274.283 14.305, 272.520 14.250, 277.111 21.680 C 279.135 24.954, 279.149 25.178, 277.456 27.048 C 275.326 29.402, 271.719 29.576, 269.571 27.429 C 267.362 25.219, 267.608 23.203, 270.555 19.339 C 271.961 17.496, 272.845 15.558, 272.520 15.033 C 271.045 12.646, 240.810 4.275, 223.558 1.477 C 210.519 -0.638, 183.395 -0.355, 170 2.035 M 120.500 19 C 118.850 20.093, 116.518 20.990, 115.318 20.993 C 112.632 21.002, 108.253 26.653, 109.762 28.162 C 110.440 28.840, 111.776 28.650, 113.835 27.585 C 115.521 26.713, 117.564 26, 118.374 26 C 119.184 26, 121.184 24.875, 122.818 23.500 C 124.886 21.759, 126.985 21, 129.728 21 C 134.267 21, 135.446 20.243, 133.869 18.342 C 132.151 16.272, 124.014 16.673, 120.500 19 M 255.031 18.463 C 254.043 19.653, 254.327 20.399, 256.554 22.463 C 258.060 23.858, 259.917 25, 260.681 25 C 262.406 25, 267 22.060, 267 20.956 C 267 17.449, 257.513 15.473, 255.031 18.463 M 132 27.500 C 132 28.548, 133.056 29, 135.500 29 C 137.944 29, 139 28.548, 139 27.500 C 139 26.452, 137.944 26, 135.500 26 C 133.056 26, 132 26.452, 132 27.500 M 140.638 31.276 C 139.902 34.092, 140.547 34.596, 142.452 32.690 C 144.358 30.785, 144.379 30.359, 142.599 29.676 C 141.739 29.346, 140.981 29.965, 140.638 31.276 M 97.110 35.367 C 96.252 36.401, 96.311 37.014, 97.355 37.880 C 98.409 38.754, 99.022 38.678, 99.953 37.556 C 101.162 36.100, 100.637 34, 99.063 34 C 98.613 34, 97.734 34.615, 97.110 35.367 M 87.210 50.277 C 85.950 50.863, 85.054 52.052, 85.220 52.921 C 85.631 55.082, 89.377 55.456, 91.002 53.498 C 93.018 51.068, 90.362 48.812, 87.210 50.277 M 114.658 52 C 113.187 53.650, 111.313 55, 110.492 55 C 108.726 55, 108.494 57.569, 110.166 58.603 C 110.949 59.087, 110.409 60.060, 108.522 61.564 C 106.557 63.131, 105.914 64.334, 106.385 65.561 C 106.985 67.124, 107.390 67, 110.063 64.439 C 112.678 61.934, 113.328 61.724, 115.078 62.817 C 116.778 63.878, 117.546 63.747, 120.045 61.968 C 123.677 59.382, 124.134 54.134, 121 51 C 118.368 48.368, 117.816 48.456, 114.658 52 M 194.443 51.872 C 192.762 52.897, 190.198 55.033, 188.746 56.618 C 187.294 58.203, 184.669 61.075, 182.912 63 C 181.155 64.925, 178.333 69.425, 176.642 73 C 173.727 79.160, 173.565 80.153, 173.533 92 C 173.500 104.353, 173.543 104.588, 177.127 112 C 181.482 121.007, 185.960 126.352, 193.503 131.547 L 199.135 135.425 203.632 133.039 C 213.979 127.550, 223.582 114.453, 226.023 102.500 C 228.109 92.288, 225.845 77.977, 220.632 68.413 C 218.237 64.020, 210.550 56, 208.735 56 C 207.855 56, 206.871 55.168, 206.548 54.152 C 205.926 52.191, 202.042 49.998, 199.203 50.004 C 198.266 50.006, 196.124 50.846, 194.443 51.872 M 301.667 50.667 C 300.371 51.962, 301.023 55.711, 302.829 57.345 C 304.951 59.266, 309.547 59.541, 310.616 57.812 C 311.043 57.122, 310.570 56.178, 309.490 55.562 C 308.466 54.978, 306.648 53.487, 305.450 52.250 C 303.097 49.820, 302.685 49.648, 301.667 50.667 M 330 57 C 330 57.550, 330.450 58, 331 58 C 331.550 58, 332 57.550, 332 57 C 332 56.450, 331.550 56, 331 56 C 330.450 56, 330 56.450, 330 57 M 121.500 66 C 121.160 66.550, 121.359 67, 121.941 67 C 122.523 67, 123 66.550, 123 66 C 123 65.450, 122.802 65, 122.559 65 C 122.316 65, 121.840 65.450, 121.500 66 M 307 71.300 C 293.354 76.602, 287.773 79.779, 280.499 86.385 C 277.276 89.312, 275.821 89.967, 273 89.758 C 269.827 89.524, 269.410 89.805, 268.541 92.756 C 267.660 95.752, 267.327 95.964, 264.385 95.412 C 261.941 94.954, 260.694 95.306, 259.094 96.906 C 256.101 99.899, 256.446 101.308, 260.044 100.780 C 261.718 100.535, 263.281 100.646, 263.518 101.029 C 263.754 101.411, 261.266 105.906, 257.989 111.017 C 250.996 121.923, 245.083 136.512, 241.987 150.500 C 240.508 157.185, 239.117 161.076, 237.792 162.237 C 235.817 163.968, 235.817 163.991, 237.905 168.303 C 239.057 170.684, 240 173.311, 240 174.141 C 240 176.731, 244.119 179.683, 255.032 184.918 C 271.719 192.922, 278.265 194.343, 299.287 194.523 C 311.285 194.625, 317.453 195.053, 318.237 195.837 C 319.988 197.588, 321.415 197.246, 322.513 194.812 C 323.215 193.256, 325.523 192.004, 330.500 190.478 C 337.398 188.363, 352.644 181.058, 358.500 177.061 C 360.828 175.472, 363.096 175.012, 368.628 175.007 C 377.199 174.999, 379.086 173.650, 376.005 169.734 C 373.977 167.156, 373.320 164, 374.811 164 C 375.258 164, 376.608 163.082, 377.811 161.961 C 380.993 158.997, 380.669 154.741, 377.028 151.677 C 374.269 149.356, 371.426 143.065, 364.306 123.531 C 362.002 117.212, 352.570 101.833, 344.505 91.247 C 336.528 80.776, 323.005 65.983, 321.450 66.027 C 320.928 66.042, 314.425 68.414, 307 71.300 M 198.059 86.429 C 197.101 87.583, 197.605 88.537, 200.687 91.402 C 202.784 93.351, 204.993 94.958, 205.595 94.973 C 206.197 94.988, 207.505 95.900, 208.500 97 C 210.514 99.225, 214 99.695, 214 97.741 C 214 97.048, 213.100 95.919, 212 95.232 C 210.900 94.545, 210 92.945, 210 91.676 C 210 90.036, 208.875 88.736, 206.114 87.184 C 201.578 84.635, 199.695 84.458, 198.059 86.429 M 192.122 88.904 C 190.508 89.925, 191.471 92, 193.559 92 C 194.352 92, 195 91.100, 195 90 C 195 87.829, 194.262 87.548, 192.122 88.904 M 194.122 98.353 C 192.906 99.818, 193.596 101, 195.667 101 C 197.156 101, 197.492 98.422, 196.113 97.570 C 195.626 97.269, 194.730 97.621, 194.122 98.353 M 87.291 118.062 C 79.135 119.123, 72.852 121.994, 70.039 125.946 C 68.084 128.690, 67.859 129.878, 68.448 134.318 C 69.389 141.416, 75.874 154.823, 81.116 160.511 C 87.072 166.971, 92.383 170.422, 101.013 173.437 C 115.499 178.498, 136.601 175.668, 141.812 167.964 C 143.844 164.961, 144.066 163.769, 143.486 159 C 142.684 152.411, 139.695 143.451, 137.148 140 C 136.088 138.565, 134.066 137.361, 132.401 137.173 C 128.445 136.727, 127.593 135.637, 129.168 133.036 C 130.389 131.019, 130.183 130.560, 126.681 127.503 C 116.775 118.855, 104.255 115.854, 87.291 118.062 M 292.779 117.953 C 279.164 120.598, 267.610 129.303, 262.013 141.134 C 258.557 148.440, 258.397 149.677, 260.598 152.108 C 262.443 154.147, 261.705 156, 259.048 156 C 255.130 156, 254.661 165.855, 258.414 169.333 C 262.943 173.530, 279.854 176.645, 290 175.150 C 300.443 173.611, 307.368 170.479, 314.092 164.254 C 321.206 157.668, 323.183 154.259, 322.790 149.258 C 322.554 146.260, 322.869 145.496, 324.475 145.169 C 327.475 144.558, 328.767 142.146, 330.016 134.828 C 331.455 126.396, 330.634 124.720, 323.457 121.437 C 314.466 117.325, 302.820 116.002, 292.779 117.953 M 278.152 150.885 C 276.609 151.863, 276.938 155.147, 278.634 155.712 C 279.258 155.919, 280.511 155.347, 281.418 154.439 C 282.695 153.163, 282.807 152.472, 281.912 151.394 C 280.576 149.785, 280.009 149.708, 278.152 150.885 M 189 173.535 C 187.075 174.833, 183.825 177.030, 181.777 178.418 C 177.042 181.629, 172.310 188.139, 170.886 193.404 C 170.277 195.657, 169.980 200.680, 170.227 204.567 C 170.991 216.593, 177.668 225.995, 187.927 229.491 C 195.569 232.095, 201.940 232.401, 208.745 230.491 C 216.721 228.254, 222.047 223.681, 225.977 215.699 C 232.031 203.401, 230.822 192.467, 222.368 183.064 C 215.647 175.589, 211.045 173.621, 195.500 171.572 C 193.501 171.309, 191.332 171.964, 189 173.535 M 0.419 200 C 0.419 210.725, 0.566 215.113, 0.746 209.750 C 0.925 204.387, 0.925 195.613, 0.746 190.250 C 0.566 184.887, 0.419 189.275, 0.419 200 M 325.552 197.916 C 324.716 199.269, 330.983 205.149, 332.876 204.789 C 334.889 204.405, 335.571 200.393, 333.954 198.445 C 332.633 196.853, 326.450 196.463, 325.552 197.916 M 86.500 207.074 C 65.431 209.956, 42.073 220.538, 28.547 233.329 C 23.991 237.637, 23 239.165, 23 241.885 C 23 243.706, 25.528 251.790, 28.618 259.848 C 31.708 267.907, 34.904 276.391, 35.721 278.702 C 37.784 284.541, 49.299 303.397, 56.498 312.727 C 59.797 317.002, 66.380 324.468, 71.127 329.318 C 79.357 337.727, 79.936 338.121, 83.628 337.818 C 86.910 337.548, 87.545 337.119, 87.795 335 C 88.040 332.924, 89.553 331.829, 96.719 328.538 C 126.712 314.764, 146.567 290.915, 156.376 256.879 C 159.074 247.515, 161.219 231.654, 160.299 227.865 C 159.296 223.737, 156.091 221.298, 145.412 216.531 C 125.984 207.859, 105.179 204.519, 86.500 207.074 M 108.500 225.646 C 94.780 229.243, 93 230.156, 84.947 237.732 C 75.251 246.853, 70.508 255.555, 69.417 266.220 C 68.553 274.667, 69.792 276.810, 77.696 280.549 C 93.033 287.805, 116.424 283.309, 129.437 270.604 C 136.226 263.977, 139.433 257.582, 142.067 245.425 C 144.148 235.818, 144.150 235.678, 142.248 233.130 C 139.041 228.835, 129.871 225.719, 119.500 225.399 C 114.550 225.247, 109.600 225.358, 108.500 225.646 M 276 225.612 C 268.641 226.916, 260.477 229.775, 258.251 231.829 C 255.885 234.011, 255.767 234.579, 256.353 240.892 C 258.144 260.157, 267.717 273.538, 284.500 280.231 C 291.835 283.157, 293.457 283.425, 304 283.461 C 313.944 283.495, 316.194 283.186, 320.632 281.177 C 323.455 279.900, 327.033 277.531, 328.583 275.913 C 331.375 272.999, 331.391 272.911, 330.278 266.416 C 328.053 253.426, 319.653 239.985, 309.314 232.872 C 301.996 227.837, 284.706 224.069, 276 225.612 M 167.570 251.887 C 166.661 253.357, 169.907 255.493, 171.155 254.245 C 171.744 253.656, 171.923 252.685, 171.554 252.087 C 170.744 250.777, 168.331 250.655, 167.570 251.887 M 195.704 267.596 C 194.166 268.430, 192.481 270.234, 191.960 271.606 C 191.438 272.978, 189.771 274.546, 188.256 275.091 C 184.695 276.372, 179.467 283.340, 176.134 291.248 C 173.782 296.830, 173.500 298.785, 173.500 309.500 C 173.500 320.519, 173.726 321.983, 176.267 327.409 C 179.345 333.980, 186.814 343.879, 188.750 343.953 C 189.438 343.979, 190 343.155, 190 342.122 C 190 339.543, 192.487 337.702, 194.926 338.476 C 197.668 339.347, 201 343.763, 201 346.528 C 201 349.618, 203.625 350.375, 206.023 347.977 C 208.279 345.721, 208.525 343.925, 206.813 342.213 C 205.898 341.298, 206.182 340.435, 208.059 338.437 C 209.608 336.788, 210.374 334.947, 210.168 333.371 C 209.989 332.009, 210.383 330.243, 211.044 329.447 C 212.622 327.546, 217.626 327.582, 218.362 329.500 C 219.651 332.860, 221.895 330.831, 224.168 324.250 C 227.408 314.872, 227.384 300.085, 224.117 291.760 C 221.087 284.042, 215.253 276.498, 207.868 270.750 C 201.276 265.619, 199.973 265.282, 195.704 267.596 M 182.861 291.937 C 180.942 293.512, 180.706 294.214, 181.602 295.687 C 182.208 296.684, 183.629 297.638, 184.760 297.807 C 186.342 298.044, 186.969 297.416, 187.482 295.082 C 188.613 289.930, 186.806 288.700, 182.861 291.937 M 340.807 318.750 C 337.993 322.026, 337.781 323.100, 339.557 325.063 C 341.676 327.404, 345.286 327.572, 347.429 325.429 C 349.351 323.506, 349.350 323.578, 347.474 319.950 C 345.756 316.628, 343.048 316.140, 340.807 318.750 M 341.500 332 C 340.684 333.320, 341.880 335.192, 343.069 334.457 C 344.284 333.707, 344.276 331, 343.059 331 C 342.541 331, 341.840 331.450, 341.500 332 M 266.778 343.936 C 264.256 347.788, 264.242 347.909, 266.101 349.591 C 268.150 351.446, 268.599 356.013, 267.021 358.961 C 266.483 359.967, 264.683 361.264, 263.021 361.843 C 260.724 362.644, 260 363.508, 260 365.448 C 260 366.996, 259.437 368, 258.568 368 C 257.781 368, 256.200 369.314, 255.057 370.920 C 253.848 372.618, 251.202 374.432, 248.739 375.253 C 246.354 376.048, 244.359 377.395, 244.177 378.333 C 243.911 379.702, 244.716 380.003, 248.677 380.015 C 251.330 380.023, 254.458 380.585, 255.628 381.265 C 256.799 381.944, 258.718 383.082, 259.893 383.793 C 262.894 385.610, 263.734 383.066, 261.610 378.591 C 260.725 376.725, 260 373.691, 260.001 371.849 C 260.002 368.866, 260.556 368.189, 265.069 365.654 C 267.856 364.089, 270.293 362.289, 270.485 361.654 C 270.676 361.019, 271.104 359.262, 271.436 357.750 C 271.835 355.927, 272.678 355, 273.937 355 C 277.814 355, 279 356.134, 279.015 359.857 C 279.026 362.322, 279.313 363.054, 279.904 362.122 C 280.384 361.364, 281.277 361.053, 281.888 361.431 C 283.599 362.488, 283.207 364, 281.222 364 C 280.244 364, 278.674 364.900, 277.732 366 C 276.790 367.100, 274.890 368, 273.510 368 C 270.406 368, 270.333 369.393, 273.250 372.972 C 274.488 374.490, 275.982 376.553, 276.572 377.557 C 277.367 378.912, 279.041 379.442, 283.072 379.615 C 287.479 379.803, 289.674 379.250, 294.742 376.674 C 298.174 374.928, 300.987 373.010, 300.992 372.411 C 300.996 371.811, 299.852 370.798, 298.448 370.158 C 297.044 369.519, 295.251 367.450, 294.462 365.562 C 293.300 362.782, 292.406 362.069, 289.763 361.814 C 286.667 361.516, 286.484 361.270, 286.181 357.020 C 285.686 350.063, 283.590 348.410, 279.919 352.081 C 277.915 354.085, 277.787 354.094, 276.451 352.331 C 275.688 351.324, 275.034 349.150, 274.999 347.500 C 274.935 344.554, 272.062 340, 270.267 340 C 269.766 340, 268.196 341.771, 266.778 343.936 M 82.736 345.598 C 82.407 345.927, 82.384 346.838, 82.686 347.623 C 83.104 348.713, 83.558 348.781, 84.606 347.912 C 85.360 347.286, 85.731 346.374, 85.430 345.887 C 84.797 344.863, 83.599 344.735, 82.736 345.598 M 100 351.500 C 100 352.325, 100.450 353, 101 353 C 101.550 353, 102 352.325, 102 351.500 C 102 350.675, 101.550 350, 101 350 C 100.450 350, 100 350.675, 100 351.500 M 309.235 363.780 C 305.038 367.440, 303.793 370.024, 306.250 369.975 C 308.327 369.934, 317 363.089, 317 361.490 C 317 358.928, 313.673 359.909, 309.235 363.780 M 138.177 379.553 C 138.629 381.725, 140.404 381.858, 140.810 379.750 C 141.020 378.655, 140.530 378, 139.500 378 C 138.539 378, 137.988 378.647, 138.177 379.553 M 270 385 C 270 385.550, 270.675 386, 271.500 386 C 272.325 386, 273 385.550, 273 385 C 273 384.450, 272.325 384, 271.500 384 C 270.675 384, 270 384.450, 270 385 M 245.432 393.075 C 243.565 395.138, 243.572 395.146, 246.527 394.437 C 250.245 393.545, 251 393.124, 251 391.941 C 251 390.222, 247.339 390.968, 245.432 393.075" stroke="none" fill="black" fill-rule="evenodd"/>
</svg>