<svg xmlns="http://www.w3.org/2000/svg" width="400" height="401" viewBox="0 0 400 401" version="1.1">
	<path d="M 177 1.425 C 154.658 4.306, 121.222 14.404, 110.222 21.594 C 108.112 22.973, 108.057 23.243, 109.472 25.264 C 111.416 28.039, 111.428 31.400, 109.500 33 C 107.217 34.894, 107.600 38, 110.117 38 C 111.835 38, 112.143 37.530, 111.755 35.500 C 111.251 32.864, 111.391 32.784, 117 32.450 C 118.925 32.336, 121.478 31.919, 122.674 31.524 C 124.438 30.942, 125.147 31.383, 126.428 33.861 C 127.881 36.670, 127.869 37.207, 126.281 40.537 C 124.323 44.643, 123.575 42.701, 133.200 58.500 C 136.216 63.450, 142.153 73.575, 146.393 81 C 150.633 88.425, 155.663 96.975, 157.571 100 C 162.645 108.044, 162.164 109.397, 152 115.674 C 147.325 118.562, 142.791 120.941, 141.924 120.962 C 139.661 121.017, 136.980 117.671, 131.539 108 C 128.908 103.325, 125.308 97.250, 123.539 94.500 C 121.769 91.750, 117.967 85.110, 115.090 79.745 C 112.212 74.380, 108.315 67.697, 106.429 64.895 C 102.756 59.437, 102.177 55.672, 104.532 52.559 C 107.405 48.761, 106.383 45.510, 100.806 40.705 L 95.611 36.229 101.056 31.211 C 106.378 26.305, 107.153 24.182, 103.158 25.450 C 99.482 26.617, 96 30.081, 96 32.573 C 96 34.790, 95.603 35, 91.407 35 C 87.279 35, 85.881 35.701, 77.616 41.913 C 64.730 51.598, 42.910 74.482, 35.500 86.083 C 34.950 86.944, 32.588 90.497, 30.250 93.979 C 25.577 100.940, 24.955 104.330, 28 106.232 C 31.035 108.127, 30.402 109.266, 24.795 112 C 18.473 115.081, 16.996 117.436, 12.316 131.890 L 8.628 143.280 10.986 145.190 C 12.303 146.256, 14.483 146.967, 15.922 146.800 C 17.961 146.563, 18.570 145.873, 18.834 143.500 C 19.167 140.502, 21.520 137, 23.200 137 C 23.690 137, 25.195 138.105, 26.545 139.455 C 28.476 141.385, 29 142.943, 29 146.755 C 29 149.420, 29.510 152.110, 30.133 152.733 C 30.756 153.356, 30.995 154.571, 30.664 155.433 C 30.202 156.636, 28.534 157, 23.479 157 C 17.048 157, 16.872 156.930, 15.839 153.967 C 14.979 151.500, 14.382 151.054, 12.641 151.576 C 6.485 153.419, 5.606 154.363, 4.332 160.500 C 2.424 169.694, 2.645 171.861, 5.793 174.849 C 7.329 176.307, 9.624 179.200, 10.892 181.278 C 13.822 186.079, 12.589 188, 6.578 188 C 4.280 188, 1.860 188.540, 1.200 189.200 C -0.300 190.700, -0.386 206.964, 1.041 219.500 C 6.161 264.496, 24.267 305.144, 52.456 334.927 C 70.568 354.062, 76.953 359.465, 94.500 370.505 C 118.854 385.826, 150.788 396.425, 183.211 399.945 C 195.741 401.306, 195.259 401.339, 197.811 398.961 C 199.015 397.840, 200 397.281, 200 397.720 C 200 398.160, 200.927 399.098, 202.061 399.806 C 203.704 400.832, 206.588 400.869, 216.311 399.989 C 250.760 396.868, 281.630 385.989, 310.226 366.890 C 325.283 356.834, 331.781 351.458, 345.238 337.924 L 357.976 325.113 357.587 320.807 C 357.374 318.438, 357.154 316.163, 357.099 315.750 C 357.045 315.337, 354.165 315, 350.700 315 C 344.046 315, 342.005 313.957, 341.992 310.550 C 341.987 309.215, 340.610 307.715, 338.044 306.250 C 332.844 303.281, 330.380 303.349, 329.593 306.485 C 329.185 308.112, 328.026 309.196, 326.235 309.625 C 324.731 309.986, 322.175 310.949, 320.556 311.766 C 317.750 313.183, 317.515 313.129, 315.519 310.626 C 312.372 306.679, 310.416 307.224, 305.157 313.509 C 302.993 316.096, 299.556 314.994, 299.168 311.590 C 298.756 307.974, 296.237 304, 294.358 304 C 292.139 304, 286 297.894, 286 295.687 C 286 294.592, 287.837 292.050, 290.082 290.038 C 294.877 285.741, 294.176 284.331, 286.989 283.819 C 281.364 283.418, 280.754 281.400, 284.978 277.176 C 287.828 274.326, 288.424 274.144, 293.111 274.700 C 296.485 275.099, 298.554 275.915, 299.325 277.149 C 299.993 278.218, 301.638 279, 303.217 279 C 305.033 279, 306.505 279.841, 307.592 281.500 C 308.493 282.875, 310.191 284.014, 311.365 284.031 C 312.539 284.048, 315.300 285.171, 317.500 286.526 C 322.035 289.319, 323 289.532, 323 287.740 C 323 286.511, 310.157 279, 308.056 279 C 307.475 279, 306.100 278.100, 305 277 C 303.900 275.900, 302.122 275, 301.050 275 C 299.977 275, 298.740 274.410, 298.300 273.688 C 297.860 272.967, 293.999 270.211, 289.720 267.566 C 282.090 262.849, 279.445 260.077, 280.298 257.695 C 281.332 254.807, 273 245, 269.513 245 C 268.734 245, 266.776 246.919, 265.162 249.265 C 257.601 260.253, 238.764 274.387, 226.262 278.450 C 220.816 280.220, 219.250 281.419, 220.984 282.490 C 221.543 282.835, 222 284.299, 222 285.743 C 222 287.187, 222.971 290.373, 224.157 292.824 C 225.737 296.088, 226.042 297.710, 225.298 298.890 C 223.461 301.801, 220.758 300.701, 217.932 295.891 C 213.836 288.919, 213.694 287.810, 216.506 284.776 C 217.878 283.297, 219 281.810, 219 281.472 C 219 281.133, 216.522 281.166, 213.492 281.544 C 192.921 284.114, 176.086 280.922, 159.995 271.400 C 138.902 258.917, 124.206 238.601, 120.355 216.598 C 118.521 206.120, 119.023 186.810, 121.345 178.500 C 128.346 153.443, 151.418 129.527, 176 121.844 C 182.594 119.783, 185.493 119.500, 200 119.500 C 214.507 119.500, 217.406 119.783, 224 121.844 C 245.663 128.614, 266.028 147.728, 275.777 170.440 C 277.680 174.873, 280.391 179.446, 281.801 180.602 C 284.239 182.600, 284.297 182.869, 282.971 186.071 C 282.023 188.359, 281.621 193.055, 281.717 200.722 C 281.840 210.489, 282.137 212.358, 283.929 214.637 C 285.068 216.085, 286 218.019, 286 218.935 C 286 219.851, 286.551 221.151, 287.225 221.825 C 288.192 222.792, 288.192 223.464, 287.225 225.011 C 285.574 227.655, 285.678 231.488, 287.440 232.950 C 288.232 233.607, 289.019 235.087, 289.190 236.238 C 289.409 237.720, 291.835 239.530, 297.500 242.438 C 309.631 248.665, 320.244 254.570, 329.626 260.313 C 334.287 263.166, 341.409 267.300, 345.452 269.500 C 353.902 274.098, 357 276.630, 357 278.939 C 357 279.835, 355.538 282.879, 353.750 285.705 C 351.962 288.531, 349.725 292.116, 348.779 293.671 C 347.832 295.227, 346.521 297.230, 345.865 298.121 C 344.894 299.442, 345.227 300.647, 347.663 304.621 C 350.094 308.587, 351.247 309.559, 353.827 309.813 C 357.621 310.188, 357.984 308.769, 354.500 307.182 C 351.877 305.987, 351.077 302.495, 353.250 301.722 C 354.675 301.216, 362.128 304.699, 363.227 306.384 C 364.110 307.739, 363.150 311.224, 361.615 312.235 C 360.816 312.761, 360.838 312.974, 361.691 312.985 C 362.346 312.993, 363.160 312.550, 363.500 312 C 363.840 311.450, 364.889 311, 365.832 311 C 368.681 311, 373.841 299.719, 372.004 297.505 C 370.448 295.630, 371.706 293.491, 375.295 291.911 C 377.783 290.816, 379.317 288.823, 382.155 283 C 384.166 278.875, 385.654 275.338, 385.463 275.141 C 385.272 274.943, 385.959 272.641, 386.991 270.024 C 389.048 264.805, 388.388 263, 384.422 263 C 383.225 263, 381.734 262.385, 381.110 261.633 C 379.446 259.627, 381.640 258.202, 386.980 257.819 L 391.421 257.500 393.235 250.500 C 394.233 246.650, 395.954 238.100, 397.059 231.500 C 398.165 224.900, 399.541 217.250, 400.119 214.500 C 403.123 200.189, 397.670 162.657, 388.589 135.140 C 386.164 127.792, 383.683 121.283, 383.076 120.676 C 382.271 119.871, 381.164 119.877, 378.986 120.699 C 376.412 121.671, 376 121.595, 376 120.154 C 376 119.234, 376.900 117.919, 378 117.232 C 379.100 116.545, 380 115.268, 380 114.394 C 380 112.783, 373.057 98.828, 370.549 95.398 C 369.214 93.572, 369.129 93.573, 367.059 95.446 C 365.040 97.273, 364.855 97.282, 363.219 95.619 C 361.592 93.965, 361.621 93.772, 363.750 92.025 C 364.988 91.010, 366 89.852, 366 89.453 C 366 84.582, 337.088 53.318, 322.657 42.582 C 307.698 31.454, 287.331 19.665, 275.782 15.449 C 255.033 7.875, 243.483 4.702, 228.500 2.463 C 213.992 0.294, 189.589 -0.198, 177 1.425 M 225.079 7.583 C 225.127 8.748, 225.364 8.985, 225.683 8.188 C 225.972 7.466, 225.936 6.603, 225.604 6.271 C 225.272 5.939, 225.036 6.529, 225.079 7.583 M 191.585 24.977 C 189.982 25.493, 188.302 26.497, 187.851 27.208 C 186.464 29.393, 186.797 99.397, 188.200 100.800 C 188.983 101.583, 193.106 102, 200.078 102 C 208.787 102, 211.008 101.695, 212.128 100.347 C 213.234 99.015, 213.500 91.843, 213.500 63.385 C 213.500 32.810, 213.292 27.867, 211.948 26.522 C 210.068 24.639, 195.961 23.569, 191.585 24.977 M 218.667 37.667 C 218.300 38.033, 218 40.664, 218 43.512 C 218 49.008, 220.469 52.802, 223.331 51.703 C 224.859 51.117, 225.111 40.606, 223.655 38.250 C 222.831 36.917, 219.774 36.560, 218.667 37.667 M 275.327 45.250 C 273.222 47.594, 261.855 66.253, 260.753 69.174 C 260.405 70.095, 258.933 72.730, 257.481 75.030 L 254.841 79.212 246.787 78.856 C 239.746 78.545, 238.593 78.736, 237.616 80.379 C 236.773 81.798, 236.802 82.367, 237.737 82.707 C 238.417 82.955, 239.941 83.942, 241.124 84.900 L 243.275 86.641 240.029 89.675 L 236.783 92.709 239.893 95.891 L 243.004 99.073 240.915 103.167 C 237.829 109.216, 239.960 117.497, 243.965 115.022 C 244.888 114.451, 247.638 115.303, 252.055 117.528 L 258.747 120.898 260.706 118.699 C 263.416 115.658, 279.600 89.428, 285.509 78.500 C 288.186 73.550, 291.867 67.312, 293.688 64.638 C 299.488 56.122, 298.329 53.688, 284.878 46.151 C 278.175 42.394, 277.915 42.369, 275.327 45.250 M 236 71 C 236 71.550, 236.450 72, 237 72 C 237.550 72, 238 71.550, 238 71 C 238 70.450, 237.550 70, 237 70 C 236.450 70, 236 70.450, 236 71 M 51.667 79.667 C 51.300 80.033, 51 81.314, 51 82.512 C 51 86.575, 58.751 91.209, 61.005 88.494 C 62.729 86.417, 61.324 83.363, 57.580 81.050 C 54.079 78.886, 52.757 78.577, 51.667 79.667 M 42 88.941 C 42 89.459, 42.450 90.160, 43 90.500 C 43.550 90.840, 44 90.416, 44 89.559 C 44 88.702, 43.550 88, 43 88 C 42.450 88, 42 88.423, 42 88.941 M 66.609 89.880 C 64.987 91.672, 65.090 91.903, 68.848 94.880 C 73.049 98.207, 77 98.993, 77 96.500 C 77 95.449, 75.939 95, 73.455 95 C 69.944 95, 69.916 94.965, 70.566 91.500 C 71.325 87.454, 69.485 86.701, 66.609 89.880 M 114.594 93.896 C 113.717 94.865, 113 96.185, 113 96.829 C 113 97.473, 112.550 98, 112 98 C 110.325 98, 110.803 107.592, 112.550 109.042 C 113.830 110.104, 114.386 110.043, 115.733 108.695 C 117.244 107.185, 117.240 106.923, 115.683 105.202 C 114.757 104.179, 114 102.140, 114 100.671 C 114 98.489, 114.457 98, 116.500 98 C 118.470 98, 119 97.493, 119 95.607 C 119 92.539, 116.648 91.626, 114.594 93.896 M 51.776 107.168 C 47.492 112.483, 43 120.158, 43 122.164 C 43 124.392, 46.743 127.406, 54 131.020 C 57.575 132.801, 60.725 134.579, 61 134.972 C 61.522 135.718, 77.224 145.044, 85 149.227 C 87.475 150.558, 93.425 153.786, 98.223 156.400 C 103.659 159.361, 107.638 160.932, 108.784 160.568 C 110.866 159.908, 119.500 144.555, 119.500 141.514 C 119.500 139.141, 114.806 135.901, 96 125.293 C 88.575 121.105, 77.204 114.557, 70.732 110.741 C 64.260 106.925, 58.132 103.586, 57.116 103.320 C 55.820 102.981, 54.225 104.130, 51.776 107.168 M 335.500 106.873 C 332.200 108.980, 324.550 113.428, 318.500 116.757 C 298.611 127.702, 284.698 135.935, 282.330 138.160 C 279.248 141.055, 279.390 143.799, 282.844 148.022 C 284.407 149.935, 285.986 152.716, 286.351 154.203 C 286.716 155.689, 288.066 158.127, 289.351 159.622 L 291.688 162.338 303.094 155.826 C 309.367 152.245, 318.775 146.910, 324 143.971 C 329.225 141.032, 335.750 137.205, 338.500 135.466 C 341.250 133.727, 346.128 130.773, 349.340 128.902 C 357.604 124.087, 357.857 123.237, 353.408 115.204 C 345.623 101.145, 344.957 100.835, 335.500 106.873 M 36.604 105.590 C 35.785 107.725, 36.703 109, 39.059 109 C 41.439 109, 41.726 105.493, 39.418 104.607 C 37.282 103.787, 37.298 103.782, 36.604 105.590 M 103.446 109.087 C 102.416 110.755, 104.733 112.667, 106.113 111.287 C 107.267 110.133, 106.545 108, 105 108 C 104.515 108, 103.816 108.489, 103.446 109.087 M 352.079 141.583 C 352.127 142.748, 352.364 142.985, 352.683 142.188 C 352.972 141.466, 352.936 140.603, 352.604 140.271 C 352.272 139.939, 352.036 140.529, 352.079 141.583 M 27.481 163.030 C 27.093 163.659, 27.227 164.627, 27.781 165.181 C 29.202 166.602, 32.500 165.767, 32.500 163.986 C 32.500 162.188, 28.476 161.422, 27.481 163.030 M 299 167.500 C 299 168.325, 299.450 169, 300 169 C 300.550 169, 301 168.325, 301 167.500 C 301 166.675, 300.550 166, 300 166 C 299.450 166, 299 166.675, 299 167.500 M 309 170 C 307.667 171.333, 307 173.333, 307 176 C 307 181.611, 309.322 181.217, 312.328 175.096 C 315.475 168.689, 313.435 165.565, 309 170 M 386.639 175.694 C 385.513 176.820, 385.954 178, 387.500 178 C 388.325 178, 389 177.577, 389 177.059 C 389 175.798, 387.438 174.895, 386.639 175.694 M 296.958 178.550 C 295.897 179.829, 295.953 180.382, 297.276 181.704 C 298.748 183.177, 299.096 183.167, 301.507 181.587 C 303.626 180.199, 303.904 179.589, 302.944 178.433 C 301.384 176.553, 298.570 176.608, 296.958 178.550 M 337 185 L 335.757 188 318.450 188 C 304.050 188, 300.879 188.264, 299.571 189.571 C 297.311 191.832, 297.311 209.168, 299.571 211.429 C 300.940 212.797, 305.641 213, 335.961 213 C 378.141 213, 375.500 213.835, 375.500 200.500 C 375.500 188.369, 374.985 188, 358.055 188 L 345.331 188 342.658 185 C 341.187 183.350, 339.593 182, 339.114 182 C 338.635 182, 337.683 183.350, 337 185 M 26.861 189.914 C 24.708 191.659, 24.500 192.593, 24.500 200.503 C 24.500 213.835, 21.859 213, 64.039 213 C 94.359 213, 99.060 212.797, 100.429 211.429 C 102.410 209.447, 102.717 191.117, 100.800 189.200 C 99.912 188.312, 90.447 188, 64.411 188 C 31.239 188, 29.086 188.110, 26.861 189.914 M 0.385 202 C 0.385 208.875, 0.545 211.688, 0.740 208.250 C 0.936 204.813, 0.936 199.188, 0.740 195.750 C 0.545 192.313, 0.385 195.125, 0.385 202 M 69.503 236.991 C 68.755 239.348, 69.578 241, 71.500 241 C 72.260 241, 73.163 240.546, 73.506 239.991 C 74.447 238.468, 73.053 235, 71.500 235 C 70.749 235, 69.850 235.896, 69.503 236.991 M 70 238.500 C 70 239.325, 70.675 240, 71.500 240 C 72.325 240, 73 239.325, 73 238.500 C 73 237.675, 72.325 237, 71.500 237 C 70.675 237, 70 237.675, 70 238.500 M 384 238.500 C 384 239.500, 385 240, 387 240 C 389 240, 390 239.500, 390 238.500 C 390 237.500, 389 237, 387 237 C 385 237, 384 237.500, 384 238.500 M 100.500 243.179 C 97.750 244.870, 92.350 247.938, 88.500 249.998 C 74.520 257.479, 60.421 265.370, 56.946 267.659 C 52.952 270.290, 50 270.693, 50 268.607 C 50 266.163, 46.661 265.700, 44.881 267.898 C 43.447 269.669, 42.864 269.775, 40.161 268.755 C 36.546 267.390, 36.305 267.544, 35.847 271.500 C 35.543 274.131, 35.838 274.539, 38.248 274.816 C 40.276 275.050, 41.166 275.835, 41.646 277.816 C 42.004 279.292, 43.519 282.075, 45.012 284 C 46.504 285.925, 48.517 289.075, 49.484 291 C 53.426 298.850, 55.794 299.612, 62.320 295.128 C 67.211 291.766, 81.930 283, 82.682 283 C 82.966 283, 87.316 280.582, 92.349 277.627 C 97.382 274.672, 104.716 270.640, 108.646 268.667 C 115.874 265.038, 120 261.162, 120 258 C 120 257.048, 118.987 254.997, 117.750 253.441 C 116.513 251.885, 114.375 248.337, 113 245.556 C 109.907 239.300, 107.542 238.851, 100.500 243.179 M 367.813 240.683 C 368.534 240.972, 369.397 240.936, 369.729 240.604 C 370.061 240.272, 369.471 240.036, 368.417 240.079 C 367.252 240.127, 367.015 240.364, 367.813 240.683 M 380.091 242.390 C 377.852 245.088, 381.406 252, 385.033 252 C 385.980 252, 387.338 251.297, 388.051 250.438 C 389.154 249.109, 388.752 248.282, 385.347 244.877 C 381.877 241.407, 381.181 241.077, 380.091 242.390 M 375.139 268.006 C 373.841 269.103, 371.703 270, 370.389 270 C 367.412 270, 367.219 272.511, 370.078 274.042 C 372.571 275.376, 375 274.640, 375 272.550 C 375 271.147, 376.409 270.546, 381.500 269.775 C 382.600 269.609, 383.500 268.804, 383.500 267.986 C 383.500 265.658, 377.902 265.671, 375.139 268.006 M 44.190 271.750 C 44.376 272.712, 45.415 273.500, 46.500 273.500 C 47.585 273.500, 48.624 272.712, 48.810 271.750 C 49.062 270.439, 48.482 270, 46.500 270 C 44.518 270, 43.938 270.439, 44.190 271.750 M 120.694 278.639 C 119.895 279.438, 120.798 281, 122.059 281 C 122.577 281, 123 280.325, 123 279.500 C 123 277.954, 121.820 277.513, 120.694 278.639 M 134.015 281.205 C 134.024 282.467, 134.440 284.147, 134.940 284.937 C 136.049 286.690, 133.652 291.679, 126.983 301.500 C 122.473 308.141, 111 327.619, 111 328.634 C 111 328.896, 109.200 332.094, 107 335.742 C 101.289 345.211, 101.694 347.342, 110 351.519 C 111.925 352.487, 113.725 353.603, 114 354 C 115.056 355.523, 121.248 358.119, 122.593 357.603 C 124.543 356.854, 133.044 343.532, 143.716 324.500 C 148.651 315.700, 154.631 305.178, 157.006 301.119 C 160.310 295.471, 161.087 293.357, 160.315 292.119 C 157.940 288.311, 144.156 280.630, 137.750 279.545 C 134.319 278.963, 134.001 279.104, 134.015 281.205 M 248.655 285.240 C 238.841 291.039, 236.018 294.550, 237.881 298.639 C 238.473 299.937, 239.604 301, 240.395 301 C 243.073 301, 246.650 306.465, 261.009 332.500 C 267.471 344.218, 275.142 356.006, 276.926 356.960 C 280.703 358.982, 297 348.101, 297 343.557 C 297 340.391, 300.918 335.518, 302.329 336.929 C 303.923 338.523, 305.856 338.239, 309.096 335.932 C 312.601 333.436, 313.004 329.004, 310 326 C 307.408 323.408, 306.555 323.478, 304.196 326.478 C 303.124 327.841, 301.067 329.404, 299.624 329.953 C 296.905 330.987, 296.256 332.422, 298.016 333.510 C 299.621 334.502, 298.115 336, 295.514 336 C 293.673 336, 292.431 334.723, 289.922 330.250 C 288.149 327.087, 284.516 320.838, 281.849 316.361 C 279.182 311.885, 277 307.303, 277 306.179 C 277 305.024, 276.144 303.863, 275.031 303.510 C 273.867 303.140, 272.658 301.420, 272.073 299.301 C 271.528 297.330, 270.206 294.769, 269.134 293.609 C 268.062 292.449, 266.193 289.578, 264.980 287.228 C 263.062 283.511, 259.667 279.986, 258.027 280.007 C 257.737 280.010, 253.520 282.366, 248.655 285.240 M 164.750 287.080 C 162.532 288.372, 162.495 290.592, 164.678 291.430 C 166.802 292.245, 169.471 289.669, 168.668 287.578 C 167.970 285.759, 167.189 285.659, 164.750 287.080 M 199.079 290.583 C 199.127 291.748, 199.364 291.985, 199.683 291.188 C 199.972 290.466, 199.936 289.603, 199.604 289.271 C 199.272 288.939, 199.036 289.529, 199.079 290.583 M 231.918 293.051 C 230.845 293.714, 230.792 294.192, 231.691 295.091 C 232.948 296.348, 236 295.673, 236 294.138 C 236 292.739, 233.500 292.073, 231.918 293.051 M 308.500 293.975 C 306.850 295.082, 304.295 295.990, 302.823 295.993 C 300.817 295.998, 299.748 296.798, 298.558 299.185 C 296.384 303.542, 297.972 305.127, 302.124 302.743 C 303.795 301.785, 305.766 301, 306.504 301 C 307.243 301, 309.148 299.905, 310.739 298.567 C 312.627 296.977, 315.169 296.023, 318.065 295.817 C 321.200 295.593, 322.500 295.060, 322.500 294 C 322.500 291.488, 312.235 291.470, 308.500 293.975 M 186.500 295 C 186.160 295.550, 184.585 296, 183 296 C 179.165 296, 178.158 297.899, 180.841 300.072 C 182.028 301.034, 183 302.933, 183 304.294 C 183 305.926, 183.680 306.945, 185 307.290 C 186.173 307.597, 187 308.654, 187 309.847 C 187 312.366, 185.204 313.604, 183.713 312.113 C 181.247 309.647, 179.071 311.005, 176.287 316.750 C 173.345 322.819, 173.626 322.650, 163.185 324.631 C 161.463 324.958, 160.951 325.638, 161.185 327.285 C 161.428 328.993, 162.275 329.574, 164.888 329.824 C 169.905 330.303, 172.522 329.345, 173.788 326.566 C 174.841 324.255, 175.282 324.125, 180.209 324.671 C 183.119 324.994, 185.908 325.631, 186.408 326.087 C 187.819 327.376, 185.068 330, 182.304 330 C 178.680 330, 179.688 333.340, 183.512 334.001 L 186.500 334.518 186.771 353.623 C 187.013 370.676, 187.239 372.907, 188.877 374.388 C 191.310 376.591, 202.238 377.570, 207.740 376.078 C 212.782 374.711, 212.895 374.402, 213.827 359.437 L 214.500 348.622 217.750 347.782 C 219.537 347.321, 221 346.661, 221 346.318 C 221 345.974, 219.425 342.876, 217.500 339.434 C 215.575 335.991, 214 332.675, 214 332.063 C 214 331.451, 215.125 330.523, 216.500 330 C 219.680 328.791, 219.872 325.931, 216.750 326.262 C 214.561 326.494, 214.479 326.164, 213.726 314.074 C 213.301 307.240, 212.458 301.052, 211.854 300.324 C 211.103 299.419, 208.114 299, 202.401 299 C 194.593 299, 193.939 298.836, 192.408 296.500 C 190.747 293.965, 187.629 293.174, 186.500 295 M 162.807 299.750 C 158.556 304.699, 160.054 308, 166.551 308 C 173.349 308, 176.146 303.910, 171.087 301.366 C 169.846 300.742, 168.330 299.730, 167.716 299.116 C 166.127 297.527, 164.540 297.732, 162.807 299.750 M 278.813 300.683 C 279.534 300.972, 280.397 300.936, 280.729 300.604 C 281.061 300.272, 280.471 300.036, 279.417 300.079 C 278.252 300.127, 278.015 300.364, 278.813 300.683 M 320.244 302.250 C 320.470 302.938, 322.307 303.640, 324.327 303.810 C 327.121 304.046, 328 303.747, 328 302.560 C 328 301.401, 326.950 301, 323.917 301 C 321.098 301, 319.960 301.387, 320.244 302.250 M 285.956 309.553 C 285.053 310.642, 284.995 311.395, 285.755 312.155 C 287.037 313.437, 289 312.435, 289 310.500 C 289 308.363, 287.365 307.855, 285.956 309.553 M 145.500 360 C 144.505 361.100, 143.155 362, 142.500 362 C 141.845 362, 140.457 362.943, 139.414 364.095 C 137.544 366.161, 137.551 366.218, 139.945 368.157 C 141.707 369.583, 143.077 369.921, 144.937 369.388 C 146.347 368.984, 148.850 368.619, 150.500 368.577 C 154.466 368.475, 156 367.370, 156 364.615 C 156 361.854, 152.120 358, 149.341 358 C 148.224 358, 146.495 358.900, 145.500 360 M 161.177 383.553 C 161.629 385.725, 163.404 385.858, 163.810 383.750 C 164.020 382.655, 163.530 382, 162.500 382 C 161.539 382, 160.988 382.647, 161.177 383.553" stroke="none" fill="black" fill-rule="evenodd"/>
</svg>