<svg xmlns="http://www.w3.org/2000/svg" width="400" height="401" viewBox="0 0 400 401" version="1.1">
	<path d="M 184.500 0.656 C 167.836 2.638, 152.096 5.805, 139.177 9.775 C 134.005 11.365, 133.871 11.499, 134.437 14.517 C 134.905 17.010, 134.525 18.053, 132.510 19.804 C 129.724 22.227, 129.396 24.060, 131.225 26.989 C 132.196 28.543, 132.189 29.211, 131.191 30.209 C 130.179 31.221, 128.909 30.898, 124.716 28.563 C 118.821 25.280, 118.037 24.425, 118.015 21.250 C 118.006 19.909, 117.385 19, 116.478 19 C 111.891 19, 75 41.595, 75 44.404 C 75 45.062, 75.517 46.117, 76.149 46.749 C 76.781 47.381, 77.569 49.560, 77.899 51.590 C 78.730 56.698, 81.198 58.102, 84.270 55.217 C 87.325 52.346, 88.383 52.422, 91.453 55.733 L 93.987 58.465 98.347 56.083 C 100.746 54.773, 103.196 54.003, 103.792 54.372 C 105.152 55.212, 112.363 77.978, 114.436 87.974 C 117.192 101.266, 126.149 132.450, 127.715 134.210 C 128.642 135.251, 129.006 136.841, 128.646 138.276 C 127.687 142.097, 130.175 144.348, 145.250 153.297 C 153.087 157.950, 162.200 163.384, 165.500 165.373 C 174.218 170.626, 184.154 175.155, 185.679 174.570 C 186.727 174.168, 187 168.686, 187 148.054 L 187 122.046 184.488 120.400 C 182.890 119.353, 180.931 118.964, 179.100 119.330 C 175.478 120.054, 173 117.577, 173 113.230 C 173 108.736, 174.457 108.452, 179.699 111.924 C 184.748 115.268, 185.563 115.516, 186.506 113.991 C 187.748 111.980, 185.913 109, 183.433 109 C 181.171 109, 180.571 108.150, 180.892 105.397 C 180.962 104.791, 167.693 91.029, 151.404 74.816 C 129.714 53.225, 121.884 44.823, 122.144 43.418 C 122.363 42.241, 124.819 40.341, 128.500 38.500 C 132.934 36.283, 134.587 34.887, 134.833 33.149 C 135.095 31.299, 135.627 30.912, 137.333 31.330 C 146.906 33.676, 146.735 33.548, 164.946 51.891 C 176.530 63.558, 183.651 70, 184.963 70 C 186.950 70, 187 69.465, 187 48.200 C 187 32.578, 187.340 26.060, 188.200 25.200 C 189.846 23.554, 210.154 23.554, 211.800 25.200 C 212.651 26.051, 213.004 32.094, 213.014 45.950 C 213.028 67.093, 213.372 69.993, 215.867 70.013 C 217.702 70.029, 253 34.188, 253 32.309 C 253 31.561, 254.989 30.990, 258.250 30.802 C 263.958 30.474, 265.676 28.104, 261.005 27.001 C 259.633 26.677, 258.372 25.695, 258.204 24.819 C 257.798 22.712, 262.927 18.748, 265.267 19.360 C 266.555 19.696, 267.394 19.093, 268.055 17.356 C 269.464 13.649, 269.331 13.416, 265.082 12.143 C 262.101 11.250, 260.553 11.247, 258.614 12.130 C 256.318 13.176, 255.665 12.930, 252.030 9.646 C 248.164 6.153, 246.183 5.460, 241.268 5.879 C 240.041 5.984, 238.016 5.431, 236.768 4.650 C 235.521 3.869, 232.129 2.937, 229.231 2.578 L 223.963 1.926 224.168 4.713 C 224.281 6.246, 223.553 9.637, 222.551 12.250 C 220.339 18.015, 217.326 18.671, 214.068 14.096 C 211.387 10.330, 211.438 9.913, 215 6.500 C 216.650 4.919, 218 3.098, 218 2.452 C 218 1.783, 215.743 1.007, 212.750 0.648 C 207.400 0.005, 189.932 0.011, 184.500 0.656 M 166.361 9.501 C 166.045 10.326, 163.696 11.938, 161.143 13.084 C 157.313 14.802, 155.962 14.977, 153.429 14.083 C 148.695 12.414, 146 12.702, 146 14.878 C 146 15.910, 146.736 17.366, 147.636 18.113 C 148.536 18.860, 150.341 21.165, 151.649 23.235 C 152.956 25.306, 154.625 27, 155.358 27 C 157.345 27, 160 30.352, 160 32.860 C 160 35.710, 162.701 36.728, 164.771 34.658 C 165.893 33.535, 166.458 30.907, 166.621 26.043 C 166.769 21.633, 167.437 18.214, 168.428 16.800 C 170.510 13.826, 170.537 8, 168.469 8 C 167.626 8, 166.678 8.675, 166.361 9.501 M 177.473 10.044 C 176.793 11.145, 177.721 13, 178.952 13 C 179.411 13, 180.031 12.362, 180.330 11.583 C 180.949 9.969, 178.376 8.583, 177.473 10.044 M 230 12.583 C 230 14.349, 232.153 14.042, 232.771 12.188 C 232.989 11.534, 232.454 11, 231.583 11 C 230.713 11, 230 11.713, 230 12.583 M 275.250 15.727 C 273.154 16.464, 273.854 19.858, 276.453 21.561 L 278.906 23.168 276.204 28.006 L 273.503 32.844 276.252 38.272 C 277.763 41.257, 279 44.148, 279 44.695 C 279 45.242, 279.900 46.505, 281 47.500 C 283.258 49.544, 283.343 49.909, 282.037 51.974 C 281.251 53.217, 280.707 53.074, 278.563 51.059 C 276.094 48.740, 275.963 48.724, 274.010 50.491 C 271.866 52.432, 271.353 55.482, 273 56.500 C 274.557 57.462, 274.176 61.609, 272.396 63.086 C 271.514 63.819, 270.400 65.449, 269.921 66.709 C 268.902 69.388, 267.746 69.604, 265.958 67.449 C 264.871 66.140, 265.007 65.811, 266.836 65.333 C 269.486 64.640, 269.694 61.442, 267.176 60.094 C 265.642 59.273, 263.457 61.017, 253.475 71.025 C 246.943 77.574, 241.906 83.239, 242.282 83.615 C 242.657 83.991, 243.981 84.805, 245.223 85.424 C 248.253 86.935, 248.570 89.430, 246.052 91.948 C 244.104 93.896, 243.767 93.930, 240.368 92.509 C 235.187 90.344, 234.262 90.553, 229.645 94.926 C 227.365 97.085, 222.893 101.247, 219.706 104.176 C 214.082 109.345, 213.883 109.704, 212.903 116.500 C 212.347 120.350, 212.222 125.525, 212.625 128 C 213.027 130.475, 213.389 134.075, 213.428 136 C 213.491 139.054, 213.851 139.540, 216.250 139.816 C 217.824 139.998, 219 140.746, 219 141.566 C 219 143.255, 216.422 143.491, 215.434 141.893 C 214.957 141.122, 214.490 141.197, 213.890 142.143 C 212.151 144.888, 213.298 174, 215.145 174 C 215.615 174, 216 173.047, 216 171.882 C 216 170.717, 217.350 168.226, 219 166.347 C 220.650 164.468, 222 161.921, 222 160.687 C 222 159.454, 223.012 157.558, 224.250 156.474 L 226.500 154.503 224.250 154.182 C 221.686 153.816, 221.207 150.903, 223.410 149.075 C 224.527 148.148, 225.139 148.360, 226.355 150.096 C 227.739 152.073, 228.184 152.166, 230.885 151.048 C 234.472 149.562, 236 150.291, 236 153.488 C 236 154.791, 236.706 156.564, 237.570 157.427 C 241.001 160.858, 243.146 160.318, 257.271 152.465 C 268.533 146.203, 271.113 144.349, 271.607 142.164 C 273.751 132.675, 275.620 125.801, 279.539 113 C 281.980 105.025, 284.885 94.225, 285.994 89 C 287.103 83.775, 288.944 76.350, 290.086 72.500 C 294.913 56.224, 295.617 54.506, 297.578 54.226 C 299.436 53.962, 313.153 63.434, 315.750 66.774 C 317.423 68.927, 317.330 75.183, 315.541 80.866 C 311.669 93.164, 305.051 121.451, 305.857 122.257 C 307.253 123.653, 322.736 115.560, 339.265 104.796 C 343.206 102.230, 344.424 101.872, 346.303 102.728 C 348.040 103.520, 354.790 113.581, 358.649 121.132 C 358.827 121.480, 358.081 122.899, 356.991 124.284 C 355.114 126.670, 350.582 129.543, 338 136.322 C 334.975 137.952, 329.653 141.084, 326.174 143.281 C 318.262 148.277, 318.748 148.933, 333 152.491 C 338.775 153.933, 348.225 156.615, 354 158.451 C 359.775 160.287, 365.916 162.087, 367.646 162.451 C 372.574 163.488, 373.750 165.684, 375.644 177.384 C 377.310 187.677, 377.311 188.299, 375.666 189.502 C 373.668 190.964, 374.094 191.049, 347.159 183.824 L 328.818 178.904 326.387 181.528 C 323.544 184.595, 321.522 184.332, 321.448 180.887 C 321.370 177.243, 320.438 176.326, 316.110 175.634 C 313.946 175.287, 306.700 173.428, 300.008 171.502 C 293.315 169.576, 286.958 168, 285.880 168 C 283.441 168, 276.807 171.323, 275.071 173.414 C 273.480 175.332, 274.467 180, 276.463 180 C 277.247 180, 279.538 181.511, 281.555 183.358 L 285.220 186.717 282.922 188.858 C 281.657 190.036, 280.002 191, 279.244 191 C 277.709 191, 278.503 195.008, 280.263 196.138 C 280.809 196.489, 280.947 197.277, 280.569 197.888 C 280.122 198.611, 280.951 199, 282.941 199 C 285.466 199, 286 199.401, 286 201.300 C 286 204.493, 287.826 206, 291.697 206 C 294.031 206, 296.091 206.984, 298.747 209.367 C 300.811 211.219, 303.513 213.050, 304.751 213.435 C 307.638 214.333, 309.337 217.521, 308.566 220.593 C 308.089 222.492, 307.304 223, 304.841 223 C 303.093 223, 301.189 223.727, 300.512 224.653 C 298.696 227.136, 297 225.372, 297 221 C 297 216.291, 295.720 215.299, 292.428 217.455 C 289.400 219.439, 288.863 219.138, 284.851 213.199 C 283.105 210.615, 281.522 208.311, 281.334 208.079 C 281.146 207.848, 279.911 208.674, 278.590 209.915 C 276.636 211.751, 275.811 211.969, 274.160 211.086 C 273.044 210.489, 271.003 210, 269.625 210 C 266.041 210, 265.434 208.231, 268.060 205.436 C 270.266 203.088, 270.278 202.965, 268.501 201.001 C 266.889 199.219, 266.834 198.678, 268.040 196.425 C 269.322 194.030, 269.207 193.713, 266.204 191.362 C 264.442 189.983, 263 188.228, 263 187.463 C 263 186.697, 262.063 185.569, 260.917 184.955 C 259.260 184.069, 258.449 184.188, 256.954 185.542 C 255.920 186.477, 254.375 186.974, 253.520 186.646 C 251.833 185.999, 245 188.848, 245 190.199 C 245 190.654, 245.563 191.948, 246.250 193.074 C 248.079 196.071, 245.009 198.248, 240.949 196.832 C 237.413 195.600, 231.495 197.282, 230.512 199.798 C 229.577 202.190, 231.488 203.484, 259.235 219.250 C 284.086 233.370, 287.398 234.633, 291.559 231.572 C 292.626 230.787, 298.900 229.162, 305.500 227.961 C 312.100 226.760, 323.568 223.962, 330.985 221.745 C 338.402 219.527, 349.104 216.460, 354.767 214.928 C 362.106 212.942, 365.611 211.476, 366.969 209.821 C 368.529 207.921, 369.204 207.705, 370.687 208.629 C 372.069 209.489, 373.154 209.423, 375.250 208.353 C 378.795 206.543, 378.852 204.645, 374.627 229 L 373.500 235.500 367.500 238.579 C 360.950 241.940, 361.099 241.549, 362.199 252.500 L 362.500 255.500 356.135 255.801 C 348.561 256.159, 346.103 254.659, 346.773 250.090 C 347.502 245.129, 344.965 244.827, 332.758 248.421 C 326.850 250.161, 321.512 252.088, 320.896 252.704 C 319.411 254.189, 322.336 256.072, 346.259 269.030 C 353.217 272.798, 359 277.762, 359 279.965 C 359 280.411, 357.494 282.965, 355.654 285.640 C 353.813 288.316, 351.542 291.986, 350.606 293.796 C 349.670 295.606, 347.866 297.560, 346.597 298.138 C 344.002 299.320, 341.661 298.268, 329.500 290.447 C 319.896 284.271, 311.114 279.812, 309.960 280.525 C 308.456 281.454, 308.836 289.321, 310.499 291.695 C 311.324 292.873, 313.521 294.777, 315.382 295.927 C 318.918 298.112, 321.620 302.943, 320.678 305.397 C 320.376 306.185, 318.862 307.441, 317.314 308.188 C 314.895 309.356, 314.514 310.104, 314.601 313.523 C 314.695 317.229, 316.276 326.225, 317.848 332 C 318.222 333.375, 319.546 334.949, 320.790 335.498 C 322.033 336.047, 322.920 337.172, 322.760 337.998 C 322.539 339.141, 320.852 339.532, 315.713 339.633 C 309.569 339.754, 308.536 340.094, 304.314 343.383 C 299.236 347.339, 297.845 347.702, 295.758 345.615 C 294.601 344.459, 287.180 318.348, 285.635 310 C 285.380 308.625, 282.636 298.950, 279.536 288.500 C 276.436 278.050, 273.632 267.557, 273.305 265.182 C 272.202 257.184, 270.378 255.685, 243 240.289 C 228.782 232.292, 216.615 226.070, 215.500 226.224 C 213.559 226.492, 213.491 227.372, 213.205 256 C 213.001 276.367, 213.269 286.617, 214.068 289.108 C 214.918 291.756, 219.709 297.021, 232.087 308.908 C 248.485 324.656, 249.041 325.083, 252.368 324.459 C 256.141 323.751, 260 325.271, 260 327.466 C 260 328.233, 259.023 329.005, 257.828 329.180 C 254.224 329.711, 254.704 331.580, 258.865 333.215 C 261.875 334.397, 262.941 335.453, 263.446 337.752 C 263.808 339.400, 265.264 341.818, 266.683 343.124 C 268.102 344.431, 271.456 348.113, 274.136 351.307 C 279.936 358.219, 279.608 360.129, 272.233 362.373 C 269.630 363.166, 265.323 364.795, 262.661 365.993 C 259.518 367.409, 256.922 367.946, 255.253 367.527 C 253.738 367.147, 245.459 359.520, 235.078 348.941 C 225.395 339.074, 216.744 331, 215.853 331 C 213.364 331, 213.028 333.923, 213.014 355.750 C 213 375.678, 213.034 376, 215.106 376 C 216.264 376, 218.097 377.125, 219.179 378.500 C 220.969 380.776, 221.834 381.001, 228.823 381.015 C 237.587 381.033, 240.413 382.060, 238 384.352 C 235.804 386.439, 217.983 387.192, 215.408 385.308 C 214.148 384.385, 212.258 384.120, 209.840 384.528 C 206.849 385.033, 206.075 384.812, 205.601 383.320 C 205.277 382.296, 203.244 380.939, 200.975 380.231 C 196.067 378.699, 193 379.928, 193 383.427 C 193 385.127, 192.280 385.964, 190.415 386.432 C 186.514 387.411, 183.828 386.216, 184.192 383.664 C 184.445 381.887, 185.271 381.444, 188.813 381.189 C 193.215 380.872, 194.267 378.869, 190.417 378.134 C 189.363 377.933, 188.169 377.258, 187.765 376.634 C 187.361 376.010, 187.024 365.473, 187.015 353.219 C 187.002 333.228, 186.826 330.871, 185.309 330.289 C 182.981 329.395, 146.233 367.208, 145.798 370.946 C 145.385 374.487, 142.796 374.171, 141.123 370.376 C 140.035 367.905, 138.360 366.686, 133.123 364.552 C 124.803 361.160, 122 359.365, 122 357.428 C 122 356.203, 138.355 337.757, 144.397 332.168 C 155.314 322.068, 160.092 316.958, 159.505 316.008 C 159.120 315.386, 157.688 314.452, 156.322 313.932 C 153.370 312.810, 153.711 310.776, 156.982 310.004 C 158.265 309.701, 159.625 308.569, 160.004 307.488 C 160.580 305.845, 161.633 305.520, 166.394 305.511 L 172.094 305.500 179.547 297.876 L 187 290.252 187 259.708 C 187 242.909, 186.727 228.452, 186.393 227.582 C 186.059 226.712, 185.157 226, 184.388 226 C 182.316 226, 174.911 229.859, 162 237.667 C 155.675 241.492, 145.663 247.448, 139.750 250.903 C 133.838 254.357, 129 257.325, 129 257.496 C 129 257.668, 125.878 269.299, 122.062 283.342 C 118.247 297.384, 114.664 311.366, 114.101 314.411 C 112.514 322.999, 104.886 346.106, 103.458 346.654 C 101.588 347.372, 97.375 344.883, 89.750 338.557 C 82.677 332.688, 81.920 330.972, 83.995 325.514 C 84.542 324.075, 85.242 321.458, 85.550 319.699 C 86.710 313.073, 94.097 284.407, 95.204 282.230 C 96.088 280.493, 96.075 279.675, 95.148 278.748 C 93.711 277.311, 91.346 278.448, 70.224 290.737 C 58.753 297.412, 55.586 298.849, 54.099 298.053 C 52.206 297.040, 47.138 289.695, 44.904 284.726 C 44.218 283.200, 42.642 281.697, 41.402 281.386 C 38.660 280.698, 35.581 277.487, 36.397 276.167 C 37.740 273.994, 44.629 271.292, 47.683 271.740 C 50.172 272.106, 52.274 271.273, 57.668 267.787 C 61.426 265.358, 67.495 261.698, 71.155 259.653 C 78.503 255.547, 80.809 253.409, 79.403 252.003 C 78.901 251.501, 74.796 250.346, 70.281 249.436 L 62.071 247.782 58.445 251.627 C 54.965 255.317, 54.762 255.395, 53.409 253.545 C 51.784 251.323, 51.672 250.066, 52.923 248.091 C 54.611 245.425, 52.855 244.237, 43.190 241.506 C 25.946 236.634, 26.677 237.392, 24.846 222.497 C 23.909 214.869, 23.939 212.778, 25.004 211.495 C 26.622 209.546, 26.738 209.568, 52.500 216.740 C 63.500 219.803, 75.200 222.989, 78.500 223.820 C 81.800 224.652, 90.350 226.899, 97.500 228.814 C 117.278 234.110, 115.005 234.337, 130.749 225.501 C 152.579 213.249, 167.549 204.156, 169.576 201.916 C 171.415 199.884, 171.404 199.813, 168.974 197.930 C 166.630 196.114, 131.330 176, 130.487 176 C 130.268 176, 127.519 174.200, 124.379 172 C 117.296 167.038, 115.463 166.989, 100.215 171.352 C 93.772 173.196, 82.875 176.167, 76 177.955 C 69.125 179.742, 57.650 182.917, 50.500 185.011 C 22.872 193.102, 23.129 193.172, 24.856 177.992 C 25.490 172.415, 26.439 167.047, 26.966 166.063 C 28.194 163.769, 30.343 162.971, 48.500 158.065 C 64.803 153.660, 76.751 149.946, 78.799 148.646 C 80.733 147.418, 78.881 145.658, 71.155 141.385 C 58.081 134.153, 44.936 125.747, 43.503 123.701 C 42.171 121.799, 42.408 120.941, 46.273 113.664 C 51.262 104.273, 54.628 101.195, 57.961 102.979 C 61.161 104.692, 61.687 103.420, 59.179 100.028 C 56.578 96.510, 56.457 95.117, 58.618 93.537 C 59.925 92.582, 61.322 92.916, 65.868 95.275 C 68.966 96.881, 71.761 98.617, 72.080 99.132 C 72.399 99.647, 73.339 99.807, 74.170 99.488 C 77.062 98.379, 78.317 101.598, 77.626 108.348 L 76.979 114.662 82.739 117.506 C 85.908 119.070, 89.652 120.913, 91.059 121.602 C 96.064 124.051, 96.420 122.156, 93.072 110.891 C 91.374 105.176, 88.980 96.563, 87.753 91.750 C 85.657 83.524, 85.365 83, 82.884 83 C 79.685 83, 78.287 81.476, 77.838 77.500 C 77.379 73.424, 75.906 73.726, 71.700 78.760 C 68.606 82.464, 68.062 82.771, 67.536 81.113 C 67.148 79.891, 66.289 79.373, 65.145 79.672 C 64.164 79.929, 62.808 79.473, 62.132 78.659 C 61.126 77.446, 61.468 76.536, 64.029 73.619 C 67.036 70.195, 67.351 67.544, 64.628 68.589 C 62.883 69.259, 60.625 66.421, 61.365 64.490 C 61.976 62.900, 62.621 62.579, 67.250 61.564 C 68.763 61.233, 70 60.351, 70 59.603 C 70 58.856, 70.675 57.685, 71.500 57 C 73.579 55.274, 73.469 49.117, 71.344 48.302 C 69.738 47.686, 69.202 48.175, 64.223 54.789 C 63.275 56.048, 61.895 57.623, 61.155 58.289 C 60.415 58.955, 58.702 60.625, 57.348 62 C 54.174 65.223, 52.533 66.753, 47.838 70.868 C 45.725 72.721, 43.631 75.646, 43.185 77.368 C 42.739 79.091, 41.353 81.010, 40.104 81.634 C 38.211 82.579, 35 87.020, 35 88.694 C 35 88.950, 36.399 88.852, 38.108 88.476 C 41.459 87.740, 49 90.432, 49 92.364 C 49 92.948, 47.765 94.410, 46.255 95.613 C 43.518 97.796, 43.516 97.808, 45.463 99.959 C 49.349 104.253, 43.351 107.226, 34.248 105.519 C 30.304 104.779, 27.925 101.001, 29.902 98.619 C 30.559 97.826, 30.713 96.940, 30.243 96.650 C 29.773 96.360, 28.011 98.232, 26.327 100.811 C 15.111 117.992, 3.789 152.296, 1.433 176.237 C 0.874 181.915, 1.024 183.072, 2.385 183.594 C 3.273 183.935, 4 184.867, 4 185.666 C 4 186.465, 3.601 186.871, 3.113 186.570 C 1.378 185.498, -0.243 188.918, 0.426 192.241 C 0.787 194.033, 1.014 196.400, 0.931 197.500 C 0.283 206.111, 0.734 219.952, 1.899 227.172 C 3.051 234.315, 3.647 235.936, 5.277 236.362 C 6.894 236.785, 7.126 237.394, 6.543 239.690 C 5.281 244.662, 5.895 248.452, 9.988 260.962 C 12.194 267.707, 14 273.646, 14 274.160 C 14 277.548, 30.798 309.260, 34.958 313.725 C 36.081 314.930, 37 316.300, 37 316.770 C 37 317.239, 37.818 318.501, 38.817 319.573 C 39.816 320.646, 41.081 322.322, 41.626 323.297 C 42.951 325.664, 65.035 348.030, 71.984 354.042 C 86.358 366.478, 112.641 381.699, 131.581 388.555 C 142.734 392.592, 162.451 397.473, 174.500 399.179 C 185.966 400.803, 214.801 400.786, 226.500 399.149 C 238.713 397.439, 256.127 392.993, 270 388.042 C 281.957 383.775, 299.063 375.329, 299.711 373.374 C 299.916 372.754, 298.459 371.289, 296.473 370.117 C 293.761 368.517, 292.942 367.428, 293.181 365.743 C 293.699 362.096, 298.349 362.195, 302.086 365.933 C 303.774 367.620, 305.907 368.989, 306.827 368.976 C 309.892 368.932, 327.267 355.636, 338.330 344.868 L 349.253 334.237 347.459 331.199 C 345.749 328.305, 345.746 328.036, 347.408 325.500 C 349.021 323.039, 349.034 322.542, 347.582 318.913 C 346.087 315.178, 346.111 314.889, 348.067 312.933 C 349.200 311.800, 351.092 311.017, 352.282 311.189 C 354.201 311.465, 354.407 312.034, 354.142 316.303 C 353.840 321.137, 355.103 324, 357.537 324 C 358.247 324, 360.266 321.638, 362.023 318.750 C 363.780 315.863, 366.079 312.560, 367.132 311.411 C 369.276 309.071, 372.555 303.208, 379.947 288.500 C 384.401 279.636, 392.360 257.256, 393.726 249.750 C 394.185 247.232, 393.965 247, 391.113 247 C 387.127 247, 383.561 243.689, 384.884 241.216 C 385.396 240.260, 386.745 238.636, 387.882 237.607 C 389.851 235.825, 390.073 235.818, 392.581 237.461 C 395.871 239.617, 396.801 238.732, 397.634 232.655 C 398.276 227.969, 398.246 227.900, 395.819 228.509 C 394.230 228.908, 392.916 228.603, 392.127 227.653 C 390.544 225.745, 392.231 224.590, 395.429 225.393 C 397.538 225.922, 397.894 225.440, 399.430 219.964 C 402.679 208.384, 400.217 175.478, 394.381 152.500 C 391.105 139.598, 383.488 118.318, 379.036 109.627 C 370.709 93.374, 353.200 69, 349.852 69 C 349.186 69, 347.215 69.516, 345.472 70.146 C 338.857 72.538, 334.084 68.927, 336.124 63.074 C 337.858 58.101, 336.437 53.596, 331.715 49.098 C 324.521 42.242, 320.736 39.830, 318 40.355 C 314.659 40.997, 308.913 42.599, 306.750 43.492 C 305.702 43.924, 305 43.770, 305 43.107 C 305 42.498, 305.938 42, 307.083 42 C 309.811 42, 309.036 39.602, 306.172 39.180 C 304.729 38.968, 304 39.388, 304 40.430 C 304 41.294, 303.541 42, 302.981 42 C 302.394 42, 302.227 40.943, 302.587 39.509 C 303.032 37.736, 302.749 36.841, 301.606 36.402 C 300.474 35.968, 300 34.510, 300 31.461 C 300 26.401, 298.259 24.806, 287.319 19.845 C 278.277 15.746, 276.714 15.212, 275.250 15.727 M 144.079 25.583 C 144.127 26.748, 144.364 26.985, 144.683 26.188 C 144.972 25.466, 144.936 24.603, 144.604 24.271 C 144.272 23.939, 144.036 24.529, 144.079 25.583 M 108.122 30.353 C 106.906 31.818, 107.596 33, 109.667 33 C 111.156 33, 111.492 30.422, 110.113 29.570 C 109.626 29.269, 108.730 29.621, 108.122 30.353 M 117.122 32.353 C 115.906 33.818, 116.596 35, 118.667 35 C 120.156 35, 120.492 32.422, 119.113 31.570 C 118.626 31.269, 117.730 31.621, 117.122 32.353 M 285 40.500 C 285 41.417, 285.484 42.005, 286.075 41.808 C 286.666 41.611, 287.150 41.023, 287.150 40.500 C 287.150 39.977, 286.666 39.389, 286.075 39.192 C 285.484 38.995, 285 39.583, 285 40.500 M 277.555 58.250 C 278.697 61.975, 280.062 63.193, 281.633 61.890 C 283.738 60.143, 283.262 57.303, 280.750 56.630 C 277.186 55.675, 276.822 55.860, 277.555 58.250 M 75 62.882 C 72.385 63.344, 71.500 64.001, 71.500 65.483 C 71.500 67.018, 72.394 67.611, 75.459 68.110 C 77.636 68.463, 79.586 69.259, 79.792 69.877 C 80.446 71.837, 81.742 71.103, 83.806 67.605 C 86.885 62.385, 84.636 61.179, 75 62.882 M 272.750 78.758 C 268.563 81.354, 269.254 83, 274.531 83 C 279.710 83, 281.667 80.692, 278.471 78.355 C 276.170 76.673, 276.107 76.677, 272.750 78.758 M 78 91 C 78 91.550, 78.675 92, 79.500 92 C 80.325 92, 81 91.550, 81 91 C 81 90.450, 80.325 90, 79.500 90 C 78.675 90, 78 90.450, 78 91 M 147.739 123.126 C 145.250 124.519, 145.594 126.858, 148.481 128.173 C 149.845 128.795, 151.226 130.136, 151.549 131.153 C 152.233 133.311, 155.602 135.364, 157.021 134.487 C 158.835 133.366, 158.019 131.150, 155 129 C 153.350 127.825, 152 126.275, 152 125.554 C 152 123.362, 149.680 122.040, 147.739 123.126 M 139.901 134.106 C 136.507 137.740, 136.320 139.074, 138.881 141.392 C 140.654 142.997, 140.863 142.994, 142.516 141.341 C 145.257 138.600, 147.015 133.723, 145.792 132.250 C 144.217 130.351, 143.071 130.712, 139.901 134.106 M 171.638 141.500 C 171.288 142.414, 171.637 143, 172.531 143 C 173.339 143, 174 142.325, 174 141.500 C 174 140.675, 173.598 140, 173.107 140 C 172.616 140, 171.955 140.675, 171.638 141.500 M 344.913 141.893 C 342.645 143.752, 342.601 143.974, 344.190 145.590 C 345.787 147.214, 346.024 147.215, 348.501 145.591 C 351.306 143.753, 351.531 140.726, 348.901 140.219 C 348.034 140.053, 346.240 140.806, 344.913 141.893 M 165.446 146.087 C 164.501 147.616, 166.552 149.386, 168.433 148.664 C 169.295 148.333, 170 147.374, 170 146.531 C 170 144.784, 166.465 144.439, 165.446 146.087 M 372 154 C 372 154.550, 372.675 155, 373.500 155 C 374.325 155, 375 154.550, 375 154 C 375 153.450, 374.325 153, 373.500 153 C 372.675 153, 372 153.450, 372 154 M 271.398 183.405 C 271.102 184.177, 271.003 186.315, 271.180 188.155 C 271.433 190.806, 271.995 191.570, 273.887 191.837 C 277.399 192.334, 278.078 190.211, 275.803 185.846 C 273.703 181.818, 272.305 181.043, 271.398 183.405 M 298.629 185.514 C 296.838 187.305, 296.417 194.530, 297.963 196.974 C 298.559 197.916, 298.515 198.682, 297.842 199.098 C 297.263 199.455, 299.987 199.519, 303.895 199.240 L 311 198.731 311 202.296 C 311 205.232, 310.603 205.917, 308.750 206.180 C 307.512 206.356, 306.500 207.175, 306.500 208 C 306.500 208.825, 307.512 209.644, 308.750 209.820 C 310.584 210.080, 311 210.773, 311 213.570 C 311 215.711, 311.782 217.782, 313.081 219.081 C 315.103 221.103, 315.220 221.111, 317.189 219.331 C 318.304 218.324, 319.998 217.629, 320.955 217.787 C 321.911 217.945, 323.300 217.343, 324.041 216.450 C 325.215 215.036, 324.843 214.322, 321.151 210.913 C 316.506 206.624, 315.501 206.252, 314.638 208.500 C 313.802 210.680, 312 210.338, 312 208 C 312 206.667, 312.667 206, 314 206 C 315.465 206, 316 205.333, 316 203.508 C 316 202.100, 315.131 200.474, 314 199.768 C 311.830 198.413, 311.300 194.100, 313.085 192.315 C 313.681 191.719, 314.019 190.166, 313.835 188.865 C 313.547 186.835, 312.791 186.416, 308.500 185.911 C 305.750 185.587, 302.771 184.999, 301.879 184.603 C 300.897 184.168, 299.615 184.528, 298.629 185.514 M 0.232 191 C 0.232 192.925, 0.438 193.713, 0.689 192.750 C 0.941 191.787, 0.941 190.213, 0.689 189.250 C 0.438 188.287, 0.232 189.075, 0.232 191 M 325.023 190.977 C 322.805 193.195, 323.247 195.527, 326.182 197.097 C 329.884 199.078, 332.910 193.310, 329.800 190.200 C 328.149 188.549, 327.316 188.684, 325.023 190.977 M 286 196.083 C 286 198.520, 288.337 198.176, 288.823 195.667 C 289.015 194.680, 288.505 194, 287.573 194 C 286.646 194, 286 194.855, 286 196.083 M 379.035 200.934 C 376.680 205.336, 378.122 207.058, 382.316 204.850 C 385.285 203.287, 386.092 201.816, 384.820 200.284 C 383.245 198.385, 380.217 198.726, 379.035 200.934 M 0.355 208.500 C 0.352 213.450, 0.521 215.601, 0.731 213.280 C 0.940 210.959, 0.943 206.909, 0.736 204.280 C 0.530 201.651, 0.358 203.550, 0.355 208.500 M 172.104 238.914 C 170.226 240.103, 171.461 243, 173.846 243 C 176.533 243, 178.297 240.697, 176.776 239.176 C 175.383 237.783, 174.012 237.706, 172.104 238.914 M 30.535 251.104 C 24.364 256.522, 26.521 259.426, 34.195 256.032 C 39.119 253.854, 40.725 251.579, 38.895 249.373 C 37.084 247.191, 34.345 247.758, 30.535 251.104 M 160 252.941 C 160 254.009, 160.399 255.129, 160.887 255.430 C 162.105 256.183, 164.325 253.335, 163.527 252.044 C 162.432 250.273, 160 250.891, 160 252.941 M 229.446 259.087 C 228.299 260.943, 230.698 262.495, 232.458 261.035 C 233.306 260.331, 234 259.360, 234 258.878 C 234 257.619, 230.247 257.792, 229.446 259.087 M 244.781 281.052 C 239.905 283.627, 238.625 286.019, 240.607 288.849 C 241.800 290.552, 242.514 290.795, 243.993 290.004 C 246.585 288.617, 248 288.749, 248 290.378 C 248 292.617, 250.443 294.157, 251.817 292.783 C 252.709 291.891, 252.518 291.116, 251.010 289.511 C 249.054 287.429, 249.054 287.371, 250.960 283.813 C 253.813 278.491, 251.548 277.479, 244.781 281.052 M 366.510 284.984 C 365.773 286.177, 366.709 288, 368.059 288 C 369.276 288, 369.284 285.293, 368.069 284.543 C 367.557 284.226, 366.856 284.425, 366.510 284.984 M 59.489 313.018 C 58.574 314.498, 59.442 315.255, 61.577 314.838 C 63.140 314.534, 63.156 314.371, 61.745 313.201 C 60.620 312.269, 59.984 312.218, 59.489 313.018 M 52 318 C 52 318.550, 52.675 319, 53.500 319 C 54.325 319, 55 318.550, 55 318 C 55 317.450, 54.325 317, 53.500 317 C 52.675 317, 52 317.450, 52 318 M 335.590 321.627 C 335.246 322.521, 335.471 323.862, 336.088 324.606 C 337.607 326.436, 341 324.612, 341 321.965 C 341 319.495, 336.515 319.214, 335.590 321.627 M 56 322.882 C 56 323.432, 56.450 324.160, 57 324.500 C 57.550 324.840, 58 324.668, 58 324.118 C 58 323.568, 57.550 322.840, 57 322.500 C 56.450 322.160, 56 322.332, 56 322.882 M 323 327.500 C 323 328.433, 323.944 329, 325.500 329 C 327.056 329, 328 328.433, 328 327.500 C 328 326.567, 327.056 326, 325.500 326 C 323.944 326, 323 326.567, 323 327.500 M 283.257 330.040 C 283.932 331.121, 284.859 331.880, 285.317 331.728 C 286.852 331.216, 286.169 329.607, 284.089 328.837 C 282.242 328.154, 282.156 328.278, 283.257 330.040 M 330.446 332.087 C 329.416 333.755, 331.733 335.667, 333.113 334.287 C 334.267 333.133, 333.545 331, 332 331 C 331.515 331, 330.816 331.489, 330.446 332.087 M 342.510 333.016 C 342.856 333.575, 343.557 333.774, 344.069 333.457 C 345.456 332.600, 345.198 332, 343.441 332 C 342.584 332, 342.165 332.457, 342.510 333.016 M 319.079 353.583 C 319.127 354.748, 319.364 354.985, 319.683 354.188 C 319.972 353.466, 319.936 352.603, 319.604 352.271 C 319.272 351.939, 319.036 352.529, 319.079 353.583 M 235.200 360.200 C 232.484 362.916, 234.601 365.819, 237.979 364.011 C 240.393 362.719, 240.619 360.452, 238.418 359.607 C 236.404 358.834, 236.602 358.798, 235.200 360.200 M 215.688 365.646 C 214.383 366.950, 215.006 368, 217.083 368 C 218.247 368, 218.992 367.476, 218.771 366.813 C 218.284 365.351, 216.614 364.719, 215.688 365.646 M 227.306 373.645 C 226.418 375.959, 229.613 378, 234.124 378 C 236.981 378, 238.015 377.530, 238.497 376.009 C 239.490 372.882, 238.260 372, 232.910 372 C 229.218 372, 227.775 372.424, 227.306 373.645 M 171.500 384 C 171.101 384.646, 171.224 385.624, 171.774 386.174 C 172.441 386.841, 173.016 386.783, 173.500 386 C 173.899 385.354, 173.776 384.376, 173.226 383.826 C 172.559 383.159, 171.984 383.217, 171.500 384 M 193.357 387.513 C 192.684 389.266, 194.638 392, 196.563 392 C 198.829 392, 199.272 389.958, 197.443 387.937 C 195.335 385.608, 194.136 385.483, 193.357 387.513" stroke="none" fill="black" fill-rule="evenodd"/>
</svg>