<svg xmlns="http://www.w3.org/2000/svg" viewBox="0 0 512 512" style="width:512px;height:512px"><rect width="512" height="512" fill="#000"/><path fill="#fff" d="M256 48C158 48 80 120 80 210c0 56 28 104 72 134v32H96v32h56v16H96v32h56v48h32v-48h48v48h32v-48h56v-32h-56v-16h56v-32h-56v-32c44-30 72-78 72-134 0-90-78-162-176-162zm-56 128a28 28 0 1 1 0 56 28 28 0 0 1 0-56zm112 0a28 28 0 1 1 0 56 28 28 0 0 1 0-56zm-56 88c-24 0-44-10-58-26l20-18c10 12 24 20 38 20s28-8 38-20l20 18c-14 16-34 26-58 26z"/></svg>
