<svg xmlns="http://www.w3.org/2000/svg" viewBox="0 0 512 512" style="width:512px;height:512px"><rect width="512" height="512" fill="#000"/><path fill="#fff" d="M256 48c-88 0-160 72-160 160 0 60 33 112 82 140v48l-48 16v32l48-16v48l-48 16v32l48-16v64h16v-64l48 16v-32l-48-16v-48l48 16v-32l-48-16v-48c49-28 82-80 82-140 0-88-72-160-160-160zm-48 120a24 24 0 1 1 0 48 24 24 0 0 1 0-48zm96 0a24 24 0 1 1 0 48 24 24 0 0 1 0-48zm-48 80c-20 0-36-8-48-20l16-16c8 8 20 12 32 12s24-4 32-12l16 16c-12 12-28 20-48 20z"/></svg>
