<?xml version="1.0" encoding="UTF-8"?>
<svg xmlns="http://www.w3.org/2000/svg" width="294" height="275" viewBox="0 0 294 275">
  <path d="M 292 10 L 290 9 L 280 9 L 272 14 L 267 19 L 266 19 L 261 24 L 254 29 L 186 96 L 185 96 L 159 122 L 157 123 L 155 123 L 151 121 L 148 118 L 148 116 L 147 115 L 146 106 L 145 105 L 145 100 L 144 99 L 144 94 L 143 93 L 143 89 L 142 88 L 142 82 L 141 81 L 141 71 L 139 68 L 133 65 L 123 65 L 122 66 L 116 67 L 111 70 L 97 86 L 95 91 L 95 128 L 96 129 L 97 146 L 98 147 L 98 154 L 99 155 L 99 165 L 100 166 L 100 170 L 101 172 L 110 181 L 118 187 L 127 192 L 133 192 L 134 193 L 139 192 L 154 182 L 182 155 L 183 155 L 222 116 L 222 115 L 259 77 L 259 76 L 274 61 L 274 60 L 292 41 L 292 39 L 293 38 L 293 12 Z M 134 0 L 130 2 L 1 131 L 0 133 L 0 141 L 2 144 L 130 272 L 132 273 L 136 273 L 137 274 L 138 273 L 141 273 L 144 271 L 270 145 L 273 139 L 273 135 L 270 129 L 254 113 L 253 113 L 239 128 L 239 129 L 247 137 L 137 247 L 136 247 L 26 137 L 26 136 L 74 88 L 76 80 L 78 78 L 79 75 L 86 67 L 86 66 L 93 59 L 93 58 L 104 49 L 114 45 L 117 45 L 136 26 L 181 71 L 196 56 L 196 55 L 144 3 L 138 0 Z" fill="#231f20" fill-rule="evenodd"/>
</svg>
