<?xml version="1.0" encoding="UTF-8"?>
<svg xmlns="http://www.w3.org/2000/svg" width="710" height="710" viewBox="-72 -72 710 710">
  <title>Checked box icon</title>
  <g fill="#231f20" fill-rule="evenodd" transform="translate(0,-37)">
    <path d="M 53.0 45.0 L 7.0 91.0 L 3.0 97.0 L 0.0 105.0 L 0.0 534.0 L 3.0 543.0 L 7.0 549.0 L 52.0 594.0 L 59.0 599.0 L 67.0 602.0 L 497.0 602.0 L 501.0 601.0 L 511.0 595.0 L 558.0 548.0 L 564.0 536.0 L 564.0 531.0 L 565.0 530.0 L 565.0 299.0 L 501.0 366.0 L 501.0 514.0 L 476.0 539.0 L 88.0 539.0 L 63.0 514.0 L 63.0 126.0 L 88.0 101.0 L 476.0 101.0 L 487.0 111.0 L 532.0 66.0 L 510.0 44.0 L 501.0 39.0 L 493.0 38.0 L 492.0 37.0 L 73.0 37.0 L 72.0 38.0 L 63.0 39.0 Z"/>
    <path d="M 706.0 5.0 L 704.0 3.0 L 698.0 1.0 L 679.0 1.0 L 669.0 4.0 L 657.0 12.0 L 609.0 52.0 L 506.0 151.0 L 365.0 290.0 L 353.0 301.0 L 346.0 305.0 L 341.0 305.0 L 333.0 302.0 L 324.0 295.0 L 321.0 289.0 L 317.0 272.0 L 310.0 225.0 L 309.0 224.0 L 307.0 208.0 L 306.0 207.0 L 306.0 201.0 L 304.0 193.0 L 304.0 183.0 L 303.0 182.0 L 303.0 169.0 L 298.0 160.0 L 290.0 154.0 L 278.0 150.0 L 265.0 150.0 L 264.0 151.0 L 257.0 151.0 L 235.0 157.0 L 227.0 162.0 L 207.0 182.0 L 186.0 208.0 L 183.0 214.0 L 181.0 222.0 L 180.0 243.0 L 179.0 244.0 L 181.0 314.0 L 182.0 315.0 L 182.0 325.0 L 183.0 326.0 L 184.0 343.0 L 185.0 344.0 L 188.0 378.0 L 189.0 379.0 L 191.0 404.0 L 192.0 405.0 L 192.0 417.0 L 193.0 418.0 L 194.0 428.0 L 197.0 435.0 L 210.0 449.0 L 227.0 464.0 L 251.0 481.0 L 264.0 488.0 L 270.0 490.0 L 292.0 491.0 L 298.0 489.0 L 318.0 477.0 L 335.0 464.0 L 378.0 425.0 L 477.0 330.0 L 642.0 156.0 L 678.0 116.0 L 705.0 88.0 L 708.0 80.0 L 708.0 10.0 Z"/>
  </g>
</svg>
