<?xml version="1.0" encoding="UTF-8" standalone="no"?>
<svg xmlns="http://www.w3.org/2000/svg" width="372" height="391" viewBox="30 22 372 391" version="1.1">
  <title>Spiral icon</title>
  <path d="M 160 26 L 130 36 L 103 50 L 82 64 L 71 73 L 48 97 L 38 112 L 30 130 L 66 90 L 88 69 L 95 64 L 111 56 L 141 45 L 171 39 L 206 38 L 207 39 L 217 39 L 218 40 L 235 42 L 254 47 L 278 56 L 307 71 L 335 91 L 359 116 L 371 134 L 378 148 L 384 166 L 387 181 L 388 212 L 387 213 L 387 221 L 382 245 L 371 275 L 363 291 L 349 313 L 338 327 L 324 342 L 304 359 L 289 369 L 272 378 L 248 387 L 230 391 L 222 391 L 221 392 L 202 392 L 201 391 L 193 391 L 192 390 L 182 389 L 153 379 L 136 370 L 119 358 L 101 341 L 84 318 L 76 301 L 72 287 L 71 274 L 70 273 L 70 260 L 71 259 L 72 245 L 76 230 L 86 208 L 101 187 L 115 173 L 124 166 L 140 156 L 160 148 L 179 144 L 209 144 L 210 145 L 226 147 L 237 151 L 245 156 L 255 166 L 262 181 L 264 199 L 263 200 L 262 219 L 260 226 L 252 240 L 238 252 L 228 257 L 216 261 L 192 264 L 165 238 L 163 238 L 155 248 L 149 259 L 146 269 L 146 282 L 150 291 L 155 296 L 165 301 L 175 303 L 202 303 L 203 302 L 215 301 L 237 295 L 258 285 L 275 272 L 288 257 L 297 242 L 303 224 L 304 200 L 300 185 L 294 173 L 289 166 L 272 149 L 251 135 L 217 120 L 193 115 L 173 115 L 172 116 L 154 118 L 139 122 L 109 135 L 81 154 L 63 172 L 53 186 L 47 197 L 38 224 L 37 236 L 36 237 L 36 262 L 40 282 L 44 294 L 51 309 L 59 322 L 69 335 L 88 354 L 100 364 L 137 389 L 167 403 L 186 409 L 201 412 L 207 412 L 208 413 L 240 413 L 270 407 L 304 394 L 323 383 L 339 371 L 352 359 L 367 341 L 378 324 L 386 308 L 394 286 L 398 270 L 400 252 L 401 251 L 401 241 L 402 240 L 401 202 L 400 201 L 398 182 L 392 159 L 385 140 L 377 123 L 361 99 L 337 74 L 322 62 L 307 52 L 270 34 L 251 28 L 233 24 L 219 23 L 218 22 L 184 22 L 183 23 L 176 23 Z" fill="#000000" fill-rule="evenodd"/>
</svg>
