<svg xmlns="http://www.w3.org/2000/svg" width="710" height="710" viewBox="-72 -72 710 710">
  <path fill="#241F21" fill-rule="evenodd" d="
    M 69 0
    L 495 0
    C 502 0 509 3 514 8
    L 558 52
    C 563 57 566 64 566 72
    L 566 494
    C 566 502 563 509 558 514
    L 514 558
    C 509 563 502 566 494 566
    L 72 566
    C 64 566 57 563 52 558
    L 8 514
    C 3 509 0 502 0 494
    L 0 72
    C 0 64 3 57 8 52
    L 52 8
    C 57 3 64 0 69 0
    Z

    M 88 64
    L 478 64
    L 502 88
    L 502 478
    L 478 502
    L 88 502
    L 64 478
    L 64 88
    Z
  "/>
</svg>
