<?xml version="1.0" encoding="UTF-8"?>
<svg xmlns="http://www.w3.org/2000/svg" viewBox="0 0 493 392" width="493" height="392">
  <path d="M 127.0 7.0 L 106.0 14.0 L 85.0 24.0 L 58.0 41.0 L 50.0 48.0 L 45.0 51.0 L 20.0 77.0 L 9.0 94.0 L 5.0 102.0 L 2.0 111.0 L 20.0 91.0 L 20.0 90.0 L 46.0 64.0 L 46.0 63.0 L 60.0 50.0 L 67.0 45.0 L 87.0 35.0 L 89.0 35.0 L 97.0 31.0 L 109.0 27.0 L 112.0 27.0 L 116.0 25.0 L 124.0 24.0 L 129.0 22.0 L 140.0 21.0 L 141.0 20.0 L 150.0 20.0 L 151.0 19.0 L 179.0 19.0 L 180.0 20.0 L 189.0 20.0 L 190.0 21.0 L 197.0 21.0 L 198.0 22.0 L 207.0 23.0 L 208.0 24.0 L 219.0 26.0 L 223.0 28.0 L 226.0 28.0 L 229.0 30.0 L 232.0 30.0 L 235.0 32.0 L 240.0 33.0 L 256.0 41.0 L 258.0 41.0 L 280.0 53.0 L 305.0 71.0 L 324.0 90.0 L 332.0 100.0 L 341.0 114.0 L 347.0 126.0 L 350.0 136.0 L 352.0 139.0 L 352.0 142.0 L 355.0 151.0 L 355.0 155.0 L 356.0 156.0 L 356.0 162.0 L 357.0 163.0 L 358.0 184.0 L 357.0 185.0 L 357.0 198.0 L 356.0 199.0 L 354.0 215.0 L 353.0 216.0 L 353.0 219.0 L 351.0 223.0 L 351.0 226.0 L 345.0 244.0 L 341.0 251.0 L 341.0 253.0 L 332.0 271.0 L 320.0 290.0 L 309.0 304.0 L 293.0 321.0 L 292.0 321.0 L 283.0 330.0 L 259.0 347.0 L 250.0 351.0 L 244.0 355.0 L 242.0 355.0 L 232.0 360.0 L 220.0 364.0 L 209.0 366.0 L 208.0 367.0 L 196.0 368.0 L 195.0 369.0 L 171.0 369.0 L 170.0 368.0 L 157.0 367.0 L 156.0 366.0 L 145.0 364.0 L 133.0 360.0 L 126.0 356.0 L 124.0 356.0 L 109.0 348.0 L 97.0 340.0 L 87.0 332.0 L 71.0 316.0 L 61.0 303.0 L 60.0 300.0 L 55.0 293.0 L 48.0 277.0 L 46.0 267.0 L 45.0 266.0 L 44.0 253.0 L 43.0 252.0 L 43.0 239.0 L 44.0 238.0 L 44.0 229.0 L 45.0 228.0 L 47.0 215.0 L 50.0 206.0 L 52.0 203.0 L 52.0 201.0 L 59.0 187.0 L 69.0 172.0 L 87.0 153.0 L 96.0 146.0 L 112.0 136.0 L 114.0 136.0 L 116.0 134.0 L 118.0 134.0 L 123.0 131.0 L 132.0 128.0 L 135.0 128.0 L 140.0 126.0 L 144.0 126.0 L 145.0 125.0 L 150.0 125.0 L 151.0 124.0 L 180.0 124.0 L 181.0 125.0 L 193.0 126.0 L 194.0 127.0 L 197.0 127.0 L 212.0 133.0 L 219.0 138.0 L 228.0 149.0 L 231.0 155.0 L 231.0 158.0 L 234.0 167.0 L 234.0 188.0 L 233.0 189.0 L 233.0 196.0 L 232.0 197.0 L 232.0 200.0 L 230.0 206.0 L 224.0 217.0 L 214.0 227.0 L 200.0 235.0 L 198.0 235.0 L 192.0 238.0 L 189.0 238.0 L 184.0 240.0 L 180.0 240.0 L 179.0 241.0 L 164.0 242.0 L 145.0 224.0 L 135.0 216.0 L 125.0 229.0 L 119.0 242.0 L 118.0 250.0 L 117.0 251.0 L 117.0 258.0 L 121.0 269.0 L 127.0 275.0 L 137.0 280.0 L 147.0 281.0 L 148.0 282.0 L 172.0 282.0 L 173.0 281.0 L 180.0 281.0 L 181.0 280.0 L 186.0 280.0 L 187.0 279.0 L 195.0 278.0 L 199.0 276.0 L 202.0 276.0 L 208.0 274.0 L 211.0 272.0 L 213.0 272.0 L 222.0 268.0 L 224.0 266.0 L 231.0 263.0 L 244.0 253.0 L 257.0 239.0 L 264.0 229.0 L 270.0 217.0 L 273.0 208.0 L 273.0 205.0 L 274.0 204.0 L 274.0 200.0 L 275.0 199.0 L 275.0 177.0 L 274.0 176.0 L 273.0 169.0 L 271.0 166.0 L 270.0 161.0 L 265.0 152.0 L 257.0 141.0 L 243.0 128.0 L 227.0 117.0 L 201.0 104.0 L 196.0 103.0 L 193.0 101.0 L 184.0 98.0 L 181.0 98.0 L 176.0 96.0 L 171.0 96.0 L 170.0 95.0 L 149.0 94.0 L 148.0 95.0 L 132.0 96.0 L 131.0 97.0 L 127.0 97.0 L 126.0 98.0 L 115.0 100.0 L 106.0 103.0 L 103.0 105.0 L 101.0 105.0 L 98.0 107.0 L 96.0 107.0 L 89.0 111.0 L 87.0 111.0 L 85.0 113.0 L 78.0 116.0 L 61.0 127.0 L 50.0 136.0 L 36.0 150.0 L 24.0 167.0 L 17.0 181.0 L 12.0 196.0 L 12.0 199.0 L 10.0 204.0 L 10.0 208.0 L 9.0 209.0 L 9.0 216.0 L 8.0 217.0 L 8.0 237.0 L 9.0 238.0 L 10.0 252.0 L 20.0 282.0 L 33.0 303.0 L 45.0 318.0 L 54.0 327.0 L 73.0 343.0 L 85.0 352.0 L 112.0 369.0 L 133.0 379.0 L 138.0 380.0 L 141.0 382.0 L 150.0 385.0 L 153.0 385.0 L 157.0 387.0 L 161.0 387.0 L 166.0 389.0 L 178.0 390.0 L 179.0 391.0 L 213.0 391.0 L 214.0 390.0 L 226.0 389.0 L 227.0 388.0 L 238.0 386.0 L 245.0 383.0 L 248.0 383.0 L 257.0 379.0 L 262.0 378.0 L 269.0 374.0 L 271.0 374.0 L 291.0 363.0 L 300.0 356.0 L 307.0 352.0 L 323.0 337.0 L 389.0 281.0 L 412.0 260.0 L 427.0 248.0 L 492.0 191.0 L 489.0 187.0 L 477.0 179.0 L 469.0 172.0 L 450.0 159.0 L 435.0 147.0 L 431.0 145.0 L 427.0 141.0 L 419.0 136.0 L 389.0 113.0 L 385.0 111.0 L 362.0 93.0 L 358.0 91.0 L 350.0 84.0 L 346.0 82.0 L 304.0 50.0 L 300.0 48.0 L 296.0 44.0 L 283.0 35.0 L 280.0 34.0 L 273.0 29.0 L 264.0 25.0 L 262.0 23.0 L 260.0 23.0 L 244.0 15.0 L 226.0 9.0 L 223.0 9.0 L 219.0 7.0 L 215.0 7.0 L 210.0 5.0 L 206.0 5.0 L 205.0 4.0 L 191.0 3.0 L 190.0 2.0 L 155.0 2.0 L 154.0 3.0 L 147.0 3.0 L 146.0 4.0 L 141.0 4.0 L 140.0 5.0 L 136.0 5.0 L 131.0 7.0 Z" fill="#231f20" fill-rule="evenodd"/>
</svg>
